<svg width="15" height="15" viewBox="0 0 15 15" fill="none" xmlns="http://www.w3.org/2000/svg">
<path d="M15 7.5C15 11.6421 11.6421 15 7.5 15C3.35786 15 0 11.6421 0 7.5C0 3.35786 3.35786 0 7.5 0C11.6421 0 15 3.35786 15 7.5Z" fill="#FB0000"/>
<path d="M6.06381 12.248C6.06381 12.7707 5.78115 13.032 5.21581 13.032C5.09848 13.032 4.99181 12.984 4.89581 12.888C4.81048 12.7813 4.76781 12.6213 4.76781 12.408L4.71981 8.344C4.71981 7 4.73581 5.736 4.76781 4.552C4.40515 4.872 4.05315 5.24 3.71181 5.656C3.37048 6.072 3.13581 6.34933 3.00781 6.488C2.89048 6.62667 2.73048 6.76533 2.52781 6.904C2.33581 7.032 2.15448 7.096 1.98381 7.096C1.81315 7.096 1.67448 7.03733 1.56781 6.92C1.47181 6.80267 1.42381 6.65867 1.42381 6.488C1.42381 6.31733 1.54648 6.088 1.79181 5.8C2.04781 5.50133 2.97581 4.504 4.57581 2.808C4.82115 2.584 5.13048 2.472 5.50381 2.472C5.68515 2.472 5.83448 2.52533 5.95181 2.632C6.06915 2.73867 6.12781 2.86133 6.12781 3L6.01581 7.304L6.06381 12.248ZM7.31631 7.944C7.31631 6.51467 7.57231 5.256 8.08431 4.168C8.34031 3.61333 8.68698 3.176 9.12431 2.856C9.56165 2.536 10.063 2.376 10.6283 2.376C11.4603 2.376 12.1376 2.92 12.6603 4.008C13.1936 5.08533 13.4603 6.37067 13.4603 7.864C13.4603 9.34667 13.215 10.5787 12.7243 11.56C12.2336 12.5307 11.5403 13.016 10.6443 13.016C8.42565 13.016 7.31631 11.3253 7.31631 7.944ZM10.4843 11.544C10.8683 11.544 11.1883 11.3467 11.4443 10.952C11.711 10.5467 11.8923 10.0987 11.9883 9.608C12.0843 9.10667 12.1323 8.46133 12.1323 7.672C12.1323 6.872 12.0256 6.024 11.8123 5.128C11.7056 4.63733 11.5403 4.248 11.3163 3.96C11.103 3.66133 10.8416 3.512 10.5323 3.512C10.1163 3.512 9.75898 3.76267 9.46031 4.264C8.92698 5.17067 8.66031 6.376 8.66031 7.88C8.66031 8.86133 8.84165 9.72 9.20431 10.456C9.57765 11.1813 10.0043 11.544 10.4843 11.544Z" fill="white"/>
</svg>
