<svg width="15" height="15" viewBox="0 0 15 15" fill="none" xmlns="http://www.w3.org/2000/svg">
<path d="M15 7.5C15 11.6421 11.6421 15 7.5 15C3.35786 15 0 11.6421 0 7.5C0 3.35786 3.35786 0 7.5 0C11.6421 0 15 3.35786 15 7.5Z" fill="#FB0000"/>
<path d="M8.532 9.464C8.148 9.528 7.604 9.56 6.9 9.56C6.196 9.56 5.716 9.44267 5.46 9.208C5.204 8.97333 5.076 8.46667 5.076 7.688C5.076 6.89867 5.13467 6.03467 5.252 5.096C5.36933 4.15733 5.49733 3.46933 5.636 3.032C5.78533 2.584 6.07333 2.36 6.5 2.36C6.788 2.36 6.95333 2.48267 6.996 2.728C6.996 2.792 6.996 2.89333 6.996 3.032C6.996 3.17067 6.964 3.368 6.9 3.624C6.644 5.50133 6.516 6.84 6.516 7.64C6.516 7.832 6.52133 7.992 6.532 8.12C6.724 8.16267 6.98 8.184 7.3 8.184C7.63067 8.184 8.04667 8.152 8.548 8.088C8.56933 7.864 8.58 7.56533 8.58 7.192C8.58 6.808 8.58533 6.488 8.596 6.232C8.60667 5.976 8.644 5.79467 8.708 5.688C8.772 5.58133 8.95333 5.528 9.252 5.528C9.56133 5.528 9.75333 5.58133 9.828 5.688C9.91333 5.79467 9.956 5.944 9.956 6.136C9.956 6.31733 9.94 6.70667 9.908 7.304C9.876 7.89067 9.86 9.55467 9.86 12.296C9.86 12.776 9.62533 13.016 9.156 13.016C9.13467 13.016 9.11333 13.016 9.092 13.016C8.69733 13.016 8.5 12.6907 8.5 12.04V11.16L8.532 9.464Z" fill="white"/>
</svg>
