<svg width="15" height="15" viewBox="0 0 15 15" fill="none" xmlns="http://www.w3.org/2000/svg">
<path d="M15 7.5C15 11.6421 11.6421 15 7.5 15C3.35786 15 0 11.6421 0 7.5C0 3.35786 3.35786 0 7.5 0C11.6421 0 15 3.35786 15 7.5Z" fill="#FB0000"/>
<path d="M6.05319 6.104C6.49052 5.944 6.91185 5.864 7.31719 5.864C7.72252 5.864 8.11185 5.928 8.48519 6.056C8.86919 6.184 9.21585 6.38133 9.52519 6.648C9.84519 6.91467 10.1012 7.28267 10.2932 7.752C10.4852 8.21067 10.5812 8.744 10.5812 9.352C10.5812 10.376 10.2825 11.24 9.68519 11.944C9.08785 12.648 8.39452 13 7.60519 13C6.82652 13 6.13852 12.824 5.54119 12.472C4.95452 12.1093 4.66119 11.7147 4.66119 11.288C4.66119 11.0853 4.68252 10.936 4.72519 10.84C4.77852 10.7333 4.86919 10.648 4.99719 10.584C5.12519 10.52 5.23719 10.488 5.33319 10.488C5.43985 10.488 5.57852 10.552 5.74919 10.68C5.93052 10.7973 6.18119 10.968 6.50119 11.192C6.82119 11.416 7.18919 11.528 7.60519 11.528C8.02119 11.528 8.38919 11.32 8.70919 10.904C9.02919 10.4773 9.18919 10.0133 9.18919 9.512C9.18919 8.072 8.54385 7.352 7.25319 7.352C6.97585 7.352 6.65052 7.37867 6.27719 7.432C5.91452 7.48533 5.67452 7.51733 5.55719 7.528C5.45052 7.53867 5.30119 7.50133 5.10919 7.416C4.88519 7.20267 4.77319 6.52533 4.77319 5.384C4.77319 4.232 4.79985 3.49067 4.85319 3.16C4.90652 2.81867 4.99719 2.62133 5.12519 2.568C5.34919 2.472 6.01585 2.424 7.12519 2.424C8.24519 2.424 9.14119 2.53067 9.81319 2.744C10.0265 2.872 10.1332 3.05867 10.1332 3.304C10.1332 3.53867 10.0639 3.73067 9.92519 3.88C9.79719 4.02933 9.65852 4.088 9.50919 4.056C8.62385 3.864 7.73319 3.768 6.83719 3.768C6.55985 3.768 6.28252 3.77867 6.00519 3.8C6.00519 4.216 6.02119 4.984 6.05319 6.104Z" fill="white"/>
</svg>
