<svg width="15" height="15" viewBox="0 0 15 15" fill="none" xmlns="http://www.w3.org/2000/svg">
<path d="M15 7.5C15 11.6421 11.6421 15 7.5 15C3.35786 15 0 11.6421 0 7.5C0 3.35786 3.35786 0 7.5 0C11.6421 0 15 3.35786 15 7.5Z" fill="#FB0000"/>
<path d="M8.56069 3.464C8.40069 3.67733 8.03269 4.35467 7.45669 5.496C6.89135 6.63733 6.58202 7.32 6.52869 7.544C6.97669 7.42667 7.43002 7.368 7.88869 7.368C8.35802 7.368 8.79535 7.496 9.20069 7.752C9.86202 8.18933 10.1927 8.89333 10.1927 9.864C10.1927 11.9867 9.15802 13.0533 7.08869 13.064C7.07802 13.064 7.06202 13.064 7.04069 13.064C6.28335 13.064 5.73935 12.8027 5.40869 12.28C5.07802 11.7467 4.89669 11.0427 4.86469 10.168C4.86469 8.14133 5.62735 5.90667 7.15269 3.464C7.40869 3.03733 7.63269 2.76 7.82469 2.632C8.01669 2.504 8.16602 2.44 8.27269 2.44C8.39002 2.44 8.50735 2.48267 8.62469 2.568C8.74202 2.65333 8.80069 2.77067 8.80069 2.92C8.80069 3.06933 8.72069 3.25067 8.56069 3.464ZM8.99269 9.976C8.99269 9.53867 8.87002 9.20267 8.62469 8.968C8.39002 8.73333 8.07002 8.616 7.66469 8.616C7.25935 8.616 6.96069 8.648 6.76869 8.712C6.61935 8.776 6.50202 8.86133 6.41669 8.968C6.33135 9.064 6.25135 9.21867 6.17669 9.432C6.11269 9.64533 6.08069 9.93867 6.08069 10.312C6.08069 10.6747 6.18202 10.9947 6.38469 11.272C6.59802 11.5387 6.85402 11.672 7.15269 11.672C7.75002 11.672 8.20335 11.496 8.51269 11.144C8.83269 10.792 8.99269 10.4027 8.99269 9.976Z" fill="white"/>
</svg>
