<svg width="15" height="15" viewBox="0 0 15 15" fill="none" xmlns="http://www.w3.org/2000/svg">
<path d="M15 7.5C15 11.6421 11.6421 15 7.5 15C3.35786 15 0 11.6421 0 7.5C0 3.35786 3.35786 0 7.5 0C11.6421 0 15 3.35786 15 7.5Z" fill="#FB0000"/>
<path d="M8.96306 7.272L8.83506 12.312C8.83506 12.5467 8.75506 12.7227 8.59506 12.84C8.44573 12.9573 8.27506 13.016 8.08306 13.016C7.7844 13.016 7.63506 12.616 7.63506 11.816C7.63506 10.1627 7.68306 8.63733 7.77906 7.24L6.14706 7.336C6.01906 7.34667 5.90173 7.288 5.79506 7.16C5.6884 7.02133 5.63506 6.88267 5.63506 6.744C5.63506 6.37067 5.85906 6.184 6.30706 6.184L7.87506 6.168L8.03506 4.232C7.6724 4.104 6.7444 3.92267 5.25106 3.688C4.67506 3.592 4.33373 3.53333 4.22706 3.512C3.94973 3.45867 3.81106 3.25067 3.81106 2.888C3.81106 2.76 3.8644 2.63733 3.97106 2.52C4.07773 2.40267 4.22706 2.344 4.41906 2.344C4.62173 2.344 5.42173 2.46133 6.81906 2.696C8.22706 2.92 9.00573 3.10133 9.15506 3.24C9.21906 3.29333 9.25106 3.49067 9.25106 3.832C9.25106 3.992 9.21373 4.424 9.13906 5.128C9.07506 5.61867 9.03773 5.95467 9.02706 6.136L9.82706 6.088C9.90173 6.088 10.0191 6.088 10.1791 6.088C10.3497 6.088 10.4937 6.12533 10.6111 6.2C10.7284 6.27467 10.7871 6.41867 10.7871 6.632C10.7871 6.83467 10.7124 6.98933 10.5631 7.096C10.4137 7.192 10.1257 7.24533 9.69906 7.256L8.96306 7.272Z" fill="white"/>
</svg>
