<svg width="15" height="15" viewBox="0 0 15 15" fill="none" xmlns="http://www.w3.org/2000/svg">
<path d="M15 7.5C15 11.6421 11.6421 15 7.5 15C3.35786 15 0 11.6421 0 7.5C0 3.35786 3.35786 0 7.5 0C11.6421 0 15 3.35786 15 7.5Z" fill="#FB0000"/>
<path d="M7.54306 2.36C8.32173 2.36 8.9724 2.54667 9.49506 2.92C10.0177 3.29333 10.2791 3.82133 10.2791 4.504C10.2791 5.47467 9.7564 6.312 8.71106 7.016C9.31906 7.66667 9.75106 8.22667 10.0071 8.696C10.2844 9.208 10.4231 9.816 10.4231 10.52C10.4231 11.224 10.1617 11.8053 9.63906 12.264C9.07373 12.7547 8.3644 13 7.51106 13C6.65773 13 5.99106 12.7867 5.51106 12.36C5.00973 11.912 4.75906 11.2987 4.75906 10.52C4.75906 9.25067 5.3724 8.13067 6.59906 7.16C6.1404 6.91467 5.74573 6.536 5.41506 6.024C5.07373 5.50133 4.90306 4.952 4.90306 4.376C4.90306 3.78933 5.13773 3.31467 5.60706 2.952C6.11906 2.55733 6.7644 2.36 7.54306 2.36ZM6.03906 4.584C6.03906 4.79733 6.10306 5 6.23106 5.192C6.35906 5.384 6.48706 5.528 6.61506 5.624C6.74306 5.72 6.91906 5.84267 7.14306 5.992C7.36706 6.14133 7.5164 6.24267 7.59106 6.296C7.9324 6.04 8.16173 5.86933 8.27906 5.784C8.3964 5.688 8.52973 5.56 8.67906 5.4C8.83906 5.22933 8.93506 5.08533 8.96706 4.968C9.00973 4.84 9.02573 4.65333 9.01506 4.408C9.01506 4.16267 8.86573 3.94933 8.56706 3.768C8.27906 3.576 7.97506 3.48 7.65506 3.48C7.62306 3.48 7.59106 3.48 7.55906 3.48C6.54573 3.56533 6.03906 3.93333 6.03906 4.584ZM5.94306 10.328C5.94306 10.3813 5.94306 10.4293 5.94306 10.472C5.95373 10.888 6.12973 11.208 6.47106 11.432C6.82306 11.656 7.25506 11.768 7.76706 11.768C8.24706 11.768 8.59373 11.6347 8.80706 11.368C9.0204 11.1013 9.12173 10.776 9.11106 10.392C9.11106 10.008 8.98306 9.624 8.72706 9.24C8.48173 8.856 8.08706 8.38667 7.54306 7.832C6.99906 8.20533 6.59373 8.61067 6.32706 9.048C6.07106 9.48533 5.94306 9.912 5.94306 10.328Z" fill="white"/>
</svg>
