<svg width="15" height="15" viewBox="0 0 15 15" fill="none" xmlns="http://www.w3.org/2000/svg">
<path d="M15 7.5C15 11.6421 11.6421 15 7.5 15C3.35786 15 0 11.6421 0 7.5C0 3.35786 3.35786 0 7.5 0C11.6421 0 15 3.35786 15 7.5Z" fill="#FB0000"/>
<path d="M9.9865 4.664L9.9705 6.264C9.9705 6.62667 9.9705 7.63467 9.9705 9.288L10.0025 12.328C10.0025 12.52 9.91717 12.68 9.7465 12.808C9.5865 12.9253 9.43183 12.984 9.2825 12.984C9.14383 12.984 9.03183 12.92 8.9465 12.792C8.86117 12.6533 8.81317 12.4987 8.8025 12.328C8.72783 10.76 8.6905 9.13867 8.6905 7.464C8.41317 7.82667 7.85317 8.008 7.0105 8.008C6.4345 8.008 5.95983 7.70933 5.5865 7.112C5.21317 6.51467 5.0265 5.86933 5.0265 5.176C5.0265 4.25867 5.30917 3.56 5.8745 3.08C6.4505 2.58933 7.17583 2.344 8.0505 2.344C8.92517 2.344 9.52783 2.68 9.8585 3.352C9.94383 3.53333 9.9865 3.97067 9.9865 4.664ZM8.7225 5.048L8.7385 4.264C8.7385 4.008 8.71717 3.84267 8.6745 3.768C8.63183 3.68267 8.5785 3.61867 8.5145 3.576C8.43983 3.50133 8.34917 3.464 8.2425 3.464C8.1465 3.464 8.01317 3.48533 7.8425 3.528C7.6825 3.56 7.46917 3.63467 7.2025 3.752C6.9465 3.85867 6.71717 4.04533 6.5145 4.312C6.3225 4.568 6.2265 4.904 6.2265 5.32C6.2265 5.736 6.33317 6.07733 6.5465 6.344C6.75983 6.61067 6.98383 6.744 7.2185 6.744C7.2825 6.744 7.35183 6.73333 7.4265 6.712C8.0665 6.54133 8.4985 6.37067 8.7225 6.2V5.048Z" fill="white"/>
</svg>
