<svg width="1228" height="765" viewBox="0 0 1228 765" fill="none" xmlns="http://www.w3.org/2000/svg">
<rect width="1228" height="765" fill="white"/>
<path d="M155 207H313V432H155V207Z" fill="#DCD2D2"/>
<path d="M581.5 207H739.5V432H581.5V207Z" fill="#DCD2D2"/>
<path d="M796 207H954V432H796V207Z" fill="#DCD2D2"/>
<path d="M153 468H311V693H153V468Z" fill="#DCD2D2"/>
<path d="M371.5 468H529.5V693H371.5V468Z" fill="#DCD2D2"/>
<path d="M581.5 468H739.5V693H581.5V468Z" fill="#DCD2D2"/>
<path d="M796 468H954V693H796V468Z" fill="#DCD2D2"/>
<path d="M370 207H528V432H370V207Z" fill="#DCD2D2"/>
<ellipse cx="233.5" cy="319.5" rx="50.5" ry="51.5" fill="#AA00C6"/>
<ellipse cx="448.5" cy="319.5" rx="50.5" ry="51.5" fill="#FB0000"/>
<ellipse cx="663.5" cy="319.5" rx="50.5" ry="51.5" fill="#32C100"/>
<ellipse cx="878.5" cy="319.5" rx="50.5" ry="51.5" fill="#1747F1"/>
<ellipse cx="233.5" cy="580.5" rx="50.5" ry="51.5" fill="#FF8C00"/>
<ellipse cx="448.5" cy="580.5" rx="50.5" ry="51.5" fill="#FFFF00"/>
<path d="M636.234 605.557C638.763 605.918 640.189 602.707 638.245 601.028L611.95 578.319L620.569 578.8C622.113 578.886 622.919 576.999 621.822 575.893C621.809 575.881 621.797 575.868 621.784 575.855C618.085 572.106 616.112 567.27 615.865 562.362H615.867C615.766 557.236 613.785 552.141 609.925 548.229C608.034 546.312 605.862 544.853 603.544 543.851C608.149 540.754 614.634 539.409 620.709 543.037C613.649 535.883 611.692 525.515 614.836 516.579C616.055 519.474 617.83 522.186 620.16 524.548C624.916 529.368 631.111 531.841 637.344 531.968V531.966C643.313 532.274 649.193 534.738 653.751 539.358C655.238 540.864 656.436 542.569 657.407 544.374C658.216 545.879 660.469 545.244 660.379 543.533L659.66 529.967L682.068 556.616C683.725 558.586 686.893 557.141 686.537 554.577L685.491 547.063L711.86 573.786C727.521 589.658 727.875 615.504 712.268 631.431C696.627 647.392 671.178 647.426 655.495 631.532L628.818 604.497L636.234 605.557Z" fill="#FFA96B"/>
<path d="M651.568 600.495L651.566 600.497C651.565 600.49 651.563 600.484 651.562 600.477C651.224 599.52 650.951 598.544 650.738 597.558C646.762 585.841 636.606 581.771 636.606 581.771C636.606 581.771 643.224 576.373 653.099 580.982C648.285 578.231 643.547 564.923 648.066 554.454C654.186 564.405 666.703 566.092 677.958 569.119C679.467 569.405 680.954 569.841 682.394 570.429C682.397 570.43 682.4 570.431 682.403 570.432L682.403 570.432C685.238 571.592 687.895 573.335 690.193 575.664C699.345 584.939 699.345 599.977 690.193 609.252C681.041 618.527 666.203 618.527 657.051 609.252C654.525 606.691 652.7 603.691 651.568 600.495V600.495Z" fill="#FFCD69"/>
<path d="M661.492 595.539L663.957 589.713C666.16 584.507 670.66 580.664 676.095 579.345L682.702 577.743C688.047 576.447 693.682 577.742 697.952 581.248L704.632 586.733C710.473 591.529 712.684 599.543 710.145 606.714L707.556 614.024C705.464 619.93 700.476 624.298 694.406 625.538L686.399 627.175C679.699 628.544 672.82 625.877 668.731 620.327L663.574 613.325C659.797 608.198 659.004 601.42 661.492 595.539V595.539Z" fill="#FF7D97"/>
<path d="M635.011 579.763C634.358 580.296 634.008 581.122 634.072 581.969C634.136 582.817 634.61 583.579 635.336 584.005C635.436 584.064 645.35 589.979 648.949 600.583C653.254 613.479 662.175 617.693 664.215 618.506L666.692 621.869C670.542 627.095 676.636 630.102 682.944 630.102C684.26 630.102 685.586 629.971 686.902 629.702L694.909 628.066C701.809 626.655 707.573 621.609 709.951 614.895L712.539 607.585C715.44 599.394 712.907 590.209 706.234 584.73L699.554 579.245C698.405 578.302 697.162 577.499 695.854 576.841C691.677 571.522 685.753 568.055 678.377 566.575C671.048 565.104 655.722 562.029 650.226 553.091C649.727 552.279 648.825 551.813 647.883 551.883C646.941 551.952 646.115 552.544 645.736 553.421C642.381 561.193 643.548 570.334 646.482 576.577C639.607 576.107 635.251 579.567 635.011 579.763V579.763ZM703.031 588.736C708.025 592.837 709.921 599.712 707.75 605.843L705.161 613.153C703.381 618.178 699.067 621.956 693.903 623.011L685.896 624.647C680.189 625.813 674.252 623.512 670.769 618.784L665.612 611.783C662.39 607.408 661.707 601.573 663.83 596.556L666.295 590.729C668.172 586.294 672.057 582.976 676.687 581.853L681.221 580.753V581.467C681.221 582.891 682.361 584.046 683.766 584.046C685.17 584.046 686.31 582.891 686.31 581.467V579.848C686.468 579.844 686.626 579.835 686.783 579.835C690.229 579.835 693.638 581.024 696.35 583.251L703.031 588.736ZM652.034 583.324C653.273 583.902 654.743 583.388 655.364 582.156C655.985 580.925 655.537 579.416 654.348 578.737C651.488 577.102 647.562 568.38 649.105 559.807C656.92 567.525 670.441 570.239 677.389 571.633C680.484 572.254 683.321 573.294 685.738 574.709C684.522 574.772 683.307 574.945 682.11 575.235L675.503 576.838C669.317 578.338 664.127 582.772 661.62 588.696L659.154 594.523C657.444 598.565 657.099 603.002 658.036 607.171C656.449 605.081 654.921 602.384 653.765 598.919C651.025 590.844 645.383 585.223 641.609 582.184C644.032 581.499 647.629 581.267 652.034 583.324V583.324Z" fill="black"/>
<path d="M693.646 592.145C692.653 591.138 691.042 591.139 690.048 592.146C689.055 593.152 689.055 594.785 690.049 595.792L692.049 597.819C692.546 598.322 693.197 598.574 693.848 598.574C694.499 598.574 695.15 598.322 695.646 597.818C696.64 596.812 696.64 595.179 695.646 594.172L693.646 592.145Z" fill="black"/>
<path d="M682.069 611.286H678.762C677.357 611.286 676.218 612.44 676.218 613.864C676.218 615.288 677.357 616.442 678.762 616.442H682.069C683.474 616.442 684.613 615.288 684.613 613.864C684.613 612.44 683.474 611.286 682.069 611.286Z" fill="black"/>
<path d="M678.253 602.437V600.41C678.253 598.986 677.114 597.832 675.709 597.832C674.305 597.832 673.165 598.986 673.165 600.41V602.437C673.165 603.86 674.305 605.015 675.709 605.015C677.114 605.015 678.253 603.86 678.253 602.437Z" fill="black"/>
<path d="M693.603 610.054C692.61 611.06 692.61 612.693 693.603 613.7C694.1 614.203 694.751 614.455 695.402 614.455C696.053 614.455 696.704 614.203 697.201 613.7L698.615 612.266C699.609 611.26 699.609 609.627 698.616 608.62C697.623 607.614 696.012 607.613 695.018 608.62L693.603 610.054Z" fill="black"/>
<path d="M713.66 571.963L687.291 545.24C686.517 544.456 685.335 544.26 684.356 544.756C683.377 545.251 682.82 546.325 682.973 547.423L684.018 554.937C684.019 554.939 684.019 554.941 684.019 554.943C684.015 554.945 684.012 554.946 684.009 554.948C684.007 554.946 684.006 554.945 684.005 554.943L661.597 528.295C660.89 527.453 659.731 527.162 658.718 527.573C657.705 527.982 657.062 529.001 657.121 530.105L657.644 539.984C656.992 539.105 656.293 538.286 655.551 537.534C650.716 532.635 644.216 529.741 637.394 529.389C637.34 529.386 637.447 529.388 637.394 529.389C631.595 529.251 626.064 526.885 621.96 522.725C619.911 520.649 618.303 518.241 617.177 515.567C616.766 514.59 615.803 513.968 614.76 514.001C613.713 514.033 612.792 514.712 612.441 515.712C609.797 523.224 610.517 531.466 614.13 538.321C610.067 538.037 605.9 539.172 602.137 541.702C601.358 542.226 600.925 543.142 601.011 544.086C601.096 545.03 601.686 545.85 602.546 546.222C604.631 547.123 606.508 548.412 608.127 550.052C611.368 553.337 613.211 557.697 613.322 562.337C613.321 562.388 613.322 562.44 613.325 562.492C613.577 567.507 615.42 572.263 618.573 576.106L612.09 575.744C610.995 575.684 609.994 576.334 609.588 577.361C609.183 578.388 609.47 579.563 610.301 580.281L636.595 602.989L636.6 602.993C636.598 602.997 636.597 603 636.595 603.004C636.593 603.004 636.591 603.003 636.59 603.003L629.175 601.943C628.092 601.791 627.031 602.353 626.543 603.345C626.054 604.338 626.247 605.535 627.02 606.319L645.602 625.151C646.596 626.158 648.206 626.158 649.2 625.151C650.194 624.144 650.194 622.512 649.2 621.505L635.997 608.124C638.22 608.391 640.315 607.193 641.238 605.115C642.177 603 641.638 600.569 639.896 599.065L619.34 581.314L620.429 581.375C622.194 581.465 623.789 580.484 624.504 578.855C625.225 577.216 624.876 575.335 623.621 574.07L623.583 574.031C620.486 570.893 618.651 566.731 618.41 562.306C618.291 556.301 615.916 550.655 611.725 546.406C610.881 545.55 609.981 544.769 609.03 544.064C611.798 543.213 615.537 542.941 619.417 545.258C620.521 545.918 621.936 545.642 622.72 544.616C623.505 543.59 623.414 542.132 622.508 541.214C617.893 536.538 615.583 530.069 615.982 523.627C616.711 524.587 617.505 525.503 618.362 526.372C623.42 531.498 630.144 534.401 637.294 534.546H637.298C642.829 534.852 648.031 537.206 651.953 541.181C653.177 542.422 654.261 543.911 655.173 545.609C656.105 547.341 658.062 548.176 659.932 547.638C661.795 547.103 663.024 545.358 662.92 543.395L662.605 537.443L680.132 558.288C681.616 560.053 684.016 560.599 686.102 559.648C688.153 558.713 689.334 556.589 689.072 554.337L710.062 575.61C724.814 590.56 724.994 614.786 710.464 629.614C698.767 641.55 680.432 644.269 665.876 636.226C664.643 635.545 663.097 636.005 662.425 637.255C661.752 638.505 662.207 640.071 663.44 640.753C669.678 644.2 676.774 646 683.897 646C685.836 646 687.778 645.866 689.704 645.596C699.009 644.292 707.436 640.022 714.074 633.248C730.575 616.409 730.389 588.917 713.66 571.963V571.963Z" fill="black"/>
<path d="M608.521 600.159C607.528 599.153 605.917 599.153 604.923 600.159C603.93 601.166 603.93 602.799 604.923 603.806L615.799 614.828C616.296 615.331 616.947 615.583 617.598 615.583C618.249 615.583 618.9 615.331 619.397 614.828C620.391 613.821 620.391 612.188 619.397 611.181L608.521 600.159Z" fill="black"/>
<path d="M695.885 539.3C696.381 539.804 697.032 540.056 697.683 540.056C698.334 540.056 698.985 539.804 699.482 539.3C700.476 538.294 700.476 536.661 699.482 535.654L688.606 524.632C687.613 523.625 686.002 523.625 685.008 524.632C684.015 525.639 684.015 527.271 685.008 528.278L695.885 539.3Z" fill="black"/>
<path d="M655.496 628.956C654.824 628.956 654.17 629.229 653.697 629.709C653.224 630.188 652.952 630.853 652.952 631.534C652.952 632.212 653.224 632.877 653.697 633.354C654.17 633.834 654.824 634.11 655.496 634.11C656.165 634.11 656.821 633.834 657.294 633.354C657.767 632.875 658.04 632.212 658.04 631.534C658.04 630.853 657.768 630.191 657.294 629.709C656.821 629.229 656.165 628.956 655.496 628.956Z" fill="black"/>
<path d="M850.2 579.15V578.75L850.1 575.25C850.1 571.883 850.933 570.2 852.6 570.2C853.367 570.2 853.883 570.683 854.15 571.65L854.05 579.15H860.35C861.317 579.317 861.8 579.767 861.8 580.5C861.8 581.033 861.6 581.55 861.2 582.05C860.8 582.517 860.317 582.833 859.75 583H854C853.967 583.233 853.95 583.617 853.95 584.15C853.95 584.15 853.95 584.95 853.95 586.55C853.95 586.65 853.95 586.767 853.95 586.9C853.95 590.567 853.15 592.4 851.55 592.4C850.517 592.4 850 591.817 850 590.65C850 587.25 850.05 584.7 850.15 583H843.4C842.3 583 841.75 582.55 841.75 581.65C841.75 581.117 841.967 580.583 842.4 580.05C842.867 579.517 843.4 579.217 844 579.15H850.2ZM878.673 593.1L871.323 593C870.99 593 870.657 593 870.323 593C867.023 593 865.373 592.367 865.373 591.1C865.373 590.2 865.54 589.35 865.873 588.55C866.207 587.75 866.523 587.15 866.823 586.75C867.123 586.35 867.723 585.683 868.623 584.75C869.523 583.817 870.173 583.117 870.573 582.65C870.973 582.183 872.173 581 874.173 579.1C876.207 577.2 877.723 575.483 878.723 573.95C879.757 572.417 880.273 570.8 880.273 569.1C880.273 566.467 879.223 564.767 877.123 564C876.523 563.8 875.907 563.7 875.273 563.7C873.84 563.7 872.407 564.317 870.973 565.55C870.407 566.083 869.807 566.35 869.173 566.35C868.973 566.35 868.79 566.333 868.623 566.3C867.79 566.1 867.373 565.517 867.373 564.55C867.373 563.25 868.29 562.167 870.123 561.3C872.09 560.367 874.223 559.9 876.523 559.9C878.857 559.9 880.757 560.75 882.223 562.45C883.723 564.117 884.473 566.2 884.473 568.7C884.473 572.267 883.373 575.333 881.173 577.9C880.14 579.1 879.09 580.217 878.023 581.25C874.657 584.45 872.407 586.883 871.273 588.55C872.773 588.65 874.623 588.7 876.823 588.7C879.057 588.7 881.807 588.567 885.073 588.3C885.573 588.4 885.973 588.633 886.273 589C886.607 589.333 886.773 589.717 886.773 590.15C886.773 591.283 886.173 592.067 884.973 592.5C883.773 592.9 881.673 593.1 878.673 593.1Z" fill="black"/>
</svg>
