<svg width="1134" height="728" viewBox="0 0 1134 728" fill="none" xmlns="http://www.w3.org/2000/svg">
<rect width="1134" height="728" fill="white"/>
<path d="M610 93H778V346H610V93Z" fill="url(#paint0_linear)"/>
<ellipse cx="694" cy="219.5" rx="58.5103" ry="63.5585" fill="#AA00C6" fill-opacity="0.75"/>
<path d="M610 93V91H608V93H610ZM778 93H780V91H778V93ZM778 346V348H780V346H778ZM610 346H608V348H610V346ZM610 95H778V91H610V95ZM776 93V346H780V93H776ZM778 344H610V348H778V344ZM612 346V93H608V346H612Z" fill="#AA00C6"/>
<path d="M608 383H776V636H608V383Z" fill="url(#paint1_linear)"/>
<path d="M608 383V381H606V383H608ZM776 383H778V381H776V383ZM776 636V638H778V636H776ZM608 636H606V638H608V636ZM608 385H776V381H608V385ZM774 383V636H778V383H774ZM776 634H608V638H776V634ZM610 636V383H606V636H610Z" fill="black"/>
<path d="M829 93H997V346H829V93Z" fill="url(#paint2_linear)"/>
<ellipse cx="913" cy="219.5" rx="58.5103" ry="63.5585" fill="#FFFF01" fill-opacity="0.75"/>
<path d="M829 93V91H827V93H829ZM997 93H999V91H997V93ZM997 346V348H999V346H997ZM829 346H827V348H829V346ZM829 95H997V91H829V95ZM995 93V346H999V93H995ZM997 344H829V348H997V344ZM831 346V93H827V346H831Z" fill="#FFFF01" fill-opacity="0.75"/>
<path d="M373 383H541V636H373V383Z" fill="url(#paint3_linear)"/>
<ellipse cx="457" cy="509.5" rx="58.5103" ry="63.5585" fill="#32C100" fill-opacity="0.75"/>
<path d="M373 383V381H371V383H373ZM541 383H543V381H541V383ZM541 636V638H543V636H541ZM373 636H371V638H373V636ZM373 385H541V381H373V385ZM539 383V636H543V383H539ZM541 634H373V638H541V634ZM375 636V383H371V636H375Z" fill="#32C100"/>
<path d="M136 383H304V636H136V383Z" fill="url(#paint4_linear)"/>
<ellipse cx="220" cy="509.5" rx="58.5103" ry="63.5585" fill="#1747F1" fill-opacity="0.75"/>
<path d="M136 383V381H134V383H136ZM304 383H306V381H304V383ZM304 636V638H306V636H304ZM136 636H134V638H136V636ZM136 385H304V381H136V385ZM302 383V636H306V383H302ZM304 634H136V638H304V634ZM138 636V383H134V636H138Z" fill="#1747F1"/>
<path d="M136 93H304V346H136V93Z" fill="url(#paint5_linear)"/>
<ellipse cx="220" cy="219.5" rx="58.5103" ry="63.5585" fill="#FF8C00" fill-opacity="0.75"/>
<path d="M136 93V91H134V93H136ZM304 93H306V91H304V93ZM304 346V348H306V346H304ZM136 346H134V348H136V346ZM136 95H304V91H136V95ZM302 93V346H306V93H302ZM304 344H136V348H304V344ZM138 346V93H134V346H138Z" fill="#FF8C00"/>
<path d="M373 93H541V346H373V93Z" fill="url(#paint6_linear)"/>
<ellipse cx="457" cy="219.5" rx="58.5103" ry="63.5585" fill="#FB0000" fill-opacity="0.75"/>
<path d="M373 93V91H371V93H373ZM541 93H543V91H541V93ZM541 346V348H543V346H541ZM373 346H371V348H373V346ZM373 95H541V91H373V95ZM539 93V346H543V93H539ZM541 344H373V348H541V344ZM375 346V93H371V346H375Z" fill="#FB0000"/>
<path d="M660.519 528.117C663.222 528.541 664.746 524.77 662.668 522.798L634.567 496.129L643.778 496.694C645.428 496.795 646.289 494.578 645.117 493.28C645.104 493.265 645.09 493.25 645.076 493.235C641.123 488.832 639.015 483.153 638.751 477.388H638.753C638.645 471.368 636.528 465.385 632.403 460.791C630.382 458.54 628.061 456.826 625.584 455.649C630.505 452.012 637.436 450.433 643.927 454.694C636.383 446.291 634.291 434.115 637.652 423.621C638.954 427.021 640.85 430.206 643.341 432.98C648.424 438.641 655.044 441.545 661.705 441.694V441.692C668.084 442.054 674.368 444.947 679.239 450.373C680.828 452.142 682.108 454.144 683.145 456.264C684.01 458.031 686.419 457.286 686.322 455.276L685.554 439.344L709.5 470.64C711.271 472.954 714.657 471.257 714.276 468.246L713.159 459.421L741.339 490.805C758.075 509.445 758.453 539.799 741.774 558.503C725.059 577.249 697.863 577.289 681.103 558.623L652.594 526.872L660.519 528.117Z" fill="#FFA96B"/>
<path d="M676.906 522.172L676.904 522.175C676.902 522.167 676.9 522.159 676.899 522.151C676.537 521.027 676.246 519.881 676.019 518.723C671.77 504.962 660.917 500.183 660.917 500.183C660.917 500.183 667.989 493.843 678.541 499.256C673.397 496.025 668.334 480.396 673.163 468.101C679.703 479.788 693.08 481.769 705.108 485.324C706.72 485.66 708.309 486.172 709.849 486.863C709.852 486.864 709.855 486.865 709.858 486.866L709.858 486.866C712.888 488.228 715.727 490.275 718.184 493.011C727.964 503.903 727.964 521.564 718.184 532.456C708.403 543.349 692.546 543.349 682.765 532.456C680.066 529.449 678.115 525.925 676.906 522.172V522.172Z" fill="#FFCD69"/>
<path d="M687.511 516.352L690.146 509.509C692.499 503.396 697.309 498.882 703.117 497.334L710.178 495.452C715.889 493.929 721.912 495.451 726.475 499.568L733.614 506.01C739.856 511.642 742.219 521.054 739.505 529.476L736.738 538.06C734.503 544.997 729.172 550.126 722.685 551.583L714.129 553.505C706.968 555.113 699.617 551.981 695.247 545.462L689.736 537.24C685.7 531.218 684.852 523.258 687.511 516.352V516.352Z" fill="#FF7D97"/>
<path d="M659.211 497.824C658.514 498.45 658.139 499.42 658.208 500.415C658.276 501.411 658.783 502.306 659.559 502.806C659.666 502.875 670.261 509.822 674.106 522.276C678.707 537.42 688.241 542.369 690.421 543.324L693.068 547.274C697.182 553.411 703.695 556.943 710.437 556.942C711.843 556.942 713.26 556.789 714.666 556.473L723.223 554.551C730.597 552.895 736.756 546.968 739.297 539.083L742.064 530.499C745.164 520.879 742.456 510.092 735.326 503.658L728.187 497.216C726.959 496.108 725.63 495.166 724.232 494.393C719.769 488.146 713.439 484.075 705.556 482.336C697.723 480.609 681.345 476.997 675.472 466.5C674.938 465.547 673.974 465 672.967 465.082C671.961 465.163 671.078 465.859 670.673 466.888C667.087 476.016 668.334 486.751 671.47 494.083C664.123 493.531 659.468 497.594 659.211 497.824V497.824ZM731.902 508.362C737.239 513.179 739.266 521.252 736.946 528.453L734.179 537.037C732.277 542.939 727.667 547.375 722.147 548.615L713.591 550.536C707.492 551.906 701.147 549.203 697.425 543.651L691.914 535.429C688.47 530.291 687.741 523.438 690.009 517.546L692.644 510.703C694.65 505.494 698.801 501.598 703.75 500.279L708.595 498.987V499.826C708.595 501.498 709.813 502.854 711.314 502.854C712.815 502.854 714.033 501.498 714.033 499.826V497.925C714.202 497.919 714.371 497.908 714.539 497.908C718.221 497.908 721.865 499.305 724.763 501.92L731.902 508.362ZM677.404 502.007C678.728 502.685 680.298 502.081 680.962 500.635C681.626 499.189 681.147 497.417 679.877 496.619C676.82 494.699 672.625 484.457 674.274 474.388C682.625 483.452 697.074 486.639 704.499 488.276C707.807 489.006 710.839 490.228 713.422 491.889C712.122 491.963 710.825 492.166 709.545 492.507L702.484 494.389C695.873 496.151 690.326 501.358 687.647 508.316L685.013 515.159C683.185 519.905 682.816 525.117 683.818 530.012C682.121 527.557 680.489 524.391 679.253 520.321C676.325 510.838 670.296 504.237 666.263 500.668C668.852 499.863 672.696 499.591 677.404 502.007V502.007Z" fill="black"/>
<path d="M721.873 512.366C720.812 511.184 719.09 511.184 718.028 512.367C716.967 513.549 716.967 515.466 718.029 516.649L720.166 519.029C720.697 519.62 721.393 519.916 722.089 519.916C722.784 519.916 723.48 519.62 724.011 519.029C725.073 517.846 725.073 515.929 724.011 514.747L721.873 512.366Z" fill="black"/>
<path d="M709.502 534.845H705.967C704.466 534.845 703.249 536.201 703.249 537.873C703.249 539.545 704.466 540.901 705.967 540.901H709.502C711.003 540.901 712.22 539.545 712.22 537.873C712.22 536.201 711.003 534.845 709.502 534.845Z" fill="black"/>
<path d="M705.424 524.452V522.072C705.424 520.4 704.206 519.044 702.705 519.044C701.204 519.044 699.986 520.4 699.986 522.072V524.452C699.986 526.124 701.204 527.48 702.705 527.48C704.206 527.48 705.424 526.124 705.424 524.452Z" fill="black"/>
<path d="M721.828 533.398C720.766 534.58 720.766 536.497 721.828 537.68C722.358 538.271 723.054 538.567 723.75 538.567C724.446 538.567 725.141 538.271 725.672 537.68L727.184 535.996C728.246 534.814 728.246 532.897 727.184 531.714C726.123 530.532 724.402 530.532 723.34 531.714L721.828 533.398Z" fill="black"/>
<path d="M743.262 488.664L715.082 457.28C714.255 456.359 712.992 456.13 711.946 456.712C710.899 457.293 710.304 458.554 710.467 459.844L711.584 468.669C711.585 468.672 711.585 468.674 711.585 468.676C711.581 468.678 711.578 468.68 711.574 468.682C711.573 468.68 711.571 468.678 711.57 468.676L687.623 437.38C686.867 436.392 685.63 436.05 684.547 436.532C683.464 437.013 682.777 438.21 682.84 439.507L683.399 451.108C682.702 450.076 681.955 449.114 681.162 448.231C675.995 442.477 669.049 439.079 661.758 438.666C661.701 438.662 661.815 438.664 661.758 438.666C655.561 438.503 649.651 435.725 645.264 430.839C643.075 428.401 641.356 425.573 640.153 422.432C639.714 421.286 638.684 420.555 637.57 420.594C636.451 420.631 635.467 421.429 635.091 422.603C632.266 431.425 633.035 441.105 636.896 449.155C632.555 448.822 628.101 450.154 624.081 453.126C623.248 453.741 622.785 454.816 622.876 455.925C622.967 457.034 623.598 457.997 624.517 458.434C626.745 459.492 628.752 461.005 630.481 462.931C633.945 466.789 635.915 471.91 636.033 477.359C636.032 477.42 636.034 477.48 636.036 477.542C636.306 483.431 638.275 489.016 641.644 493.53L634.717 493.105C633.546 493.035 632.476 493.798 632.043 495.004C631.61 496.21 631.916 497.59 632.804 498.433L660.905 525.102L660.91 525.106C660.908 525.11 660.906 525.115 660.904 525.119C660.902 525.118 660.901 525.118 660.899 525.118L652.974 523.873C651.818 523.694 650.684 524.355 650.162 525.52C649.64 526.685 649.845 528.091 650.672 529.012L670.53 551.128C671.592 552.311 673.313 552.311 674.375 551.128C675.437 549.946 675.437 548.029 674.375 546.846L660.266 531.132C662.641 531.445 664.88 530.038 665.866 527.598C666.87 525.114 666.293 522.259 664.432 520.492L642.464 499.646L643.628 499.717C645.515 499.823 647.219 498.671 647.984 496.759C648.753 494.833 648.381 492.625 647.04 491.139L646.999 491.093C643.689 487.407 641.728 482.52 641.471 477.323C641.343 470.27 638.806 463.64 634.326 458.65C633.424 457.645 632.462 456.727 631.446 455.9C634.404 454.9 638.401 454.581 642.547 457.302C643.727 458.077 645.239 457.753 646.077 456.548C646.915 455.343 646.818 453.631 645.85 452.553C640.918 447.06 638.449 439.464 638.876 431.898C639.655 433.026 640.504 434.102 641.419 435.122C646.825 441.142 654.01 444.551 661.652 444.721H661.656C667.566 445.081 673.125 447.845 677.317 452.514C678.625 453.971 679.783 455.72 680.759 457.713C681.755 459.748 683.845 460.728 685.844 460.097C687.835 459.468 689.148 457.419 689.037 455.114L688.7 448.124L707.431 472.605C709.018 474.677 711.582 475.319 713.811 474.201C716.003 473.103 717.265 470.609 716.985 467.964L739.417 492.947C755.182 510.504 755.374 538.956 739.846 556.37C727.346 570.388 707.752 573.581 692.196 564.135C690.878 563.335 689.227 563.875 688.508 565.343C687.789 566.812 688.275 568.651 689.593 569.451C696.26 573.499 703.843 575.614 711.454 575.613C713.527 575.613 715.602 575.457 717.661 575.14C727.605 573.607 736.61 568.592 743.704 560.637C761.338 540.862 761.139 508.575 743.262 488.664V488.664Z" fill="black"/>
<path d="M630.903 521.778C629.841 520.596 628.12 520.596 627.058 521.778C625.996 522.96 625.996 524.877 627.058 526.06L638.681 539.004C639.212 539.596 639.907 539.891 640.603 539.891C641.299 539.891 641.995 539.596 642.526 539.004C643.587 537.822 643.587 535.905 642.526 534.722L630.903 521.778Z" fill="black"/>
<path d="M724.266 450.305C724.797 450.896 725.492 451.192 726.188 451.192C726.884 451.192 727.58 450.896 728.11 450.305C729.172 449.122 729.172 447.205 728.11 446.022L716.488 433.078C715.426 431.896 713.705 431.896 712.642 433.078C711.581 434.26 711.581 436.178 712.642 437.36L724.266 450.305Z" fill="black"/>
<path d="M681.103 555.597C680.386 555.597 679.687 555.918 679.181 556.481C678.676 557.044 678.385 557.825 678.385 558.624C678.385 559.421 678.676 560.202 679.181 560.762C679.687 561.325 680.386 561.649 681.103 561.649C681.818 561.649 682.52 561.326 683.025 560.762C683.531 560.199 683.822 559.421 683.822 558.624C683.822 557.825 683.531 557.047 683.025 556.481C682.52 555.918 681.818 555.597 681.103 555.597Z" fill="black"/>
<defs>
<linearGradient id="paint0_linear" x1="694" y1="93" x2="694" y2="346" gradientUnits="userSpaceOnUse">
<stop stop-color="white"/>
<stop offset="1" stop-color="white" stop-opacity="0"/>
</linearGradient>
<linearGradient id="paint1_linear" x1="692" y1="383" x2="692" y2="636" gradientUnits="userSpaceOnUse">
<stop stop-color="white"/>
<stop offset="1" stop-color="white" stop-opacity="0"/>
</linearGradient>
<linearGradient id="paint2_linear" x1="913" y1="93" x2="913" y2="346" gradientUnits="userSpaceOnUse">
<stop stop-color="white"/>
<stop offset="1" stop-color="white" stop-opacity="0"/>
</linearGradient>
<linearGradient id="paint3_linear" x1="457" y1="383" x2="457" y2="636" gradientUnits="userSpaceOnUse">
<stop stop-color="white"/>
<stop offset="1" stop-color="white" stop-opacity="0"/>
</linearGradient>
<linearGradient id="paint4_linear" x1="220" y1="383" x2="220" y2="636" gradientUnits="userSpaceOnUse">
<stop stop-color="white"/>
<stop offset="1" stop-color="white" stop-opacity="0"/>
</linearGradient>
<linearGradient id="paint5_linear" x1="220" y1="93" x2="220" y2="346" gradientUnits="userSpaceOnUse">
<stop stop-color="white"/>
<stop offset="1" stop-color="white" stop-opacity="0"/>
</linearGradient>
<linearGradient id="paint6_linear" x1="457" y1="93" x2="457" y2="346" gradientUnits="userSpaceOnUse">
<stop stop-color="white"/>
<stop offset="1" stop-color="white" stop-opacity="0"/>
</linearGradient>
</defs>
</svg>
