<svg height="512" viewBox="0 0 128 128" width="512" xmlns="http://www.w3.org/2000/svg"><g><g><path d="m104.83 100.17h-81.66l.37-14.57.09-3.5.37-14.57 9.83-10.1 2.5-10.91 19.17-5 7.17-10.36.05-.01 4.89-.92 12.72-2.4 5.5 13.69 8 2.78 8 9.62z" fill="#c5715d"/><path d="m62.667 95.167h36.832l-2.55-39.302-6.07-7.3-8.836-3.065-4.818-11.993-11.615 2.189-2.943 4.256z" fill="#b25f4c"/><path d="m77.2 83.741a1.753 1.753 0 0 1 -1.722-2.074l1.674-8.88a1.751 1.751 0 0 1 1.48-1.41l7.847-1.088 2.577-9.7a1.75 1.75 0 0 1 3.382.9l-2.872 10.823a1.751 1.751 0 0 1 -1.451 1.288l-7.753 1.075-1.442 7.64a1.75 1.75 0 0 1 -1.72 1.426z" fill="#c5715d"/><path d="m31.88 83.85a1.761 1.761 0 0 1 -1.76 1.75h-6.58l.09-3.5h6.49a1.754 1.754 0 0 1 1.76 1.75z" fill="#b25f4c"/><path d="m90.75 94.018h-7.527a1.75 1.75 0 1 1 0-3.5h7.527a1.75 1.75 0 0 1 0 3.5z" fill="#c5715d"/><path d="m86.5 100.167h-44.375l5.25-23.449 12.092-9.192 18.283 11.551z" fill="#685450"/><g fill="#534340"><path d="m34.375 100.167 3.625-5.134 9.375-2.765 7 7.899z"/><path d="m62.667 95.167h16.345l-5.273-12.709-11.072-6.997z"/></g></g><g fill="#432c00"><path d="m110.018 98.417h-3.545l-2.893-44.612a1.748 1.748 0 0 0 -.4-1.006l-8-9.62a1.75 1.75 0 1 0 -2.691 2.238l7.636 9.182 2.843 43.818h-15.3l-1.825-4.4h4.907a1.75 1.75 0 0 0 0-3.5h-6.359l-4.825-11.628.8-4.218 7.749-1.071a1.751 1.751 0 0 0 1.451-1.284l2.875-10.823a1.75 1.75 0 0 0 -3.382-.9l-2.577 9.7-7.847 1.088a1.751 1.751 0 0 0 -1.48 1.41l-.647 3.435-16.108-10.18a1.752 1.752 0 0 0 -1.994.086l-12.09 9.193a1.749 1.749 0 0 0 -.649 1.011l-2.219 9.914a1.75 1.75 0 0 0 3.415.764l2.08-9.289 10.617-8.071 16.786 10.606 5.264 12.686v.006l2.268 5.465h-4.045a1.75 1.75 0 0 0 0 3.5h30.185a1.75 1.75 0 0 0 0-3.5z"/><path d="m73.75 98.417h-.833a1.75 1.75 0 0 0 0 3.5h.833a1.75 1.75 0 0 0 0-3.5z"/><path d="m66.333 98.417h-11.171l-6.477-7.31a1.756 1.756 0 0 0 -1.8-.518l-9.375 2.765a1.757 1.757 0 0 0 -.935.67l-3.1 4.393h-15.493a1.75 1.75 0 0 0 0 3.5h48.351a1.75 1.75 0 0 0 0-3.5zm-27.254-1.877 7.721-2.279 3.683 4.156h-12.73z"/><path d="m33.955 56.9a1.746 1.746 0 0 0 2.1-1.315l1.75-7.642 13.576-3.538-2.317 3.349a1.75 1.75 0 0 0 2.878 1.992l11.758-17 15.549-2.931 1.388 3.457h-4.137a1.75 1.75 0 0 0 0 3.5h5.54l2.169 5.4a1.75 1.75 0 0 0 3.249-1.3l-5.5-13.69a1.751 1.751 0 0 0 -1.949-1.067l-17.667 3.328a1.752 1.752 0 0 0 -1.114.724l-6.8 9.826-18.536 4.832a1.747 1.747 0 0 0 -1.264 1.3l-1.988 8.68a1.749 1.749 0 0 0 1.315 2.095z"/><path d="m30.736 62.361a1.744 1.744 0 0 0 1.254-.528l.555-.571a1.75 1.75 0 0 0 -2.506-2.442l-.556.57a1.749 1.749 0 0 0 1.253 2.971z"/><path d="m23.29 95.37h.045a1.75 1.75 0 0 0 1.748-1.706l.206-8.069h4.836a1.75 1.75 0 0 0 0-3.5h-4.746l.353-13.841 2.375-2.438a1.75 1.75 0 0 0 -2.507-2.441l-2.853 2.925a1.754 1.754 0 0 0 -.5 1.177l-.666 26.1a1.751 1.751 0 0 0 1.709 1.793z"/></g></g></svg>