<svg height="512" viewBox="0 0 128 128" width="512" xmlns="http://www.w3.org/2000/svg"><g><g><path d="m40.175 80.889h7.037v16.875h-7.037z" fill="#ca211b"/><path d="m68.155 80.889h7.037v16.875h-7.037z" fill="#ca211b"/><path d="m109.644 68.475c-.2 6.373-8.075 16.933-22.7-5.377-9.23-14.073-24.365-18.188-37.508-5.841-5.2 4.881-13.675 14.338-21.27 8.388-7.536-5.9-2.528-17.695 3.413-20.072 6.97-2.788 9.492-11.019 9.492-11.019-3.451-7.169-12.745-4.046-15.4-.4a21.376 21.376 0 0 0 -2.656 5.709c-6.107 9.957-8.505 26.816 3.637 38.3a25.576 25.576 0 0 0 7.516 4.825v14.776h7.169v-12.546a66.807 66.807 0 0 0 22.5.318l.4 12.228h6.572l-.2-12.228c9.759-4.447 9.161-10.688 9.161-10.688 35.849 18.321 29.874-6.373 29.874-6.373z" fill="#fd4d1e"/><path d="m53.122 81.352a52.69 52.69 0 0 1 -10.758-1.027l-3.407-.716-2.81-1.209a20.647 20.647 0 0 1 -6.06-3.866 23.424 23.424 0 0 1 -3.222-3.744 12.945 12.945 0 0 0 6.545 1.761c7.348 0 13.527-5.954 18.04-10.3.492-.475.963-.928 1.408-1.347 4.223-3.966 8.636-5.978 13.119-5.978 6.117 0 12.08 1.759 14.606 9.66 2.372 7.414-8.183 15.581-17.626 16.029a63.993 63.993 0 0 1 -9.835.737z" fill="#ca211b"/><circle cx="72.404" cy="61.771" fill="#fcbe2c" r="3.186"/><path d="m48.218 58.419a6.1 6.1 0 1 0 9.632-6.79 28.66 28.66 0 0 0 -8.414 5.628c-.388.364-.796.755-1.218 1.162z" fill="#fcbe2c"/><path d="m29.736 33.667a2.1 2.1 0 1 0 2.1 2.1 2.1 2.1 0 0 0 -2.1-2.1z" fill="#ca211b"/></g><g fill="#432c00"><path d="m25.449 79.437a26.787 26.787 0 0 0 6.969 4.682v7.168a1.75 1.75 0 0 0 3.5 0v-8.3a1.749 1.749 0 0 0 -1.058-1.607 23.89 23.89 0 0 1 -7.006-4.489c-7.772-7.349-12.134-21.785-3.346-36.111a1.773 1.773 0 0 0 .19-.435 19.356 19.356 0 0 1 2.388-5.159 9.592 9.592 0 0 1 7.76-3.17 5.36 5.36 0 0 1 4.316 2.684c-.726 1.874-3.193 7.236-8.233 9.251-3.993 1.6-7.429 6.514-8.169 11.692a11.751 11.751 0 0 0 4.327 11.383 1.75 1.75 0 1 0 2.158-2.755 8.344 8.344 0 0 1 -3.02-8.133c.555-3.887 3.193-7.812 6-8.937 7.66-3.064 10.4-11.763 10.515-12.132a1.751 1.751 0 0 0 -.1-1.272 8.972 8.972 0 0 0 -7.487-5.264 13.106 13.106 0 0 0 -10.9 4.6 22.6 22.6 0 0 0 -2.852 6.02 36.792 36.792 0 0 0 -5.161 19.328 29.119 29.119 0 0 0 9.209 20.956z"/><path d="m34.286 65.743q-.325.042-.653.052a1.75 1.75 0 0 0 .058 3.5h.061c.325-.011.649-.037.974-.078a1.75 1.75 0 0 0 -.44-3.472z"/><path d="m72.4 66.707a4.937 4.937 0 1 0 -4.935-4.936 4.942 4.942 0 0 0 4.935 4.936zm0-6.373a1.437 1.437 0 1 1 -1.435 1.437 1.439 1.439 0 0 1 1.435-1.437z"/><path d="m31.835 35.766a2.1 2.1 0 1 0 -2.1 2.1 2.1 2.1 0 0 0 2.1-2.1z"/><path d="m110.018 96.014h-15.6a1.75 1.75 0 0 0 0 3.5h15.6a1.75 1.75 0 0 0 0-3.5z"/><path d="m88.542 96.014h-.459a1.75 1.75 0 0 0 0 3.5h.459a1.75 1.75 0 0 0 0-3.5z"/><path d="m82.333 96.014h-5.392v-12.38a13.132 13.132 0 0 0 4.2-6.15c12.951 6.286 21.981 7.521 26.866 3.667 5.4-4.26 3.427-12.729 3.34-13.088a1.75 1.75 0 0 0 -3.45.357c-.068 2.161-1.374 5.545-4.063 6.3-1.822.511-6.973.312-15.428-12.584-5.251-8.01-12.318-12.916-19.9-13.816-7.029-.837-14.045 1.813-20.268 7.658-.379.356-.786.749-1.2 1.146l-.03.029c-.084.08-.158.15-.243.233a50.5 50.5 0 0 1 -7.522 6.349 1.75 1.75 0 0 0 1.875 2.955 45.893 45.893 0 0 0 6.7-5.472 7.844 7.844 0 0 0 12.948-8.776 18.241 18.241 0 0 1 7.322-.646c6.537.776 12.711 5.129 17.385 12.259 8.908 13.585 15.41 15.127 19.3 14.033a7.689 7.689 0 0 0 2.294-1.084 5.365 5.365 0 0 1 -1.238 1.4c-2.737 2.159-9.344 3.026-25.269-5.113a1.745 1.745 0 0 0 -1.755.109 1.774 1.774 0 0 0 -.786 1.587c.013.208.217 5.149-8.142 8.958a1.751 1.751 0 0 0 -1.025 1.62l.171 10.45h-3.1l-.333-10.536a1.768 1.768 0 0 0 -1.806-1.692 1.749 1.749 0 0 0 -1.692 1.806l.339 10.421h-13.469v-4.889a1.75 1.75 0 0 0 -3.5 0v4.889h-2.375v-8.689a67.13 67.13 0 0 0 15.213.595 1.75 1.75 0 1 0 -.242-3.491 61.464 61.464 0 0 1 -16.358-.923 1.748 1.748 0 0 0 -2.109 1.712v10.8h-21.609a1.75 1.75 0 0 0 0 3.5h64.351a1.75 1.75 0 0 0 0-3.5zm-24.026-39.687a4.343 4.343 0 0 1 -7.935 2.456c.084-.08.179-.173.262-.251a27.782 27.782 0 0 1 6.811-4.792 4.344 4.344 0 0 1 .862 2.587zm14.072 30.3q.553-.279 1.062-.565v9.95h-.909z"/></g></g></svg>