<svg width="29" height="28" viewBox="0 0 29 28" fill="none" xmlns="http://www.w3.org/2000/svg">
<path d="M29 14C29 21.732 22.5081 28 14.5 28C6.49187 28 0 21.732 0 14C0 6.26801 6.49187 0 14.5 0C22.5081 0 29 6.26801 29 14Z" fill="#FB0000"/>
<path d="M17.7246 21.872C17.7246 22.656 17.3006 23.048 16.4526 23.048C16.2766 23.048 16.1166 22.976 15.9726 22.832C15.8446 22.672 15.7806 22.432 15.7806 22.112L15.7086 16.016C15.7086 14 15.7326 12.104 15.7806 10.328C15.2366 10.808 14.7086 11.36 14.1966 11.984C13.6846 12.608 13.3326 13.024 13.1406 13.232C12.9646 13.44 12.7246 13.648 12.4206 13.856C12.1326 14.048 11.8606 14.144 11.6046 14.144C11.3486 14.144 11.1406 14.056 10.9806 13.88C10.8366 13.704 10.7646 13.488 10.7646 13.232C10.7646 12.976 10.9486 12.632 11.3166 12.2C11.7006 11.752 13.0926 10.256 15.4926 7.712C15.8606 7.376 16.3246 7.208 16.8846 7.208C17.1566 7.208 17.3806 7.288 17.5566 7.448C17.7326 7.608 17.8206 7.792 17.8206 8L17.6526 14.456L17.7246 21.872Z" fill="white"/>
</svg>
