<svg width="15" height="15" viewBox="0 0 15 15" fill="none" xmlns="http://www.w3.org/2000/svg">
<path d="M15 7.5C15 11.6421 11.6421 15 7.5 15C3.35786 15 0 11.6421 0 7.5C0 3.35786 3.35786 0 7.5 0C11.6421 0 15 3.35786 15 7.5Z" fill="#FB0000"/>
<path d="M9.64975 12.248C9.64975 12.7707 9.36708 13.032 8.80175 13.032C8.68442 13.032 8.57775 12.984 8.48175 12.888C8.39642 12.7813 8.35375 12.6213 8.35375 12.408L8.30575 8.344C8.30575 7 8.32175 5.736 8.35375 4.552C7.99108 4.872 7.63908 5.24 7.29775 5.656C6.95642 6.072 6.72175 6.34933 6.59375 6.488C6.47642 6.62667 6.31642 6.76533 6.11375 6.904C5.92175 7.032 5.74042 7.096 5.56975 7.096C5.39908 7.096 5.26042 7.03733 5.15375 6.92C5.05775 6.80267 5.00975 6.65867 5.00975 6.488C5.00975 6.31733 5.13242 6.088 5.37775 5.8C5.63375 5.50133 6.56175 4.504 8.16175 2.808C8.40708 2.584 8.71642 2.472 9.08975 2.472C9.27108 2.472 9.42042 2.52533 9.53775 2.632C9.65508 2.73867 9.71375 2.86133 9.71375 3L9.60175 7.304L9.64975 12.248Z" fill="white"/>
</svg>
