<svg width="15" height="15" viewBox="0 0 15 15" fill="none" xmlns="http://www.w3.org/2000/svg">
<path d="M15 7.5C15 11.6421 11.6421 15 7.5 15C3.35786 15 0 11.6421 0 7.5C0 3.35786 3.35786 0 7.5 0C11.6421 0 15 3.35786 15 7.5Z" fill="#FB0000"/>
<path d="M8.44581 13.032L6.09381 13C5.98715 13 5.88048 13 5.77381 13C4.71781 13 4.18981 12.7973 4.18981 12.392C4.18981 12.104 4.24315 11.832 4.34981 11.576C4.45648 11.32 4.55781 11.128 4.65381 11C4.74981 10.872 4.94181 10.6587 5.22981 10.36C5.51781 10.0613 5.72581 9.83733 5.85381 9.688C5.98181 9.53867 6.36581 9.16 7.00581 8.552C7.65648 7.944 8.14181 7.39467 8.46181 6.904C8.79248 6.41333 8.95781 5.896 8.95781 5.352C8.95781 4.50933 8.62181 3.96533 7.94981 3.72C7.75781 3.656 7.56048 3.624 7.35781 3.624C6.89915 3.624 6.44048 3.82133 5.98181 4.216C5.80048 4.38667 5.60848 4.472 5.40581 4.472C5.34181 4.472 5.28315 4.46667 5.22981 4.456C4.96315 4.392 4.82981 4.20533 4.82981 3.896C4.82981 3.48 5.12315 3.13333 5.70981 2.856C6.33915 2.55733 7.02181 2.408 7.75781 2.408C8.50448 2.408 9.11248 2.68 9.58181 3.224C10.0618 3.75733 10.3018 4.424 10.3018 5.224C10.3018 6.36533 9.94981 7.34667 9.24581 8.168C8.91515 8.552 8.57915 8.90933 8.23781 9.24C7.16048 10.264 6.44048 11.0427 6.07781 11.576C6.55781 11.608 7.14981 11.624 7.85381 11.624C8.56848 11.624 9.44848 11.5813 10.4938 11.496C10.6538 11.528 10.7818 11.6027 10.8778 11.72C10.9845 11.8267 11.0378 11.9493 11.0378 12.088C11.0378 12.4507 10.8458 12.7013 10.4618 12.84C10.0778 12.968 9.40581 13.032 8.44581 13.032Z" fill="white"/>
</svg>
