<svg width="29" height="28" viewBox="0 0 29 28" fill="none" xmlns="http://www.w3.org/2000/svg">
<path d="M29 14C29 21.732 22.5081 28 14.5 28C6.49187 28 0 21.732 0 14C0 6.26801 6.49187 0 14.5 0C22.5081 0 29 6.26801 29 14Z" fill="#FB0000"/>
<path d="M15.9187 23.048L12.3907 23C12.2307 23 12.0707 23 11.9107 23C10.3267 23 9.53472 22.696 9.53472 22.088C9.53472 21.656 9.61472 21.248 9.77472 20.864C9.93472 20.48 10.0867 20.192 10.2307 20C10.3747 19.808 10.6627 19.488 11.0947 19.04C11.5267 18.592 11.8387 18.256 12.0307 18.032C12.2227 17.808 12.7987 17.24 13.7587 16.328C14.7347 15.416 15.4627 14.592 15.9427 13.856C16.4387 13.12 16.6867 12.344 16.6867 11.528C16.6867 10.264 16.1827 9.448 15.1747 9.08C14.8867 8.984 14.5907 8.936 14.2867 8.936C13.5987 8.936 12.9107 9.232 12.2227 9.824C11.9507 10.08 11.6627 10.208 11.3587 10.208C11.2627 10.208 11.1747 10.2 11.0947 10.184C10.6947 10.088 10.4947 9.808 10.4947 9.344C10.4947 8.72 10.9347 8.2 11.8147 7.784C12.7587 7.336 13.7827 7.112 14.8867 7.112C16.0067 7.112 16.9187 7.52 17.6227 8.336C18.3427 9.136 18.7027 10.136 18.7027 11.336C18.7027 13.048 18.1747 14.52 17.1187 15.752C16.6227 16.328 16.1187 16.864 15.6067 17.36C13.9907 18.896 12.9107 20.064 12.3667 20.864C13.0867 20.912 13.9747 20.936 15.0307 20.936C16.1027 20.936 17.4227 20.872 18.9907 20.744C19.2307 20.792 19.4227 20.904 19.5667 21.08C19.7267 21.24 19.8067 21.424 19.8067 21.632C19.8067 22.176 19.5187 22.552 18.9427 22.76C18.3667 22.952 17.3587 23.048 15.9187 23.048Z" fill="white"/>
</svg>
