<svg width="15" height="15" viewBox="0 0 15 15" fill="none" xmlns="http://www.w3.org/2000/svg">
<path d="M15 7.5C15 11.6421 11.6421 15 7.5 15C3.35786 15 0 11.6421 0 7.5C0 3.35786 3.35786 0 7.5 0C11.6421 0 15 3.35786 15 7.5Z" fill="#FB0000"/>
<path d="M7.40206 3.656C6.77273 3.656 6.18606 3.928 5.64206 4.472C5.49273 4.57867 5.3594 4.632 5.24206 4.632C5.12473 4.632 5.0234 4.62133 4.93806 4.6C4.69273 4.52533 4.57006 4.35467 4.57006 4.088C4.57006 3.65067 4.8474 3.26667 5.40206 2.936C5.95673 2.60533 6.61273 2.44 7.37006 2.44C8.1274 2.44 8.75673 2.64267 9.25806 3.048C9.77006 3.44267 10.0261 3.96 10.0261 4.6C10.0261 5.24 9.9514 5.77333 9.80206 6.2C9.6634 6.62667 9.35406 6.97867 8.87406 7.256C10.0047 7.68267 10.5701 8.45067 10.5701 9.56C10.5701 10.4987 10.2874 11.3093 9.72206 11.992C9.15673 12.664 8.4634 13 7.64206 13C6.8314 13 6.11673 12.808 5.49806 12.424C4.8794 12.0293 4.57006 11.5867 4.57006 11.096C4.57006 11 4.6234 10.888 4.73006 10.76C4.83673 10.632 4.9914 10.568 5.19406 10.568C5.39673 10.568 5.6154 10.664 5.85006 10.856C6.08473 11.0373 6.3514 11.224 6.65006 11.416C6.94873 11.5973 7.28473 11.688 7.65806 11.688C8.72473 11.688 9.25806 11.0213 9.25806 9.688C9.25806 9.176 9.0714 8.76533 8.69806 8.456C8.3354 8.136 7.81806 7.97067 7.14606 7.96C7.0074 7.94933 6.90073 7.93867 6.82606 7.928C6.76206 7.91733 6.6714 7.86933 6.55406 7.784C6.4474 7.69867 6.39406 7.56533 6.39406 7.384C6.39406 7 6.6074 6.792 7.03406 6.76C7.46073 6.728 7.8394 6.536 8.17006 6.184C8.5114 5.832 8.68206 5.38933 8.68206 4.856C8.68206 4.55733 8.55406 4.28533 8.29806 4.04C8.04206 3.784 7.7434 3.656 7.40206 3.656Z" fill="white"/>
</svg>
