<svg width="29" height="28" viewBox="0 0 29 28" fill="none" xmlns="http://www.w3.org/2000/svg">
<path d="M29 14C29 21.732 22.5081 28 14.5 28C6.49187 28 0 21.732 0 14C0 6.26801 6.49187 0 14.5 0C22.5081 0 29 6.26801 29 14Z" fill="#FB0000"/>
<path d="M14.3531 8.984C13.4091 8.984 12.5291 9.392 11.7131 10.208C11.4891 10.368 11.2891 10.448 11.1131 10.448C10.9371 10.448 10.7851 10.432 10.6571 10.4C10.2891 10.288 10.1051 10.032 10.1051 9.632C10.1051 8.976 10.5211 8.4 11.3531 7.904C12.1851 7.408 13.1691 7.16 14.3051 7.16C15.4411 7.16 16.3851 7.464 17.1371 8.072C17.9051 8.664 18.2891 9.44 18.2891 10.4C18.2891 11.36 18.1771 12.16 17.9531 12.8C17.7451 13.44 17.2811 13.968 16.5611 14.384C18.2571 15.024 19.1051 16.176 19.1051 17.84C19.1051 19.248 18.6811 20.464 17.8331 21.488C16.9851 22.496 15.9451 23 14.7131 23C13.4971 23 12.4251 22.712 11.4971 22.136C10.5691 21.544 10.1051 20.88 10.1051 20.144C10.1051 20 10.1851 19.832 10.3451 19.64C10.5051 19.448 10.7371 19.352 11.0411 19.352C11.3451 19.352 11.6731 19.496 12.0251 19.784C12.3771 20.056 12.7771 20.336 13.2251 20.624C13.6731 20.896 14.1771 21.032 14.7371 21.032C16.3371 21.032 17.1371 20.032 17.1371 18.032C17.1371 17.264 16.8571 16.648 16.2971 16.184C15.7531 15.704 14.9771 15.456 13.9691 15.44C13.7611 15.424 13.6011 15.408 13.4891 15.392C13.3931 15.376 13.2571 15.304 13.0811 15.176C12.9211 15.048 12.8411 14.848 12.8411 14.576C12.8411 14 13.1611 13.688 13.8011 13.64C14.4411 13.592 15.0091 13.304 15.5051 12.776C16.0171 12.248 16.2731 11.584 16.2731 10.784C16.2731 10.336 16.0811 9.928 15.6971 9.56C15.3131 9.176 14.8651 8.984 14.3531 8.984Z" fill="white"/>
</svg>
