<svg width="1678" height="1076" viewBox="0 0 1678 1076" fill="none" xmlns="http://www.w3.org/2000/svg">
<g clip-path="url(#clip0)">
<rect width="1678" height="1076" fill="white"/>
<rect x="3" y="22" width="1671" height="1036" fill="white"/>
<rect x="3" y="-11" width="1670" height="77" fill="#E5E5E5"/>
<g clip-path="url(#clip1)">
<path d="M7 1060C7 1060 369.025 1061.5 840.5 1060C1311.97 1058.5 1674 1060 1674 1060" stroke="black" stroke-width="3" stroke-linecap="round" stroke-linejoin="round"/>
<path d="M2.00001 1061C2.00001 1061 3.50002 828.192 2.00001 525C0.5 221.808 2.00001 -11 2.00001 -11" stroke="black" stroke-width="3" stroke-linecap="round" stroke-linejoin="round"/>
<path d="M1675 1060C1675 1060 1678.75 827.409 1675 524.5C1671.25 221.591 1675 -11 1675 -11" stroke="black" stroke-width="3" stroke-linecap="round" stroke-linejoin="round"/>
</g>
<path d="M1671 64C1455.42 65 1338.25 64.4954 1118.46 64C896.603 63.5 773.118 63.5 557.543 64C341.771 64.5005 220.575 64.5 4.99995 64" stroke="black" stroke-width="3" stroke-linecap="round" stroke-linejoin="round"/>
<circle cx="19" cy="5" r="4.5" fill="white" stroke="black" stroke-width="3"/>
<circle cx="37" cy="5" r="4.5" fill="white" stroke="black" stroke-width="3"/>
<circle cx="55" cy="5" r="4.5" fill="white" stroke="black" stroke-width="3"/>
<g clip-path="url(#clip2)">
<rect x="133" y="26" width="1377" height="28" fill="white"/>
<path d="M133 26H1509" stroke="black" stroke-width="3" stroke-linecap="round" stroke-linejoin="round"/>
<path d="M132 54H1510" stroke="black" stroke-width="3" stroke-linecap="round" stroke-linejoin="round"/>
<path d="M133 55V27" stroke="black" stroke-width="3" stroke-linecap="round" stroke-linejoin="round"/>
<path d="M1509 53V27" stroke="black" stroke-width="3" stroke-linecap="round" stroke-linejoin="round"/>
<path d="M142.03 40.464L142.142 43.768C142.142 44.1787 142.123 44.4167 142.086 44.482C142.067 44.65 142.011 44.7807 141.918 44.874C141.834 44.9673 141.666 45.014 141.414 45.014C141.293 45.014 141.195 44.9393 141.12 44.79C141.045 44.6313 141.003 44.454 140.994 44.258C140.929 42.6153 140.84 41.0753 140.728 39.638C140.625 38.1913 140.574 36.8473 140.574 35.606C140.574 35.41 140.639 35.256 140.77 35.144C140.901 35.032 141.055 34.976 141.232 34.976C141.493 34.976 141.647 35.2 141.694 35.648C141.75 36.096 141.783 36.656 141.792 37.328C141.811 38 141.829 38.49 141.848 38.798C142.315 38.5553 142.781 38.434 143.248 38.434C144.331 38.434 145.017 38.91 145.306 39.862C145.474 40.4033 145.558 41.0987 145.558 41.948C145.558 42.228 145.53 42.6713 145.474 43.278C145.427 43.8753 145.399 44.2627 145.39 44.44C145.381 44.6173 145.301 44.7573 145.152 44.86C145.012 44.9533 144.858 45 144.69 45C144.429 45 144.298 44.86 144.298 44.58L144.396 42.144C144.396 41.9387 144.387 41.598 144.368 41.122C144.349 40.646 144.251 40.268 144.074 39.988C143.906 39.708 143.607 39.568 143.178 39.568C142.413 39.568 142.03 39.8667 142.03 40.464ZM146.761 38.462L147.461 38.476C147.62 38.476 147.708 38.4713 147.727 38.462V35.592C147.736 35.4333 147.816 35.298 147.965 35.186C148.114 35.074 148.254 35.018 148.385 35.018C148.516 35.018 148.618 35.06 148.693 35.144C148.777 35.228 148.814 35.3587 148.805 35.536C148.796 35.7133 148.791 36.684 148.791 38.448L150.429 38.392C150.709 38.392 150.849 38.5553 150.849 38.882C150.849 39.1247 150.774 39.3067 150.625 39.428C150.485 39.5493 150.331 39.6147 150.163 39.624C150.004 39.6333 149.846 39.638 149.687 39.638L148.833 39.624C148.833 40.0067 148.87 40.7627 148.945 41.892C149.029 43.0213 149.094 43.754 149.141 44.09C149.188 44.4167 149.197 44.6313 149.169 44.734C149.141 44.8273 149.09 44.8927 149.015 44.93C148.894 44.986 148.73 45.014 148.525 45.014C148.32 45.014 148.198 44.902 148.161 44.678C147.974 43.4553 147.848 41.7753 147.783 39.638C147.699 39.6473 147.377 39.652 146.817 39.652C146.257 39.652 145.977 39.4887 145.977 39.162C145.977 38.6953 146.238 38.462 146.761 38.462ZM151.573 38.462L152.273 38.476C152.432 38.476 152.521 38.4713 152.539 38.462V35.592C152.549 35.4333 152.628 35.298 152.777 35.186C152.927 35.074 153.067 35.018 153.197 35.018C153.328 35.018 153.431 35.06 153.505 35.144C153.589 35.228 153.627 35.3587 153.617 35.536C153.608 35.7133 153.603 36.684 153.603 38.448L155.241 38.392C155.521 38.392 155.661 38.5553 155.661 38.882C155.661 39.1247 155.587 39.3067 155.437 39.428C155.297 39.5493 155.143 39.6147 154.975 39.624C154.817 39.6333 154.658 39.638 154.499 39.638L153.645 39.624C153.645 40.0067 153.683 40.7627 153.757 41.892C153.841 43.0213 153.907 43.754 153.953 44.09C154 44.4167 154.009 44.6313 153.981 44.734C153.953 44.8273 153.902 44.8927 153.827 44.93C153.706 44.986 153.543 45.014 153.337 45.014C153.132 45.014 153.011 44.902 152.973 44.678C152.787 43.4553 152.661 41.7753 152.595 39.638C152.511 39.6473 152.189 39.652 151.629 39.652C151.069 39.652 150.789 39.4887 150.789 39.162C150.789 38.6953 151.051 38.462 151.573 38.462ZM158.248 44.986C157.931 44.986 157.637 44.8787 157.366 44.664C157.366 44.664 157.305 44.6127 157.184 44.51V48.71C157.128 48.8967 157.03 49.0507 156.89 49.172C156.75 49.3027 156.601 49.368 156.442 49.368C156.199 49.368 156.078 49.2047 156.078 48.878V39.12C156.134 38.8773 156.199 38.7047 156.274 38.602C156.358 38.4993 156.484 38.448 156.652 38.448C156.829 38.448 156.941 38.49 156.988 38.574C157.044 38.6487 157.109 38.8633 157.184 39.218C157.221 39.0313 157.371 38.8587 157.632 38.7C157.893 38.5413 158.243 38.462 158.682 38.462C159.634 38.462 160.311 38.8073 160.712 39.498C161.113 40.1887 161.314 41.0053 161.314 41.948C161.314 42.8813 161.039 43.6233 160.488 44.174C159.947 44.7153 159.2 44.986 158.248 44.986ZM157.184 40.786V43.39C157.24 43.418 157.305 43.4647 157.38 43.53C157.651 43.7727 157.945 43.894 158.262 43.894C159.55 43.894 160.194 43.2313 160.194 41.906C160.194 40.7767 159.905 40.0627 159.326 39.764C159.083 39.6333 158.785 39.568 158.43 39.568C158.085 39.6147 157.791 39.7687 157.548 40.03C157.305 40.282 157.184 40.534 157.184 40.786ZM163.032 39.134C163.238 39.134 163.415 39.2087 163.564 39.358C163.723 39.5073 163.816 39.7127 163.844 39.974C163.844 40.1793 163.765 40.3707 163.606 40.548C163.457 40.716 163.284 40.8 163.088 40.8C162.892 40.8 162.715 40.744 162.556 40.632C162.398 40.52 162.318 40.3567 162.318 40.142C162.318 39.918 162.388 39.694 162.528 39.47C162.668 39.246 162.836 39.134 163.032 39.134ZM163.228 43.418C163.303 43.418 163.396 43.4413 163.508 43.488C163.574 43.5253 163.644 43.628 163.718 43.796C163.802 43.964 163.844 44.132 163.844 44.3C163.844 44.468 163.765 44.6267 163.606 44.776C163.448 44.916 163.27 44.986 163.074 44.986C162.878 44.986 162.715 44.916 162.584 44.776C162.463 44.6267 162.402 44.44 162.402 44.216C162.402 43.684 162.678 43.418 163.228 43.418ZM165.362 45.196C165.362 45.1587 165.376 45.0933 165.404 45C166.011 43.572 166.673 41.9153 167.392 40.03C168.111 38.1447 168.773 36.474 169.38 35.018C169.511 34.7753 169.702 34.654 169.954 34.654C170.066 34.654 170.159 34.6867 170.234 34.752C170.309 34.8173 170.346 34.906 170.346 35.018C170.346 35.1207 170.229 35.4427 169.996 35.984C169.763 36.5253 169.198 37.9393 168.302 40.226C167.415 42.5033 166.734 44.188 166.258 45.28C166.099 45.4947 165.927 45.602 165.74 45.602C165.488 45.602 165.362 45.4667 165.362 45.196ZM171.282 45.196C171.282 45.1587 171.296 45.0933 171.324 45C171.931 43.572 172.593 41.9153 173.312 40.03C174.031 38.1447 174.693 36.474 175.3 35.018C175.431 34.7753 175.622 34.654 175.874 34.654C175.986 34.654 176.079 34.6867 176.154 34.752C176.229 34.8173 176.266 34.906 176.266 35.018C176.266 35.1207 176.149 35.4427 175.916 35.984C175.683 36.5253 175.118 37.9393 174.222 40.226C173.335 42.5033 172.654 44.188 172.178 45.28C172.019 45.4947 171.847 45.602 171.66 45.602C171.408 45.602 171.282 45.4667 171.282 45.196ZM179.134 38.518C179.629 38.518 180.1 38.6627 180.548 38.952C180.996 39.2413 181.22 39.6007 181.22 40.03C181.22 40.45 181.038 40.8607 180.674 41.262C180.31 41.654 179.825 41.892 179.218 41.976C178.957 42.0133 178.565 42.032 178.042 42.032C178.145 42.8253 178.345 43.348 178.644 43.6C178.737 43.7027 178.863 43.754 179.022 43.754C179.601 43.754 180.086 43.572 180.478 43.208C180.87 42.8347 181.15 42.648 181.318 42.648C181.393 42.648 181.505 42.718 181.654 42.858C181.803 42.998 181.878 43.1287 181.878 43.25C181.878 43.4927 181.584 43.8427 180.996 44.3C180.735 44.5147 180.417 44.6967 180.044 44.846C179.68 44.986 179.339 45.056 179.022 45.056C178.21 45.056 177.613 44.5333 177.23 43.488C176.987 42.844 176.866 42.1347 176.866 41.36C176.866 40.5853 177.048 39.918 177.412 39.358C177.776 38.798 178.35 38.518 179.134 38.518ZM179.204 39.484C178.849 39.484 178.546 39.6847 178.294 40.086C178.201 40.226 178.112 40.5433 178.028 41.038C179.335 41.038 179.988 40.716 179.988 40.072C179.988 39.68 179.727 39.484 179.204 39.484ZM184.278 38.714L185.426 40.73C185.743 40.3847 186.042 40.002 186.322 39.582L186.91 38.714C187.022 38.5553 187.157 38.476 187.316 38.476C187.484 38.476 187.619 38.5273 187.722 38.63C187.825 38.7233 187.876 38.84 187.876 38.98C187.876 39.1107 187.68 39.4747 187.288 40.072C186.896 40.66 186.476 41.234 186.028 41.794C186.112 41.9247 186.299 42.228 186.588 42.704C186.877 43.18 187.195 43.6327 187.54 44.062C187.605 44.1647 187.638 44.2907 187.638 44.44C187.638 44.58 187.582 44.7107 187.47 44.832C187.358 44.9533 187.232 45.014 187.092 45.014C186.859 45.014 186.555 44.7573 186.182 44.244C185.809 43.7213 185.477 43.152 185.188 42.536C184.908 42.9187 184.633 43.32 184.362 43.74C184.101 44.16 183.895 44.468 183.746 44.664C183.606 44.8507 183.447 44.944 183.27 44.944C183.102 44.944 182.967 44.8927 182.864 44.79C182.771 44.6873 182.724 44.5613 182.724 44.412C182.724 44.048 183.377 43.1287 184.684 41.654C184.525 41.346 184.236 40.8653 183.816 40.212C183.396 39.5587 183.186 39.1573 183.186 39.008C183.186 38.8587 183.247 38.728 183.368 38.616C183.499 38.504 183.657 38.448 183.844 38.448C184.04 38.448 184.185 38.5367 184.278 38.714ZM192.877 38.462C193.288 38.462 193.493 38.812 193.493 39.512C193.493 39.5867 193.493 39.666 193.493 39.75L193.465 40.73C193.456 41.038 193.451 41.3413 193.451 41.64L193.661 44.804C193.661 45.0373 193.423 45.154 192.947 45.154C192.919 45.154 192.849 45.154 192.737 45.154C192.635 45.154 192.56 45.112 192.513 45.028C192.476 44.944 192.471 44.8413 192.499 44.72C192.537 44.5987 192.527 44.4633 192.471 44.314C192.042 44.7713 191.473 45 190.763 45C189.447 45 188.789 43.9827 188.789 41.948C188.789 40.8187 188.999 39.9647 189.419 39.386C189.849 38.8073 190.46 38.518 191.253 38.518C191.627 38.518 192 38.5833 192.373 38.714C192.495 38.546 192.663 38.462 192.877 38.462ZM191.421 39.736C190.889 39.736 190.493 39.89 190.231 40.198C189.97 40.506 189.839 41.0707 189.839 41.892C189.839 43.2733 190.213 43.964 190.959 43.964C191.155 43.964 191.37 43.8753 191.603 43.698C191.846 43.5207 192.014 43.32 192.107 43.096C192.285 42.592 192.373 42.0413 192.373 41.444C192.373 40.8467 192.299 40.4127 192.149 40.142C192.009 39.8713 191.767 39.736 191.421 39.736ZM195.252 45.014C195.009 45.014 194.865 44.8787 194.818 44.608C194.818 42.7227 194.706 41.0427 194.482 39.568C194.482 39.3813 194.547 39.2133 194.678 39.064C194.818 38.9147 194.972 38.84 195.14 38.84C195.317 38.84 195.448 38.938 195.532 39.134C195.877 38.6767 196.339 38.448 196.918 38.448C197.655 38.448 198.225 38.8027 198.626 39.512C199.093 38.84 199.709 38.504 200.474 38.504C201.249 38.504 201.827 38.812 202.21 39.428C202.462 39.8107 202.639 40.3147 202.742 40.94C202.845 41.5653 202.896 42.452 202.896 43.6C202.896 44.048 202.849 44.398 202.756 44.65C202.663 44.8927 202.467 45.014 202.168 45.014C201.925 45.014 201.804 44.86 201.804 44.552L201.846 42.802C201.846 40.702 201.3 39.652 200.208 39.652C199.863 39.652 199.62 39.7733 199.48 40.016C199.321 40.3053 199.228 40.6087 199.2 40.926C199.163 41.486 199.144 41.9947 199.144 42.452V44.482C199.144 44.6313 199.069 44.7573 198.92 44.86C198.771 44.9627 198.617 45.014 198.458 45.014C198.253 45.014 198.122 44.8787 198.066 44.608L198.108 41.71C198.108 40.6833 197.935 40.044 197.59 39.792C197.422 39.6707 197.165 39.61 196.82 39.61C196.484 39.61 196.232 39.736 196.064 39.988C195.905 40.24 195.826 40.646 195.826 41.206L195.91 43.81C195.91 44.6127 195.691 45.014 195.252 45.014ZM206.182 44.986C205.864 44.986 205.57 44.8787 205.3 44.664C205.3 44.664 205.239 44.6127 205.118 44.51V48.71C205.062 48.8967 204.964 49.0507 204.824 49.172C204.684 49.3027 204.534 49.368 204.376 49.368C204.133 49.368 204.012 49.2047 204.012 48.878V39.12C204.068 38.8773 204.133 38.7047 204.208 38.602C204.292 38.4993 204.418 38.448 204.586 38.448C204.763 38.448 204.875 38.49 204.922 38.574C204.978 38.6487 205.043 38.8633 205.118 39.218C205.155 39.0313 205.304 38.8587 205.566 38.7C205.827 38.5413 206.177 38.462 206.616 38.462C207.568 38.462 208.244 38.8073 208.646 39.498C209.047 40.1887 209.248 41.0053 209.248 41.948C209.248 42.8813 208.972 43.6233 208.422 44.174C207.88 44.7153 207.134 44.986 206.182 44.986ZM205.118 40.786V43.39C205.174 43.418 205.239 43.4647 205.314 43.53C205.584 43.7727 205.878 43.894 206.196 43.894C207.484 43.894 208.128 43.2313 208.128 41.906C208.128 40.7767 207.838 40.0627 207.26 39.764C207.017 39.6333 206.718 39.568 206.364 39.568C206.018 39.6147 205.724 39.7687 205.482 40.03C205.239 40.282 205.118 40.534 205.118 40.786ZM209.916 35.942C209.944 35.5873 210 35.3587 210.084 35.256C210.177 35.144 210.322 35.088 210.518 35.088C210.919 35.088 211.12 35.2513 211.12 35.578C211.12 35.83 211.096 36.488 211.05 37.552C211.012 38.616 210.994 39.568 210.994 40.408C210.994 41.248 211.026 41.9247 211.092 42.438C211.204 43.334 211.362 43.782 211.568 43.782C211.773 43.782 211.927 43.6373 212.03 43.348C212.076 43.236 212.151 43.138 212.254 43.054C212.356 42.9607 212.487 42.914 212.646 42.914C212.972 42.914 213.136 43.1893 213.136 43.74C213.136 44.0387 212.972 44.3373 212.646 44.636C212.328 44.9253 212.011 45.07 211.694 45.07C211.376 45.07 211.12 45.0187 210.924 44.916C210.737 44.804 210.583 44.6407 210.462 44.426C210.35 44.2113 210.256 44.006 210.182 43.81C210.116 43.6047 210.07 43.3573 210.042 43.068C209.986 42.6013 209.944 41.8547 209.916 40.828C209.897 39.792 209.888 38.8073 209.888 37.874C209.888 36.9313 209.897 36.2873 209.916 35.942ZM215.693 38.518C216.187 38.518 216.659 38.6627 217.107 38.952C217.555 39.2413 217.779 39.6007 217.779 40.03C217.779 40.45 217.597 40.8607 217.233 41.262C216.869 41.654 216.383 41.892 215.777 41.976C215.515 42.0133 215.123 42.032 214.601 42.032C214.703 42.8253 214.904 43.348 215.203 43.6C215.296 43.7027 215.422 43.754 215.581 43.754C216.159 43.754 216.645 43.572 217.037 43.208C217.429 42.8347 217.709 42.648 217.877 42.648C217.951 42.648 218.063 42.718 218.213 42.858C218.362 42.998 218.437 43.1287 218.437 43.25C218.437 43.4927 218.143 43.8427 217.555 44.3C217.293 44.5147 216.976 44.6967 216.603 44.846C216.239 44.986 215.898 45.056 215.581 45.056C214.769 45.056 214.171 44.5333 213.789 43.488C213.546 42.844 213.425 42.1347 213.425 41.36C213.425 40.5853 213.607 39.918 213.971 39.358C214.335 38.798 214.909 38.518 215.693 38.518ZM215.763 39.484C215.408 39.484 215.105 39.6847 214.853 40.086C214.759 40.226 214.671 40.5433 214.587 41.038C215.893 41.038 216.547 40.716 216.547 40.072C216.547 39.68 216.285 39.484 215.763 39.484ZM220.221 43.32C220.426 43.32 220.603 43.3947 220.753 43.544C220.902 43.6933 220.991 43.8987 221.019 44.16C221.019 44.3653 220.944 44.5567 220.795 44.734C220.645 44.902 220.468 44.986 220.263 44.986C220.067 44.986 219.889 44.9347 219.731 44.832C219.572 44.72 219.493 44.552 219.493 44.328C219.493 44.104 219.563 43.88 219.703 43.656C219.852 43.432 220.025 43.32 220.221 43.32ZM222.053 41.724C222.053 41.0987 222.216 40.5293 222.543 40.016C222.879 39.5027 223.303 39.12 223.817 38.868C224.33 38.6067 224.829 38.476 225.315 38.476C225.8 38.476 226.187 38.5367 226.477 38.658C226.775 38.77 226.925 38.924 226.925 39.12C226.925 39.3067 226.869 39.498 226.757 39.694C226.654 39.8807 226.514 39.974 226.337 39.974C226.271 39.974 226.089 39.9227 225.791 39.82C225.501 39.708 225.315 39.652 225.231 39.652C224.689 39.652 224.227 39.8527 223.845 40.254C223.462 40.646 223.271 41.1687 223.271 41.822C223.271 42.4753 223.373 42.9653 223.579 43.292C223.793 43.6093 224.157 43.768 224.671 43.768C224.876 43.768 225.226 43.6513 225.721 43.418C226.225 43.1753 226.537 43.054 226.659 43.054C226.78 43.054 226.878 43.0913 226.953 43.166C227.027 43.2407 227.065 43.334 227.065 43.446C227.065 43.67 226.92 43.908 226.631 44.16C226.351 44.4027 226.001 44.608 225.581 44.776C225.161 44.9347 224.783 45.014 224.447 45.014C223.7 45.014 223.112 44.72 222.683 44.132C222.263 43.544 222.053 42.7413 222.053 41.724ZM230.155 38.476C230.827 38.476 231.377 38.798 231.807 39.442C232.245 40.086 232.465 40.8607 232.465 41.766C232.465 42.662 232.241 43.4273 231.793 44.062C231.354 44.6967 230.766 45.014 230.029 45.014C229.301 45.014 228.713 44.692 228.265 44.048C227.817 43.3947 227.593 42.6713 227.593 41.878C227.593 40.8607 227.798 40.0487 228.209 39.442C228.647 38.798 229.296 38.476 230.155 38.476ZM229.987 39.624C229.595 39.624 229.273 39.8293 229.021 40.24C228.769 40.6507 228.643 41.0847 228.643 41.542C228.643 42.2513 228.783 42.7927 229.063 43.166C229.343 43.5393 229.66 43.726 230.015 43.726C230.649 43.726 231.055 43.4507 231.233 42.9C231.307 42.6387 231.345 42.312 231.345 41.92C231.345 40.3893 230.892 39.624 229.987 39.624ZM234.121 45.014C233.878 45.014 233.734 44.8787 233.687 44.608C233.687 42.7227 233.575 41.0427 233.351 39.568C233.351 39.3813 233.416 39.2133 233.547 39.064C233.687 38.9147 233.841 38.84 234.009 38.84C234.186 38.84 234.317 38.938 234.401 39.134C234.746 38.6767 235.208 38.448 235.787 38.448C236.524 38.448 237.094 38.8027 237.495 39.512C237.962 38.84 238.578 38.504 239.343 38.504C240.118 38.504 240.696 38.812 241.079 39.428C241.331 39.8107 241.508 40.3147 241.611 40.94C241.714 41.5653 241.765 42.452 241.765 43.6C241.765 44.048 241.718 44.398 241.625 44.65C241.532 44.8927 241.336 45.014 241.037 45.014C240.794 45.014 240.673 44.86 240.673 44.552L240.715 42.802C240.715 40.702 240.169 39.652 239.077 39.652C238.732 39.652 238.489 39.7733 238.349 40.016C238.19 40.3053 238.097 40.6087 238.069 40.926C238.032 41.486 238.013 41.9947 238.013 42.452V44.482C238.013 44.6313 237.938 44.7573 237.789 44.86C237.64 44.9627 237.486 45.014 237.327 45.014C237.122 45.014 236.991 44.8787 236.935 44.608L236.977 41.71C236.977 40.6833 236.804 40.044 236.459 39.792C236.291 39.6707 236.034 39.61 235.689 39.61C235.353 39.61 235.101 39.736 234.933 39.988C234.774 40.24 234.695 40.646 234.695 41.206L234.779 43.81C234.779 44.6127 234.56 45.014 234.121 45.014Z" fill="black"/>
</g>
<path d="M819.262 8.968L817.198 8.92C817.08 8.472 817.011 6.456 816.99 2.872V1.736C816.99 0.829333 817.075 0.141333 817.246 -0.328C817.416 -0.808 817.774 -1.192 818.318 -1.48C818.595 -1.61867 818.979 -1.688 819.47 -1.688C819.971 -1.688 820.355 -1.656 820.622 -1.592C821.336 -1.44267 821.822 -1.16533 822.078 -0.76C822.344 -0.354667 822.478 0.189333 822.478 0.872C822.478 1.82133 822.227 2.52 821.726 2.968C821.982 3 822.238 3.128 822.494 3.352C822.75 3.576 822.958 3.80533 823.118 4.04C823.395 4.46667 823.534 5.048 823.534 5.784C823.534 6.936 823.182 7.75733 822.478 8.248C821.784 8.728 820.712 8.968 819.262 8.968ZM818.27 1.176L818.302 3C818.323 3 818.504 2.97867 818.846 2.936C819.187 2.88267 819.475 2.82933 819.71 2.776C820.787 2.52 821.326 1.90667 821.326 0.936C821.326 0.456 821.182 0.103999 820.894 -0.120001C820.616 -0.344 820.248 -0.456 819.79 -0.456C819.214 -0.456 818.824 -0.354667 818.622 -0.152C818.536 -0.0666669 818.467 0.00799974 818.414 0.0719995C818.36 0.125333 818.323 0.216 818.302 0.344C818.28 0.471999 818.264 0.562666 818.254 0.615999C818.254 0.669333 818.254 0.770666 818.254 0.92C818.264 1.06933 818.27 1.15467 818.27 1.176ZM821.87 4.584C821.763 4.46667 821.598 4.36 821.374 4.264C821.15 4.168 820.824 4.12 820.398 4.12C819.982 4.12 819.267 4.18933 818.254 4.328C818.254 5.992 818.28 7.11733 818.334 7.704C819.582 7.704 820.456 7.624 820.958 7.464C821.459 7.29333 821.795 7.09067 821.966 6.856C822.147 6.61067 822.238 6.35467 822.238 6.088C822.238 5.81067 822.232 5.61867 822.222 5.512C822.222 5.39467 822.19 5.24 822.126 5.048C822.072 4.84533 821.987 4.69067 821.87 4.584ZM826.875 6.664L826.891 8.312C826.891 8.504 826.8 8.68 826.619 8.84C826.448 9 826.278 9.08 826.107 9.08C825.862 9.08 825.707 8.888 825.643 8.504C825.632 8.41867 825.59 7.64 825.515 6.168C825.44 4.68533 825.296 3.52267 825.083 2.68C824.987 2.27467 824.939 2.03467 824.939 1.96C824.939 1.608 825.152 1.432 825.579 1.432C825.76 1.432 825.904 1.50133 826.011 1.64C826.118 1.77867 826.182 1.92267 826.203 2.072C826.235 2.21067 826.262 2.40267 826.283 2.648C826.304 2.89333 826.32 3.048 826.331 3.112C826.555 2.57867 826.891 2.17867 827.339 1.912C827.787 1.64533 828.278 1.512 828.811 1.512C829.686 1.512 830.123 1.736 830.123 2.184C830.123 2.408 830.043 2.58933 829.883 2.728C829.734 2.856 829.558 2.92 829.355 2.92C828.448 2.92 827.808 3.208 827.435 3.784C827.062 4.36 826.875 5.32 826.875 6.664ZM833.799 1.544C834.567 1.544 835.197 1.912 835.687 2.648C836.189 3.384 836.439 4.26933 836.439 5.304C836.439 6.328 836.183 7.20267 835.671 7.928C835.17 8.65333 834.498 9.016 833.655 9.016C832.823 9.016 832.151 8.648 831.639 7.912C831.127 7.16533 830.871 6.33867 830.871 5.432C830.871 4.26933 831.106 3.34133 831.575 2.648C832.077 1.912 832.818 1.544 833.799 1.544ZM833.607 2.856C833.159 2.856 832.791 3.09067 832.503 3.56C832.215 4.02933 832.071 4.52533 832.071 5.048C832.071 5.85867 832.231 6.47733 832.551 6.904C832.871 7.33067 833.234 7.544 833.639 7.544C834.365 7.544 834.829 7.22933 835.031 6.6C835.117 6.30133 835.159 5.928 835.159 5.48C835.159 3.73067 834.642 2.856 833.607 2.856ZM838.749 8.984C838.386 8.984 838.034 8.28 837.693 6.872C837.362 5.45333 837.197 3.864 837.197 2.104C837.197 1.92267 837.271 1.784 837.421 1.688C837.581 1.58133 837.725 1.528 837.853 1.528C837.981 1.528 838.082 1.57067 838.157 1.656C838.242 1.73067 838.285 1.832 838.285 1.96C838.285 3.624 838.567 5.224 839.133 6.76C839.218 6.632 839.351 6.376 839.533 5.992C839.714 5.59733 839.885 5.30933 840.045 5.128C840.205 4.94667 840.397 4.856 840.621 4.856C840.845 4.856 841.079 5.02133 841.325 5.352C841.57 5.68267 841.778 6.04 841.949 6.424C842.13 6.79733 842.231 6.99467 842.253 7.016C842.541 6.12 842.685 5.288 842.685 4.52L842.589 2.088C842.578 1.928 842.653 1.79467 842.813 1.688C842.973 1.57067 843.127 1.512 843.277 1.512C843.586 1.512 843.741 2.11467 843.741 3.32V4.2C843.741 5.62933 843.522 6.904 843.085 8.024C842.85 8.664 842.557 8.984 842.205 8.984C842.002 8.984 841.815 8.856 841.645 8.6C841.474 8.33333 841.282 7.96 841.069 7.48C840.855 7 840.69 6.66933 840.573 6.488L840.093 7.432C839.911 7.80533 839.773 8.07733 839.677 8.248C839.581 8.408 839.447 8.57333 839.277 8.744C839.106 8.904 838.93 8.984 838.749 8.984ZM845.099 3.56C845.099 2.93067 845.323 2.42933 845.771 2.056C846.219 1.68267 846.736 1.496 847.323 1.496C847.92 1.496 848.491 1.60267 849.035 1.816C849.579 2.02933 849.851 2.312 849.851 2.664C849.851 2.84533 849.781 2.98933 849.643 3.096C849.504 3.20267 849.381 3.256 849.275 3.256C849.179 3.256 849.099 3.256 849.035 3.256C848.981 3.24533 848.768 3.144 848.395 2.952C848.032 2.76 847.696 2.664 847.387 2.664C847.077 2.664 846.811 2.744 846.587 2.904C846.373 3.05333 846.267 3.27733 846.267 3.576C846.267 3.87467 846.389 4.10933 846.635 4.28C846.891 4.45067 847.333 4.6 847.963 4.728C848.592 4.84533 849.072 5.016 849.403 5.24C849.744 5.464 849.915 5.88 849.915 6.488C849.915 7.37333 849.68 8.00267 849.211 8.376C848.752 8.73867 848.192 8.92 847.531 8.92C846.869 8.92 846.304 8.82933 845.835 8.648C845.376 8.46667 845.147 8.19467 845.147 7.832C845.147 7.416 845.355 7.208 845.771 7.208C845.877 7.208 846.112 7.28267 846.475 7.432C846.837 7.58133 847.195 7.656 847.547 7.656C847.909 7.656 848.181 7.544 848.363 7.32C848.555 7.08533 848.651 6.81867 848.651 6.52C848.651 6.22133 848.528 6.008 848.283 5.88C848.037 5.74133 847.664 5.62933 847.163 5.544C846.661 5.45867 846.293 5.368 846.059 5.272C845.419 5.016 845.099 4.44533 845.099 3.56ZM853.287 1.592C853.852 1.592 854.391 1.75733 854.903 2.088C855.415 2.41867 855.671 2.82933 855.671 3.32C855.671 3.8 855.463 4.26933 855.047 4.728C854.631 5.176 854.076 5.448 853.383 5.544C853.084 5.58667 852.636 5.608 852.039 5.608C852.156 6.51467 852.386 7.112 852.727 7.4C852.834 7.51733 852.978 7.576 853.159 7.576C853.82 7.576 854.375 7.368 854.823 6.952C855.271 6.52533 855.591 6.312 855.783 6.312C855.868 6.312 855.996 6.392 856.167 6.552C856.338 6.712 856.423 6.86133 856.423 7C856.423 7.27733 856.087 7.67733 855.415 8.2C855.116 8.44533 854.754 8.65333 854.327 8.824C853.911 8.984 853.522 9.064 853.159 9.064C852.231 9.064 851.548 8.46667 851.111 7.272C850.834 6.536 850.695 5.72533 850.695 4.84C850.695 3.95467 850.903 3.192 851.319 2.552C851.735 1.912 852.391 1.592 853.287 1.592ZM853.367 2.696C852.962 2.696 852.615 2.92533 852.327 3.384C852.22 3.544 852.119 3.90667 852.023 4.472C853.516 4.472 854.263 4.104 854.263 3.368C854.263 2.92 853.964 2.696 853.367 2.696ZM859.422 6.664L859.438 8.312C859.438 8.504 859.347 8.68 859.166 8.84C858.995 9 858.825 9.08 858.654 9.08C858.409 9.08 858.254 8.888 858.19 8.504C858.179 8.41867 858.137 7.64 858.062 6.168C857.987 4.68533 857.843 3.52267 857.63 2.68C857.534 2.27467 857.486 2.03467 857.486 1.96C857.486 1.608 857.699 1.432 858.126 1.432C858.307 1.432 858.451 1.50133 858.558 1.64C858.665 1.77867 858.729 1.92267 858.75 2.072C858.782 2.21067 858.809 2.40267 858.83 2.648C858.851 2.89333 858.867 3.048 858.878 3.112C859.102 2.57867 859.438 2.17867 859.886 1.912C860.334 1.64533 860.825 1.512 861.358 1.512C862.233 1.512 862.67 1.736 862.67 2.184C862.67 2.408 862.59 2.58933 862.43 2.728C862.281 2.856 862.105 2.92 861.902 2.92C860.995 2.92 860.355 3.208 859.982 3.784C859.609 4.36 859.422 5.32 859.422 6.664Z" fill="black"/>
<path d="M110 40C110 43.866 106.866 47 103 47C99.134 47 96 43.866 96 40C96 36.134 99.134 33 103 33C105.546 33 107.775 34.3596 109 36.3924M103.8 37L109 36.3924M108.8 31L109 36.3924" stroke="black" stroke-width="3" stroke-linecap="round" stroke-linejoin="round"/>
<path d="M24 33L17 40M17 40L24 47M17 40H33" stroke="black" stroke-width="3" stroke-linecap="round" stroke-linejoin="round"/>
<path d="M65 33L72 40M72 40L65 47M72 40H56" stroke="black" stroke-width="3" stroke-linecap="round" stroke-linejoin="round"/>
<g clip-path="url(#clip3)">
<rect x="1521" y="26" width="141" height="28" fill="white"/>
<path d="M1521 26H1661" stroke="black" stroke-width="3" stroke-linecap="round" stroke-linejoin="round"/>
<path d="M1520 54H1662" stroke="black" stroke-width="3" stroke-linecap="round" stroke-linejoin="round"/>
<path d="M1521 55V27" stroke="black" stroke-width="3" stroke-linecap="round" stroke-linejoin="round"/>
<path d="M1661 53V27" stroke="black" stroke-width="3" stroke-linecap="round" stroke-linejoin="round"/>
<path d="M1557.54 35.732C1558.14 35.732 1558.66 35.8347 1559.08 36.04C1559.51 36.2453 1559.72 36.5067 1559.72 36.824C1559.72 36.964 1559.68 37.0853 1559.61 37.188C1559.54 37.2907 1559.44 37.342 1559.3 37.342C1559.17 37.342 1558.88 37.2393 1558.43 37.034C1557.98 36.8193 1557.57 36.712 1557.2 36.712C1556.84 36.712 1556.46 36.8287 1556.07 37.062C1555.67 37.2953 1555.48 37.58 1555.48 37.916C1555.48 38.3733 1555.72 38.7093 1556.19 38.924C1556.55 39.0827 1557.06 39.2273 1557.72 39.358C1558.38 39.4793 1558.92 39.736 1559.34 40.128C1559.76 40.5107 1559.97 41.094 1559.97 41.878C1559.97 43.0727 1559.61 43.9547 1558.89 44.524C1558.49 44.8413 1557.92 45 1557.19 45C1556.46 45 1555.73 44.7993 1555 44.398C1554.53 44.146 1554.29 43.894 1554.29 43.642C1554.29 43.5487 1554.33 43.446 1554.4 43.334C1554.48 43.222 1554.6 43.1287 1554.74 43.054C1554.88 42.9793 1555 42.97 1555.11 43.026C1555.24 43.0727 1555.43 43.1613 1555.69 43.292C1555.95 43.4227 1556.14 43.5113 1556.26 43.558C1556.65 43.7073 1557.02 43.782 1557.37 43.782C1557.71 43.782 1558.05 43.614 1558.36 43.278C1558.69 42.9327 1558.85 42.5127 1558.85 42.018C1558.85 41.3647 1558.53 40.9073 1557.87 40.646C1557.56 40.5153 1557.2 40.4173 1556.79 40.352C1555.96 40.2027 1555.34 39.9553 1554.92 39.61C1554.5 39.2553 1554.29 38.7233 1554.29 38.014C1554.29 37.3047 1554.59 36.7493 1555.2 36.348C1555.81 35.9373 1556.58 35.732 1557.54 35.732ZM1562.79 38.518C1563.28 38.518 1563.75 38.6627 1564.2 38.952C1564.65 39.2413 1564.87 39.6007 1564.87 40.03C1564.87 40.45 1564.69 40.8607 1564.33 41.262C1563.96 41.654 1563.48 41.892 1562.87 41.976C1562.61 42.0133 1562.22 42.032 1561.69 42.032C1561.8 42.8253 1562 43.348 1562.3 43.6C1562.39 43.7027 1562.52 43.754 1562.67 43.754C1563.25 43.754 1563.74 43.572 1564.13 43.208C1564.52 42.8347 1564.8 42.648 1564.97 42.648C1565.04 42.648 1565.16 42.718 1565.31 42.858C1565.46 42.998 1565.53 43.1287 1565.53 43.25C1565.53 43.4927 1565.24 43.8427 1564.65 44.3C1564.39 44.5147 1564.07 44.6967 1563.7 44.846C1563.33 44.986 1562.99 45.056 1562.67 45.056C1561.86 45.056 1561.26 44.5333 1560.88 43.488C1560.64 42.844 1560.52 42.1347 1560.52 41.36C1560.52 40.5853 1560.7 39.918 1561.06 39.358C1561.43 38.798 1562 38.518 1562.79 38.518ZM1562.86 39.484C1562.5 39.484 1562.2 39.6847 1561.95 40.086C1561.85 40.226 1561.76 40.5433 1561.68 41.038C1562.99 41.038 1563.64 40.716 1563.64 40.072C1563.64 39.68 1563.38 39.484 1562.86 39.484ZM1570.25 38.462C1570.67 38.462 1570.87 38.812 1570.87 39.512C1570.87 39.5867 1570.87 39.666 1570.87 39.75L1570.84 40.73C1570.83 41.038 1570.83 41.3413 1570.83 41.64L1571.04 44.804C1571.04 45.0373 1570.8 45.154 1570.32 45.154C1570.3 45.154 1570.23 45.154 1570.11 45.154C1570.01 45.154 1569.94 45.112 1569.89 45.028C1569.85 44.944 1569.85 44.8413 1569.88 44.72C1569.91 44.5987 1569.9 44.4633 1569.85 44.314C1569.42 44.7713 1568.85 45 1568.14 45C1566.82 45 1566.17 43.9827 1566.17 41.948C1566.17 40.8187 1566.38 39.9647 1566.8 39.386C1567.23 38.8073 1567.84 38.518 1568.63 38.518C1569 38.518 1569.38 38.5833 1569.75 38.714C1569.87 38.546 1570.04 38.462 1570.25 38.462ZM1568.8 39.736C1568.27 39.736 1567.87 39.89 1567.61 40.198C1567.35 40.506 1567.22 41.0707 1567.22 41.892C1567.22 43.2733 1567.59 43.964 1568.34 43.964C1568.53 43.964 1568.75 43.8753 1568.98 43.698C1569.22 43.5207 1569.39 43.32 1569.48 43.096C1569.66 42.592 1569.75 42.0413 1569.75 41.444C1569.75 40.8467 1569.68 40.4127 1569.53 40.142C1569.39 39.8713 1569.14 39.736 1568.8 39.736ZM1573.64 42.956L1573.65 44.398C1573.65 44.566 1573.57 44.72 1573.41 44.86C1573.26 45 1573.11 45.07 1572.96 45.07C1572.75 45.07 1572.61 44.902 1572.56 44.566C1572.55 44.4913 1572.51 43.81 1572.45 42.522C1572.38 41.2247 1572.26 40.2073 1572.07 39.47C1571.98 39.1153 1571.94 38.9053 1571.94 38.84C1571.94 38.532 1572.13 38.378 1572.5 38.378C1572.66 38.378 1572.79 38.4387 1572.88 38.56C1572.97 38.6813 1573.03 38.8073 1573.05 38.938C1573.08 39.0593 1573.1 39.2273 1573.12 39.442C1573.14 39.6567 1573.15 39.792 1573.16 39.848C1573.36 39.3813 1573.65 39.0313 1574.04 38.798C1574.43 38.5647 1574.86 38.448 1575.33 38.448C1576.1 38.448 1576.48 38.644 1576.48 39.036C1576.48 39.232 1576.41 39.3907 1576.27 39.512C1576.14 39.624 1575.98 39.68 1575.81 39.68C1575.01 39.68 1574.45 39.932 1574.13 40.436C1573.8 40.94 1573.64 41.78 1573.64 42.956ZM1577.02 41.724C1577.02 41.0987 1577.18 40.5293 1577.51 40.016C1577.85 39.5027 1578.27 39.12 1578.79 38.868C1579.3 38.6067 1579.8 38.476 1580.28 38.476C1580.77 38.476 1581.16 38.5367 1581.45 38.658C1581.74 38.77 1581.89 38.924 1581.89 39.12C1581.89 39.3067 1581.84 39.498 1581.73 39.694C1581.62 39.8807 1581.48 39.974 1581.31 39.974C1581.24 39.974 1581.06 39.9227 1580.76 39.82C1580.47 39.708 1580.28 39.652 1580.2 39.652C1579.66 39.652 1579.2 39.8527 1578.81 40.254C1578.43 40.646 1578.24 41.1687 1578.24 41.822C1578.24 42.4753 1578.34 42.9653 1578.55 43.292C1578.76 43.6093 1579.13 43.768 1579.64 43.768C1579.84 43.768 1580.19 43.6513 1580.69 43.418C1581.19 43.1753 1581.51 43.054 1581.63 43.054C1581.75 43.054 1581.85 43.0913 1581.92 43.166C1582 43.2407 1582.03 43.334 1582.03 43.446C1582.03 43.67 1581.89 43.908 1581.6 44.16C1581.32 44.4027 1580.97 44.608 1580.55 44.776C1580.13 44.9347 1579.75 45.014 1579.42 45.014C1578.67 45.014 1578.08 44.72 1577.65 44.132C1577.23 43.544 1577.02 42.7413 1577.02 41.724ZM1584.14 40.464L1584.26 43.768C1584.26 44.1787 1584.24 44.4167 1584.2 44.482C1584.18 44.65 1584.12 44.7807 1584.03 44.874C1583.95 44.9673 1583.78 45.014 1583.53 45.014C1583.41 45.014 1583.31 44.9393 1583.23 44.79C1583.16 44.6313 1583.12 44.454 1583.11 44.258C1583.04 42.6153 1582.95 41.0753 1582.84 39.638C1582.74 38.1913 1582.69 36.8473 1582.69 35.606C1582.69 35.41 1582.75 35.256 1582.88 35.144C1583.01 35.032 1583.17 34.976 1583.35 34.976C1583.61 34.976 1583.76 35.2 1583.81 35.648C1583.86 36.096 1583.9 36.656 1583.91 37.328C1583.92 38 1583.94 38.49 1583.96 38.798C1584.43 38.5553 1584.89 38.434 1585.36 38.434C1586.44 38.434 1587.13 38.91 1587.42 39.862C1587.59 40.4033 1587.67 41.0987 1587.67 41.948C1587.67 42.228 1587.64 42.6713 1587.59 43.278C1587.54 43.8753 1587.51 44.2627 1587.5 44.44C1587.49 44.6173 1587.41 44.7573 1587.27 44.86C1587.13 44.9533 1586.97 45 1586.8 45C1586.54 45 1586.41 44.86 1586.41 44.58L1586.51 42.144C1586.51 41.9387 1586.5 41.598 1586.48 41.122C1586.46 40.646 1586.36 40.268 1586.19 39.988C1586.02 39.708 1585.72 39.568 1585.29 39.568C1584.53 39.568 1584.14 39.8667 1584.14 40.464Z" fill="#7B7F8C"/>
</g>
<path d="M1544.35 49.0607C1544.93 49.6464 1545.88 49.6464 1546.47 49.0607C1547.05 48.4749 1547.05 47.5251 1546.47 46.9393L1544.35 49.0607ZM1535.41 42.5C1532.92 42.5 1530.91 40.4853 1530.91 38H1527.91C1527.91 42.1421 1531.27 45.5 1535.41 45.5V42.5ZM1530.91 38C1530.91 35.5147 1532.92 33.5 1535.41 33.5V30.5C1531.27 30.5 1527.91 33.8579 1527.91 38H1530.91ZM1535.41 33.5C1537.89 33.5 1539.91 35.5147 1539.91 38H1542.91C1542.91 33.8579 1539.55 30.5 1535.41 30.5V33.5ZM1539.91 38C1539.91 39.2431 1539.41 40.366 1538.59 41.182L1540.71 43.3033C1542.07 41.9477 1542.91 40.0707 1542.91 38H1539.91ZM1538.59 41.182C1537.77 41.998 1536.65 42.5 1535.41 42.5V45.5C1537.48 45.5 1539.36 44.6589 1540.71 43.3033L1538.59 41.182ZM1538.59 43.3033L1544.35 49.0607L1546.47 46.9393L1540.71 41.182L1538.59 43.3033Z" fill="black"/>
<path d="M1377 749H1592V873H1377V749Z" fill="#0E5E81"/>
<path d="M1377 584H1592V708H1377V584Z" fill="#0E5E81"/>
<path d="M1377 584H1592V708H1377V584Z" fill="#0E5E81"/>
<ellipse cx="503.5" cy="681.5" rx="437.5" ry="356.5" fill="#E5E5E5"/>
<rect x="115" y="181" width="65.1729" height="71" fill="#083649"/>
<rect x="115.5" y="181.5" width="64.1729" height="70" stroke="black" stroke-opacity="0.1"/>
<rect x="180.173" y="181" width="65.1729" height="71" fill="#0A435C"/>
<rect x="180.673" y="181.5" width="64.1729" height="70" stroke="black" stroke-opacity="0.1"/>
<rect x="375.691" y="181" width="65.1729" height="71" fill="#0D5F82"/>
<rect x="376.191" y="181.5" width="64.1729" height="70" stroke="black" stroke-opacity="0.1"/>
<rect x="440.864" y="181" width="65.1729" height="71" fill="#106C93"/>
<rect x="441.364" y="181.5" width="64.1729" height="70" stroke="black" stroke-opacity="0.1"/>
<rect x="762" y="181" width="65.1729" height="71" fill="#FBFB23"/>
<rect x="762.5" y="181.5" width="64.1729" height="70" stroke="black" stroke-opacity="0.1"/>
<rect x="827" y="181" width="65.1729" height="71" fill="#FBFB37"/>
<rect x="827.5" y="181.5" width="64.1729" height="70" stroke="black" stroke-opacity="0.1"/>
<rect x="697" y="181" width="65.1729" height="71" fill="#B4B404"/>
<rect x="697.5" y="181.5" width="64.1729" height="70" stroke="black" stroke-opacity="0.1"/>
<rect x="632" y="181" width="65.1729" height="71" fill="#91D5F3"/>
<rect x="632.5" y="181.5" width="64.1729" height="70" stroke="black" stroke-opacity="0.1"/>
<rect x="571.21" y="181" width="65.1728" height="71" fill="#6CC8EF"/>
<rect x="571.71" y="181.5" width="64.1728" height="70" stroke="black" stroke-opacity="0.1"/>
<rect x="506.037" y="181" width="65.1729" height="71" fill="#1279A5"/>
<rect x="506.537" y="181.5" width="64.1729" height="70" stroke="black" stroke-opacity="0.1"/>
<rect x="245.346" y="181" width="65.1729" height="71" fill="#0C516E"/>
<rect x="245.846" y="181.5" width="64.1729" height="70" stroke="black" stroke-opacity="0.1"/>
<rect x="310.519" y="181" width="65.1729" height="71" fill="#0E5E81"/>
<rect x="311.019" y="181.5" width="64.1729" height="70" stroke="black" stroke-opacity="0.1"/>
<rect x="892" y="181" width="67" height="71" fill="#FCFC73"/>
<rect x="892.5" y="181.5" width="66" height="70" stroke="black" stroke-opacity="0.1"/>
<rect x="955" y="181" width="65" height="71" fill="#FCFC5F"/>
<rect x="955.5" y="181.5" width="64" height="70" stroke="black" stroke-opacity="0.1"/>
<path d="M1080 166L1090.55 200.549H1124.7L1097.07 221.902L1107.63 256.451L1080 235.098L1052.37 256.451L1062.93 221.902L1035.3 200.549H1069.45L1080 166Z" fill="#FBFB23"/>
<path d="M68.3315 187.472C62.5757 187.472 56.9088 188.791 51.8326 191.31C46.7565 193.829 42.4278 197.472 39.2301 201.916C36.0323 206.36 34.0642 211.468 33.5001 216.787C32.9359 222.106 33.7931 227.472 35.9957 232.41C38.1984 237.347 41.6785 241.705 46.1278 245.095C50.577 248.486 55.8582 250.805 61.5034 251.848C67.1486 252.891 72.9835 252.624 78.4915 251.073C83.9994 249.522 89.9301 243.779 94.0001 240L98.8315 234.747C97.0098 238.663 79.2975 240.654 75.4425 241.74C71.5875 242.826 67.5036 243.012 63.5525 242.282C59.6014 241.552 55.9051 239.929 52.7911 237.556C49.677 235.183 47.2413 232.133 45.6996 228.677C44.158 225.221 43.558 221.466 43.9529 217.743C44.3478 214.02 43.8897 210.61 46.1278 207.5C48.3659 204.39 49.9473 200.263 53.5001 198.5C57.0529 196.737 66.803 187.472 70.8315 187.472H68.3315Z" fill="#C4C4C4"/>
<ellipse cx="1080.5" cy="216" rx="26.5" ry="25" fill="#FD7E35"/>
<path d="M1377 914H1592V1038H1377V914Z" fill="#0E5E81"/>
<rect x="1166" y="248" width="143" height="197" fill="#C4C4C4"/>
<rect x="1413" y="248" width="143" height="197" fill="#C4C4C4"/>
<path d="M1212.85 317.14C1214.15 317.14 1215.25 317.36 1216.15 317.8C1217.07 318.24 1217.53 318.8 1217.53 319.48C1217.53 319.78 1217.45 320.04 1217.29 320.26C1217.15 320.48 1216.93 320.59 1216.63 320.59C1216.35 320.59 1215.73 320.37 1214.77 319.93C1213.81 319.47 1212.93 319.24 1212.13 319.24C1211.35 319.24 1210.54 319.49 1209.7 319.99C1208.86 320.49 1208.44 321.1 1208.44 321.82C1208.44 322.8 1208.95 323.52 1209.97 323.98C1210.73 324.32 1211.82 324.63 1213.24 324.91C1214.66 325.17 1215.82 325.72 1216.72 326.56C1217.62 327.38 1218.07 328.63 1218.07 330.31C1218.07 332.87 1217.3 334.76 1215.76 335.98C1214.9 336.66 1213.68 337 1212.1 337C1210.54 337 1208.98 336.57 1207.42 335.71C1206.4 335.17 1205.89 334.63 1205.89 334.09C1205.89 333.89 1205.97 333.67 1206.13 333.43C1206.31 333.19 1206.55 332.99 1206.85 332.83C1207.15 332.67 1207.42 332.65 1207.66 332.77C1207.92 332.87 1208.33 333.06 1208.89 333.34C1209.45 333.62 1209.86 333.81 1210.12 333.91C1210.96 334.23 1211.75 334.39 1212.49 334.39C1213.23 334.39 1213.94 334.03 1214.62 333.31C1215.32 332.57 1215.67 331.67 1215.67 330.61C1215.67 329.21 1214.97 328.23 1213.57 327.67C1212.89 327.39 1212.12 327.18 1211.26 327.04C1209.48 326.72 1208.14 326.19 1207.24 325.45C1206.34 324.69 1205.89 323.55 1205.89 322.03C1205.89 320.51 1206.54 319.32 1207.84 318.46C1209.14 317.58 1210.81 317.14 1212.85 317.14ZM1220.53 322.99L1222.03 323.02C1222.37 323.02 1222.56 323.01 1222.6 322.99V316.84C1222.62 316.5 1222.79 316.21 1223.11 315.97C1223.43 315.73 1223.73 315.61 1224.01 315.61C1224.29 315.61 1224.51 315.7 1224.67 315.88C1224.85 316.06 1224.93 316.34 1224.91 316.72C1224.89 317.1 1224.88 319.18 1224.88 322.96L1228.39 322.84C1228.99 322.84 1229.29 323.19 1229.29 323.89C1229.29 324.41 1229.13 324.8 1228.81 325.06C1228.51 325.32 1228.18 325.46 1227.82 325.48C1227.48 325.5 1227.14 325.51 1226.8 325.51L1224.97 325.48C1224.97 326.3 1225.05 327.92 1225.21 330.34C1225.39 332.76 1225.53 334.33 1225.63 335.05C1225.73 335.75 1225.75 336.21 1225.69 336.43C1225.63 336.63 1225.52 336.77 1225.36 336.85C1225.1 336.97 1224.75 337.03 1224.31 337.03C1223.87 337.03 1223.61 336.79 1223.53 336.31C1223.13 333.69 1222.86 330.09 1222.72 325.51C1222.54 325.53 1221.85 325.54 1220.65 325.54C1219.45 325.54 1218.85 325.19 1218.85 324.49C1218.85 323.49 1219.41 322.99 1220.53 322.99ZM1235.4 323.02C1236.84 323.02 1238.02 323.71 1238.94 325.09C1239.88 326.47 1240.35 328.13 1240.35 330.07C1240.35 331.99 1239.87 333.63 1238.91 334.99C1237.97 336.35 1236.71 337.03 1235.13 337.03C1233.57 337.03 1232.31 336.34 1231.35 334.96C1230.39 333.56 1229.91 332.01 1229.91 330.31C1229.91 328.13 1230.35 326.39 1231.23 325.09C1232.17 323.71 1233.56 323.02 1235.4 323.02ZM1235.04 325.48C1234.2 325.48 1233.51 325.92 1232.97 326.8C1232.43 327.68 1232.16 328.61 1232.16 329.59C1232.16 331.11 1232.46 332.27 1233.06 333.07C1233.66 333.87 1234.34 334.27 1235.1 334.27C1236.46 334.27 1237.33 333.68 1237.71 332.5C1237.87 331.94 1237.95 331.24 1237.95 330.4C1237.95 327.12 1236.98 325.48 1235.04 325.48ZM1241.77 329.98C1241.77 328.64 1242.12 327.42 1242.82 326.32C1243.54 325.22 1244.45 324.4 1245.55 323.86C1246.65 323.3 1247.72 323.02 1248.76 323.02C1249.8 323.02 1250.63 323.15 1251.25 323.41C1251.89 323.65 1252.21 323.98 1252.21 324.4C1252.21 324.8 1252.09 325.21 1251.85 325.63C1251.63 326.03 1251.33 326.23 1250.95 326.23C1250.81 326.23 1250.42 326.12 1249.78 325.9C1249.16 325.66 1248.76 325.54 1248.58 325.54C1247.42 325.54 1246.43 325.97 1245.61 326.83C1244.79 327.67 1244.38 328.79 1244.38 330.19C1244.38 331.59 1244.6 332.64 1245.04 333.34C1245.5 334.02 1246.28 334.36 1247.38 334.36C1247.82 334.36 1248.57 334.11 1249.63 333.61C1250.71 333.09 1251.38 332.83 1251.64 332.83C1251.9 332.83 1252.11 332.91 1252.27 333.07C1252.43 333.23 1252.51 333.43 1252.51 333.67C1252.51 334.15 1252.2 334.66 1251.58 335.2C1250.98 335.72 1250.23 336.16 1249.33 336.52C1248.43 336.86 1247.62 337.03 1246.9 337.03C1245.3 337.03 1244.04 336.4 1243.12 335.14C1242.22 333.88 1241.77 332.16 1241.77 329.98ZM1264.53 335.65C1264.53 336.59 1264.1 337.06 1263.24 337.06C1262.88 337.06 1262.39 336.18 1261.77 334.42C1261.15 332.64 1260.32 331.27 1259.28 330.31C1259.18 330.45 1258.75 330.85 1257.99 331.51C1257.25 332.15 1256.81 332.54 1256.67 332.68V335.68C1256.63 335.98 1256.58 336.21 1256.52 336.37C1256.46 336.53 1256.32 336.68 1256.1 336.82C1255.9 336.96 1255.62 337.03 1255.26 337.03C1254.72 337.03 1254.45 336.7 1254.45 336.04C1254.45 334.18 1254.37 331.3 1254.21 327.4C1254.05 323.48 1253.97 319.97 1253.97 316.87C1253.97 316.49 1254.12 316.19 1254.42 315.97C1254.74 315.75 1255.07 315.64 1255.41 315.64C1255.87 315.64 1256.15 315.93 1256.25 316.51V321.82C1256.25 322.46 1256.26 322.94 1256.28 323.26C1256.3 323.58 1256.32 324.06 1256.34 324.7C1256.38 326.02 1256.45 327.51 1256.55 329.17C1257.13 328.73 1257.87 328.04 1258.77 327.1C1259.69 326.14 1260.38 325.32 1260.84 324.64C1261.56 323.5 1262.22 322.93 1262.82 322.93C1262.98 322.93 1263.14 322.97 1263.3 323.05C1263.72 323.29 1263.93 323.57 1263.93 323.89C1263.93 324.21 1263.79 324.63 1263.51 325.15C1262.79 326.39 1261.96 327.52 1261.02 328.54C1261.92 329.54 1262.82 330.97 1263.72 332.83C1264.26 334.03 1264.53 334.97 1264.53 335.65ZM1207.81 365.8C1207.81 364.62 1208.23 363.68 1209.07 362.98C1209.91 362.28 1210.88 361.93 1211.98 361.93C1213.1 361.93 1214.17 362.13 1215.19 362.53C1216.21 362.93 1216.72 363.46 1216.72 364.12C1216.72 364.46 1216.59 364.73 1216.33 364.93C1216.07 365.13 1215.84 365.23 1215.64 365.23C1215.46 365.23 1215.31 365.23 1215.19 365.23C1215.09 365.21 1214.69 365.02 1213.99 364.66C1213.31 364.3 1212.68 364.12 1212.1 364.12C1211.52 364.12 1211.02 364.27 1210.6 364.57C1210.2 364.85 1210 365.27 1210 365.83C1210 366.39 1210.23 366.83 1210.69 367.15C1211.17 367.47 1212 367.75 1213.18 367.99C1214.36 368.21 1215.26 368.53 1215.88 368.95C1216.52 369.37 1216.84 370.15 1216.84 371.29C1216.84 372.95 1216.4 374.13 1215.52 374.83C1214.66 375.51 1213.61 375.85 1212.37 375.85C1211.13 375.85 1210.07 375.68 1209.19 375.34C1208.33 375 1207.9 374.49 1207.9 373.81C1207.9 373.03 1208.29 372.64 1209.07 372.64C1209.27 372.64 1209.71 372.78 1210.39 373.06C1211.07 373.34 1211.74 373.48 1212.4 373.48C1213.08 373.48 1213.59 373.27 1213.93 372.85C1214.29 372.41 1214.47 371.91 1214.47 371.35C1214.47 370.79 1214.24 370.39 1213.78 370.15C1213.32 369.89 1212.62 369.68 1211.68 369.52C1210.74 369.36 1210.05 369.19 1209.61 369.01C1208.41 368.53 1207.81 367.46 1207.81 365.8ZM1219.59 361.99L1221.09 362.02C1221.43 362.02 1221.62 362.01 1221.66 361.99V355.84C1221.68 355.5 1221.85 355.21 1222.17 354.97C1222.49 354.73 1222.79 354.61 1223.07 354.61C1223.35 354.61 1223.57 354.7 1223.73 354.88C1223.91 355.06 1223.99 355.34 1223.97 355.72C1223.95 356.1 1223.94 358.18 1223.94 361.96L1227.45 361.84C1228.05 361.84 1228.35 362.19 1228.35 362.89C1228.35 363.41 1228.19 363.8 1227.87 364.06C1227.57 364.32 1227.24 364.46 1226.88 364.48C1226.54 364.5 1226.2 364.51 1225.86 364.51L1224.03 364.48C1224.03 365.3 1224.11 366.92 1224.27 369.34C1224.45 371.76 1224.59 373.33 1224.69 374.05C1224.79 374.75 1224.81 375.21 1224.75 375.43C1224.69 375.63 1224.58 375.77 1224.42 375.85C1224.16 375.97 1223.81 376.03 1223.37 376.03C1222.93 376.03 1222.67 375.79 1222.59 375.31C1222.19 372.69 1221.92 369.09 1221.78 364.51C1221.6 364.53 1220.91 364.54 1219.71 364.54C1218.51 364.54 1217.91 364.19 1217.91 363.49C1217.91 362.49 1218.47 361.99 1219.59 361.99ZM1237.52 361.99C1238.4 361.99 1238.84 362.74 1238.84 364.24C1238.84 364.4 1238.84 364.57 1238.84 364.75L1238.78 366.85C1238.76 367.51 1238.75 368.16 1238.75 368.8L1239.2 375.58C1239.2 376.08 1238.69 376.33 1237.67 376.33C1237.61 376.33 1237.46 376.33 1237.22 376.33C1237 376.33 1236.84 376.24 1236.74 376.06C1236.66 375.88 1236.65 375.66 1236.71 375.4C1236.79 375.14 1236.77 374.85 1236.65 374.53C1235.73 375.51 1234.51 376 1232.99 376C1230.17 376 1228.76 373.82 1228.76 369.46C1228.76 367.04 1229.21 365.21 1230.11 363.97C1231.03 362.73 1232.34 362.11 1234.04 362.11C1234.84 362.11 1235.64 362.25 1236.44 362.53C1236.7 362.17 1237.06 361.99 1237.52 361.99ZM1234.4 364.72C1233.26 364.72 1232.41 365.05 1231.85 365.71C1231.29 366.37 1231.01 367.58 1231.01 369.34C1231.01 372.3 1231.81 373.78 1233.41 373.78C1233.83 373.78 1234.29 373.59 1234.79 373.21C1235.31 372.83 1235.67 372.4 1235.87 371.92C1236.25 370.84 1236.44 369.66 1236.44 368.38C1236.44 367.1 1236.28 366.17 1235.96 365.59C1235.66 365.01 1235.14 364.72 1234.4 364.72ZM1240.48 368.98C1240.48 367.64 1240.83 366.42 1241.53 365.32C1242.25 364.22 1243.16 363.4 1244.26 362.86C1245.36 362.3 1246.43 362.02 1247.47 362.02C1248.51 362.02 1249.34 362.15 1249.96 362.41C1250.6 362.65 1250.92 362.98 1250.92 363.4C1250.92 363.8 1250.8 364.21 1250.56 364.63C1250.34 365.03 1250.04 365.23 1249.66 365.23C1249.52 365.23 1249.13 365.12 1248.49 364.9C1247.87 364.66 1247.47 364.54 1247.29 364.54C1246.13 364.54 1245.14 364.97 1244.32 365.83C1243.5 366.67 1243.09 367.79 1243.09 369.19C1243.09 370.59 1243.31 371.64 1243.75 372.34C1244.21 373.02 1244.99 373.36 1246.09 373.36C1246.53 373.36 1247.28 373.11 1248.34 372.61C1249.42 372.09 1250.09 371.83 1250.35 371.83C1250.61 371.83 1250.82 371.91 1250.98 372.07C1251.14 372.23 1251.22 372.43 1251.22 372.67C1251.22 373.15 1250.91 373.66 1250.29 374.2C1249.69 374.72 1248.94 375.16 1248.04 375.52C1247.14 375.86 1246.33 376.03 1245.61 376.03C1244.01 376.03 1242.75 375.4 1241.83 374.14C1240.93 372.88 1240.48 371.16 1240.48 368.98ZM1263.24 374.65C1263.24 375.59 1262.81 376.06 1261.95 376.06C1261.59 376.06 1261.1 375.18 1260.48 373.42C1259.86 371.64 1259.03 370.27 1257.99 369.31C1257.89 369.45 1257.46 369.85 1256.7 370.51C1255.96 371.15 1255.52 371.54 1255.38 371.68V374.68C1255.34 374.98 1255.29 375.21 1255.23 375.37C1255.17 375.53 1255.03 375.68 1254.81 375.82C1254.61 375.96 1254.33 376.03 1253.97 376.03C1253.43 376.03 1253.16 375.7 1253.16 375.04C1253.16 373.18 1253.08 370.3 1252.92 366.4C1252.76 362.48 1252.68 358.97 1252.68 355.87C1252.68 355.49 1252.83 355.19 1253.13 354.97C1253.45 354.75 1253.78 354.64 1254.12 354.64C1254.58 354.64 1254.86 354.93 1254.96 355.51V360.82C1254.96 361.46 1254.97 361.94 1254.99 362.26C1255.01 362.58 1255.03 363.06 1255.05 363.7C1255.09 365.02 1255.16 366.51 1255.26 368.17C1255.84 367.73 1256.58 367.04 1257.48 366.1C1258.4 365.14 1259.09 364.32 1259.55 363.64C1260.27 362.5 1260.93 361.93 1261.53 361.93C1261.69 361.93 1261.85 361.97 1262.01 362.05C1262.43 362.29 1262.64 362.57 1262.64 362.89C1262.64 363.21 1262.5 363.63 1262.22 364.15C1261.5 365.39 1260.67 366.52 1259.73 367.54C1260.63 368.54 1261.53 369.97 1262.43 371.83C1262.97 373.03 1263.24 373.97 1263.24 374.65Z" fill="black"/>
<path d="M1435.4 344.04C1435.1 343.82 1434.95 343.58 1434.95 343.32C1434.95 343.04 1435.06 342.81 1435.28 342.63C1434.9 339.77 1434.71 336.49 1434.71 332.79C1434.71 331.67 1434.76 329.49 1434.86 326.25C1434.96 325.95 1435.16 325.69 1435.46 325.47C1435.78 325.25 1436.08 325.14 1436.36 325.14C1436.64 325.14 1436.81 325.15 1436.87 325.17C1439.73 325.97 1442.22 327.52 1444.34 329.82C1446.46 332.1 1447.57 334.84 1447.67 338.04C1447.67 341.56 1446.21 343.77 1443.29 344.67C1442.45 344.93 1441.56 345.06 1440.62 345.06C1439.7 345.06 1438.89 344.99 1438.19 344.85C1438.27 345.01 1438.31 345.22 1438.31 345.48C1438.31 345.76 1438.14 346.02 1437.8 346.26C1437.48 346.52 1437.09 346.65 1436.63 346.65C1436.19 346.65 1435.91 346.38 1435.79 345.84L1435.4 344.04ZM1437.2 332.55C1437.2 336.05 1437.4 339.37 1437.8 342.51C1438.28 342.65 1439.09 342.72 1440.23 342.72C1441.37 342.72 1442.46 342.53 1443.5 342.15C1444.56 341.77 1445.12 341.21 1445.18 340.47C1445.24 339.91 1445.27 339.48 1445.27 339.18C1445.27 336.58 1444.57 334.28 1443.17 332.28C1441.79 330.28 1439.85 328.76 1437.35 327.72C1437.25 330.08 1437.2 331.69 1437.2 332.55ZM1450.99 326.04C1451.35 326.04 1451.69 326.21 1452.01 326.55C1452.33 326.89 1452.49 327.25 1452.49 327.63C1452.49 327.99 1452.31 328.36 1451.95 328.74C1451.61 329.12 1451.25 329.31 1450.87 329.31C1450.49 329.31 1450.14 329.15 1449.82 328.83C1449.52 328.51 1449.37 328.1 1449.37 327.6C1449.37 326.64 1449.89 326.12 1450.93 326.04C1450.95 326.04 1450.97 326.04 1450.99 326.04ZM1452.25 341.76L1452.28 343.86C1452.28 344.24 1452.13 344.56 1451.83 344.82C1451.53 345.06 1451.21 345.18 1450.87 345.18C1450.37 345.18 1450.11 344.93 1450.09 344.43C1449.83 338.05 1449.7 334.52 1449.7 333.84C1449.7 333.16 1449.73 332.33 1449.79 331.35C1449.83 330.99 1450.06 330.81 1450.48 330.81C1451.54 330.81 1452.14 331.24 1452.28 332.1C1452.34 332.54 1452.37 332.89 1452.37 333.15L1452.25 335.04V341.76ZM1456.23 334.8C1456.23 333.62 1456.65 332.68 1457.49 331.98C1458.33 331.28 1459.3 330.93 1460.4 330.93C1461.52 330.93 1462.59 331.13 1463.61 331.53C1464.63 331.93 1465.14 332.46 1465.14 333.12C1465.14 333.46 1465.01 333.73 1464.75 333.93C1464.49 334.13 1464.26 334.23 1464.06 334.23C1463.88 334.23 1463.73 334.23 1463.61 334.23C1463.51 334.21 1463.11 334.02 1462.41 333.66C1461.73 333.3 1461.1 333.12 1460.52 333.12C1459.94 333.12 1459.44 333.27 1459.02 333.57C1458.62 333.85 1458.42 334.27 1458.42 334.83C1458.42 335.39 1458.65 335.83 1459.11 336.15C1459.59 336.47 1460.42 336.75 1461.6 336.99C1462.78 337.21 1463.68 337.53 1464.3 337.95C1464.94 338.37 1465.26 339.15 1465.26 340.29C1465.26 341.95 1464.82 343.13 1463.94 343.83C1463.08 344.51 1462.03 344.85 1460.79 344.85C1459.55 344.85 1458.49 344.68 1457.61 344.34C1456.75 344 1456.32 343.49 1456.32 342.81C1456.32 342.03 1456.71 341.64 1457.49 341.64C1457.69 341.64 1458.13 341.78 1458.81 342.06C1459.49 342.34 1460.16 342.48 1460.82 342.48C1461.5 342.48 1462.01 342.27 1462.35 341.85C1462.71 341.41 1462.89 340.91 1462.89 340.35C1462.89 339.79 1462.66 339.39 1462.2 339.15C1461.74 338.89 1461.04 338.68 1460.1 338.52C1459.16 338.36 1458.47 338.19 1458.03 338.01C1456.83 337.53 1456.23 336.46 1456.23 334.8ZM1466.84 337.98C1466.84 336.64 1467.19 335.42 1467.89 334.32C1468.61 333.22 1469.52 332.4 1470.62 331.86C1471.72 331.3 1472.79 331.02 1473.83 331.02C1474.87 331.02 1475.7 331.15 1476.32 331.41C1476.96 331.65 1477.28 331.98 1477.28 332.4C1477.28 332.8 1477.16 333.21 1476.92 333.63C1476.7 334.03 1476.4 334.23 1476.02 334.23C1475.88 334.23 1475.49 334.12 1474.85 333.9C1474.23 333.66 1473.83 333.54 1473.65 333.54C1472.49 333.54 1471.5 333.97 1470.68 334.83C1469.86 335.67 1469.45 336.79 1469.45 338.19C1469.45 339.59 1469.67 340.64 1470.11 341.34C1470.57 342.02 1471.35 342.36 1472.45 342.36C1472.89 342.36 1473.64 342.11 1474.7 341.61C1475.78 341.09 1476.45 340.83 1476.71 340.83C1476.97 340.83 1477.18 340.91 1477.34 341.07C1477.5 341.23 1477.58 341.43 1477.58 341.67C1477.58 342.15 1477.27 342.66 1476.65 343.2C1476.05 343.72 1475.3 344.16 1474.4 344.52C1473.5 344.86 1472.69 345.03 1471.97 345.03C1470.37 345.03 1469.11 344.4 1468.19 343.14C1467.29 341.88 1466.84 340.16 1466.84 337.98ZM1487.26 330.99C1488.14 330.99 1488.58 331.74 1488.58 333.24C1488.58 333.4 1488.58 333.57 1488.58 333.75L1488.52 335.85C1488.5 336.51 1488.49 337.16 1488.49 337.8L1488.94 344.58C1488.94 345.08 1488.43 345.33 1487.41 345.33C1487.35 345.33 1487.2 345.33 1486.96 345.33C1486.74 345.33 1486.58 345.24 1486.48 345.06C1486.4 344.88 1486.39 344.66 1486.45 344.4C1486.53 344.14 1486.51 343.85 1486.39 343.53C1485.47 344.51 1484.25 345 1482.73 345C1479.91 345 1478.5 342.82 1478.5 338.46C1478.5 336.04 1478.95 334.21 1479.85 332.97C1480.77 331.73 1482.08 331.11 1483.78 331.11C1484.58 331.11 1485.38 331.25 1486.18 331.53C1486.44 331.17 1486.8 330.99 1487.26 330.99ZM1484.14 333.72C1483 333.72 1482.15 334.05 1481.59 334.71C1481.03 335.37 1480.75 336.58 1480.75 338.34C1480.75 341.3 1481.55 342.78 1483.15 342.78C1483.57 342.78 1484.03 342.59 1484.53 342.21C1485.05 341.83 1485.41 341.4 1485.61 340.92C1485.99 339.84 1486.18 338.66 1486.18 337.38C1486.18 336.1 1486.02 335.17 1485.7 334.59C1485.4 334.01 1484.88 333.72 1484.14 333.72ZM1494.51 340.62L1494.54 343.71C1494.54 344.07 1494.37 344.4 1494.03 344.7C1493.71 345 1493.39 345.15 1493.07 345.15C1492.61 345.15 1492.32 344.79 1492.2 344.07C1492.18 343.91 1492.1 342.45 1491.96 339.69C1491.82 336.91 1491.55 334.73 1491.15 333.15C1490.97 332.39 1490.88 331.94 1490.88 331.8C1490.88 331.14 1491.28 330.81 1492.08 330.81C1492.42 330.81 1492.69 330.94 1492.89 331.2C1493.09 331.46 1493.21 331.73 1493.25 332.01C1493.31 332.27 1493.36 332.63 1493.4 333.09C1493.44 333.55 1493.47 333.84 1493.49 333.96C1493.91 332.96 1494.54 332.21 1495.38 331.71C1496.22 331.21 1497.14 330.96 1498.14 330.96C1499.78 330.96 1500.6 331.38 1500.6 332.22C1500.6 332.64 1500.45 332.98 1500.15 333.24C1499.87 333.48 1499.54 333.6 1499.16 333.6C1497.46 333.6 1496.26 334.14 1495.56 335.22C1494.86 336.3 1494.51 338.1 1494.51 340.62ZM1509.35 330.96L1509.32 325.17C1509.32 324.09 1509.66 323.55 1510.34 323.55C1511.04 323.55 1511.43 323.85 1511.51 324.45C1511.55 324.71 1511.6 326.28 1511.66 329.16C1511.72 332.04 1511.81 334.74 1511.93 337.26C1512.07 339.78 1512.14 342.13 1512.14 344.31C1512.14 344.91 1511.69 345.21 1510.79 345.21C1510.19 345.21 1509.89 344.79 1509.89 343.95C1509.03 344.63 1508.01 344.97 1506.83 344.97C1505.33 344.97 1504.11 344.41 1503.17 343.29C1502.25 342.17 1501.79 340.79 1501.79 339.15C1501.79 337.51 1502.12 335.98 1502.78 334.56C1503.46 333.12 1504.51 332.09 1505.93 331.47C1506.81 331.09 1507.66 330.9 1508.48 330.9C1508.78 330.9 1509.07 330.92 1509.35 330.96ZM1509.5 335.07C1509.36 334.63 1509.19 334.3 1508.99 334.08C1508.79 333.84 1508.57 333.7 1508.33 333.66C1508.11 333.6 1507.84 333.57 1507.52 333.57C1507.2 333.57 1506.81 333.69 1506.35 333.93C1505.89 334.17 1505.5 334.56 1505.18 335.1C1504.54 336.18 1504.22 337.32 1504.22 338.52C1504.22 339.7 1504.45 340.67 1504.91 341.43C1505.39 342.17 1506.06 342.54 1506.92 342.54C1507.8 342.54 1508.49 342.11 1508.99 341.25C1509.49 340.39 1509.74 339.29 1509.74 337.95C1509.74 336.45 1509.66 335.49 1509.5 335.07ZM1518.19 331.11C1519.25 331.11 1520.26 331.42 1521.22 332.04C1522.18 332.66 1522.66 333.43 1522.66 334.35C1522.66 335.25 1522.27 336.13 1521.49 336.99C1520.71 337.83 1519.67 338.34 1518.37 338.52C1517.81 338.6 1516.97 338.64 1515.85 338.64C1516.07 340.34 1516.5 341.46 1517.14 342C1517.34 342.22 1517.61 342.33 1517.95 342.33C1519.19 342.33 1520.23 341.94 1521.07 341.16C1521.91 340.36 1522.51 339.96 1522.87 339.96C1523.03 339.96 1523.27 340.11 1523.59 340.41C1523.91 340.71 1524.07 340.99 1524.07 341.25C1524.07 341.77 1523.44 342.52 1522.18 343.5C1521.62 343.96 1520.94 344.35 1520.14 344.67C1519.36 344.97 1518.63 345.12 1517.95 345.12C1516.21 345.12 1514.93 344 1514.11 341.76C1513.59 340.38 1513.33 338.86 1513.33 337.2C1513.33 335.54 1513.72 334.11 1514.5 332.91C1515.28 331.71 1516.51 331.11 1518.19 331.11ZM1518.34 333.18C1517.58 333.18 1516.93 333.61 1516.39 334.47C1516.19 334.77 1516 335.45 1515.82 336.51C1518.62 336.51 1520.02 335.82 1520.02 334.44C1520.02 333.6 1519.46 333.18 1518.34 333.18ZM1532.99 330.96L1532.96 325.17C1532.96 324.09 1533.3 323.55 1533.98 323.55C1534.68 323.55 1535.07 323.85 1535.15 324.45C1535.19 324.71 1535.24 326.28 1535.3 329.16C1535.36 332.04 1535.45 334.74 1535.57 337.26C1535.71 339.78 1535.78 342.13 1535.78 344.31C1535.78 344.91 1535.33 345.21 1534.43 345.21C1533.83 345.21 1533.53 344.79 1533.53 343.95C1532.67 344.63 1531.65 344.97 1530.47 344.97C1528.97 344.97 1527.75 344.41 1526.81 343.29C1525.89 342.17 1525.43 340.79 1525.43 339.15C1525.43 337.51 1525.76 335.98 1526.42 334.56C1527.1 333.12 1528.15 332.09 1529.57 331.47C1530.45 331.09 1531.3 330.9 1532.12 330.9C1532.42 330.9 1532.71 330.92 1532.99 330.96ZM1533.14 335.07C1533 334.63 1532.83 334.3 1532.63 334.08C1532.43 333.84 1532.21 333.7 1531.97 333.66C1531.75 333.6 1531.48 333.57 1531.16 333.57C1530.84 333.57 1530.45 333.69 1529.99 333.93C1529.53 334.17 1529.14 334.56 1528.82 335.1C1528.18 336.18 1527.86 337.32 1527.86 338.52C1527.86 339.7 1528.09 340.67 1528.55 341.43C1529.03 342.17 1529.7 342.54 1530.56 342.54C1531.44 342.54 1532.13 342.11 1532.63 341.25C1533.13 340.39 1533.38 339.29 1533.38 337.95C1533.38 336.45 1533.3 335.49 1533.14 335.07ZM1457.81 373.8C1457.81 372.62 1458.23 371.68 1459.07 370.98C1459.91 370.28 1460.88 369.93 1461.98 369.93C1463.1 369.93 1464.17 370.13 1465.19 370.53C1466.21 370.93 1466.72 371.46 1466.72 372.12C1466.72 372.46 1466.59 372.73 1466.33 372.93C1466.07 373.13 1465.84 373.23 1465.64 373.23C1465.46 373.23 1465.31 373.23 1465.19 373.23C1465.09 373.21 1464.69 373.02 1463.99 372.66C1463.31 372.3 1462.68 372.12 1462.1 372.12C1461.52 372.12 1461.02 372.27 1460.6 372.57C1460.2 372.85 1460 373.27 1460 373.83C1460 374.39 1460.23 374.83 1460.69 375.15C1461.17 375.47 1462 375.75 1463.18 375.99C1464.36 376.21 1465.26 376.53 1465.88 376.95C1466.52 377.37 1466.84 378.15 1466.84 379.29C1466.84 380.95 1466.4 382.13 1465.52 382.83C1464.66 383.51 1463.61 383.85 1462.37 383.85C1461.13 383.85 1460.07 383.68 1459.19 383.34C1458.33 383 1457.9 382.49 1457.9 381.81C1457.9 381.03 1458.29 380.64 1459.07 380.64C1459.27 380.64 1459.71 380.78 1460.39 381.06C1461.07 381.34 1461.74 381.48 1462.4 381.48C1463.08 381.48 1463.59 381.27 1463.93 380.85C1464.29 380.41 1464.47 379.91 1464.47 379.35C1464.47 378.79 1464.24 378.39 1463.78 378.15C1463.32 377.89 1462.62 377.68 1461.68 377.52C1460.74 377.36 1460.05 377.19 1459.61 377.01C1458.41 376.53 1457.81 375.46 1457.81 373.8ZM1469.59 369.99L1471.09 370.02C1471.43 370.02 1471.62 370.01 1471.66 369.99V363.84C1471.68 363.5 1471.85 363.21 1472.17 362.97C1472.49 362.73 1472.79 362.61 1473.07 362.61C1473.35 362.61 1473.57 362.7 1473.73 362.88C1473.91 363.06 1473.99 363.34 1473.97 363.72C1473.95 364.1 1473.94 366.18 1473.94 369.96L1477.45 369.84C1478.05 369.84 1478.35 370.19 1478.35 370.89C1478.35 371.41 1478.19 371.8 1477.87 372.06C1477.57 372.32 1477.24 372.46 1476.88 372.48C1476.54 372.5 1476.2 372.51 1475.86 372.51L1474.03 372.48C1474.03 373.3 1474.11 374.92 1474.27 377.34C1474.45 379.76 1474.59 381.33 1474.69 382.05C1474.79 382.75 1474.81 383.21 1474.75 383.43C1474.69 383.63 1474.58 383.77 1474.42 383.85C1474.16 383.97 1473.81 384.03 1473.37 384.03C1472.93 384.03 1472.67 383.79 1472.59 383.31C1472.19 380.69 1471.92 377.09 1471.78 372.51C1471.6 372.53 1470.91 372.54 1469.71 372.54C1468.51 372.54 1467.91 372.19 1467.91 371.49C1467.91 370.49 1468.47 369.99 1469.59 369.99ZM1487.52 369.99C1488.4 369.99 1488.84 370.74 1488.84 372.24C1488.84 372.4 1488.84 372.57 1488.84 372.75L1488.78 374.85C1488.76 375.51 1488.75 376.16 1488.75 376.8L1489.2 383.58C1489.2 384.08 1488.69 384.33 1487.67 384.33C1487.61 384.33 1487.46 384.33 1487.22 384.33C1487 384.33 1486.84 384.24 1486.74 384.06C1486.66 383.88 1486.65 383.66 1486.71 383.4C1486.79 383.14 1486.77 382.85 1486.65 382.53C1485.73 383.51 1484.51 384 1482.99 384C1480.17 384 1478.76 381.82 1478.76 377.46C1478.76 375.04 1479.21 373.21 1480.11 371.97C1481.03 370.73 1482.34 370.11 1484.04 370.11C1484.84 370.11 1485.64 370.25 1486.44 370.53C1486.7 370.17 1487.06 369.99 1487.52 369.99ZM1484.4 372.72C1483.26 372.72 1482.41 373.05 1481.85 373.71C1481.29 374.37 1481.01 375.58 1481.01 377.34C1481.01 380.3 1481.81 381.78 1483.41 381.78C1483.83 381.78 1484.29 381.59 1484.79 381.21C1485.31 380.83 1485.67 380.4 1485.87 379.92C1486.25 378.84 1486.44 377.66 1486.44 376.38C1486.44 375.1 1486.28 374.17 1485.96 373.59C1485.66 373.01 1485.14 372.72 1484.4 372.72ZM1490.48 376.98C1490.48 375.64 1490.83 374.42 1491.53 373.32C1492.25 372.22 1493.16 371.4 1494.26 370.86C1495.36 370.3 1496.43 370.02 1497.47 370.02C1498.51 370.02 1499.34 370.15 1499.96 370.41C1500.6 370.65 1500.92 370.98 1500.92 371.4C1500.92 371.8 1500.8 372.21 1500.56 372.63C1500.34 373.03 1500.04 373.23 1499.66 373.23C1499.52 373.23 1499.13 373.12 1498.49 372.9C1497.87 372.66 1497.47 372.54 1497.29 372.54C1496.13 372.54 1495.14 372.97 1494.32 373.83C1493.5 374.67 1493.09 375.79 1493.09 377.19C1493.09 378.59 1493.31 379.64 1493.75 380.34C1494.21 381.02 1494.99 381.36 1496.09 381.36C1496.53 381.36 1497.28 381.11 1498.34 380.61C1499.42 380.09 1500.09 379.83 1500.35 379.83C1500.61 379.83 1500.82 379.91 1500.98 380.07C1501.14 380.23 1501.22 380.43 1501.22 380.67C1501.22 381.15 1500.91 381.66 1500.29 382.2C1499.69 382.72 1498.94 383.16 1498.04 383.52C1497.14 383.86 1496.33 384.03 1495.61 384.03C1494.01 384.03 1492.75 383.4 1491.83 382.14C1490.93 380.88 1490.48 379.16 1490.48 376.98ZM1513.24 382.65C1513.24 383.59 1512.81 384.06 1511.95 384.06C1511.59 384.06 1511.1 383.18 1510.48 381.42C1509.86 379.64 1509.03 378.27 1507.99 377.31C1507.89 377.45 1507.46 377.85 1506.7 378.51C1505.96 379.15 1505.52 379.54 1505.38 379.68V382.68C1505.34 382.98 1505.29 383.21 1505.23 383.37C1505.17 383.53 1505.03 383.68 1504.81 383.82C1504.61 383.96 1504.33 384.03 1503.97 384.03C1503.43 384.03 1503.16 383.7 1503.16 383.04C1503.16 381.18 1503.08 378.3 1502.92 374.4C1502.76 370.48 1502.68 366.97 1502.68 363.87C1502.68 363.49 1502.83 363.19 1503.13 362.97C1503.45 362.75 1503.78 362.64 1504.12 362.64C1504.58 362.64 1504.86 362.93 1504.96 363.51V368.82C1504.96 369.46 1504.97 369.94 1504.99 370.26C1505.01 370.58 1505.03 371.06 1505.05 371.7C1505.09 373.02 1505.16 374.51 1505.26 376.17C1505.84 375.73 1506.58 375.04 1507.48 374.1C1508.4 373.14 1509.09 372.32 1509.55 371.64C1510.27 370.5 1510.93 369.93 1511.53 369.93C1511.69 369.93 1511.85 369.97 1512.01 370.05C1512.43 370.29 1512.64 370.57 1512.64 370.89C1512.64 371.21 1512.5 371.63 1512.22 372.15C1511.5 373.39 1510.67 374.52 1509.73 375.54C1510.63 376.54 1511.53 377.97 1512.43 379.83C1512.97 381.03 1513.24 381.97 1513.24 382.65Z" fill="black"/>
<path d="M1208.96 813.51C1210.52 813.77 1211.95 813.9 1213.25 813.9C1214.55 813.9 1215.38 813.89 1215.74 813.87C1215.7 812.35 1215.68 810.89 1215.68 809.49C1215.68 808.09 1215.68 807.14 1215.68 806.64C1215.68 806.14 1215.7 805.83 1215.74 805.71C1215.78 805.57 1215.91 805.44 1216.13 805.32C1216.35 805.2 1216.67 805.14 1217.09 805.14C1217.69 805.14 1217.99 805.5 1217.99 806.22V816.84C1217.99 819.04 1217.94 821.46 1217.84 824.1C1217.82 824.68 1217.33 824.97 1216.37 824.97C1215.89 824.97 1215.65 824.68 1215.65 824.1L1215.77 816.15C1215.13 816.19 1214.25 816.21 1213.13 816.21C1212.03 816.21 1210.64 816.09 1208.96 815.85C1208.96 818.49 1209.08 821.25 1209.32 824.13C1209.34 824.45 1209.2 824.7 1208.9 824.88C1208.6 825.04 1208.22 825.12 1207.76 825.12C1207.32 825.12 1207.08 824.89 1207.04 824.43C1206.78 821.59 1206.65 818.79 1206.65 816.03L1206.83 806.67C1206.83 806.27 1206.98 805.98 1207.28 805.8C1207.58 805.6 1207.9 805.5 1208.24 805.5C1208.8 805.5 1209.08 805.77 1209.08 806.31L1208.96 813.51ZM1228.54 810.99C1229.42 810.99 1229.86 811.74 1229.86 813.24C1229.86 813.4 1229.86 813.57 1229.86 813.75L1229.8 815.85C1229.78 816.51 1229.77 817.16 1229.77 817.8L1230.22 824.58C1230.22 825.08 1229.71 825.33 1228.69 825.33C1228.63 825.33 1228.48 825.33 1228.24 825.33C1228.02 825.33 1227.86 825.24 1227.76 825.06C1227.68 824.88 1227.67 824.66 1227.73 824.4C1227.81 824.14 1227.79 823.85 1227.67 823.53C1226.75 824.51 1225.53 825 1224.01 825C1221.19 825 1219.78 822.82 1219.78 818.46C1219.78 816.04 1220.23 814.21 1221.13 812.97C1222.05 811.73 1223.36 811.11 1225.06 811.11C1225.86 811.11 1226.66 811.25 1227.46 811.53C1227.72 811.17 1228.08 810.99 1228.54 810.99ZM1225.42 813.72C1224.28 813.72 1223.43 814.05 1222.87 814.71C1222.31 815.37 1222.03 816.58 1222.03 818.34C1222.03 821.3 1222.83 822.78 1224.43 822.78C1224.85 822.78 1225.31 822.59 1225.81 822.21C1226.33 821.83 1226.69 821.4 1226.89 820.92C1227.27 819.84 1227.46 818.66 1227.46 817.38C1227.46 816.1 1227.3 815.17 1226.98 814.59C1226.68 814.01 1226.16 813.72 1225.42 813.72ZM1233.06 824.07L1232.73 811.89C1232.73 811.51 1232.86 811.2 1233.12 810.96C1233.38 810.72 1233.64 810.6 1233.9 810.6C1234.54 810.6 1234.91 810.87 1235.01 811.41C1235.09 811.95 1235.13 812.51 1235.13 813.09C1236.21 811.67 1237.56 810.96 1239.18 810.96C1241.66 810.96 1242.9 813.79 1242.9 819.45C1242.9 819.97 1242.9 820.76 1242.9 821.82C1242.9 822.86 1242.84 823.62 1242.72 824.1C1242.58 824.7 1242.15 825 1241.43 825C1240.95 825 1240.71 824.68 1240.71 824.04L1240.74 822.36C1240.74 820.04 1240.66 818.46 1240.5 817.62C1240.36 816.76 1240.22 816.08 1240.08 815.58C1239.74 814.5 1239.19 813.96 1238.43 813.96C1237.43 813.96 1236.73 814.32 1236.33 815.04C1235.89 815.82 1235.63 816.74 1235.55 817.8C1235.41 819.66 1235.34 821.63 1235.34 823.71C1235.34 824.11 1235.19 824.43 1234.89 824.67C1234.59 824.91 1234.23 825.03 1233.81 825.03C1233.31 825.03 1233.06 824.71 1233.06 824.07ZM1252.66 810.96L1252.63 805.17C1252.63 804.09 1252.97 803.55 1253.65 803.55C1254.35 803.55 1254.74 803.85 1254.82 804.45C1254.86 804.71 1254.91 806.28 1254.97 809.16C1255.03 812.04 1255.12 814.74 1255.24 817.26C1255.38 819.78 1255.45 822.13 1255.45 824.31C1255.45 824.91 1255 825.21 1254.1 825.21C1253.5 825.21 1253.2 824.79 1253.2 823.95C1252.34 824.63 1251.32 824.97 1250.14 824.97C1248.64 824.97 1247.42 824.41 1246.48 823.29C1245.56 822.17 1245.1 820.79 1245.1 819.15C1245.1 817.51 1245.43 815.98 1246.09 814.56C1246.77 813.12 1247.82 812.09 1249.24 811.47C1250.12 811.09 1250.97 810.9 1251.79 810.9C1252.09 810.9 1252.38 810.92 1252.66 810.96ZM1252.81 815.07C1252.67 814.63 1252.5 814.3 1252.3 814.08C1252.1 813.84 1251.88 813.7 1251.64 813.66C1251.42 813.6 1251.15 813.57 1250.83 813.57C1250.51 813.57 1250.12 813.69 1249.66 813.93C1249.2 814.17 1248.81 814.56 1248.49 815.1C1247.85 816.18 1247.53 817.32 1247.53 818.52C1247.53 819.7 1247.76 820.67 1248.22 821.43C1248.7 822.17 1249.37 822.54 1250.23 822.54C1251.11 822.54 1251.8 822.11 1252.3 821.25C1252.8 820.39 1253.05 819.29 1253.05 817.95C1253.05 816.45 1252.97 815.49 1252.81 815.07Z" fill="black"/>
<path d="M1472.39 970.02C1472.87 970.02 1473.18 970.37 1473.32 971.07C1473.42 974.33 1473.47 977.89 1473.47 981.75C1473.47 985.59 1473.45 987.81 1473.41 988.41C1473.37 989.01 1473.24 989.43 1473.02 989.67C1472.8 989.91 1472.4 990.03 1471.82 990.03C1471.3 990.03 1471.04 989.71 1471.04 989.07V982.29C1471.04 981.19 1471.02 980.06 1470.98 978.9C1470.94 977.74 1470.92 977.01 1470.92 976.71C1470.24 977.87 1469.34 978.83 1468.22 979.59C1467.1 980.33 1465.85 980.7 1464.47 980.7C1463.09 980.7 1461.93 980.13 1460.99 978.99C1460.95 980.21 1460.93 981.66 1460.93 983.34C1460.93 985 1460.94 986.75 1460.96 988.59C1460.96 989.09 1460.79 989.46 1460.45 989.7C1460.13 989.92 1459.76 990.03 1459.34 990.03C1458.8 990.03 1458.53 989.7 1458.53 989.04C1458.55 987.24 1458.56 984.39 1458.56 980.49V971.97C1458.56 971.63 1458.67 971.3 1458.89 970.98C1459.13 970.66 1459.4 970.5 1459.7 970.5C1460.02 970.5 1460.31 970.59 1460.57 970.77C1460.83 970.93 1460.97 971.18 1460.99 971.52C1461.07 973.74 1461.43 975.39 1462.07 976.47C1462.71 977.55 1463.47 978.09 1464.35 978.09C1465.23 978.09 1465.98 977.95 1466.6 977.67C1467.24 977.37 1467.76 977.03 1468.16 976.65C1468.58 976.27 1468.98 975.73 1469.36 975.03C1469.9 974.03 1470.42 972.8 1470.92 971.34C1471.22 970.46 1471.71 970.02 1472.39 970.02ZM1484.35 975.99C1485.23 975.99 1485.67 976.74 1485.67 978.24C1485.67 978.4 1485.67 978.57 1485.67 978.75L1485.61 980.85C1485.59 981.51 1485.58 982.16 1485.58 982.8L1486.03 989.58C1486.03 990.08 1485.52 990.33 1484.5 990.33C1484.44 990.33 1484.29 990.33 1484.05 990.33C1483.83 990.33 1483.67 990.24 1483.57 990.06C1483.49 989.88 1483.48 989.66 1483.54 989.4C1483.62 989.14 1483.6 988.85 1483.48 988.53C1482.56 989.51 1481.34 990 1479.82 990C1477 990 1475.59 987.82 1475.59 983.46C1475.59 981.04 1476.04 979.21 1476.94 977.97C1477.86 976.73 1479.17 976.11 1480.87 976.11C1481.67 976.11 1482.47 976.25 1483.27 976.53C1483.53 976.17 1483.89 975.99 1484.35 975.99ZM1481.23 978.72C1480.09 978.72 1479.24 979.05 1478.68 979.71C1478.12 980.37 1477.84 981.58 1477.84 983.34C1477.84 986.3 1478.64 987.78 1480.24 987.78C1480.66 987.78 1481.12 987.59 1481.62 987.21C1482.14 986.83 1482.5 986.4 1482.7 985.92C1483.08 984.84 1483.27 983.66 1483.27 982.38C1483.27 981.1 1483.11 980.17 1482.79 979.59C1482.49 979.01 1481.97 978.72 1481.23 978.72ZM1488.87 989.07L1488.54 976.89C1488.54 976.51 1488.67 976.2 1488.93 975.96C1489.19 975.72 1489.45 975.6 1489.71 975.6C1490.35 975.6 1490.72 975.87 1490.82 976.41C1490.9 976.95 1490.94 977.51 1490.94 978.09C1492.02 976.67 1493.37 975.96 1494.99 975.96C1497.47 975.96 1498.71 978.79 1498.71 984.45C1498.71 984.97 1498.71 985.76 1498.71 986.82C1498.71 987.86 1498.65 988.62 1498.53 989.1C1498.39 989.7 1497.96 990 1497.24 990C1496.76 990 1496.52 989.68 1496.52 989.04L1496.55 987.36C1496.55 985.04 1496.47 983.46 1496.31 982.62C1496.17 981.76 1496.03 981.08 1495.89 980.58C1495.55 979.5 1495 978.96 1494.24 978.96C1493.24 978.96 1492.54 979.32 1492.14 980.04C1491.7 980.82 1491.44 981.74 1491.36 982.8C1491.22 984.66 1491.15 986.63 1491.15 988.71C1491.15 989.11 1491 989.43 1490.7 989.67C1490.4 989.91 1490.04 990.03 1489.62 990.03C1489.12 990.03 1488.87 989.71 1488.87 989.07ZM1506.6 976.02C1508.04 976.02 1509.22 976.71 1510.14 978.09C1511.08 979.47 1511.55 981.13 1511.55 983.07C1511.55 984.99 1511.07 986.63 1510.11 987.99C1509.17 989.35 1507.91 990.03 1506.33 990.03C1504.77 990.03 1503.51 989.34 1502.55 987.96C1501.59 986.56 1501.11 985.01 1501.11 983.31C1501.11 981.13 1501.55 979.39 1502.43 978.09C1503.37 976.71 1504.76 976.02 1506.6 976.02ZM1506.24 978.48C1505.4 978.48 1504.71 978.92 1504.17 979.8C1503.63 980.68 1503.36 981.61 1503.36 982.59C1503.36 984.11 1503.66 985.27 1504.26 986.07C1504.86 986.87 1505.54 987.27 1506.3 987.27C1507.66 987.27 1508.53 986.68 1508.91 985.5C1509.07 984.94 1509.15 984.24 1509.15 983.4C1509.15 980.12 1508.18 978.48 1506.24 978.48Z" fill="black"/>
<ellipse cx="1487.5" cy="645.5" rx="50.5" ry="51.5" fill="#FD7E35"/>
<ellipse cx="1484.5" cy="811.5" rx="50.5" ry="51.5" fill="#FB0000"/>
<ellipse cx="1484.5" cy="976.5" rx="50.5" ry="51.5" fill="#AA00C6"/>
<path d="M450.9 696.9L444.45 696.75C444.083 695.35 443.867 689.05 443.8 677.85V674.3C443.8 671.467 444.067 669.317 444.6 667.85C445.133 666.35 446.25 665.15 447.95 664.25C448.817 663.817 450.017 663.6 451.55 663.6C453.117 663.6 454.317 663.7 455.15 663.9C457.383 664.367 458.9 665.233 459.7 666.5C460.533 667.767 460.95 669.467 460.95 671.6C460.95 674.567 460.167 676.75 458.6 678.15C459.4 678.25 460.2 678.65 461 679.35C461.8 680.05 462.45 680.767 462.95 681.5C463.817 682.833 464.25 684.65 464.25 686.95C464.25 690.55 463.15 693.117 460.95 694.65C458.783 696.15 455.433 696.9 450.9 696.9ZM447.8 672.55L447.9 678.25C447.967 678.25 448.533 678.183 449.6 678.05C450.667 677.883 451.567 677.717 452.3 677.55C455.667 676.75 457.35 674.833 457.35 671.8C457.35 670.3 456.9 669.2 456 668.5C455.133 667.8 453.983 667.45 452.55 667.45C450.75 667.45 449.533 667.767 448.9 668.4C448.633 668.667 448.417 668.9 448.25 669.1C448.083 669.267 447.967 669.55 447.9 669.95C447.833 670.35 447.783 670.633 447.75 670.8C447.75 670.967 447.75 671.283 447.75 671.75C447.783 672.217 447.8 672.483 447.8 672.55ZM459.05 683.2C458.717 682.833 458.2 682.5 457.5 682.2C456.8 681.9 455.783 681.75 454.45 681.75C453.15 681.75 450.917 681.967 447.75 682.4C447.75 687.6 447.833 691.117 448 692.95C451.9 692.95 454.633 692.7 456.2 692.2C457.767 691.667 458.817 691.033 459.35 690.3C459.917 689.533 460.2 688.733 460.2 687.9C460.2 687.033 460.183 686.433 460.15 686.1C460.15 685.733 460.05 685.25 459.85 684.65C459.683 684.017 459.417 683.533 459.05 683.2ZM477.092 673.7C479.492 673.7 481.458 674.85 482.992 677.15C484.558 679.45 485.342 682.217 485.342 685.45C485.342 688.65 484.542 691.383 482.942 693.65C481.375 695.917 479.275 697.05 476.642 697.05C474.042 697.05 471.942 695.9 470.342 693.6C468.742 691.267 467.942 688.683 467.942 685.85C467.942 682.217 468.675 679.317 470.142 677.15C471.708 674.85 474.025 673.7 477.092 673.7ZM476.492 677.8C475.092 677.8 473.942 678.533 473.042 680C472.142 681.467 471.692 683.017 471.692 684.65C471.692 687.183 472.192 689.117 473.192 690.45C474.192 691.783 475.325 692.45 476.592 692.45C478.858 692.45 480.308 691.467 480.942 689.5C481.208 688.567 481.342 687.4 481.342 686C481.342 680.533 479.725 677.8 476.492 677.8ZM502.358 673.65C503.824 673.65 504.558 674.9 504.558 677.4C504.558 677.667 504.558 677.95 504.558 678.25L504.458 681.75C504.424 682.85 504.408 683.933 504.408 685L505.158 696.3C505.158 697.133 504.308 697.55 502.608 697.55C502.508 697.55 502.258 697.55 501.858 697.55C501.491 697.55 501.224 697.4 501.058 697.1C500.924 696.8 500.908 696.433 501.008 696C501.141 695.567 501.108 695.083 500.908 694.55C499.374 696.183 497.341 697 494.808 697C490.108 697 487.758 693.367 487.758 686.1C487.758 682.067 488.508 679.017 490.008 676.95C491.541 674.883 493.724 673.85 496.558 673.85C497.891 673.85 499.224 674.083 500.558 674.55C500.991 673.95 501.591 673.65 502.358 673.65ZM497.158 678.2C495.258 678.2 493.841 678.75 492.908 679.85C491.974 680.95 491.508 682.967 491.508 685.9C491.508 690.833 492.841 693.3 495.508 693.3C496.208 693.3 496.974 692.983 497.808 692.35C498.674 691.717 499.274 691 499.608 690.2C500.241 688.4 500.558 686.433 500.558 684.3C500.558 682.167 500.291 680.617 499.758 679.65C499.258 678.683 498.391 678.2 497.158 678.2ZM514.438 689.7L514.488 694.85C514.488 695.45 514.205 696 513.638 696.5C513.105 697 512.571 697.25 512.038 697.25C511.271 697.25 510.788 696.65 510.588 695.45C510.555 695.183 510.421 692.75 510.188 688.15C509.955 683.517 509.505 679.883 508.838 677.25C508.538 675.983 508.388 675.233 508.388 675C508.388 673.9 509.055 673.35 510.388 673.35C510.955 673.35 511.405 673.567 511.738 674C512.071 674.433 512.271 674.883 512.338 675.35C512.438 675.783 512.521 676.383 512.588 677.15C512.655 677.917 512.705 678.4 512.738 678.6C513.438 676.933 514.488 675.683 515.888 674.85C517.288 674.017 518.821 673.6 520.488 673.6C523.221 673.6 524.588 674.3 524.588 675.7C524.588 676.4 524.338 676.967 523.838 677.4C523.371 677.8 522.821 678 522.188 678C519.355 678 517.355 678.9 516.188 680.7C515.021 682.5 514.438 685.5 514.438 689.7ZM539.176 673.6L539.126 663.95C539.126 662.15 539.693 661.25 540.826 661.25C541.993 661.25 542.643 661.75 542.776 662.75C542.843 663.183 542.926 665.8 543.026 670.6C543.126 675.4 543.276 679.9 543.476 684.1C543.71 688.3 543.826 692.217 543.826 695.85C543.826 696.85 543.076 697.35 541.576 697.35C540.576 697.35 540.076 696.65 540.076 695.25C538.643 696.383 536.943 696.95 534.976 696.95C532.476 696.95 530.443 696.017 528.876 694.15C527.343 692.283 526.576 689.983 526.576 687.25C526.576 684.517 527.126 681.967 528.226 679.6C529.36 677.2 531.11 675.483 533.476 674.45C534.943 673.817 536.36 673.5 537.726 673.5C538.226 673.5 538.71 673.533 539.176 673.6ZM539.426 680.45C539.193 679.717 538.91 679.167 538.576 678.8C538.243 678.4 537.876 678.167 537.476 678.1C537.11 678 536.66 677.95 536.126 677.95C535.593 677.95 534.943 678.15 534.176 678.55C533.41 678.95 532.76 679.6 532.226 680.5C531.16 682.3 530.626 684.2 530.626 686.2C530.626 688.167 531.01 689.783 531.776 691.05C532.576 692.283 533.693 692.9 535.126 692.9C536.593 692.9 537.743 692.183 538.576 690.75C539.41 689.317 539.826 687.483 539.826 685.25C539.826 682.75 539.693 681.15 539.426 680.45Z" fill="black"/>
</g>
<defs>
<clipPath id="clip0">
<rect width="1678" height="1076" fill="white"/>
</clipPath>
<clipPath id="clip1">
<rect width="1678" height="1076" fill="white" transform="translate(0 -14)"/>
</clipPath>
<clipPath id="clip2">
<rect width="1380" height="32" fill="white" transform="translate(131 24)"/>
</clipPath>
<clipPath id="clip3">
<rect width="144" height="32" fill="white" transform="translate(1519 24)"/>
</clipPath>
</defs>
</svg>
