<svg width="936" height="659" viewBox="0 0 936 659" fill="none" xmlns="http://www.w3.org/2000/svg">
<rect width="936" height="659" fill="white"/>
<rect x="354" y="244" width="229" height="60" fill="white"/>
<g clip-path="url(#clip0)">
<path d="M353 244H581" stroke="black" stroke-width="3" stroke-linecap="round" stroke-linejoin="round"/>
<path d="M352 304H582" stroke="black" stroke-width="3" stroke-linecap="round" stroke-linejoin="round"/>
<path d="M353 305V245" stroke="black" stroke-width="3" stroke-linecap="round" stroke-linejoin="round"/>
<path d="M581 301V245" stroke="black" stroke-width="3" stroke-linecap="round" stroke-linejoin="round"/>
</g>
<path d="M387.267 267.424L396.987 267.28C397.451 267.424 397.683 267.656 397.683 267.976C397.683 268.776 397.355 269.176 396.699 269.176C395.499 269.176 394.227 269.208 392.883 269.272C392.803 270.648 392.763 271.688 392.763 272.392C392.763 273.08 392.763 273.52 392.763 273.712L392.859 282.136C392.859 282.632 392.731 282.92 392.475 283C392.283 283.064 392.043 283.096 391.755 283.096C391.291 283.096 391.035 282.832 390.987 282.304C390.891 281.072 390.843 278.776 390.843 275.416C390.843 272.04 390.891 270.008 390.987 269.32C390.651 269.336 390.155 269.344 389.499 269.344C388.843 269.344 388.027 269.336 387.051 269.32C386.795 269.32 386.595 269.24 386.451 269.08C386.307 268.92 386.235 268.728 386.235 268.504C386.235 268.264 386.331 268.032 386.523 267.808C386.731 267.584 386.979 267.456 387.267 267.424ZM406.006 271.912C406.214 271.912 406.414 271.984 406.606 272.128C406.814 272.272 406.918 272.432 406.918 272.608C406.918 273.072 406.238 275.584 404.878 280.144C403.518 284.704 402.51 287.904 401.854 289.744C401.71 290.176 401.486 290.392 401.182 290.392C400.878 290.392 400.638 290.28 400.462 290.056C400.286 289.848 400.198 289.536 400.198 289.12C400.198 288.704 400.462 287.704 400.99 286.12C401.534 284.552 401.862 283.552 401.974 283.12C401.574 282.448 400.222 279.088 397.918 273.04C397.886 272.96 397.87 272.856 397.87 272.728C397.87 272.6 397.966 272.432 398.158 272.224C398.35 272.016 398.614 271.912 398.95 271.912C399.286 271.912 399.558 272.08 399.766 272.416C399.99 272.992 400.358 274 400.87 275.44C401.382 276.864 401.774 277.896 402.046 278.536C402.334 279.176 402.606 279.84 402.862 280.528C403.086 279.776 403.47 278.32 404.014 276.16C404.558 273.984 404.87 272.744 404.95 272.44C405.014 272.088 405.366 271.912 406.006 271.912ZM412.29 282.976C411.746 282.976 411.242 282.792 410.778 282.424C410.778 282.424 410.674 282.336 410.466 282.16V289.36C410.37 289.68 410.202 289.944 409.962 290.152C409.722 290.376 409.466 290.488 409.194 290.488C408.778 290.488 408.57 290.208 408.57 289.648V272.92C408.666 272.504 408.778 272.208 408.906 272.032C409.05 271.856 409.266 271.768 409.554 271.768C409.858 271.768 410.05 271.84 410.13 271.984C410.226 272.112 410.338 272.48 410.466 273.088C410.53 272.768 410.786 272.472 411.234 272.2C411.682 271.928 412.282 271.792 413.034 271.792C414.666 271.792 415.826 272.384 416.514 273.568C417.202 274.752 417.546 276.152 417.546 277.768C417.546 279.368 417.074 280.64 416.13 281.584C415.202 282.512 413.922 282.976 412.29 282.976ZM410.466 275.776V280.24C410.562 280.288 410.674 280.368 410.802 280.48C411.266 280.896 411.77 281.104 412.314 281.104C414.522 281.104 415.626 279.968 415.626 277.696C415.626 275.76 415.13 274.536 414.138 274.024C413.722 273.8 413.21 273.688 412.602 273.688C412.01 273.768 411.506 274.032 411.09 274.48C410.674 274.912 410.466 275.344 410.466 275.776ZM422.22 271.888C423.068 271.888 423.876 272.136 424.644 272.632C425.412 273.128 425.796 273.744 425.796 274.48C425.796 275.2 425.484 275.904 424.86 276.592C424.236 277.264 423.404 277.672 422.364 277.816C421.916 277.88 421.244 277.912 420.348 277.912C420.524 279.272 420.868 280.168 421.38 280.6C421.54 280.776 421.756 280.864 422.028 280.864C423.02 280.864 423.852 280.552 424.524 279.928C425.196 279.288 425.676 278.968 425.964 278.968C426.092 278.968 426.284 279.088 426.54 279.328C426.796 279.568 426.924 279.792 426.924 280C426.924 280.416 426.42 281.016 425.412 281.8C424.964 282.168 424.42 282.48 423.78 282.736C423.156 282.976 422.572 283.096 422.028 283.096C420.636 283.096 419.612 282.2 418.956 280.408C418.54 279.304 418.332 278.088 418.332 276.76C418.332 275.432 418.644 274.288 419.268 273.328C419.892 272.368 420.876 271.888 422.22 271.888ZM422.34 273.544C421.732 273.544 421.212 273.888 420.78 274.576C420.62 274.816 420.468 275.36 420.324 276.208C422.564 276.208 423.684 275.656 423.684 274.552C423.684 273.88 423.236 273.544 422.34 273.544ZM441.513 271.912C441.721 271.912 441.921 271.984 442.113 272.128C442.321 272.272 442.425 272.432 442.425 272.608C442.425 273.072 441.745 275.584 440.385 280.144C439.025 284.704 438.017 287.904 437.361 289.744C437.217 290.176 436.993 290.392 436.689 290.392C436.385 290.392 436.145 290.28 435.969 290.056C435.793 289.848 435.705 289.536 435.705 289.12C435.705 288.704 435.969 287.704 436.497 286.12C437.041 284.552 437.369 283.552 437.481 283.12C437.081 282.448 435.729 279.088 433.425 273.04C433.393 272.96 433.377 272.856 433.377 272.728C433.377 272.6 433.473 272.432 433.665 272.224C433.857 272.016 434.121 271.912 434.457 271.912C434.793 271.912 435.065 272.08 435.273 272.416C435.497 272.992 435.865 274 436.377 275.44C436.889 276.864 437.281 277.896 437.553 278.536C437.841 279.176 438.113 279.84 438.369 280.528C438.593 279.776 438.977 278.32 439.521 276.16C440.065 273.984 440.377 272.744 440.457 272.44C440.521 272.088 440.873 271.912 441.513 271.912ZM448.254 271.816C449.406 271.816 450.35 272.368 451.086 273.472C451.838 274.576 452.214 275.904 452.214 277.456C452.214 278.992 451.83 280.304 451.062 281.392C450.31 282.48 449.302 283.024 448.038 283.024C446.79 283.024 445.782 282.472 445.014 281.368C444.246 280.248 443.862 279.008 443.862 277.648C443.862 275.904 444.214 274.512 444.918 273.472C445.67 272.368 446.782 271.816 448.254 271.816ZM447.966 273.784C447.294 273.784 446.742 274.136 446.31 274.84C445.878 275.544 445.662 276.288 445.662 277.072C445.662 278.288 445.902 279.216 446.382 279.856C446.862 280.496 447.406 280.816 448.014 280.816C449.102 280.816 449.798 280.344 450.102 279.4C450.23 278.952 450.294 278.392 450.294 277.72C450.294 275.096 449.518 273.784 447.966 273.784ZM453.637 272.728C453.701 272.456 453.837 272.232 454.045 272.056C454.253 271.864 454.461 271.768 454.669 271.768C454.893 271.768 455.061 271.808 455.173 271.888C455.301 271.968 455.373 272.04 455.389 272.104C455.421 272.168 455.453 272.28 455.485 272.44C455.389 273.688 455.341 274.816 455.341 275.824C455.341 276.816 455.461 277.96 455.701 279.256C455.941 280.536 456.205 281.176 456.493 281.176C456.925 281.176 457.469 280.936 458.125 280.456C458.797 279.976 459.277 279.472 459.565 278.944C459.373 276.64 459.277 274.664 459.277 273.016C459.277 272.68 459.381 272.392 459.589 272.152C459.813 271.912 460.077 271.792 460.381 271.792C460.877 271.792 461.125 272.128 461.125 272.8C461.125 273.936 461.205 275.624 461.365 277.864C461.541 280.104 461.717 281.528 461.893 282.136C461.925 282.264 461.941 282.416 461.941 282.592C461.941 282.752 461.829 282.904 461.605 283.048C461.397 283.208 461.117 283.288 460.765 283.288C460.429 283.288 460.205 283.096 460.093 282.712C460.061 282.392 459.981 281.912 459.853 281.272C458.733 282.44 457.605 283.024 456.469 283.024C455.941 283.024 455.469 282.824 455.053 282.424C454.637 282.024 454.309 281.48 454.069 280.792C453.653 279.464 453.445 278.216 453.445 277.048C453.445 275.88 453.509 274.44 453.637 272.728ZM466.391 279.496L466.415 281.968C466.415 282.256 466.279 282.52 466.007 282.76C465.751 283 465.495 283.12 465.239 283.12C464.871 283.12 464.639 282.832 464.543 282.256C464.527 282.128 464.463 280.96 464.351 278.752C464.239 276.528 464.023 274.784 463.703 273.52C463.559 272.912 463.487 272.552 463.487 272.44C463.487 271.912 463.807 271.648 464.447 271.648C464.719 271.648 464.935 271.752 465.095 271.96C465.255 272.168 465.351 272.384 465.383 272.608C465.431 272.816 465.471 273.104 465.503 273.472C465.535 273.84 465.559 274.072 465.575 274.168C465.911 273.368 466.415 272.768 467.087 272.368C467.759 271.968 468.495 271.768 469.295 271.768C470.607 271.768 471.263 272.104 471.263 272.776C471.263 273.112 471.143 273.384 470.903 273.592C470.679 273.784 470.415 273.88 470.111 273.88C468.751 273.88 467.791 274.312 467.231 275.176C466.671 276.04 466.391 277.48 466.391 279.496ZM486.628 281.92C486.628 282.672 486.284 283.048 485.596 283.048C485.308 283.048 484.916 282.344 484.42 280.936C483.924 279.512 483.26 278.416 482.428 277.648C482.348 277.76 482.004 278.08 481.396 278.608C480.804 279.12 480.452 279.432 480.34 279.544V281.944C480.308 282.184 480.268 282.368 480.22 282.496C480.172 282.624 480.06 282.744 479.884 282.856C479.724 282.968 479.5 283.024 479.212 283.024C478.78 283.024 478.564 282.76 478.564 282.232C478.564 280.744 478.5 278.44 478.372 275.32C478.244 272.184 478.18 269.376 478.18 266.896C478.18 266.592 478.3 266.352 478.54 266.176C478.796 266 479.06 265.912 479.332 265.912C479.7 265.912 479.924 266.144 480.004 266.608V270.856C480.004 271.368 480.012 271.752 480.028 272.008C480.044 272.264 480.06 272.648 480.076 273.16C480.108 274.216 480.164 275.408 480.244 276.736C480.708 276.384 481.3 275.832 482.02 275.08C482.756 274.312 483.308 273.656 483.676 273.112C484.252 272.2 484.78 271.744 485.26 271.744C485.388 271.744 485.516 271.776 485.644 271.84C485.98 272.032 486.148 272.256 486.148 272.512C486.148 272.768 486.036 273.104 485.812 273.52C485.236 274.512 484.572 275.416 483.82 276.232C484.54 277.032 485.26 278.176 485.98 279.664C486.412 280.624 486.628 281.376 486.628 281.92ZM491.477 271.888C492.325 271.888 493.133 272.136 493.901 272.632C494.669 273.128 495.053 273.744 495.053 274.48C495.053 275.2 494.741 275.904 494.117 276.592C493.493 277.264 492.661 277.672 491.621 277.816C491.173 277.88 490.501 277.912 489.605 277.912C489.781 279.272 490.125 280.168 490.637 280.6C490.797 280.776 491.013 280.864 491.285 280.864C492.277 280.864 493.109 280.552 493.781 279.928C494.453 279.288 494.933 278.968 495.221 278.968C495.349 278.968 495.541 279.088 495.797 279.328C496.053 279.568 496.181 279.792 496.181 280C496.181 280.416 495.677 281.016 494.669 281.8C494.221 282.168 493.677 282.48 493.037 282.736C492.413 282.976 491.829 283.096 491.285 283.096C489.893 283.096 488.869 282.2 488.213 280.408C487.797 279.304 487.589 278.088 487.589 276.76C487.589 275.432 487.901 274.288 488.525 273.328C489.149 272.368 490.133 271.888 491.477 271.888ZM491.597 273.544C490.989 273.544 490.469 273.888 490.037 274.576C489.877 274.816 489.725 275.36 489.581 276.208C491.821 276.208 492.941 275.656 492.941 274.552C492.941 273.88 492.493 273.544 491.597 273.544ZM505.24 271.912C505.448 271.912 505.648 271.984 505.84 272.128C506.048 272.272 506.152 272.432 506.152 272.608C506.152 273.072 505.472 275.584 504.112 280.144C502.752 284.704 501.744 287.904 501.088 289.744C500.944 290.176 500.72 290.392 500.416 290.392C500.112 290.392 499.872 290.28 499.696 290.056C499.52 289.848 499.432 289.536 499.432 289.12C499.432 288.704 499.696 287.704 500.224 286.12C500.768 284.552 501.096 283.552 501.208 283.12C500.808 282.448 499.456 279.088 497.152 273.04C497.12 272.96 497.104 272.856 497.104 272.728C497.104 272.6 497.2 272.432 497.392 272.224C497.584 272.016 497.848 271.912 498.184 271.912C498.52 271.912 498.792 272.08 499 272.416C499.224 272.992 499.592 274 500.104 275.44C500.616 276.864 501.008 277.896 501.28 278.536C501.568 279.176 501.84 279.84 502.096 280.528C502.32 279.776 502.704 278.32 503.248 276.16C503.792 273.984 504.104 272.744 504.184 272.44C504.248 272.088 504.6 271.912 505.24 271.912ZM515.832 275.224L516.024 280.888C516.024 281.592 515.992 282 515.928 282.112C515.896 282.4 515.8 282.624 515.64 282.784C515.496 282.944 515.208 283.024 514.776 283.024C514.568 283.024 514.4 282.896 514.272 282.64C514.144 282.368 514.072 282.064 514.056 281.728C513.944 278.912 513.792 276.272 513.6 273.808C513.424 271.328 513.336 269.024 513.336 266.896C513.336 266.56 513.448 266.296 513.672 266.104C513.896 265.912 514.16 265.816 514.464 265.816C514.912 265.816 515.176 266.2 515.256 266.968C515.352 267.736 515.408 268.696 515.424 269.848C515.456 271 515.488 271.84 515.52 272.368C516.32 271.952 517.12 271.744 517.92 271.744C519.776 271.744 520.952 272.56 521.448 274.192C521.736 275.12 521.88 276.312 521.88 277.768C521.88 278.248 521.832 279.008 521.736 280.048C521.656 281.072 521.608 281.736 521.592 282.04C521.576 282.344 521.44 282.584 521.184 282.76C520.944 282.92 520.68 283 520.392 283C519.944 283 519.72 282.76 519.72 282.28L519.888 278.104C519.888 277.752 519.872 277.168 519.84 276.352C519.808 275.536 519.64 274.888 519.336 274.408C519.048 273.928 518.536 273.688 517.8 273.688C516.488 273.688 515.832 274.2 515.832 275.224ZM526.798 271.888C527.646 271.888 528.454 272.136 529.222 272.632C529.99 273.128 530.374 273.744 530.374 274.48C530.374 275.2 530.062 275.904 529.438 276.592C528.814 277.264 527.982 277.672 526.942 277.816C526.494 277.88 525.822 277.912 524.926 277.912C525.102 279.272 525.446 280.168 525.958 280.6C526.118 280.776 526.334 280.864 526.606 280.864C527.598 280.864 528.43 280.552 529.102 279.928C529.774 279.288 530.254 278.968 530.542 278.968C530.67 278.968 530.862 279.088 531.118 279.328C531.374 279.568 531.502 279.792 531.502 280C531.502 280.416 530.998 281.016 529.99 281.8C529.542 282.168 528.998 282.48 528.358 282.736C527.734 282.976 527.15 283.096 526.606 283.096C525.214 283.096 524.19 282.2 523.534 280.408C523.118 279.304 522.91 278.088 522.91 276.76C522.91 275.432 523.222 274.288 523.846 273.328C524.47 272.368 525.454 271.888 526.798 271.888ZM526.918 273.544C526.31 273.544 525.79 273.888 525.358 274.576C525.198 274.816 525.046 275.36 524.902 276.208C527.142 276.208 528.262 275.656 528.262 274.552C528.262 273.88 527.814 273.544 526.918 273.544ZM536 279.496L536.024 281.968C536.024 282.256 535.888 282.52 535.616 282.76C535.36 283 535.104 283.12 534.848 283.12C534.48 283.12 534.248 282.832 534.152 282.256C534.136 282.128 534.072 280.96 533.96 278.752C533.848 276.528 533.632 274.784 533.312 273.52C533.168 272.912 533.096 272.552 533.096 272.44C533.096 271.912 533.416 271.648 534.056 271.648C534.328 271.648 534.544 271.752 534.704 271.96C534.864 272.168 534.96 272.384 534.992 272.608C535.04 272.816 535.08 273.104 535.112 273.472C535.144 273.84 535.168 274.072 535.184 274.168C535.52 273.368 536.024 272.768 536.696 272.368C537.368 271.968 538.104 271.768 538.904 271.768C540.216 271.768 540.872 272.104 540.872 272.776C540.872 273.112 540.752 273.384 540.512 273.592C540.288 273.784 540.024 273.88 539.72 273.88C538.36 273.88 537.4 274.312 536.84 275.176C536.28 276.04 536 277.48 536 279.496ZM545.595 271.888C546.443 271.888 547.251 272.136 548.019 272.632C548.787 273.128 549.171 273.744 549.171 274.48C549.171 275.2 548.859 275.904 548.235 276.592C547.611 277.264 546.779 277.672 545.739 277.816C545.291 277.88 544.619 277.912 543.723 277.912C543.899 279.272 544.243 280.168 544.755 280.6C544.915 280.776 545.131 280.864 545.403 280.864C546.395 280.864 547.227 280.552 547.899 279.928C548.571 279.288 549.051 278.968 549.339 278.968C549.467 278.968 549.659 279.088 549.915 279.328C550.171 279.568 550.299 279.792 550.299 280C550.299 280.416 549.795 281.016 548.787 281.8C548.339 282.168 547.795 282.48 547.155 282.736C546.531 282.976 545.947 283.096 545.403 283.096C544.011 283.096 542.987 282.2 542.331 280.408C541.915 279.304 541.707 278.088 541.707 276.76C541.707 275.432 542.019 274.288 542.643 273.328C543.267 272.368 544.251 271.888 545.595 271.888ZM545.715 273.544C545.107 273.544 544.587 273.888 544.155 274.576C543.995 274.816 543.843 275.36 543.699 276.208C545.939 276.208 547.059 275.656 547.059 274.552C547.059 273.88 546.611 273.544 545.715 273.544Z" fill="black"/>
<rect x="356" y="453" width="227" height="60" fill="white"/>
<g clip-path="url(#clip1)">
<path d="M356 453H582" stroke="black" stroke-width="3" stroke-linecap="round" stroke-linejoin="round"/>
<path d="M355 513H583" stroke="black" stroke-width="3" stroke-linecap="round" stroke-linejoin="round"/>
<path d="M356 514V454" stroke="black" stroke-width="3" stroke-linecap="round" stroke-linejoin="round"/>
<path d="M582 510V454" stroke="black" stroke-width="3" stroke-linecap="round" stroke-linejoin="round"/>
</g>
<path d="M421.834 476.76C421.834 476.584 421.962 476.408 422.218 476.232C422.474 476.056 422.722 475.968 422.962 475.968C423.218 475.968 423.41 476.024 423.538 476.136C423.682 476.248 423.762 476.384 423.778 476.544C424.114 480.864 424.282 483.6 424.282 484.752C424.282 485.888 424.266 486.744 424.234 487.32C424.202 487.896 424.122 488.52 423.994 489.192C423.866 489.848 423.682 490.368 423.442 490.752C422.914 491.648 422.066 492.096 420.898 492.096C419.73 492.096 418.778 491.712 418.042 490.944C417.306 490.16 416.938 489.04 416.938 487.584C416.938 487.344 417.058 487.128 417.298 486.936C417.554 486.728 417.826 486.624 418.114 486.624C418.466 486.624 418.682 486.952 418.762 487.608C418.97 489.464 419.666 490.392 420.85 490.392C421.154 490.392 421.41 490.296 421.618 490.104C421.842 489.896 422.01 489.656 422.122 489.384C422.234 489.096 422.322 488.72 422.386 488.256C422.482 487.584 422.53 486.784 422.53 485.856C422.53 484.912 422.41 483.2 422.17 480.72C421.946 478.24 421.834 476.92 421.834 476.76ZM430.14 480.816C431.292 480.816 432.236 481.368 432.972 482.472C433.724 483.576 434.1 484.904 434.1 486.456C434.1 487.992 433.716 489.304 432.948 490.392C432.196 491.48 431.188 492.024 429.924 492.024C428.676 492.024 427.668 491.472 426.9 490.368C426.132 489.248 425.748 488.008 425.748 486.648C425.748 484.904 426.1 483.512 426.804 482.472C427.556 481.368 428.668 480.816 430.14 480.816ZM429.852 482.784C429.18 482.784 428.628 483.136 428.196 483.84C427.764 484.544 427.548 485.288 427.548 486.072C427.548 487.288 427.788 488.216 428.268 488.856C428.748 489.496 429.292 489.816 429.9 489.816C430.988 489.816 431.684 489.344 431.988 488.4C432.116 487.952 432.18 487.392 432.18 486.72C432.18 484.096 431.404 482.784 429.852 482.784ZM437.156 476.832C437.444 476.832 437.716 476.968 437.972 477.24C438.228 477.512 438.356 477.8 438.356 478.104C438.356 478.392 438.212 478.688 437.924 478.992C437.652 479.296 437.364 479.448 437.06 479.448C436.756 479.448 436.476 479.32 436.22 479.064C435.98 478.808 435.86 478.48 435.86 478.08C435.86 477.312 436.276 476.896 437.108 476.832C437.124 476.832 437.14 476.832 437.156 476.832ZM438.164 489.408L438.188 491.088C438.188 491.392 438.068 491.648 437.828 491.856C437.588 492.048 437.332 492.144 437.06 492.144C436.66 492.144 436.452 491.944 436.436 491.544C436.228 486.44 436.124 483.616 436.124 483.072C436.124 482.528 436.148 481.864 436.196 481.08C436.228 480.792 436.412 480.648 436.748 480.648C437.596 480.648 438.076 480.992 438.188 481.68C438.236 482.032 438.26 482.312 438.26 482.52L438.164 484.032V489.408ZM441.851 491.256L441.587 481.512C441.587 481.208 441.691 480.96 441.899 480.768C442.107 480.576 442.315 480.48 442.523 480.48C443.035 480.48 443.331 480.696 443.411 481.128C443.475 481.56 443.507 482.008 443.507 482.472C444.371 481.336 445.451 480.768 446.747 480.768C448.731 480.768 449.723 483.032 449.723 487.56C449.723 487.976 449.723 488.608 449.723 489.456C449.723 490.288 449.675 490.896 449.579 491.28C449.467 491.76 449.123 492 448.547 492C448.163 492 447.971 491.744 447.971 491.232L447.995 489.888C447.995 488.032 447.931 486.768 447.803 486.096C447.691 485.408 447.579 484.864 447.467 484.464C447.195 483.6 446.755 483.168 446.147 483.168C445.347 483.168 444.787 483.456 444.467 484.032C444.115 484.656 443.907 485.392 443.843 486.24C443.731 487.728 443.675 489.304 443.675 490.968C443.675 491.288 443.555 491.544 443.315 491.736C443.075 491.928 442.787 492.024 442.451 492.024C442.051 492.024 441.851 491.768 441.851 491.256ZM459.266 490.968C459.266 491.256 459.138 491.52 458.882 491.76C458.626 491.984 458.346 492.096 458.042 492.096C457.754 492.096 457.554 491.904 457.442 491.52C457.394 489.408 457.37 487.304 457.37 485.208L457.298 479.16C457.298 477.944 457.834 477.112 458.906 476.664C459.77 476.264 460.794 476.064 461.978 476.064C462.586 476.064 463.234 476.216 463.922 476.52C464.626 476.808 465.25 477.24 465.794 477.816C466.354 478.376 466.634 478.992 466.634 479.664C466.634 480.32 466.33 481.032 465.722 481.8C465.114 482.552 464.362 483.224 463.466 483.816C462.57 484.392 461.698 484.824 460.85 485.112C462.338 486.152 463.634 487.272 464.738 488.472C465.842 489.656 466.394 490.576 466.394 491.232C466.394 491.44 466.29 491.64 466.082 491.832C465.874 492.008 465.618 492.096 465.314 492.096C465.026 492.096 464.778 491.968 464.57 491.712C464.218 490.864 463.546 489.976 462.554 489.048C461.578 488.104 460.434 487.208 459.122 486.36L459.266 490.968ZM459.17 483.768C460.242 483.72 461.442 483.272 462.77 482.424C464.114 481.576 464.786 480.816 464.786 480.144C464.786 479.456 464.45 478.928 463.778 478.56C463.106 478.192 462.306 478.008 461.378 478.008C460.466 478.008 459.738 478.12 459.194 478.344C459.178 479.16 459.17 480.968 459.17 483.768ZM474.917 480.792C475.621 480.792 475.973 481.392 475.973 482.592C475.973 482.72 475.973 482.856 475.973 483L475.925 484.68C475.909 485.208 475.901 485.728 475.901 486.24L476.261 491.664C476.261 492.064 475.853 492.264 475.037 492.264C474.989 492.264 474.869 492.264 474.677 492.264C474.501 492.264 474.373 492.192 474.293 492.048C474.229 491.904 474.221 491.728 474.269 491.52C474.333 491.312 474.317 491.08 474.221 490.824C473.485 491.608 472.509 492 471.293 492C469.037 492 467.909 490.256 467.909 486.768C467.909 484.832 468.269 483.368 468.989 482.376C469.725 481.384 470.773 480.888 472.133 480.888C472.773 480.888 473.413 481 474.053 481.224C474.261 480.936 474.549 480.792 474.917 480.792ZM472.421 482.976C471.509 482.976 470.829 483.24 470.381 483.768C469.933 484.296 469.709 485.264 469.709 486.672C469.709 489.04 470.349 490.224 471.629 490.224C471.965 490.224 472.333 490.072 472.733 489.768C473.149 489.464 473.437 489.12 473.597 488.736C473.901 487.872 474.053 486.928 474.053 485.904C474.053 484.88 473.925 484.136 473.669 483.672C473.429 483.208 473.013 482.976 472.421 482.976ZM478.531 491.256L478.267 481.512C478.267 481.208 478.371 480.96 478.579 480.768C478.787 480.576 478.995 480.48 479.203 480.48C479.715 480.48 480.011 480.696 480.091 481.128C480.155 481.56 480.187 482.008 480.187 482.472C481.051 481.336 482.131 480.768 483.427 480.768C485.411 480.768 486.403 483.032 486.403 487.56C486.403 487.976 486.403 488.608 486.403 489.456C486.403 490.288 486.355 490.896 486.259 491.28C486.147 491.76 485.803 492 485.227 492C484.843 492 484.651 491.744 484.651 491.232L484.675 489.888C484.675 488.032 484.611 486.768 484.483 486.096C484.371 485.408 484.259 484.864 484.147 484.464C483.875 483.6 483.435 483.168 482.827 483.168C482.027 483.168 481.467 483.456 481.147 484.032C480.795 484.656 480.587 485.392 480.523 486.24C480.411 487.728 480.355 489.304 480.355 490.968C480.355 491.288 480.235 491.544 479.995 491.736C479.755 491.928 479.467 492.024 479.131 492.024C478.731 492.024 478.531 491.768 478.531 491.256ZM494.207 480.768L494.183 476.136C494.183 475.272 494.455 474.84 494.999 474.84C495.559 474.84 495.871 475.08 495.935 475.56C495.967 475.768 496.007 477.024 496.055 479.328C496.103 481.632 496.175 483.792 496.271 485.808C496.383 487.824 496.439 489.704 496.439 491.448C496.439 491.928 496.079 492.168 495.359 492.168C494.879 492.168 494.639 491.832 494.639 491.16C493.951 491.704 493.135 491.976 492.191 491.976C490.991 491.976 490.015 491.528 489.263 490.632C488.527 489.736 488.159 488.632 488.159 487.32C488.159 486.008 488.423 484.784 488.951 483.648C489.495 482.496 490.335 481.672 491.471 481.176C492.175 480.872 492.855 480.72 493.511 480.72C493.751 480.72 493.983 480.736 494.207 480.768ZM494.327 484.056C494.215 483.704 494.079 483.44 493.919 483.264C493.759 483.072 493.583 482.96 493.391 482.928C493.215 482.88 492.999 482.856 492.743 482.856C492.487 482.856 492.175 482.952 491.807 483.144C491.439 483.336 491.127 483.648 490.871 484.08C490.359 484.944 490.103 485.856 490.103 486.816C490.103 487.76 490.287 488.536 490.655 489.144C491.039 489.736 491.575 490.032 492.263 490.032C492.967 490.032 493.519 489.688 493.919 489C494.319 488.312 494.519 487.432 494.519 486.36C494.519 485.16 494.455 484.392 494.327 484.056ZM502.07 480.816C503.222 480.816 504.166 481.368 504.902 482.472C505.654 483.576 506.03 484.904 506.03 486.456C506.03 487.992 505.646 489.304 504.878 490.392C504.126 491.48 503.118 492.024 501.854 492.024C500.606 492.024 499.598 491.472 498.83 490.368C498.062 489.248 497.678 488.008 497.678 486.648C497.678 484.904 498.03 483.512 498.734 482.472C499.486 481.368 500.598 480.816 502.07 480.816ZM501.782 482.784C501.11 482.784 500.558 483.136 500.126 483.84C499.694 484.544 499.478 485.288 499.478 486.072C499.478 487.288 499.718 488.216 500.198 488.856C500.678 489.496 501.222 489.816 501.83 489.816C502.918 489.816 503.614 489.344 503.918 488.4C504.046 487.952 504.11 487.392 504.11 486.72C504.11 484.096 503.334 482.784 501.782 482.784ZM508.87 492.024C508.454 492.024 508.206 491.792 508.126 491.328C508.126 488.096 507.934 485.216 507.55 482.688C507.55 482.368 507.662 482.08 507.886 481.824C508.126 481.568 508.39 481.44 508.678 481.44C508.982 481.44 509.206 481.608 509.35 481.944C509.942 481.16 510.734 480.768 511.726 480.768C512.99 480.768 513.966 481.376 514.654 482.592C515.454 481.44 516.51 480.864 517.822 480.864C519.15 480.864 520.142 481.392 520.798 482.448C521.23 483.104 521.534 483.968 521.71 485.04C521.886 486.112 521.974 487.632 521.974 489.6C521.974 490.368 521.894 490.968 521.734 491.4C521.574 491.816 521.238 492.024 520.726 492.024C520.31 492.024 520.102 491.76 520.102 491.232L520.174 488.232C520.174 484.632 519.238 482.832 517.366 482.832C516.774 482.832 516.358 483.04 516.118 483.456C515.846 483.952 515.686 484.472 515.638 485.016C515.574 485.976 515.542 486.848 515.542 487.632V491.112C515.542 491.368 515.414 491.584 515.158 491.76C514.902 491.936 514.638 492.024 514.366 492.024C514.014 492.024 513.79 491.792 513.694 491.328L513.766 486.36C513.766 484.6 513.47 483.504 512.878 483.072C512.59 482.864 512.15 482.76 511.558 482.76C510.982 482.76 510.55 482.976 510.262 483.408C509.99 483.84 509.854 484.536 509.854 485.496L509.998 489.96C509.998 491.336 509.622 492.024 508.87 492.024Z" fill="black"/>
<path d="M262.2 174.848C261.84 174.584 261.66 174.296 261.66 173.984C261.66 173.648 261.792 173.372 262.056 173.156C261.6 169.724 261.372 165.788 261.372 161.348C261.372 160.004 261.432 157.388 261.552 153.5C261.672 153.14 261.912 152.828 262.272 152.564C262.656 152.3 263.016 152.168 263.352 152.168C263.688 152.168 263.892 152.18 263.964 152.204C267.396 153.164 270.384 155.024 272.928 157.784C275.472 160.52 276.804 163.808 276.924 167.648C276.924 171.872 275.172 174.524 271.668 175.604C270.66 175.916 269.592 176.072 268.464 176.072C267.36 176.072 266.388 175.988 265.548 175.82C265.644 176.012 265.692 176.264 265.692 176.576C265.692 176.912 265.488 177.224 265.08 177.512C264.696 177.824 264.228 177.98 263.676 177.98C263.148 177.98 262.812 177.656 262.668 177.008L262.2 174.848ZM264.36 161.06C264.36 165.26 264.6 169.244 265.08 173.012C265.656 173.18 266.628 173.264 267.996 173.264C269.364 173.264 270.672 173.036 271.92 172.58C273.192 172.124 273.864 171.452 273.936 170.564C274.008 169.892 274.044 169.376 274.044 169.016C274.044 165.896 273.204 163.136 271.524 160.736C269.868 158.336 267.54 156.512 264.54 155.264C264.42 158.096 264.36 160.028 264.36 161.06ZM284.902 159.224C286.63 159.224 288.046 160.052 289.15 161.708C290.278 163.364 290.842 165.356 290.842 167.684C290.842 169.988 290.266 171.956 289.114 173.588C287.986 175.22 286.474 176.036 284.578 176.036C282.706 176.036 281.194 175.208 280.042 173.552C278.89 171.872 278.314 170.012 278.314 167.972C278.314 165.356 278.842 163.268 279.898 161.708C281.026 160.052 282.694 159.224 284.902 159.224ZM284.47 162.176C283.462 162.176 282.634 162.704 281.986 163.76C281.338 164.816 281.014 165.932 281.014 167.108C281.014 168.932 281.374 170.324 282.094 171.284C282.814 172.244 283.63 172.724 284.542 172.724C286.174 172.724 287.218 172.016 287.674 170.6C287.866 169.928 287.962 169.088 287.962 168.08C287.962 164.144 286.798 162.176 284.47 162.176ZM312.831 159.368C313.143 159.368 313.443 159.476 313.731 159.692C314.043 159.908 314.199 160.148 314.199 160.412C314.199 161.108 313.179 164.876 311.139 171.716C309.099 178.556 307.587 183.356 306.603 186.116C306.387 186.764 306.051 187.088 305.595 187.088C305.139 187.088 304.779 186.92 304.515 186.584C304.251 186.272 304.119 185.804 304.119 185.18C304.119 184.556 304.515 183.056 305.307 180.68C306.123 178.328 306.615 176.828 306.783 176.18C306.183 175.172 304.155 170.132 300.699 161.06C300.651 160.94 300.627 160.784 300.627 160.592C300.627 160.4 300.771 160.148 301.059 159.836C301.347 159.524 301.743 159.368 302.247 159.368C302.751 159.368 303.159 159.62 303.471 160.124C303.807 160.988 304.359 162.5 305.127 164.66C305.895 166.796 306.483 168.344 306.891 169.304C307.323 170.264 307.731 171.26 308.115 172.292C308.451 171.164 309.027 168.98 309.843 165.74C310.659 162.476 311.127 160.616 311.247 160.16C311.343 159.632 311.871 159.368 312.831 159.368ZM322.941 159.224C324.669 159.224 326.085 160.052 327.189 161.708C328.317 163.364 328.881 165.356 328.881 167.684C328.881 169.988 328.305 171.956 327.153 173.588C326.025 175.22 324.513 176.036 322.617 176.036C320.745 176.036 319.233 175.208 318.081 173.552C316.929 171.872 316.353 170.012 316.353 167.972C316.353 165.356 316.881 163.268 317.937 161.708C319.065 160.052 320.733 159.224 322.941 159.224ZM322.509 162.176C321.501 162.176 320.673 162.704 320.025 163.76C319.377 164.816 319.053 165.932 319.053 167.108C319.053 168.932 319.413 170.324 320.133 171.284C320.853 172.244 321.669 172.724 322.581 172.724C324.213 172.724 325.257 172.016 325.713 170.6C325.905 169.928 326.001 169.088 326.001 168.08C326.001 164.144 324.837 162.176 322.509 162.176ZM331.017 160.592C331.113 160.184 331.317 159.848 331.629 159.584C331.941 159.296 332.253 159.152 332.565 159.152C332.901 159.152 333.153 159.212 333.321 159.332C333.513 159.452 333.621 159.56 333.645 159.656C333.693 159.752 333.741 159.92 333.789 160.16C333.645 162.032 333.573 163.724 333.573 165.236C333.573 166.724 333.753 168.44 334.113 170.384C334.473 172.304 334.869 173.264 335.301 173.264C335.949 173.264 336.765 172.904 337.749 172.184C338.757 171.464 339.477 170.708 339.909 169.916C339.621 166.46 339.477 163.496 339.477 161.024C339.477 160.52 339.633 160.088 339.945 159.728C340.281 159.368 340.677 159.188 341.133 159.188C341.877 159.188 342.249 159.692 342.249 160.7C342.249 162.404 342.369 164.936 342.609 168.296C342.873 171.656 343.137 173.792 343.401 174.704C343.449 174.896 343.473 175.124 343.473 175.388C343.473 175.628 343.305 175.856 342.969 176.072C342.657 176.312 342.237 176.432 341.709 176.432C341.205 176.432 340.869 176.144 340.701 175.568C340.653 175.088 340.533 174.368 340.341 173.408C338.661 175.16 336.969 176.036 335.265 176.036C334.473 176.036 333.765 175.736 333.141 175.136C332.517 174.536 332.025 173.72 331.665 172.688C331.041 170.696 330.729 168.824 330.729 167.072C330.729 165.32 330.825 163.16 331.017 160.592ZM357.652 164.336L357.94 172.832C357.94 173.888 357.892 174.5 357.796 174.668C357.748 175.1 357.604 175.436 357.364 175.676C357.148 175.916 356.716 176.036 356.068 176.036C355.756 176.036 355.504 175.844 355.312 175.46C355.12 175.052 355.012 174.596 354.988 174.092C354.82 169.868 354.592 165.908 354.304 162.212C354.04 158.492 353.908 155.036 353.908 151.844C353.908 151.34 354.076 150.944 354.412 150.656C354.748 150.368 355.144 150.224 355.6 150.224C356.272 150.224 356.668 150.8 356.788 151.952C356.932 153.104 357.016 154.544 357.04 156.272C357.088 158 357.136 159.26 357.184 160.052C358.384 159.428 359.584 159.116 360.784 159.116C363.568 159.116 365.332 160.34 366.076 162.788C366.508 164.18 366.724 165.968 366.724 168.152C366.724 168.872 366.652 170.012 366.508 171.572C366.388 173.108 366.316 174.104 366.292 174.56C366.268 175.016 366.064 175.376 365.68 175.64C365.32 175.88 364.924 176 364.492 176C363.82 176 363.484 175.64 363.484 174.92L363.736 168.656C363.736 168.128 363.712 167.252 363.664 166.028C363.616 164.804 363.364 163.832 362.908 163.112C362.476 162.392 361.708 162.032 360.604 162.032C358.636 162.032 357.652 162.8 357.652 164.336ZM378.961 159.188C380.017 159.188 380.545 160.088 380.545 161.888C380.545 162.08 380.545 162.284 380.545 162.5L380.473 165.02C380.449 165.812 380.437 166.592 380.437 167.36L380.977 175.496C380.977 176.096 380.365 176.396 379.141 176.396C379.069 176.396 378.889 176.396 378.601 176.396C378.337 176.396 378.145 176.288 378.025 176.072C377.929 175.856 377.917 175.592 377.989 175.28C378.085 174.968 378.061 174.62 377.917 174.236C376.813 175.412 375.349 176 373.525 176C370.141 176 368.449 173.384 368.449 168.152C368.449 165.248 368.989 163.052 370.069 161.564C371.173 160.076 372.745 159.332 374.785 159.332C375.745 159.332 376.705 159.5 377.665 159.836C377.977 159.404 378.409 159.188 378.961 159.188ZM375.217 162.464C373.849 162.464 372.829 162.86 372.157 163.652C371.485 164.444 371.149 165.896 371.149 168.008C371.149 171.56 372.109 173.336 374.029 173.336C374.533 173.336 375.085 173.108 375.685 172.652C376.309 172.196 376.741 171.68 376.981 171.104C377.437 169.808 377.665 168.392 377.665 166.856C377.665 165.32 377.473 164.204 377.089 163.508C376.729 162.812 376.105 162.464 375.217 162.464ZM394.642 159.008C394.978 159.008 395.23 159.128 395.398 159.368C395.566 159.584 395.65 159.824 395.65 160.088L395.614 160.448C394.606 163.016 393.862 165.104 393.382 166.712C393.07 167.84 392.83 168.68 392.662 169.232C392.518 169.784 392.266 170.756 391.906 172.148C391.546 173.54 391.306 174.44 391.186 174.848C390.85 175.664 390.262 176.072 389.422 176.072C389.014 176.072 388.726 175.808 388.558 175.28C387.79 172.88 386.662 170.168 385.174 167.144C383.686 164.12 382.834 162.392 382.618 161.96C382.426 161.504 382.33 161.096 382.33 160.736C382.33 160.376 382.486 160.028 382.798 159.692C383.134 159.356 383.506 159.188 383.914 159.188C384.322 159.188 384.67 159.404 384.958 159.836C385.222 160.364 385.966 161.84 387.19 164.264C388.438 166.688 389.314 168.596 389.818 169.988C389.842 169.844 389.926 169.544 390.07 169.088C391.294 164.84 392.29 161.804 393.058 159.98C393.466 159.332 393.994 159.008 394.642 159.008ZM402.613 159.332C403.885 159.332 405.097 159.704 406.249 160.448C407.401 161.192 407.977 162.116 407.977 163.22C407.977 164.3 407.509 165.356 406.573 166.388C405.637 167.396 404.389 168.008 402.829 168.224C402.157 168.32 401.149 168.368 399.805 168.368C400.069 170.408 400.585 171.752 401.353 172.4C401.593 172.664 401.917 172.796 402.325 172.796C403.813 172.796 405.061 172.328 406.069 171.392C407.077 170.432 407.797 169.952 408.229 169.952C408.421 169.952 408.709 170.132 409.093 170.492C409.477 170.852 409.669 171.188 409.669 171.5C409.669 172.124 408.913 173.024 407.401 174.2C406.729 174.752 405.913 175.22 404.953 175.604C404.017 175.964 403.141 176.144 402.325 176.144C400.237 176.144 398.701 174.8 397.717 172.112C397.093 170.456 396.781 168.632 396.781 166.64C396.781 164.648 397.249 162.932 398.185 161.492C399.121 160.052 400.597 159.332 402.613 159.332ZM402.793 161.816C401.881 161.816 401.101 162.332 400.453 163.364C400.213 163.724 399.985 164.54 399.769 165.812C403.129 165.812 404.809 164.984 404.809 163.328C404.809 162.32 404.137 161.816 402.793 161.816ZM430.113 159.188C431.169 159.188 431.697 160.088 431.697 161.888C431.697 162.08 431.697 162.284 431.697 162.5L431.625 165.02C431.601 165.812 431.589 166.592 431.589 167.36L432.129 175.496C432.129 176.096 431.517 176.396 430.293 176.396C430.221 176.396 430.041 176.396 429.753 176.396C429.489 176.396 429.297 176.288 429.177 176.072C429.081 175.856 429.069 175.592 429.141 175.28C429.237 174.968 429.213 174.62 429.069 174.236C427.965 175.412 426.501 176 424.677 176C421.293 176 419.601 173.384 419.601 168.152C419.601 165.248 420.141 163.052 421.221 161.564C422.325 160.076 423.897 159.332 425.937 159.332C426.897 159.332 427.857 159.5 428.817 159.836C429.129 159.404 429.561 159.188 430.113 159.188ZM426.369 162.464C425.001 162.464 423.981 162.86 423.309 163.652C422.637 164.444 422.301 165.896 422.301 168.008C422.301 171.56 423.261 173.336 425.181 173.336C425.685 173.336 426.237 173.108 426.837 172.652C427.461 172.196 427.893 171.68 428.133 171.104C428.589 169.808 428.817 168.392 428.817 166.856C428.817 165.32 428.625 164.204 428.241 163.508C427.881 162.812 427.257 162.464 426.369 162.464ZM448.152 175.964C447.336 175.964 446.58 175.688 445.884 175.136C445.884 175.136 445.728 175.004 445.416 174.74V185.54C445.272 186.02 445.02 186.416 444.66 186.728C444.3 187.064 443.916 187.232 443.508 187.232C442.884 187.232 442.572 186.812 442.572 185.972V160.88C442.716 160.256 442.884 159.812 443.076 159.548C443.292 159.284 443.616 159.152 444.048 159.152C444.504 159.152 444.792 159.26 444.912 159.476C445.056 159.668 445.224 160.22 445.416 161.132C445.512 160.652 445.896 160.208 446.568 159.8C447.24 159.392 448.14 159.188 449.268 159.188C451.716 159.188 453.456 160.076 454.488 161.852C455.52 163.628 456.036 165.728 456.036 168.152C456.036 170.552 455.328 172.46 453.912 173.876C452.52 175.268 450.6 175.964 448.152 175.964ZM445.416 165.164V171.86C445.56 171.932 445.728 172.052 445.92 172.22C446.616 172.844 447.372 173.156 448.188 173.156C451.5 173.156 453.156 171.452 453.156 168.044C453.156 165.14 452.412 163.304 450.924 162.536C450.3 162.2 449.532 162.032 448.62 162.032C447.732 162.152 446.976 162.548 446.352 163.22C445.728 163.868 445.416 164.516 445.416 165.164ZM462.506 170.744L462.542 174.452C462.542 174.884 462.338 175.28 461.93 175.64C461.546 176 461.162 176.18 460.778 176.18C460.226 176.18 459.878 175.748 459.734 174.884C459.71 174.692 459.614 172.94 459.446 169.628C459.278 166.292 458.954 163.676 458.474 161.78C458.258 160.868 458.15 160.328 458.15 160.16C458.15 159.368 458.63 158.972 459.59 158.972C459.998 158.972 460.322 159.128 460.562 159.44C460.802 159.752 460.946 160.076 460.994 160.412C461.066 160.724 461.126 161.156 461.174 161.708C461.222 162.26 461.258 162.608 461.282 162.752C461.786 161.552 462.542 160.652 463.55 160.052C464.558 159.452 465.662 159.152 466.862 159.152C468.83 159.152 469.814 159.656 469.814 160.664C469.814 161.168 469.634 161.576 469.274 161.888C468.938 162.176 468.542 162.32 468.086 162.32C466.046 162.32 464.606 162.968 463.766 164.264C462.926 165.56 462.506 167.72 462.506 170.744ZM474.09 153.248C474.522 153.248 474.93 153.452 475.314 153.86C475.698 154.268 475.89 154.7 475.89 155.156C475.89 155.588 475.674 156.032 475.242 156.488C474.834 156.944 474.402 157.172 473.946 157.172C473.49 157.172 473.07 156.98 472.686 156.596C472.326 156.212 472.146 155.72 472.146 155.12C472.146 153.968 472.77 153.344 474.018 153.248C474.042 153.248 474.066 153.248 474.09 153.248ZM475.602 172.112L475.638 174.632C475.638 175.088 475.458 175.472 475.098 175.784C474.738 176.072 474.354 176.216 473.946 176.216C473.346 176.216 473.034 175.916 473.01 175.316C472.698 167.66 472.542 163.424 472.542 162.608C472.542 161.792 472.578 160.796 472.65 159.62C472.698 159.188 472.974 158.972 473.478 158.972C474.75 158.972 475.47 159.488 475.638 160.52C475.71 161.048 475.746 161.468 475.746 161.78L475.602 164.048V172.112ZM491.392 159.008C491.728 159.008 491.98 159.128 492.148 159.368C492.316 159.584 492.4 159.824 492.4 160.088L492.364 160.448C491.356 163.016 490.612 165.104 490.132 166.712C489.82 167.84 489.58 168.68 489.412 169.232C489.268 169.784 489.016 170.756 488.656 172.148C488.296 173.54 488.056 174.44 487.936 174.848C487.6 175.664 487.012 176.072 486.172 176.072C485.764 176.072 485.476 175.808 485.308 175.28C484.54 172.88 483.412 170.168 481.924 167.144C480.436 164.12 479.584 162.392 479.368 161.96C479.176 161.504 479.08 161.096 479.08 160.736C479.08 160.376 479.236 160.028 479.548 159.692C479.884 159.356 480.256 159.188 480.664 159.188C481.072 159.188 481.42 159.404 481.708 159.836C481.972 160.364 482.716 161.84 483.94 164.264C485.188 166.688 486.064 168.596 486.568 169.988C486.592 169.844 486.676 169.544 486.82 169.088C488.044 164.84 489.04 161.804 489.808 159.98C490.216 159.332 490.744 159.008 491.392 159.008ZM504.223 159.188C505.279 159.188 505.807 160.088 505.807 161.888C505.807 162.08 505.807 162.284 505.807 162.5L505.735 165.02C505.711 165.812 505.699 166.592 505.699 167.36L506.239 175.496C506.239 176.096 505.627 176.396 504.403 176.396C504.331 176.396 504.151 176.396 503.863 176.396C503.599 176.396 503.407 176.288 503.287 176.072C503.191 175.856 503.179 175.592 503.251 175.28C503.347 174.968 503.323 174.62 503.179 174.236C502.075 175.412 500.611 176 498.787 176C495.403 176 493.711 173.384 493.711 168.152C493.711 165.248 494.251 163.052 495.331 161.564C496.435 160.076 498.007 159.332 500.047 159.332C501.007 159.332 501.967 159.5 502.927 159.836C503.239 159.404 503.671 159.188 504.223 159.188ZM500.479 162.464C499.111 162.464 498.091 162.86 497.419 163.652C496.747 164.444 496.411 165.896 496.411 168.008C496.411 171.56 497.371 173.336 499.291 173.336C499.795 173.336 500.347 173.108 500.947 172.652C501.571 172.196 502.003 171.68 502.243 171.104C502.699 169.808 502.927 168.392 502.927 166.856C502.927 165.32 502.735 164.204 502.351 163.508C501.991 162.812 501.367 162.464 500.479 162.464ZM509.176 159.188L510.976 159.224C511.384 159.224 511.612 159.212 511.66 159.188V151.808C511.684 151.4 511.888 151.052 512.272 150.764C512.656 150.476 513.016 150.332 513.352 150.332C513.688 150.332 513.952 150.44 514.144 150.656C514.36 150.872 514.456 151.208 514.432 151.664C514.408 152.12 514.396 154.616 514.396 159.152L518.608 159.008C519.328 159.008 519.688 159.428 519.688 160.268C519.688 160.892 519.496 161.36 519.112 161.672C518.752 161.984 518.356 162.152 517.924 162.176C517.516 162.2 517.108 162.212 516.7 162.212L514.504 162.176C514.504 163.16 514.6 165.104 514.792 168.008C515.008 170.912 515.176 172.796 515.296 173.66C515.416 174.5 515.44 175.052 515.368 175.316C515.296 175.556 515.164 175.724 514.972 175.82C514.66 175.964 514.24 176.036 513.712 176.036C513.184 176.036 512.872 175.748 512.776 175.172C512.296 172.028 511.972 167.708 511.804 162.212C511.588 162.236 510.76 162.248 509.32 162.248C507.88 162.248 507.16 161.828 507.16 160.988C507.16 159.788 507.832 159.188 509.176 159.188ZM525.835 159.332C527.107 159.332 528.319 159.704 529.471 160.448C530.623 161.192 531.199 162.116 531.199 163.22C531.199 164.3 530.731 165.356 529.795 166.388C528.859 167.396 527.611 168.008 526.051 168.224C525.379 168.32 524.371 168.368 523.027 168.368C523.291 170.408 523.807 171.752 524.575 172.4C524.815 172.664 525.139 172.796 525.547 172.796C527.035 172.796 528.283 172.328 529.291 171.392C530.299 170.432 531.019 169.952 531.451 169.952C531.643 169.952 531.931 170.132 532.315 170.492C532.699 170.852 532.891 171.188 532.891 171.5C532.891 172.124 532.135 173.024 530.623 174.2C529.951 174.752 529.135 175.22 528.175 175.604C527.239 175.964 526.363 176.144 525.547 176.144C523.459 176.144 521.923 174.8 520.939 172.112C520.315 170.456 520.003 168.632 520.003 166.64C520.003 164.648 520.471 162.932 521.407 161.492C522.343 160.052 523.819 159.332 525.835 159.332ZM526.015 161.816C525.103 161.816 524.323 162.332 523.675 163.364C523.435 163.724 523.207 164.54 522.991 165.812C526.351 165.812 528.031 164.984 528.031 163.328C528.031 162.32 527.359 161.816 526.015 161.816ZM553.624 174.524C552.76 175.532 551.668 176.036 550.348 176.036C549.028 176.036 547.888 175.628 546.928 174.812C544.912 173.252 543.904 170.864 543.904 167.648C543.904 165.128 544.6 163.112 545.992 161.6C547.384 160.064 549.1 159.296 551.14 159.296C553.18 159.296 554.572 159.992 555.316 161.384C555.964 162.608 556.288 164.456 556.288 166.928L556.216 169.88C556.216 171.272 556.276 173.204 556.396 175.676C556.54 178.124 556.612 179.972 556.612 181.22C556.612 183.284 556.096 184.796 555.064 185.756C554.056 186.74 552.508 187.232 550.42 187.232C549.172 187.232 547.9 186.968 546.604 186.44C545.308 185.912 544.66 185.3 544.66 184.604C544.66 184.1 544.792 183.716 545.056 183.452C545.344 183.188 545.668 183.056 546.028 183.056C546.388 183.056 547.192 183.32 548.44 183.848C549.712 184.376 550.624 184.64 551.176 184.64C552.904 184.64 553.768 183.224 553.768 180.392C553.768 177.56 553.72 175.604 553.624 174.524ZM553.588 166.928C553.588 165.176 553.324 163.952 552.796 163.256C552.292 162.536 551.488 162.176 550.384 162.176C549.28 162.176 548.392 162.68 547.72 163.688C547.048 164.696 546.712 165.98 546.712 167.54C546.712 169.076 547.024 170.3 547.648 171.212C548.296 172.124 549.28 172.58 550.6 172.58C551.92 172.58 552.772 172.016 553.156 170.888C553.444 169.976 553.588 168.656 553.588 166.928ZM569.367 159.188C570.423 159.188 570.951 160.088 570.951 161.888C570.951 162.08 570.951 162.284 570.951 162.5L570.879 165.02C570.855 165.812 570.843 166.592 570.843 167.36L571.383 175.496C571.383 176.096 570.771 176.396 569.547 176.396C569.475 176.396 569.295 176.396 569.007 176.396C568.743 176.396 568.551 176.288 568.431 176.072C568.335 175.856 568.323 175.592 568.395 175.28C568.491 174.968 568.467 174.62 568.323 174.236C567.219 175.412 565.755 176 563.931 176C560.547 176 558.855 173.384 558.855 168.152C558.855 165.248 559.395 163.052 560.475 161.564C561.579 160.076 563.151 159.332 565.191 159.332C566.151 159.332 567.111 159.5 568.071 159.836C568.383 159.404 568.815 159.188 569.367 159.188ZM565.623 162.464C564.255 162.464 563.235 162.86 562.563 163.652C561.891 164.444 561.555 165.896 561.555 168.008C561.555 171.56 562.515 173.336 564.435 173.336C564.939 173.336 565.491 173.108 566.091 172.652C566.715 172.196 567.147 171.68 567.387 171.104C567.843 169.808 568.071 168.392 568.071 166.856C568.071 165.32 567.879 164.204 567.495 163.508C567.135 162.812 566.511 162.464 565.623 162.464ZM575.473 176.036C574.849 176.036 574.477 175.688 574.357 174.992C574.357 170.144 574.069 165.824 573.493 162.032C573.493 161.552 573.661 161.12 573.997 160.736C574.357 160.352 574.753 160.16 575.185 160.16C575.641 160.16 575.977 160.412 576.193 160.916C577.081 159.74 578.269 159.152 579.757 159.152C581.653 159.152 583.117 160.064 584.149 161.888C585.349 160.16 586.933 159.296 588.901 159.296C590.893 159.296 592.381 160.088 593.365 161.672C594.013 162.656 594.469 163.952 594.733 165.56C594.997 167.168 595.129 169.448 595.129 172.4C595.129 173.552 595.009 174.452 594.769 175.1C594.529 175.724 594.025 176.036 593.257 176.036C592.633 176.036 592.321 175.64 592.321 174.848L592.429 170.348C592.429 164.948 591.025 162.248 588.217 162.248C587.329 162.248 586.705 162.56 586.345 163.184C585.937 163.928 585.697 164.708 585.625 165.524C585.529 166.964 585.481 168.272 585.481 169.448V174.668C585.481 175.052 585.289 175.376 584.905 175.64C584.521 175.904 584.125 176.036 583.717 176.036C583.189 176.036 582.853 175.688 582.709 174.992L582.817 167.54C582.817 164.9 582.373 163.256 581.485 162.608C581.053 162.296 580.393 162.14 579.505 162.14C578.641 162.14 577.993 162.464 577.561 163.112C577.153 163.76 576.949 164.804 576.949 166.244L577.165 172.94C577.165 175.004 576.601 176.036 575.473 176.036ZM603.073 159.332C604.345 159.332 605.557 159.704 606.709 160.448C607.861 161.192 608.437 162.116 608.437 163.22C608.437 164.3 607.969 165.356 607.033 166.388C606.097 167.396 604.849 168.008 603.289 168.224C602.617 168.32 601.609 168.368 600.265 168.368C600.529 170.408 601.045 171.752 601.813 172.4C602.053 172.664 602.377 172.796 602.785 172.796C604.273 172.796 605.521 172.328 606.529 171.392C607.537 170.432 608.257 169.952 608.689 169.952C608.881 169.952 609.169 170.132 609.553 170.492C609.937 170.852 610.129 171.188 610.129 171.5C610.129 172.124 609.373 173.024 607.861 174.2C607.189 174.752 606.373 175.22 605.413 175.604C604.477 175.964 603.601 176.144 602.785 176.144C600.697 176.144 599.161 174.8 598.177 172.112C597.553 170.456 597.241 168.632 597.241 166.64C597.241 164.648 597.709 162.932 598.645 161.492C599.581 160.052 601.057 159.332 603.073 159.332ZM603.253 161.816C602.341 161.816 601.561 162.332 600.913 163.364C600.673 163.724 600.445 164.54 600.229 165.812C603.589 165.812 605.269 164.984 605.269 163.328C605.269 162.32 604.597 161.816 603.253 161.816ZM633.382 174.38C633.382 175.508 632.866 176.072 631.834 176.072C631.402 176.072 630.814 175.016 630.07 172.904C629.326 170.768 628.33 169.124 627.082 167.972C626.962 168.14 626.446 168.62 625.534 169.412C624.646 170.18 624.118 170.648 623.95 170.816V174.416C623.902 174.776 623.842 175.052 623.77 175.244C623.698 175.436 623.53 175.616 623.266 175.784C623.026 175.952 622.69 176.036 622.258 176.036C621.61 176.036 621.286 175.64 621.286 174.848C621.286 172.616 621.19 169.16 620.998 164.48C620.806 159.776 620.71 155.564 620.71 151.844C620.71 151.388 620.89 151.028 621.25 150.764C621.634 150.5 622.03 150.368 622.438 150.368C622.99 150.368 623.326 150.716 623.446 151.412V157.784C623.446 158.552 623.458 159.128 623.482 159.512C623.506 159.896 623.53 160.472 623.554 161.24C623.602 162.824 623.686 164.612 623.806 166.604C624.502 166.076 625.39 165.248 626.47 164.12C627.574 162.968 628.402 161.984 628.954 161.168C629.818 159.8 630.61 159.116 631.33 159.116C631.522 159.116 631.714 159.164 631.906 159.26C632.41 159.548 632.662 159.884 632.662 160.268C632.662 160.652 632.494 161.156 632.158 161.78C631.294 163.268 630.298 164.624 629.17 165.848C630.25 167.048 631.33 168.764 632.41 170.996C633.058 172.436 633.382 173.564 633.382 174.38ZM640.656 159.332C641.928 159.332 643.14 159.704 644.292 160.448C645.444 161.192 646.02 162.116 646.02 163.22C646.02 164.3 645.552 165.356 644.616 166.388C643.68 167.396 642.432 168.008 640.872 168.224C640.2 168.32 639.192 168.368 637.848 168.368C638.112 170.408 638.628 171.752 639.396 172.4C639.636 172.664 639.96 172.796 640.368 172.796C641.856 172.796 643.104 172.328 644.112 171.392C645.12 170.432 645.84 169.952 646.272 169.952C646.464 169.952 646.752 170.132 647.136 170.492C647.52 170.852 647.712 171.188 647.712 171.5C647.712 172.124 646.956 173.024 645.444 174.2C644.772 174.752 643.956 175.22 642.996 175.604C642.06 175.964 641.184 176.144 640.368 176.144C638.28 176.144 636.744 174.8 635.76 172.112C635.136 170.456 634.824 168.632 634.824 166.64C634.824 164.648 635.292 162.932 636.228 161.492C637.164 160.052 638.64 159.332 640.656 159.332ZM640.836 161.816C639.924 161.816 639.144 162.332 638.496 163.364C638.256 163.724 638.028 164.54 637.812 165.812C641.172 165.812 642.852 164.984 642.852 163.328C642.852 162.32 642.18 161.816 640.836 161.816ZM661.299 159.368C661.611 159.368 661.911 159.476 662.199 159.692C662.511 159.908 662.667 160.148 662.667 160.412C662.667 161.108 661.647 164.876 659.607 171.716C657.567 178.556 656.055 183.356 655.071 186.116C654.855 186.764 654.519 187.088 654.063 187.088C653.607 187.088 653.247 186.92 652.983 186.584C652.719 186.272 652.587 185.804 652.587 185.18C652.587 184.556 652.983 183.056 653.775 180.68C654.591 178.328 655.083 176.828 655.251 176.18C654.651 175.172 652.623 170.132 649.167 161.06C649.119 160.94 649.095 160.784 649.095 160.592C649.095 160.4 649.239 160.148 649.527 159.836C649.815 159.524 650.211 159.368 650.715 159.368C651.219 159.368 651.627 159.62 651.939 160.124C652.275 160.988 652.827 162.5 653.595 164.66C654.363 166.796 654.951 168.344 655.359 169.304C655.791 170.264 656.199 171.26 656.583 172.292C656.919 171.164 657.495 168.98 658.311 165.74C659.127 162.476 659.595 160.616 659.715 160.16C659.811 159.632 660.339 159.368 661.299 159.368ZM673.678 155.48C673.678 154.904 673.366 154.388 672.742 153.932C672.142 153.476 671.53 153.248 670.906 153.248C670.282 153.248 669.706 153.392 669.178 153.68C668.65 153.944 668.266 154.268 668.026 154.652C667.354 155.612 666.838 156.092 666.478 156.092C665.446 156.092 664.93 155.588 664.93 154.58C664.93 153.668 665.566 152.744 666.838 151.808C668.11 150.848 669.442 150.368 670.834 150.368C672.802 150.368 674.362 151.172 675.514 152.78C676.138 153.668 676.45 154.568 676.45 155.48C676.45 157.064 675.802 158.588 674.506 160.052C673.954 160.676 673.402 161.264 672.85 161.816C671.53 163.136 670.87 164.012 670.87 164.444C670.87 164.876 671.038 165.356 671.374 165.884C671.686 166.412 671.842 166.772 671.842 166.964C671.842 167.156 671.782 167.372 671.662 167.612C671.374 168.044 670.954 168.26 670.402 168.26C669.874 168.26 669.334 167.9 668.782 167.18C668.23 166.436 667.954 165.62 667.954 164.732C667.954 163.172 668.542 161.756 669.718 160.484C670.27 159.884 670.786 159.38 671.266 158.972C672.874 157.46 673.678 156.296 673.678 155.48ZM668.818 172.976C668.818 172.544 668.974 172.148 669.286 171.788C669.622 171.428 670.078 171.248 670.654 171.248C671.23 171.248 671.638 171.356 671.878 171.572C672.142 171.788 672.274 172.256 672.274 172.976C672.274 174.248 671.698 174.884 670.546 174.884C670.114 174.884 669.718 174.668 669.358 174.236C668.998 173.804 668.818 173.384 668.818 172.976Z" fill="black"/>
<path d="M214.069 373.06C215.749 373.06 217.177 373.6 218.353 374.68C220.657 376.744 221.809 380.008 221.809 384.472C221.809 388.912 220.537 392.404 217.993 394.948C216.673 396.22 215.149 396.916 213.421 397.036C211.141 397.036 209.365 396.256 208.093 394.696C206.821 393.136 205.909 391.396 205.357 389.476C204.829 387.532 204.565 385.66 204.565 383.86C204.565 380.788 205.297 378.256 206.761 376.264C208.297 374.128 210.733 373.06 214.069 373.06ZM213.817 376.048C210.601 376.048 208.597 377.572 207.805 380.62C207.565 381.436 207.445 382.48 207.445 383.752C207.445 385.024 207.685 386.5 208.165 388.18C208.813 390.436 209.773 392.02 211.045 392.932C211.789 393.508 212.689 393.796 213.745 393.796C214.801 393.796 215.749 393.328 216.589 392.392C217.429 391.432 218.005 390.22 218.317 388.756C218.629 387.292 218.785 385.816 218.785 384.328C218.785 381.688 218.401 379.648 217.633 378.208C216.889 376.768 215.617 376.048 213.817 376.048ZM229.069 391.744L229.105 395.452C229.105 395.884 228.901 396.28 228.493 396.64C228.109 397 227.725 397.18 227.341 397.18C226.789 397.18 226.441 396.748 226.297 395.884C226.273 395.692 226.177 393.94 226.009 390.628C225.841 387.292 225.517 384.676 225.037 382.78C224.821 381.868 224.713 381.328 224.713 381.16C224.713 380.368 225.193 379.972 226.153 379.972C226.561 379.972 226.885 380.128 227.125 380.44C227.365 380.752 227.509 381.076 227.557 381.412C227.629 381.724 227.689 382.156 227.737 382.708C227.785 383.26 227.821 383.608 227.845 383.752C228.349 382.552 229.105 381.652 230.113 381.052C231.121 380.452 232.225 380.152 233.425 380.152C235.393 380.152 236.377 380.656 236.377 381.664C236.377 382.168 236.197 382.576 235.837 382.888C235.501 383.176 235.105 383.32 234.649 383.32C232.609 383.32 231.169 383.968 230.329 385.264C229.489 386.56 229.069 388.72 229.069 391.744ZM249.201 374.428C249.633 374.428 250.041 374.632 250.425 375.04C250.809 375.448 251.001 375.88 251.001 376.336C251.001 376.768 250.785 377.212 250.353 377.668C249.945 378.124 249.513 378.352 249.057 378.352C248.601 378.352 248.181 378.16 247.797 377.776C247.437 377.392 247.257 376.9 247.257 376.3C247.257 375.148 247.881 374.524 249.129 374.428C249.153 374.428 249.177 374.428 249.201 374.428ZM248.049 381.484C248.001 381.1 248.133 380.788 248.445 380.548C248.757 380.284 249.225 380.152 249.849 380.152C250.473 380.152 250.821 380.452 250.893 381.052C251.229 384.004 251.397 386.8 251.397 389.44C251.397 392.08 251.313 394.72 251.145 397.36C250.977 400.024 250.593 402.076 249.993 403.516C249.177 405.412 247.701 406.36 245.565 406.36C244.485 406.36 243.549 406.024 242.757 405.352C241.965 404.68 241.569 403.876 241.569 402.94C241.569 402.436 241.749 402.052 242.109 401.788C242.469 401.524 242.865 401.392 243.297 401.392C243.729 401.392 244.053 401.5 244.269 401.716C244.485 401.932 244.629 402.172 244.701 402.436C244.941 403.132 245.349 403.48 245.925 403.48C246.525 403.48 247.029 403.012 247.437 402.076C247.869 401.14 248.145 399.868 248.265 398.26C248.409 396.652 248.481 394.948 248.481 393.148C248.481 387.508 248.337 383.62 248.049 381.484ZM261.418 380.224C263.146 380.224 264.562 381.052 265.666 382.708C266.794 384.364 267.358 386.356 267.358 388.684C267.358 390.988 266.782 392.956 265.63 394.588C264.502 396.22 262.99 397.036 261.094 397.036C259.222 397.036 257.71 396.208 256.558 394.552C255.406 392.872 254.83 391.012 254.83 388.972C254.83 386.356 255.358 384.268 256.414 382.708C257.542 381.052 259.21 380.224 261.418 380.224ZM260.986 383.176C259.978 383.176 259.15 383.704 258.502 384.76C257.854 385.816 257.53 386.932 257.53 388.108C257.53 389.932 257.89 391.324 258.61 392.284C259.33 393.244 260.146 393.724 261.058 393.724C262.69 393.724 263.734 393.016 264.19 391.6C264.382 390.928 264.478 390.088 264.478 389.08C264.478 385.144 263.314 383.176 260.986 383.176ZM271.941 374.248C272.373 374.248 272.781 374.452 273.165 374.86C273.549 375.268 273.741 375.7 273.741 376.156C273.741 376.588 273.525 377.032 273.093 377.488C272.685 377.944 272.253 378.172 271.797 378.172C271.341 378.172 270.921 377.98 270.537 377.596C270.177 377.212 269.997 376.72 269.997 376.12C269.997 374.968 270.621 374.344 271.869 374.248C271.893 374.248 271.917 374.248 271.941 374.248ZM273.453 393.112L273.489 395.632C273.489 396.088 273.309 396.472 272.949 396.784C272.589 397.072 272.205 397.216 271.797 397.216C271.197 397.216 270.885 396.916 270.861 396.316C270.549 388.66 270.393 384.424 270.393 383.608C270.393 382.792 270.429 381.796 270.501 380.62C270.549 380.188 270.825 379.972 271.329 379.972C272.601 379.972 273.321 380.488 273.489 381.52C273.561 382.048 273.597 382.468 273.597 382.78L273.453 385.048V393.112ZM278.984 395.884L278.588 381.268C278.588 380.812 278.744 380.44 279.056 380.152C279.368 379.864 279.68 379.72 279.992 379.72C280.76 379.72 281.204 380.044 281.324 380.692C281.42 381.34 281.468 382.012 281.468 382.708C282.764 381.004 284.384 380.152 286.328 380.152C289.304 380.152 290.792 383.548 290.792 390.34C290.792 390.964 290.792 391.912 290.792 393.184C290.792 394.432 290.72 395.344 290.576 395.92C290.408 396.64 289.892 397 289.028 397C288.452 397 288.164 396.616 288.164 395.848L288.2 393.832C288.2 391.048 288.104 389.152 287.912 388.144C287.744 387.112 287.576 386.296 287.408 385.696C287 384.4 286.34 383.752 285.428 383.752C284.228 383.752 283.388 384.184 282.908 385.048C282.38 385.984 282.068 387.088 281.972 388.36C281.804 390.592 281.72 392.956 281.72 395.452C281.72 395.932 281.54 396.316 281.18 396.604C280.82 396.892 280.388 397.036 279.884 397.036C279.284 397.036 278.984 396.652 278.984 395.884ZM312.234 380.188C313.29 380.188 313.818 381.088 313.818 382.888C313.818 383.08 313.818 383.284 313.818 383.5L313.746 386.02C313.722 386.812 313.71 387.592 313.71 388.36L314.25 396.496C314.25 397.096 313.638 397.396 312.414 397.396C312.342 397.396 312.162 397.396 311.874 397.396C311.61 397.396 311.418 397.288 311.298 397.072C311.202 396.856 311.19 396.592 311.262 396.28C311.358 395.968 311.334 395.62 311.19 395.236C310.086 396.412 308.622 397 306.798 397C303.414 397 301.722 394.384 301.722 389.152C301.722 386.248 302.262 384.052 303.342 382.564C304.446 381.076 306.018 380.332 308.058 380.332C309.018 380.332 309.978 380.5 310.938 380.836C311.25 380.404 311.682 380.188 312.234 380.188ZM308.49 383.464C307.122 383.464 306.102 383.86 305.43 384.652C304.758 385.444 304.422 386.896 304.422 389.008C304.422 392.56 305.382 394.336 307.302 394.336C307.806 394.336 308.358 394.108 308.958 393.652C309.582 393.196 310.014 392.68 310.254 392.104C310.71 390.808 310.938 389.392 310.938 387.856C310.938 386.32 310.746 385.204 310.362 384.508C310.002 383.812 309.378 383.464 308.49 383.464ZM317.656 395.884L317.26 381.268C317.26 380.812 317.416 380.44 317.728 380.152C318.04 379.864 318.352 379.72 318.664 379.72C319.432 379.72 319.876 380.044 319.996 380.692C320.092 381.34 320.14 382.012 320.14 382.708C321.436 381.004 323.056 380.152 325 380.152C327.976 380.152 329.464 383.548 329.464 390.34C329.464 390.964 329.464 391.912 329.464 393.184C329.464 394.432 329.392 395.344 329.248 395.92C329.08 396.64 328.564 397 327.7 397C327.124 397 326.836 396.616 326.836 395.848L326.872 393.832C326.872 391.048 326.776 389.152 326.584 388.144C326.416 387.112 326.248 386.296 326.08 385.696C325.672 384.4 325.012 383.752 324.1 383.752C322.9 383.752 322.06 384.184 321.58 385.048C321.052 385.984 320.74 387.088 320.644 388.36C320.476 390.592 320.392 392.956 320.392 395.452C320.392 395.932 320.212 396.316 319.852 396.604C319.492 396.892 319.06 397.036 318.556 397.036C317.956 397.036 317.656 396.652 317.656 395.884ZM350.906 380.188C351.962 380.188 352.49 381.088 352.49 382.888C352.49 383.08 352.49 383.284 352.49 383.5L352.418 386.02C352.394 386.812 352.382 387.592 352.382 388.36L352.922 396.496C352.922 397.096 352.31 397.396 351.086 397.396C351.014 397.396 350.834 397.396 350.546 397.396C350.282 397.396 350.09 397.288 349.97 397.072C349.874 396.856 349.862 396.592 349.934 396.28C350.03 395.968 350.006 395.62 349.862 395.236C348.758 396.412 347.294 397 345.47 397C342.086 397 340.394 394.384 340.394 389.152C340.394 386.248 340.934 384.052 342.014 382.564C343.118 381.076 344.69 380.332 346.73 380.332C347.69 380.332 348.65 380.5 349.61 380.836C349.922 380.404 350.354 380.188 350.906 380.188ZM347.162 383.464C345.794 383.464 344.774 383.86 344.102 384.652C343.43 385.444 343.094 386.896 343.094 389.008C343.094 392.56 344.054 394.336 345.974 394.336C346.478 394.336 347.03 394.108 347.63 393.652C348.254 393.196 348.686 392.68 348.926 392.104C349.382 390.808 349.61 389.392 349.61 387.856C349.61 386.32 349.418 385.204 349.034 384.508C348.674 383.812 348.05 383.464 347.162 383.464ZM354.852 373.708C354.924 372.796 355.068 372.208 355.284 371.944C355.524 371.656 355.896 371.512 356.4 371.512C357.432 371.512 357.948 371.932 357.948 372.772C357.948 373.42 357.888 375.112 357.768 377.848C357.672 380.584 357.624 383.032 357.624 385.192C357.624 387.352 357.708 389.092 357.876 390.412C358.164 392.716 358.572 393.868 359.1 393.868C359.628 393.868 360.024 393.496 360.288 392.752C360.408 392.464 360.6 392.212 360.864 391.996C361.128 391.756 361.464 391.636 361.872 391.636C362.712 391.636 363.132 392.344 363.132 393.76C363.132 394.528 362.712 395.296 361.872 396.064C361.056 396.808 360.24 397.18 359.424 397.18C358.608 397.18 357.948 397.048 357.444 396.784C356.964 396.496 356.568 396.076 356.256 395.524C355.968 394.972 355.728 394.444 355.536 393.94C355.368 393.412 355.248 392.776 355.176 392.032C355.032 390.832 354.924 388.912 354.852 386.272C354.804 383.608 354.78 381.076 354.78 378.676C354.78 376.252 354.804 374.596 354.852 373.708ZM369.166 391.744L369.202 395.452C369.202 395.884 368.998 396.28 368.59 396.64C368.206 397 367.822 397.18 367.438 397.18C366.886 397.18 366.538 396.748 366.394 395.884C366.37 395.692 366.274 393.94 366.106 390.628C365.938 387.292 365.614 384.676 365.134 382.78C364.918 381.868 364.81 381.328 364.81 381.16C364.81 380.368 365.29 379.972 366.25 379.972C366.658 379.972 366.982 380.128 367.222 380.44C367.462 380.752 367.606 381.076 367.654 381.412C367.726 381.724 367.786 382.156 367.834 382.708C367.882 383.26 367.918 383.608 367.942 383.752C368.446 382.552 369.202 381.652 370.21 381.052C371.218 380.452 372.322 380.152 373.522 380.152C375.49 380.152 376.474 380.656 376.474 381.664C376.474 382.168 376.294 382.576 375.934 382.888C375.598 383.176 375.202 383.32 374.746 383.32C372.706 383.32 371.266 383.968 370.426 385.264C369.586 386.56 369.166 388.72 369.166 391.744ZM383.558 380.332C384.83 380.332 386.042 380.704 387.194 381.448C388.346 382.192 388.922 383.116 388.922 384.22C388.922 385.3 388.454 386.356 387.518 387.388C386.582 388.396 385.334 389.008 383.774 389.224C383.102 389.32 382.094 389.368 380.75 389.368C381.014 391.408 381.53 392.752 382.298 393.4C382.538 393.664 382.862 393.796 383.27 393.796C384.758 393.796 386.006 393.328 387.014 392.392C388.022 391.432 388.742 390.952 389.174 390.952C389.366 390.952 389.654 391.132 390.038 391.492C390.422 391.852 390.614 392.188 390.614 392.5C390.614 393.124 389.858 394.024 388.346 395.2C387.674 395.752 386.858 396.22 385.898 396.604C384.962 396.964 384.086 397.144 383.27 397.144C381.182 397.144 379.646 395.8 378.662 393.112C378.038 391.456 377.726 389.632 377.726 387.64C377.726 385.648 378.194 383.932 379.13 382.492C380.066 381.052 381.542 380.332 383.558 380.332ZM383.738 382.816C382.826 382.816 382.046 383.332 381.398 384.364C381.158 384.724 380.93 385.54 380.714 386.812C384.074 386.812 385.754 385.984 385.754 384.328C385.754 383.32 385.082 382.816 383.738 382.816ZM402.762 380.188C403.818 380.188 404.346 381.088 404.346 382.888C404.346 383.08 404.346 383.284 404.346 383.5L404.274 386.02C404.25 386.812 404.238 387.592 404.238 388.36L404.778 396.496C404.778 397.096 404.166 397.396 402.942 397.396C402.87 397.396 402.69 397.396 402.402 397.396C402.138 397.396 401.946 397.288 401.826 397.072C401.73 396.856 401.718 396.592 401.79 396.28C401.886 395.968 401.862 395.62 401.718 395.236C400.614 396.412 399.15 397 397.326 397C393.942 397 392.25 394.384 392.25 389.152C392.25 386.248 392.79 384.052 393.87 382.564C394.974 381.076 396.546 380.332 398.586 380.332C399.546 380.332 400.506 380.5 401.466 380.836C401.778 380.404 402.21 380.188 402.762 380.188ZM399.018 383.464C397.65 383.464 396.63 383.86 395.958 384.652C395.286 385.444 394.95 386.896 394.95 389.008C394.95 392.56 395.91 394.336 397.83 394.336C398.334 394.336 398.886 394.108 399.486 393.652C400.11 393.196 400.542 392.68 400.782 392.104C401.238 390.808 401.466 389.392 401.466 387.856C401.466 386.32 401.274 385.204 400.89 384.508C400.53 383.812 399.906 383.464 399.018 383.464ZM415.419 380.152L415.383 373.204C415.383 371.908 415.791 371.26 416.607 371.26C417.447 371.26 417.915 371.62 418.011 372.34C418.059 372.652 418.119 374.536 418.191 377.992C418.263 381.448 418.371 384.688 418.515 387.712C418.683 390.736 418.767 393.556 418.767 396.172C418.767 396.892 418.227 397.252 417.147 397.252C416.427 397.252 416.067 396.748 416.067 395.74C415.035 396.556 413.811 396.964 412.395 396.964C410.595 396.964 409.131 396.292 408.003 394.948C406.899 393.604 406.347 391.948 406.347 389.98C406.347 388.012 406.743 386.176 407.535 384.472C408.351 382.744 409.611 381.508 411.315 380.764C412.371 380.308 413.391 380.08 414.375 380.08C414.735 380.08 415.083 380.104 415.419 380.152ZM415.599 385.084C415.431 384.556 415.227 384.16 414.987 383.896C414.747 383.608 414.483 383.44 414.195 383.392C413.931 383.32 413.607 383.284 413.223 383.284C412.839 383.284 412.371 383.428 411.819 383.716C411.267 384.004 410.799 384.472 410.415 385.12C409.647 386.416 409.263 387.784 409.263 389.224C409.263 390.64 409.539 391.804 410.091 392.716C410.667 393.604 411.471 394.048 412.503 394.048C413.559 394.048 414.387 393.532 414.987 392.5C415.587 391.468 415.887 390.148 415.887 388.54C415.887 386.74 415.791 385.588 415.599 385.084ZM432.327 380.368C432.639 380.368 432.939 380.476 433.227 380.692C433.539 380.908 433.695 381.148 433.695 381.412C433.695 382.108 432.675 385.876 430.635 392.716C428.595 399.556 427.083 404.356 426.099 407.116C425.883 407.764 425.547 408.088 425.091 408.088C424.635 408.088 424.275 407.92 424.011 407.584C423.747 407.272 423.615 406.804 423.615 406.18C423.615 405.556 424.011 404.056 424.803 401.68C425.619 399.328 426.111 397.828 426.279 397.18C425.679 396.172 423.651 391.132 420.195 382.06C420.147 381.94 420.123 381.784 420.123 381.592C420.123 381.4 420.267 381.148 420.555 380.836C420.843 380.524 421.239 380.368 421.743 380.368C422.247 380.368 422.655 380.62 422.967 381.124C423.303 381.988 423.855 383.5 424.623 385.66C425.391 387.796 425.979 389.344 426.387 390.304C426.819 391.264 427.227 392.26 427.611 393.292C427.947 392.164 428.523 389.98 429.339 386.74C430.155 383.476 430.623 381.616 430.743 381.16C430.839 380.632 431.367 380.368 432.327 380.368ZM444.974 384.76C444.974 383.344 445.478 382.216 446.486 381.376C447.494 380.536 448.658 380.116 449.978 380.116C451.322 380.116 452.606 380.356 453.83 380.836C455.054 381.316 455.666 381.952 455.666 382.744C455.666 383.152 455.51 383.476 455.198 383.716C454.886 383.956 454.61 384.076 454.37 384.076C454.154 384.076 453.974 384.076 453.83 384.076C453.71 384.052 453.23 383.824 452.39 383.392C451.574 382.96 450.818 382.744 450.122 382.744C449.426 382.744 448.826 382.924 448.322 383.284C447.842 383.62 447.602 384.124 447.602 384.796C447.602 385.468 447.878 385.996 448.43 386.38C449.006 386.764 450.002 387.1 451.418 387.388C452.834 387.652 453.914 388.036 454.658 388.54C455.426 389.044 455.81 389.98 455.81 391.348C455.81 393.34 455.282 394.756 454.226 395.596C453.194 396.412 451.934 396.82 450.446 396.82C448.958 396.82 447.686 396.616 446.63 396.208C445.598 395.8 445.082 395.188 445.082 394.372C445.082 393.436 445.55 392.968 446.486 392.968C446.726 392.968 447.254 393.136 448.07 393.472C448.886 393.808 449.69 393.976 450.482 393.976C451.298 393.976 451.91 393.724 452.318 393.22C452.75 392.692 452.966 392.092 452.966 391.42C452.966 390.748 452.69 390.268 452.138 389.98C451.586 389.668 450.746 389.416 449.618 389.224C448.49 389.032 447.662 388.828 447.134 388.612C445.694 388.036 444.974 386.752 444.974 384.76ZM459.114 380.188L460.914 380.224C461.322 380.224 461.55 380.212 461.598 380.188V372.808C461.622 372.4 461.826 372.052 462.21 371.764C462.594 371.476 462.954 371.332 463.29 371.332C463.626 371.332 463.89 371.44 464.082 371.656C464.298 371.872 464.394 372.208 464.37 372.664C464.346 373.12 464.334 375.616 464.334 380.152L468.546 380.008C469.266 380.008 469.626 380.428 469.626 381.268C469.626 381.892 469.434 382.36 469.05 382.672C468.69 382.984 468.294 383.152 467.862 383.176C467.454 383.2 467.046 383.212 466.638 383.212L464.442 383.176C464.442 384.16 464.538 386.104 464.73 389.008C464.946 391.912 465.114 393.796 465.234 394.66C465.354 395.5 465.378 396.052 465.306 396.316C465.234 396.556 465.102 396.724 464.91 396.82C464.598 396.964 464.178 397.036 463.65 397.036C463.122 397.036 462.81 396.748 462.714 396.172C462.234 393.028 461.91 388.708 461.742 383.212C461.526 383.236 460.698 383.248 459.258 383.248C457.818 383.248 457.098 382.828 457.098 381.988C457.098 380.788 457.77 380.188 459.114 380.188ZM480.633 380.188C481.689 380.188 482.217 381.088 482.217 382.888C482.217 383.08 482.217 383.284 482.217 383.5L482.145 386.02C482.121 386.812 482.109 387.592 482.109 388.36L482.649 396.496C482.649 397.096 482.037 397.396 480.813 397.396C480.741 397.396 480.561 397.396 480.273 397.396C480.009 397.396 479.817 397.288 479.697 397.072C479.601 396.856 479.589 396.592 479.661 396.28C479.757 395.968 479.733 395.62 479.589 395.236C478.485 396.412 477.021 397 475.197 397C471.813 397 470.121 394.384 470.121 389.152C470.121 386.248 470.661 384.052 471.741 382.564C472.845 381.076 474.417 380.332 476.457 380.332C477.417 380.332 478.377 380.5 479.337 380.836C479.649 380.404 480.081 380.188 480.633 380.188ZM476.889 383.464C475.521 383.464 474.501 383.86 473.829 384.652C473.157 385.444 472.821 386.896 472.821 389.008C472.821 392.56 473.781 394.336 475.701 394.336C476.205 394.336 476.757 394.108 477.357 393.652C477.981 393.196 478.413 392.68 478.653 392.104C479.109 390.808 479.337 389.392 479.337 387.856C479.337 386.32 479.145 385.204 478.761 384.508C478.401 383.812 477.777 383.464 476.889 383.464ZM489.33 391.744L489.366 395.452C489.366 395.884 489.162 396.28 488.754 396.64C488.37 397 487.986 397.18 487.602 397.18C487.05 397.18 486.702 396.748 486.558 395.884C486.534 395.692 486.438 393.94 486.27 390.628C486.102 387.292 485.778 384.676 485.298 382.78C485.082 381.868 484.974 381.328 484.974 381.16C484.974 380.368 485.454 379.972 486.414 379.972C486.822 379.972 487.146 380.128 487.386 380.44C487.626 380.752 487.77 381.076 487.818 381.412C487.89 381.724 487.95 382.156 487.998 382.708C488.046 383.26 488.082 383.608 488.106 383.752C488.61 382.552 489.366 381.652 490.374 381.052C491.382 380.452 492.486 380.152 493.686 380.152C495.654 380.152 496.638 380.656 496.638 381.664C496.638 382.168 496.458 382.576 496.098 382.888C495.762 383.176 495.366 383.32 494.91 383.32C492.87 383.32 491.43 383.968 490.59 385.264C489.75 386.56 489.33 388.72 489.33 391.744ZM499.438 380.188L501.238 380.224C501.646 380.224 501.874 380.212 501.922 380.188V372.808C501.946 372.4 502.15 372.052 502.534 371.764C502.918 371.476 503.278 371.332 503.614 371.332C503.95 371.332 504.214 371.44 504.406 371.656C504.622 371.872 504.718 372.208 504.694 372.664C504.67 373.12 504.658 375.616 504.658 380.152L508.87 380.008C509.59 380.008 509.95 380.428 509.95 381.268C509.95 381.892 509.758 382.36 509.374 382.672C509.014 382.984 508.618 383.152 508.186 383.176C507.778 383.2 507.37 383.212 506.962 383.212L504.766 383.176C504.766 384.16 504.862 386.104 505.054 389.008C505.27 391.912 505.438 393.796 505.558 394.66C505.678 395.5 505.702 396.052 505.63 396.316C505.558 396.556 505.426 396.724 505.234 396.82C504.922 396.964 504.502 397.036 503.974 397.036C503.446 397.036 503.134 396.748 503.038 396.172C502.558 393.028 502.234 388.708 502.066 383.212C501.85 383.236 501.022 383.248 499.582 383.248C498.142 383.248 497.422 382.828 497.422 381.988C497.422 380.788 498.094 380.188 499.438 380.188ZM516.097 380.332C517.369 380.332 518.581 380.704 519.733 381.448C520.885 382.192 521.461 383.116 521.461 384.22C521.461 385.3 520.993 386.356 520.057 387.388C519.121 388.396 517.873 389.008 516.313 389.224C515.641 389.32 514.633 389.368 513.289 389.368C513.553 391.408 514.069 392.752 514.837 393.4C515.077 393.664 515.401 393.796 515.809 393.796C517.297 393.796 518.545 393.328 519.553 392.392C520.561 391.432 521.281 390.952 521.713 390.952C521.905 390.952 522.193 391.132 522.577 391.492C522.961 391.852 523.153 392.188 523.153 392.5C523.153 393.124 522.397 394.024 520.885 395.2C520.213 395.752 519.397 396.22 518.437 396.604C517.501 396.964 516.625 397.144 515.809 397.144C513.721 397.144 512.185 395.8 511.201 393.112C510.577 391.456 510.265 389.632 510.265 387.64C510.265 385.648 510.733 383.932 511.669 382.492C512.605 381.052 514.081 380.332 516.097 380.332ZM516.277 382.816C515.365 382.816 514.585 383.332 513.937 384.364C513.697 384.724 513.469 385.54 513.253 386.812C516.613 386.812 518.293 385.984 518.293 384.328C518.293 383.32 517.621 382.816 516.277 382.816ZM533.861 380.152L533.825 373.204C533.825 371.908 534.233 371.26 535.049 371.26C535.889 371.26 536.357 371.62 536.453 372.34C536.501 372.652 536.561 374.536 536.633 377.992C536.705 381.448 536.813 384.688 536.957 387.712C537.125 390.736 537.209 393.556 537.209 396.172C537.209 396.892 536.669 397.252 535.589 397.252C534.869 397.252 534.509 396.748 534.509 395.74C533.477 396.556 532.253 396.964 530.837 396.964C529.037 396.964 527.573 396.292 526.445 394.948C525.341 393.604 524.789 391.948 524.789 389.98C524.789 388.012 525.185 386.176 525.977 384.472C526.793 382.744 528.053 381.508 529.757 380.764C530.813 380.308 531.833 380.08 532.817 380.08C533.177 380.08 533.525 380.104 533.861 380.152ZM534.041 385.084C533.873 384.556 533.669 384.16 533.429 383.896C533.189 383.608 532.925 383.44 532.637 383.392C532.373 383.32 532.049 383.284 531.665 383.284C531.281 383.284 530.813 383.428 530.261 383.716C529.709 384.004 529.241 384.472 528.857 385.12C528.089 386.416 527.705 387.784 527.705 389.224C527.705 390.64 527.981 391.804 528.533 392.716C529.109 393.604 529.913 394.048 530.945 394.048C532.001 394.048 532.829 393.532 533.429 392.5C534.029 391.468 534.329 390.148 534.329 388.54C534.329 386.74 534.233 385.588 534.041 385.084ZM552.225 391.744L552.261 395.452C552.261 395.884 552.057 396.28 551.649 396.64C551.265 397 550.881 397.18 550.497 397.18C549.945 397.18 549.597 396.748 549.453 395.884C549.429 395.692 549.333 393.94 549.165 390.628C548.997 387.292 548.673 384.676 548.193 382.78C547.977 381.868 547.869 381.328 547.869 381.16C547.869 380.368 548.349 379.972 549.309 379.972C549.717 379.972 550.041 380.128 550.281 380.44C550.521 380.752 550.665 381.076 550.713 381.412C550.785 381.724 550.845 382.156 550.893 382.708C550.941 383.26 550.977 383.608 551.001 383.752C551.505 382.552 552.261 381.652 553.269 381.052C554.277 380.452 555.381 380.152 556.581 380.152C558.549 380.152 559.533 380.656 559.533 381.664C559.533 382.168 559.353 382.576 558.993 382.888C558.657 383.176 558.261 383.32 557.805 383.32C555.765 383.32 554.325 383.968 553.485 385.264C552.645 386.56 552.225 388.72 552.225 391.744ZM571.476 380.188C572.532 380.188 573.06 381.088 573.06 382.888C573.06 383.08 573.06 383.284 573.06 383.5L572.988 386.02C572.964 386.812 572.952 387.592 572.952 388.36L573.492 396.496C573.492 397.096 572.88 397.396 571.656 397.396C571.584 397.396 571.404 397.396 571.116 397.396C570.852 397.396 570.66 397.288 570.54 397.072C570.444 396.856 570.432 396.592 570.504 396.28C570.6 395.968 570.576 395.62 570.432 395.236C569.328 396.412 567.864 397 566.04 397C562.656 397 560.964 394.384 560.964 389.152C560.964 386.248 561.504 384.052 562.584 382.564C563.688 381.076 565.26 380.332 567.3 380.332C568.26 380.332 569.22 380.5 570.18 380.836C570.492 380.404 570.924 380.188 571.476 380.188ZM567.732 383.464C566.364 383.464 565.344 383.86 564.672 384.652C564 385.444 563.664 386.896 563.664 389.008C563.664 392.56 564.624 394.336 566.544 394.336C567.048 394.336 567.6 394.108 568.2 393.652C568.824 393.196 569.256 392.68 569.496 392.104C569.952 390.808 570.18 389.392 570.18 387.856C570.18 386.32 569.988 385.204 569.604 384.508C569.244 383.812 568.62 383.464 567.732 383.464ZM576.898 395.884L576.502 381.268C576.502 380.812 576.658 380.44 576.97 380.152C577.282 379.864 577.594 379.72 577.906 379.72C578.674 379.72 579.118 380.044 579.238 380.692C579.334 381.34 579.382 382.012 579.382 382.708C580.678 381.004 582.298 380.152 584.242 380.152C587.218 380.152 588.706 383.548 588.706 390.34C588.706 390.964 588.706 391.912 588.706 393.184C588.706 394.432 588.634 395.344 588.49 395.92C588.322 396.64 587.806 397 586.942 397C586.366 397 586.078 396.616 586.078 395.848L586.114 393.832C586.114 391.048 586.018 389.152 585.826 388.144C585.658 387.112 585.49 386.296 585.322 385.696C584.914 384.4 584.254 383.752 583.342 383.752C582.142 383.752 581.302 384.184 580.822 385.048C580.294 385.984 579.982 387.088 579.886 388.36C579.718 390.592 579.634 392.956 579.634 395.452C579.634 395.932 579.454 396.316 579.094 396.604C578.734 396.892 578.302 397.036 577.798 397.036C577.198 397.036 576.898 396.652 576.898 395.884ZM600.411 380.152L600.375 373.204C600.375 371.908 600.783 371.26 601.599 371.26C602.439 371.26 602.907 371.62 603.003 372.34C603.051 372.652 603.111 374.536 603.183 377.992C603.255 381.448 603.363 384.688 603.507 387.712C603.675 390.736 603.759 393.556 603.759 396.172C603.759 396.892 603.219 397.252 602.139 397.252C601.419 397.252 601.059 396.748 601.059 395.74C600.027 396.556 598.803 396.964 597.387 396.964C595.587 396.964 594.123 396.292 592.995 394.948C591.891 393.604 591.339 391.948 591.339 389.98C591.339 388.012 591.735 386.176 592.527 384.472C593.343 382.744 594.603 381.508 596.307 380.764C597.363 380.308 598.383 380.08 599.367 380.08C599.727 380.08 600.075 380.104 600.411 380.152ZM600.591 385.084C600.423 384.556 600.219 384.16 599.979 383.896C599.739 383.608 599.475 383.44 599.187 383.392C598.923 383.32 598.599 383.284 598.215 383.284C597.831 383.284 597.363 383.428 596.811 383.716C596.259 384.004 595.791 384.472 595.407 385.12C594.639 386.416 594.255 387.784 594.255 389.224C594.255 390.64 594.531 391.804 595.083 392.716C595.659 393.604 596.463 394.048 597.495 394.048C598.551 394.048 599.379 393.532 599.979 392.5C600.579 391.468 600.879 390.148 600.879 388.54C600.879 386.74 600.783 385.588 600.591 385.084ZM612.207 380.224C613.935 380.224 615.351 381.052 616.455 382.708C617.583 384.364 618.147 386.356 618.147 388.684C618.147 390.988 617.571 392.956 616.419 394.588C615.291 396.22 613.779 397.036 611.883 397.036C610.011 397.036 608.499 396.208 607.347 394.552C606.195 392.872 605.619 391.012 605.619 388.972C605.619 386.356 606.147 384.268 607.203 382.708C608.331 381.052 609.999 380.224 612.207 380.224ZM611.775 383.176C610.767 383.176 609.939 383.704 609.291 384.76C608.643 385.816 608.319 386.932 608.319 388.108C608.319 389.932 608.679 391.324 609.399 392.284C610.119 393.244 610.935 393.724 611.847 393.724C613.479 393.724 614.523 393.016 614.979 391.6C615.171 390.928 615.267 390.088 615.267 389.08C615.267 385.144 614.103 383.176 611.775 383.176ZM622.406 397.036C621.782 397.036 621.41 396.688 621.29 395.992C621.29 391.144 621.002 386.824 620.426 383.032C620.426 382.552 620.594 382.12 620.93 381.736C621.29 381.352 621.686 381.16 622.118 381.16C622.574 381.16 622.91 381.412 623.126 381.916C624.014 380.74 625.202 380.152 626.69 380.152C628.586 380.152 630.05 381.064 631.082 382.888C632.282 381.16 633.866 380.296 635.834 380.296C637.826 380.296 639.314 381.088 640.298 382.672C640.946 383.656 641.402 384.952 641.666 386.56C641.93 388.168 642.062 390.448 642.062 393.4C642.062 394.552 641.942 395.452 641.702 396.1C641.462 396.724 640.958 397.036 640.19 397.036C639.566 397.036 639.254 396.64 639.254 395.848L639.362 391.348C639.362 385.948 637.958 383.248 635.15 383.248C634.262 383.248 633.638 383.56 633.278 384.184C632.87 384.928 632.63 385.708 632.558 386.524C632.462 387.964 632.414 389.272 632.414 390.448V395.668C632.414 396.052 632.222 396.376 631.838 396.64C631.454 396.904 631.058 397.036 630.65 397.036C630.122 397.036 629.786 396.688 629.642 395.992L629.75 388.54C629.75 385.9 629.306 384.256 628.418 383.608C627.986 383.296 627.326 383.14 626.438 383.14C625.574 383.14 624.926 383.464 624.494 384.112C624.086 384.76 623.882 385.804 623.882 387.244L624.098 393.94C624.098 396.004 623.534 397.036 622.406 397.036ZM663.452 395.524C662.588 396.532 661.496 397.036 660.176 397.036C658.856 397.036 657.716 396.628 656.756 395.812C654.74 394.252 653.732 391.864 653.732 388.648C653.732 386.128 654.428 384.112 655.82 382.6C657.212 381.064 658.928 380.296 660.968 380.296C663.008 380.296 664.4 380.992 665.144 382.384C665.792 383.608 666.116 385.456 666.116 387.928L666.044 390.88C666.044 392.272 666.104 394.204 666.224 396.676C666.368 399.124 666.44 400.972 666.44 402.22C666.44 404.284 665.924 405.796 664.892 406.756C663.884 407.74 662.336 408.232 660.248 408.232C659 408.232 657.728 407.968 656.432 407.44C655.136 406.912 654.488 406.3 654.488 405.604C654.488 405.1 654.62 404.716 654.884 404.452C655.172 404.188 655.496 404.056 655.856 404.056C656.216 404.056 657.02 404.32 658.268 404.848C659.54 405.376 660.452 405.64 661.004 405.64C662.732 405.64 663.596 404.224 663.596 401.392C663.596 398.56 663.548 396.604 663.452 395.524ZM663.416 387.928C663.416 386.176 663.152 384.952 662.624 384.256C662.12 383.536 661.316 383.176 660.212 383.176C659.108 383.176 658.22 383.68 657.548 384.688C656.876 385.696 656.54 386.98 656.54 388.54C656.54 390.076 656.852 391.3 657.476 392.212C658.124 393.124 659.108 393.58 660.428 393.58C661.748 393.58 662.6 393.016 662.984 391.888C663.272 390.976 663.416 389.656 663.416 387.928ZM679.195 380.188C680.251 380.188 680.779 381.088 680.779 382.888C680.779 383.08 680.779 383.284 680.779 383.5L680.707 386.02C680.683 386.812 680.671 387.592 680.671 388.36L681.211 396.496C681.211 397.096 680.599 397.396 679.375 397.396C679.303 397.396 679.123 397.396 678.835 397.396C678.571 397.396 678.379 397.288 678.259 397.072C678.163 396.856 678.151 396.592 678.223 396.28C678.319 395.968 678.295 395.62 678.151 395.236C677.047 396.412 675.583 397 673.759 397C670.375 397 668.683 394.384 668.683 389.152C668.683 386.248 669.223 384.052 670.303 382.564C671.407 381.076 672.979 380.332 675.019 380.332C675.979 380.332 676.939 380.5 677.899 380.836C678.211 380.404 678.643 380.188 679.195 380.188ZM675.451 383.464C674.083 383.464 673.063 383.86 672.391 384.652C671.719 385.444 671.383 386.896 671.383 389.008C671.383 392.56 672.343 394.336 674.263 394.336C674.767 394.336 675.319 394.108 675.919 393.652C676.543 393.196 676.975 392.68 677.215 392.104C677.671 390.808 677.899 389.392 677.899 387.856C677.899 386.32 677.707 385.204 677.323 384.508C676.963 383.812 676.339 383.464 675.451 383.464ZM685.301 397.036C684.677 397.036 684.305 396.688 684.185 395.992C684.185 391.144 683.897 386.824 683.321 383.032C683.321 382.552 683.489 382.12 683.825 381.736C684.185 381.352 684.581 381.16 685.013 381.16C685.469 381.16 685.805 381.412 686.021 381.916C686.909 380.74 688.097 380.152 689.585 380.152C691.481 380.152 692.945 381.064 693.977 382.888C695.177 381.16 696.761 380.296 698.729 380.296C700.721 380.296 702.209 381.088 703.193 382.672C703.841 383.656 704.297 384.952 704.561 386.56C704.825 388.168 704.957 390.448 704.957 393.4C704.957 394.552 704.837 395.452 704.597 396.1C704.357 396.724 703.853 397.036 703.085 397.036C702.461 397.036 702.149 396.64 702.149 395.848L702.257 391.348C702.257 385.948 700.853 383.248 698.045 383.248C697.157 383.248 696.533 383.56 696.173 384.184C695.765 384.928 695.525 385.708 695.453 386.524C695.357 387.964 695.309 389.272 695.309 390.448V395.668C695.309 396.052 695.117 396.376 694.733 396.64C694.349 396.904 693.953 397.036 693.545 397.036C693.017 397.036 692.681 396.688 692.537 395.992L692.645 388.54C692.645 385.9 692.201 384.256 691.313 383.608C690.881 383.296 690.221 383.14 689.333 383.14C688.469 383.14 687.821 383.464 687.389 384.112C686.981 384.76 686.777 385.804 686.777 387.244L686.993 393.94C686.993 396.004 686.429 397.036 685.301 397.036ZM712.902 380.332C714.174 380.332 715.386 380.704 716.538 381.448C717.69 382.192 718.266 383.116 718.266 384.22C718.266 385.3 717.798 386.356 716.862 387.388C715.926 388.396 714.678 389.008 713.118 389.224C712.446 389.32 711.438 389.368 710.094 389.368C710.358 391.408 710.874 392.752 711.642 393.4C711.882 393.664 712.206 393.796 712.614 393.796C714.102 393.796 715.35 393.328 716.358 392.392C717.366 391.432 718.086 390.952 718.518 390.952C718.71 390.952 718.998 391.132 719.382 391.492C719.766 391.852 719.958 392.188 719.958 392.5C719.958 393.124 719.202 394.024 717.69 395.2C717.018 395.752 716.202 396.22 715.242 396.604C714.306 396.964 713.43 397.144 712.614 397.144C710.526 397.144 708.99 395.8 708.006 393.112C707.382 391.456 707.07 389.632 707.07 387.64C707.07 385.648 707.538 383.932 708.474 382.492C709.41 381.052 710.886 380.332 712.902 380.332ZM713.082 382.816C712.17 382.816 711.39 383.332 710.742 384.364C710.502 384.724 710.274 385.54 710.058 386.812C713.418 386.812 715.098 385.984 715.098 384.328C715.098 383.32 714.426 382.816 713.082 382.816ZM730.701 376.48C730.701 375.904 730.389 375.388 729.765 374.932C729.165 374.476 728.553 374.248 727.929 374.248C727.305 374.248 726.729 374.392 726.201 374.68C725.673 374.944 725.289 375.268 725.049 375.652C724.377 376.612 723.861 377.092 723.501 377.092C722.469 377.092 721.953 376.588 721.953 375.58C721.953 374.668 722.589 373.744 723.861 372.808C725.133 371.848 726.465 371.368 727.857 371.368C729.825 371.368 731.385 372.172 732.537 373.78C733.161 374.668 733.473 375.568 733.473 376.48C733.473 378.064 732.825 379.588 731.529 381.052C730.977 381.676 730.425 382.264 729.873 382.816C728.553 384.136 727.893 385.012 727.893 385.444C727.893 385.876 728.061 386.356 728.397 386.884C728.709 387.412 728.865 387.772 728.865 387.964C728.865 388.156 728.805 388.372 728.685 388.612C728.397 389.044 727.977 389.26 727.425 389.26C726.897 389.26 726.357 388.9 725.805 388.18C725.253 387.436 724.977 386.62 724.977 385.732C724.977 384.172 725.565 382.756 726.741 381.484C727.293 380.884 727.809 380.38 728.289 379.972C729.897 378.46 730.701 377.296 730.701 376.48ZM725.841 393.976C725.841 393.544 725.997 393.148 726.309 392.788C726.645 392.428 727.101 392.248 727.677 392.248C728.253 392.248 728.661 392.356 728.901 392.572C729.165 392.788 729.297 393.256 729.297 393.976C729.297 395.248 728.721 395.884 727.569 395.884C727.137 395.884 726.741 395.668 726.381 395.236C726.021 394.804 725.841 394.384 725.841 393.976Z" fill="black"/>
<defs>
<clipPath id="clip0">
<rect width="232" height="64" fill="white" transform="translate(351 242)"/>
</clipPath>
<clipPath id="clip1">
<rect width="230" height="64" fill="white" transform="translate(354 451)"/>
</clipPath>
</defs>
</svg>
