<svg width="944" height="667" viewBox="0 0 944 667" fill="none" xmlns="http://www.w3.org/2000/svg">
<g filter="url(#filter0_d)">
<rect width="936" height="659" transform="translate(4)" fill="white"/>
<rect width="936" height="659" transform="translate(4)" fill="url(#paint0_linear)"/>
<rect x="358" y="244" width="229" height="60" fill="white"/>
<g clip-path="url(#clip0)">
<path d="M357 244H585" stroke="black" stroke-width="3" stroke-linecap="round" stroke-linejoin="round"/>
<path d="M356 304H586" stroke="black" stroke-width="3" stroke-linecap="round" stroke-linejoin="round"/>
<path d="M357 305V245" stroke="black" stroke-width="3" stroke-linecap="round" stroke-linejoin="round"/>
<path d="M585 301V245" stroke="black" stroke-width="3" stroke-linecap="round" stroke-linejoin="round"/>
</g>
<path d="M391.267 267.424L400.987 267.28C401.451 267.424 401.683 267.656 401.683 267.976C401.683 268.776 401.355 269.176 400.699 269.176C399.499 269.176 398.227 269.208 396.883 269.272C396.803 270.648 396.763 271.688 396.763 272.392C396.763 273.08 396.763 273.52 396.763 273.712L396.859 282.136C396.859 282.632 396.731 282.92 396.475 283C396.283 283.064 396.043 283.096 395.755 283.096C395.291 283.096 395.035 282.832 394.987 282.304C394.891 281.072 394.843 278.776 394.843 275.416C394.843 272.04 394.891 270.008 394.987 269.32C394.651 269.336 394.155 269.344 393.499 269.344C392.843 269.344 392.027 269.336 391.051 269.32C390.795 269.32 390.595 269.24 390.451 269.08C390.307 268.92 390.235 268.728 390.235 268.504C390.235 268.264 390.331 268.032 390.523 267.808C390.731 267.584 390.979 267.456 391.267 267.424ZM410.006 271.912C410.214 271.912 410.414 271.984 410.606 272.128C410.814 272.272 410.918 272.432 410.918 272.608C410.918 273.072 410.238 275.584 408.878 280.144C407.518 284.704 406.51 287.904 405.854 289.744C405.71 290.176 405.486 290.392 405.182 290.392C404.878 290.392 404.638 290.28 404.462 290.056C404.286 289.848 404.198 289.536 404.198 289.12C404.198 288.704 404.462 287.704 404.99 286.12C405.534 284.552 405.862 283.552 405.974 283.12C405.574 282.448 404.222 279.088 401.918 273.04C401.886 272.96 401.87 272.856 401.87 272.728C401.87 272.6 401.966 272.432 402.158 272.224C402.35 272.016 402.614 271.912 402.95 271.912C403.286 271.912 403.558 272.08 403.766 272.416C403.99 272.992 404.358 274 404.87 275.44C405.382 276.864 405.774 277.896 406.046 278.536C406.334 279.176 406.606 279.84 406.862 280.528C407.086 279.776 407.47 278.32 408.014 276.16C408.558 273.984 408.87 272.744 408.95 272.44C409.014 272.088 409.366 271.912 410.006 271.912ZM416.29 282.976C415.746 282.976 415.242 282.792 414.778 282.424C414.778 282.424 414.674 282.336 414.466 282.16V289.36C414.37 289.68 414.202 289.944 413.962 290.152C413.722 290.376 413.466 290.488 413.194 290.488C412.778 290.488 412.57 290.208 412.57 289.648V272.92C412.666 272.504 412.778 272.208 412.906 272.032C413.05 271.856 413.266 271.768 413.554 271.768C413.858 271.768 414.05 271.84 414.13 271.984C414.226 272.112 414.338 272.48 414.466 273.088C414.53 272.768 414.786 272.472 415.234 272.2C415.682 271.928 416.282 271.792 417.034 271.792C418.666 271.792 419.826 272.384 420.514 273.568C421.202 274.752 421.546 276.152 421.546 277.768C421.546 279.368 421.074 280.64 420.13 281.584C419.202 282.512 417.922 282.976 416.29 282.976ZM414.466 275.776V280.24C414.562 280.288 414.674 280.368 414.802 280.48C415.266 280.896 415.77 281.104 416.314 281.104C418.522 281.104 419.626 279.968 419.626 277.696C419.626 275.76 419.13 274.536 418.138 274.024C417.722 273.8 417.21 273.688 416.602 273.688C416.01 273.768 415.506 274.032 415.09 274.48C414.674 274.912 414.466 275.344 414.466 275.776ZM426.22 271.888C427.068 271.888 427.876 272.136 428.644 272.632C429.412 273.128 429.796 273.744 429.796 274.48C429.796 275.2 429.484 275.904 428.86 276.592C428.236 277.264 427.404 277.672 426.364 277.816C425.916 277.88 425.244 277.912 424.348 277.912C424.524 279.272 424.868 280.168 425.38 280.6C425.54 280.776 425.756 280.864 426.028 280.864C427.02 280.864 427.852 280.552 428.524 279.928C429.196 279.288 429.676 278.968 429.964 278.968C430.092 278.968 430.284 279.088 430.54 279.328C430.796 279.568 430.924 279.792 430.924 280C430.924 280.416 430.42 281.016 429.412 281.8C428.964 282.168 428.42 282.48 427.78 282.736C427.156 282.976 426.572 283.096 426.028 283.096C424.636 283.096 423.612 282.2 422.956 280.408C422.54 279.304 422.332 278.088 422.332 276.76C422.332 275.432 422.644 274.288 423.268 273.328C423.892 272.368 424.876 271.888 426.22 271.888ZM426.34 273.544C425.732 273.544 425.212 273.888 424.78 274.576C424.62 274.816 424.468 275.36 424.324 276.208C426.564 276.208 427.684 275.656 427.684 274.552C427.684 273.88 427.236 273.544 426.34 273.544ZM445.513 271.912C445.721 271.912 445.921 271.984 446.113 272.128C446.321 272.272 446.425 272.432 446.425 272.608C446.425 273.072 445.745 275.584 444.385 280.144C443.025 284.704 442.017 287.904 441.361 289.744C441.217 290.176 440.993 290.392 440.689 290.392C440.385 290.392 440.145 290.28 439.969 290.056C439.793 289.848 439.705 289.536 439.705 289.12C439.705 288.704 439.969 287.704 440.497 286.12C441.041 284.552 441.369 283.552 441.481 283.12C441.081 282.448 439.729 279.088 437.425 273.04C437.393 272.96 437.377 272.856 437.377 272.728C437.377 272.6 437.473 272.432 437.665 272.224C437.857 272.016 438.121 271.912 438.457 271.912C438.793 271.912 439.065 272.08 439.273 272.416C439.497 272.992 439.865 274 440.377 275.44C440.889 276.864 441.281 277.896 441.553 278.536C441.841 279.176 442.113 279.84 442.369 280.528C442.593 279.776 442.977 278.32 443.521 276.16C444.065 273.984 444.377 272.744 444.457 272.44C444.521 272.088 444.873 271.912 445.513 271.912ZM452.254 271.816C453.406 271.816 454.35 272.368 455.086 273.472C455.838 274.576 456.214 275.904 456.214 277.456C456.214 278.992 455.83 280.304 455.062 281.392C454.31 282.48 453.302 283.024 452.038 283.024C450.79 283.024 449.782 282.472 449.014 281.368C448.246 280.248 447.862 279.008 447.862 277.648C447.862 275.904 448.214 274.512 448.918 273.472C449.67 272.368 450.782 271.816 452.254 271.816ZM451.966 273.784C451.294 273.784 450.742 274.136 450.31 274.84C449.878 275.544 449.662 276.288 449.662 277.072C449.662 278.288 449.902 279.216 450.382 279.856C450.862 280.496 451.406 280.816 452.014 280.816C453.102 280.816 453.798 280.344 454.102 279.4C454.23 278.952 454.294 278.392 454.294 277.72C454.294 275.096 453.518 273.784 451.966 273.784ZM457.637 272.728C457.701 272.456 457.837 272.232 458.045 272.056C458.253 271.864 458.461 271.768 458.669 271.768C458.893 271.768 459.061 271.808 459.173 271.888C459.301 271.968 459.373 272.04 459.389 272.104C459.421 272.168 459.453 272.28 459.485 272.44C459.389 273.688 459.341 274.816 459.341 275.824C459.341 276.816 459.461 277.96 459.701 279.256C459.941 280.536 460.205 281.176 460.493 281.176C460.925 281.176 461.469 280.936 462.125 280.456C462.797 279.976 463.277 279.472 463.565 278.944C463.373 276.64 463.277 274.664 463.277 273.016C463.277 272.68 463.381 272.392 463.589 272.152C463.813 271.912 464.077 271.792 464.381 271.792C464.877 271.792 465.125 272.128 465.125 272.8C465.125 273.936 465.205 275.624 465.365 277.864C465.541 280.104 465.717 281.528 465.893 282.136C465.925 282.264 465.941 282.416 465.941 282.592C465.941 282.752 465.829 282.904 465.605 283.048C465.397 283.208 465.117 283.288 464.765 283.288C464.429 283.288 464.205 283.096 464.093 282.712C464.061 282.392 463.981 281.912 463.853 281.272C462.733 282.44 461.605 283.024 460.469 283.024C459.941 283.024 459.469 282.824 459.053 282.424C458.637 282.024 458.309 281.48 458.069 280.792C457.653 279.464 457.445 278.216 457.445 277.048C457.445 275.88 457.509 274.44 457.637 272.728ZM470.391 279.496L470.415 281.968C470.415 282.256 470.279 282.52 470.007 282.76C469.751 283 469.495 283.12 469.239 283.12C468.871 283.12 468.639 282.832 468.543 282.256C468.527 282.128 468.463 280.96 468.351 278.752C468.239 276.528 468.023 274.784 467.703 273.52C467.559 272.912 467.487 272.552 467.487 272.44C467.487 271.912 467.807 271.648 468.447 271.648C468.719 271.648 468.935 271.752 469.095 271.96C469.255 272.168 469.351 272.384 469.383 272.608C469.431 272.816 469.471 273.104 469.503 273.472C469.535 273.84 469.559 274.072 469.575 274.168C469.911 273.368 470.415 272.768 471.087 272.368C471.759 271.968 472.495 271.768 473.295 271.768C474.607 271.768 475.263 272.104 475.263 272.776C475.263 273.112 475.143 273.384 474.903 273.592C474.679 273.784 474.415 273.88 474.111 273.88C472.751 273.88 471.791 274.312 471.231 275.176C470.671 276.04 470.391 277.48 470.391 279.496ZM490.628 281.92C490.628 282.672 490.284 283.048 489.596 283.048C489.308 283.048 488.916 282.344 488.42 280.936C487.924 279.512 487.26 278.416 486.428 277.648C486.348 277.76 486.004 278.08 485.396 278.608C484.804 279.12 484.452 279.432 484.34 279.544V281.944C484.308 282.184 484.268 282.368 484.22 282.496C484.172 282.624 484.06 282.744 483.884 282.856C483.724 282.968 483.5 283.024 483.212 283.024C482.78 283.024 482.564 282.76 482.564 282.232C482.564 280.744 482.5 278.44 482.372 275.32C482.244 272.184 482.18 269.376 482.18 266.896C482.18 266.592 482.3 266.352 482.54 266.176C482.796 266 483.06 265.912 483.332 265.912C483.7 265.912 483.924 266.144 484.004 266.608V270.856C484.004 271.368 484.012 271.752 484.028 272.008C484.044 272.264 484.06 272.648 484.076 273.16C484.108 274.216 484.164 275.408 484.244 276.736C484.708 276.384 485.3 275.832 486.02 275.08C486.756 274.312 487.308 273.656 487.676 273.112C488.252 272.2 488.78 271.744 489.26 271.744C489.388 271.744 489.516 271.776 489.644 271.84C489.98 272.032 490.148 272.256 490.148 272.512C490.148 272.768 490.036 273.104 489.812 273.52C489.236 274.512 488.572 275.416 487.82 276.232C488.54 277.032 489.26 278.176 489.98 279.664C490.412 280.624 490.628 281.376 490.628 281.92ZM495.477 271.888C496.325 271.888 497.133 272.136 497.901 272.632C498.669 273.128 499.053 273.744 499.053 274.48C499.053 275.2 498.741 275.904 498.117 276.592C497.493 277.264 496.661 277.672 495.621 277.816C495.173 277.88 494.501 277.912 493.605 277.912C493.781 279.272 494.125 280.168 494.637 280.6C494.797 280.776 495.013 280.864 495.285 280.864C496.277 280.864 497.109 280.552 497.781 279.928C498.453 279.288 498.933 278.968 499.221 278.968C499.349 278.968 499.541 279.088 499.797 279.328C500.053 279.568 500.181 279.792 500.181 280C500.181 280.416 499.677 281.016 498.669 281.8C498.221 282.168 497.677 282.48 497.037 282.736C496.413 282.976 495.829 283.096 495.285 283.096C493.893 283.096 492.869 282.2 492.213 280.408C491.797 279.304 491.589 278.088 491.589 276.76C491.589 275.432 491.901 274.288 492.525 273.328C493.149 272.368 494.133 271.888 495.477 271.888ZM495.597 273.544C494.989 273.544 494.469 273.888 494.037 274.576C493.877 274.816 493.725 275.36 493.581 276.208C495.821 276.208 496.941 275.656 496.941 274.552C496.941 273.88 496.493 273.544 495.597 273.544ZM509.24 271.912C509.448 271.912 509.648 271.984 509.84 272.128C510.048 272.272 510.152 272.432 510.152 272.608C510.152 273.072 509.472 275.584 508.112 280.144C506.752 284.704 505.744 287.904 505.088 289.744C504.944 290.176 504.72 290.392 504.416 290.392C504.112 290.392 503.872 290.28 503.696 290.056C503.52 289.848 503.432 289.536 503.432 289.12C503.432 288.704 503.696 287.704 504.224 286.12C504.768 284.552 505.096 283.552 505.208 283.12C504.808 282.448 503.456 279.088 501.152 273.04C501.12 272.96 501.104 272.856 501.104 272.728C501.104 272.6 501.2 272.432 501.392 272.224C501.584 272.016 501.848 271.912 502.184 271.912C502.52 271.912 502.792 272.08 503 272.416C503.224 272.992 503.592 274 504.104 275.44C504.616 276.864 505.008 277.896 505.28 278.536C505.568 279.176 505.84 279.84 506.096 280.528C506.32 279.776 506.704 278.32 507.248 276.16C507.792 273.984 508.104 272.744 508.184 272.44C508.248 272.088 508.6 271.912 509.24 271.912ZM519.832 275.224L520.024 280.888C520.024 281.592 519.992 282 519.928 282.112C519.896 282.4 519.8 282.624 519.64 282.784C519.496 282.944 519.208 283.024 518.776 283.024C518.568 283.024 518.4 282.896 518.272 282.64C518.144 282.368 518.072 282.064 518.056 281.728C517.944 278.912 517.792 276.272 517.6 273.808C517.424 271.328 517.336 269.024 517.336 266.896C517.336 266.56 517.448 266.296 517.672 266.104C517.896 265.912 518.16 265.816 518.464 265.816C518.912 265.816 519.176 266.2 519.256 266.968C519.352 267.736 519.408 268.696 519.424 269.848C519.456 271 519.488 271.84 519.52 272.368C520.32 271.952 521.12 271.744 521.92 271.744C523.776 271.744 524.952 272.56 525.448 274.192C525.736 275.12 525.88 276.312 525.88 277.768C525.88 278.248 525.832 279.008 525.736 280.048C525.656 281.072 525.608 281.736 525.592 282.04C525.576 282.344 525.44 282.584 525.184 282.76C524.944 282.92 524.68 283 524.392 283C523.944 283 523.72 282.76 523.72 282.28L523.888 278.104C523.888 277.752 523.872 277.168 523.84 276.352C523.808 275.536 523.64 274.888 523.336 274.408C523.048 273.928 522.536 273.688 521.8 273.688C520.488 273.688 519.832 274.2 519.832 275.224ZM530.798 271.888C531.646 271.888 532.454 272.136 533.222 272.632C533.99 273.128 534.374 273.744 534.374 274.48C534.374 275.2 534.062 275.904 533.438 276.592C532.814 277.264 531.982 277.672 530.942 277.816C530.494 277.88 529.822 277.912 528.926 277.912C529.102 279.272 529.446 280.168 529.958 280.6C530.118 280.776 530.334 280.864 530.606 280.864C531.598 280.864 532.43 280.552 533.102 279.928C533.774 279.288 534.254 278.968 534.542 278.968C534.67 278.968 534.862 279.088 535.118 279.328C535.374 279.568 535.502 279.792 535.502 280C535.502 280.416 534.998 281.016 533.99 281.8C533.542 282.168 532.998 282.48 532.358 282.736C531.734 282.976 531.15 283.096 530.606 283.096C529.214 283.096 528.19 282.2 527.534 280.408C527.118 279.304 526.91 278.088 526.91 276.76C526.91 275.432 527.222 274.288 527.846 273.328C528.47 272.368 529.454 271.888 530.798 271.888ZM530.918 273.544C530.31 273.544 529.79 273.888 529.358 274.576C529.198 274.816 529.046 275.36 528.902 276.208C531.142 276.208 532.262 275.656 532.262 274.552C532.262 273.88 531.814 273.544 530.918 273.544ZM540 279.496L540.024 281.968C540.024 282.256 539.888 282.52 539.616 282.76C539.36 283 539.104 283.12 538.848 283.12C538.48 283.12 538.248 282.832 538.152 282.256C538.136 282.128 538.072 280.96 537.96 278.752C537.848 276.528 537.632 274.784 537.312 273.52C537.168 272.912 537.096 272.552 537.096 272.44C537.096 271.912 537.416 271.648 538.056 271.648C538.328 271.648 538.544 271.752 538.704 271.96C538.864 272.168 538.96 272.384 538.992 272.608C539.04 272.816 539.08 273.104 539.112 273.472C539.144 273.84 539.168 274.072 539.184 274.168C539.52 273.368 540.024 272.768 540.696 272.368C541.368 271.968 542.104 271.768 542.904 271.768C544.216 271.768 544.872 272.104 544.872 272.776C544.872 273.112 544.752 273.384 544.512 273.592C544.288 273.784 544.024 273.88 543.72 273.88C542.36 273.88 541.4 274.312 540.84 275.176C540.28 276.04 540 277.48 540 279.496ZM549.595 271.888C550.443 271.888 551.251 272.136 552.019 272.632C552.787 273.128 553.171 273.744 553.171 274.48C553.171 275.2 552.859 275.904 552.235 276.592C551.611 277.264 550.779 277.672 549.739 277.816C549.291 277.88 548.619 277.912 547.723 277.912C547.899 279.272 548.243 280.168 548.755 280.6C548.915 280.776 549.131 280.864 549.403 280.864C550.395 280.864 551.227 280.552 551.899 279.928C552.571 279.288 553.051 278.968 553.339 278.968C553.467 278.968 553.659 279.088 553.915 279.328C554.171 279.568 554.299 279.792 554.299 280C554.299 280.416 553.795 281.016 552.787 281.8C552.339 282.168 551.795 282.48 551.155 282.736C550.531 282.976 549.947 283.096 549.403 283.096C548.011 283.096 546.987 282.2 546.331 280.408C545.915 279.304 545.707 278.088 545.707 276.76C545.707 275.432 546.019 274.288 546.643 273.328C547.267 272.368 548.251 271.888 549.595 271.888ZM549.715 273.544C549.107 273.544 548.587 273.888 548.155 274.576C547.995 274.816 547.843 275.36 547.699 276.208C549.939 276.208 551.059 275.656 551.059 274.552C551.059 273.88 550.611 273.544 549.715 273.544Z" fill="black"/>
<rect x="360" y="453" width="227" height="60" fill="white"/>
<g clip-path="url(#clip1)">
<path d="M360 453H586" stroke="black" stroke-width="3" stroke-linecap="round" stroke-linejoin="round"/>
<path d="M359 513H587" stroke="black" stroke-width="3" stroke-linecap="round" stroke-linejoin="round"/>
<path d="M360 514V454" stroke="black" stroke-width="3" stroke-linecap="round" stroke-linejoin="round"/>
<path d="M586 510V454" stroke="black" stroke-width="3" stroke-linecap="round" stroke-linejoin="round"/>
</g>
<path d="M425.834 476.76C425.834 476.584 425.962 476.408 426.218 476.232C426.474 476.056 426.722 475.968 426.962 475.968C427.218 475.968 427.41 476.024 427.538 476.136C427.682 476.248 427.762 476.384 427.778 476.544C428.114 480.864 428.282 483.6 428.282 484.752C428.282 485.888 428.266 486.744 428.234 487.32C428.202 487.896 428.122 488.52 427.994 489.192C427.866 489.848 427.682 490.368 427.442 490.752C426.914 491.648 426.066 492.096 424.898 492.096C423.73 492.096 422.778 491.712 422.042 490.944C421.306 490.16 420.938 489.04 420.938 487.584C420.938 487.344 421.058 487.128 421.298 486.936C421.554 486.728 421.826 486.624 422.114 486.624C422.466 486.624 422.682 486.952 422.762 487.608C422.97 489.464 423.666 490.392 424.85 490.392C425.154 490.392 425.41 490.296 425.618 490.104C425.842 489.896 426.01 489.656 426.122 489.384C426.234 489.096 426.322 488.72 426.386 488.256C426.482 487.584 426.53 486.784 426.53 485.856C426.53 484.912 426.41 483.2 426.17 480.72C425.946 478.24 425.834 476.92 425.834 476.76ZM434.14 480.816C435.292 480.816 436.236 481.368 436.972 482.472C437.724 483.576 438.1 484.904 438.1 486.456C438.1 487.992 437.716 489.304 436.948 490.392C436.196 491.48 435.188 492.024 433.924 492.024C432.676 492.024 431.668 491.472 430.9 490.368C430.132 489.248 429.748 488.008 429.748 486.648C429.748 484.904 430.1 483.512 430.804 482.472C431.556 481.368 432.668 480.816 434.14 480.816ZM433.852 482.784C433.18 482.784 432.628 483.136 432.196 483.84C431.764 484.544 431.548 485.288 431.548 486.072C431.548 487.288 431.788 488.216 432.268 488.856C432.748 489.496 433.292 489.816 433.9 489.816C434.988 489.816 435.684 489.344 435.988 488.4C436.116 487.952 436.18 487.392 436.18 486.72C436.18 484.096 435.404 482.784 433.852 482.784ZM441.156 476.832C441.444 476.832 441.716 476.968 441.972 477.24C442.228 477.512 442.356 477.8 442.356 478.104C442.356 478.392 442.212 478.688 441.924 478.992C441.652 479.296 441.364 479.448 441.06 479.448C440.756 479.448 440.476 479.32 440.22 479.064C439.98 478.808 439.86 478.48 439.86 478.08C439.86 477.312 440.276 476.896 441.108 476.832C441.124 476.832 441.14 476.832 441.156 476.832ZM442.164 489.408L442.188 491.088C442.188 491.392 442.068 491.648 441.828 491.856C441.588 492.048 441.332 492.144 441.06 492.144C440.66 492.144 440.452 491.944 440.436 491.544C440.228 486.44 440.124 483.616 440.124 483.072C440.124 482.528 440.148 481.864 440.196 481.08C440.228 480.792 440.412 480.648 440.748 480.648C441.596 480.648 442.076 480.992 442.188 481.68C442.236 482.032 442.26 482.312 442.26 482.52L442.164 484.032V489.408ZM445.851 491.256L445.587 481.512C445.587 481.208 445.691 480.96 445.899 480.768C446.107 480.576 446.315 480.48 446.523 480.48C447.035 480.48 447.331 480.696 447.411 481.128C447.475 481.56 447.507 482.008 447.507 482.472C448.371 481.336 449.451 480.768 450.747 480.768C452.731 480.768 453.723 483.032 453.723 487.56C453.723 487.976 453.723 488.608 453.723 489.456C453.723 490.288 453.675 490.896 453.579 491.28C453.467 491.76 453.123 492 452.547 492C452.163 492 451.971 491.744 451.971 491.232L451.995 489.888C451.995 488.032 451.931 486.768 451.803 486.096C451.691 485.408 451.579 484.864 451.467 484.464C451.195 483.6 450.755 483.168 450.147 483.168C449.347 483.168 448.787 483.456 448.467 484.032C448.115 484.656 447.907 485.392 447.843 486.24C447.731 487.728 447.675 489.304 447.675 490.968C447.675 491.288 447.555 491.544 447.315 491.736C447.075 491.928 446.787 492.024 446.451 492.024C446.051 492.024 445.851 491.768 445.851 491.256ZM463.266 490.968C463.266 491.256 463.138 491.52 462.882 491.76C462.626 491.984 462.346 492.096 462.042 492.096C461.754 492.096 461.554 491.904 461.442 491.52C461.394 489.408 461.37 487.304 461.37 485.208L461.298 479.16C461.298 477.944 461.834 477.112 462.906 476.664C463.77 476.264 464.794 476.064 465.978 476.064C466.586 476.064 467.234 476.216 467.922 476.52C468.626 476.808 469.25 477.24 469.794 477.816C470.354 478.376 470.634 478.992 470.634 479.664C470.634 480.32 470.33 481.032 469.722 481.8C469.114 482.552 468.362 483.224 467.466 483.816C466.57 484.392 465.698 484.824 464.85 485.112C466.338 486.152 467.634 487.272 468.738 488.472C469.842 489.656 470.394 490.576 470.394 491.232C470.394 491.44 470.29 491.64 470.082 491.832C469.874 492.008 469.618 492.096 469.314 492.096C469.026 492.096 468.778 491.968 468.57 491.712C468.218 490.864 467.546 489.976 466.554 489.048C465.578 488.104 464.434 487.208 463.122 486.36L463.266 490.968ZM463.17 483.768C464.242 483.72 465.442 483.272 466.77 482.424C468.114 481.576 468.786 480.816 468.786 480.144C468.786 479.456 468.45 478.928 467.778 478.56C467.106 478.192 466.306 478.008 465.378 478.008C464.466 478.008 463.738 478.12 463.194 478.344C463.178 479.16 463.17 480.968 463.17 483.768ZM478.917 480.792C479.621 480.792 479.973 481.392 479.973 482.592C479.973 482.72 479.973 482.856 479.973 483L479.925 484.68C479.909 485.208 479.901 485.728 479.901 486.24L480.261 491.664C480.261 492.064 479.853 492.264 479.037 492.264C478.989 492.264 478.869 492.264 478.677 492.264C478.501 492.264 478.373 492.192 478.293 492.048C478.229 491.904 478.221 491.728 478.269 491.52C478.333 491.312 478.317 491.08 478.221 490.824C477.485 491.608 476.509 492 475.293 492C473.037 492 471.909 490.256 471.909 486.768C471.909 484.832 472.269 483.368 472.989 482.376C473.725 481.384 474.773 480.888 476.133 480.888C476.773 480.888 477.413 481 478.053 481.224C478.261 480.936 478.549 480.792 478.917 480.792ZM476.421 482.976C475.509 482.976 474.829 483.24 474.381 483.768C473.933 484.296 473.709 485.264 473.709 486.672C473.709 489.04 474.349 490.224 475.629 490.224C475.965 490.224 476.333 490.072 476.733 489.768C477.149 489.464 477.437 489.12 477.597 488.736C477.901 487.872 478.053 486.928 478.053 485.904C478.053 484.88 477.925 484.136 477.669 483.672C477.429 483.208 477.013 482.976 476.421 482.976ZM482.531 491.256L482.267 481.512C482.267 481.208 482.371 480.96 482.579 480.768C482.787 480.576 482.995 480.48 483.203 480.48C483.715 480.48 484.011 480.696 484.091 481.128C484.155 481.56 484.187 482.008 484.187 482.472C485.051 481.336 486.131 480.768 487.427 480.768C489.411 480.768 490.403 483.032 490.403 487.56C490.403 487.976 490.403 488.608 490.403 489.456C490.403 490.288 490.355 490.896 490.259 491.28C490.147 491.76 489.803 492 489.227 492C488.843 492 488.651 491.744 488.651 491.232L488.675 489.888C488.675 488.032 488.611 486.768 488.483 486.096C488.371 485.408 488.259 484.864 488.147 484.464C487.875 483.6 487.435 483.168 486.827 483.168C486.027 483.168 485.467 483.456 485.147 484.032C484.795 484.656 484.587 485.392 484.523 486.24C484.411 487.728 484.355 489.304 484.355 490.968C484.355 491.288 484.235 491.544 483.995 491.736C483.755 491.928 483.467 492.024 483.131 492.024C482.731 492.024 482.531 491.768 482.531 491.256ZM498.207 480.768L498.183 476.136C498.183 475.272 498.455 474.84 498.999 474.84C499.559 474.84 499.871 475.08 499.935 475.56C499.967 475.768 500.007 477.024 500.055 479.328C500.103 481.632 500.175 483.792 500.271 485.808C500.383 487.824 500.439 489.704 500.439 491.448C500.439 491.928 500.079 492.168 499.359 492.168C498.879 492.168 498.639 491.832 498.639 491.16C497.951 491.704 497.135 491.976 496.191 491.976C494.991 491.976 494.015 491.528 493.263 490.632C492.527 489.736 492.159 488.632 492.159 487.32C492.159 486.008 492.423 484.784 492.951 483.648C493.495 482.496 494.335 481.672 495.471 481.176C496.175 480.872 496.855 480.72 497.511 480.72C497.751 480.72 497.983 480.736 498.207 480.768ZM498.327 484.056C498.215 483.704 498.079 483.44 497.919 483.264C497.759 483.072 497.583 482.96 497.391 482.928C497.215 482.88 496.999 482.856 496.743 482.856C496.487 482.856 496.175 482.952 495.807 483.144C495.439 483.336 495.127 483.648 494.871 484.08C494.359 484.944 494.103 485.856 494.103 486.816C494.103 487.76 494.287 488.536 494.655 489.144C495.039 489.736 495.575 490.032 496.263 490.032C496.967 490.032 497.519 489.688 497.919 489C498.319 488.312 498.519 487.432 498.519 486.36C498.519 485.16 498.455 484.392 498.327 484.056ZM506.07 480.816C507.222 480.816 508.166 481.368 508.902 482.472C509.654 483.576 510.03 484.904 510.03 486.456C510.03 487.992 509.646 489.304 508.878 490.392C508.126 491.48 507.118 492.024 505.854 492.024C504.606 492.024 503.598 491.472 502.83 490.368C502.062 489.248 501.678 488.008 501.678 486.648C501.678 484.904 502.03 483.512 502.734 482.472C503.486 481.368 504.598 480.816 506.07 480.816ZM505.782 482.784C505.11 482.784 504.558 483.136 504.126 483.84C503.694 484.544 503.478 485.288 503.478 486.072C503.478 487.288 503.718 488.216 504.198 488.856C504.678 489.496 505.222 489.816 505.83 489.816C506.918 489.816 507.614 489.344 507.918 488.4C508.046 487.952 508.11 487.392 508.11 486.72C508.11 484.096 507.334 482.784 505.782 482.784ZM512.87 492.024C512.454 492.024 512.206 491.792 512.126 491.328C512.126 488.096 511.934 485.216 511.55 482.688C511.55 482.368 511.662 482.08 511.886 481.824C512.126 481.568 512.39 481.44 512.678 481.44C512.982 481.44 513.206 481.608 513.35 481.944C513.942 481.16 514.734 480.768 515.726 480.768C516.99 480.768 517.966 481.376 518.654 482.592C519.454 481.44 520.51 480.864 521.822 480.864C523.15 480.864 524.142 481.392 524.798 482.448C525.23 483.104 525.534 483.968 525.71 485.04C525.886 486.112 525.974 487.632 525.974 489.6C525.974 490.368 525.894 490.968 525.734 491.4C525.574 491.816 525.238 492.024 524.726 492.024C524.31 492.024 524.102 491.76 524.102 491.232L524.174 488.232C524.174 484.632 523.238 482.832 521.366 482.832C520.774 482.832 520.358 483.04 520.118 483.456C519.846 483.952 519.686 484.472 519.638 485.016C519.574 485.976 519.542 486.848 519.542 487.632V491.112C519.542 491.368 519.414 491.584 519.158 491.76C518.902 491.936 518.638 492.024 518.366 492.024C518.014 492.024 517.79 491.792 517.694 491.328L517.766 486.36C517.766 484.6 517.47 483.504 516.878 483.072C516.59 482.864 516.15 482.76 515.558 482.76C514.982 482.76 514.55 482.976 514.262 483.408C513.99 483.84 513.854 484.536 513.854 485.496L513.998 489.96C513.998 491.336 513.622 492.024 512.87 492.024Z" fill="black"/>
<path d="M266.2 174.848C265.84 174.584 265.66 174.296 265.66 173.984C265.66 173.648 265.792 173.372 266.056 173.156C265.6 169.724 265.372 165.788 265.372 161.348C265.372 160.004 265.432 157.388 265.552 153.5C265.672 153.14 265.912 152.828 266.272 152.564C266.656 152.3 267.016 152.168 267.352 152.168C267.688 152.168 267.892 152.18 267.964 152.204C271.396 153.164 274.384 155.024 276.928 157.784C279.472 160.52 280.804 163.808 280.924 167.648C280.924 171.872 279.172 174.524 275.668 175.604C274.66 175.916 273.592 176.072 272.464 176.072C271.36 176.072 270.388 175.988 269.548 175.82C269.644 176.012 269.692 176.264 269.692 176.576C269.692 176.912 269.488 177.224 269.08 177.512C268.696 177.824 268.228 177.98 267.676 177.98C267.148 177.98 266.812 177.656 266.668 177.008L266.2 174.848ZM268.36 161.06C268.36 165.26 268.6 169.244 269.08 173.012C269.656 173.18 270.628 173.264 271.996 173.264C273.364 173.264 274.672 173.036 275.92 172.58C277.192 172.124 277.864 171.452 277.936 170.564C278.008 169.892 278.044 169.376 278.044 169.016C278.044 165.896 277.204 163.136 275.524 160.736C273.868 158.336 271.54 156.512 268.54 155.264C268.42 158.096 268.36 160.028 268.36 161.06ZM288.902 159.224C290.63 159.224 292.046 160.052 293.15 161.708C294.278 163.364 294.842 165.356 294.842 167.684C294.842 169.988 294.266 171.956 293.114 173.588C291.986 175.22 290.474 176.036 288.578 176.036C286.706 176.036 285.194 175.208 284.042 173.552C282.89 171.872 282.314 170.012 282.314 167.972C282.314 165.356 282.842 163.268 283.898 161.708C285.026 160.052 286.694 159.224 288.902 159.224ZM288.47 162.176C287.462 162.176 286.634 162.704 285.986 163.76C285.338 164.816 285.014 165.932 285.014 167.108C285.014 168.932 285.374 170.324 286.094 171.284C286.814 172.244 287.63 172.724 288.542 172.724C290.174 172.724 291.218 172.016 291.674 170.6C291.866 169.928 291.962 169.088 291.962 168.08C291.962 164.144 290.798 162.176 288.47 162.176ZM316.831 159.368C317.143 159.368 317.443 159.476 317.731 159.692C318.043 159.908 318.199 160.148 318.199 160.412C318.199 161.108 317.179 164.876 315.139 171.716C313.099 178.556 311.587 183.356 310.603 186.116C310.387 186.764 310.051 187.088 309.595 187.088C309.139 187.088 308.779 186.92 308.515 186.584C308.251 186.272 308.119 185.804 308.119 185.18C308.119 184.556 308.515 183.056 309.307 180.68C310.123 178.328 310.615 176.828 310.783 176.18C310.183 175.172 308.155 170.132 304.699 161.06C304.651 160.94 304.627 160.784 304.627 160.592C304.627 160.4 304.771 160.148 305.059 159.836C305.347 159.524 305.743 159.368 306.247 159.368C306.751 159.368 307.159 159.62 307.471 160.124C307.807 160.988 308.359 162.5 309.127 164.66C309.895 166.796 310.483 168.344 310.891 169.304C311.323 170.264 311.731 171.26 312.115 172.292C312.451 171.164 313.027 168.98 313.843 165.74C314.659 162.476 315.127 160.616 315.247 160.16C315.343 159.632 315.871 159.368 316.831 159.368ZM326.941 159.224C328.669 159.224 330.085 160.052 331.189 161.708C332.317 163.364 332.881 165.356 332.881 167.684C332.881 169.988 332.305 171.956 331.153 173.588C330.025 175.22 328.513 176.036 326.617 176.036C324.745 176.036 323.233 175.208 322.081 173.552C320.929 171.872 320.353 170.012 320.353 167.972C320.353 165.356 320.881 163.268 321.937 161.708C323.065 160.052 324.733 159.224 326.941 159.224ZM326.509 162.176C325.501 162.176 324.673 162.704 324.025 163.76C323.377 164.816 323.053 165.932 323.053 167.108C323.053 168.932 323.413 170.324 324.133 171.284C324.853 172.244 325.669 172.724 326.581 172.724C328.213 172.724 329.257 172.016 329.713 170.6C329.905 169.928 330.001 169.088 330.001 168.08C330.001 164.144 328.837 162.176 326.509 162.176ZM335.017 160.592C335.113 160.184 335.317 159.848 335.629 159.584C335.941 159.296 336.253 159.152 336.565 159.152C336.901 159.152 337.153 159.212 337.321 159.332C337.513 159.452 337.621 159.56 337.645 159.656C337.693 159.752 337.741 159.92 337.789 160.16C337.645 162.032 337.573 163.724 337.573 165.236C337.573 166.724 337.753 168.44 338.113 170.384C338.473 172.304 338.869 173.264 339.301 173.264C339.949 173.264 340.765 172.904 341.749 172.184C342.757 171.464 343.477 170.708 343.909 169.916C343.621 166.46 343.477 163.496 343.477 161.024C343.477 160.52 343.633 160.088 343.945 159.728C344.281 159.368 344.677 159.188 345.133 159.188C345.877 159.188 346.249 159.692 346.249 160.7C346.249 162.404 346.369 164.936 346.609 168.296C346.873 171.656 347.137 173.792 347.401 174.704C347.449 174.896 347.473 175.124 347.473 175.388C347.473 175.628 347.305 175.856 346.969 176.072C346.657 176.312 346.237 176.432 345.709 176.432C345.205 176.432 344.869 176.144 344.701 175.568C344.653 175.088 344.533 174.368 344.341 173.408C342.661 175.16 340.969 176.036 339.265 176.036C338.473 176.036 337.765 175.736 337.141 175.136C336.517 174.536 336.025 173.72 335.665 172.688C335.041 170.696 334.729 168.824 334.729 167.072C334.729 165.32 334.825 163.16 335.017 160.592ZM361.652 164.336L361.94 172.832C361.94 173.888 361.892 174.5 361.796 174.668C361.748 175.1 361.604 175.436 361.364 175.676C361.148 175.916 360.716 176.036 360.068 176.036C359.756 176.036 359.504 175.844 359.312 175.46C359.12 175.052 359.012 174.596 358.988 174.092C358.82 169.868 358.592 165.908 358.304 162.212C358.04 158.492 357.908 155.036 357.908 151.844C357.908 151.34 358.076 150.944 358.412 150.656C358.748 150.368 359.144 150.224 359.6 150.224C360.272 150.224 360.668 150.8 360.788 151.952C360.932 153.104 361.016 154.544 361.04 156.272C361.088 158 361.136 159.26 361.184 160.052C362.384 159.428 363.584 159.116 364.784 159.116C367.568 159.116 369.332 160.34 370.076 162.788C370.508 164.18 370.724 165.968 370.724 168.152C370.724 168.872 370.652 170.012 370.508 171.572C370.388 173.108 370.316 174.104 370.292 174.56C370.268 175.016 370.064 175.376 369.68 175.64C369.32 175.88 368.924 176 368.492 176C367.82 176 367.484 175.64 367.484 174.92L367.736 168.656C367.736 168.128 367.712 167.252 367.664 166.028C367.616 164.804 367.364 163.832 366.908 163.112C366.476 162.392 365.708 162.032 364.604 162.032C362.636 162.032 361.652 162.8 361.652 164.336ZM382.961 159.188C384.017 159.188 384.545 160.088 384.545 161.888C384.545 162.08 384.545 162.284 384.545 162.5L384.473 165.02C384.449 165.812 384.437 166.592 384.437 167.36L384.977 175.496C384.977 176.096 384.365 176.396 383.141 176.396C383.069 176.396 382.889 176.396 382.601 176.396C382.337 176.396 382.145 176.288 382.025 176.072C381.929 175.856 381.917 175.592 381.989 175.28C382.085 174.968 382.061 174.62 381.917 174.236C380.813 175.412 379.349 176 377.525 176C374.141 176 372.449 173.384 372.449 168.152C372.449 165.248 372.989 163.052 374.069 161.564C375.173 160.076 376.745 159.332 378.785 159.332C379.745 159.332 380.705 159.5 381.665 159.836C381.977 159.404 382.409 159.188 382.961 159.188ZM379.217 162.464C377.849 162.464 376.829 162.86 376.157 163.652C375.485 164.444 375.149 165.896 375.149 168.008C375.149 171.56 376.109 173.336 378.029 173.336C378.533 173.336 379.085 173.108 379.685 172.652C380.309 172.196 380.741 171.68 380.981 171.104C381.437 169.808 381.665 168.392 381.665 166.856C381.665 165.32 381.473 164.204 381.089 163.508C380.729 162.812 380.105 162.464 379.217 162.464ZM398.642 159.008C398.978 159.008 399.23 159.128 399.398 159.368C399.566 159.584 399.65 159.824 399.65 160.088L399.614 160.448C398.606 163.016 397.862 165.104 397.382 166.712C397.07 167.84 396.83 168.68 396.662 169.232C396.518 169.784 396.266 170.756 395.906 172.148C395.546 173.54 395.306 174.44 395.186 174.848C394.85 175.664 394.262 176.072 393.422 176.072C393.014 176.072 392.726 175.808 392.558 175.28C391.79 172.88 390.662 170.168 389.174 167.144C387.686 164.12 386.834 162.392 386.618 161.96C386.426 161.504 386.33 161.096 386.33 160.736C386.33 160.376 386.486 160.028 386.798 159.692C387.134 159.356 387.506 159.188 387.914 159.188C388.322 159.188 388.67 159.404 388.958 159.836C389.222 160.364 389.966 161.84 391.19 164.264C392.438 166.688 393.314 168.596 393.818 169.988C393.842 169.844 393.926 169.544 394.07 169.088C395.294 164.84 396.29 161.804 397.058 159.98C397.466 159.332 397.994 159.008 398.642 159.008ZM406.613 159.332C407.885 159.332 409.097 159.704 410.249 160.448C411.401 161.192 411.977 162.116 411.977 163.22C411.977 164.3 411.509 165.356 410.573 166.388C409.637 167.396 408.389 168.008 406.829 168.224C406.157 168.32 405.149 168.368 403.805 168.368C404.069 170.408 404.585 171.752 405.353 172.4C405.593 172.664 405.917 172.796 406.325 172.796C407.813 172.796 409.061 172.328 410.069 171.392C411.077 170.432 411.797 169.952 412.229 169.952C412.421 169.952 412.709 170.132 413.093 170.492C413.477 170.852 413.669 171.188 413.669 171.5C413.669 172.124 412.913 173.024 411.401 174.2C410.729 174.752 409.913 175.22 408.953 175.604C408.017 175.964 407.141 176.144 406.325 176.144C404.237 176.144 402.701 174.8 401.717 172.112C401.093 170.456 400.781 168.632 400.781 166.64C400.781 164.648 401.249 162.932 402.185 161.492C403.121 160.052 404.597 159.332 406.613 159.332ZM406.793 161.816C405.881 161.816 405.101 162.332 404.453 163.364C404.213 163.724 403.985 164.54 403.769 165.812C407.129 165.812 408.809 164.984 408.809 163.328C408.809 162.32 408.137 161.816 406.793 161.816ZM434.113 159.188C435.169 159.188 435.697 160.088 435.697 161.888C435.697 162.08 435.697 162.284 435.697 162.5L435.625 165.02C435.601 165.812 435.589 166.592 435.589 167.36L436.129 175.496C436.129 176.096 435.517 176.396 434.293 176.396C434.221 176.396 434.041 176.396 433.753 176.396C433.489 176.396 433.297 176.288 433.177 176.072C433.081 175.856 433.069 175.592 433.141 175.28C433.237 174.968 433.213 174.62 433.069 174.236C431.965 175.412 430.501 176 428.677 176C425.293 176 423.601 173.384 423.601 168.152C423.601 165.248 424.141 163.052 425.221 161.564C426.325 160.076 427.897 159.332 429.937 159.332C430.897 159.332 431.857 159.5 432.817 159.836C433.129 159.404 433.561 159.188 434.113 159.188ZM430.369 162.464C429.001 162.464 427.981 162.86 427.309 163.652C426.637 164.444 426.301 165.896 426.301 168.008C426.301 171.56 427.261 173.336 429.181 173.336C429.685 173.336 430.237 173.108 430.837 172.652C431.461 172.196 431.893 171.68 432.133 171.104C432.589 169.808 432.817 168.392 432.817 166.856C432.817 165.32 432.625 164.204 432.241 163.508C431.881 162.812 431.257 162.464 430.369 162.464ZM452.152 175.964C451.336 175.964 450.58 175.688 449.884 175.136C449.884 175.136 449.728 175.004 449.416 174.74V185.54C449.272 186.02 449.02 186.416 448.66 186.728C448.3 187.064 447.916 187.232 447.508 187.232C446.884 187.232 446.572 186.812 446.572 185.972V160.88C446.716 160.256 446.884 159.812 447.076 159.548C447.292 159.284 447.616 159.152 448.048 159.152C448.504 159.152 448.792 159.26 448.912 159.476C449.056 159.668 449.224 160.22 449.416 161.132C449.512 160.652 449.896 160.208 450.568 159.8C451.24 159.392 452.14 159.188 453.268 159.188C455.716 159.188 457.456 160.076 458.488 161.852C459.52 163.628 460.036 165.728 460.036 168.152C460.036 170.552 459.328 172.46 457.912 173.876C456.52 175.268 454.6 175.964 452.152 175.964ZM449.416 165.164V171.86C449.56 171.932 449.728 172.052 449.92 172.22C450.616 172.844 451.372 173.156 452.188 173.156C455.5 173.156 457.156 171.452 457.156 168.044C457.156 165.14 456.412 163.304 454.924 162.536C454.3 162.2 453.532 162.032 452.62 162.032C451.732 162.152 450.976 162.548 450.352 163.22C449.728 163.868 449.416 164.516 449.416 165.164ZM466.506 170.744L466.542 174.452C466.542 174.884 466.338 175.28 465.93 175.64C465.546 176 465.162 176.18 464.778 176.18C464.226 176.18 463.878 175.748 463.734 174.884C463.71 174.692 463.614 172.94 463.446 169.628C463.278 166.292 462.954 163.676 462.474 161.78C462.258 160.868 462.15 160.328 462.15 160.16C462.15 159.368 462.63 158.972 463.59 158.972C463.998 158.972 464.322 159.128 464.562 159.44C464.802 159.752 464.946 160.076 464.994 160.412C465.066 160.724 465.126 161.156 465.174 161.708C465.222 162.26 465.258 162.608 465.282 162.752C465.786 161.552 466.542 160.652 467.55 160.052C468.558 159.452 469.662 159.152 470.862 159.152C472.83 159.152 473.814 159.656 473.814 160.664C473.814 161.168 473.634 161.576 473.274 161.888C472.938 162.176 472.542 162.32 472.086 162.32C470.046 162.32 468.606 162.968 467.766 164.264C466.926 165.56 466.506 167.72 466.506 170.744ZM478.09 153.248C478.522 153.248 478.93 153.452 479.314 153.86C479.698 154.268 479.89 154.7 479.89 155.156C479.89 155.588 479.674 156.032 479.242 156.488C478.834 156.944 478.402 157.172 477.946 157.172C477.49 157.172 477.07 156.98 476.686 156.596C476.326 156.212 476.146 155.72 476.146 155.12C476.146 153.968 476.77 153.344 478.018 153.248C478.042 153.248 478.066 153.248 478.09 153.248ZM479.602 172.112L479.638 174.632C479.638 175.088 479.458 175.472 479.098 175.784C478.738 176.072 478.354 176.216 477.946 176.216C477.346 176.216 477.034 175.916 477.01 175.316C476.698 167.66 476.542 163.424 476.542 162.608C476.542 161.792 476.578 160.796 476.65 159.62C476.698 159.188 476.974 158.972 477.478 158.972C478.75 158.972 479.47 159.488 479.638 160.52C479.71 161.048 479.746 161.468 479.746 161.78L479.602 164.048V172.112ZM495.392 159.008C495.728 159.008 495.98 159.128 496.148 159.368C496.316 159.584 496.4 159.824 496.4 160.088L496.364 160.448C495.356 163.016 494.612 165.104 494.132 166.712C493.82 167.84 493.58 168.68 493.412 169.232C493.268 169.784 493.016 170.756 492.656 172.148C492.296 173.54 492.056 174.44 491.936 174.848C491.6 175.664 491.012 176.072 490.172 176.072C489.764 176.072 489.476 175.808 489.308 175.28C488.54 172.88 487.412 170.168 485.924 167.144C484.436 164.12 483.584 162.392 483.368 161.96C483.176 161.504 483.08 161.096 483.08 160.736C483.08 160.376 483.236 160.028 483.548 159.692C483.884 159.356 484.256 159.188 484.664 159.188C485.072 159.188 485.42 159.404 485.708 159.836C485.972 160.364 486.716 161.84 487.94 164.264C489.188 166.688 490.064 168.596 490.568 169.988C490.592 169.844 490.676 169.544 490.82 169.088C492.044 164.84 493.04 161.804 493.808 159.98C494.216 159.332 494.744 159.008 495.392 159.008ZM508.223 159.188C509.279 159.188 509.807 160.088 509.807 161.888C509.807 162.08 509.807 162.284 509.807 162.5L509.735 165.02C509.711 165.812 509.699 166.592 509.699 167.36L510.239 175.496C510.239 176.096 509.627 176.396 508.403 176.396C508.331 176.396 508.151 176.396 507.863 176.396C507.599 176.396 507.407 176.288 507.287 176.072C507.191 175.856 507.179 175.592 507.251 175.28C507.347 174.968 507.323 174.62 507.179 174.236C506.075 175.412 504.611 176 502.787 176C499.403 176 497.711 173.384 497.711 168.152C497.711 165.248 498.251 163.052 499.331 161.564C500.435 160.076 502.007 159.332 504.047 159.332C505.007 159.332 505.967 159.5 506.927 159.836C507.239 159.404 507.671 159.188 508.223 159.188ZM504.479 162.464C503.111 162.464 502.091 162.86 501.419 163.652C500.747 164.444 500.411 165.896 500.411 168.008C500.411 171.56 501.371 173.336 503.291 173.336C503.795 173.336 504.347 173.108 504.947 172.652C505.571 172.196 506.003 171.68 506.243 171.104C506.699 169.808 506.927 168.392 506.927 166.856C506.927 165.32 506.735 164.204 506.351 163.508C505.991 162.812 505.367 162.464 504.479 162.464ZM513.176 159.188L514.976 159.224C515.384 159.224 515.612 159.212 515.66 159.188V151.808C515.684 151.4 515.888 151.052 516.272 150.764C516.656 150.476 517.016 150.332 517.352 150.332C517.688 150.332 517.952 150.44 518.144 150.656C518.36 150.872 518.456 151.208 518.432 151.664C518.408 152.12 518.396 154.616 518.396 159.152L522.608 159.008C523.328 159.008 523.688 159.428 523.688 160.268C523.688 160.892 523.496 161.36 523.112 161.672C522.752 161.984 522.356 162.152 521.924 162.176C521.516 162.2 521.108 162.212 520.7 162.212L518.504 162.176C518.504 163.16 518.6 165.104 518.792 168.008C519.008 170.912 519.176 172.796 519.296 173.66C519.416 174.5 519.44 175.052 519.368 175.316C519.296 175.556 519.164 175.724 518.972 175.82C518.66 175.964 518.24 176.036 517.712 176.036C517.184 176.036 516.872 175.748 516.776 175.172C516.296 172.028 515.972 167.708 515.804 162.212C515.588 162.236 514.76 162.248 513.32 162.248C511.88 162.248 511.16 161.828 511.16 160.988C511.16 159.788 511.832 159.188 513.176 159.188ZM529.835 159.332C531.107 159.332 532.319 159.704 533.471 160.448C534.623 161.192 535.199 162.116 535.199 163.22C535.199 164.3 534.731 165.356 533.795 166.388C532.859 167.396 531.611 168.008 530.051 168.224C529.379 168.32 528.371 168.368 527.027 168.368C527.291 170.408 527.807 171.752 528.575 172.4C528.815 172.664 529.139 172.796 529.547 172.796C531.035 172.796 532.283 172.328 533.291 171.392C534.299 170.432 535.019 169.952 535.451 169.952C535.643 169.952 535.931 170.132 536.315 170.492C536.699 170.852 536.891 171.188 536.891 171.5C536.891 172.124 536.135 173.024 534.623 174.2C533.951 174.752 533.135 175.22 532.175 175.604C531.239 175.964 530.363 176.144 529.547 176.144C527.459 176.144 525.923 174.8 524.939 172.112C524.315 170.456 524.003 168.632 524.003 166.64C524.003 164.648 524.471 162.932 525.407 161.492C526.343 160.052 527.819 159.332 529.835 159.332ZM530.015 161.816C529.103 161.816 528.323 162.332 527.675 163.364C527.435 163.724 527.207 164.54 526.991 165.812C530.351 165.812 532.031 164.984 532.031 163.328C532.031 162.32 531.359 161.816 530.015 161.816ZM557.624 174.524C556.76 175.532 555.668 176.036 554.348 176.036C553.028 176.036 551.888 175.628 550.928 174.812C548.912 173.252 547.904 170.864 547.904 167.648C547.904 165.128 548.6 163.112 549.992 161.6C551.384 160.064 553.1 159.296 555.14 159.296C557.18 159.296 558.572 159.992 559.316 161.384C559.964 162.608 560.288 164.456 560.288 166.928L560.216 169.88C560.216 171.272 560.276 173.204 560.396 175.676C560.54 178.124 560.612 179.972 560.612 181.22C560.612 183.284 560.096 184.796 559.064 185.756C558.056 186.74 556.508 187.232 554.42 187.232C553.172 187.232 551.9 186.968 550.604 186.44C549.308 185.912 548.66 185.3 548.66 184.604C548.66 184.1 548.792 183.716 549.056 183.452C549.344 183.188 549.668 183.056 550.028 183.056C550.388 183.056 551.192 183.32 552.44 183.848C553.712 184.376 554.624 184.64 555.176 184.64C556.904 184.64 557.768 183.224 557.768 180.392C557.768 177.56 557.72 175.604 557.624 174.524ZM557.588 166.928C557.588 165.176 557.324 163.952 556.796 163.256C556.292 162.536 555.488 162.176 554.384 162.176C553.28 162.176 552.392 162.68 551.72 163.688C551.048 164.696 550.712 165.98 550.712 167.54C550.712 169.076 551.024 170.3 551.648 171.212C552.296 172.124 553.28 172.58 554.6 172.58C555.92 172.58 556.772 172.016 557.156 170.888C557.444 169.976 557.588 168.656 557.588 166.928ZM573.367 159.188C574.423 159.188 574.951 160.088 574.951 161.888C574.951 162.08 574.951 162.284 574.951 162.5L574.879 165.02C574.855 165.812 574.843 166.592 574.843 167.36L575.383 175.496C575.383 176.096 574.771 176.396 573.547 176.396C573.475 176.396 573.295 176.396 573.007 176.396C572.743 176.396 572.551 176.288 572.431 176.072C572.335 175.856 572.323 175.592 572.395 175.28C572.491 174.968 572.467 174.62 572.323 174.236C571.219 175.412 569.755 176 567.931 176C564.547 176 562.855 173.384 562.855 168.152C562.855 165.248 563.395 163.052 564.475 161.564C565.579 160.076 567.151 159.332 569.191 159.332C570.151 159.332 571.111 159.5 572.071 159.836C572.383 159.404 572.815 159.188 573.367 159.188ZM569.623 162.464C568.255 162.464 567.235 162.86 566.563 163.652C565.891 164.444 565.555 165.896 565.555 168.008C565.555 171.56 566.515 173.336 568.435 173.336C568.939 173.336 569.491 173.108 570.091 172.652C570.715 172.196 571.147 171.68 571.387 171.104C571.843 169.808 572.071 168.392 572.071 166.856C572.071 165.32 571.879 164.204 571.495 163.508C571.135 162.812 570.511 162.464 569.623 162.464ZM579.473 176.036C578.849 176.036 578.477 175.688 578.357 174.992C578.357 170.144 578.069 165.824 577.493 162.032C577.493 161.552 577.661 161.12 577.997 160.736C578.357 160.352 578.753 160.16 579.185 160.16C579.641 160.16 579.977 160.412 580.193 160.916C581.081 159.74 582.269 159.152 583.757 159.152C585.653 159.152 587.117 160.064 588.149 161.888C589.349 160.16 590.933 159.296 592.901 159.296C594.893 159.296 596.381 160.088 597.365 161.672C598.013 162.656 598.469 163.952 598.733 165.56C598.997 167.168 599.129 169.448 599.129 172.4C599.129 173.552 599.009 174.452 598.769 175.1C598.529 175.724 598.025 176.036 597.257 176.036C596.633 176.036 596.321 175.64 596.321 174.848L596.429 170.348C596.429 164.948 595.025 162.248 592.217 162.248C591.329 162.248 590.705 162.56 590.345 163.184C589.937 163.928 589.697 164.708 589.625 165.524C589.529 166.964 589.481 168.272 589.481 169.448V174.668C589.481 175.052 589.289 175.376 588.905 175.64C588.521 175.904 588.125 176.036 587.717 176.036C587.189 176.036 586.853 175.688 586.709 174.992L586.817 167.54C586.817 164.9 586.373 163.256 585.485 162.608C585.053 162.296 584.393 162.14 583.505 162.14C582.641 162.14 581.993 162.464 581.561 163.112C581.153 163.76 580.949 164.804 580.949 166.244L581.165 172.94C581.165 175.004 580.601 176.036 579.473 176.036ZM607.073 159.332C608.345 159.332 609.557 159.704 610.709 160.448C611.861 161.192 612.437 162.116 612.437 163.22C612.437 164.3 611.969 165.356 611.033 166.388C610.097 167.396 608.849 168.008 607.289 168.224C606.617 168.32 605.609 168.368 604.265 168.368C604.529 170.408 605.045 171.752 605.813 172.4C606.053 172.664 606.377 172.796 606.785 172.796C608.273 172.796 609.521 172.328 610.529 171.392C611.537 170.432 612.257 169.952 612.689 169.952C612.881 169.952 613.169 170.132 613.553 170.492C613.937 170.852 614.129 171.188 614.129 171.5C614.129 172.124 613.373 173.024 611.861 174.2C611.189 174.752 610.373 175.22 609.413 175.604C608.477 175.964 607.601 176.144 606.785 176.144C604.697 176.144 603.161 174.8 602.177 172.112C601.553 170.456 601.241 168.632 601.241 166.64C601.241 164.648 601.709 162.932 602.645 161.492C603.581 160.052 605.057 159.332 607.073 159.332ZM607.253 161.816C606.341 161.816 605.561 162.332 604.913 163.364C604.673 163.724 604.445 164.54 604.229 165.812C607.589 165.812 609.269 164.984 609.269 163.328C609.269 162.32 608.597 161.816 607.253 161.816ZM637.382 174.38C637.382 175.508 636.866 176.072 635.834 176.072C635.402 176.072 634.814 175.016 634.07 172.904C633.326 170.768 632.33 169.124 631.082 167.972C630.962 168.14 630.446 168.62 629.534 169.412C628.646 170.18 628.118 170.648 627.95 170.816V174.416C627.902 174.776 627.842 175.052 627.77 175.244C627.698 175.436 627.53 175.616 627.266 175.784C627.026 175.952 626.69 176.036 626.258 176.036C625.61 176.036 625.286 175.64 625.286 174.848C625.286 172.616 625.19 169.16 624.998 164.48C624.806 159.776 624.71 155.564 624.71 151.844C624.71 151.388 624.89 151.028 625.25 150.764C625.634 150.5 626.03 150.368 626.438 150.368C626.99 150.368 627.326 150.716 627.446 151.412V157.784C627.446 158.552 627.458 159.128 627.482 159.512C627.506 159.896 627.53 160.472 627.554 161.24C627.602 162.824 627.686 164.612 627.806 166.604C628.502 166.076 629.39 165.248 630.47 164.12C631.574 162.968 632.402 161.984 632.954 161.168C633.818 159.8 634.61 159.116 635.33 159.116C635.522 159.116 635.714 159.164 635.906 159.26C636.41 159.548 636.662 159.884 636.662 160.268C636.662 160.652 636.494 161.156 636.158 161.78C635.294 163.268 634.298 164.624 633.17 165.848C634.25 167.048 635.33 168.764 636.41 170.996C637.058 172.436 637.382 173.564 637.382 174.38ZM644.656 159.332C645.928 159.332 647.14 159.704 648.292 160.448C649.444 161.192 650.02 162.116 650.02 163.22C650.02 164.3 649.552 165.356 648.616 166.388C647.68 167.396 646.432 168.008 644.872 168.224C644.2 168.32 643.192 168.368 641.848 168.368C642.112 170.408 642.628 171.752 643.396 172.4C643.636 172.664 643.96 172.796 644.368 172.796C645.856 172.796 647.104 172.328 648.112 171.392C649.12 170.432 649.84 169.952 650.272 169.952C650.464 169.952 650.752 170.132 651.136 170.492C651.52 170.852 651.712 171.188 651.712 171.5C651.712 172.124 650.956 173.024 649.444 174.2C648.772 174.752 647.956 175.22 646.996 175.604C646.06 175.964 645.184 176.144 644.368 176.144C642.28 176.144 640.744 174.8 639.76 172.112C639.136 170.456 638.824 168.632 638.824 166.64C638.824 164.648 639.292 162.932 640.228 161.492C641.164 160.052 642.64 159.332 644.656 159.332ZM644.836 161.816C643.924 161.816 643.144 162.332 642.496 163.364C642.256 163.724 642.028 164.54 641.812 165.812C645.172 165.812 646.852 164.984 646.852 163.328C646.852 162.32 646.18 161.816 644.836 161.816ZM665.299 159.368C665.611 159.368 665.911 159.476 666.199 159.692C666.511 159.908 666.667 160.148 666.667 160.412C666.667 161.108 665.647 164.876 663.607 171.716C661.567 178.556 660.055 183.356 659.071 186.116C658.855 186.764 658.519 187.088 658.063 187.088C657.607 187.088 657.247 186.92 656.983 186.584C656.719 186.272 656.587 185.804 656.587 185.18C656.587 184.556 656.983 183.056 657.775 180.68C658.591 178.328 659.083 176.828 659.251 176.18C658.651 175.172 656.623 170.132 653.167 161.06C653.119 160.94 653.095 160.784 653.095 160.592C653.095 160.4 653.239 160.148 653.527 159.836C653.815 159.524 654.211 159.368 654.715 159.368C655.219 159.368 655.627 159.62 655.939 160.124C656.275 160.988 656.827 162.5 657.595 164.66C658.363 166.796 658.951 168.344 659.359 169.304C659.791 170.264 660.199 171.26 660.583 172.292C660.919 171.164 661.495 168.98 662.311 165.74C663.127 162.476 663.595 160.616 663.715 160.16C663.811 159.632 664.339 159.368 665.299 159.368ZM677.678 155.48C677.678 154.904 677.366 154.388 676.742 153.932C676.142 153.476 675.53 153.248 674.906 153.248C674.282 153.248 673.706 153.392 673.178 153.68C672.65 153.944 672.266 154.268 672.026 154.652C671.354 155.612 670.838 156.092 670.478 156.092C669.446 156.092 668.93 155.588 668.93 154.58C668.93 153.668 669.566 152.744 670.838 151.808C672.11 150.848 673.442 150.368 674.834 150.368C676.802 150.368 678.362 151.172 679.514 152.78C680.138 153.668 680.45 154.568 680.45 155.48C680.45 157.064 679.802 158.588 678.506 160.052C677.954 160.676 677.402 161.264 676.85 161.816C675.53 163.136 674.87 164.012 674.87 164.444C674.87 164.876 675.038 165.356 675.374 165.884C675.686 166.412 675.842 166.772 675.842 166.964C675.842 167.156 675.782 167.372 675.662 167.612C675.374 168.044 674.954 168.26 674.402 168.26C673.874 168.26 673.334 167.9 672.782 167.18C672.23 166.436 671.954 165.62 671.954 164.732C671.954 163.172 672.542 161.756 673.718 160.484C674.27 159.884 674.786 159.38 675.266 158.972C676.874 157.46 677.678 156.296 677.678 155.48ZM672.818 172.976C672.818 172.544 672.974 172.148 673.286 171.788C673.622 171.428 674.078 171.248 674.654 171.248C675.23 171.248 675.638 171.356 675.878 171.572C676.142 171.788 676.274 172.256 676.274 172.976C676.274 174.248 675.698 174.884 674.546 174.884C674.114 174.884 673.718 174.668 673.358 174.236C672.998 173.804 672.818 173.384 672.818 172.976Z" fill="black"/>
<path d="M220.846 373.06C222.526 373.06 223.954 373.6 225.13 374.68C227.434 376.744 228.586 380.008 228.586 384.472C228.586 388.912 227.314 392.404 224.77 394.948C223.45 396.22 221.926 396.916 220.198 397.036C217.918 397.036 216.142 396.256 214.87 394.696C213.598 393.136 212.686 391.396 212.134 389.476C211.606 387.532 211.342 385.66 211.342 383.86C211.342 380.788 212.074 378.256 213.538 376.264C215.074 374.128 217.51 373.06 220.846 373.06ZM220.594 376.048C217.378 376.048 215.374 377.572 214.582 380.62C214.342 381.436 214.222 382.48 214.222 383.752C214.222 385.024 214.462 386.5 214.942 388.18C215.59 390.436 216.55 392.02 217.822 392.932C218.566 393.508 219.466 393.796 220.522 393.796C221.578 393.796 222.526 393.328 223.366 392.392C224.206 391.432 224.782 390.22 225.094 388.756C225.406 387.292 225.562 385.816 225.562 384.328C225.562 381.688 225.178 379.648 224.41 378.208C223.666 376.768 222.394 376.048 220.594 376.048ZM235.846 391.744L235.882 395.452C235.882 395.884 235.678 396.28 235.27 396.64C234.886 397 234.502 397.18 234.118 397.18C233.566 397.18 233.218 396.748 233.074 395.884C233.05 395.692 232.954 393.94 232.786 390.628C232.618 387.292 232.294 384.676 231.814 382.78C231.598 381.868 231.49 381.328 231.49 381.16C231.49 380.368 231.97 379.972 232.93 379.972C233.338 379.972 233.662 380.128 233.902 380.44C234.142 380.752 234.286 381.076 234.334 381.412C234.406 381.724 234.466 382.156 234.514 382.708C234.562 383.26 234.598 383.608 234.622 383.752C235.126 382.552 235.882 381.652 236.89 381.052C237.898 380.452 239.002 380.152 240.202 380.152C242.17 380.152 243.154 380.656 243.154 381.664C243.154 382.168 242.974 382.576 242.614 382.888C242.278 383.176 241.882 383.32 241.426 383.32C239.386 383.32 237.946 383.968 237.106 385.264C236.266 386.56 235.846 388.72 235.846 391.744ZM255.978 374.428C256.41 374.428 256.818 374.632 257.202 375.04C257.586 375.448 257.778 375.88 257.778 376.336C257.778 376.768 257.562 377.212 257.13 377.668C256.722 378.124 256.29 378.352 255.834 378.352C255.378 378.352 254.958 378.16 254.574 377.776C254.214 377.392 254.034 376.9 254.034 376.3C254.034 375.148 254.658 374.524 255.906 374.428C255.93 374.428 255.954 374.428 255.978 374.428ZM254.826 381.484C254.778 381.1 254.91 380.788 255.222 380.548C255.534 380.284 256.002 380.152 256.626 380.152C257.25 380.152 257.598 380.452 257.67 381.052C258.006 384.004 258.174 386.8 258.174 389.44C258.174 392.08 258.09 394.72 257.922 397.36C257.754 400.024 257.37 402.076 256.77 403.516C255.954 405.412 254.478 406.36 252.342 406.36C251.262 406.36 250.326 406.024 249.534 405.352C248.742 404.68 248.346 403.876 248.346 402.94C248.346 402.436 248.526 402.052 248.886 401.788C249.246 401.524 249.642 401.392 250.074 401.392C250.506 401.392 250.83 401.5 251.046 401.716C251.262 401.932 251.406 402.172 251.478 402.436C251.718 403.132 252.126 403.48 252.702 403.48C253.302 403.48 253.806 403.012 254.214 402.076C254.646 401.14 254.922 399.868 255.042 398.26C255.186 396.652 255.258 394.948 255.258 393.148C255.258 387.508 255.114 383.62 254.826 381.484ZM268.195 380.224C269.923 380.224 271.339 381.052 272.443 382.708C273.571 384.364 274.135 386.356 274.135 388.684C274.135 390.988 273.559 392.956 272.407 394.588C271.279 396.22 269.767 397.036 267.871 397.036C265.999 397.036 264.487 396.208 263.335 394.552C262.183 392.872 261.607 391.012 261.607 388.972C261.607 386.356 262.135 384.268 263.191 382.708C264.319 381.052 265.987 380.224 268.195 380.224ZM267.763 383.176C266.755 383.176 265.927 383.704 265.279 384.76C264.631 385.816 264.307 386.932 264.307 388.108C264.307 389.932 264.667 391.324 265.387 392.284C266.107 393.244 266.923 393.724 267.835 393.724C269.467 393.724 270.511 393.016 270.967 391.6C271.159 390.928 271.255 390.088 271.255 389.08C271.255 385.144 270.091 383.176 267.763 383.176ZM278.719 374.248C279.151 374.248 279.559 374.452 279.943 374.86C280.327 375.268 280.519 375.7 280.519 376.156C280.519 376.588 280.303 377.032 279.871 377.488C279.463 377.944 279.031 378.172 278.575 378.172C278.119 378.172 277.699 377.98 277.315 377.596C276.955 377.212 276.775 376.72 276.775 376.12C276.775 374.968 277.399 374.344 278.647 374.248C278.671 374.248 278.695 374.248 278.719 374.248ZM280.231 393.112L280.267 395.632C280.267 396.088 280.087 396.472 279.727 396.784C279.367 397.072 278.983 397.216 278.575 397.216C277.975 397.216 277.663 396.916 277.639 396.316C277.327 388.66 277.171 384.424 277.171 383.608C277.171 382.792 277.207 381.796 277.279 380.62C277.327 380.188 277.603 379.972 278.107 379.972C279.379 379.972 280.099 380.488 280.267 381.52C280.339 382.048 280.375 382.468 280.375 382.78L280.231 385.048V393.112ZM285.761 395.884L285.365 381.268C285.365 380.812 285.521 380.44 285.833 380.152C286.145 379.864 286.457 379.72 286.769 379.72C287.537 379.72 287.981 380.044 288.101 380.692C288.197 381.34 288.245 382.012 288.245 382.708C289.541 381.004 291.161 380.152 293.105 380.152C296.081 380.152 297.569 383.548 297.569 390.34C297.569 390.964 297.569 391.912 297.569 393.184C297.569 394.432 297.497 395.344 297.353 395.92C297.185 396.64 296.669 397 295.805 397C295.229 397 294.941 396.616 294.941 395.848L294.977 393.832C294.977 391.048 294.881 389.152 294.689 388.144C294.521 387.112 294.353 386.296 294.185 385.696C293.777 384.4 293.117 383.752 292.205 383.752C291.005 383.752 290.165 384.184 289.685 385.048C289.157 385.984 288.845 387.088 288.749 388.36C288.581 390.592 288.497 392.956 288.497 395.452C288.497 395.932 288.317 396.316 287.957 396.604C287.597 396.892 287.165 397.036 286.661 397.036C286.061 397.036 285.761 396.652 285.761 395.884ZM319.012 380.188C320.068 380.188 320.596 381.088 320.596 382.888C320.596 383.08 320.596 383.284 320.596 383.5L320.524 386.02C320.5 386.812 320.488 387.592 320.488 388.36L321.028 396.496C321.028 397.096 320.416 397.396 319.192 397.396C319.12 397.396 318.94 397.396 318.652 397.396C318.388 397.396 318.196 397.288 318.076 397.072C317.98 396.856 317.968 396.592 318.04 396.28C318.136 395.968 318.112 395.62 317.968 395.236C316.864 396.412 315.4 397 313.576 397C310.192 397 308.5 394.384 308.5 389.152C308.5 386.248 309.04 384.052 310.12 382.564C311.224 381.076 312.796 380.332 314.836 380.332C315.796 380.332 316.756 380.5 317.716 380.836C318.028 380.404 318.46 380.188 319.012 380.188ZM315.268 383.464C313.9 383.464 312.88 383.86 312.208 384.652C311.536 385.444 311.2 386.896 311.2 389.008C311.2 392.56 312.16 394.336 314.08 394.336C314.584 394.336 315.136 394.108 315.736 393.652C316.36 393.196 316.792 392.68 317.032 392.104C317.488 390.808 317.716 389.392 317.716 387.856C317.716 386.32 317.524 385.204 317.14 384.508C316.78 383.812 316.156 383.464 315.268 383.464ZM324.433 395.884L324.037 381.268C324.037 380.812 324.193 380.44 324.505 380.152C324.817 379.864 325.129 379.72 325.441 379.72C326.209 379.72 326.653 380.044 326.773 380.692C326.869 381.34 326.917 382.012 326.917 382.708C328.213 381.004 329.833 380.152 331.777 380.152C334.753 380.152 336.241 383.548 336.241 390.34C336.241 390.964 336.241 391.912 336.241 393.184C336.241 394.432 336.169 395.344 336.025 395.92C335.857 396.64 335.341 397 334.477 397C333.901 397 333.613 396.616 333.613 395.848L333.649 393.832C333.649 391.048 333.553 389.152 333.361 388.144C333.193 387.112 333.025 386.296 332.857 385.696C332.449 384.4 331.789 383.752 330.877 383.752C329.677 383.752 328.837 384.184 328.357 385.048C327.829 385.984 327.517 387.088 327.421 388.36C327.253 390.592 327.169 392.956 327.169 395.452C327.169 395.932 326.989 396.316 326.629 396.604C326.269 396.892 325.837 397.036 325.333 397.036C324.733 397.036 324.433 396.652 324.433 395.884ZM357.683 380.188C358.739 380.188 359.267 381.088 359.267 382.888C359.267 383.08 359.267 383.284 359.267 383.5L359.195 386.02C359.171 386.812 359.159 387.592 359.159 388.36L359.699 396.496C359.699 397.096 359.087 397.396 357.863 397.396C357.791 397.396 357.611 397.396 357.323 397.396C357.059 397.396 356.867 397.288 356.747 397.072C356.651 396.856 356.639 396.592 356.711 396.28C356.807 395.968 356.783 395.62 356.639 395.236C355.535 396.412 354.071 397 352.247 397C348.863 397 347.171 394.384 347.171 389.152C347.171 386.248 347.711 384.052 348.791 382.564C349.895 381.076 351.467 380.332 353.507 380.332C354.467 380.332 355.427 380.5 356.387 380.836C356.699 380.404 357.131 380.188 357.683 380.188ZM353.939 383.464C352.571 383.464 351.551 383.86 350.879 384.652C350.207 385.444 349.871 386.896 349.871 389.008C349.871 392.56 350.831 394.336 352.751 394.336C353.255 394.336 353.807 394.108 354.407 393.652C355.031 393.196 355.463 392.68 355.703 392.104C356.159 390.808 356.387 389.392 356.387 387.856C356.387 386.32 356.195 385.204 355.811 384.508C355.451 383.812 354.827 383.464 353.939 383.464ZM361.629 373.708C361.701 372.796 361.845 372.208 362.061 371.944C362.301 371.656 362.673 371.512 363.177 371.512C364.209 371.512 364.725 371.932 364.725 372.772C364.725 373.42 364.665 375.112 364.545 377.848C364.449 380.584 364.401 383.032 364.401 385.192C364.401 387.352 364.485 389.092 364.653 390.412C364.941 392.716 365.349 393.868 365.877 393.868C366.405 393.868 366.801 393.496 367.065 392.752C367.185 392.464 367.377 392.212 367.641 391.996C367.905 391.756 368.241 391.636 368.649 391.636C369.489 391.636 369.909 392.344 369.909 393.76C369.909 394.528 369.489 395.296 368.649 396.064C367.833 396.808 367.017 397.18 366.201 397.18C365.385 397.18 364.725 397.048 364.221 396.784C363.741 396.496 363.345 396.076 363.033 395.524C362.745 394.972 362.505 394.444 362.313 393.94C362.145 393.412 362.025 392.776 361.953 392.032C361.809 390.832 361.701 388.912 361.629 386.272C361.581 383.608 361.557 381.076 361.557 378.676C361.557 376.252 361.581 374.596 361.629 373.708ZM375.944 391.744L375.98 395.452C375.98 395.884 375.776 396.28 375.368 396.64C374.984 397 374.6 397.18 374.216 397.18C373.664 397.18 373.316 396.748 373.172 395.884C373.148 395.692 373.052 393.94 372.884 390.628C372.716 387.292 372.392 384.676 371.912 382.78C371.696 381.868 371.588 381.328 371.588 381.16C371.588 380.368 372.068 379.972 373.028 379.972C373.436 379.972 373.76 380.128 374 380.44C374.24 380.752 374.384 381.076 374.432 381.412C374.504 381.724 374.564 382.156 374.612 382.708C374.66 383.26 374.696 383.608 374.72 383.752C375.224 382.552 375.98 381.652 376.988 381.052C377.996 380.452 379.1 380.152 380.3 380.152C382.268 380.152 383.252 380.656 383.252 381.664C383.252 382.168 383.072 382.576 382.712 382.888C382.376 383.176 381.98 383.32 381.524 383.32C379.484 383.32 378.044 383.968 377.204 385.264C376.364 386.56 375.944 388.72 375.944 391.744ZM390.335 380.332C391.607 380.332 392.819 380.704 393.971 381.448C395.123 382.192 395.699 383.116 395.699 384.22C395.699 385.3 395.231 386.356 394.295 387.388C393.359 388.396 392.111 389.008 390.551 389.224C389.879 389.32 388.871 389.368 387.527 389.368C387.791 391.408 388.307 392.752 389.075 393.4C389.315 393.664 389.639 393.796 390.047 393.796C391.535 393.796 392.783 393.328 393.791 392.392C394.799 391.432 395.519 390.952 395.951 390.952C396.143 390.952 396.431 391.132 396.815 391.492C397.199 391.852 397.391 392.188 397.391 392.5C397.391 393.124 396.635 394.024 395.123 395.2C394.451 395.752 393.635 396.22 392.675 396.604C391.739 396.964 390.863 397.144 390.047 397.144C387.959 397.144 386.423 395.8 385.439 393.112C384.815 391.456 384.503 389.632 384.503 387.64C384.503 385.648 384.971 383.932 385.907 382.492C386.843 381.052 388.319 380.332 390.335 380.332ZM390.515 382.816C389.603 382.816 388.823 383.332 388.175 384.364C387.935 384.724 387.707 385.54 387.491 386.812C390.851 386.812 392.531 385.984 392.531 384.328C392.531 383.32 391.859 382.816 390.515 382.816ZM409.539 380.188C410.595 380.188 411.123 381.088 411.123 382.888C411.123 383.08 411.123 383.284 411.123 383.5L411.051 386.02C411.027 386.812 411.015 387.592 411.015 388.36L411.555 396.496C411.555 397.096 410.943 397.396 409.719 397.396C409.647 397.396 409.467 397.396 409.179 397.396C408.915 397.396 408.723 397.288 408.603 397.072C408.507 396.856 408.495 396.592 408.567 396.28C408.663 395.968 408.639 395.62 408.495 395.236C407.391 396.412 405.927 397 404.103 397C400.719 397 399.027 394.384 399.027 389.152C399.027 386.248 399.567 384.052 400.647 382.564C401.751 381.076 403.323 380.332 405.363 380.332C406.323 380.332 407.283 380.5 408.243 380.836C408.555 380.404 408.987 380.188 409.539 380.188ZM405.795 383.464C404.427 383.464 403.407 383.86 402.735 384.652C402.063 385.444 401.727 386.896 401.727 389.008C401.727 392.56 402.687 394.336 404.607 394.336C405.111 394.336 405.663 394.108 406.263 393.652C406.887 393.196 407.319 392.68 407.559 392.104C408.015 390.808 408.243 389.392 408.243 387.856C408.243 386.32 408.051 385.204 407.667 384.508C407.307 383.812 406.683 383.464 405.795 383.464ZM422.197 380.152L422.161 373.204C422.161 371.908 422.569 371.26 423.385 371.26C424.225 371.26 424.693 371.62 424.789 372.34C424.837 372.652 424.897 374.536 424.969 377.992C425.041 381.448 425.149 384.688 425.293 387.712C425.461 390.736 425.545 393.556 425.545 396.172C425.545 396.892 425.005 397.252 423.925 397.252C423.205 397.252 422.845 396.748 422.845 395.74C421.813 396.556 420.589 396.964 419.173 396.964C417.373 396.964 415.909 396.292 414.781 394.948C413.677 393.604 413.125 391.948 413.125 389.98C413.125 388.012 413.521 386.176 414.313 384.472C415.129 382.744 416.389 381.508 418.093 380.764C419.149 380.308 420.169 380.08 421.153 380.08C421.513 380.08 421.861 380.104 422.197 380.152ZM422.377 385.084C422.209 384.556 422.005 384.16 421.765 383.896C421.525 383.608 421.261 383.44 420.973 383.392C420.709 383.32 420.385 383.284 420.001 383.284C419.617 383.284 419.149 383.428 418.597 383.716C418.045 384.004 417.577 384.472 417.193 385.12C416.425 386.416 416.041 387.784 416.041 389.224C416.041 390.64 416.317 391.804 416.869 392.716C417.445 393.604 418.249 394.048 419.281 394.048C420.337 394.048 421.165 393.532 421.765 392.5C422.365 391.468 422.665 390.148 422.665 388.54C422.665 386.74 422.569 385.588 422.377 385.084ZM439.104 380.368C439.416 380.368 439.716 380.476 440.004 380.692C440.316 380.908 440.472 381.148 440.472 381.412C440.472 382.108 439.452 385.876 437.412 392.716C435.372 399.556 433.86 404.356 432.876 407.116C432.66 407.764 432.324 408.088 431.868 408.088C431.412 408.088 431.052 407.92 430.788 407.584C430.524 407.272 430.392 406.804 430.392 406.18C430.392 405.556 430.788 404.056 431.58 401.68C432.396 399.328 432.888 397.828 433.056 397.18C432.456 396.172 430.428 391.132 426.972 382.06C426.924 381.94 426.9 381.784 426.9 381.592C426.9 381.4 427.044 381.148 427.332 380.836C427.62 380.524 428.016 380.368 428.52 380.368C429.024 380.368 429.432 380.62 429.744 381.124C430.08 381.988 430.632 383.5 431.4 385.66C432.168 387.796 432.756 389.344 433.164 390.304C433.596 391.264 434.004 392.26 434.388 393.292C434.724 392.164 435.3 389.98 436.116 386.74C436.932 383.476 437.4 381.616 437.52 381.16C437.616 380.632 438.144 380.368 439.104 380.368ZM451.751 384.76C451.751 383.344 452.255 382.216 453.263 381.376C454.271 380.536 455.435 380.116 456.755 380.116C458.099 380.116 459.383 380.356 460.607 380.836C461.831 381.316 462.443 381.952 462.443 382.744C462.443 383.152 462.287 383.476 461.975 383.716C461.663 383.956 461.387 384.076 461.147 384.076C460.931 384.076 460.751 384.076 460.607 384.076C460.487 384.052 460.007 383.824 459.167 383.392C458.351 382.96 457.595 382.744 456.899 382.744C456.203 382.744 455.603 382.924 455.099 383.284C454.619 383.62 454.379 384.124 454.379 384.796C454.379 385.468 454.655 385.996 455.207 386.38C455.783 386.764 456.779 387.1 458.195 387.388C459.611 387.652 460.691 388.036 461.435 388.54C462.203 389.044 462.587 389.98 462.587 391.348C462.587 393.34 462.059 394.756 461.003 395.596C459.971 396.412 458.711 396.82 457.223 396.82C455.735 396.82 454.463 396.616 453.407 396.208C452.375 395.8 451.859 395.188 451.859 394.372C451.859 393.436 452.327 392.968 453.263 392.968C453.503 392.968 454.031 393.136 454.847 393.472C455.663 393.808 456.467 393.976 457.259 393.976C458.075 393.976 458.687 393.724 459.095 393.22C459.527 392.692 459.743 392.092 459.743 391.42C459.743 390.748 459.467 390.268 458.915 389.98C458.363 389.668 457.523 389.416 456.395 389.224C455.267 389.032 454.439 388.828 453.911 388.612C452.471 388.036 451.751 386.752 451.751 384.76ZM465.891 380.188L467.691 380.224C468.099 380.224 468.327 380.212 468.375 380.188V372.808C468.399 372.4 468.603 372.052 468.987 371.764C469.371 371.476 469.731 371.332 470.067 371.332C470.403 371.332 470.667 371.44 470.859 371.656C471.075 371.872 471.171 372.208 471.147 372.664C471.123 373.12 471.111 375.616 471.111 380.152L475.323 380.008C476.043 380.008 476.403 380.428 476.403 381.268C476.403 381.892 476.211 382.36 475.827 382.672C475.467 382.984 475.071 383.152 474.639 383.176C474.231 383.2 473.823 383.212 473.415 383.212L471.219 383.176C471.219 384.16 471.315 386.104 471.507 389.008C471.723 391.912 471.891 393.796 472.011 394.66C472.131 395.5 472.155 396.052 472.083 396.316C472.011 396.556 471.879 396.724 471.687 396.82C471.375 396.964 470.955 397.036 470.427 397.036C469.899 397.036 469.587 396.748 469.491 396.172C469.011 393.028 468.687 388.708 468.519 383.212C468.303 383.236 467.475 383.248 466.035 383.248C464.595 383.248 463.875 382.828 463.875 381.988C463.875 380.788 464.547 380.188 465.891 380.188ZM487.41 380.188C488.466 380.188 488.994 381.088 488.994 382.888C488.994 383.08 488.994 383.284 488.994 383.5L488.922 386.02C488.898 386.812 488.886 387.592 488.886 388.36L489.426 396.496C489.426 397.096 488.814 397.396 487.59 397.396C487.518 397.396 487.338 397.396 487.05 397.396C486.786 397.396 486.594 397.288 486.474 397.072C486.378 396.856 486.366 396.592 486.438 396.28C486.534 395.968 486.51 395.62 486.366 395.236C485.262 396.412 483.798 397 481.974 397C478.59 397 476.898 394.384 476.898 389.152C476.898 386.248 477.438 384.052 478.518 382.564C479.622 381.076 481.194 380.332 483.234 380.332C484.194 380.332 485.154 380.5 486.114 380.836C486.426 380.404 486.858 380.188 487.41 380.188ZM483.666 383.464C482.298 383.464 481.278 383.86 480.606 384.652C479.934 385.444 479.598 386.896 479.598 389.008C479.598 392.56 480.558 394.336 482.478 394.336C482.982 394.336 483.534 394.108 484.134 393.652C484.758 393.196 485.19 392.68 485.43 392.104C485.886 390.808 486.114 389.392 486.114 387.856C486.114 386.32 485.922 385.204 485.538 384.508C485.178 383.812 484.554 383.464 483.666 383.464ZM496.108 391.744L496.144 395.452C496.144 395.884 495.94 396.28 495.532 396.64C495.148 397 494.764 397.18 494.38 397.18C493.828 397.18 493.48 396.748 493.336 395.884C493.312 395.692 493.216 393.94 493.048 390.628C492.88 387.292 492.556 384.676 492.076 382.78C491.86 381.868 491.752 381.328 491.752 381.16C491.752 380.368 492.232 379.972 493.192 379.972C493.6 379.972 493.924 380.128 494.164 380.44C494.404 380.752 494.548 381.076 494.596 381.412C494.668 381.724 494.728 382.156 494.776 382.708C494.824 383.26 494.86 383.608 494.884 383.752C495.388 382.552 496.144 381.652 497.152 381.052C498.16 380.452 499.264 380.152 500.464 380.152C502.432 380.152 503.416 380.656 503.416 381.664C503.416 382.168 503.236 382.576 502.876 382.888C502.54 383.176 502.144 383.32 501.688 383.32C499.648 383.32 498.208 383.968 497.368 385.264C496.528 386.56 496.108 388.72 496.108 391.744ZM506.215 380.188L508.015 380.224C508.423 380.224 508.651 380.212 508.699 380.188V372.808C508.723 372.4 508.927 372.052 509.311 371.764C509.695 371.476 510.055 371.332 510.391 371.332C510.727 371.332 510.991 371.44 511.183 371.656C511.399 371.872 511.495 372.208 511.471 372.664C511.447 373.12 511.435 375.616 511.435 380.152L515.647 380.008C516.367 380.008 516.727 380.428 516.727 381.268C516.727 381.892 516.535 382.36 516.151 382.672C515.791 382.984 515.395 383.152 514.963 383.176C514.555 383.2 514.147 383.212 513.739 383.212L511.543 383.176C511.543 384.16 511.639 386.104 511.831 389.008C512.047 391.912 512.215 393.796 512.335 394.66C512.455 395.5 512.479 396.052 512.407 396.316C512.335 396.556 512.203 396.724 512.011 396.82C511.699 396.964 511.279 397.036 510.751 397.036C510.223 397.036 509.911 396.748 509.815 396.172C509.335 393.028 509.011 388.708 508.843 383.212C508.627 383.236 507.799 383.248 506.359 383.248C504.919 383.248 504.199 382.828 504.199 381.988C504.199 380.788 504.871 380.188 506.215 380.188ZM522.874 380.332C524.146 380.332 525.358 380.704 526.51 381.448C527.662 382.192 528.238 383.116 528.238 384.22C528.238 385.3 527.77 386.356 526.834 387.388C525.898 388.396 524.65 389.008 523.09 389.224C522.418 389.32 521.41 389.368 520.066 389.368C520.33 391.408 520.846 392.752 521.614 393.4C521.854 393.664 522.178 393.796 522.586 393.796C524.074 393.796 525.322 393.328 526.33 392.392C527.338 391.432 528.058 390.952 528.49 390.952C528.682 390.952 528.97 391.132 529.354 391.492C529.738 391.852 529.93 392.188 529.93 392.5C529.93 393.124 529.174 394.024 527.662 395.2C526.99 395.752 526.174 396.22 525.214 396.604C524.278 396.964 523.402 397.144 522.586 397.144C520.498 397.144 518.962 395.8 517.978 393.112C517.354 391.456 517.042 389.632 517.042 387.64C517.042 385.648 517.51 383.932 518.446 382.492C519.382 381.052 520.858 380.332 522.874 380.332ZM523.054 382.816C522.142 382.816 521.362 383.332 520.714 384.364C520.474 384.724 520.246 385.54 520.03 386.812C523.39 386.812 525.07 385.984 525.07 384.328C525.07 383.32 524.398 382.816 523.054 382.816ZM540.638 380.152L540.602 373.204C540.602 371.908 541.01 371.26 541.826 371.26C542.666 371.26 543.134 371.62 543.23 372.34C543.278 372.652 543.338 374.536 543.41 377.992C543.482 381.448 543.59 384.688 543.734 387.712C543.902 390.736 543.986 393.556 543.986 396.172C543.986 396.892 543.446 397.252 542.366 397.252C541.646 397.252 541.286 396.748 541.286 395.74C540.254 396.556 539.03 396.964 537.614 396.964C535.814 396.964 534.35 396.292 533.222 394.948C532.118 393.604 531.566 391.948 531.566 389.98C531.566 388.012 531.962 386.176 532.754 384.472C533.57 382.744 534.83 381.508 536.534 380.764C537.59 380.308 538.61 380.08 539.594 380.08C539.954 380.08 540.302 380.104 540.638 380.152ZM540.818 385.084C540.65 384.556 540.446 384.16 540.206 383.896C539.966 383.608 539.702 383.44 539.414 383.392C539.15 383.32 538.826 383.284 538.442 383.284C538.058 383.284 537.59 383.428 537.038 383.716C536.486 384.004 536.018 384.472 535.634 385.12C534.866 386.416 534.482 387.784 534.482 389.224C534.482 390.64 534.758 391.804 535.31 392.716C535.886 393.604 536.69 394.048 537.722 394.048C538.778 394.048 539.606 393.532 540.206 392.5C540.806 391.468 541.106 390.148 541.106 388.54C541.106 386.74 541.01 385.588 540.818 385.084ZM559.002 391.744L559.038 395.452C559.038 395.884 558.834 396.28 558.426 396.64C558.042 397 557.658 397.18 557.274 397.18C556.722 397.18 556.374 396.748 556.23 395.884C556.206 395.692 556.11 393.94 555.942 390.628C555.774 387.292 555.45 384.676 554.97 382.78C554.754 381.868 554.646 381.328 554.646 381.16C554.646 380.368 555.126 379.972 556.086 379.972C556.494 379.972 556.818 380.128 557.058 380.44C557.298 380.752 557.442 381.076 557.49 381.412C557.562 381.724 557.622 382.156 557.67 382.708C557.718 383.26 557.754 383.608 557.778 383.752C558.282 382.552 559.038 381.652 560.046 381.052C561.054 380.452 562.158 380.152 563.358 380.152C565.326 380.152 566.31 380.656 566.31 381.664C566.31 382.168 566.13 382.576 565.77 382.888C565.434 383.176 565.038 383.32 564.582 383.32C562.542 383.32 561.102 383.968 560.262 385.264C559.422 386.56 559.002 388.72 559.002 391.744ZM578.254 380.188C579.31 380.188 579.838 381.088 579.838 382.888C579.838 383.08 579.838 383.284 579.838 383.5L579.766 386.02C579.742 386.812 579.73 387.592 579.73 388.36L580.27 396.496C580.27 397.096 579.658 397.396 578.434 397.396C578.362 397.396 578.182 397.396 577.894 397.396C577.63 397.396 577.438 397.288 577.318 397.072C577.222 396.856 577.21 396.592 577.282 396.28C577.378 395.968 577.354 395.62 577.21 395.236C576.106 396.412 574.642 397 572.818 397C569.434 397 567.742 394.384 567.742 389.152C567.742 386.248 568.282 384.052 569.362 382.564C570.466 381.076 572.038 380.332 574.078 380.332C575.038 380.332 575.998 380.5 576.958 380.836C577.27 380.404 577.702 380.188 578.254 380.188ZM574.51 383.464C573.142 383.464 572.122 383.86 571.45 384.652C570.778 385.444 570.442 386.896 570.442 389.008C570.442 392.56 571.402 394.336 573.322 394.336C573.826 394.336 574.378 394.108 574.978 393.652C575.602 393.196 576.034 392.68 576.274 392.104C576.73 390.808 576.958 389.392 576.958 387.856C576.958 386.32 576.766 385.204 576.382 384.508C576.022 383.812 575.398 383.464 574.51 383.464ZM583.675 395.884L583.279 381.268C583.279 380.812 583.435 380.44 583.747 380.152C584.059 379.864 584.371 379.72 584.683 379.72C585.451 379.72 585.895 380.044 586.015 380.692C586.111 381.34 586.159 382.012 586.159 382.708C587.455 381.004 589.075 380.152 591.019 380.152C593.995 380.152 595.483 383.548 595.483 390.34C595.483 390.964 595.483 391.912 595.483 393.184C595.483 394.432 595.411 395.344 595.267 395.92C595.099 396.64 594.583 397 593.719 397C593.143 397 592.855 396.616 592.855 395.848L592.891 393.832C592.891 391.048 592.795 389.152 592.603 388.144C592.435 387.112 592.267 386.296 592.099 385.696C591.691 384.4 591.031 383.752 590.119 383.752C588.919 383.752 588.079 384.184 587.599 385.048C587.071 385.984 586.759 387.088 586.663 388.36C586.495 390.592 586.411 392.956 586.411 395.452C586.411 395.932 586.231 396.316 585.871 396.604C585.511 396.892 585.079 397.036 584.575 397.036C583.975 397.036 583.675 396.652 583.675 395.884ZM607.189 380.152L607.153 373.204C607.153 371.908 607.561 371.26 608.377 371.26C609.217 371.26 609.685 371.62 609.781 372.34C609.829 372.652 609.889 374.536 609.961 377.992C610.033 381.448 610.141 384.688 610.285 387.712C610.453 390.736 610.537 393.556 610.537 396.172C610.537 396.892 609.997 397.252 608.917 397.252C608.197 397.252 607.837 396.748 607.837 395.74C606.805 396.556 605.581 396.964 604.165 396.964C602.365 396.964 600.901 396.292 599.773 394.948C598.669 393.604 598.117 391.948 598.117 389.98C598.117 388.012 598.513 386.176 599.305 384.472C600.121 382.744 601.381 381.508 603.085 380.764C604.141 380.308 605.161 380.08 606.145 380.08C606.505 380.08 606.853 380.104 607.189 380.152ZM607.369 385.084C607.201 384.556 606.997 384.16 606.757 383.896C606.517 383.608 606.253 383.44 605.965 383.392C605.701 383.32 605.377 383.284 604.993 383.284C604.609 383.284 604.141 383.428 603.589 383.716C603.037 384.004 602.569 384.472 602.185 385.12C601.417 386.416 601.033 387.784 601.033 389.224C601.033 390.64 601.309 391.804 601.861 392.716C602.437 393.604 603.241 394.048 604.273 394.048C605.329 394.048 606.157 393.532 606.757 392.5C607.357 391.468 607.657 390.148 607.657 388.54C607.657 386.74 607.561 385.588 607.369 385.084ZM618.984 380.224C620.712 380.224 622.128 381.052 623.232 382.708C624.36 384.364 624.924 386.356 624.924 388.684C624.924 390.988 624.348 392.956 623.196 394.588C622.068 396.22 620.556 397.036 618.66 397.036C616.788 397.036 615.276 396.208 614.124 394.552C612.972 392.872 612.396 391.012 612.396 388.972C612.396 386.356 612.924 384.268 613.98 382.708C615.108 381.052 616.776 380.224 618.984 380.224ZM618.552 383.176C617.544 383.176 616.716 383.704 616.068 384.76C615.42 385.816 615.096 386.932 615.096 388.108C615.096 389.932 615.456 391.324 616.176 392.284C616.896 393.244 617.712 393.724 618.624 393.724C620.256 393.724 621.3 393.016 621.756 391.6C621.948 390.928 622.044 390.088 622.044 389.08C622.044 385.144 620.88 383.176 618.552 383.176ZM629.184 397.036C628.56 397.036 628.188 396.688 628.068 395.992C628.068 391.144 627.78 386.824 627.204 383.032C627.204 382.552 627.372 382.12 627.708 381.736C628.068 381.352 628.464 381.16 628.896 381.16C629.352 381.16 629.688 381.412 629.904 381.916C630.792 380.74 631.98 380.152 633.468 380.152C635.364 380.152 636.828 381.064 637.86 382.888C639.06 381.16 640.644 380.296 642.612 380.296C644.604 380.296 646.092 381.088 647.076 382.672C647.724 383.656 648.18 384.952 648.444 386.56C648.708 388.168 648.84 390.448 648.84 393.4C648.84 394.552 648.72 395.452 648.48 396.1C648.24 396.724 647.736 397.036 646.968 397.036C646.344 397.036 646.032 396.64 646.032 395.848L646.14 391.348C646.14 385.948 644.736 383.248 641.928 383.248C641.04 383.248 640.416 383.56 640.056 384.184C639.648 384.928 639.408 385.708 639.336 386.524C639.24 387.964 639.192 389.272 639.192 390.448V395.668C639.192 396.052 639 396.376 638.616 396.64C638.232 396.904 637.836 397.036 637.428 397.036C636.9 397.036 636.564 396.688 636.42 395.992L636.528 388.54C636.528 385.9 636.084 384.256 635.196 383.608C634.764 383.296 634.104 383.14 633.216 383.14C632.352 383.14 631.704 383.464 631.272 384.112C630.864 384.76 630.66 385.804 630.66 387.244L630.876 393.94C630.876 396.004 630.312 397.036 629.184 397.036ZM670.229 395.524C669.365 396.532 668.273 397.036 666.953 397.036C665.633 397.036 664.493 396.628 663.533 395.812C661.517 394.252 660.509 391.864 660.509 388.648C660.509 386.128 661.205 384.112 662.597 382.6C663.989 381.064 665.705 380.296 667.745 380.296C669.785 380.296 671.177 380.992 671.921 382.384C672.569 383.608 672.893 385.456 672.893 387.928L672.821 390.88C672.821 392.272 672.881 394.204 673.001 396.676C673.145 399.124 673.217 400.972 673.217 402.22C673.217 404.284 672.701 405.796 671.669 406.756C670.661 407.74 669.113 408.232 667.025 408.232C665.777 408.232 664.505 407.968 663.209 407.44C661.913 406.912 661.265 406.3 661.265 405.604C661.265 405.1 661.397 404.716 661.661 404.452C661.949 404.188 662.273 404.056 662.633 404.056C662.993 404.056 663.797 404.32 665.045 404.848C666.317 405.376 667.229 405.64 667.781 405.64C669.509 405.64 670.373 404.224 670.373 401.392C670.373 398.56 670.325 396.604 670.229 395.524ZM670.193 387.928C670.193 386.176 669.929 384.952 669.401 384.256C668.897 383.536 668.093 383.176 666.989 383.176C665.885 383.176 664.997 383.68 664.325 384.688C663.653 385.696 663.317 386.98 663.317 388.54C663.317 390.076 663.629 391.3 664.253 392.212C664.901 393.124 665.885 393.58 667.205 393.58C668.525 393.58 669.377 393.016 669.761 391.888C670.049 390.976 670.193 389.656 670.193 387.928ZM685.973 380.188C687.029 380.188 687.557 381.088 687.557 382.888C687.557 383.08 687.557 383.284 687.557 383.5L687.485 386.02C687.461 386.812 687.449 387.592 687.449 388.36L687.989 396.496C687.989 397.096 687.377 397.396 686.153 397.396C686.081 397.396 685.901 397.396 685.613 397.396C685.349 397.396 685.157 397.288 685.037 397.072C684.941 396.856 684.929 396.592 685.001 396.28C685.097 395.968 685.073 395.62 684.929 395.236C683.825 396.412 682.361 397 680.537 397C677.153 397 675.461 394.384 675.461 389.152C675.461 386.248 676.001 384.052 677.081 382.564C678.185 381.076 679.757 380.332 681.797 380.332C682.757 380.332 683.717 380.5 684.677 380.836C684.989 380.404 685.421 380.188 685.973 380.188ZM682.229 383.464C680.861 383.464 679.841 383.86 679.169 384.652C678.497 385.444 678.161 386.896 678.161 389.008C678.161 392.56 679.121 394.336 681.041 394.336C681.545 394.336 682.097 394.108 682.697 393.652C683.321 393.196 683.753 392.68 683.993 392.104C684.449 390.808 684.677 389.392 684.677 387.856C684.677 386.32 684.485 385.204 684.101 384.508C683.741 383.812 683.117 383.464 682.229 383.464ZM692.078 397.036C691.454 397.036 691.082 396.688 690.962 395.992C690.962 391.144 690.674 386.824 690.098 383.032C690.098 382.552 690.266 382.12 690.602 381.736C690.962 381.352 691.358 381.16 691.79 381.16C692.246 381.16 692.582 381.412 692.798 381.916C693.686 380.74 694.874 380.152 696.362 380.152C698.258 380.152 699.722 381.064 700.754 382.888C701.954 381.16 703.538 380.296 705.506 380.296C707.498 380.296 708.986 381.088 709.97 382.672C710.618 383.656 711.074 384.952 711.338 386.56C711.602 388.168 711.734 390.448 711.734 393.4C711.734 394.552 711.614 395.452 711.374 396.1C711.134 396.724 710.63 397.036 709.862 397.036C709.238 397.036 708.926 396.64 708.926 395.848L709.034 391.348C709.034 385.948 707.63 383.248 704.822 383.248C703.934 383.248 703.31 383.56 702.95 384.184C702.542 384.928 702.302 385.708 702.23 386.524C702.134 387.964 702.086 389.272 702.086 390.448V395.668C702.086 396.052 701.894 396.376 701.51 396.64C701.126 396.904 700.73 397.036 700.322 397.036C699.794 397.036 699.458 396.688 699.314 395.992L699.422 388.54C699.422 385.9 698.978 384.256 698.09 383.608C697.658 383.296 696.998 383.14 696.11 383.14C695.246 383.14 694.598 383.464 694.166 384.112C693.758 384.76 693.554 385.804 693.554 387.244L693.77 393.94C693.77 396.004 693.206 397.036 692.078 397.036ZM719.679 380.332C720.951 380.332 722.163 380.704 723.315 381.448C724.467 382.192 725.043 383.116 725.043 384.22C725.043 385.3 724.575 386.356 723.639 387.388C722.703 388.396 721.455 389.008 719.895 389.224C719.223 389.32 718.215 389.368 716.871 389.368C717.135 391.408 717.651 392.752 718.419 393.4C718.659 393.664 718.983 393.796 719.391 393.796C720.879 393.796 722.127 393.328 723.135 392.392C724.143 391.432 724.863 390.952 725.295 390.952C725.487 390.952 725.775 391.132 726.159 391.492C726.543 391.852 726.735 392.188 726.735 392.5C726.735 393.124 725.979 394.024 724.467 395.2C723.795 395.752 722.979 396.22 722.019 396.604C721.083 396.964 720.207 397.144 719.391 397.144C717.303 397.144 715.767 395.8 714.783 393.112C714.159 391.456 713.847 389.632 713.847 387.64C713.847 385.648 714.315 383.932 715.251 382.492C716.187 381.052 717.663 380.332 719.679 380.332ZM719.859 382.816C718.947 382.816 718.167 383.332 717.519 384.364C717.279 384.724 717.051 385.54 716.835 386.812C720.195 386.812 721.875 385.984 721.875 384.328C721.875 383.32 721.203 382.816 719.859 382.816ZM731.323 392.68C731.851 392.68 732.307 392.872 732.691 393.256C733.075 393.64 733.303 394.168 733.375 394.84C733.375 395.368 733.183 395.86 732.799 396.316C732.415 396.748 731.959 396.964 731.431 396.964C730.927 396.964 730.471 396.832 730.063 396.568C729.655 396.28 729.451 395.848 729.451 395.272C729.451 394.696 729.631 394.12 729.991 393.544C730.375 392.968 730.819 392.68 731.323 392.68Z" fill="black"/>
<path d="M685 274C685 292.778 669.33 308 650 308C630.67 308 615 292.778 615 274C615 255.222 630.67 240 650 240C669.33 240 685 255.222 685 274Z" fill="#FB0000"/>
<path d="M654.837 285.308C654.837 286.484 654.201 287.072 652.929 287.072C652.665 287.072 652.425 286.964 652.209 286.748C652.017 286.508 651.921 286.148 651.921 285.668L651.813 276.524C651.813 273.5 651.849 270.656 651.921 267.992C651.105 268.712 650.313 269.54 649.545 270.476C648.777 271.412 648.249 272.036 647.961 272.348C647.697 272.66 647.337 272.972 646.881 273.284C646.449 273.572 646.041 273.716 645.657 273.716C645.273 273.716 644.961 273.584 644.721 273.32C644.505 273.056 644.397 272.732 644.397 272.348C644.397 271.964 644.673 271.448 645.225 270.8C645.801 270.128 647.889 267.884 651.489 264.068C652.041 263.564 652.737 263.312 653.577 263.312C653.985 263.312 654.321 263.432 654.585 263.672C654.849 263.912 654.981 264.188 654.981 264.5L654.729 274.184L654.837 285.308Z" fill="white"/>
<path d="M685 489C685 507.778 669.33 523 650 523C630.67 523 615 507.778 615 489C615 470.222 630.67 455 650 455C669.33 455 685 470.222 685 489Z" fill="#FB0000"/>
<path d="M652.128 502.072L646.836 502C646.596 502 646.356 502 646.116 502C643.74 502 642.552 501.544 642.552 500.632C642.552 499.984 642.672 499.372 642.912 498.796C643.152 498.22 643.38 497.788 643.596 497.5C643.812 497.212 644.244 496.732 644.892 496.06C645.54 495.388 646.008 494.884 646.296 494.548C646.584 494.212 647.448 493.36 648.888 491.992C650.352 490.624 651.444 489.388 652.164 488.284C652.908 487.18 653.28 486.016 653.28 484.792C653.28 482.896 652.524 481.672 651.012 481.12C650.58 480.976 650.136 480.904 649.68 480.904C648.648 480.904 647.616 481.348 646.584 482.236C646.176 482.62 645.744 482.812 645.288 482.812C645.144 482.812 645.012 482.8 644.892 482.776C644.292 482.632 643.992 482.212 643.992 481.516C643.992 480.58 644.652 479.8 645.972 479.176C647.388 478.504 648.924 478.168 650.58 478.168C652.26 478.168 653.628 478.78 654.684 480.004C655.764 481.204 656.304 482.704 656.304 484.504C656.304 487.072 655.512 489.28 653.928 491.128C653.184 491.992 652.428 492.796 651.66 493.54C649.236 495.844 647.616 497.596 646.8 498.796C647.88 498.868 649.212 498.904 650.796 498.904C652.404 498.904 654.384 498.808 656.736 498.616C657.096 498.688 657.384 498.856 657.6 499.12C657.84 499.36 657.96 499.636 657.96 499.948C657.96 500.764 657.528 501.328 656.664 501.64C655.8 501.928 654.288 502.072 652.128 502.072Z" fill="white"/>
<g clip-path="url(#clip2)">
<path d="M6 2H938" stroke="black" stroke-width="3" stroke-linecap="round" stroke-linejoin="round"/>
<path d="M5 657H939" stroke="black" stroke-width="3" stroke-linecap="round" stroke-linejoin="round"/>
<path d="M6 658L6 3.00001" stroke="black" stroke-width="3" stroke-linecap="round" stroke-linejoin="round"/>
<path d="M938 654V3.00001" stroke="black" stroke-width="3" stroke-linecap="round" stroke-linejoin="round"/>
</g>
</g>
<defs>
<filter id="filter0_d" x="0" y="0" width="944" height="667" filterUnits="userSpaceOnUse" color-interpolation-filters="sRGB">
<feFlood flood-opacity="0" result="BackgroundImageFix"/>
<feColorMatrix in="SourceAlpha" type="matrix" values="0 0 0 0 0 0 0 0 0 0 0 0 0 0 0 0 0 0 127 0"/>
<feOffset dy="4"/>
<feGaussianBlur stdDeviation="2"/>
<feColorMatrix type="matrix" values="0 0 0 0 0 0 0 0 0 0 0 0 0 0 0 0 0 0 0.25 0"/>
<feBlend mode="normal" in2="BackgroundImageFix" result="effect1_dropShadow"/>
<feBlend mode="normal" in="SourceGraphic" in2="effect1_dropShadow" result="shape"/>
</filter>
<linearGradient id="paint0_linear" x1="468" y1="0" x2="468" y2="659" gradientUnits="userSpaceOnUse">
<stop stop-color="white"/>
<stop offset="1" stop-color="white" stop-opacity="0"/>
</linearGradient>
<clipPath id="clip0">
<rect width="232" height="64" fill="white" transform="translate(355 242)"/>
</clipPath>
<clipPath id="clip1">
<rect width="230" height="64" fill="white" transform="translate(358 451)"/>
</clipPath>
<clipPath id="clip2">
<rect width="936" height="659" fill="white" transform="translate(4)"/>
</clipPath>
</defs>
</svg>
