<svg width="1776" height="1010" viewBox="0 0 1776 1010" fill="none" xmlns="http://www.w3.org/2000/svg">
<rect width="1776" height="1010" fill="white"/>
<rect x="3" y="36" width="1769" height="970" fill="white"/>
<rect x="3" y="3" width="1768" height="77" fill="#E5E5E5"/>
<g clip-path="url(#clip0)">
<path d="M2 1.99992C2 1.99992 386.828 3.49993 888 1.99992C1389.17 0.499908 1774 1.99992 1774 1.99992" stroke="black" stroke-width="3" stroke-linecap="round" stroke-linejoin="round"/>
<path d="M7 1008C7 1008 390.308 1009.5 889.5 1008C1388.69 1006.5 1772 1008 1772 1008" stroke="black" stroke-width="3" stroke-linecap="round" stroke-linejoin="round"/>
<path d="M2.00016 1009C2.00016 1009 3.50018 790.525 2.00016 506C0.500153 221.475 2.00016 2.99998 2.00016 2.99998" stroke="black" stroke-width="3" stroke-linecap="round" stroke-linejoin="round"/>
<path d="M1773 1008C1773 1008 1776.75 789.742 1773 505.5C1769.25 221.258 1773 3.00001 1773 3.00001" stroke="black" stroke-width="3" stroke-linecap="round" stroke-linejoin="round"/>
</g>
<path d="M1769 78C1540.74 79 1416.68 78.4954 1183.95 78C949.05 77.5 818.301 77.5 590.045 78C361.582 78.5005 233.256 78.5 4.99998 78" stroke="black" stroke-width="3" stroke-linecap="round" stroke-linejoin="round"/>
<circle cx="19" cy="19" r="4.5" fill="white" stroke="black" stroke-width="3"/>
<circle cx="37" cy="19" r="4.5" fill="white" stroke="black" stroke-width="3"/>
<circle cx="55" cy="19" r="4.5" fill="white" stroke="black" stroke-width="3"/>
<g clip-path="url(#clip1)">
<rect x="133" y="40" width="1475" height="28" fill="white"/>
<path d="M133 40H1607" stroke="black" stroke-width="3" stroke-linecap="round" stroke-linejoin="round"/>
<path d="M132 68H1608" stroke="black" stroke-width="3" stroke-linecap="round" stroke-linejoin="round"/>
<path d="M133 69V41" stroke="black" stroke-width="3" stroke-linecap="round" stroke-linejoin="round"/>
<path d="M1607 67V41" stroke="black" stroke-width="3" stroke-linecap="round" stroke-linejoin="round"/>
<path d="M142.03 54.464L142.142 57.768C142.142 58.1787 142.123 58.4167 142.086 58.482C142.067 58.65 142.011 58.7807 141.918 58.874C141.834 58.9673 141.666 59.014 141.414 59.014C141.293 59.014 141.195 58.9393 141.12 58.79C141.045 58.6313 141.003 58.454 140.994 58.258C140.929 56.6153 140.84 55.0753 140.728 53.638C140.625 52.1913 140.574 50.8473 140.574 49.606C140.574 49.41 140.639 49.256 140.77 49.144C140.901 49.032 141.055 48.976 141.232 48.976C141.493 48.976 141.647 49.2 141.694 49.648C141.75 50.096 141.783 50.656 141.792 51.328C141.811 52 141.829 52.49 141.848 52.798C142.315 52.5553 142.781 52.434 143.248 52.434C144.331 52.434 145.017 52.91 145.306 53.862C145.474 54.4033 145.558 55.0987 145.558 55.948C145.558 56.228 145.53 56.6713 145.474 57.278C145.427 57.8753 145.399 58.2627 145.39 58.44C145.381 58.6173 145.301 58.7573 145.152 58.86C145.012 58.9533 144.858 59 144.69 59C144.429 59 144.298 58.86 144.298 58.58L144.396 56.144C144.396 55.9387 144.387 55.598 144.368 55.122C144.349 54.646 144.251 54.268 144.074 53.988C143.906 53.708 143.607 53.568 143.178 53.568C142.413 53.568 142.03 53.8667 142.03 54.464ZM146.761 52.462L147.461 52.476C147.62 52.476 147.708 52.4713 147.727 52.462V49.592C147.736 49.4333 147.816 49.298 147.965 49.186C148.114 49.074 148.254 49.018 148.385 49.018C148.516 49.018 148.618 49.06 148.693 49.144C148.777 49.228 148.814 49.3587 148.805 49.536C148.796 49.7133 148.791 50.684 148.791 52.448L150.429 52.392C150.709 52.392 150.849 52.5553 150.849 52.882C150.849 53.1247 150.774 53.3067 150.625 53.428C150.485 53.5493 150.331 53.6147 150.163 53.624C150.004 53.6333 149.846 53.638 149.687 53.638L148.833 53.624C148.833 54.0067 148.87 54.7627 148.945 55.892C149.029 57.0213 149.094 57.754 149.141 58.09C149.188 58.4167 149.197 58.6313 149.169 58.734C149.141 58.8273 149.09 58.8927 149.015 58.93C148.894 58.986 148.73 59.014 148.525 59.014C148.32 59.014 148.198 58.902 148.161 58.678C147.974 57.4553 147.848 55.7753 147.783 53.638C147.699 53.6473 147.377 53.652 146.817 53.652C146.257 53.652 145.977 53.4887 145.977 53.162C145.977 52.6953 146.238 52.462 146.761 52.462ZM151.573 52.462L152.273 52.476C152.432 52.476 152.521 52.4713 152.539 52.462V49.592C152.549 49.4333 152.628 49.298 152.777 49.186C152.927 49.074 153.067 49.018 153.197 49.018C153.328 49.018 153.431 49.06 153.505 49.144C153.589 49.228 153.627 49.3587 153.617 49.536C153.608 49.7133 153.603 50.684 153.603 52.448L155.241 52.392C155.521 52.392 155.661 52.5553 155.661 52.882C155.661 53.1247 155.587 53.3067 155.437 53.428C155.297 53.5493 155.143 53.6147 154.975 53.624C154.817 53.6333 154.658 53.638 154.499 53.638L153.645 53.624C153.645 54.0067 153.683 54.7627 153.757 55.892C153.841 57.0213 153.907 57.754 153.953 58.09C154 58.4167 154.009 58.6313 153.981 58.734C153.953 58.8273 153.902 58.8927 153.827 58.93C153.706 58.986 153.543 59.014 153.337 59.014C153.132 59.014 153.011 58.902 152.973 58.678C152.787 57.4553 152.661 55.7753 152.595 53.638C152.511 53.6473 152.189 53.652 151.629 53.652C151.069 53.652 150.789 53.4887 150.789 53.162C150.789 52.6953 151.051 52.462 151.573 52.462ZM158.248 58.986C157.931 58.986 157.637 58.8787 157.366 58.664C157.366 58.664 157.305 58.6127 157.184 58.51V62.71C157.128 62.8967 157.03 63.0507 156.89 63.172C156.75 63.3027 156.601 63.368 156.442 63.368C156.199 63.368 156.078 63.2047 156.078 62.878V53.12C156.134 52.8773 156.199 52.7047 156.274 52.602C156.358 52.4993 156.484 52.448 156.652 52.448C156.829 52.448 156.941 52.49 156.988 52.574C157.044 52.6487 157.109 52.8633 157.184 53.218C157.221 53.0313 157.371 52.8587 157.632 52.7C157.893 52.5413 158.243 52.462 158.682 52.462C159.634 52.462 160.311 52.8073 160.712 53.498C161.113 54.1887 161.314 55.0053 161.314 55.948C161.314 56.8813 161.039 57.6233 160.488 58.174C159.947 58.7153 159.2 58.986 158.248 58.986ZM157.184 54.786V57.39C157.24 57.418 157.305 57.4647 157.38 57.53C157.651 57.7727 157.945 57.894 158.262 57.894C159.55 57.894 160.194 57.2313 160.194 55.906C160.194 54.7767 159.905 54.0627 159.326 53.764C159.083 53.6333 158.785 53.568 158.43 53.568C158.085 53.6147 157.791 53.7687 157.548 54.03C157.305 54.282 157.184 54.534 157.184 54.786ZM163.032 53.134C163.238 53.134 163.415 53.2087 163.564 53.358C163.723 53.5073 163.816 53.7127 163.844 53.974C163.844 54.1793 163.765 54.3707 163.606 54.548C163.457 54.716 163.284 54.8 163.088 54.8C162.892 54.8 162.715 54.744 162.556 54.632C162.398 54.52 162.318 54.3567 162.318 54.142C162.318 53.918 162.388 53.694 162.528 53.47C162.668 53.246 162.836 53.134 163.032 53.134ZM163.228 57.418C163.303 57.418 163.396 57.4413 163.508 57.488C163.574 57.5253 163.644 57.628 163.718 57.796C163.802 57.964 163.844 58.132 163.844 58.3C163.844 58.468 163.765 58.6267 163.606 58.776C163.448 58.916 163.27 58.986 163.074 58.986C162.878 58.986 162.715 58.916 162.584 58.776C162.463 58.6267 162.402 58.44 162.402 58.216C162.402 57.684 162.678 57.418 163.228 57.418ZM165.362 59.196C165.362 59.1587 165.376 59.0933 165.404 59C166.011 57.572 166.673 55.9153 167.392 54.03C168.111 52.1447 168.773 50.474 169.38 49.018C169.511 48.7753 169.702 48.654 169.954 48.654C170.066 48.654 170.159 48.6867 170.234 48.752C170.309 48.8173 170.346 48.906 170.346 49.018C170.346 49.1207 170.229 49.4427 169.996 49.984C169.763 50.5253 169.198 51.9393 168.302 54.226C167.415 56.5033 166.734 58.188 166.258 59.28C166.099 59.4947 165.927 59.602 165.74 59.602C165.488 59.602 165.362 59.4667 165.362 59.196ZM171.282 59.196C171.282 59.1587 171.296 59.0933 171.324 59C171.931 57.572 172.593 55.9153 173.312 54.03C174.031 52.1447 174.693 50.474 175.3 49.018C175.431 48.7753 175.622 48.654 175.874 48.654C175.986 48.654 176.079 48.6867 176.154 48.752C176.229 48.8173 176.266 48.906 176.266 49.018C176.266 49.1207 176.149 49.4427 175.916 49.984C175.683 50.5253 175.118 51.9393 174.222 54.226C173.335 56.5033 172.654 58.188 172.178 59.28C172.019 59.4947 171.847 59.602 171.66 59.602C171.408 59.602 171.282 59.4667 171.282 59.196ZM179.134 52.518C179.629 52.518 180.1 52.6627 180.548 52.952C180.996 53.2413 181.22 53.6007 181.22 54.03C181.22 54.45 181.038 54.8607 180.674 55.262C180.31 55.654 179.825 55.892 179.218 55.976C178.957 56.0133 178.565 56.032 178.042 56.032C178.145 56.8253 178.345 57.348 178.644 57.6C178.737 57.7027 178.863 57.754 179.022 57.754C179.601 57.754 180.086 57.572 180.478 57.208C180.87 56.8347 181.15 56.648 181.318 56.648C181.393 56.648 181.505 56.718 181.654 56.858C181.803 56.998 181.878 57.1287 181.878 57.25C181.878 57.4927 181.584 57.8427 180.996 58.3C180.735 58.5147 180.417 58.6967 180.044 58.846C179.68 58.986 179.339 59.056 179.022 59.056C178.21 59.056 177.613 58.5333 177.23 57.488C176.987 56.844 176.866 56.1347 176.866 55.36C176.866 54.5853 177.048 53.918 177.412 53.358C177.776 52.798 178.35 52.518 179.134 52.518ZM179.204 53.484C178.849 53.484 178.546 53.6847 178.294 54.086C178.201 54.226 178.112 54.5433 178.028 55.038C179.335 55.038 179.988 54.716 179.988 54.072C179.988 53.68 179.727 53.484 179.204 53.484ZM184.278 52.714L185.426 54.73C185.743 54.3847 186.042 54.002 186.322 53.582L186.91 52.714C187.022 52.5553 187.157 52.476 187.316 52.476C187.484 52.476 187.619 52.5273 187.722 52.63C187.825 52.7233 187.876 52.84 187.876 52.98C187.876 53.1107 187.68 53.4747 187.288 54.072C186.896 54.66 186.476 55.234 186.028 55.794C186.112 55.9247 186.299 56.228 186.588 56.704C186.877 57.18 187.195 57.6327 187.54 58.062C187.605 58.1647 187.638 58.2907 187.638 58.44C187.638 58.58 187.582 58.7107 187.47 58.832C187.358 58.9533 187.232 59.014 187.092 59.014C186.859 59.014 186.555 58.7573 186.182 58.244C185.809 57.7213 185.477 57.152 185.188 56.536C184.908 56.9187 184.633 57.32 184.362 57.74C184.101 58.16 183.895 58.468 183.746 58.664C183.606 58.8507 183.447 58.944 183.27 58.944C183.102 58.944 182.967 58.8927 182.864 58.79C182.771 58.6873 182.724 58.5613 182.724 58.412C182.724 58.048 183.377 57.1287 184.684 55.654C184.525 55.346 184.236 54.8653 183.816 54.212C183.396 53.5587 183.186 53.1573 183.186 53.008C183.186 52.8587 183.247 52.728 183.368 52.616C183.499 52.504 183.657 52.448 183.844 52.448C184.04 52.448 184.185 52.5367 184.278 52.714ZM192.877 52.462C193.288 52.462 193.493 52.812 193.493 53.512C193.493 53.5867 193.493 53.666 193.493 53.75L193.465 54.73C193.456 55.038 193.451 55.3413 193.451 55.64L193.661 58.804C193.661 59.0373 193.423 59.154 192.947 59.154C192.919 59.154 192.849 59.154 192.737 59.154C192.635 59.154 192.56 59.112 192.513 59.028C192.476 58.944 192.471 58.8413 192.499 58.72C192.537 58.5987 192.527 58.4633 192.471 58.314C192.042 58.7713 191.473 59 190.763 59C189.447 59 188.789 57.9827 188.789 55.948C188.789 54.8187 188.999 53.9647 189.419 53.386C189.849 52.8073 190.46 52.518 191.253 52.518C191.627 52.518 192 52.5833 192.373 52.714C192.495 52.546 192.663 52.462 192.877 52.462ZM191.421 53.736C190.889 53.736 190.493 53.89 190.231 54.198C189.97 54.506 189.839 55.0707 189.839 55.892C189.839 57.2733 190.213 57.964 190.959 57.964C191.155 57.964 191.37 57.8753 191.603 57.698C191.846 57.5207 192.014 57.32 192.107 57.096C192.285 56.592 192.373 56.0413 192.373 55.444C192.373 54.8467 192.299 54.4127 192.149 54.142C192.009 53.8713 191.767 53.736 191.421 53.736ZM195.252 59.014C195.009 59.014 194.865 58.8787 194.818 58.608C194.818 56.7227 194.706 55.0427 194.482 53.568C194.482 53.3813 194.547 53.2133 194.678 53.064C194.818 52.9147 194.972 52.84 195.14 52.84C195.317 52.84 195.448 52.938 195.532 53.134C195.877 52.6767 196.339 52.448 196.918 52.448C197.655 52.448 198.225 52.8027 198.626 53.512C199.093 52.84 199.709 52.504 200.474 52.504C201.249 52.504 201.827 52.812 202.21 53.428C202.462 53.8107 202.639 54.3147 202.742 54.94C202.845 55.5653 202.896 56.452 202.896 57.6C202.896 58.048 202.849 58.398 202.756 58.65C202.663 58.8927 202.467 59.014 202.168 59.014C201.925 59.014 201.804 58.86 201.804 58.552L201.846 56.802C201.846 54.702 201.3 53.652 200.208 53.652C199.863 53.652 199.62 53.7733 199.48 54.016C199.321 54.3053 199.228 54.6087 199.2 54.926C199.163 55.486 199.144 55.9947 199.144 56.452V58.482C199.144 58.6313 199.069 58.7573 198.92 58.86C198.771 58.9627 198.617 59.014 198.458 59.014C198.253 59.014 198.122 58.8787 198.066 58.608L198.108 55.71C198.108 54.6833 197.935 54.044 197.59 53.792C197.422 53.6707 197.165 53.61 196.82 53.61C196.484 53.61 196.232 53.736 196.064 53.988C195.905 54.24 195.826 54.646 195.826 55.206L195.91 57.81C195.91 58.6127 195.691 59.014 195.252 59.014ZM206.182 58.986C205.864 58.986 205.57 58.8787 205.3 58.664C205.3 58.664 205.239 58.6127 205.118 58.51V62.71C205.062 62.8967 204.964 63.0507 204.824 63.172C204.684 63.3027 204.534 63.368 204.376 63.368C204.133 63.368 204.012 63.2047 204.012 62.878V53.12C204.068 52.8773 204.133 52.7047 204.208 52.602C204.292 52.4993 204.418 52.448 204.586 52.448C204.763 52.448 204.875 52.49 204.922 52.574C204.978 52.6487 205.043 52.8633 205.118 53.218C205.155 53.0313 205.304 52.8587 205.566 52.7C205.827 52.5413 206.177 52.462 206.616 52.462C207.568 52.462 208.244 52.8073 208.646 53.498C209.047 54.1887 209.248 55.0053 209.248 55.948C209.248 56.8813 208.972 57.6233 208.422 58.174C207.88 58.7153 207.134 58.986 206.182 58.986ZM205.118 54.786V57.39C205.174 57.418 205.239 57.4647 205.314 57.53C205.584 57.7727 205.878 57.894 206.196 57.894C207.484 57.894 208.128 57.2313 208.128 55.906C208.128 54.7767 207.838 54.0627 207.26 53.764C207.017 53.6333 206.718 53.568 206.364 53.568C206.018 53.6147 205.724 53.7687 205.482 54.03C205.239 54.282 205.118 54.534 205.118 54.786ZM209.916 49.942C209.944 49.5873 210 49.3587 210.084 49.256C210.177 49.144 210.322 49.088 210.518 49.088C210.919 49.088 211.12 49.2513 211.12 49.578C211.12 49.83 211.096 50.488 211.05 51.552C211.012 52.616 210.994 53.568 210.994 54.408C210.994 55.248 211.026 55.9247 211.092 56.438C211.204 57.334 211.362 57.782 211.568 57.782C211.773 57.782 211.927 57.6373 212.03 57.348C212.076 57.236 212.151 57.138 212.254 57.054C212.356 56.9607 212.487 56.914 212.646 56.914C212.972 56.914 213.136 57.1893 213.136 57.74C213.136 58.0387 212.972 58.3373 212.646 58.636C212.328 58.9253 212.011 59.07 211.694 59.07C211.376 59.07 211.12 59.0187 210.924 58.916C210.737 58.804 210.583 58.6407 210.462 58.426C210.35 58.2113 210.256 58.006 210.182 57.81C210.116 57.6047 210.07 57.3573 210.042 57.068C209.986 56.6013 209.944 55.8547 209.916 54.828C209.897 53.792 209.888 52.8073 209.888 51.874C209.888 50.9313 209.897 50.2873 209.916 49.942ZM215.693 52.518C216.187 52.518 216.659 52.6627 217.107 52.952C217.555 53.2413 217.779 53.6007 217.779 54.03C217.779 54.45 217.597 54.8607 217.233 55.262C216.869 55.654 216.383 55.892 215.777 55.976C215.515 56.0133 215.123 56.032 214.601 56.032C214.703 56.8253 214.904 57.348 215.203 57.6C215.296 57.7027 215.422 57.754 215.581 57.754C216.159 57.754 216.645 57.572 217.037 57.208C217.429 56.8347 217.709 56.648 217.877 56.648C217.951 56.648 218.063 56.718 218.213 56.858C218.362 56.998 218.437 57.1287 218.437 57.25C218.437 57.4927 218.143 57.8427 217.555 58.3C217.293 58.5147 216.976 58.6967 216.603 58.846C216.239 58.986 215.898 59.056 215.581 59.056C214.769 59.056 214.171 58.5333 213.789 57.488C213.546 56.844 213.425 56.1347 213.425 55.36C213.425 54.5853 213.607 53.918 213.971 53.358C214.335 52.798 214.909 52.518 215.693 52.518ZM215.763 53.484C215.408 53.484 215.105 53.6847 214.853 54.086C214.759 54.226 214.671 54.5433 214.587 55.038C215.893 55.038 216.547 54.716 216.547 54.072C216.547 53.68 216.285 53.484 215.763 53.484ZM220.221 57.32C220.426 57.32 220.603 57.3947 220.753 57.544C220.902 57.6933 220.991 57.8987 221.019 58.16C221.019 58.3653 220.944 58.5567 220.795 58.734C220.645 58.902 220.468 58.986 220.263 58.986C220.067 58.986 219.889 58.9347 219.731 58.832C219.572 58.72 219.493 58.552 219.493 58.328C219.493 58.104 219.563 57.88 219.703 57.656C219.852 57.432 220.025 57.32 220.221 57.32ZM222.053 55.724C222.053 55.0987 222.216 54.5293 222.543 54.016C222.879 53.5027 223.303 53.12 223.817 52.868C224.33 52.6067 224.829 52.476 225.315 52.476C225.8 52.476 226.187 52.5367 226.477 52.658C226.775 52.77 226.925 52.924 226.925 53.12C226.925 53.3067 226.869 53.498 226.757 53.694C226.654 53.8807 226.514 53.974 226.337 53.974C226.271 53.974 226.089 53.9227 225.791 53.82C225.501 53.708 225.315 53.652 225.231 53.652C224.689 53.652 224.227 53.8527 223.845 54.254C223.462 54.646 223.271 55.1687 223.271 55.822C223.271 56.4753 223.373 56.9653 223.579 57.292C223.793 57.6093 224.157 57.768 224.671 57.768C224.876 57.768 225.226 57.6513 225.721 57.418C226.225 57.1753 226.537 57.054 226.659 57.054C226.78 57.054 226.878 57.0913 226.953 57.166C227.027 57.2407 227.065 57.334 227.065 57.446C227.065 57.67 226.92 57.908 226.631 58.16C226.351 58.4027 226.001 58.608 225.581 58.776C225.161 58.9347 224.783 59.014 224.447 59.014C223.7 59.014 223.112 58.72 222.683 58.132C222.263 57.544 222.053 56.7413 222.053 55.724ZM230.155 52.476C230.827 52.476 231.377 52.798 231.807 53.442C232.245 54.086 232.465 54.8607 232.465 55.766C232.465 56.662 232.241 57.4273 231.793 58.062C231.354 58.6967 230.766 59.014 230.029 59.014C229.301 59.014 228.713 58.692 228.265 58.048C227.817 57.3947 227.593 56.6713 227.593 55.878C227.593 54.8607 227.798 54.0487 228.209 53.442C228.647 52.798 229.296 52.476 230.155 52.476ZM229.987 53.624C229.595 53.624 229.273 53.8293 229.021 54.24C228.769 54.6507 228.643 55.0847 228.643 55.542C228.643 56.2513 228.783 56.7927 229.063 57.166C229.343 57.5393 229.66 57.726 230.015 57.726C230.649 57.726 231.055 57.4507 231.233 56.9C231.307 56.6387 231.345 56.312 231.345 55.92C231.345 54.3893 230.892 53.624 229.987 53.624ZM234.121 59.014C233.878 59.014 233.734 58.8787 233.687 58.608C233.687 56.7227 233.575 55.0427 233.351 53.568C233.351 53.3813 233.416 53.2133 233.547 53.064C233.687 52.9147 233.841 52.84 234.009 52.84C234.186 52.84 234.317 52.938 234.401 53.134C234.746 52.6767 235.208 52.448 235.787 52.448C236.524 52.448 237.094 52.8027 237.495 53.512C237.962 52.84 238.578 52.504 239.343 52.504C240.118 52.504 240.696 52.812 241.079 53.428C241.331 53.8107 241.508 54.3147 241.611 54.94C241.714 55.5653 241.765 56.452 241.765 57.6C241.765 58.048 241.718 58.398 241.625 58.65C241.532 58.8927 241.336 59.014 241.037 59.014C240.794 59.014 240.673 58.86 240.673 58.552L240.715 56.802C240.715 54.702 240.169 53.652 239.077 53.652C238.732 53.652 238.489 53.7733 238.349 54.016C238.19 54.3053 238.097 54.6087 238.069 54.926C238.032 55.486 238.013 55.9947 238.013 56.452V58.482C238.013 58.6313 237.938 58.7573 237.789 58.86C237.64 58.9627 237.486 59.014 237.327 59.014C237.122 59.014 236.991 58.8787 236.935 58.608L236.977 55.71C236.977 54.6833 236.804 54.044 236.459 53.792C236.291 53.6707 236.034 53.61 235.689 53.61C235.353 53.61 235.101 53.736 234.933 53.988C234.774 54.24 234.695 54.646 234.695 55.206L234.779 57.81C234.779 58.6127 234.56 59.014 234.121 59.014Z" fill="black"/>
</g>
<path d="M868.262 22.968L866.198 22.92C866.08 22.472 866.011 20.456 865.99 16.872V15.736C865.99 14.8293 866.075 14.1413 866.246 13.672C866.416 13.192 866.774 12.808 867.318 12.52C867.595 12.3813 867.979 12.312 868.47 12.312C868.971 12.312 869.355 12.344 869.622 12.408C870.336 12.5573 870.822 12.8347 871.078 13.24C871.344 13.6453 871.478 14.1893 871.478 14.872C871.478 15.8213 871.227 16.52 870.726 16.968C870.982 17 871.238 17.128 871.494 17.352C871.75 17.576 871.958 17.8053 872.118 18.04C872.395 18.4667 872.534 19.048 872.534 19.784C872.534 20.936 872.182 21.7573 871.478 22.248C870.784 22.728 869.712 22.968 868.262 22.968ZM867.27 15.176L867.302 17C867.323 17 867.504 16.9787 867.846 16.936C868.187 16.8827 868.475 16.8293 868.71 16.776C869.787 16.52 870.326 15.9067 870.326 14.936C870.326 14.456 870.182 14.104 869.894 13.88C869.616 13.656 869.248 13.544 868.79 13.544C868.214 13.544 867.824 13.6453 867.622 13.848C867.536 13.9333 867.467 14.008 867.414 14.072C867.36 14.1253 867.323 14.216 867.302 14.344C867.28 14.472 867.264 14.5627 867.254 14.616C867.254 14.6693 867.254 14.7707 867.254 14.92C867.264 15.0693 867.27 15.1547 867.27 15.176ZM870.87 18.584C870.763 18.4667 870.598 18.36 870.374 18.264C870.15 18.168 869.824 18.12 869.398 18.12C868.982 18.12 868.267 18.1893 867.254 18.328C867.254 19.992 867.28 21.1173 867.334 21.704C868.582 21.704 869.456 21.624 869.958 21.464C870.459 21.2933 870.795 21.0907 870.966 20.856C871.147 20.6107 871.238 20.3547 871.238 20.088C871.238 19.8107 871.232 19.6187 871.222 19.512C871.222 19.3947 871.19 19.24 871.126 19.048C871.072 18.8453 870.987 18.6907 870.87 18.584ZM875.875 20.664L875.891 22.312C875.891 22.504 875.8 22.68 875.619 22.84C875.448 23 875.278 23.08 875.107 23.08C874.862 23.08 874.707 22.888 874.643 22.504C874.632 22.4187 874.59 21.64 874.515 20.168C874.44 18.6853 874.296 17.5227 874.083 16.68C873.987 16.2747 873.939 16.0347 873.939 15.96C873.939 15.608 874.152 15.432 874.579 15.432C874.76 15.432 874.904 15.5013 875.011 15.64C875.118 15.7787 875.182 15.9227 875.203 16.072C875.235 16.2107 875.262 16.4027 875.283 16.648C875.304 16.8933 875.32 17.048 875.331 17.112C875.555 16.5787 875.891 16.1787 876.339 15.912C876.787 15.6453 877.278 15.512 877.811 15.512C878.686 15.512 879.123 15.736 879.123 16.184C879.123 16.408 879.043 16.5893 878.883 16.728C878.734 16.856 878.558 16.92 878.355 16.92C877.448 16.92 876.808 17.208 876.435 17.784C876.062 18.36 875.875 19.32 875.875 20.664ZM882.799 15.544C883.567 15.544 884.197 15.912 884.687 16.648C885.189 17.384 885.439 18.2693 885.439 19.304C885.439 20.328 885.183 21.2027 884.671 21.928C884.17 22.6533 883.498 23.016 882.655 23.016C881.823 23.016 881.151 22.648 880.639 21.912C880.127 21.1653 879.871 20.3387 879.871 19.432C879.871 18.2693 880.106 17.3413 880.575 16.648C881.077 15.912 881.818 15.544 882.799 15.544ZM882.607 16.856C882.159 16.856 881.791 17.0907 881.503 17.56C881.215 18.0293 881.071 18.5253 881.071 19.048C881.071 19.8587 881.231 20.4773 881.551 20.904C881.871 21.3307 882.234 21.544 882.639 21.544C883.365 21.544 883.829 21.2293 884.031 20.6C884.117 20.3013 884.159 19.928 884.159 19.48C884.159 17.7307 883.642 16.856 882.607 16.856ZM887.749 22.984C887.386 22.984 887.034 22.28 886.693 20.872C886.362 19.4533 886.197 17.864 886.197 16.104C886.197 15.9227 886.271 15.784 886.421 15.688C886.581 15.5813 886.725 15.528 886.853 15.528C886.981 15.528 887.082 15.5707 887.157 15.656C887.242 15.7307 887.285 15.832 887.285 15.96C887.285 17.624 887.567 19.224 888.133 20.76C888.218 20.632 888.351 20.376 888.533 19.992C888.714 19.5973 888.885 19.3093 889.045 19.128C889.205 18.9467 889.397 18.856 889.621 18.856C889.845 18.856 890.079 19.0213 890.325 19.352C890.57 19.6827 890.778 20.04 890.949 20.424C891.13 20.7973 891.231 20.9947 891.253 21.016C891.541 20.12 891.685 19.288 891.685 18.52L891.589 16.088C891.578 15.928 891.653 15.7947 891.813 15.688C891.973 15.5707 892.127 15.512 892.277 15.512C892.586 15.512 892.741 16.1147 892.741 17.32V18.2C892.741 19.6293 892.522 20.904 892.085 22.024C891.85 22.664 891.557 22.984 891.205 22.984C891.002 22.984 890.815 22.856 890.645 22.6C890.474 22.3333 890.282 21.96 890.069 21.48C889.855 21 889.69 20.6693 889.573 20.488L889.093 21.432C888.911 21.8053 888.773 22.0773 888.677 22.248C888.581 22.408 888.447 22.5733 888.277 22.744C888.106 22.904 887.93 22.984 887.749 22.984ZM894.099 17.56C894.099 16.9307 894.323 16.4293 894.771 16.056C895.219 15.6827 895.736 15.496 896.323 15.496C896.92 15.496 897.491 15.6027 898.035 15.816C898.579 16.0293 898.851 16.312 898.851 16.664C898.851 16.8453 898.781 16.9893 898.643 17.096C898.504 17.2027 898.381 17.256 898.275 17.256C898.179 17.256 898.099 17.256 898.035 17.256C897.981 17.2453 897.768 17.144 897.395 16.952C897.032 16.76 896.696 16.664 896.387 16.664C896.077 16.664 895.811 16.744 895.587 16.904C895.373 17.0533 895.267 17.2773 895.267 17.576C895.267 17.8747 895.389 18.1093 895.635 18.28C895.891 18.4507 896.333 18.6 896.963 18.728C897.592 18.8453 898.072 19.016 898.403 19.24C898.744 19.464 898.915 19.88 898.915 20.488C898.915 21.3733 898.68 22.0027 898.211 22.376C897.752 22.7387 897.192 22.92 896.531 22.92C895.869 22.92 895.304 22.8293 894.835 22.648C894.376 22.4667 894.147 22.1947 894.147 21.832C894.147 21.416 894.355 21.208 894.771 21.208C894.877 21.208 895.112 21.2827 895.475 21.432C895.837 21.5813 896.195 21.656 896.547 21.656C896.909 21.656 897.181 21.544 897.363 21.32C897.555 21.0853 897.651 20.8187 897.651 20.52C897.651 20.2213 897.528 20.008 897.283 19.88C897.037 19.7413 896.664 19.6293 896.163 19.544C895.661 19.4587 895.293 19.368 895.059 19.272C894.419 19.016 894.099 18.4453 894.099 17.56ZM902.287 15.592C902.852 15.592 903.391 15.7573 903.903 16.088C904.415 16.4187 904.671 16.8293 904.671 17.32C904.671 17.8 904.463 18.2693 904.047 18.728C903.631 19.176 903.076 19.448 902.383 19.544C902.084 19.5867 901.636 19.608 901.039 19.608C901.156 20.5147 901.386 21.112 901.727 21.4C901.834 21.5173 901.978 21.576 902.159 21.576C902.82 21.576 903.375 21.368 903.823 20.952C904.271 20.5253 904.591 20.312 904.783 20.312C904.868 20.312 904.996 20.392 905.167 20.552C905.338 20.712 905.423 20.8613 905.423 21C905.423 21.2773 905.087 21.6773 904.415 22.2C904.116 22.4453 903.754 22.6533 903.327 22.824C902.911 22.984 902.522 23.064 902.159 23.064C901.231 23.064 900.548 22.4667 900.111 21.272C899.834 20.536 899.695 19.7253 899.695 18.84C899.695 17.9547 899.903 17.192 900.319 16.552C900.735 15.912 901.391 15.592 902.287 15.592ZM902.367 16.696C901.962 16.696 901.615 16.9253 901.327 17.384C901.22 17.544 901.119 17.9067 901.023 18.472C902.516 18.472 903.263 18.104 903.263 17.368C903.263 16.92 902.964 16.696 902.367 16.696ZM908.422 20.664L908.438 22.312C908.438 22.504 908.347 22.68 908.166 22.84C907.995 23 907.825 23.08 907.654 23.08C907.409 23.08 907.254 22.888 907.19 22.504C907.179 22.4187 907.137 21.64 907.062 20.168C906.987 18.6853 906.843 17.5227 906.63 16.68C906.534 16.2747 906.486 16.0347 906.486 15.96C906.486 15.608 906.699 15.432 907.126 15.432C907.307 15.432 907.451 15.5013 907.558 15.64C907.665 15.7787 907.729 15.9227 907.75 16.072C907.782 16.2107 907.809 16.4027 907.83 16.648C907.851 16.8933 907.867 17.048 907.878 17.112C908.102 16.5787 908.438 16.1787 908.886 15.912C909.334 15.6453 909.825 15.512 910.358 15.512C911.233 15.512 911.67 15.736 911.67 16.184C911.67 16.408 911.59 16.5893 911.43 16.728C911.281 16.856 911.105 16.92 910.902 16.92C909.995 16.92 909.355 17.208 908.982 17.784C908.609 18.36 908.422 19.32 908.422 20.664Z" fill="black"/>
<path d="M110 54C110 57.866 106.866 61 103 61C99.134 61 96 57.866 96 54C96 50.134 99.134 47 103 47C105.546 47 107.775 48.3596 109 50.3924M103.8 51L109 50.3924M108.8 45L109 50.3924" stroke="black" stroke-width="3" stroke-linecap="round" stroke-linejoin="round"/>
<path d="M24 47L17 54M17 54L24 61M17 54H33" stroke="black" stroke-width="3" stroke-linecap="round" stroke-linejoin="round"/>
<path d="M65 47L72 54M72 54L65 61M72 54H56" stroke="black" stroke-width="3" stroke-linecap="round" stroke-linejoin="round"/>
<g clip-path="url(#clip2)">
<rect x="1619" y="40" width="141" height="28" fill="white"/>
<path d="M1619 40H1759" stroke="black" stroke-width="3" stroke-linecap="round" stroke-linejoin="round"/>
<path d="M1618 68H1760" stroke="black" stroke-width="3" stroke-linecap="round" stroke-linejoin="round"/>
<path d="M1619 69V41" stroke="black" stroke-width="3" stroke-linecap="round" stroke-linejoin="round"/>
<path d="M1759 67V41" stroke="black" stroke-width="3" stroke-linecap="round" stroke-linejoin="round"/>
<path d="M1655.54 49.732C1656.14 49.732 1656.66 49.8347 1657.08 50.04C1657.51 50.2453 1657.72 50.5067 1657.72 50.824C1657.72 50.964 1657.68 51.0853 1657.61 51.188C1657.54 51.2907 1657.44 51.342 1657.3 51.342C1657.17 51.342 1656.88 51.2393 1656.43 51.034C1655.98 50.8193 1655.57 50.712 1655.2 50.712C1654.84 50.712 1654.46 50.8287 1654.07 51.062C1653.67 51.2953 1653.48 51.58 1653.48 51.916C1653.48 52.3733 1653.72 52.7093 1654.19 52.924C1654.55 53.0827 1655.06 53.2273 1655.72 53.358C1656.38 53.4793 1656.92 53.736 1657.34 54.128C1657.76 54.5107 1657.97 55.094 1657.97 55.878C1657.97 57.0727 1657.61 57.9547 1656.89 58.524C1656.49 58.8413 1655.92 59 1655.19 59C1654.46 59 1653.73 58.7993 1653 58.398C1652.53 58.146 1652.29 57.894 1652.29 57.642C1652.29 57.5487 1652.33 57.446 1652.4 57.334C1652.48 57.222 1652.6 57.1287 1652.74 57.054C1652.88 56.9793 1653 56.97 1653.11 57.026C1653.24 57.0727 1653.43 57.1613 1653.69 57.292C1653.95 57.4227 1654.14 57.5113 1654.26 57.558C1654.65 57.7073 1655.02 57.782 1655.37 57.782C1655.71 57.782 1656.05 57.614 1656.36 57.278C1656.69 56.9327 1656.85 56.5127 1656.85 56.018C1656.85 55.3647 1656.53 54.9073 1655.87 54.646C1655.56 54.5153 1655.2 54.4173 1654.79 54.352C1653.96 54.2027 1653.34 53.9553 1652.92 53.61C1652.5 53.2553 1652.29 52.7233 1652.29 52.014C1652.29 51.3047 1652.59 50.7493 1653.2 50.348C1653.81 49.9373 1654.58 49.732 1655.54 49.732ZM1660.79 52.518C1661.28 52.518 1661.75 52.6627 1662.2 52.952C1662.65 53.2413 1662.87 53.6007 1662.87 54.03C1662.87 54.45 1662.69 54.8607 1662.33 55.262C1661.96 55.654 1661.48 55.892 1660.87 55.976C1660.61 56.0133 1660.22 56.032 1659.69 56.032C1659.8 56.8253 1660 57.348 1660.3 57.6C1660.39 57.7027 1660.52 57.754 1660.67 57.754C1661.25 57.754 1661.74 57.572 1662.13 57.208C1662.52 56.8347 1662.8 56.648 1662.97 56.648C1663.04 56.648 1663.16 56.718 1663.31 56.858C1663.46 56.998 1663.53 57.1287 1663.53 57.25C1663.53 57.4927 1663.24 57.8427 1662.65 58.3C1662.39 58.5147 1662.07 58.6967 1661.7 58.846C1661.33 58.986 1660.99 59.056 1660.67 59.056C1659.86 59.056 1659.26 58.5333 1658.88 57.488C1658.64 56.844 1658.52 56.1347 1658.52 55.36C1658.52 54.5853 1658.7 53.918 1659.06 53.358C1659.43 52.798 1660 52.518 1660.79 52.518ZM1660.86 53.484C1660.5 53.484 1660.2 53.6847 1659.95 54.086C1659.85 54.226 1659.76 54.5433 1659.68 55.038C1660.99 55.038 1661.64 54.716 1661.64 54.072C1661.64 53.68 1661.38 53.484 1660.86 53.484ZM1668.25 52.462C1668.67 52.462 1668.87 52.812 1668.87 53.512C1668.87 53.5867 1668.87 53.666 1668.87 53.75L1668.84 54.73C1668.83 55.038 1668.83 55.3413 1668.83 55.64L1669.04 58.804C1669.04 59.0373 1668.8 59.154 1668.32 59.154C1668.3 59.154 1668.23 59.154 1668.11 59.154C1668.01 59.154 1667.94 59.112 1667.89 59.028C1667.85 58.944 1667.85 58.8413 1667.88 58.72C1667.91 58.5987 1667.9 58.4633 1667.85 58.314C1667.42 58.7713 1666.85 59 1666.14 59C1664.82 59 1664.17 57.9827 1664.17 55.948C1664.17 54.8187 1664.38 53.9647 1664.8 53.386C1665.23 52.8073 1665.84 52.518 1666.63 52.518C1667 52.518 1667.38 52.5833 1667.75 52.714C1667.87 52.546 1668.04 52.462 1668.25 52.462ZM1666.8 53.736C1666.27 53.736 1665.87 53.89 1665.61 54.198C1665.35 54.506 1665.22 55.0707 1665.22 55.892C1665.22 57.2733 1665.59 57.964 1666.34 57.964C1666.53 57.964 1666.75 57.8753 1666.98 57.698C1667.22 57.5207 1667.39 57.32 1667.48 57.096C1667.66 56.592 1667.75 56.0413 1667.75 55.444C1667.75 54.8467 1667.68 54.4127 1667.53 54.142C1667.39 53.8713 1667.14 53.736 1666.8 53.736ZM1671.64 56.956L1671.65 58.398C1671.65 58.566 1671.57 58.72 1671.41 58.86C1671.26 59 1671.11 59.07 1670.96 59.07C1670.75 59.07 1670.61 58.902 1670.56 58.566C1670.55 58.4913 1670.51 57.81 1670.45 56.522C1670.38 55.2247 1670.26 54.2073 1670.07 53.47C1669.98 53.1153 1669.94 52.9053 1669.94 52.84C1669.94 52.532 1670.13 52.378 1670.5 52.378C1670.66 52.378 1670.79 52.4387 1670.88 52.56C1670.97 52.6813 1671.03 52.8073 1671.05 52.938C1671.08 53.0593 1671.1 53.2273 1671.12 53.442C1671.14 53.6567 1671.15 53.792 1671.16 53.848C1671.36 53.3813 1671.65 53.0313 1672.04 52.798C1672.43 52.5647 1672.86 52.448 1673.33 52.448C1674.1 52.448 1674.48 52.644 1674.48 53.036C1674.48 53.232 1674.41 53.3907 1674.27 53.512C1674.14 53.624 1673.98 53.68 1673.81 53.68C1673.01 53.68 1672.45 53.932 1672.13 54.436C1671.8 54.94 1671.64 55.78 1671.64 56.956ZM1675.02 55.724C1675.02 55.0987 1675.18 54.5293 1675.51 54.016C1675.85 53.5027 1676.27 53.12 1676.79 52.868C1677.3 52.6067 1677.8 52.476 1678.28 52.476C1678.77 52.476 1679.16 52.5367 1679.45 52.658C1679.74 52.77 1679.89 52.924 1679.89 53.12C1679.89 53.3067 1679.84 53.498 1679.73 53.694C1679.62 53.8807 1679.48 53.974 1679.31 53.974C1679.24 53.974 1679.06 53.9227 1678.76 53.82C1678.47 53.708 1678.28 53.652 1678.2 53.652C1677.66 53.652 1677.2 53.8527 1676.81 54.254C1676.43 54.646 1676.24 55.1687 1676.24 55.822C1676.24 56.4753 1676.34 56.9653 1676.55 57.292C1676.76 57.6093 1677.13 57.768 1677.64 57.768C1677.84 57.768 1678.19 57.6513 1678.69 57.418C1679.19 57.1753 1679.51 57.054 1679.63 57.054C1679.75 57.054 1679.85 57.0913 1679.92 57.166C1680 57.2407 1680.03 57.334 1680.03 57.446C1680.03 57.67 1679.89 57.908 1679.6 58.16C1679.32 58.4027 1678.97 58.608 1678.55 58.776C1678.13 58.9347 1677.75 59.014 1677.42 59.014C1676.67 59.014 1676.08 58.72 1675.65 58.132C1675.23 57.544 1675.02 56.7413 1675.02 55.724ZM1682.14 54.464L1682.26 57.768C1682.26 58.1787 1682.24 58.4167 1682.2 58.482C1682.18 58.65 1682.12 58.7807 1682.03 58.874C1681.95 58.9673 1681.78 59.014 1681.53 59.014C1681.41 59.014 1681.31 58.9393 1681.23 58.79C1681.16 58.6313 1681.12 58.454 1681.11 58.258C1681.04 56.6153 1680.95 55.0753 1680.84 53.638C1680.74 52.1913 1680.69 50.8473 1680.69 49.606C1680.69 49.41 1680.75 49.256 1680.88 49.144C1681.01 49.032 1681.17 48.976 1681.35 48.976C1681.61 48.976 1681.76 49.2 1681.81 49.648C1681.86 50.096 1681.9 50.656 1681.91 51.328C1681.92 52 1681.94 52.49 1681.96 52.798C1682.43 52.5553 1682.89 52.434 1683.36 52.434C1684.44 52.434 1685.13 52.91 1685.42 53.862C1685.59 54.4033 1685.67 55.0987 1685.67 55.948C1685.67 56.228 1685.64 56.6713 1685.59 57.278C1685.54 57.8753 1685.51 58.2627 1685.5 58.44C1685.49 58.6173 1685.41 58.7573 1685.27 58.86C1685.13 58.9533 1684.97 59 1684.8 59C1684.54 59 1684.41 58.86 1684.41 58.58L1684.51 56.144C1684.51 55.9387 1684.5 55.598 1684.48 55.122C1684.46 54.646 1684.36 54.268 1684.19 53.988C1684.02 53.708 1683.72 53.568 1683.29 53.568C1682.53 53.568 1682.14 53.8667 1682.14 54.464Z" fill="#7B7F8C"/>
</g>
<path d="M1642.35 63.0607C1642.93 63.6464 1643.88 63.6464 1644.47 63.0607C1645.05 62.4749 1645.05 61.5251 1644.47 60.9393L1642.35 63.0607ZM1633.41 56.5C1630.92 56.5 1628.91 54.4853 1628.91 52H1625.91C1625.91 56.1421 1629.27 59.5 1633.41 59.5V56.5ZM1628.91 52C1628.91 49.5147 1630.92 47.5 1633.41 47.5V44.5C1629.27 44.5 1625.91 47.8579 1625.91 52H1628.91ZM1633.41 47.5C1635.89 47.5 1637.91 49.5147 1637.91 52H1640.91C1640.91 47.8579 1637.55 44.5 1633.41 44.5V47.5ZM1637.91 52C1637.91 53.2431 1637.41 54.366 1636.59 55.182L1638.71 57.3033C1640.07 55.9477 1640.91 54.0707 1640.91 52H1637.91ZM1636.59 55.182C1635.77 55.998 1634.65 56.5 1633.41 56.5V59.5C1635.48 59.5 1637.36 58.6589 1638.71 57.3033L1636.59 55.182ZM1636.59 57.3033L1642.35 63.0607L1644.47 60.9393L1638.71 55.182L1636.59 57.3033Z" fill="black"/>
<rect x="214" y="161" width="1347" height="747" fill="#E5E5E5"/>
<rect x="214.5" y="161.5" width="1346" height="746" stroke="black" stroke-opacity="0.1"/>
<path d="M650.596 297.592C650.156 297.269 649.936 296.917 649.936 296.536C649.936 296.125 650.097 295.788 650.42 295.524C649.863 291.329 649.584 286.519 649.584 281.092C649.584 279.449 649.657 276.252 649.804 271.5C649.951 271.06 650.244 270.679 650.684 270.356C651.153 270.033 651.593 269.872 652.004 269.872C652.415 269.872 652.664 269.887 652.752 269.916C656.947 271.089 660.599 273.363 663.708 276.736C666.817 280.08 668.445 284.099 668.592 288.792C668.592 293.955 666.451 297.196 662.168 298.516C660.936 298.897 659.631 299.088 658.252 299.088C656.903 299.088 655.715 298.985 654.688 298.78C654.805 299.015 654.864 299.323 654.864 299.704C654.864 300.115 654.615 300.496 654.116 300.848C653.647 301.229 653.075 301.42 652.4 301.42C651.755 301.42 651.344 301.024 651.168 300.232L650.596 297.592ZM653.236 280.74C653.236 285.873 653.529 290.743 654.116 295.348C654.82 295.553 656.008 295.656 657.68 295.656C659.352 295.656 660.951 295.377 662.476 294.82C664.031 294.263 664.852 293.441 664.94 292.356C665.028 291.535 665.072 290.904 665.072 290.464C665.072 286.651 664.045 283.277 661.992 280.344C659.968 277.411 657.123 275.181 653.456 273.656C653.309 277.117 653.236 279.479 653.236 280.74ZM678.343 278.496C680.455 278.496 682.185 279.508 683.535 281.532C684.913 283.556 685.603 285.991 685.603 288.836C685.603 291.652 684.899 294.057 683.491 296.052C682.112 298.047 680.264 299.044 677.947 299.044C675.659 299.044 673.811 298.032 672.403 296.008C670.995 293.955 670.291 291.681 670.291 289.188C670.291 285.991 670.936 283.439 672.227 281.532C673.605 279.508 675.644 278.496 678.343 278.496ZM677.815 282.104C676.583 282.104 675.571 282.749 674.779 284.04C673.987 285.331 673.591 286.695 673.591 288.132C673.591 290.361 674.031 292.063 674.911 293.236C675.791 294.409 676.788 294.996 677.903 294.996C679.897 294.996 681.173 294.131 681.731 292.4C681.965 291.579 682.083 290.552 682.083 289.32C682.083 284.509 680.66 282.104 677.815 282.104ZM689.973 297.636L689.489 279.772C689.489 279.215 689.68 278.76 690.061 278.408C690.442 278.056 690.824 277.88 691.205 277.88C692.144 277.88 692.686 278.276 692.833 279.068C692.95 279.86 693.009 280.681 693.009 281.532C694.593 279.449 696.573 278.408 698.949 278.408C702.586 278.408 704.405 282.559 704.405 290.86C704.405 291.623 704.405 292.781 704.405 294.336C704.405 295.861 704.317 296.976 704.141 297.68C703.936 298.56 703.305 299 702.249 299C701.545 299 701.193 298.531 701.193 297.592L701.237 295.128C701.237 291.725 701.12 289.408 700.885 288.176C700.68 286.915 700.474 285.917 700.269 285.184C699.77 283.6 698.964 282.808 697.849 282.808C696.382 282.808 695.356 283.336 694.769 284.392C694.124 285.536 693.742 286.885 693.625 288.44C693.42 291.168 693.317 294.057 693.317 297.108C693.317 297.695 693.097 298.164 692.657 298.516C692.217 298.868 691.689 299.044 691.073 299.044C690.34 299.044 689.973 298.575 689.973 297.636ZM709.295 278.452L711.495 278.496C711.994 278.496 712.273 278.481 712.331 278.452V269.432C712.361 268.933 712.61 268.508 713.079 268.156C713.549 267.804 713.989 267.628 714.399 267.628C714.81 267.628 715.133 267.76 715.367 268.024C715.631 268.288 715.749 268.699 715.719 269.256C715.69 269.813 715.675 272.864 715.675 278.408L720.823 278.232C721.703 278.232 722.143 278.745 722.143 279.772C722.143 280.535 721.909 281.107 721.439 281.488C720.999 281.869 720.515 282.075 719.987 282.104C719.489 282.133 718.99 282.148 718.491 282.148L715.807 282.104C715.807 283.307 715.925 285.683 716.159 289.232C716.423 292.781 716.629 295.084 716.775 296.14C716.922 297.167 716.951 297.841 716.863 298.164C716.775 298.457 716.614 298.663 716.379 298.78C715.998 298.956 715.485 299.044 714.839 299.044C714.194 299.044 713.813 298.692 713.695 297.988C713.109 294.145 712.713 288.865 712.507 282.148C712.243 282.177 711.231 282.192 709.471 282.192C707.711 282.192 706.831 281.679 706.831 280.652C706.831 279.185 707.653 278.452 709.295 278.452ZM747.497 278.672C747.878 278.672 748.245 278.804 748.597 279.068C748.978 279.332 749.169 279.625 749.169 279.948C749.169 280.799 747.922 285.404 745.429 293.764C742.936 302.124 741.088 307.991 739.885 311.364C739.621 312.156 739.21 312.552 738.653 312.552C738.096 312.552 737.656 312.347 737.333 311.936C737.01 311.555 736.849 310.983 736.849 310.22C736.849 309.457 737.333 307.624 738.301 304.72C739.298 301.845 739.9 300.012 740.105 299.22C739.372 297.988 736.893 291.828 732.669 280.74C732.61 280.593 732.581 280.403 732.581 280.168C732.581 279.933 732.757 279.625 733.109 279.244C733.461 278.863 733.945 278.672 734.561 278.672C735.177 278.672 735.676 278.98 736.057 279.596C736.468 280.652 737.142 282.5 738.081 285.14C739.02 287.751 739.738 289.643 740.237 290.816C740.765 291.989 741.264 293.207 741.733 294.468C742.144 293.089 742.848 290.42 743.845 286.46C744.842 282.471 745.414 280.197 745.561 279.64C745.678 278.995 746.324 278.672 747.497 278.672ZM759.855 278.496C761.967 278.496 763.697 279.508 765.047 281.532C766.425 283.556 767.115 285.991 767.115 288.836C767.115 291.652 766.411 294.057 765.003 296.052C763.624 298.047 761.776 299.044 759.459 299.044C757.171 299.044 755.323 298.032 753.915 296.008C752.507 293.955 751.803 291.681 751.803 289.188C751.803 285.991 752.448 283.439 753.739 281.532C755.117 279.508 757.156 278.496 759.855 278.496ZM759.327 282.104C758.095 282.104 757.083 282.749 756.291 284.04C755.499 285.331 755.103 286.695 755.103 288.132C755.103 290.361 755.543 292.063 756.423 293.236C757.303 294.409 758.3 294.996 759.415 294.996C761.409 294.996 762.685 294.131 763.243 292.4C763.477 291.579 763.595 290.552 763.595 289.32C763.595 284.509 762.172 282.104 759.327 282.104ZM769.725 280.168C769.842 279.669 770.091 279.259 770.473 278.936C770.854 278.584 771.235 278.408 771.617 278.408C772.027 278.408 772.335 278.481 772.541 278.628C772.775 278.775 772.907 278.907 772.937 279.024C772.995 279.141 773.054 279.347 773.113 279.64C772.937 281.928 772.849 283.996 772.849 285.844C772.849 287.663 773.069 289.76 773.509 292.136C773.949 294.483 774.433 295.656 774.961 295.656C775.753 295.656 776.75 295.216 777.953 294.336C779.185 293.456 780.065 292.532 780.593 291.564C780.241 287.34 780.065 283.717 780.065 280.696C780.065 280.08 780.255 279.552 780.637 279.112C781.047 278.672 781.531 278.452 782.089 278.452C782.998 278.452 783.453 279.068 783.453 280.3C783.453 282.383 783.599 285.477 783.893 289.584C784.215 293.691 784.538 296.301 784.861 297.416C784.919 297.651 784.949 297.929 784.949 298.252C784.949 298.545 784.743 298.824 784.333 299.088C783.951 299.381 783.438 299.528 782.793 299.528C782.177 299.528 781.766 299.176 781.561 298.472C781.502 297.885 781.355 297.005 781.121 295.832C779.067 297.973 776.999 299.044 774.917 299.044C773.949 299.044 773.083 298.677 772.321 297.944C771.558 297.211 770.957 296.213 770.517 294.952C769.754 292.517 769.373 290.229 769.373 288.088C769.373 285.947 769.49 283.307 769.725 280.168ZM813.278 297.02C813.278 298.399 812.648 299.088 811.386 299.088C810.858 299.088 810.14 297.797 809.23 295.216C808.321 292.605 807.104 290.596 805.578 289.188C805.432 289.393 804.801 289.98 803.686 290.948C802.601 291.887 801.956 292.459 801.75 292.664V297.064C801.692 297.504 801.618 297.841 801.53 298.076C801.442 298.311 801.237 298.531 800.914 298.736C800.621 298.941 800.21 299.044 799.682 299.044C798.89 299.044 798.494 298.56 798.494 297.592C798.494 294.864 798.377 290.64 798.142 284.92C797.908 279.171 797.79 274.023 797.79 269.476C797.79 268.919 798.01 268.479 798.45 268.156C798.92 267.833 799.404 267.672 799.902 267.672C800.577 267.672 800.988 268.097 801.134 268.948V276.736C801.134 277.675 801.149 278.379 801.178 278.848C801.208 279.317 801.237 280.021 801.266 280.96C801.325 282.896 801.428 285.081 801.574 287.516C802.425 286.871 803.51 285.859 804.83 284.48C806.18 283.072 807.192 281.869 807.866 280.872C808.922 279.2 809.89 278.364 810.77 278.364C811.005 278.364 811.24 278.423 811.474 278.54C812.09 278.892 812.398 279.303 812.398 279.772C812.398 280.241 812.193 280.857 811.782 281.62C810.726 283.439 809.509 285.096 808.13 286.592C809.45 288.059 810.77 290.156 812.09 292.884C812.882 294.644 813.278 296.023 813.278 297.02ZM817.504 297.636L817.02 279.772C817.02 279.215 817.211 278.76 817.592 278.408C817.973 278.056 818.355 277.88 818.736 277.88C819.675 277.88 820.217 278.276 820.364 279.068C820.481 279.86 820.54 280.681 820.54 281.532C822.124 279.449 824.104 278.408 826.48 278.408C830.117 278.408 831.936 282.559 831.936 290.86C831.936 291.623 831.936 292.781 831.936 294.336C831.936 295.861 831.848 296.976 831.672 297.68C831.467 298.56 830.836 299 829.78 299C829.076 299 828.724 298.531 828.724 297.592L828.768 295.128C828.768 291.725 828.651 289.408 828.416 288.176C828.211 286.915 828.005 285.917 827.8 285.184C827.301 283.6 826.495 282.808 825.38 282.808C823.913 282.808 822.887 283.336 822.3 284.392C821.655 285.536 821.273 286.885 821.156 288.44C820.951 291.168 820.848 294.057 820.848 297.108C820.848 297.695 820.628 298.164 820.188 298.516C819.748 298.868 819.22 299.044 818.604 299.044C817.871 299.044 817.504 298.575 817.504 297.636ZM843.515 278.496C845.627 278.496 847.357 279.508 848.707 281.532C850.085 283.556 850.775 285.991 850.775 288.836C850.775 291.652 850.071 294.057 848.663 296.052C847.284 298.047 845.436 299.044 843.119 299.044C840.831 299.044 838.983 298.032 837.575 296.008C836.167 293.955 835.463 291.681 835.463 289.188C835.463 285.991 836.108 283.439 837.399 281.532C838.777 279.508 840.816 278.496 843.515 278.496ZM842.987 282.104C841.755 282.104 840.743 282.749 839.951 284.04C839.159 285.331 838.763 286.695 838.763 288.132C838.763 290.361 839.203 292.063 840.083 293.236C840.963 294.409 841.96 294.996 843.075 294.996C845.069 294.996 846.345 294.131 846.903 292.4C847.137 291.579 847.255 290.552 847.255 289.32C847.255 284.509 845.832 282.104 842.987 282.104ZM857.125 298.956C856.127 298.956 855.159 297.02 854.221 293.148C853.311 289.247 852.857 284.876 852.857 280.036C852.857 279.537 853.062 279.156 853.473 278.892C853.913 278.599 854.309 278.452 854.661 278.452C855.013 278.452 855.291 278.569 855.497 278.804C855.731 279.009 855.849 279.288 855.849 279.64C855.849 284.216 856.626 288.616 858.181 292.84C858.415 292.488 858.782 291.784 859.281 290.728C859.779 289.643 860.249 288.851 860.689 288.352C861.129 287.853 861.657 287.604 862.273 287.604C862.889 287.604 863.534 288.059 864.209 288.968C864.883 289.877 865.455 290.86 865.925 291.916C866.423 292.943 866.702 293.485 866.761 293.544C867.553 291.08 867.949 288.792 867.949 286.68L867.685 279.992C867.655 279.552 867.861 279.185 868.301 278.892C868.741 278.569 869.166 278.408 869.577 278.408C870.427 278.408 870.853 280.065 870.853 283.38V285.8C870.853 289.731 870.251 293.236 869.049 296.316C868.403 298.076 867.597 298.956 866.629 298.956C866.071 298.956 865.558 298.604 865.089 297.9C864.619 297.167 864.091 296.14 863.505 294.82C862.918 293.5 862.463 292.591 862.141 292.092L860.821 294.688C860.322 295.715 859.941 296.463 859.677 296.932C859.413 297.372 859.046 297.827 858.577 298.296C858.107 298.736 857.623 298.956 857.125 298.956ZM888.689 284.744L889.041 295.128C889.041 296.419 888.982 297.167 888.865 297.372C888.806 297.9 888.63 298.311 888.337 298.604C888.073 298.897 887.545 299.044 886.753 299.044C886.371 299.044 886.063 298.809 885.829 298.34C885.594 297.841 885.462 297.284 885.433 296.668C885.227 291.505 884.949 286.665 884.597 282.148C884.274 277.601 884.113 273.377 884.113 269.476C884.113 268.86 884.318 268.376 884.729 268.024C885.139 267.672 885.623 267.496 886.181 267.496C887.002 267.496 887.486 268.2 887.633 269.608C887.809 271.016 887.911 272.776 887.941 274.888C887.999 277 888.058 278.54 888.117 279.508C889.583 278.745 891.05 278.364 892.517 278.364C895.919 278.364 898.075 279.86 898.985 282.852C899.513 284.553 899.777 286.739 899.777 289.408C899.777 290.288 899.689 291.681 899.513 293.588C899.366 295.465 899.278 296.683 899.249 297.24C899.219 297.797 898.97 298.237 898.501 298.56C898.061 298.853 897.577 299 897.049 299C896.227 299 895.817 298.56 895.817 297.68L896.125 290.024C896.125 289.379 896.095 288.308 896.037 286.812C895.978 285.316 895.67 284.128 895.113 283.248C894.585 282.368 893.646 281.928 892.297 281.928C889.891 281.928 888.689 282.867 888.689 284.744ZM910.245 278.496C912.357 278.496 914.088 279.508 915.437 281.532C916.816 283.556 917.505 285.991 917.505 288.836C917.505 291.652 916.801 294.057 915.393 296.052C914.014 298.047 912.166 299.044 909.849 299.044C907.561 299.044 905.713 298.032 904.305 296.008C902.897 293.955 902.193 291.681 902.193 289.188C902.193 285.991 902.838 283.439 904.129 281.532C905.508 279.508 907.546 278.496 910.245 278.496ZM909.717 282.104C908.485 282.104 907.473 282.749 906.681 284.04C905.889 285.331 905.493 286.695 905.493 288.132C905.493 290.361 905.933 292.063 906.813 293.236C907.693 294.409 908.69 294.996 909.805 294.996C911.8 294.996 913.076 294.131 913.633 292.4C913.868 291.579 913.985 290.552 913.985 289.32C913.985 284.509 912.562 282.104 909.717 282.104ZM923.855 298.956C922.858 298.956 921.89 297.02 920.951 293.148C920.042 289.247 919.587 284.876 919.587 280.036C919.587 279.537 919.793 279.156 920.203 278.892C920.643 278.599 921.039 278.452 921.391 278.452C921.743 278.452 922.022 278.569 922.227 278.804C922.462 279.009 922.579 279.288 922.579 279.64C922.579 284.216 923.357 288.616 924.911 292.84C925.146 292.488 925.513 291.784 926.011 290.728C926.51 289.643 926.979 288.851 927.419 288.352C927.859 287.853 928.387 287.604 929.003 287.604C929.619 287.604 930.265 288.059 930.939 288.968C931.614 289.877 932.186 290.86 932.655 291.916C933.154 292.943 933.433 293.485 933.491 293.544C934.283 291.08 934.679 288.792 934.679 286.68L934.415 279.992C934.386 279.552 934.591 279.185 935.031 278.892C935.471 278.569 935.897 278.408 936.307 278.408C937.158 278.408 937.583 280.065 937.583 283.38V285.8C937.583 289.731 936.982 293.236 935.779 296.316C935.134 298.076 934.327 298.956 933.359 298.956C932.802 298.956 932.289 298.604 931.819 297.9C931.35 297.167 930.822 296.14 930.235 294.82C929.649 293.5 929.194 292.591 928.871 292.092L927.551 294.688C927.053 295.715 926.671 296.463 926.407 296.932C926.143 297.372 925.777 297.827 925.307 298.296C924.838 298.736 924.354 298.956 923.855 298.956ZM951.811 278.452L954.011 278.496C954.51 278.496 954.788 278.481 954.847 278.452V269.432C954.876 268.933 955.126 268.508 955.595 268.156C956.064 267.804 956.504 267.628 956.915 267.628C957.326 267.628 957.648 267.76 957.883 268.024C958.147 268.288 958.264 268.699 958.235 269.256C958.206 269.813 958.191 272.864 958.191 278.408L963.339 278.232C964.219 278.232 964.659 278.745 964.659 279.772C964.659 280.535 964.424 281.107 963.955 281.488C963.515 281.869 963.031 282.075 962.503 282.104C962.004 282.133 961.506 282.148 961.007 282.148L958.323 282.104C958.323 283.307 958.44 285.683 958.675 289.232C958.939 292.781 959.144 295.084 959.291 296.14C959.438 297.167 959.467 297.841 959.379 298.164C959.291 298.457 959.13 298.663 958.895 298.78C958.514 298.956 958 299.044 957.355 299.044C956.71 299.044 956.328 298.692 956.211 297.988C955.624 294.145 955.228 288.865 955.023 282.148C954.759 282.177 953.747 282.192 951.987 282.192C950.227 282.192 949.347 281.679 949.347 280.652C949.347 279.185 950.168 278.452 951.811 278.452ZM973.624 278.496C975.736 278.496 977.467 279.508 978.816 281.532C980.195 283.556 980.884 285.991 980.884 288.836C980.884 291.652 980.18 294.057 978.772 296.052C977.393 298.047 975.545 299.044 973.228 299.044C970.94 299.044 969.092 298.032 967.684 296.008C966.276 293.955 965.572 291.681 965.572 289.188C965.572 285.991 966.217 283.439 967.508 281.532C968.887 279.508 970.925 278.496 973.624 278.496ZM973.096 282.104C971.864 282.104 970.852 282.749 970.06 284.04C969.268 285.331 968.872 286.695 968.872 288.132C968.872 290.361 969.312 292.063 970.192 293.236C971.072 294.409 972.069 294.996 973.184 294.996C975.179 294.996 976.455 294.131 977.012 292.4C977.247 291.579 977.364 290.552 977.364 289.32C977.364 284.509 975.941 282.104 973.096 282.104ZM1000.67 298.956C999.677 298.956 998.753 298.619 997.903 297.944C997.903 297.944 997.712 297.783 997.331 297.46V310.66C997.155 311.247 996.847 311.731 996.407 312.112C995.967 312.523 995.497 312.728 994.999 312.728C994.236 312.728 993.855 312.215 993.855 311.188V280.52C994.031 279.757 994.236 279.215 994.471 278.892C994.735 278.569 995.131 278.408 995.659 278.408C996.216 278.408 996.568 278.54 996.715 278.804C996.891 279.039 997.096 279.713 997.331 280.828C997.448 280.241 997.917 279.699 998.739 279.2C999.56 278.701 1000.66 278.452 1002.04 278.452C1005.03 278.452 1007.16 279.537 1008.42 281.708C1009.68 283.879 1010.31 286.445 1010.31 289.408C1010.31 292.341 1009.45 294.673 1007.71 296.404C1006.01 298.105 1003.67 298.956 1000.67 298.956ZM997.331 285.756V293.94C997.507 294.028 997.712 294.175 997.947 294.38C998.797 295.143 999.721 295.524 1000.72 295.524C1004.77 295.524 1006.79 293.441 1006.79 289.276C1006.79 285.727 1005.88 283.483 1004.06 282.544C1003.3 282.133 1002.36 281.928 1001.25 281.928C1000.16 282.075 999.237 282.559 998.475 283.38C997.712 284.172 997.331 284.964 997.331 285.756ZM1012.41 270.532C1012.5 269.417 1012.68 268.699 1012.94 268.376C1013.23 268.024 1013.69 267.848 1014.3 267.848C1015.56 267.848 1016.2 268.361 1016.2 269.388C1016.2 270.18 1016.12 272.248 1015.98 275.592C1015.86 278.936 1015.8 281.928 1015.8 284.568C1015.8 287.208 1015.9 289.335 1016.11 290.948C1016.46 293.764 1016.96 295.172 1017.6 295.172C1018.25 295.172 1018.73 294.717 1019.06 293.808C1019.2 293.456 1019.44 293.148 1019.76 292.884C1020.08 292.591 1020.49 292.444 1020.99 292.444C1022.02 292.444 1022.53 293.309 1022.53 295.04C1022.53 295.979 1022.02 296.917 1020.99 297.856C1019.99 298.765 1019 299.22 1018 299.22C1017 299.22 1016.2 299.059 1015.58 298.736C1014.99 298.384 1014.51 297.871 1014.13 297.196C1013.78 296.521 1013.48 295.876 1013.25 295.26C1013.04 294.615 1012.9 293.837 1012.81 292.928C1012.63 291.461 1012.5 289.115 1012.41 285.888C1012.35 282.632 1012.32 279.537 1012.32 276.604C1012.32 273.641 1012.35 271.617 1012.41 270.532ZM1036.51 278.452C1037.8 278.452 1038.44 279.552 1038.44 281.752C1038.44 281.987 1038.44 282.236 1038.44 282.5L1038.35 285.58C1038.33 286.548 1038.31 287.501 1038.31 288.44L1038.97 298.384C1038.97 299.117 1038.22 299.484 1036.73 299.484C1036.64 299.484 1036.42 299.484 1036.07 299.484C1035.74 299.484 1035.51 299.352 1035.36 299.088C1035.25 298.824 1035.23 298.501 1035.32 298.12C1035.44 297.739 1035.41 297.313 1035.23 296.844C1033.88 298.281 1032.09 299 1029.86 299C1025.73 299 1023.66 295.803 1023.66 289.408C1023.66 285.859 1024.32 283.175 1025.64 281.356C1026.99 279.537 1028.91 278.628 1031.4 278.628C1032.58 278.628 1033.75 278.833 1034.92 279.244C1035.3 278.716 1035.83 278.452 1036.51 278.452ZM1031.93 282.456C1030.26 282.456 1029.01 282.94 1028.19 283.908C1027.37 284.876 1026.96 286.651 1026.96 289.232C1026.96 293.573 1028.13 295.744 1030.48 295.744C1031.09 295.744 1031.77 295.465 1032.5 294.908C1033.27 294.351 1033.79 293.72 1034.09 293.016C1034.64 291.432 1034.92 289.701 1034.92 287.824C1034.92 285.947 1034.69 284.583 1034.22 283.732C1033.78 282.881 1033.02 282.456 1031.93 282.456ZM1055.5 278.672C1055.88 278.672 1056.25 278.804 1056.6 279.068C1056.98 279.332 1057.17 279.625 1057.17 279.948C1057.17 280.799 1055.92 285.404 1053.43 293.764C1050.94 302.124 1049.09 307.991 1047.89 311.364C1047.62 312.156 1047.21 312.552 1046.65 312.552C1046.1 312.552 1045.66 312.347 1045.33 311.936C1045.01 311.555 1044.85 310.983 1044.85 310.22C1044.85 309.457 1045.33 307.624 1046.3 304.72C1047.3 301.845 1047.9 300.012 1048.11 299.22C1047.37 297.988 1044.89 291.828 1040.67 280.74C1040.61 280.593 1040.58 280.403 1040.58 280.168C1040.58 279.933 1040.76 279.625 1041.11 279.244C1041.46 278.863 1041.95 278.672 1042.56 278.672C1043.18 278.672 1043.68 278.98 1044.06 279.596C1044.47 280.652 1045.14 282.5 1046.08 285.14C1047.02 287.751 1047.74 289.643 1048.24 290.816C1048.77 291.989 1049.26 293.207 1049.73 294.468C1050.14 293.089 1050.85 290.42 1051.85 286.46C1052.84 282.471 1053.41 280.197 1053.56 279.64C1053.68 278.995 1054.32 278.672 1055.5 278.672ZM1070.63 273.92C1070.63 273.216 1070.25 272.585 1069.48 272.028C1068.75 271.471 1068 271.192 1067.24 271.192C1066.48 271.192 1065.77 271.368 1065.13 271.72C1064.48 272.043 1064.01 272.439 1063.72 272.908C1062.9 274.081 1062.27 274.668 1061.83 274.668C1060.57 274.668 1059.93 274.052 1059.93 272.82C1059.93 271.705 1060.71 270.576 1062.27 269.432C1063.82 268.259 1065.45 267.672 1067.15 267.672C1069.56 267.672 1071.46 268.655 1072.87 270.62C1073.63 271.705 1074.01 272.805 1074.01 273.92C1074.01 275.856 1073.22 277.719 1071.64 279.508C1070.96 280.271 1070.29 280.989 1069.61 281.664C1068 283.277 1067.19 284.348 1067.19 284.876C1067.19 285.404 1067.4 285.991 1067.81 286.636C1068.19 287.281 1068.38 287.721 1068.38 287.956C1068.38 288.191 1068.31 288.455 1068.16 288.748C1067.81 289.276 1067.3 289.54 1066.62 289.54C1065.98 289.54 1065.32 289.1 1064.64 288.22C1063.97 287.311 1063.63 286.313 1063.63 285.228C1063.63 283.321 1064.35 281.591 1065.79 280.036C1066.46 279.303 1067.09 278.687 1067.68 278.188C1069.64 276.34 1070.63 274.917 1070.63 273.92ZM1064.69 295.304C1064.69 294.776 1064.88 294.292 1065.26 293.852C1065.67 293.412 1066.23 293.192 1066.93 293.192C1067.63 293.192 1068.13 293.324 1068.43 293.588C1068.75 293.852 1068.91 294.424 1068.91 295.304C1068.91 296.859 1068.21 297.636 1066.8 297.636C1066.27 297.636 1065.79 297.372 1065.35 296.844C1064.91 296.316 1064.69 295.803 1064.69 295.304Z" fill="black"/>
<rect x="747" y="406" width="237" height="60" fill="white"/>
<g clip-path="url(#clip3)">
<path d="M747 406H983" stroke="black" stroke-width="3" stroke-linecap="round" stroke-linejoin="round"/>
<path d="M746 466H984" stroke="black" stroke-width="3" stroke-linecap="round" stroke-linejoin="round"/>
<path d="M747 467V407" stroke="black" stroke-width="3" stroke-linecap="round" stroke-linejoin="round"/>
<path d="M983 463V407" stroke="black" stroke-width="3" stroke-linecap="round" stroke-linejoin="round"/>
</g>
<path d="M819.543 435.808C820.791 436.016 821.935 436.12 822.975 436.12C824.015 436.12 824.679 436.112 824.967 436.096C824.935 434.88 824.919 433.712 824.919 432.592C824.919 431.472 824.919 430.712 824.919 430.312C824.919 429.912 824.935 429.664 824.967 429.568C824.999 429.456 825.103 429.352 825.279 429.256C825.455 429.16 825.711 429.112 826.047 429.112C826.527 429.112 826.767 429.4 826.767 429.976V438.472C826.767 440.232 826.727 442.168 826.647 444.28C826.631 444.744 826.239 444.976 825.471 444.976C825.087 444.976 824.895 444.744 824.895 444.28L824.991 437.92C824.479 437.952 823.775 437.968 822.879 437.968C821.999 437.968 820.887 437.872 819.543 437.68C819.543 439.792 819.639 442 819.831 444.304C819.847 444.56 819.735 444.76 819.495 444.904C819.255 445.032 818.951 445.096 818.583 445.096C818.231 445.096 818.039 444.912 818.007 444.544C817.799 442.272 817.695 440.032 817.695 437.824L817.839 430.336C817.839 430.016 817.959 429.784 818.199 429.64C818.439 429.48 818.695 429.4 818.967 429.4C819.415 429.4 819.639 429.616 819.639 430.048L819.543 435.808ZM832.762 433.816C833.914 433.816 834.858 434.368 835.594 435.472C836.346 436.576 836.722 437.904 836.722 439.456C836.722 440.992 836.338 442.304 835.57 443.392C834.818 444.48 833.81 445.024 832.546 445.024C831.298 445.024 830.29 444.472 829.522 443.368C828.754 442.248 828.37 441.008 828.37 439.648C828.37 437.904 828.722 436.512 829.426 435.472C830.178 434.368 831.29 433.816 832.762 433.816ZM832.474 435.784C831.802 435.784 831.25 436.136 830.818 436.84C830.386 437.544 830.17 438.288 830.17 439.072C830.17 440.288 830.41 441.216 830.89 441.856C831.37 442.496 831.914 442.816 832.522 442.816C833.61 442.816 834.306 442.344 834.61 441.4C834.738 440.952 834.802 440.392 834.802 439.72C834.802 437.096 834.026 435.784 832.474 435.784ZM840.185 444.976C839.641 444.976 839.113 443.92 838.601 441.808C838.105 439.68 837.857 437.296 837.857 434.656C837.857 434.384 837.969 434.176 838.193 434.032C838.433 433.872 838.649 433.792 838.841 433.792C839.033 433.792 839.185 433.856 839.297 433.984C839.425 434.096 839.489 434.248 839.489 434.44C839.489 436.936 839.913 439.336 840.761 441.64C840.889 441.448 841.089 441.064 841.361 440.488C841.633 439.896 841.889 439.464 842.129 439.192C842.369 438.92 842.657 438.784 842.993 438.784C843.329 438.784 843.681 439.032 844.049 439.528C844.417 440.024 844.729 440.56 844.985 441.136C845.257 441.696 845.409 441.992 845.441 442.024C845.873 440.68 846.089 439.432 846.089 438.28L845.945 434.632C845.929 434.392 846.041 434.192 846.281 434.032C846.521 433.856 846.753 433.768 846.977 433.768C847.441 433.768 847.673 434.672 847.673 436.48V437.8C847.673 439.944 847.345 441.856 846.689 443.536C846.337 444.496 845.897 444.976 845.369 444.976C845.065 444.976 844.785 444.784 844.529 444.4C844.273 444 843.985 443.44 843.665 442.72C843.345 442 843.097 441.504 842.921 441.232L842.201 442.648C841.929 443.208 841.721 443.616 841.577 443.872C841.433 444.112 841.233 444.36 840.977 444.616C840.721 444.856 840.457 444.976 840.185 444.976ZM855.434 433.792L856.634 433.816C856.906 433.816 857.058 433.808 857.09 433.792V428.872C857.106 428.6 857.242 428.368 857.498 428.176C857.754 427.984 857.994 427.888 858.218 427.888C858.442 427.888 858.618 427.96 858.746 428.104C858.89 428.248 858.954 428.472 858.938 428.776C858.922 429.08 858.914 430.744 858.914 433.768L861.722 433.672C862.202 433.672 862.442 433.952 862.442 434.512C862.442 434.928 862.314 435.24 862.058 435.448C861.818 435.656 861.554 435.768 861.266 435.784C860.994 435.8 860.722 435.808 860.45 435.808L858.986 435.784C858.986 436.44 859.05 437.736 859.178 439.672C859.322 441.608 859.434 442.864 859.514 443.44C859.594 444 859.61 444.368 859.562 444.544C859.514 444.704 859.426 444.816 859.298 444.88C859.09 444.976 858.81 445.024 858.458 445.024C858.106 445.024 857.898 444.832 857.834 444.448C857.514 442.352 857.298 439.472 857.186 435.808C857.042 435.824 856.49 435.832 855.53 435.832C854.57 435.832 854.09 435.552 854.09 434.992C854.09 434.192 854.538 433.792 855.434 433.792ZM867.332 433.816C868.484 433.816 869.428 434.368 870.164 435.472C870.916 436.576 871.292 437.904 871.292 439.456C871.292 440.992 870.908 442.304 870.14 443.392C869.388 444.48 868.38 445.024 867.116 445.024C865.868 445.024 864.86 444.472 864.092 443.368C863.324 442.248 862.94 441.008 862.94 439.648C862.94 437.904 863.292 436.512 863.996 435.472C864.748 434.368 865.86 433.816 867.332 433.816ZM867.044 435.784C866.372 435.784 865.82 436.136 865.388 436.84C864.956 437.544 864.74 438.288 864.74 439.072C864.74 440.288 864.98 441.216 865.46 441.856C865.94 442.496 866.484 442.816 867.092 442.816C868.18 442.816 868.876 442.344 869.18 441.4C869.308 440.952 869.372 440.392 869.372 439.72C869.372 437.096 868.596 435.784 867.044 435.784ZM880.863 437.224L881.055 442.888C881.055 443.592 881.023 444 880.959 444.112C880.927 444.4 880.831 444.624 880.671 444.784C880.527 444.944 880.239 445.024 879.807 445.024C879.599 445.024 879.431 444.896 879.303 444.64C879.175 444.368 879.103 444.064 879.087 443.728C878.975 440.912 878.823 438.272 878.631 435.808C878.455 433.328 878.367 431.024 878.367 428.896C878.367 428.56 878.479 428.296 878.703 428.104C878.927 427.912 879.191 427.816 879.495 427.816C879.943 427.816 880.207 428.2 880.287 428.968C880.383 429.736 880.439 430.696 880.455 431.848C880.487 433 880.519 433.84 880.551 434.368C881.351 433.952 882.151 433.744 882.951 433.744C884.807 433.744 885.983 434.56 886.479 436.192C886.767 437.12 886.911 438.312 886.911 439.768C886.911 440.248 886.863 441.008 886.767 442.048C886.687 443.072 886.639 443.736 886.623 444.04C886.607 444.344 886.471 444.584 886.215 444.76C885.975 444.92 885.711 445 885.423 445C884.975 445 884.751 444.76 884.751 444.28L884.919 440.104C884.919 439.752 884.903 439.168 884.871 438.352C884.839 437.536 884.671 436.888 884.367 436.408C884.079 435.928 883.567 435.688 882.831 435.688C881.519 435.688 880.863 436.2 880.863 437.224ZM892.621 433.816C893.773 433.816 894.717 434.368 895.453 435.472C896.205 436.576 896.581 437.904 896.581 439.456C896.581 440.992 896.197 442.304 895.429 443.392C894.677 444.48 893.669 445.024 892.405 445.024C891.157 445.024 890.149 444.472 889.381 443.368C888.613 442.248 888.229 441.008 888.229 439.648C888.229 437.904 888.581 436.512 889.285 435.472C890.037 434.368 891.149 433.816 892.621 433.816ZM892.333 435.784C891.661 435.784 891.109 436.136 890.677 436.84C890.245 437.544 890.029 438.288 890.029 439.072C890.029 440.288 890.269 441.216 890.749 441.856C891.229 442.496 891.773 442.816 892.381 442.816C893.469 442.816 894.165 442.344 894.469 441.4C894.597 440.952 894.661 440.392 894.661 439.72C894.661 437.096 893.885 435.784 892.333 435.784ZM898.461 436.84C898.461 435.896 898.797 435.144 899.469 434.584C900.141 434.024 900.917 433.744 901.797 433.744C902.693 433.744 903.549 433.904 904.365 434.224C905.181 434.544 905.589 434.968 905.589 435.496C905.589 435.768 905.485 435.984 905.277 436.144C905.069 436.304 904.885 436.384 904.725 436.384C904.581 436.384 904.461 436.384 904.365 436.384C904.285 436.368 903.965 436.216 903.405 435.928C902.861 435.64 902.357 435.496 901.893 435.496C901.429 435.496 901.029 435.616 900.693 435.856C900.373 436.08 900.213 436.416 900.213 436.864C900.213 437.312 900.397 437.664 900.765 437.92C901.149 438.176 901.813 438.4 902.757 438.592C903.701 438.768 904.421 439.024 904.917 439.36C905.429 439.696 905.685 440.32 905.685 441.232C905.685 442.56 905.333 443.504 904.629 444.064C903.941 444.608 903.101 444.88 902.109 444.88C901.117 444.88 900.269 444.744 899.565 444.472C898.877 444.2 898.533 443.792 898.533 443.248C898.533 442.624 898.845 442.312 899.469 442.312C899.629 442.312 899.981 442.424 900.525 442.648C901.069 442.872 901.605 442.984 902.133 442.984C902.677 442.984 903.085 442.816 903.357 442.48C903.645 442.128 903.789 441.728 903.789 441.28C903.789 440.832 903.605 440.512 903.237 440.32C902.869 440.112 902.309 439.944 901.557 439.816C900.805 439.688 900.253 439.552 899.901 439.408C898.941 439.024 898.461 438.168 898.461 436.84ZM907.887 433.792L909.087 433.816C909.359 433.816 909.511 433.808 909.543 433.792V428.872C909.559 428.6 909.695 428.368 909.951 428.176C910.207 427.984 910.447 427.888 910.671 427.888C910.895 427.888 911.071 427.96 911.199 428.104C911.343 428.248 911.407 428.472 911.391 428.776C911.375 429.08 911.367 430.744 911.367 433.768L914.175 433.672C914.655 433.672 914.895 433.952 914.895 434.512C914.895 434.928 914.767 435.24 914.511 435.448C914.271 435.656 914.007 435.768 913.719 435.784C913.447 435.8 913.175 435.808 912.903 435.808L911.439 435.784C911.439 436.44 911.503 437.736 911.631 439.672C911.775 441.608 911.887 442.864 911.967 443.44C912.047 444 912.063 444.368 912.015 444.544C911.967 444.704 911.879 444.816 911.751 444.88C911.543 444.976 911.263 445.024 910.911 445.024C910.559 445.024 910.351 444.832 910.287 444.448C909.967 442.352 909.751 439.472 909.639 435.808C909.495 435.824 908.943 435.832 907.983 435.832C907.023 435.832 906.543 435.552 906.543 434.992C906.543 434.192 906.991 433.792 907.887 433.792Z" fill="black"/>
<rect x="743" y="551" width="237" height="60" fill="white"/>
<g clip-path="url(#clip4)">
<path d="M743 551H979" stroke="black" stroke-width="3" stroke-linecap="round" stroke-linejoin="round"/>
<path d="M742 611H980" stroke="black" stroke-width="3" stroke-linecap="round" stroke-linejoin="round"/>
<path d="M743 612V552" stroke="black" stroke-width="3" stroke-linecap="round" stroke-linejoin="round"/>
<path d="M979 608V552" stroke="black" stroke-width="3" stroke-linecap="round" stroke-linejoin="round"/>
</g>
<path d="M815.57 580.808C816.818 581.016 817.962 581.12 819.002 581.12C820.042 581.12 820.706 581.112 820.994 581.096C820.962 579.88 820.946 578.712 820.946 577.592C820.946 576.472 820.946 575.712 820.946 575.312C820.946 574.912 820.962 574.664 820.994 574.568C821.026 574.456 821.13 574.352 821.306 574.256C821.482 574.16 821.738 574.112 822.074 574.112C822.554 574.112 822.794 574.4 822.794 574.976V583.472C822.794 585.232 822.754 587.168 822.674 589.28C822.658 589.744 822.266 589.976 821.498 589.976C821.114 589.976 820.922 589.744 820.922 589.28L821.018 582.92C820.506 582.952 819.802 582.968 818.906 582.968C818.026 582.968 816.914 582.872 815.57 582.68C815.57 584.792 815.666 587 815.858 589.304C815.874 589.56 815.762 589.76 815.522 589.904C815.282 590.032 814.978 590.096 814.61 590.096C814.258 590.096 814.066 589.912 814.034 589.544C813.826 587.272 813.722 585.032 813.722 582.824L813.866 575.336C813.866 575.016 813.986 574.784 814.226 574.64C814.466 574.48 814.722 574.4 814.994 574.4C815.442 574.4 815.666 574.616 815.666 575.048L815.57 580.808ZM828.789 578.816C829.941 578.816 830.885 579.368 831.621 580.472C832.373 581.576 832.749 582.904 832.749 584.456C832.749 585.992 832.365 587.304 831.597 588.392C830.845 589.48 829.837 590.024 828.573 590.024C827.325 590.024 826.317 589.472 825.549 588.368C824.781 587.248 824.397 586.008 824.397 584.648C824.397 582.904 824.749 581.512 825.453 580.472C826.205 579.368 827.317 578.816 828.789 578.816ZM828.501 580.784C827.829 580.784 827.277 581.136 826.845 581.84C826.413 582.544 826.197 583.288 826.197 584.072C826.197 585.288 826.437 586.216 826.917 586.856C827.397 587.496 827.941 587.816 828.549 587.816C829.637 587.816 830.333 587.344 830.637 586.4C830.765 585.952 830.829 585.392 830.829 584.72C830.829 582.096 830.053 580.784 828.501 580.784ZM836.213 589.976C835.669 589.976 835.141 588.92 834.629 586.808C834.133 584.68 833.885 582.296 833.885 579.656C833.885 579.384 833.997 579.176 834.221 579.032C834.461 578.872 834.677 578.792 834.869 578.792C835.061 578.792 835.213 578.856 835.325 578.984C835.453 579.096 835.517 579.248 835.517 579.44C835.517 581.936 835.941 584.336 836.789 586.64C836.917 586.448 837.117 586.064 837.389 585.488C837.661 584.896 837.917 584.464 838.157 584.192C838.397 583.92 838.685 583.784 839.021 583.784C839.357 583.784 839.709 584.032 840.077 584.528C840.445 585.024 840.757 585.56 841.013 586.136C841.285 586.696 841.437 586.992 841.469 587.024C841.901 585.68 842.117 584.432 842.117 583.28L841.973 579.632C841.957 579.392 842.069 579.192 842.309 579.032C842.549 578.856 842.781 578.768 843.005 578.768C843.469 578.768 843.701 579.672 843.701 581.48V582.8C843.701 584.944 843.373 586.856 842.717 588.536C842.365 589.496 841.925 589.976 841.397 589.976C841.093 589.976 840.813 589.784 840.557 589.4C840.301 589 840.013 588.44 839.693 587.72C839.373 587 839.125 586.504 838.949 586.232L838.229 587.648C837.957 588.208 837.749 588.616 837.605 588.872C837.461 589.112 837.261 589.36 837.005 589.616C836.749 589.856 836.485 589.976 836.213 589.976ZM851.461 578.792L852.661 578.816C852.933 578.816 853.085 578.808 853.117 578.792V573.872C853.133 573.6 853.269 573.368 853.525 573.176C853.781 572.984 854.021 572.888 854.245 572.888C854.469 572.888 854.645 572.96 854.773 573.104C854.917 573.248 854.981 573.472 854.965 573.776C854.949 574.08 854.941 575.744 854.941 578.768L857.749 578.672C858.229 578.672 858.469 578.952 858.469 579.512C858.469 579.928 858.341 580.24 858.085 580.448C857.845 580.656 857.581 580.768 857.293 580.784C857.021 580.8 856.749 580.808 856.477 580.808L855.013 580.784C855.013 581.44 855.077 582.736 855.205 584.672C855.349 586.608 855.461 587.864 855.541 588.44C855.621 589 855.637 589.368 855.589 589.544C855.541 589.704 855.453 589.816 855.325 589.88C855.117 589.976 854.837 590.024 854.485 590.024C854.133 590.024 853.925 589.832 853.861 589.448C853.541 587.352 853.325 584.472 853.213 580.808C853.069 580.824 852.517 580.832 851.557 580.832C850.597 580.832 850.117 580.552 850.117 579.992C850.117 579.192 850.565 578.792 851.461 578.792ZM863.359 578.816C864.511 578.816 865.455 579.368 866.191 580.472C866.943 581.576 867.319 582.904 867.319 584.456C867.319 585.992 866.935 587.304 866.167 588.392C865.415 589.48 864.407 590.024 863.143 590.024C861.895 590.024 860.887 589.472 860.119 588.368C859.351 587.248 858.967 586.008 858.967 584.648C858.967 582.904 859.319 581.512 860.023 580.472C860.775 579.368 861.887 578.816 863.359 578.816ZM863.071 580.784C862.399 580.784 861.847 581.136 861.415 581.84C860.983 582.544 860.767 583.288 860.767 584.072C860.767 585.288 861.007 586.216 861.487 586.856C861.967 587.496 862.511 587.816 863.119 587.816C864.207 587.816 864.903 587.344 865.207 586.4C865.335 585.952 865.399 585.392 865.399 584.72C865.399 582.096 864.623 580.784 863.071 580.784ZM878.114 589.976C877.57 589.976 877.066 589.792 876.602 589.424C876.602 589.424 876.498 589.336 876.29 589.16V596.36C876.194 596.68 876.026 596.944 875.786 597.152C875.546 597.376 875.29 597.488 875.018 597.488C874.602 597.488 874.394 597.208 874.394 596.648V579.92C874.49 579.504 874.602 579.208 874.73 579.032C874.874 578.856 875.09 578.768 875.378 578.768C875.682 578.768 875.874 578.84 875.954 578.984C876.05 579.112 876.162 579.48 876.29 580.088C876.354 579.768 876.61 579.472 877.058 579.2C877.506 578.928 878.106 578.792 878.858 578.792C880.49 578.792 881.65 579.384 882.338 580.568C883.026 581.752 883.37 583.152 883.37 584.768C883.37 586.368 882.898 587.64 881.954 588.584C881.026 589.512 879.746 589.976 878.114 589.976ZM876.29 582.776V587.24C876.386 587.288 876.498 587.368 876.626 587.48C877.09 587.896 877.594 588.104 878.138 588.104C880.346 588.104 881.45 586.968 881.45 584.696C881.45 582.76 880.954 581.536 879.962 581.024C879.546 580.8 879.034 580.688 878.426 580.688C877.834 580.768 877.33 581.032 876.914 581.48C876.498 581.912 876.29 582.344 876.29 582.776ZM884.516 574.472C884.564 573.864 884.66 573.472 884.804 573.296C884.964 573.104 885.212 573.008 885.548 573.008C886.236 573.008 886.58 573.288 886.58 573.848C886.58 574.28 886.54 575.408 886.46 577.232C886.396 579.056 886.364 580.688 886.364 582.128C886.364 583.568 886.42 584.728 886.532 585.608C886.724 587.144 886.996 587.912 887.348 587.912C887.7 587.912 887.964 587.664 888.14 587.168C888.22 586.976 888.348 586.808 888.524 586.664C888.7 586.504 888.924 586.424 889.196 586.424C889.756 586.424 890.036 586.896 890.036 587.84C890.036 588.352 889.756 588.864 889.196 589.376C888.652 589.872 888.108 590.12 887.564 590.12C887.02 590.12 886.58 590.032 886.244 589.856C885.924 589.664 885.66 589.384 885.452 589.016C885.26 588.648 885.1 588.296 884.972 587.96C884.86 587.608 884.78 587.184 884.732 586.688C884.636 585.888 884.564 584.608 884.516 582.848C884.484 581.072 884.468 579.384 884.468 577.784C884.468 576.168 884.484 575.064 884.516 574.472ZM897.659 578.792C898.363 578.792 898.715 579.392 898.715 580.592C898.715 580.72 898.715 580.856 898.715 581L898.667 582.68C898.651 583.208 898.643 583.728 898.643 584.24L899.003 589.664C899.003 590.064 898.595 590.264 897.779 590.264C897.731 590.264 897.611 590.264 897.419 590.264C897.243 590.264 897.115 590.192 897.035 590.048C896.971 589.904 896.963 589.728 897.011 589.52C897.075 589.312 897.059 589.08 896.963 588.824C896.227 589.608 895.251 590 894.035 590C891.779 590 890.651 588.256 890.651 584.768C890.651 582.832 891.011 581.368 891.731 580.376C892.467 579.384 893.515 578.888 894.875 578.888C895.515 578.888 896.155 579 896.795 579.224C897.003 578.936 897.291 578.792 897.659 578.792ZM895.163 580.976C894.251 580.976 893.571 581.24 893.123 581.768C892.675 582.296 892.451 583.264 892.451 584.672C892.451 587.04 893.091 588.224 894.371 588.224C894.707 588.224 895.075 588.072 895.475 587.768C895.891 587.464 896.179 587.12 896.339 586.736C896.643 585.872 896.795 584.928 896.795 583.904C896.795 582.88 896.667 582.136 896.411 581.672C896.171 581.208 895.755 580.976 895.163 580.976ZM908.017 578.912C908.225 578.912 908.425 578.984 908.617 579.128C908.825 579.272 908.929 579.432 908.929 579.608C908.929 580.072 908.249 582.584 906.889 587.144C905.529 591.704 904.521 594.904 903.865 596.744C903.721 597.176 903.497 597.392 903.193 597.392C902.889 597.392 902.649 597.28 902.473 597.056C902.297 596.848 902.209 596.536 902.209 596.12C902.209 595.704 902.473 594.704 903.001 593.12C903.545 591.552 903.873 590.552 903.985 590.12C903.585 589.448 902.233 586.088 899.929 580.04C899.897 579.96 899.881 579.856 899.881 579.728C899.881 579.6 899.977 579.432 900.169 579.224C900.361 579.016 900.625 578.912 900.961 578.912C901.297 578.912 901.569 579.08 901.777 579.416C902.001 579.992 902.369 581 902.881 582.44C903.393 583.864 903.785 584.896 904.057 585.536C904.345 586.176 904.617 586.84 904.873 587.528C905.097 586.776 905.481 585.32 906.025 583.16C906.569 580.984 906.881 579.744 906.961 579.44C907.025 579.088 907.377 578.912 908.017 578.912Z" fill="black"/>
<rect x="741" y="696" width="237" height="60" fill="white"/>
<g clip-path="url(#clip5)">
<path d="M741 696H977" stroke="black" stroke-width="3" stroke-linecap="round" stroke-linejoin="round"/>
<path d="M740 756H978" stroke="black" stroke-width="3" stroke-linecap="round" stroke-linejoin="round"/>
<path d="M741 757V697" stroke="black" stroke-width="3" stroke-linecap="round" stroke-linejoin="round"/>
<path d="M977 753V697" stroke="black" stroke-width="3" stroke-linecap="round" stroke-linejoin="round"/>
</g>
<path d="M796.983 719.064C797.751 719.064 798.511 719.256 799.263 719.64C800.031 720.024 800.415 720.456 800.415 720.936C800.415 721.672 800.111 722.04 799.503 722.04C799.279 722.04 798.887 721.896 798.327 721.608C797.767 721.32 797.295 721.176 796.911 721.176C795.535 721.176 794.383 721.792 793.455 723.024C792.543 724.256 792.087 725.824 792.087 727.728C792.087 729.152 792.399 730.4 793.023 731.472C793.647 732.544 794.383 733.08 795.231 733.08C796.095 733.08 796.767 732.8 797.247 732.24C797.743 731.664 797.991 731.016 797.991 730.296C797.991 729.896 797.959 729.568 797.895 729.312C797.847 729.04 797.711 728.8 797.487 728.592C797.263 728.368 796.967 728.256 796.599 728.256C796.231 728.256 795.879 728.176 795.543 728.016C795.223 727.856 795.063 727.64 795.063 727.368C795.063 727.096 795.143 726.84 795.303 726.6C795.463 726.36 795.679 726.216 795.951 726.168C797.039 726.168 797.767 726.28 798.135 726.504C798.519 726.728 798.807 726.912 798.999 727.056C799.191 727.2 799.351 727.44 799.479 727.776C799.607 728.112 799.703 728.392 799.767 728.616C799.847 728.84 799.903 729.2 799.935 729.696C799.967 730.528 799.983 731.504 799.983 732.624C799.983 733.728 799.903 734.408 799.743 734.664C799.599 734.872 799.359 734.984 799.023 735C798.687 735 798.455 734.928 798.327 734.784C798.199 734.64 798.119 734.32 798.087 733.824C797.703 734.16 797.215 734.448 796.623 734.688C796.047 734.912 795.535 735.024 795.087 735.024C793.679 735.024 792.495 734.28 791.535 732.792C790.575 731.288 790.095 729.48 790.095 727.368C790.095 726.248 790.279 725.152 790.647 724.08C791.015 722.992 791.511 722.08 792.135 721.344C793.447 719.824 795.063 719.064 796.983 719.064ZM805.73 723.816C806.882 723.816 807.826 724.368 808.562 725.472C809.314 726.576 809.69 727.904 809.69 729.456C809.69 730.992 809.306 732.304 808.538 733.392C807.786 734.48 806.778 735.024 805.514 735.024C804.266 735.024 803.258 734.472 802.49 733.368C801.722 732.248 801.338 731.008 801.338 729.648C801.338 727.904 801.69 726.512 802.394 725.472C803.146 724.368 804.258 723.816 805.73 723.816ZM805.442 725.784C804.77 725.784 804.218 726.136 803.786 726.84C803.354 727.544 803.138 728.288 803.138 729.072C803.138 730.288 803.378 731.216 803.858 731.856C804.338 732.496 804.882 732.816 805.49 732.816C806.578 732.816 807.274 732.344 807.578 731.4C807.706 730.952 807.77 730.392 807.77 729.72C807.77 727.096 806.994 725.784 805.442 725.784ZM816.741 718.776C816.741 718.136 817.141 717.816 817.941 717.816C818.309 717.816 818.525 718.04 818.589 718.488V722.088C818.589 722.76 818.597 723.432 818.613 724.104C818.933 724.008 819.341 723.96 819.837 723.96C821.389 723.96 822.589 724.48 823.437 725.52C824.285 726.56 824.709 727.864 824.709 729.432C824.709 731 824.205 732.328 823.197 733.416C822.205 734.488 820.925 735.024 819.357 735.024C817.789 735.024 817.005 734.584 817.005 733.704C817.005 732.808 816.957 730.552 816.861 726.936C816.781 723.304 816.741 720.584 816.741 718.776ZM821.589 726.504C821.013 726.056 820.405 725.832 819.765 725.832C819.413 725.832 819.053 725.896 818.685 726.024C818.781 727.336 818.829 729.664 818.829 733.008C819.101 733.104 819.381 733.152 819.669 733.152C820.293 733.152 820.917 732.92 821.541 732.456C822.469 731.816 822.933 730.84 822.933 729.528C822.933 728.2 822.485 727.192 821.589 726.504ZM833.28 723.792C833.984 723.792 834.336 724.392 834.336 725.592C834.336 725.72 834.336 725.856 834.336 726L834.288 727.68C834.272 728.208 834.264 728.728 834.264 729.24L834.624 734.664C834.624 735.064 834.216 735.264 833.4 735.264C833.352 735.264 833.232 735.264 833.04 735.264C832.864 735.264 832.736 735.192 832.656 735.048C832.592 734.904 832.584 734.728 832.632 734.52C832.696 734.312 832.68 734.08 832.584 733.824C831.848 734.608 830.872 735 829.656 735C827.4 735 826.272 733.256 826.272 729.768C826.272 727.832 826.632 726.368 827.352 725.376C828.088 724.384 829.136 723.888 830.496 723.888C831.136 723.888 831.776 724 832.416 724.224C832.624 723.936 832.912 723.792 833.28 723.792ZM830.784 725.976C829.872 725.976 829.192 726.24 828.744 726.768C828.296 727.296 828.072 728.264 828.072 729.672C828.072 732.04 828.712 733.224 829.992 733.224C830.328 733.224 830.696 733.072 831.096 732.768C831.512 732.464 831.8 732.12 831.96 731.736C832.264 730.872 832.416 729.928 832.416 728.904C832.416 727.88 832.288 727.136 832.032 726.672C831.792 726.208 831.376 725.976 830.784 725.976ZM835.646 729.384C835.646 728.312 835.926 727.336 836.486 726.456C837.062 725.576 837.79 724.92 838.67 724.488C839.55 724.04 840.406 723.816 841.238 723.816C842.07 723.816 842.734 723.92 843.23 724.128C843.742 724.32 843.998 724.584 843.998 724.92C843.998 725.24 843.902 725.568 843.71 725.904C843.534 726.224 843.294 726.384 842.99 726.384C842.878 726.384 842.566 726.296 842.054 726.12C841.558 725.928 841.238 725.832 841.094 725.832C840.166 725.832 839.374 726.176 838.718 726.864C838.062 727.536 837.734 728.432 837.734 729.552C837.734 730.672 837.91 731.512 838.262 732.072C838.63 732.616 839.254 732.888 840.134 732.888C840.486 732.888 841.086 732.688 841.934 732.288C842.798 731.872 843.334 731.664 843.542 731.664C843.75 731.664 843.918 731.728 844.046 731.856C844.174 731.984 844.238 732.144 844.238 732.336C844.238 732.72 843.99 733.128 843.494 733.56C843.014 733.976 842.414 734.328 841.694 734.616C840.974 734.888 840.326 735.024 839.75 735.024C838.47 735.024 837.462 734.52 836.726 733.512C836.006 732.504 835.646 731.128 835.646 729.384ZM853.855 733.92C853.855 734.672 853.511 735.048 852.823 735.048C852.535 735.048 852.143 734.344 851.647 732.936C851.151 731.512 850.487 730.416 849.655 729.648C849.575 729.76 849.231 730.08 848.623 730.608C848.031 731.12 847.679 731.432 847.567 731.544V733.944C847.535 734.184 847.495 734.368 847.447 734.496C847.399 734.624 847.287 734.744 847.111 734.856C846.951 734.968 846.727 735.024 846.439 735.024C846.007 735.024 845.791 734.76 845.791 734.232C845.791 732.744 845.727 730.44 845.599 727.32C845.471 724.184 845.407 721.376 845.407 718.896C845.407 718.592 845.527 718.352 845.767 718.176C846.023 718 846.287 717.912 846.559 717.912C846.927 717.912 847.151 718.144 847.231 718.608V722.856C847.231 723.368 847.239 723.752 847.255 724.008C847.271 724.264 847.287 724.648 847.303 725.16C847.335 726.216 847.391 727.408 847.471 728.736C847.935 728.384 848.527 727.832 849.247 727.08C849.983 726.312 850.535 725.656 850.903 725.112C851.479 724.2 852.007 723.744 852.487 723.744C852.615 723.744 852.743 723.776 852.871 723.84C853.207 724.032 853.375 724.256 853.375 724.512C853.375 724.768 853.263 725.104 853.039 725.52C852.463 726.512 851.799 727.416 851.047 728.232C851.767 729.032 852.487 730.176 853.207 731.664C853.639 732.624 853.855 733.376 853.855 733.92ZM861.379 723.792L862.579 723.816C862.851 723.816 863.003 723.808 863.035 723.792V718.872C863.051 718.6 863.187 718.368 863.443 718.176C863.699 717.984 863.939 717.888 864.163 717.888C864.387 717.888 864.563 717.96 864.691 718.104C864.835 718.248 864.899 718.472 864.883 718.776C864.867 719.08 864.859 720.744 864.859 723.768L867.667 723.672C868.147 723.672 868.387 723.952 868.387 724.512C868.387 724.928 868.259 725.24 868.003 725.448C867.763 725.656 867.499 725.768 867.211 725.784C866.939 725.8 866.667 725.808 866.395 725.808L864.931 725.784C864.931 726.44 864.995 727.736 865.123 729.672C865.267 731.608 865.379 732.864 865.459 733.44C865.539 734 865.555 734.368 865.507 734.544C865.459 734.704 865.371 734.816 865.243 734.88C865.035 734.976 864.755 735.024 864.403 735.024C864.051 735.024 863.843 734.832 863.779 734.448C863.459 732.352 863.243 729.472 863.131 725.808C862.987 725.824 862.435 725.832 861.475 725.832C860.515 725.832 860.035 725.552 860.035 724.992C860.035 724.192 860.483 723.792 861.379 723.792ZM873.277 723.816C874.429 723.816 875.373 724.368 876.109 725.472C876.861 726.576 877.237 727.904 877.237 729.456C877.237 730.992 876.853 732.304 876.085 733.392C875.333 734.48 874.325 735.024 873.061 735.024C871.813 735.024 870.805 734.472 870.037 733.368C869.269 732.248 868.885 731.008 868.885 729.648C868.885 727.904 869.237 726.512 869.941 725.472C870.693 724.368 871.805 723.816 873.277 723.816ZM872.989 725.784C872.317 725.784 871.765 726.136 871.333 726.84C870.901 727.544 870.685 728.288 870.685 729.072C870.685 730.288 870.925 731.216 871.405 731.856C871.885 732.496 872.429 732.816 873.037 732.816C874.125 732.816 874.821 732.344 875.125 731.4C875.253 730.952 875.317 730.392 875.317 729.72C875.317 727.096 874.541 725.784 872.989 725.784ZM886.808 727.224L887 732.888C887 733.592 886.968 734 886.904 734.112C886.872 734.4 886.776 734.624 886.616 734.784C886.472 734.944 886.184 735.024 885.752 735.024C885.544 735.024 885.376 734.896 885.248 734.64C885.12 734.368 885.048 734.064 885.032 733.728C884.92 730.912 884.768 728.272 884.576 725.808C884.4 723.328 884.312 721.024 884.312 718.896C884.312 718.56 884.424 718.296 884.648 718.104C884.872 717.912 885.136 717.816 885.44 717.816C885.888 717.816 886.152 718.2 886.232 718.968C886.328 719.736 886.384 720.696 886.4 721.848C886.432 723 886.464 723.84 886.496 724.368C887.296 723.952 888.096 723.744 888.896 723.744C890.752 723.744 891.928 724.56 892.424 726.192C892.712 727.12 892.856 728.312 892.856 729.768C892.856 730.248 892.808 731.008 892.712 732.048C892.632 733.072 892.584 733.736 892.568 734.04C892.552 734.344 892.416 734.584 892.16 734.76C891.92 734.92 891.656 735 891.368 735C890.92 735 890.696 734.76 890.696 734.28L890.864 730.104C890.864 729.752 890.848 729.168 890.816 728.352C890.784 727.536 890.616 726.888 890.312 726.408C890.024 725.928 889.512 725.688 888.776 725.688C887.464 725.688 886.808 726.2 886.808 727.224ZM898.566 723.816C899.718 723.816 900.662 724.368 901.398 725.472C902.15 726.576 902.526 727.904 902.526 729.456C902.526 730.992 902.142 732.304 901.374 733.392C900.622 734.48 899.614 735.024 898.35 735.024C897.102 735.024 896.094 734.472 895.326 733.368C894.558 732.248 894.174 731.008 894.174 729.648C894.174 727.904 894.526 726.512 895.23 725.472C895.982 724.368 897.094 723.816 898.566 723.816ZM898.278 725.784C897.606 725.784 897.054 726.136 896.622 726.84C896.19 727.544 895.974 728.288 895.974 729.072C895.974 730.288 896.214 731.216 896.694 731.856C897.174 732.496 897.718 732.816 898.326 732.816C899.414 732.816 900.11 732.344 900.414 731.4C900.542 730.952 900.606 730.392 900.606 729.72C900.606 727.096 899.83 725.784 898.278 725.784ZM905.366 735.024C904.95 735.024 904.702 734.792 904.622 734.328C904.622 731.096 904.43 728.216 904.046 725.688C904.046 725.368 904.158 725.08 904.382 724.824C904.622 724.568 904.886 724.44 905.174 724.44C905.478 724.44 905.702 724.608 905.846 724.944C906.438 724.16 907.23 723.768 908.222 723.768C909.486 723.768 910.462 724.376 911.15 725.592C911.95 724.44 913.006 723.864 914.318 723.864C915.646 723.864 916.638 724.392 917.294 725.448C917.726 726.104 918.03 726.968 918.206 728.04C918.382 729.112 918.47 730.632 918.47 732.6C918.47 733.368 918.39 733.968 918.23 734.4C918.07 734.816 917.734 735.024 917.222 735.024C916.806 735.024 916.598 734.76 916.598 734.232L916.67 731.232C916.67 727.632 915.734 725.832 913.862 725.832C913.27 725.832 912.854 726.04 912.614 726.456C912.342 726.952 912.182 727.472 912.134 728.016C912.07 728.976 912.038 729.848 912.038 730.632V734.112C912.038 734.368 911.91 734.584 911.654 734.76C911.398 734.936 911.134 735.024 910.862 735.024C910.51 735.024 910.286 734.792 910.19 734.328L910.262 729.36C910.262 727.6 909.966 726.504 909.374 726.072C909.086 725.864 908.646 725.76 908.054 725.76C907.478 725.76 907.046 725.976 906.758 726.408C906.486 726.84 906.35 727.536 906.35 728.496L906.494 732.96C906.494 734.336 906.118 735.024 905.366 735.024ZM923.766 723.888C924.614 723.888 925.422 724.136 926.19 724.632C926.958 725.128 927.342 725.744 927.342 726.48C927.342 727.2 927.03 727.904 926.406 728.592C925.782 729.264 924.95 729.672 923.91 729.816C923.462 729.88 922.79 729.912 921.894 729.912C922.07 731.272 922.414 732.168 922.926 732.6C923.086 732.776 923.302 732.864 923.574 732.864C924.566 732.864 925.398 732.552 926.07 731.928C926.742 731.288 927.222 730.968 927.51 730.968C927.638 730.968 927.83 731.088 928.086 731.328C928.342 731.568 928.47 731.792 928.47 732C928.47 732.416 927.966 733.016 926.958 733.8C926.51 734.168 925.966 734.48 925.326 734.736C924.702 734.976 924.118 735.096 923.574 735.096C922.182 735.096 921.158 734.2 920.502 732.408C920.086 731.304 919.878 730.088 919.878 728.76C919.878 727.432 920.19 726.288 920.814 725.328C921.438 724.368 922.422 723.888 923.766 723.888ZM923.886 725.544C923.278 725.544 922.758 725.888 922.326 726.576C922.166 726.816 922.014 727.36 921.87 728.208C924.11 728.208 925.23 727.656 925.23 726.552C925.23 725.88 924.782 725.544 923.886 725.544Z" fill="black"/>
<defs>
<clipPath id="clip0">
<rect width="1776" height="1010" fill="white"/>
</clipPath>
<clipPath id="clip1">
<rect width="1478" height="32" fill="white" transform="translate(131 38)"/>
</clipPath>
<clipPath id="clip2">
<rect width="144" height="32" fill="white" transform="translate(1617 38)"/>
</clipPath>
<clipPath id="clip3">
<rect width="240" height="64" fill="white" transform="translate(745 404)"/>
</clipPath>
<clipPath id="clip4">
<rect width="240" height="64" fill="white" transform="translate(741 549)"/>
</clipPath>
<clipPath id="clip5">
<rect width="240" height="64" fill="white" transform="translate(739 694)"/>
</clipPath>
</defs>
</svg>
