<svg width="621" height="488" viewBox="0 0 621 488" fill="none" xmlns="http://www.w3.org/2000/svg">
<rect width="621" height="488" fill="white"/>
<path d="M48.936 33.444L66.756 33.18C67.6067 33.444 68.032 33.8693 68.032 34.456C68.032 35.9227 67.4307 36.656 66.228 36.656C64.028 36.656 61.696 36.7147 59.232 36.832C59.0853 39.3547 59.012 41.2613 59.012 42.552C59.012 43.8133 59.012 44.62 59.012 44.972L59.188 60.416C59.188 61.3253 58.9533 61.8533 58.484 62C58.132 62.1173 57.692 62.176 57.164 62.176C56.3133 62.176 55.844 61.692 55.756 60.724C55.58 58.4653 55.492 54.256 55.492 48.096C55.492 41.9067 55.58 38.1813 55.756 36.92C55.14 36.9493 54.2307 36.964 53.028 36.964C51.8253 36.964 50.3293 36.9493 48.54 36.92C48.0707 36.92 47.704 36.7733 47.44 36.48C47.176 36.1867 47.044 35.8347 47.044 35.424C47.044 34.984 47.22 34.5587 47.572 34.148C47.9533 33.7373 48.408 33.5027 48.936 33.444ZM73.962 47.744L74.314 58.128C74.314 59.4187 74.2554 60.1667 74.138 60.372C74.0794 60.9 73.9034 61.3107 73.61 61.604C73.346 61.8973 72.818 62.044 72.026 62.044C71.6447 62.044 71.3367 61.8093 71.102 61.34C70.8674 60.8413 70.7354 60.284 70.706 59.668C70.5007 54.5053 70.222 49.6653 69.87 45.148C69.5474 40.6013 69.386 36.3773 69.386 32.476C69.386 31.86 69.5914 31.376 70.002 31.024C70.4127 30.672 70.8967 30.496 71.454 30.496C72.2754 30.496 72.7594 31.2 72.906 32.608C73.082 34.016 73.1847 35.776 73.214 37.888C73.2727 40 73.3314 41.54 73.39 42.508C74.8567 41.7453 76.3234 41.364 77.79 41.364C81.1927 41.364 83.3487 42.86 84.258 45.852C84.786 47.5533 85.05 49.7387 85.05 52.408C85.05 53.288 84.962 54.6813 84.786 56.588C84.6394 58.4653 84.5514 59.6827 84.522 60.24C84.4927 60.7973 84.2434 61.2373 83.774 61.56C83.334 61.8533 82.85 62 82.322 62C81.5007 62 81.09 61.56 81.09 60.68L81.398 53.024C81.398 52.3787 81.3687 51.308 81.31 49.812C81.2514 48.316 80.9434 47.128 80.386 46.248C79.858 45.368 78.9194 44.928 77.57 44.928C75.1647 44.928 73.962 45.8667 73.962 47.744ZM94.0666 41.628C95.6213 41.628 97.1026 42.0827 98.5106 42.992C99.9186 43.9013 100.623 45.0307 100.623 46.38C100.623 47.7 100.051 48.9907 98.9066 50.252C97.7626 51.484 96.2373 52.232 94.3306 52.496C93.5093 52.6133 92.2773 52.672 90.6346 52.672C90.9573 55.1653 91.5879 56.808 92.5266 57.6C92.8199 57.9227 93.2159 58.084 93.7146 58.084C95.5333 58.084 97.0586 57.512 98.2906 56.368C99.5226 55.1947 100.403 54.608 100.931 54.608C101.165 54.608 101.517 54.828 101.987 55.268C102.456 55.708 102.691 56.1187 102.691 56.5C102.691 57.2627 101.767 58.3627 99.9186 59.8C99.0973 60.4747 98.0999 61.0467 96.9266 61.516C95.7826 61.956 94.7119 62.176 93.7146 62.176C91.1626 62.176 89.2853 60.5333 88.0826 57.248C87.3199 55.224 86.9386 52.9947 86.9386 50.56C86.9386 48.1253 87.5106 46.028 88.6546 44.268C89.7986 42.508 91.6026 41.628 94.0666 41.628ZM94.2866 44.664C93.1719 44.664 92.2186 45.2947 91.4266 46.556C91.1333 46.996 90.8546 47.9933 90.5906 49.548C94.6973 49.548 96.7506 48.536 96.7506 46.512C96.7506 45.28 95.9293 44.664 94.2866 44.664ZM106.01 47.04C106.01 45.3093 106.626 43.9307 107.858 42.904C109.09 41.8773 110.513 41.364 112.126 41.364C113.769 41.364 115.338 41.6573 116.834 42.244C118.33 42.8307 119.078 43.608 119.078 44.576C119.078 45.0747 118.887 45.4707 118.506 45.764C118.125 46.0573 117.787 46.204 117.494 46.204C117.23 46.204 117.01 46.204 116.834 46.204C116.687 46.1747 116.101 45.896 115.074 45.368C114.077 44.84 113.153 44.576 112.302 44.576C111.451 44.576 110.718 44.796 110.102 45.236C109.515 45.6467 109.222 46.2627 109.222 47.084C109.222 47.9053 109.559 48.5507 110.234 49.02C110.938 49.4893 112.155 49.9 113.886 50.252C115.617 50.5747 116.937 51.044 117.846 51.66C118.785 52.276 119.254 53.42 119.254 55.092C119.254 57.5267 118.609 59.2573 117.318 60.284C116.057 61.2813 114.517 61.78 112.698 61.78C110.879 61.78 109.325 61.5307 108.034 61.032C106.773 60.5333 106.142 59.7853 106.142 58.788C106.142 57.644 106.714 57.072 107.858 57.072C108.151 57.072 108.797 57.2773 109.794 57.688C110.791 58.0987 111.774 58.304 112.742 58.304C113.739 58.304 114.487 57.996 114.986 57.38C115.514 56.7347 115.778 56.0013 115.778 55.18C115.778 54.3587 115.441 53.772 114.766 53.42C114.091 53.0387 113.065 52.7307 111.686 52.496C110.307 52.2613 109.295 52.012 108.65 51.748C106.89 51.044 106.01 49.4747 106.01 47.04ZM128.528 41.628C130.082 41.628 131.564 42.0827 132.972 42.992C134.38 43.9013 135.084 45.0307 135.084 46.38C135.084 47.7 134.512 48.9907 133.368 50.252C132.224 51.484 130.698 52.232 128.792 52.496C127.97 52.6133 126.738 52.672 125.096 52.672C125.418 55.1653 126.049 56.808 126.988 57.6C127.281 57.9227 127.677 58.084 128.176 58.084C129.994 58.084 131.52 57.512 132.752 56.368C133.984 55.1947 134.864 54.608 135.392 54.608C135.626 54.608 135.978 54.828 136.448 55.268C136.917 55.708 137.152 56.1187 137.152 56.5C137.152 57.2627 136.228 58.3627 134.38 59.8C133.558 60.4747 132.561 61.0467 131.388 61.516C130.244 61.956 129.173 62.176 128.176 62.176C125.624 62.176 123.746 60.5333 122.544 57.248C121.781 55.224 121.4 52.9947 121.4 50.56C121.4 48.1253 121.972 46.028 123.116 44.268C124.26 42.508 126.064 41.628 128.528 41.628ZM128.748 44.664C127.633 44.664 126.68 45.2947 125.888 46.556C125.594 46.996 125.316 47.9933 125.052 49.548C129.158 49.548 131.212 48.536 131.212 46.512C131.212 45.28 130.39 44.664 128.748 44.664ZM162.139 41.452C163.43 41.452 164.075 42.552 164.075 44.752C164.075 44.9867 164.075 45.236 164.075 45.5L163.987 48.58C163.958 49.548 163.943 50.5013 163.943 51.44L164.603 61.384C164.603 62.1173 163.855 62.484 162.359 62.484C162.271 62.484 162.051 62.484 161.699 62.484C161.377 62.484 161.142 62.352 160.995 62.088C160.878 61.824 160.863 61.5013 160.951 61.12C161.069 60.7387 161.039 60.3133 160.863 59.844C159.514 61.2813 157.725 62 155.495 62C151.359 62 149.291 58.8027 149.291 52.408C149.291 48.8587 149.951 46.1747 151.271 44.356C152.621 42.5373 154.542 41.628 157.035 41.628C158.209 41.628 159.382 41.8333 160.555 42.244C160.937 41.716 161.465 41.452 162.139 41.452ZM157.563 45.456C155.891 45.456 154.645 45.94 153.823 46.908C153.002 47.876 152.591 49.6507 152.591 52.232C152.591 56.5733 153.765 58.744 156.111 58.744C156.727 58.744 157.402 58.4653 158.135 57.908C158.898 57.3507 159.426 56.72 159.719 56.016C160.277 54.432 160.555 52.7013 160.555 50.824C160.555 48.9467 160.321 47.5827 159.851 46.732C159.411 45.8813 158.649 45.456 157.563 45.456ZM172.77 55.576L172.814 60.108C172.814 60.636 172.565 61.12 172.066 61.56C171.597 62 171.127 62.22 170.658 62.22C169.983 62.22 169.558 61.692 169.382 60.636C169.353 60.4013 169.235 58.26 169.03 54.212C168.825 50.1347 168.429 46.9373 167.842 44.62C167.578 43.5053 167.446 42.8453 167.446 42.64C167.446 41.672 168.033 41.188 169.206 41.188C169.705 41.188 170.101 41.3787 170.394 41.76C170.687 42.1413 170.863 42.5373 170.922 42.948C171.01 43.3293 171.083 43.8573 171.142 44.532C171.201 45.2067 171.245 45.632 171.274 45.808C171.89 44.3413 172.814 43.2413 174.046 42.508C175.278 41.7747 176.627 41.408 178.094 41.408C180.499 41.408 181.702 42.024 181.702 43.256C181.702 43.872 181.482 44.3707 181.042 44.752C180.631 45.104 180.147 45.28 179.59 45.28C177.097 45.28 175.337 46.072 174.31 47.656C173.283 49.24 172.77 51.88 172.77 55.576ZM190.36 41.628C191.914 41.628 193.396 42.0827 194.804 42.992C196.212 43.9013 196.916 45.0307 196.916 46.38C196.916 47.7 196.344 48.9907 195.2 50.252C194.056 51.484 192.53 52.232 190.624 52.496C189.802 52.6133 188.57 52.672 186.928 52.672C187.25 55.1653 187.881 56.808 188.82 57.6C189.113 57.9227 189.509 58.084 190.008 58.084C191.826 58.084 193.352 57.512 194.584 56.368C195.816 55.1947 196.696 54.608 197.224 54.608C197.458 54.608 197.81 54.828 198.28 55.268C198.749 55.708 198.984 56.1187 198.984 56.5C198.984 57.2627 198.06 58.3627 196.212 59.8C195.39 60.4747 194.393 61.0467 193.22 61.516C192.076 61.956 191.005 62.176 190.008 62.176C187.456 62.176 185.578 60.5333 184.376 57.248C183.613 55.224 183.232 52.9947 183.232 50.56C183.232 48.1253 183.804 46.028 184.948 44.268C186.092 42.508 187.896 41.628 190.36 41.628ZM190.58 44.664C189.465 44.664 188.512 45.2947 187.72 46.556C187.426 46.996 187.148 47.9933 186.884 49.548C190.99 49.548 193.044 48.536 193.044 46.512C193.044 45.28 192.222 44.664 190.58 44.664ZM212.795 41.452L214.995 41.496C215.494 41.496 215.773 41.4813 215.831 41.452V32.432C215.861 31.9333 216.11 31.508 216.579 31.156C217.049 30.804 217.489 30.628 217.899 30.628C218.31 30.628 218.633 30.76 218.867 31.024C219.131 31.288 219.249 31.6987 219.219 32.256C219.19 32.8133 219.175 35.864 219.175 41.408L224.323 41.232C225.203 41.232 225.643 41.7453 225.643 42.772C225.643 43.5347 225.409 44.1067 224.939 44.488C224.499 44.8693 224.015 45.0747 223.487 45.104C222.989 45.1333 222.49 45.148 221.991 45.148L219.307 45.104C219.307 46.3067 219.425 48.6827 219.659 52.232C219.923 55.7813 220.129 58.084 220.275 59.14C220.422 60.1667 220.451 60.8413 220.363 61.164C220.275 61.4573 220.114 61.6627 219.879 61.78C219.498 61.956 218.985 62.044 218.339 62.044C217.694 62.044 217.313 61.692 217.195 60.988C216.609 57.1453 216.213 51.8653 216.007 45.148C215.743 45.1773 214.731 45.192 212.971 45.192C211.211 45.192 210.331 44.6787 210.331 43.652C210.331 42.1853 211.153 41.452 212.795 41.452ZM231.528 47.744L231.88 58.128C231.88 59.4187 231.822 60.1667 231.704 60.372C231.646 60.9 231.47 61.3107 231.176 61.604C230.912 61.8973 230.384 62.044 229.592 62.044C229.211 62.044 228.903 61.8093 228.668 61.34C228.434 60.8413 228.302 60.284 228.272 59.668C228.067 54.5053 227.788 49.6653 227.436 45.148C227.114 40.6013 226.952 36.3773 226.952 32.476C226.952 31.86 227.158 31.376 227.568 31.024C227.979 30.672 228.463 30.496 229.02 30.496C229.842 30.496 230.326 31.2 230.472 32.608C230.648 34.016 230.751 35.776 230.78 37.888C230.839 40 230.898 41.54 230.956 42.508C232.423 41.7453 233.89 41.364 235.356 41.364C238.759 41.364 240.915 42.86 241.824 45.852C242.352 47.5533 242.616 49.7387 242.616 52.408C242.616 53.288 242.528 54.6813 242.352 56.588C242.206 58.4653 242.118 59.6827 242.088 60.24C242.059 60.7973 241.81 61.2373 241.34 61.56C240.9 61.8533 240.416 62 239.888 62C239.067 62 238.656 61.56 238.656 60.68L238.964 53.024C238.964 52.3787 238.935 51.308 238.876 49.812C238.818 48.316 238.51 47.128 237.952 46.248C237.424 45.368 236.486 44.928 235.136 44.928C232.731 44.928 231.528 45.8667 231.528 47.744ZM251.633 41.628C253.188 41.628 254.669 42.0827 256.077 42.992C257.485 43.9013 258.189 45.0307 258.189 46.38C258.189 47.7 257.617 48.9907 256.473 50.252C255.329 51.484 253.804 52.232 251.897 52.496C251.076 52.6133 249.844 52.672 248.201 52.672C248.524 55.1653 249.154 56.808 250.093 57.6C250.386 57.9227 250.782 58.084 251.281 58.084C253.1 58.084 254.625 57.512 255.857 56.368C257.089 55.1947 257.969 54.608 258.497 54.608C258.732 54.608 259.084 54.828 259.553 55.268C260.022 55.708 260.257 56.1187 260.257 56.5C260.257 57.2627 259.333 58.3627 257.485 59.8C256.664 60.4747 255.666 61.0467 254.493 61.516C253.349 61.956 252.278 62.176 251.281 62.176C248.729 62.176 246.852 60.5333 245.649 57.248C244.886 55.224 244.505 52.9947 244.505 50.56C244.505 48.1253 245.077 46.028 246.221 44.268C247.365 42.508 249.169 41.628 251.633 41.628ZM251.853 44.664C250.738 44.664 249.785 45.2947 248.993 46.556C248.7 46.996 248.421 47.9933 248.157 49.548C252.264 49.548 254.317 48.536 254.317 46.512C254.317 45.28 253.496 44.664 251.853 44.664ZM273.717 47.04C273.717 45.3093 274.333 43.9307 275.565 42.904C276.797 41.8773 278.22 41.364 279.833 41.364C281.476 41.364 283.045 41.6573 284.541 42.244C286.037 42.8307 286.785 43.608 286.785 44.576C286.785 45.0747 286.594 45.4707 286.213 45.764C285.832 46.0573 285.494 46.204 285.201 46.204C284.937 46.204 284.717 46.204 284.541 46.204C284.394 46.1747 283.808 45.896 282.781 45.368C281.784 44.84 280.86 44.576 280.009 44.576C279.158 44.576 278.425 44.796 277.809 45.236C277.222 45.6467 276.929 46.2627 276.929 47.084C276.929 47.9053 277.266 48.5507 277.941 49.02C278.645 49.4893 279.862 49.9 281.593 50.252C283.324 50.5747 284.644 51.044 285.553 51.66C286.492 52.276 286.961 53.42 286.961 55.092C286.961 57.5267 286.316 59.2573 285.025 60.284C283.764 61.2813 282.224 61.78 280.405 61.78C278.586 61.78 277.032 61.5307 275.741 61.032C274.48 60.5333 273.849 59.7853 273.849 58.788C273.849 57.644 274.421 57.072 275.565 57.072C275.858 57.072 276.504 57.2773 277.501 57.688C278.498 58.0987 279.481 58.304 280.449 58.304C281.446 58.304 282.194 57.996 282.693 57.38C283.221 56.7347 283.485 56.0013 283.485 55.18C283.485 54.3587 283.148 53.772 282.473 53.42C281.798 53.0387 280.772 52.7307 279.393 52.496C278.014 52.2613 277.002 52.012 276.357 51.748C274.597 51.044 273.717 49.4747 273.717 47.04ZM290.999 41.452L293.199 41.496C293.697 41.496 293.976 41.4813 294.035 41.452V32.432C294.064 31.9333 294.313 31.508 294.783 31.156C295.252 30.804 295.692 30.628 296.103 30.628C296.513 30.628 296.836 30.76 297.071 31.024C297.335 31.288 297.452 31.6987 297.423 32.256C297.393 32.8133 297.379 35.864 297.379 41.408L302.527 41.232C303.407 41.232 303.847 41.7453 303.847 42.772C303.847 43.5347 303.612 44.1067 303.143 44.488C302.703 44.8693 302.219 45.0747 301.691 45.104C301.192 45.1333 300.693 45.148 300.195 45.148L297.511 45.104C297.511 46.3067 297.628 48.6827 297.863 52.232C298.127 55.7813 298.332 58.084 298.479 59.14C298.625 60.1667 298.655 60.8413 298.567 61.164C298.479 61.4573 298.317 61.6627 298.083 61.78C297.701 61.956 297.188 62.044 296.543 62.044C295.897 62.044 295.516 61.692 295.399 60.988C294.812 57.1453 294.416 51.8653 294.211 45.148C293.947 45.1773 292.935 45.192 291.175 45.192C289.415 45.192 288.535 44.6787 288.535 43.652C288.535 42.1853 289.356 41.452 290.999 41.452ZM311.36 41.628C312.914 41.628 314.396 42.0827 315.804 42.992C317.212 43.9013 317.916 45.0307 317.916 46.38C317.916 47.7 317.344 48.9907 316.2 50.252C315.056 51.484 313.53 52.232 311.624 52.496C310.802 52.6133 309.57 52.672 307.928 52.672C308.25 55.1653 308.881 56.808 309.82 57.6C310.113 57.9227 310.509 58.084 311.008 58.084C312.826 58.084 314.352 57.512 315.584 56.368C316.816 55.1947 317.696 54.608 318.224 54.608C318.458 54.608 318.81 54.828 319.28 55.268C319.749 55.708 319.984 56.1187 319.984 56.5C319.984 57.2627 319.06 58.3627 317.212 59.8C316.39 60.4747 315.393 61.0467 314.22 61.516C313.076 61.956 312.005 62.176 311.008 62.176C308.456 62.176 306.578 60.5333 305.376 57.248C304.613 55.224 304.232 52.9947 304.232 50.56C304.232 48.1253 304.804 46.028 305.948 44.268C307.092 42.508 308.896 41.628 311.36 41.628ZM311.58 44.664C310.465 44.664 309.512 45.2947 308.72 46.556C308.426 46.996 308.148 47.9933 307.884 49.548C311.99 49.548 314.044 48.536 314.044 46.512C314.044 45.28 313.222 44.664 311.58 44.664ZM329.507 61.956C328.509 61.956 327.585 61.6187 326.735 60.944C326.735 60.944 326.544 60.7827 326.163 60.46V73.66C325.987 74.2467 325.679 74.7307 325.239 75.112C324.799 75.5227 324.329 75.728 323.831 75.728C323.068 75.728 322.687 75.2147 322.687 74.188V43.52C322.863 42.7573 323.068 42.2147 323.303 41.892C323.567 41.5693 323.963 41.408 324.491 41.408C325.048 41.408 325.4 41.54 325.547 41.804C325.723 42.0387 325.928 42.7133 326.163 43.828C326.28 43.2413 326.749 42.6987 327.571 42.2C328.392 41.7013 329.492 41.452 330.871 41.452C333.863 41.452 335.989 42.5373 337.251 44.708C338.512 46.8787 339.143 49.4453 339.143 52.408C339.143 55.3413 338.277 57.6733 336.547 59.404C334.845 61.1053 332.499 61.956 329.507 61.956ZM326.163 48.756V56.94C326.339 57.028 326.544 57.1747 326.779 57.38C327.629 58.1427 328.553 58.524 329.551 58.524C333.599 58.524 335.623 56.4413 335.623 52.276C335.623 48.7267 334.713 46.4827 332.895 45.544C332.132 45.1333 331.193 44.928 330.079 44.928C328.993 45.0747 328.069 45.5587 327.307 46.38C326.544 47.172 326.163 47.964 326.163 48.756ZM342.123 47.04C342.123 45.3093 342.739 43.9307 343.971 42.904C345.203 41.8773 346.626 41.364 348.239 41.364C349.882 41.364 351.451 41.6573 352.947 42.244C354.443 42.8307 355.191 43.608 355.191 44.576C355.191 45.0747 355 45.4707 354.619 45.764C354.238 46.0573 353.9 46.204 353.607 46.204C353.343 46.204 353.123 46.204 352.947 46.204C352.8 46.1747 352.214 45.896 351.187 45.368C350.19 44.84 349.266 44.576 348.415 44.576C347.564 44.576 346.831 44.796 346.215 45.236C345.628 45.6467 345.335 46.2627 345.335 47.084C345.335 47.9053 345.672 48.5507 346.347 49.02C347.051 49.4893 348.268 49.9 349.999 50.252C351.73 50.5747 353.05 51.044 353.959 51.66C354.898 52.276 355.367 53.42 355.367 55.092C355.367 57.5267 354.722 59.2573 353.431 60.284C352.17 61.2813 350.63 61.78 348.811 61.78C346.992 61.78 345.438 61.5307 344.147 61.032C342.886 60.5333 342.255 59.7853 342.255 58.788C342.255 57.644 342.827 57.072 343.971 57.072C344.264 57.072 344.91 57.2773 345.907 57.688C346.904 58.0987 347.887 58.304 348.855 58.304C349.852 58.304 350.6 57.996 351.099 57.38C351.627 56.7347 351.891 56.0013 351.891 55.18C351.891 54.3587 351.554 53.772 350.879 53.42C350.204 53.0387 349.178 52.7307 347.799 52.496C346.42 52.2613 345.408 52.012 344.763 51.748C343.003 51.044 342.123 49.4747 342.123 47.04ZM382.481 41.672C382.863 41.672 383.229 41.804 383.581 42.068C383.963 42.332 384.153 42.6253 384.153 42.948C384.153 43.7987 382.907 48.404 380.413 56.764C377.92 65.124 376.072 70.9907 374.869 74.364C374.605 75.156 374.195 75.552 373.637 75.552C373.08 75.552 372.64 75.3467 372.317 74.936C371.995 74.5547 371.833 73.9827 371.833 73.22C371.833 72.4573 372.317 70.624 373.285 67.72C374.283 64.8453 374.884 63.012 375.089 62.22C374.356 60.988 371.877 54.828 367.653 43.74C367.595 43.5933 367.565 43.4027 367.565 43.168C367.565 42.9333 367.741 42.6253 368.093 42.244C368.445 41.8627 368.929 41.672 369.545 41.672C370.161 41.672 370.66 41.98 371.041 42.596C371.452 43.652 372.127 45.5 373.065 48.14C374.004 50.7507 374.723 52.6427 375.221 53.816C375.749 54.9893 376.248 56.2067 376.717 57.468C377.128 56.0893 377.832 53.42 378.829 49.46C379.827 45.4707 380.399 43.1973 380.545 42.64C380.663 41.9947 381.308 41.672 382.481 41.672ZM394.839 41.496C396.951 41.496 398.682 42.508 400.031 44.532C401.41 46.556 402.099 48.9907 402.099 51.836C402.099 54.652 401.395 57.0573 399.987 59.052C398.608 61.0467 396.76 62.044 394.443 62.044C392.155 62.044 390.307 61.032 388.899 59.008C387.491 56.9547 386.787 54.6813 386.787 52.188C386.787 48.9907 387.432 46.4387 388.723 44.532C390.102 42.508 392.14 41.496 394.839 41.496ZM394.311 45.104C393.079 45.104 392.067 45.7493 391.275 47.04C390.483 48.3307 390.087 49.6947 390.087 51.132C390.087 53.3613 390.527 55.0627 391.407 56.236C392.287 57.4093 393.284 57.996 394.399 57.996C396.394 57.996 397.67 57.1307 398.227 55.4C398.462 54.5787 398.579 53.552 398.579 52.32C398.579 47.5093 397.156 45.104 394.311 45.104ZM404.709 43.168C404.826 42.6693 405.076 42.2587 405.457 41.936C405.838 41.584 406.22 41.408 406.601 41.408C407.012 41.408 407.32 41.4813 407.525 41.628C407.76 41.7747 407.892 41.9067 407.921 42.024C407.98 42.1413 408.038 42.3467 408.097 42.64C407.921 44.928 407.833 46.996 407.833 48.844C407.833 50.6627 408.053 52.76 408.493 55.136C408.933 57.4827 409.417 58.656 409.945 58.656C410.737 58.656 411.734 58.216 412.937 57.336C414.169 56.456 415.049 55.532 415.577 54.564C415.225 50.34 415.049 46.7173 415.049 43.696C415.049 43.08 415.24 42.552 415.621 42.112C416.032 41.672 416.516 41.452 417.073 41.452C417.982 41.452 418.437 42.068 418.437 43.3C418.437 45.3827 418.584 48.4773 418.877 52.584C419.2 56.6907 419.522 59.3013 419.845 60.416C419.904 60.6507 419.933 60.9293 419.933 61.252C419.933 61.5453 419.728 61.824 419.317 62.088C418.936 62.3813 418.422 62.528 417.777 62.528C417.161 62.528 416.75 62.176 416.545 61.472C416.486 60.8853 416.34 60.0053 416.105 58.832C414.052 60.9733 411.984 62.044 409.901 62.044C408.933 62.044 408.068 61.6773 407.305 60.944C406.542 60.2107 405.941 59.2133 405.501 57.952C404.738 55.5173 404.357 53.2293 404.357 51.088C404.357 48.9467 404.474 46.3067 404.709 43.168ZM435.063 62.044C434.3 62.044 433.845 61.6187 433.699 60.768C433.699 54.8427 433.347 49.5627 432.643 44.928C432.643 44.3413 432.848 43.8133 433.259 43.344C433.699 42.8747 434.183 42.64 434.711 42.64C435.268 42.64 435.679 42.948 435.943 43.564C437.028 42.1267 438.48 41.408 440.299 41.408C442.616 41.408 444.405 42.5227 445.667 44.752C447.133 42.64 449.069 41.584 451.475 41.584C453.909 41.584 455.728 42.552 456.931 44.488C457.723 45.6907 458.28 47.2747 458.603 49.24C458.925 51.2053 459.087 53.992 459.087 57.6C459.087 59.008 458.94 60.108 458.647 60.9C458.353 61.6627 457.737 62.044 456.799 62.044C456.036 62.044 455.655 61.56 455.655 60.592L455.787 55.092C455.787 48.492 454.071 45.192 450.639 45.192C449.553 45.192 448.791 45.5733 448.351 46.336C447.852 47.2453 447.559 48.1987 447.471 49.196C447.353 50.956 447.295 52.5547 447.295 53.992V60.372C447.295 60.8413 447.06 61.2373 446.591 61.56C446.121 61.8827 445.637 62.044 445.139 62.044C444.493 62.044 444.083 61.6187 443.907 60.768L444.039 51.66C444.039 48.4333 443.496 46.424 442.411 45.632C441.883 45.2507 441.076 45.06 439.991 45.06C438.935 45.06 438.143 45.456 437.615 46.248C437.116 47.04 436.867 48.316 436.867 50.076L437.131 58.26C437.131 60.7827 436.441 62.044 435.063 62.044ZM462.373 43.168C462.49 42.6693 462.74 42.2587 463.121 41.936C463.502 41.584 463.884 41.408 464.265 41.408C464.676 41.408 464.984 41.4813 465.189 41.628C465.424 41.7747 465.556 41.9067 465.585 42.024C465.644 42.1413 465.702 42.3467 465.761 42.64C465.585 44.928 465.497 46.996 465.497 48.844C465.497 50.6627 465.717 52.76 466.157 55.136C466.597 57.4827 467.081 58.656 467.609 58.656C468.401 58.656 469.398 58.216 470.601 57.336C471.833 56.456 472.713 55.532 473.241 54.564C472.889 50.34 472.713 46.7173 472.713 43.696C472.713 43.08 472.904 42.552 473.285 42.112C473.696 41.672 474.18 41.452 474.737 41.452C475.646 41.452 476.101 42.068 476.101 43.3C476.101 45.3827 476.248 48.4773 476.541 52.584C476.864 56.6907 477.186 59.3013 477.509 60.416C477.568 60.6507 477.597 60.9293 477.597 61.252C477.597 61.5453 477.392 61.824 476.981 62.088C476.6 62.3813 476.086 62.528 475.441 62.528C474.825 62.528 474.414 62.176 474.209 61.472C474.15 60.8853 474.004 60.0053 473.769 58.832C471.716 60.9733 469.648 62.044 467.565 62.044C466.597 62.044 465.732 61.6773 464.969 60.944C464.206 60.2107 463.605 59.2133 463.165 57.952C462.402 55.5173 462.021 53.2293 462.021 51.088C462.021 48.9467 462.138 46.3067 462.373 43.168ZM480.826 47.04C480.826 45.3093 481.442 43.9307 482.674 42.904C483.906 41.8773 485.329 41.364 486.942 41.364C488.585 41.364 490.154 41.6573 491.65 42.244C493.146 42.8307 493.894 43.608 493.894 44.576C493.894 45.0747 493.704 45.4707 493.322 45.764C492.941 46.0573 492.604 46.204 492.31 46.204C492.046 46.204 491.826 46.204 491.65 46.204C491.504 46.1747 490.917 45.896 489.89 45.368C488.893 44.84 487.969 44.576 487.118 44.576C486.268 44.576 485.534 44.796 484.918 45.236C484.332 45.6467 484.038 46.2627 484.038 47.084C484.038 47.9053 484.376 48.5507 485.05 49.02C485.754 49.4893 486.972 49.9 488.702 50.252C490.433 50.5747 491.753 51.044 492.662 51.66C493.601 52.276 494.07 53.42 494.07 55.092C494.07 57.5267 493.425 59.2573 492.134 60.284C490.873 61.2813 489.333 61.78 487.514 61.78C485.696 61.78 484.141 61.5307 482.85 61.032C481.589 60.5333 480.958 59.7853 480.958 58.788C480.958 57.644 481.53 57.072 482.674 57.072C482.968 57.072 483.613 57.2773 484.61 57.688C485.608 58.0987 486.59 58.304 487.558 58.304C488.556 58.304 489.304 57.996 489.802 57.38C490.33 56.7347 490.594 56.0013 490.594 55.18C490.594 54.3587 490.257 53.772 489.582 53.42C488.908 53.0387 487.881 52.7307 486.502 52.496C485.124 52.2613 484.112 52.012 483.466 51.748C481.706 51.044 480.826 49.4747 480.826 47.04ZM498.108 41.452L500.308 41.496C500.807 41.496 501.085 41.4813 501.144 41.452V32.432C501.173 31.9333 501.423 31.508 501.892 31.156C502.361 30.804 502.801 30.628 503.212 30.628C503.623 30.628 503.945 30.76 504.18 31.024C504.444 31.288 504.561 31.6987 504.532 32.256C504.503 32.8133 504.488 35.864 504.488 41.408L509.636 41.232C510.516 41.232 510.956 41.7453 510.956 42.772C510.956 43.5347 510.721 44.1067 510.252 44.488C509.812 44.8693 509.328 45.0747 508.8 45.104C508.301 45.1333 507.803 45.148 507.304 45.148L504.62 45.104C504.62 46.3067 504.737 48.6827 504.972 52.232C505.236 55.7813 505.441 58.084 505.588 59.14C505.735 60.1667 505.764 60.8413 505.676 61.164C505.588 61.4573 505.427 61.6627 505.192 61.78C504.811 61.956 504.297 62.044 503.652 62.044C503.007 62.044 502.625 61.692 502.508 60.988C501.921 57.1453 501.525 51.8653 501.32 45.148C501.056 45.1773 500.044 45.192 498.284 45.192C496.524 45.192 495.644 44.6787 495.644 43.652C495.644 42.1853 496.465 41.452 498.108 41.452ZM54.656 79.2C55.1253 78.848 55.5213 78.6573 55.844 78.628C56.196 78.5693 56.9733 78.54 58.176 78.54C59.408 78.54 60.42 78.716 61.212 79.068C62.004 79.42 62.4 80.124 62.4 81.18C62.4 82.236 61.9747 82.764 61.124 82.764C60.948 82.764 60.4493 82.6173 59.628 82.324C58.8067 82.0013 58.2787 81.84 58.044 81.84C57.0173 81.84 56.4013 82.456 56.196 83.688C56.1373 84.128 56.108 85.0373 56.108 86.416C56.108 87.7653 56.108 88.88 56.108 89.76H59.188C60.4787 89.8187 61.124 90.2733 61.124 91.124C61.124 92.356 60.244 93.0013 58.484 93.06C58.22 93.0893 57.8973 93.104 57.516 93.104C57.1347 93.104 56.6947 93.0893 56.196 93.06C56.2547 94.2333 56.3867 96.3307 56.592 99.352C56.7973 102.344 56.9 105.263 56.9 108.108C56.9 108.695 56.6653 109.164 56.196 109.516C55.7267 109.868 55.2427 110.044 54.744 110.044C53.952 110.044 53.556 109.575 53.556 108.636C53.556 105.996 53.4533 103.429 53.248 100.936C53.0427 98.4427 52.896 95.8173 52.808 93.06C50.168 93.06 48.628 92.796 48.188 92.268C48.012 92.0627 47.924 91.7987 47.924 91.476C47.924 90.7133 48.232 90.2147 48.848 89.98C49.4933 89.7453 50.2267 89.628 51.048 89.628C51.8693 89.628 52.456 89.628 52.808 89.628C52.896 84.8467 53.16 81.884 53.6 80.74C53.864 80.036 54.216 79.5227 54.656 79.2ZM64.3965 91.168C64.5138 90.6693 64.7632 90.2587 65.1445 89.936C65.5258 89.584 65.9072 89.408 66.2885 89.408C66.6992 89.408 67.0072 89.4813 67.2125 89.628C67.4472 89.7747 67.5792 89.9067 67.6085 90.024C67.6672 90.1413 67.7258 90.3467 67.7845 90.64C67.6085 92.928 67.5205 94.996 67.5205 96.844C67.5205 98.6627 67.7405 100.76 68.1805 103.136C68.6205 105.483 69.1045 106.656 69.6325 106.656C70.4245 106.656 71.4218 106.216 72.6245 105.336C73.8565 104.456 74.7365 103.532 75.2645 102.564C74.9125 98.34 74.7365 94.7173 74.7365 91.696C74.7365 91.08 74.9272 90.552 75.3085 90.112C75.7192 89.672 76.2032 89.452 76.7605 89.452C77.6698 89.452 78.1245 90.068 78.1245 91.3C78.1245 93.3827 78.2712 96.4773 78.5645 100.584C78.8872 104.691 79.2098 107.301 79.5325 108.416C79.5912 108.651 79.6205 108.929 79.6205 109.252C79.6205 109.545 79.4152 109.824 79.0045 110.088C78.6232 110.381 78.1098 110.528 77.4645 110.528C76.8485 110.528 76.4378 110.176 76.2325 109.472C76.1738 108.885 76.0272 108.005 75.7925 106.832C73.7392 108.973 71.6712 110.044 69.5885 110.044C68.6205 110.044 67.7552 109.677 66.9925 108.944C66.2298 108.211 65.6285 107.213 65.1885 105.952C64.4258 103.517 64.0445 101.229 64.0445 99.088C64.0445 96.9467 64.1618 94.3067 64.3965 91.168ZM98.0737 103.444C99.1004 103.444 99.6137 104.309 99.6137 106.04C99.6137 106.979 99.1004 107.917 98.0737 108.856C97.0764 109.765 95.9764 110.22 94.7737 110.22C92.9844 110.22 91.6644 109.311 90.8137 107.492C90.4324 108.225 89.8164 108.871 88.9657 109.428C88.1444 109.956 87.3084 110.22 86.4577 110.22C85.6364 110.22 84.9177 110.059 84.3017 109.736C83.715 109.384 83.231 108.871 82.8497 108.196C82.4977 107.521 82.2044 106.876 81.9697 106.26C81.7644 105.615 81.603 104.837 81.4857 103.928C81.339 102.461 81.2217 100.115 81.1337 96.888C81.075 93.632 81.0457 90.5373 81.0457 87.604C81.0457 84.6413 81.075 82.6173 81.1337 81.532C81.2217 80.4173 81.3977 79.6987 81.6617 79.376C81.955 79.024 82.395 78.848 82.9817 78.848C84.2724 78.848 84.9177 79.3613 84.9177 80.388C84.9177 81.18 84.8444 83.248 84.6977 86.592C84.5804 89.936 84.5217 92.928 84.5217 95.568C84.5217 98.208 84.6244 100.335 84.8297 101.948C85.1817 104.764 85.6804 106.172 86.3257 106.172C86.971 106.172 87.4697 105.717 87.8217 104.808C87.939 104.456 88.159 104.148 88.4817 103.884C88.8044 103.591 89.215 103.444 89.7137 103.444H89.8017C89.5377 100.863 89.4057 96.844 89.4057 91.388C89.4057 85.9027 89.435 82.6173 89.4937 81.532C89.5817 80.4173 89.7577 79.6987 90.0217 79.376C90.315 79.024 90.755 78.848 91.3417 78.848C92.6324 78.848 93.2777 79.3613 93.2777 80.388C93.2777 81.18 93.2044 83.248 93.0577 86.592C92.9404 89.936 92.8817 92.928 92.8817 95.568C92.8817 98.208 92.9844 100.335 93.1897 101.948C93.5417 104.764 94.0404 106.172 94.6857 106.172C95.331 106.172 95.8297 105.717 96.1817 104.808C96.299 104.456 96.519 104.148 96.8417 103.884C97.1644 103.591 97.575 103.444 98.0737 103.444ZM108.839 89.496C110.951 89.496 112.682 90.508 114.031 92.532C115.41 94.556 116.099 96.9907 116.099 99.836C116.099 102.652 115.395 105.057 113.987 107.052C112.608 109.047 110.76 110.044 108.443 110.044C106.155 110.044 104.307 109.032 102.899 107.008C101.491 104.955 100.787 102.681 100.787 100.188C100.787 96.9907 101.432 94.4387 102.723 92.532C104.102 90.508 106.14 89.496 108.839 89.496ZM108.311 93.104C107.079 93.104 106.067 93.7493 105.275 95.04C104.483 96.3307 104.087 97.6947 104.087 99.132C104.087 101.361 104.527 103.063 105.407 104.236C106.287 105.409 107.284 105.996 108.399 105.996C110.394 105.996 111.67 105.131 112.227 103.4C112.462 102.579 112.579 101.552 112.579 100.32C112.579 95.5093 111.156 93.104 108.311 93.104ZM122.449 109.956C121.452 109.956 120.484 108.02 119.545 104.148C118.636 100.247 118.181 95.876 118.181 91.036C118.181 90.5373 118.386 90.156 118.797 89.892C119.237 89.5987 119.633 89.452 119.985 89.452C120.337 89.452 120.616 89.5693 120.821 89.804C121.056 90.0093 121.173 90.288 121.173 90.64C121.173 95.216 121.95 99.616 123.505 103.84C123.74 103.488 124.106 102.784 124.605 101.728C125.104 100.643 125.573 99.8507 126.013 99.352C126.453 98.8533 126.981 98.604 127.597 98.604C128.213 98.604 128.858 99.0587 129.533 99.968C130.208 100.877 130.78 101.86 131.249 102.916C131.748 103.943 132.026 104.485 132.085 104.544C132.877 102.08 133.273 99.792 133.273 97.68L133.009 90.992C132.98 90.552 133.185 90.1853 133.625 89.892C134.065 89.5693 134.49 89.408 134.901 89.408C135.752 89.408 136.177 91.0653 136.177 94.38V96.8C136.177 100.731 135.576 104.236 134.373 107.316C133.728 109.076 132.921 109.956 131.953 109.956C131.396 109.956 130.882 109.604 130.413 108.9C129.944 108.167 129.416 107.14 128.829 105.82C128.242 104.5 127.788 103.591 127.465 103.092L126.145 105.688C125.646 106.715 125.265 107.463 125.001 107.932C124.737 108.372 124.37 108.827 123.901 109.296C123.432 109.736 122.948 109.956 122.449 109.956ZM152.209 82.192C152.737 82.192 153.235 82.4413 153.705 82.94C154.174 83.4387 154.409 83.9667 154.409 84.524C154.409 85.052 154.145 85.5947 153.617 86.152C153.118 86.7093 152.59 86.988 152.033 86.988C151.475 86.988 150.962 86.7533 150.493 86.284C150.053 85.8147 149.833 85.2133 149.833 84.48C149.833 83.072 150.595 82.3093 152.121 82.192C152.15 82.192 152.179 82.192 152.209 82.192ZM154.057 105.248L154.101 108.328C154.101 108.885 153.881 109.355 153.441 109.736C153.001 110.088 152.531 110.264 152.033 110.264C151.299 110.264 150.918 109.897 150.889 109.164C150.507 99.8067 150.317 94.6293 150.317 93.632C150.317 92.6347 150.361 91.4173 150.449 89.98C150.507 89.452 150.845 89.188 151.461 89.188C153.015 89.188 153.895 89.8187 154.101 91.08C154.189 91.7253 154.233 92.2387 154.233 92.62L154.057 95.392V105.248ZM160.817 108.636L160.333 90.772C160.333 90.2147 160.523 89.76 160.905 89.408C161.286 89.056 161.667 88.88 162.049 88.88C162.987 88.88 163.53 89.276 163.677 90.068C163.794 90.86 163.853 91.6813 163.853 92.532C165.437 90.4493 167.417 89.408 169.793 89.408C173.43 89.408 175.249 93.5587 175.249 101.86C175.249 102.623 175.249 103.781 175.249 105.336C175.249 106.861 175.161 107.976 174.985 108.68C174.779 109.56 174.149 110 173.093 110C172.389 110 172.037 109.531 172.037 108.592L172.081 106.128C172.081 102.725 171.963 100.408 171.729 99.176C171.523 97.9147 171.318 96.9173 171.113 96.184C170.614 94.6 169.807 93.808 168.693 93.808C167.226 93.808 166.199 94.336 165.613 95.392C164.967 96.536 164.586 97.8853 164.469 99.44C164.263 102.168 164.161 105.057 164.161 108.108C164.161 108.695 163.941 109.164 163.501 109.516C163.061 109.868 162.533 110.044 161.917 110.044C161.183 110.044 160.817 109.575 160.817 108.636ZM196.968 89.496C199.08 89.496 200.81 90.508 202.16 92.532C203.538 94.556 204.228 96.9907 204.228 99.836C204.228 102.652 203.524 105.057 202.116 107.052C200.737 109.047 198.889 110.044 196.572 110.044C194.284 110.044 192.436 109.032 191.028 107.008C189.62 104.955 188.916 102.681 188.916 100.188C188.916 96.9907 189.561 94.4387 190.852 92.532C192.23 90.508 194.269 89.496 196.968 89.496ZM196.44 93.104C195.208 93.104 194.196 93.7493 193.404 95.04C192.612 96.3307 192.216 97.6947 192.216 99.132C192.216 101.361 192.656 103.063 193.536 104.236C194.416 105.409 195.413 105.996 196.528 105.996C198.522 105.996 199.798 105.131 200.356 103.4C200.59 102.579 200.708 101.552 200.708 100.32C200.708 95.5093 199.285 93.104 196.44 93.104ZM212.602 103.576L212.646 108.108C212.646 108.636 212.397 109.12 211.898 109.56C211.429 110 210.959 110.22 210.49 110.22C209.815 110.22 209.39 109.692 209.214 108.636C209.185 108.401 209.067 106.26 208.862 102.212C208.657 98.1347 208.261 94.9373 207.674 92.62C207.41 91.5053 207.278 90.8453 207.278 90.64C207.278 89.672 207.865 89.188 209.038 89.188C209.537 89.188 209.933 89.3787 210.226 89.76C210.519 90.1413 210.695 90.5373 210.754 90.948C210.842 91.3293 210.915 91.8573 210.974 92.532C211.033 93.2067 211.077 93.632 211.106 93.808C211.722 92.3413 212.646 91.2413 213.878 90.508C215.11 89.7747 216.459 89.408 217.926 89.408C220.331 89.408 221.534 90.024 221.534 91.256C221.534 91.872 221.314 92.3707 220.874 92.752C220.463 93.104 219.979 93.28 219.422 93.28C216.929 93.28 215.169 94.072 214.142 95.656C213.115 97.24 212.602 99.88 212.602 103.576ZM234.372 89.408L234.328 80.916C234.328 79.332 234.826 78.54 235.824 78.54C236.85 78.54 237.422 78.98 237.54 79.86C237.598 80.2413 237.672 82.544 237.76 86.768C237.848 90.992 237.98 94.952 238.156 98.648C238.361 102.344 238.464 105.791 238.464 108.988C238.464 109.868 237.804 110.308 236.484 110.308C235.604 110.308 235.164 109.692 235.164 108.46C233.902 109.457 232.406 109.956 230.676 109.956C228.476 109.956 226.686 109.135 225.308 107.492C223.958 105.849 223.284 103.825 223.284 101.42C223.284 99.0147 223.768 96.7707 224.736 94.688C225.733 92.576 227.273 91.0653 229.356 90.156C230.646 89.5987 231.893 89.32 233.096 89.32C233.536 89.32 233.961 89.3493 234.372 89.408ZM234.592 95.436C234.386 94.7907 234.137 94.3067 233.844 93.984C233.55 93.632 233.228 93.4267 232.876 93.368C232.553 93.28 232.157 93.236 231.688 93.236C231.218 93.236 230.646 93.412 229.972 93.764C229.297 94.116 228.725 94.688 228.256 95.48C227.317 97.064 226.848 98.736 226.848 100.496C226.848 102.227 227.185 103.649 227.86 104.764C228.564 105.849 229.546 106.392 230.808 106.392C232.098 106.392 233.11 105.761 233.844 104.5C234.577 103.239 234.944 101.625 234.944 99.66C234.944 97.46 234.826 96.052 234.592 95.436ZM247.336 89.628C248.891 89.628 250.372 90.0827 251.78 90.992C253.188 91.9013 253.892 93.0307 253.892 94.38C253.892 95.7 253.32 96.9907 252.176 98.252C251.032 99.484 249.507 100.232 247.6 100.496C246.779 100.613 245.547 100.672 243.904 100.672C244.227 103.165 244.857 104.808 245.796 105.6C246.089 105.923 246.485 106.084 246.984 106.084C248.803 106.084 250.328 105.512 251.56 104.368C252.792 103.195 253.672 102.608 254.2 102.608C254.435 102.608 254.787 102.828 255.256 103.268C255.725 103.708 255.96 104.119 255.96 104.5C255.96 105.263 255.036 106.363 253.188 107.8C252.367 108.475 251.369 109.047 250.196 109.516C249.052 109.956 247.981 110.176 246.984 110.176C244.432 110.176 242.555 108.533 241.352 105.248C240.589 103.224 240.208 100.995 240.208 98.56C240.208 96.1253 240.78 94.028 241.924 92.268C243.068 90.508 244.872 89.628 247.336 89.628ZM247.556 92.664C246.441 92.664 245.488 93.2947 244.696 94.556C244.403 94.996 244.124 95.9933 243.86 97.548C247.967 97.548 250.02 96.536 250.02 94.512C250.02 93.28 249.199 92.664 247.556 92.664ZM264.207 103.576L264.251 108.108C264.251 108.636 264.002 109.12 263.503 109.56C263.034 110 262.565 110.22 262.095 110.22C261.421 110.22 260.995 109.692 260.819 108.636C260.79 108.401 260.673 106.26 260.467 102.212C260.262 98.1347 259.866 94.9373 259.279 92.62C259.015 91.5053 258.883 90.8453 258.883 90.64C258.883 89.672 259.47 89.188 260.643 89.188C261.142 89.188 261.538 89.3787 261.831 89.76C262.125 90.1413 262.301 90.5373 262.359 90.948C262.447 91.3293 262.521 91.8573 262.579 92.532C262.638 93.2067 262.682 93.632 262.711 93.808C263.327 92.3413 264.251 91.2413 265.483 90.508C266.715 89.7747 268.065 89.408 269.531 89.408C271.937 89.408 273.139 90.024 273.139 91.256C273.139 91.872 272.919 92.3707 272.479 92.752C272.069 93.104 271.585 93.28 271.027 93.28C268.534 93.28 266.774 94.072 265.747 95.656C264.721 97.24 264.207 99.88 264.207 103.576ZM286.702 89.452L288.902 89.496C289.4 89.496 289.679 89.4813 289.738 89.452V80.432C289.767 79.9333 290.016 79.508 290.486 79.156C290.955 78.804 291.395 78.628 291.806 78.628C292.216 78.628 292.539 78.76 292.774 79.024C293.038 79.288 293.155 79.6987 293.126 80.256C293.096 80.8133 293.082 83.864 293.082 89.408L298.23 89.232C299.11 89.232 299.55 89.7453 299.55 90.772C299.55 91.5347 299.315 92.1067 298.846 92.488C298.406 92.8693 297.922 93.0747 297.394 93.104C296.895 93.1333 296.396 93.148 295.898 93.148L293.214 93.104C293.214 94.3067 293.331 96.6827 293.566 100.232C293.83 103.781 294.035 106.084 294.182 107.14C294.328 108.167 294.358 108.841 294.27 109.164C294.182 109.457 294.02 109.663 293.786 109.78C293.404 109.956 292.891 110.044 292.246 110.044C291.6 110.044 291.219 109.692 291.102 108.988C290.515 105.145 290.119 99.8653 289.914 93.148C289.65 93.1773 288.638 93.192 286.878 93.192C285.118 93.192 284.238 92.6787 284.238 91.652C284.238 90.1853 285.059 89.452 286.702 89.452ZM308.515 89.496C310.627 89.496 312.357 90.508 313.707 92.532C315.085 94.556 315.775 96.9907 315.775 99.836C315.775 102.652 315.071 105.057 313.663 107.052C312.284 109.047 310.436 110.044 308.119 110.044C305.831 110.044 303.983 109.032 302.575 107.008C301.167 104.955 300.463 102.681 300.463 100.188C300.463 96.9907 301.108 94.4387 302.399 92.532C303.777 90.508 305.816 89.496 308.515 89.496ZM307.987 93.104C306.755 93.104 305.743 93.7493 304.951 95.04C304.159 96.3307 303.763 97.6947 303.763 99.132C303.763 101.361 304.203 103.063 305.083 104.236C305.963 105.409 306.96 105.996 308.075 105.996C310.069 105.996 311.345 105.131 311.903 103.4C312.137 102.579 312.255 101.552 312.255 100.32C312.255 95.5093 310.832 93.104 307.987 93.104ZM343.462 95.744L343.814 106.128C343.814 107.419 343.755 108.167 343.638 108.372C343.579 108.9 343.403 109.311 343.11 109.604C342.846 109.897 342.318 110.044 341.526 110.044C341.145 110.044 340.837 109.809 340.602 109.34C340.367 108.841 340.235 108.284 340.206 107.668C340.001 102.505 339.722 97.6653 339.37 93.148C339.047 88.6013 338.886 84.3773 338.886 80.476C338.886 79.86 339.091 79.376 339.502 79.024C339.913 78.672 340.397 78.496 340.954 78.496C341.775 78.496 342.259 79.2 342.406 80.608C342.582 82.016 342.685 83.776 342.714 85.888C342.773 88 342.831 89.54 342.89 90.508C344.357 89.7453 345.823 89.364 347.29 89.364C350.693 89.364 352.849 90.86 353.758 93.852C354.286 95.5533 354.55 97.7387 354.55 100.408C354.55 101.288 354.462 102.681 354.286 104.588C354.139 106.465 354.051 107.683 354.022 108.24C353.993 108.797 353.743 109.237 353.274 109.56C352.834 109.853 352.35 110 351.822 110C351.001 110 350.59 109.56 350.59 108.68L350.898 101.024C350.898 100.379 350.869 99.308 350.81 97.812C350.751 96.316 350.443 95.128 349.886 94.248C349.358 93.368 348.419 92.928 347.07 92.928C344.665 92.928 343.462 93.8667 343.462 95.744ZM365.019 89.496C367.131 89.496 368.861 90.508 370.211 92.532C371.589 94.556 372.279 96.9907 372.279 99.836C372.279 102.652 371.575 105.057 370.167 107.052C368.788 109.047 366.94 110.044 364.623 110.044C362.335 110.044 360.487 109.032 359.079 107.008C357.671 104.955 356.967 102.681 356.967 100.188C356.967 96.9907 357.612 94.4387 358.903 92.532C360.281 90.508 362.32 89.496 365.019 89.496ZM364.491 93.104C363.259 93.104 362.247 93.7493 361.455 95.04C360.663 96.3307 360.267 97.6947 360.267 99.132C360.267 101.361 360.707 103.063 361.587 104.236C362.467 105.409 363.464 105.996 364.579 105.996C366.573 105.996 367.849 105.131 368.407 103.4C368.641 102.579 368.759 101.552 368.759 100.32C368.759 95.5093 367.336 93.104 364.491 93.104ZM375.725 95.04C375.725 93.3093 376.341 91.9307 377.573 90.904C378.805 89.8773 380.227 89.364 381.841 89.364C383.483 89.364 385.053 89.6573 386.549 90.244C388.045 90.8307 388.793 91.608 388.793 92.576C388.793 93.0747 388.602 93.4707 388.221 93.764C387.839 94.0573 387.502 94.204 387.209 94.204C386.945 94.204 386.725 94.204 386.549 94.204C386.402 94.1747 385.815 93.896 384.789 93.368C383.791 92.84 382.867 92.576 382.017 92.576C381.166 92.576 380.433 92.796 379.817 93.236C379.23 93.6467 378.937 94.2627 378.937 95.084C378.937 95.9053 379.274 96.5507 379.949 97.02C380.653 97.4893 381.87 97.9 383.601 98.252C385.331 98.5747 386.651 99.044 387.561 99.66C388.499 100.276 388.969 101.42 388.969 103.092C388.969 105.527 388.323 107.257 387.033 108.284C385.771 109.281 384.231 109.78 382.413 109.78C380.594 109.78 379.039 109.531 377.749 109.032C376.487 108.533 375.857 107.785 375.857 106.788C375.857 105.644 376.429 105.072 377.573 105.072C377.866 105.072 378.511 105.277 379.509 105.688C380.506 106.099 381.489 106.304 382.457 106.304C383.454 106.304 384.202 105.996 384.701 105.38C385.229 104.735 385.493 104.001 385.493 103.18C385.493 102.359 385.155 101.772 384.481 101.42C383.806 101.039 382.779 100.731 381.401 100.496C380.022 100.261 379.01 100.012 378.365 99.748C376.605 99.044 375.725 97.4747 375.725 95.04ZM393.006 89.452L395.206 89.496C395.705 89.496 395.984 89.4813 396.042 89.452V80.432C396.072 79.9333 396.321 79.508 396.79 79.156C397.26 78.804 397.7 78.628 398.11 78.628C398.521 78.628 398.844 78.76 399.078 79.024C399.342 79.288 399.46 79.6987 399.43 80.256C399.401 80.8133 399.386 83.864 399.386 89.408L404.534 89.232C405.414 89.232 405.854 89.7453 405.854 90.772C405.854 91.5347 405.62 92.1067 405.15 92.488C404.71 92.8693 404.226 93.0747 403.698 93.104C403.2 93.1333 402.701 93.148 402.202 93.148L399.518 93.104C399.518 94.3067 399.636 96.6827 399.87 100.232C400.134 103.781 400.34 106.084 400.486 107.14C400.633 108.167 400.662 108.841 400.574 109.164C400.486 109.457 400.325 109.663 400.09 109.78C399.709 109.956 399.196 110.044 398.55 110.044C397.905 110.044 397.524 109.692 397.406 108.988C396.82 105.145 396.424 99.8653 396.218 93.148C395.954 93.1773 394.942 93.192 393.182 93.192C391.422 93.192 390.542 92.6787 390.542 91.652C390.542 90.1853 391.364 89.452 393.006 89.452ZM429.448 89.452C430.739 89.452 431.384 90.552 431.384 92.752C431.384 92.9867 431.384 93.236 431.384 93.5L431.296 96.58C431.267 97.548 431.252 98.5013 431.252 99.44L431.912 109.384C431.912 110.117 431.164 110.484 429.668 110.484C429.58 110.484 429.36 110.484 429.008 110.484C428.685 110.484 428.451 110.352 428.304 110.088C428.187 109.824 428.172 109.501 428.26 109.12C428.377 108.739 428.348 108.313 428.172 107.844C426.823 109.281 425.033 110 422.804 110C418.668 110 416.6 106.803 416.6 100.408C416.6 96.8587 417.26 94.1747 418.58 92.356C419.929 90.5373 421.851 89.628 424.344 89.628C425.517 89.628 426.691 89.8333 427.864 90.244C428.245 89.716 428.773 89.452 429.448 89.452ZM424.872 93.456C423.2 93.456 421.953 93.94 421.132 94.908C420.311 95.876 419.9 97.6507 419.9 100.232C419.9 104.573 421.073 106.744 423.42 106.744C424.036 106.744 424.711 106.465 425.444 105.908C426.207 105.351 426.735 104.72 427.028 104.016C427.585 102.432 427.864 100.701 427.864 98.824C427.864 96.9467 427.629 95.5827 427.16 94.732C426.72 93.8813 425.957 93.456 424.872 93.456ZM457.171 108.196C456.115 109.428 454.78 110.044 453.167 110.044C451.554 110.044 450.16 109.545 448.987 108.548C446.523 106.641 445.291 103.723 445.291 99.792C445.291 96.712 446.142 94.248 447.843 92.4C449.544 90.5227 451.642 89.584 454.135 89.584C456.628 89.584 458.33 90.4347 459.239 92.136C460.031 93.632 460.427 95.8907 460.427 98.912L460.339 102.52C460.339 104.221 460.412 106.583 460.559 109.604C460.735 112.596 460.823 114.855 460.823 116.38C460.823 118.903 460.192 120.751 458.931 121.924C457.699 123.127 455.807 123.728 453.255 123.728C451.73 123.728 450.175 123.405 448.591 122.76C447.007 122.115 446.215 121.367 446.215 120.516C446.215 119.9 446.376 119.431 446.699 119.108C447.051 118.785 447.447 118.624 447.887 118.624C448.327 118.624 449.31 118.947 450.835 119.592C452.39 120.237 453.504 120.56 454.179 120.56C456.291 120.56 457.347 118.829 457.347 115.368C457.347 111.907 457.288 109.516 457.171 108.196ZM457.127 98.912C457.127 96.7707 456.804 95.2747 456.159 94.424C455.543 93.544 454.56 93.104 453.211 93.104C451.862 93.104 450.776 93.72 449.955 94.952C449.134 96.184 448.723 97.7533 448.723 99.66C448.723 101.537 449.104 103.033 449.867 104.148C450.659 105.263 451.862 105.82 453.475 105.82C455.088 105.82 456.13 105.131 456.599 103.752C456.951 102.637 457.127 101.024 457.127 98.912ZM476.413 89.452C477.704 89.452 478.349 90.552 478.349 92.752C478.349 92.9867 478.349 93.236 478.349 93.5L478.261 96.58C478.232 97.548 478.217 98.5013 478.217 99.44L478.877 109.384C478.877 110.117 478.129 110.484 476.633 110.484C476.545 110.484 476.325 110.484 475.973 110.484C475.65 110.484 475.416 110.352 475.269 110.088C475.152 109.824 475.137 109.501 475.225 109.12C475.342 108.739 475.313 108.313 475.137 107.844C473.788 109.281 471.998 110 469.769 110C465.633 110 463.565 106.803 463.565 100.408C463.565 96.8587 464.225 94.1747 465.545 92.356C466.894 90.5373 468.816 89.628 471.309 89.628C472.482 89.628 473.656 89.8333 474.829 90.244C475.21 89.716 475.738 89.452 476.413 89.452ZM471.837 93.456C470.165 93.456 468.918 93.94 468.097 94.908C467.276 95.876 466.865 97.6507 466.865 100.232C466.865 104.573 468.038 106.744 470.385 106.744C471.001 106.744 471.676 106.465 472.409 105.908C473.172 105.351 473.7 104.72 473.993 104.016C474.55 102.432 474.829 100.701 474.829 98.824C474.829 96.9467 474.594 95.5827 474.125 94.732C473.685 93.8813 472.922 93.456 471.837 93.456ZM483.875 110.044C483.113 110.044 482.658 109.619 482.511 108.768C482.511 102.843 482.159 97.5627 481.455 92.928C481.455 92.3413 481.661 91.8133 482.071 91.344C482.511 90.8747 482.995 90.64 483.523 90.64C484.081 90.64 484.491 90.948 484.755 91.564C485.841 90.1267 487.293 89.408 489.111 89.408C491.429 89.408 493.218 90.5227 494.479 92.752C495.946 90.64 497.882 89.584 500.287 89.584C502.722 89.584 504.541 90.552 505.743 92.488C506.535 93.6907 507.093 95.2747 507.415 97.24C507.738 99.2053 507.899 101.992 507.899 105.6C507.899 107.008 507.753 108.108 507.459 108.9C507.166 109.663 506.55 110.044 505.611 110.044C504.849 110.044 504.467 109.56 504.467 108.592L504.599 103.092C504.599 96.492 502.883 93.192 499.451 93.192C498.366 93.192 497.603 93.5733 497.163 94.336C496.665 95.2453 496.371 96.1987 496.283 97.196C496.166 98.956 496.107 100.555 496.107 101.992V108.372C496.107 108.841 495.873 109.237 495.403 109.56C494.934 109.883 494.45 110.044 493.951 110.044C493.306 110.044 492.895 109.619 492.719 108.768L492.851 99.66C492.851 96.4333 492.309 94.424 491.223 93.632C490.695 93.2507 489.889 93.06 488.803 93.06C487.747 93.06 486.955 93.456 486.427 94.248C485.929 95.04 485.679 96.316 485.679 98.076L485.943 106.26C485.943 108.783 485.254 110.044 483.875 110.044ZM517.61 89.628C519.164 89.628 520.646 90.0827 522.054 90.992C523.462 91.9013 524.166 93.0307 524.166 94.38C524.166 95.7 523.594 96.9907 522.45 98.252C521.306 99.484 519.78 100.232 517.874 100.496C517.052 100.613 515.82 100.672 514.178 100.672C514.5 103.165 515.131 104.808 516.07 105.6C516.363 105.923 516.759 106.084 517.258 106.084C519.076 106.084 520.602 105.512 521.834 104.368C523.066 103.195 523.946 102.608 524.474 102.608C524.708 102.608 525.06 102.828 525.53 103.268C525.999 103.708 526.234 104.119 526.234 104.5C526.234 105.263 525.31 106.363 523.462 107.8C522.64 108.475 521.643 109.047 520.47 109.516C519.326 109.956 518.255 110.176 517.258 110.176C514.706 110.176 512.828 108.533 511.626 105.248C510.863 103.224 510.482 100.995 510.482 98.56C510.482 96.1253 511.054 94.028 512.198 92.268C513.342 90.508 515.146 89.628 517.61 89.628ZM517.83 92.664C516.715 92.664 515.762 93.2947 514.97 94.556C514.676 94.996 514.398 95.9933 514.134 97.548C518.24 97.548 520.294 96.536 520.294 94.512C520.294 93.28 519.472 92.664 517.83 92.664ZM86.843 203.932C86.843 205.369 86.0656 206.088 84.511 206.088C84.1883 206.088 83.8949 205.956 83.631 205.692C83.3963 205.399 83.279 204.959 83.279 204.372L83.1469 193.196C83.1469 189.5 83.191 186.024 83.279 182.768C82.2816 183.648 81.3136 184.66 80.375 185.804C79.4363 186.948 78.7909 187.711 78.4389 188.092C78.1163 188.473 77.6763 188.855 77.1189 189.236C76.5909 189.588 76.0923 189.764 75.6229 189.764C75.1536 189.764 74.7723 189.603 74.4789 189.28C74.2149 188.957 74.0829 188.561 74.0829 188.092C74.0829 187.623 74.4203 186.992 75.0949 186.2C75.7989 185.379 78.3509 182.636 82.7509 177.972C83.4256 177.356 84.2763 177.048 85.303 177.048C85.8016 177.048 86.2123 177.195 86.535 177.488C86.8576 177.781 87.019 178.119 87.019 178.5L86.711 190.336L86.843 203.932ZM93.6313 200.72C94.2767 200.72 94.834 200.955 95.3033 201.424C95.7727 201.893 96.0513 202.539 96.1393 203.36C96.1393 204.005 95.9047 204.607 95.4353 205.164C94.966 205.692 94.4087 205.956 93.7633 205.956C93.1473 205.956 92.59 205.795 92.0913 205.472C91.5927 205.12 91.3433 204.592 91.3433 203.888C91.3433 203.184 91.5633 202.48 92.0033 201.776C92.4727 201.072 93.0153 200.72 93.6313 200.72ZM115.772 206.22C114.775 206.22 114.276 205.795 114.276 204.944C114.276 204.475 114.393 204.005 114.628 203.536C114.863 203.272 115.977 202.04 117.972 199.84C119.996 197.611 121.859 195.44 123.56 193.328C119.571 187.109 117.033 183.047 115.948 181.14C115.801 180.788 115.728 180.407 115.728 179.996C115.728 179.556 115.933 179.116 116.344 178.676C116.784 178.236 117.268 178.016 117.796 178.016C118.353 178.016 118.793 178.265 119.116 178.764C122.049 183.575 124.411 187.373 126.2 190.16C129.251 186.581 132.14 182.592 134.868 178.192C135.367 177.312 136.071 176.872 136.98 176.872C137.332 176.872 137.625 176.989 137.86 177.224C138.124 177.429 138.256 177.693 138.256 178.016C138.256 178.339 138.168 178.749 137.992 179.248C135.792 182.915 132.507 187.505 128.136 193.02C130.659 197.068 132.991 200.339 135.132 202.832C135.367 203.301 135.484 203.741 135.484 204.152C135.484 204.563 135.264 204.988 134.824 205.428C134.413 205.868 133.944 206.088 133.416 206.088C132.888 206.088 132.433 205.941 132.052 205.648C130.732 203.976 128.532 200.808 125.452 196.144C123.487 198.461 120.685 201.644 117.048 205.692C116.579 206.044 116.153 206.22 115.772 206.22ZM142.198 206.22C141.2 206.22 140.702 205.795 140.702 204.944C140.702 204.475 140.819 204.005 141.054 203.536C141.288 203.272 142.403 202.04 144.398 199.84C146.422 197.611 148.284 195.44 149.986 193.328C145.996 187.109 143.459 183.047 142.374 181.14C142.227 180.788 142.154 180.407 142.154 179.996C142.154 179.556 142.359 179.116 142.77 178.676C143.21 178.236 143.694 178.016 144.222 178.016C144.779 178.016 145.219 178.265 145.542 178.764C148.475 183.575 150.836 187.373 152.626 190.16C155.676 186.581 158.566 182.592 161.294 178.192C161.792 177.312 162.496 176.872 163.406 176.872C163.758 176.872 164.051 176.989 164.286 177.224C164.55 177.429 164.682 177.693 164.682 178.016C164.682 178.339 164.594 178.749 164.418 179.248C162.218 182.915 158.932 187.505 154.562 193.02C157.084 197.068 159.416 200.339 161.558 202.832C161.792 203.301 161.91 203.741 161.91 204.152C161.91 204.563 161.69 204.988 161.25 205.428C160.839 205.868 160.37 206.088 159.842 206.088C159.314 206.088 158.859 205.941 158.478 205.648C157.158 203.976 154.958 200.808 151.878 196.144C149.912 198.461 147.111 201.644 143.474 205.692C143.004 206.044 142.579 206.22 142.198 206.22ZM168.624 206.22C167.626 206.22 167.128 205.795 167.128 204.944C167.128 204.475 167.245 204.005 167.48 203.536C167.714 203.272 168.829 202.04 170.824 199.84C172.848 197.611 174.71 195.44 176.412 193.328C172.422 187.109 169.885 183.047 168.8 181.14C168.653 180.788 168.58 180.407 168.58 179.996C168.58 179.556 168.785 179.116 169.196 178.676C169.636 178.236 170.12 178.016 170.648 178.016C171.205 178.016 171.645 178.265 171.968 178.764C174.901 183.575 177.262 187.373 179.052 190.16C182.102 186.581 184.992 182.592 187.72 178.192C188.218 177.312 188.922 176.872 189.832 176.872C190.184 176.872 190.477 176.989 190.712 177.224C190.976 177.429 191.108 177.693 191.108 178.016C191.108 178.339 191.02 178.749 190.844 179.248C188.644 182.915 185.358 187.505 180.988 193.02C183.51 197.068 185.842 200.339 187.984 202.832C188.218 203.301 188.336 203.741 188.336 204.152C188.336 204.563 188.116 204.988 187.676 205.428C187.265 205.868 186.796 206.088 186.268 206.088C185.74 206.088 185.285 205.941 184.904 205.648C183.584 203.976 181.384 200.808 178.304 196.144C176.338 198.461 173.537 201.644 169.9 205.692C169.43 206.044 169.005 206.22 168.624 206.22ZM195.049 206.22C194.052 206.22 193.553 205.795 193.553 204.944C193.553 204.475 193.671 204.005 193.905 203.536C194.14 203.272 195.255 202.04 197.249 199.84C199.273 197.611 201.136 195.44 202.837 193.328C198.848 187.109 196.311 183.047 195.225 181.14C195.079 180.788 195.005 180.407 195.005 179.996C195.005 179.556 195.211 179.116 195.621 178.676C196.061 178.236 196.545 178.016 197.073 178.016C197.631 178.016 198.071 178.265 198.393 178.764C201.327 183.575 203.688 187.373 205.477 190.16C208.528 186.581 211.417 182.592 214.145 178.192C214.644 177.312 215.348 176.872 216.257 176.872C216.609 176.872 216.903 176.989 217.137 177.224C217.401 177.429 217.533 177.693 217.533 178.016C217.533 178.339 217.445 178.749 217.269 179.248C215.069 182.915 211.784 187.505 207.413 193.02C209.936 197.068 212.268 200.339 214.409 202.832C214.644 203.301 214.761 203.741 214.761 204.152C214.761 204.563 214.541 204.988 214.101 205.428C213.691 205.868 213.221 206.088 212.693 206.088C212.165 206.088 211.711 205.941 211.329 205.648C210.009 203.976 207.809 200.808 204.729 196.144C202.764 198.461 199.963 201.644 196.325 205.692C195.856 206.044 195.431 206.22 195.049 206.22ZM221.475 206.22C220.478 206.22 219.979 205.795 219.979 204.944C219.979 204.475 220.096 204.005 220.331 203.536C220.566 203.272 221.68 202.04 223.675 199.84C225.699 197.611 227.562 195.44 229.263 193.328C225.274 187.109 222.736 183.047 221.651 181.14C221.504 180.788 221.431 180.407 221.431 179.996C221.431 179.556 221.636 179.116 222.047 178.676C222.487 178.236 222.971 178.016 223.499 178.016C224.056 178.016 224.496 178.265 224.819 178.764C227.752 183.575 230.114 187.373 231.903 190.16C234.954 186.581 237.843 182.592 240.571 178.192C241.07 177.312 241.774 176.872 242.683 176.872C243.035 176.872 243.328 176.989 243.563 177.224C243.827 177.429 243.959 177.693 243.959 178.016C243.959 178.339 243.871 178.749 243.695 179.248C241.495 182.915 238.21 187.505 233.839 193.02C236.362 197.068 238.694 200.339 240.835 202.832C241.07 203.301 241.187 203.741 241.187 204.152C241.187 204.563 240.967 204.988 240.527 205.428C240.116 205.868 239.647 206.088 239.119 206.088C238.591 206.088 238.136 205.941 237.755 205.648C236.435 203.976 234.235 200.808 231.155 196.144C229.19 198.461 226.388 201.644 222.751 205.692C222.282 206.044 221.856 206.22 221.475 206.22ZM247.901 206.22C246.904 206.22 246.405 205.795 246.405 204.944C246.405 204.475 246.522 204.005 246.757 203.536C246.992 203.272 248.106 202.04 250.101 199.84C252.125 197.611 253.988 195.44 255.689 193.328C251.7 187.109 249.162 183.047 248.077 181.14C247.93 180.788 247.857 180.407 247.857 179.996C247.857 179.556 248.062 179.116 248.473 178.676C248.913 178.236 249.397 178.016 249.925 178.016C250.482 178.016 250.922 178.265 251.245 178.764C254.178 183.575 256.54 187.373 258.329 190.16C261.38 186.581 264.269 182.592 266.997 178.192C267.496 177.312 268.2 176.872 269.109 176.872C269.461 176.872 269.754 176.989 269.989 177.224C270.253 177.429 270.385 177.693 270.385 178.016C270.385 178.339 270.297 178.749 270.121 179.248C267.921 182.915 264.636 187.505 260.265 193.02C262.788 197.068 265.12 200.339 267.261 202.832C267.496 203.301 267.613 203.741 267.613 204.152C267.613 204.563 267.393 204.988 266.953 205.428C266.542 205.868 266.073 206.088 265.545 206.088C265.017 206.088 264.562 205.941 264.181 205.648C262.861 203.976 260.661 200.808 257.581 196.144C255.616 198.461 252.814 201.644 249.177 205.692C248.708 206.044 248.282 206.22 247.901 206.22ZM274.327 206.22C273.329 206.22 272.831 205.795 272.831 204.944C272.831 204.475 272.948 204.005 273.183 203.536C273.417 203.272 274.532 202.04 276.527 199.84C278.551 197.611 280.413 195.44 282.115 193.328C278.125 187.109 275.588 183.047 274.503 181.14C274.356 180.788 274.283 180.407 274.283 179.996C274.283 179.556 274.488 179.116 274.899 178.676C275.339 178.236 275.823 178.016 276.351 178.016C276.908 178.016 277.348 178.265 277.671 178.764C280.604 183.575 282.965 187.373 284.755 190.16C287.805 186.581 290.695 182.592 293.423 178.192C293.921 177.312 294.625 176.872 295.535 176.872C295.887 176.872 296.18 176.989 296.415 177.224C296.679 177.429 296.811 177.693 296.811 178.016C296.811 178.339 296.723 178.749 296.547 179.248C294.347 182.915 291.061 187.505 286.691 193.02C289.213 197.068 291.545 200.339 293.687 202.832C293.921 203.301 294.039 203.741 294.039 204.152C294.039 204.563 293.819 204.988 293.379 205.428C292.968 205.868 292.499 206.088 291.971 206.088C291.443 206.088 290.988 205.941 290.607 205.648C289.287 203.976 287.087 200.808 284.007 196.144C282.041 198.461 279.24 201.644 275.603 205.692C275.133 206.044 274.708 206.22 274.327 206.22ZM300.752 206.22C299.755 206.22 299.256 205.795 299.256 204.944C299.256 204.475 299.374 204.005 299.608 203.536C299.843 203.272 300.958 202.04 302.952 199.84C304.976 197.611 306.839 195.44 308.54 193.328C304.551 187.109 302.014 183.047 300.928 181.14C300.782 180.788 300.708 180.407 300.708 179.996C300.708 179.556 300.914 179.116 301.324 178.676C301.764 178.236 302.248 178.016 302.776 178.016C303.334 178.016 303.774 178.265 304.096 178.764C307.03 183.575 309.391 187.373 311.18 190.16C314.231 186.581 317.12 182.592 319.848 178.192C320.347 177.312 321.051 176.872 321.96 176.872C322.312 176.872 322.606 176.989 322.84 177.224C323.104 177.429 323.236 177.693 323.236 178.016C323.236 178.339 323.148 178.749 322.972 179.248C320.772 182.915 317.487 187.505 313.116 193.02C315.639 197.068 317.971 200.339 320.112 202.832C320.347 203.301 320.464 203.741 320.464 204.152C320.464 204.563 320.244 204.988 319.804 205.428C319.394 205.868 318.924 206.088 318.396 206.088C317.868 206.088 317.414 205.941 317.032 205.648C315.712 203.976 313.512 200.808 310.432 196.144C308.467 198.461 305.666 201.644 302.028 205.692C301.559 206.044 301.134 206.22 300.752 206.22ZM327.178 206.22C326.181 206.22 325.682 205.795 325.682 204.944C325.682 204.475 325.8 204.005 326.034 203.536C326.269 203.272 327.384 202.04 329.378 199.84C331.402 197.611 333.265 195.44 334.966 193.328C330.977 187.109 328.44 183.047 327.354 181.14C327.208 180.788 327.134 180.407 327.134 179.996C327.134 179.556 327.34 179.116 327.75 178.676C328.19 178.236 328.674 178.016 329.202 178.016C329.76 178.016 330.2 178.265 330.522 178.764C333.456 183.575 335.817 187.373 337.606 190.16C340.657 186.581 343.546 182.592 346.274 178.192C346.773 177.312 347.477 176.872 348.386 176.872C348.738 176.872 349.032 176.989 349.266 177.224C349.53 177.429 349.662 177.693 349.662 178.016C349.662 178.339 349.574 178.749 349.398 179.248C347.198 182.915 343.913 187.505 339.542 193.02C342.065 197.068 344.397 200.339 346.538 202.832C346.773 203.301 346.89 203.741 346.89 204.152C346.89 204.563 346.67 204.988 346.23 205.428C345.82 205.868 345.35 206.088 344.822 206.088C344.294 206.088 343.84 205.941 343.458 205.648C342.138 203.976 339.938 200.808 336.858 196.144C334.893 198.461 332.092 201.644 328.454 205.692C327.985 206.044 327.56 206.22 327.178 206.22ZM353.604 206.22C352.607 206.22 352.108 205.795 352.108 204.944C352.108 204.475 352.225 204.005 352.46 203.536C352.695 203.272 353.809 202.04 355.804 199.84C357.828 197.611 359.691 195.44 361.392 193.328C357.403 187.109 354.865 183.047 353.78 181.14C353.633 180.788 353.56 180.407 353.56 179.996C353.56 179.556 353.765 179.116 354.176 178.676C354.616 178.236 355.1 178.016 355.628 178.016C356.185 178.016 356.625 178.265 356.948 178.764C359.881 183.575 362.243 187.373 364.032 190.16C367.083 186.581 369.972 182.592 372.7 178.192C373.199 177.312 373.903 176.872 374.812 176.872C375.164 176.872 375.457 176.989 375.692 177.224C375.956 177.429 376.088 177.693 376.088 178.016C376.088 178.339 376 178.749 375.824 179.248C373.624 182.915 370.339 187.505 365.968 193.02C368.491 197.068 370.823 200.339 372.964 202.832C373.199 203.301 373.316 203.741 373.316 204.152C373.316 204.563 373.096 204.988 372.656 205.428C372.245 205.868 371.776 206.088 371.248 206.088C370.72 206.088 370.265 205.941 369.884 205.648C368.564 203.976 366.364 200.808 363.284 196.144C361.319 198.461 358.517 201.644 354.88 205.692C354.411 206.044 353.985 206.22 353.604 206.22ZM380.03 206.22C379.032 206.22 378.534 205.795 378.534 204.944C378.534 204.475 378.651 204.005 378.886 203.536C379.12 203.272 380.235 202.04 382.23 199.84C384.254 197.611 386.116 195.44 387.818 193.328C383.828 187.109 381.291 183.047 380.206 181.14C380.059 180.788 379.986 180.407 379.986 179.996C379.986 179.556 380.191 179.116 380.602 178.676C381.042 178.236 381.526 178.016 382.054 178.016C382.611 178.016 383.051 178.265 383.374 178.764C386.307 183.575 388.668 187.373 390.458 190.16C393.508 186.581 396.398 182.592 399.126 178.192C399.624 177.312 400.328 176.872 401.238 176.872C401.59 176.872 401.883 176.989 402.118 177.224C402.382 177.429 402.514 177.693 402.514 178.016C402.514 178.339 402.426 178.749 402.25 179.248C400.05 182.915 396.764 187.505 392.394 193.02C394.916 197.068 397.248 200.339 399.39 202.832C399.624 203.301 399.742 203.741 399.742 204.152C399.742 204.563 399.522 204.988 399.082 205.428C398.671 205.868 398.202 206.088 397.674 206.088C397.146 206.088 396.691 205.941 396.31 205.648C394.99 203.976 392.79 200.808 389.71 196.144C387.744 198.461 384.943 201.644 381.306 205.692C380.836 206.044 380.411 206.22 380.03 206.22ZM406.456 206.22C405.458 206.22 404.96 205.795 404.96 204.944C404.96 204.475 405.077 204.005 405.312 203.536C405.546 203.272 406.661 202.04 408.656 199.84C410.68 197.611 412.542 195.44 414.244 193.328C410.254 187.109 407.717 183.047 406.632 181.14C406.485 180.788 406.412 180.407 406.412 179.996C406.412 179.556 406.617 179.116 407.028 178.676C407.468 178.236 407.952 178.016 408.48 178.016C409.037 178.016 409.477 178.265 409.8 178.764C412.733 183.575 415.094 187.373 416.884 190.16C419.934 186.581 422.824 182.592 425.552 178.192C426.05 177.312 426.754 176.872 427.664 176.872C428.016 176.872 428.309 176.989 428.544 177.224C428.808 177.429 428.94 177.693 428.94 178.016C428.94 178.339 428.852 178.749 428.676 179.248C426.476 182.915 423.19 187.505 418.82 193.02C421.342 197.068 423.674 200.339 425.816 202.832C426.05 203.301 426.168 203.741 426.168 204.152C426.168 204.563 425.948 204.988 425.508 205.428C425.097 205.868 424.628 206.088 424.1 206.088C423.572 206.088 423.117 205.941 422.736 205.648C421.416 203.976 419.216 200.808 416.136 196.144C414.17 198.461 411.369 201.644 407.732 205.692C407.262 206.044 406.837 206.22 406.456 206.22ZM432.881 206.22C431.884 206.22 431.385 205.795 431.385 204.944C431.385 204.475 431.503 204.005 431.737 203.536C431.972 203.272 433.087 202.04 435.081 199.84C437.105 197.611 438.968 195.44 440.669 193.328C436.68 187.109 434.143 183.047 433.057 181.14C432.911 180.788 432.837 180.407 432.837 179.996C432.837 179.556 433.043 179.116 433.453 178.676C433.893 178.236 434.377 178.016 434.905 178.016C435.463 178.016 435.903 178.265 436.225 178.764C439.159 183.575 441.52 187.373 443.309 190.16C446.36 186.581 449.249 182.592 451.977 178.192C452.476 177.312 453.18 176.872 454.089 176.872C454.441 176.872 454.735 176.989 454.969 177.224C455.233 177.429 455.365 177.693 455.365 178.016C455.365 178.339 455.277 178.749 455.101 179.248C452.901 182.915 449.616 187.505 445.245 193.02C447.768 197.068 450.1 200.339 452.241 202.832C452.476 203.301 452.593 203.741 452.593 204.152C452.593 204.563 452.373 204.988 451.933 205.428C451.523 205.868 451.053 206.088 450.525 206.088C449.997 206.088 449.543 205.941 449.161 205.648C447.841 203.976 445.641 200.808 442.561 196.144C440.596 198.461 437.795 201.644 434.157 205.692C433.688 206.044 433.263 206.22 432.881 206.22ZM81.2333 254.088L74.7653 254C74.472 254 74.1786 254 73.8853 254C70.9813 254 69.5293 253.443 69.5293 252.328C69.5293 251.536 69.676 250.788 69.9693 250.084C70.2626 249.38 70.5413 248.852 70.8053 248.5C71.0693 248.148 71.5973 247.561 72.3893 246.74C73.1813 245.919 73.7533 245.303 74.1053 244.892C74.4573 244.481 75.5133 243.44 77.2733 241.768C79.0626 240.096 80.3973 238.585 81.2773 237.236C82.1866 235.887 82.6413 234.464 82.6413 232.968C82.6413 230.651 81.7173 229.155 79.8693 228.48C79.3413 228.304 78.7986 228.216 78.2413 228.216C76.98 228.216 75.7186 228.759 74.4573 229.844C73.9586 230.313 73.4306 230.548 72.8733 230.548C72.6973 230.548 72.536 230.533 72.3893 230.504C71.656 230.328 71.2893 229.815 71.2893 228.964C71.2893 227.82 72.096 226.867 73.7093 226.104C75.44 225.283 77.3173 224.872 79.3413 224.872C81.3946 224.872 83.0666 225.62 84.3573 227.116C85.6773 228.583 86.3373 230.416 86.3373 232.616C86.3373 235.755 85.3693 238.453 83.4333 240.712C82.524 241.768 81.6 242.751 80.6613 243.66C77.6986 246.476 75.7186 248.617 74.7213 250.084C76.0413 250.172 77.6693 250.216 79.6053 250.216C81.5706 250.216 83.9906 250.099 86.8653 249.864C87.3053 249.952 87.6573 250.157 87.9213 250.48C88.2146 250.773 88.3613 251.111 88.3613 251.492C88.3613 252.489 87.8333 253.179 86.7773 253.56C85.7213 253.912 83.8733 254.088 81.2333 254.088ZM93.6313 248.72C94.2767 248.72 94.834 248.955 95.3033 249.424C95.7727 249.893 96.0513 250.539 96.1393 251.36C96.1393 252.005 95.9047 252.607 95.4353 253.164C94.966 253.692 94.4087 253.956 93.7633 253.956C93.1473 253.956 92.59 253.795 92.0913 253.472C91.5927 253.12 91.3433 252.592 91.3433 251.888C91.3433 251.184 91.5633 250.48 92.0033 249.776C92.4727 249.072 93.0153 248.72 93.6313 248.72ZM115.772 254.22C114.775 254.22 114.276 253.795 114.276 252.944C114.276 252.475 114.393 252.005 114.628 251.536C114.863 251.272 115.977 250.04 117.972 247.84C119.996 245.611 121.859 243.44 123.56 241.328C119.571 235.109 117.033 231.047 115.948 229.14C115.801 228.788 115.728 228.407 115.728 227.996C115.728 227.556 115.933 227.116 116.344 226.676C116.784 226.236 117.268 226.016 117.796 226.016C118.353 226.016 118.793 226.265 119.116 226.764C122.049 231.575 124.411 235.373 126.2 238.16C129.251 234.581 132.14 230.592 134.868 226.192C135.367 225.312 136.071 224.872 136.98 224.872C137.332 224.872 137.625 224.989 137.86 225.224C138.124 225.429 138.256 225.693 138.256 226.016C138.256 226.339 138.168 226.749 137.992 227.248C135.792 230.915 132.507 235.505 128.136 241.02C130.659 245.068 132.991 248.339 135.132 250.832C135.367 251.301 135.484 251.741 135.484 252.152C135.484 252.563 135.264 252.988 134.824 253.428C134.413 253.868 133.944 254.088 133.416 254.088C132.888 254.088 132.433 253.941 132.052 253.648C130.732 251.976 128.532 248.808 125.452 244.144C123.487 246.461 120.685 249.644 117.048 253.692C116.579 254.044 116.153 254.22 115.772 254.22ZM142.198 254.22C141.2 254.22 140.702 253.795 140.702 252.944C140.702 252.475 140.819 252.005 141.054 251.536C141.288 251.272 142.403 250.04 144.398 247.84C146.422 245.611 148.284 243.44 149.986 241.328C145.996 235.109 143.459 231.047 142.374 229.14C142.227 228.788 142.154 228.407 142.154 227.996C142.154 227.556 142.359 227.116 142.77 226.676C143.21 226.236 143.694 226.016 144.222 226.016C144.779 226.016 145.219 226.265 145.542 226.764C148.475 231.575 150.836 235.373 152.626 238.16C155.676 234.581 158.566 230.592 161.294 226.192C161.792 225.312 162.496 224.872 163.406 224.872C163.758 224.872 164.051 224.989 164.286 225.224C164.55 225.429 164.682 225.693 164.682 226.016C164.682 226.339 164.594 226.749 164.418 227.248C162.218 230.915 158.932 235.505 154.562 241.02C157.084 245.068 159.416 248.339 161.558 250.832C161.792 251.301 161.91 251.741 161.91 252.152C161.91 252.563 161.69 252.988 161.25 253.428C160.839 253.868 160.37 254.088 159.842 254.088C159.314 254.088 158.859 253.941 158.478 253.648C157.158 251.976 154.958 248.808 151.878 244.144C149.912 246.461 147.111 249.644 143.474 253.692C143.004 254.044 142.579 254.22 142.198 254.22ZM168.624 254.22C167.626 254.22 167.128 253.795 167.128 252.944C167.128 252.475 167.245 252.005 167.48 251.536C167.714 251.272 168.829 250.04 170.824 247.84C172.848 245.611 174.71 243.44 176.412 241.328C172.422 235.109 169.885 231.047 168.8 229.14C168.653 228.788 168.58 228.407 168.58 227.996C168.58 227.556 168.785 227.116 169.196 226.676C169.636 226.236 170.12 226.016 170.648 226.016C171.205 226.016 171.645 226.265 171.968 226.764C174.901 231.575 177.262 235.373 179.052 238.16C182.102 234.581 184.992 230.592 187.72 226.192C188.218 225.312 188.922 224.872 189.832 224.872C190.184 224.872 190.477 224.989 190.712 225.224C190.976 225.429 191.108 225.693 191.108 226.016C191.108 226.339 191.02 226.749 190.844 227.248C188.644 230.915 185.358 235.505 180.988 241.02C183.51 245.068 185.842 248.339 187.984 250.832C188.218 251.301 188.336 251.741 188.336 252.152C188.336 252.563 188.116 252.988 187.676 253.428C187.265 253.868 186.796 254.088 186.268 254.088C185.74 254.088 185.285 253.941 184.904 253.648C183.584 251.976 181.384 248.808 178.304 244.144C176.338 246.461 173.537 249.644 169.9 253.692C169.43 254.044 169.005 254.22 168.624 254.22ZM195.049 254.22C194.052 254.22 193.553 253.795 193.553 252.944C193.553 252.475 193.671 252.005 193.905 251.536C194.14 251.272 195.255 250.04 197.249 247.84C199.273 245.611 201.136 243.44 202.837 241.328C198.848 235.109 196.311 231.047 195.225 229.14C195.079 228.788 195.005 228.407 195.005 227.996C195.005 227.556 195.211 227.116 195.621 226.676C196.061 226.236 196.545 226.016 197.073 226.016C197.631 226.016 198.071 226.265 198.393 226.764C201.327 231.575 203.688 235.373 205.477 238.16C208.528 234.581 211.417 230.592 214.145 226.192C214.644 225.312 215.348 224.872 216.257 224.872C216.609 224.872 216.903 224.989 217.137 225.224C217.401 225.429 217.533 225.693 217.533 226.016C217.533 226.339 217.445 226.749 217.269 227.248C215.069 230.915 211.784 235.505 207.413 241.02C209.936 245.068 212.268 248.339 214.409 250.832C214.644 251.301 214.761 251.741 214.761 252.152C214.761 252.563 214.541 252.988 214.101 253.428C213.691 253.868 213.221 254.088 212.693 254.088C212.165 254.088 211.711 253.941 211.329 253.648C210.009 251.976 207.809 248.808 204.729 244.144C202.764 246.461 199.963 249.644 196.325 253.692C195.856 254.044 195.431 254.22 195.049 254.22ZM221.475 254.22C220.478 254.22 219.979 253.795 219.979 252.944C219.979 252.475 220.096 252.005 220.331 251.536C220.566 251.272 221.68 250.04 223.675 247.84C225.699 245.611 227.562 243.44 229.263 241.328C225.274 235.109 222.736 231.047 221.651 229.14C221.504 228.788 221.431 228.407 221.431 227.996C221.431 227.556 221.636 227.116 222.047 226.676C222.487 226.236 222.971 226.016 223.499 226.016C224.056 226.016 224.496 226.265 224.819 226.764C227.752 231.575 230.114 235.373 231.903 238.16C234.954 234.581 237.843 230.592 240.571 226.192C241.07 225.312 241.774 224.872 242.683 224.872C243.035 224.872 243.328 224.989 243.563 225.224C243.827 225.429 243.959 225.693 243.959 226.016C243.959 226.339 243.871 226.749 243.695 227.248C241.495 230.915 238.21 235.505 233.839 241.02C236.362 245.068 238.694 248.339 240.835 250.832C241.07 251.301 241.187 251.741 241.187 252.152C241.187 252.563 240.967 252.988 240.527 253.428C240.116 253.868 239.647 254.088 239.119 254.088C238.591 254.088 238.136 253.941 237.755 253.648C236.435 251.976 234.235 248.808 231.155 244.144C229.19 246.461 226.388 249.644 222.751 253.692C222.282 254.044 221.856 254.22 221.475 254.22ZM247.901 254.22C246.904 254.22 246.405 253.795 246.405 252.944C246.405 252.475 246.522 252.005 246.757 251.536C246.992 251.272 248.106 250.04 250.101 247.84C252.125 245.611 253.988 243.44 255.689 241.328C251.7 235.109 249.162 231.047 248.077 229.14C247.93 228.788 247.857 228.407 247.857 227.996C247.857 227.556 248.062 227.116 248.473 226.676C248.913 226.236 249.397 226.016 249.925 226.016C250.482 226.016 250.922 226.265 251.245 226.764C254.178 231.575 256.54 235.373 258.329 238.16C261.38 234.581 264.269 230.592 266.997 226.192C267.496 225.312 268.2 224.872 269.109 224.872C269.461 224.872 269.754 224.989 269.989 225.224C270.253 225.429 270.385 225.693 270.385 226.016C270.385 226.339 270.297 226.749 270.121 227.248C267.921 230.915 264.636 235.505 260.265 241.02C262.788 245.068 265.12 248.339 267.261 250.832C267.496 251.301 267.613 251.741 267.613 252.152C267.613 252.563 267.393 252.988 266.953 253.428C266.542 253.868 266.073 254.088 265.545 254.088C265.017 254.088 264.562 253.941 264.181 253.648C262.861 251.976 260.661 248.808 257.581 244.144C255.616 246.461 252.814 249.644 249.177 253.692C248.708 254.044 248.282 254.22 247.901 254.22ZM274.327 254.22C273.329 254.22 272.831 253.795 272.831 252.944C272.831 252.475 272.948 252.005 273.183 251.536C273.417 251.272 274.532 250.04 276.527 247.84C278.551 245.611 280.413 243.44 282.115 241.328C278.125 235.109 275.588 231.047 274.503 229.14C274.356 228.788 274.283 228.407 274.283 227.996C274.283 227.556 274.488 227.116 274.899 226.676C275.339 226.236 275.823 226.016 276.351 226.016C276.908 226.016 277.348 226.265 277.671 226.764C280.604 231.575 282.965 235.373 284.755 238.16C287.805 234.581 290.695 230.592 293.423 226.192C293.921 225.312 294.625 224.872 295.535 224.872C295.887 224.872 296.18 224.989 296.415 225.224C296.679 225.429 296.811 225.693 296.811 226.016C296.811 226.339 296.723 226.749 296.547 227.248C294.347 230.915 291.061 235.505 286.691 241.02C289.213 245.068 291.545 248.339 293.687 250.832C293.921 251.301 294.039 251.741 294.039 252.152C294.039 252.563 293.819 252.988 293.379 253.428C292.968 253.868 292.499 254.088 291.971 254.088C291.443 254.088 290.988 253.941 290.607 253.648C289.287 251.976 287.087 248.808 284.007 244.144C282.041 246.461 279.24 249.644 275.603 253.692C275.133 254.044 274.708 254.22 274.327 254.22ZM300.752 254.22C299.755 254.22 299.256 253.795 299.256 252.944C299.256 252.475 299.374 252.005 299.608 251.536C299.843 251.272 300.958 250.04 302.952 247.84C304.976 245.611 306.839 243.44 308.54 241.328C304.551 235.109 302.014 231.047 300.928 229.14C300.782 228.788 300.708 228.407 300.708 227.996C300.708 227.556 300.914 227.116 301.324 226.676C301.764 226.236 302.248 226.016 302.776 226.016C303.334 226.016 303.774 226.265 304.096 226.764C307.03 231.575 309.391 235.373 311.18 238.16C314.231 234.581 317.12 230.592 319.848 226.192C320.347 225.312 321.051 224.872 321.96 224.872C322.312 224.872 322.606 224.989 322.84 225.224C323.104 225.429 323.236 225.693 323.236 226.016C323.236 226.339 323.148 226.749 322.972 227.248C320.772 230.915 317.487 235.505 313.116 241.02C315.639 245.068 317.971 248.339 320.112 250.832C320.347 251.301 320.464 251.741 320.464 252.152C320.464 252.563 320.244 252.988 319.804 253.428C319.394 253.868 318.924 254.088 318.396 254.088C317.868 254.088 317.414 253.941 317.032 253.648C315.712 251.976 313.512 248.808 310.432 244.144C308.467 246.461 305.666 249.644 302.028 253.692C301.559 254.044 301.134 254.22 300.752 254.22ZM327.178 254.22C326.181 254.22 325.682 253.795 325.682 252.944C325.682 252.475 325.8 252.005 326.034 251.536C326.269 251.272 327.384 250.04 329.378 247.84C331.402 245.611 333.265 243.44 334.966 241.328C330.977 235.109 328.44 231.047 327.354 229.14C327.208 228.788 327.134 228.407 327.134 227.996C327.134 227.556 327.34 227.116 327.75 226.676C328.19 226.236 328.674 226.016 329.202 226.016C329.76 226.016 330.2 226.265 330.522 226.764C333.456 231.575 335.817 235.373 337.606 238.16C340.657 234.581 343.546 230.592 346.274 226.192C346.773 225.312 347.477 224.872 348.386 224.872C348.738 224.872 349.032 224.989 349.266 225.224C349.53 225.429 349.662 225.693 349.662 226.016C349.662 226.339 349.574 226.749 349.398 227.248C347.198 230.915 343.913 235.505 339.542 241.02C342.065 245.068 344.397 248.339 346.538 250.832C346.773 251.301 346.89 251.741 346.89 252.152C346.89 252.563 346.67 252.988 346.23 253.428C345.82 253.868 345.35 254.088 344.822 254.088C344.294 254.088 343.84 253.941 343.458 253.648C342.138 251.976 339.938 248.808 336.858 244.144C334.893 246.461 332.092 249.644 328.454 253.692C327.985 254.044 327.56 254.22 327.178 254.22ZM353.604 254.22C352.607 254.22 352.108 253.795 352.108 252.944C352.108 252.475 352.225 252.005 352.46 251.536C352.695 251.272 353.809 250.04 355.804 247.84C357.828 245.611 359.691 243.44 361.392 241.328C357.403 235.109 354.865 231.047 353.78 229.14C353.633 228.788 353.56 228.407 353.56 227.996C353.56 227.556 353.765 227.116 354.176 226.676C354.616 226.236 355.1 226.016 355.628 226.016C356.185 226.016 356.625 226.265 356.948 226.764C359.881 231.575 362.243 235.373 364.032 238.16C367.083 234.581 369.972 230.592 372.7 226.192C373.199 225.312 373.903 224.872 374.812 224.872C375.164 224.872 375.457 224.989 375.692 225.224C375.956 225.429 376.088 225.693 376.088 226.016C376.088 226.339 376 226.749 375.824 227.248C373.624 230.915 370.339 235.505 365.968 241.02C368.491 245.068 370.823 248.339 372.964 250.832C373.199 251.301 373.316 251.741 373.316 252.152C373.316 252.563 373.096 252.988 372.656 253.428C372.245 253.868 371.776 254.088 371.248 254.088C370.72 254.088 370.265 253.941 369.884 253.648C368.564 251.976 366.364 248.808 363.284 244.144C361.319 246.461 358.517 249.644 354.88 253.692C354.411 254.044 353.985 254.22 353.604 254.22ZM380.03 254.22C379.032 254.22 378.534 253.795 378.534 252.944C378.534 252.475 378.651 252.005 378.886 251.536C379.12 251.272 380.235 250.04 382.23 247.84C384.254 245.611 386.116 243.44 387.818 241.328C383.828 235.109 381.291 231.047 380.206 229.14C380.059 228.788 379.986 228.407 379.986 227.996C379.986 227.556 380.191 227.116 380.602 226.676C381.042 226.236 381.526 226.016 382.054 226.016C382.611 226.016 383.051 226.265 383.374 226.764C386.307 231.575 388.668 235.373 390.458 238.16C393.508 234.581 396.398 230.592 399.126 226.192C399.624 225.312 400.328 224.872 401.238 224.872C401.59 224.872 401.883 224.989 402.118 225.224C402.382 225.429 402.514 225.693 402.514 226.016C402.514 226.339 402.426 226.749 402.25 227.248C400.05 230.915 396.764 235.505 392.394 241.02C394.916 245.068 397.248 248.339 399.39 250.832C399.624 251.301 399.742 251.741 399.742 252.152C399.742 252.563 399.522 252.988 399.082 253.428C398.671 253.868 398.202 254.088 397.674 254.088C397.146 254.088 396.691 253.941 396.31 253.648C394.99 251.976 392.79 248.808 389.71 244.144C387.744 246.461 384.943 249.644 381.306 253.692C380.836 254.044 380.411 254.22 380.03 254.22ZM406.456 254.22C405.458 254.22 404.96 253.795 404.96 252.944C404.96 252.475 405.077 252.005 405.312 251.536C405.546 251.272 406.661 250.04 408.656 247.84C410.68 245.611 412.542 243.44 414.244 241.328C410.254 235.109 407.717 231.047 406.632 229.14C406.485 228.788 406.412 228.407 406.412 227.996C406.412 227.556 406.617 227.116 407.028 226.676C407.468 226.236 407.952 226.016 408.48 226.016C409.037 226.016 409.477 226.265 409.8 226.764C412.733 231.575 415.094 235.373 416.884 238.16C419.934 234.581 422.824 230.592 425.552 226.192C426.05 225.312 426.754 224.872 427.664 224.872C428.016 224.872 428.309 224.989 428.544 225.224C428.808 225.429 428.94 225.693 428.94 226.016C428.94 226.339 428.852 226.749 428.676 227.248C426.476 230.915 423.19 235.505 418.82 241.02C421.342 245.068 423.674 248.339 425.816 250.832C426.05 251.301 426.168 251.741 426.168 252.152C426.168 252.563 425.948 252.988 425.508 253.428C425.097 253.868 424.628 254.088 424.1 254.088C423.572 254.088 423.117 253.941 422.736 253.648C421.416 251.976 419.216 248.808 416.136 244.144C414.17 246.461 411.369 249.644 407.732 253.692C407.262 254.044 406.837 254.22 406.456 254.22ZM432.881 254.22C431.884 254.22 431.385 253.795 431.385 252.944C431.385 252.475 431.503 252.005 431.737 251.536C431.972 251.272 433.087 250.04 435.081 247.84C437.105 245.611 438.968 243.44 440.669 241.328C436.68 235.109 434.143 231.047 433.057 229.14C432.911 228.788 432.837 228.407 432.837 227.996C432.837 227.556 433.043 227.116 433.453 226.676C433.893 226.236 434.377 226.016 434.905 226.016C435.463 226.016 435.903 226.265 436.225 226.764C439.159 231.575 441.52 235.373 443.309 238.16C446.36 234.581 449.249 230.592 451.977 226.192C452.476 225.312 453.18 224.872 454.089 224.872C454.441 224.872 454.735 224.989 454.969 225.224C455.233 225.429 455.365 225.693 455.365 226.016C455.365 226.339 455.277 226.749 455.101 227.248C452.901 230.915 449.616 235.505 445.245 241.02C447.768 245.068 450.1 248.339 452.241 250.832C452.476 251.301 452.593 251.741 452.593 252.152C452.593 252.563 452.373 252.988 451.933 253.428C451.523 253.868 451.053 254.088 450.525 254.088C449.997 254.088 449.543 253.941 449.161 253.648C447.841 251.976 445.641 248.808 442.561 244.144C440.596 246.461 437.795 249.644 434.157 253.692C433.688 254.044 433.263 254.22 432.881 254.22ZM78.7927 276.304C77.062 276.304 75.4487 277.052 73.9527 278.548C73.542 278.841 73.1753 278.988 72.8527 278.988C72.53 278.988 72.2513 278.959 72.0167 278.9C71.342 278.695 71.0047 278.225 71.0047 277.492C71.0047 276.289 71.7673 275.233 73.2927 274.324C74.818 273.415 76.622 272.96 78.7047 272.96C80.7873 272.96 82.518 273.517 83.8967 274.632C85.3047 275.717 86.0087 277.14 86.0087 278.9C86.0087 280.66 85.8033 282.127 85.3927 283.3C85.0113 284.473 84.1607 285.441 82.8407 286.204C85.95 287.377 87.5047 289.489 87.5047 292.54C87.5047 295.121 86.7273 297.351 85.1727 299.228C83.618 301.076 81.7113 302 79.4527 302C77.2233 302 75.258 301.472 73.5567 300.416C71.8553 299.331 71.0047 298.113 71.0047 296.764C71.0047 296.5 71.1513 296.192 71.4447 295.84C71.738 295.488 72.1633 295.312 72.7207 295.312C73.278 295.312 73.8793 295.576 74.5247 296.104C75.17 296.603 75.9033 297.116 76.7247 297.644C77.546 298.143 78.47 298.392 79.4967 298.392C82.43 298.392 83.8967 296.559 83.8967 292.892C83.8967 291.484 83.3833 290.355 82.3567 289.504C81.3593 288.624 79.9367 288.169 78.0887 288.14C77.7073 288.111 77.414 288.081 77.2087 288.052C77.0327 288.023 76.7833 287.891 76.4607 287.656C76.1673 287.421 76.0207 287.055 76.0207 286.556C76.0207 285.5 76.6073 284.928 77.7807 284.84C78.954 284.752 79.9953 284.224 80.9047 283.256C81.8433 282.288 82.3127 281.071 82.3127 279.604C82.3127 278.783 81.9607 278.035 81.2567 277.36C80.5527 276.656 79.7313 276.304 78.7927 276.304ZM93.6313 296.72C94.2767 296.72 94.834 296.955 95.3033 297.424C95.7727 297.893 96.0513 298.539 96.1393 299.36C96.1393 300.005 95.9047 300.607 95.4353 301.164C94.966 301.692 94.4087 301.956 93.7633 301.956C93.1473 301.956 92.59 301.795 92.0913 301.472C91.5927 301.12 91.3433 300.592 91.3433 299.888C91.3433 299.184 91.5633 298.48 92.0033 297.776C92.4727 297.072 93.0153 296.72 93.6313 296.72ZM115.772 302.22C114.775 302.22 114.276 301.795 114.276 300.944C114.276 300.475 114.393 300.005 114.628 299.536C114.863 299.272 115.977 298.04 117.972 295.84C119.996 293.611 121.859 291.44 123.56 289.328C119.571 283.109 117.033 279.047 115.948 277.14C115.801 276.788 115.728 276.407 115.728 275.996C115.728 275.556 115.933 275.116 116.344 274.676C116.784 274.236 117.268 274.016 117.796 274.016C118.353 274.016 118.793 274.265 119.116 274.764C122.049 279.575 124.411 283.373 126.2 286.16C129.251 282.581 132.14 278.592 134.868 274.192C135.367 273.312 136.071 272.872 136.98 272.872C137.332 272.872 137.625 272.989 137.86 273.224C138.124 273.429 138.256 273.693 138.256 274.016C138.256 274.339 138.168 274.749 137.992 275.248C135.792 278.915 132.507 283.505 128.136 289.02C130.659 293.068 132.991 296.339 135.132 298.832C135.367 299.301 135.484 299.741 135.484 300.152C135.484 300.563 135.264 300.988 134.824 301.428C134.413 301.868 133.944 302.088 133.416 302.088C132.888 302.088 132.433 301.941 132.052 301.648C130.732 299.976 128.532 296.808 125.452 292.144C123.487 294.461 120.685 297.644 117.048 301.692C116.579 302.044 116.153 302.22 115.772 302.22ZM142.198 302.22C141.2 302.22 140.702 301.795 140.702 300.944C140.702 300.475 140.819 300.005 141.054 299.536C141.288 299.272 142.403 298.04 144.398 295.84C146.422 293.611 148.284 291.44 149.986 289.328C145.996 283.109 143.459 279.047 142.374 277.14C142.227 276.788 142.154 276.407 142.154 275.996C142.154 275.556 142.359 275.116 142.77 274.676C143.21 274.236 143.694 274.016 144.222 274.016C144.779 274.016 145.219 274.265 145.542 274.764C148.475 279.575 150.836 283.373 152.626 286.16C155.676 282.581 158.566 278.592 161.294 274.192C161.792 273.312 162.496 272.872 163.406 272.872C163.758 272.872 164.051 272.989 164.286 273.224C164.55 273.429 164.682 273.693 164.682 274.016C164.682 274.339 164.594 274.749 164.418 275.248C162.218 278.915 158.932 283.505 154.562 289.02C157.084 293.068 159.416 296.339 161.558 298.832C161.792 299.301 161.91 299.741 161.91 300.152C161.91 300.563 161.69 300.988 161.25 301.428C160.839 301.868 160.37 302.088 159.842 302.088C159.314 302.088 158.859 301.941 158.478 301.648C157.158 299.976 154.958 296.808 151.878 292.144C149.912 294.461 147.111 297.644 143.474 301.692C143.004 302.044 142.579 302.22 142.198 302.22ZM168.624 302.22C167.626 302.22 167.128 301.795 167.128 300.944C167.128 300.475 167.245 300.005 167.48 299.536C167.714 299.272 168.829 298.04 170.824 295.84C172.848 293.611 174.71 291.44 176.412 289.328C172.422 283.109 169.885 279.047 168.8 277.14C168.653 276.788 168.58 276.407 168.58 275.996C168.58 275.556 168.785 275.116 169.196 274.676C169.636 274.236 170.12 274.016 170.648 274.016C171.205 274.016 171.645 274.265 171.968 274.764C174.901 279.575 177.262 283.373 179.052 286.16C182.102 282.581 184.992 278.592 187.72 274.192C188.218 273.312 188.922 272.872 189.832 272.872C190.184 272.872 190.477 272.989 190.712 273.224C190.976 273.429 191.108 273.693 191.108 274.016C191.108 274.339 191.02 274.749 190.844 275.248C188.644 278.915 185.358 283.505 180.988 289.02C183.51 293.068 185.842 296.339 187.984 298.832C188.218 299.301 188.336 299.741 188.336 300.152C188.336 300.563 188.116 300.988 187.676 301.428C187.265 301.868 186.796 302.088 186.268 302.088C185.74 302.088 185.285 301.941 184.904 301.648C183.584 299.976 181.384 296.808 178.304 292.144C176.338 294.461 173.537 297.644 169.9 301.692C169.43 302.044 169.005 302.22 168.624 302.22ZM195.049 302.22C194.052 302.22 193.553 301.795 193.553 300.944C193.553 300.475 193.671 300.005 193.905 299.536C194.14 299.272 195.255 298.04 197.249 295.84C199.273 293.611 201.136 291.44 202.837 289.328C198.848 283.109 196.311 279.047 195.225 277.14C195.079 276.788 195.005 276.407 195.005 275.996C195.005 275.556 195.211 275.116 195.621 274.676C196.061 274.236 196.545 274.016 197.073 274.016C197.631 274.016 198.071 274.265 198.393 274.764C201.327 279.575 203.688 283.373 205.477 286.16C208.528 282.581 211.417 278.592 214.145 274.192C214.644 273.312 215.348 272.872 216.257 272.872C216.609 272.872 216.903 272.989 217.137 273.224C217.401 273.429 217.533 273.693 217.533 274.016C217.533 274.339 217.445 274.749 217.269 275.248C215.069 278.915 211.784 283.505 207.413 289.02C209.936 293.068 212.268 296.339 214.409 298.832C214.644 299.301 214.761 299.741 214.761 300.152C214.761 300.563 214.541 300.988 214.101 301.428C213.691 301.868 213.221 302.088 212.693 302.088C212.165 302.088 211.711 301.941 211.329 301.648C210.009 299.976 207.809 296.808 204.729 292.144C202.764 294.461 199.963 297.644 196.325 301.692C195.856 302.044 195.431 302.22 195.049 302.22ZM221.475 302.22C220.478 302.22 219.979 301.795 219.979 300.944C219.979 300.475 220.096 300.005 220.331 299.536C220.566 299.272 221.68 298.04 223.675 295.84C225.699 293.611 227.562 291.44 229.263 289.328C225.274 283.109 222.736 279.047 221.651 277.14C221.504 276.788 221.431 276.407 221.431 275.996C221.431 275.556 221.636 275.116 222.047 274.676C222.487 274.236 222.971 274.016 223.499 274.016C224.056 274.016 224.496 274.265 224.819 274.764C227.752 279.575 230.114 283.373 231.903 286.16C234.954 282.581 237.843 278.592 240.571 274.192C241.07 273.312 241.774 272.872 242.683 272.872C243.035 272.872 243.328 272.989 243.563 273.224C243.827 273.429 243.959 273.693 243.959 274.016C243.959 274.339 243.871 274.749 243.695 275.248C241.495 278.915 238.21 283.505 233.839 289.02C236.362 293.068 238.694 296.339 240.835 298.832C241.07 299.301 241.187 299.741 241.187 300.152C241.187 300.563 240.967 300.988 240.527 301.428C240.116 301.868 239.647 302.088 239.119 302.088C238.591 302.088 238.136 301.941 237.755 301.648C236.435 299.976 234.235 296.808 231.155 292.144C229.19 294.461 226.388 297.644 222.751 301.692C222.282 302.044 221.856 302.22 221.475 302.22ZM247.901 302.22C246.904 302.22 246.405 301.795 246.405 300.944C246.405 300.475 246.522 300.005 246.757 299.536C246.992 299.272 248.106 298.04 250.101 295.84C252.125 293.611 253.988 291.44 255.689 289.328C251.7 283.109 249.162 279.047 248.077 277.14C247.93 276.788 247.857 276.407 247.857 275.996C247.857 275.556 248.062 275.116 248.473 274.676C248.913 274.236 249.397 274.016 249.925 274.016C250.482 274.016 250.922 274.265 251.245 274.764C254.178 279.575 256.54 283.373 258.329 286.16C261.38 282.581 264.269 278.592 266.997 274.192C267.496 273.312 268.2 272.872 269.109 272.872C269.461 272.872 269.754 272.989 269.989 273.224C270.253 273.429 270.385 273.693 270.385 274.016C270.385 274.339 270.297 274.749 270.121 275.248C267.921 278.915 264.636 283.505 260.265 289.02C262.788 293.068 265.12 296.339 267.261 298.832C267.496 299.301 267.613 299.741 267.613 300.152C267.613 300.563 267.393 300.988 266.953 301.428C266.542 301.868 266.073 302.088 265.545 302.088C265.017 302.088 264.562 301.941 264.181 301.648C262.861 299.976 260.661 296.808 257.581 292.144C255.616 294.461 252.814 297.644 249.177 301.692C248.708 302.044 248.282 302.22 247.901 302.22ZM274.327 302.22C273.329 302.22 272.831 301.795 272.831 300.944C272.831 300.475 272.948 300.005 273.183 299.536C273.417 299.272 274.532 298.04 276.527 295.84C278.551 293.611 280.413 291.44 282.115 289.328C278.125 283.109 275.588 279.047 274.503 277.14C274.356 276.788 274.283 276.407 274.283 275.996C274.283 275.556 274.488 275.116 274.899 274.676C275.339 274.236 275.823 274.016 276.351 274.016C276.908 274.016 277.348 274.265 277.671 274.764C280.604 279.575 282.965 283.373 284.755 286.16C287.805 282.581 290.695 278.592 293.423 274.192C293.921 273.312 294.625 272.872 295.535 272.872C295.887 272.872 296.18 272.989 296.415 273.224C296.679 273.429 296.811 273.693 296.811 274.016C296.811 274.339 296.723 274.749 296.547 275.248C294.347 278.915 291.061 283.505 286.691 289.02C289.213 293.068 291.545 296.339 293.687 298.832C293.921 299.301 294.039 299.741 294.039 300.152C294.039 300.563 293.819 300.988 293.379 301.428C292.968 301.868 292.499 302.088 291.971 302.088C291.443 302.088 290.988 301.941 290.607 301.648C289.287 299.976 287.087 296.808 284.007 292.144C282.041 294.461 279.24 297.644 275.603 301.692C275.133 302.044 274.708 302.22 274.327 302.22ZM300.752 302.22C299.755 302.22 299.256 301.795 299.256 300.944C299.256 300.475 299.374 300.005 299.608 299.536C299.843 299.272 300.958 298.04 302.952 295.84C304.976 293.611 306.839 291.44 308.54 289.328C304.551 283.109 302.014 279.047 300.928 277.14C300.782 276.788 300.708 276.407 300.708 275.996C300.708 275.556 300.914 275.116 301.324 274.676C301.764 274.236 302.248 274.016 302.776 274.016C303.334 274.016 303.774 274.265 304.096 274.764C307.03 279.575 309.391 283.373 311.18 286.16C314.231 282.581 317.12 278.592 319.848 274.192C320.347 273.312 321.051 272.872 321.96 272.872C322.312 272.872 322.606 272.989 322.84 273.224C323.104 273.429 323.236 273.693 323.236 274.016C323.236 274.339 323.148 274.749 322.972 275.248C320.772 278.915 317.487 283.505 313.116 289.02C315.639 293.068 317.971 296.339 320.112 298.832C320.347 299.301 320.464 299.741 320.464 300.152C320.464 300.563 320.244 300.988 319.804 301.428C319.394 301.868 318.924 302.088 318.396 302.088C317.868 302.088 317.414 301.941 317.032 301.648C315.712 299.976 313.512 296.808 310.432 292.144C308.467 294.461 305.666 297.644 302.028 301.692C301.559 302.044 301.134 302.22 300.752 302.22ZM327.178 302.22C326.181 302.22 325.682 301.795 325.682 300.944C325.682 300.475 325.8 300.005 326.034 299.536C326.269 299.272 327.384 298.04 329.378 295.84C331.402 293.611 333.265 291.44 334.966 289.328C330.977 283.109 328.44 279.047 327.354 277.14C327.208 276.788 327.134 276.407 327.134 275.996C327.134 275.556 327.34 275.116 327.75 274.676C328.19 274.236 328.674 274.016 329.202 274.016C329.76 274.016 330.2 274.265 330.522 274.764C333.456 279.575 335.817 283.373 337.606 286.16C340.657 282.581 343.546 278.592 346.274 274.192C346.773 273.312 347.477 272.872 348.386 272.872C348.738 272.872 349.032 272.989 349.266 273.224C349.53 273.429 349.662 273.693 349.662 274.016C349.662 274.339 349.574 274.749 349.398 275.248C347.198 278.915 343.913 283.505 339.542 289.02C342.065 293.068 344.397 296.339 346.538 298.832C346.773 299.301 346.89 299.741 346.89 300.152C346.89 300.563 346.67 300.988 346.23 301.428C345.82 301.868 345.35 302.088 344.822 302.088C344.294 302.088 343.84 301.941 343.458 301.648C342.138 299.976 339.938 296.808 336.858 292.144C334.893 294.461 332.092 297.644 328.454 301.692C327.985 302.044 327.56 302.22 327.178 302.22ZM353.604 302.22C352.607 302.22 352.108 301.795 352.108 300.944C352.108 300.475 352.225 300.005 352.46 299.536C352.695 299.272 353.809 298.04 355.804 295.84C357.828 293.611 359.691 291.44 361.392 289.328C357.403 283.109 354.865 279.047 353.78 277.14C353.633 276.788 353.56 276.407 353.56 275.996C353.56 275.556 353.765 275.116 354.176 274.676C354.616 274.236 355.1 274.016 355.628 274.016C356.185 274.016 356.625 274.265 356.948 274.764C359.881 279.575 362.243 283.373 364.032 286.16C367.083 282.581 369.972 278.592 372.7 274.192C373.199 273.312 373.903 272.872 374.812 272.872C375.164 272.872 375.457 272.989 375.692 273.224C375.956 273.429 376.088 273.693 376.088 274.016C376.088 274.339 376 274.749 375.824 275.248C373.624 278.915 370.339 283.505 365.968 289.02C368.491 293.068 370.823 296.339 372.964 298.832C373.199 299.301 373.316 299.741 373.316 300.152C373.316 300.563 373.096 300.988 372.656 301.428C372.245 301.868 371.776 302.088 371.248 302.088C370.72 302.088 370.265 301.941 369.884 301.648C368.564 299.976 366.364 296.808 363.284 292.144C361.319 294.461 358.517 297.644 354.88 301.692C354.411 302.044 353.985 302.22 353.604 302.22ZM380.03 302.22C379.032 302.22 378.534 301.795 378.534 300.944C378.534 300.475 378.651 300.005 378.886 299.536C379.12 299.272 380.235 298.04 382.23 295.84C384.254 293.611 386.116 291.44 387.818 289.328C383.828 283.109 381.291 279.047 380.206 277.14C380.059 276.788 379.986 276.407 379.986 275.996C379.986 275.556 380.191 275.116 380.602 274.676C381.042 274.236 381.526 274.016 382.054 274.016C382.611 274.016 383.051 274.265 383.374 274.764C386.307 279.575 388.668 283.373 390.458 286.16C393.508 282.581 396.398 278.592 399.126 274.192C399.624 273.312 400.328 272.872 401.238 272.872C401.59 272.872 401.883 272.989 402.118 273.224C402.382 273.429 402.514 273.693 402.514 274.016C402.514 274.339 402.426 274.749 402.25 275.248C400.05 278.915 396.764 283.505 392.394 289.02C394.916 293.068 397.248 296.339 399.39 298.832C399.624 299.301 399.742 299.741 399.742 300.152C399.742 300.563 399.522 300.988 399.082 301.428C398.671 301.868 398.202 302.088 397.674 302.088C397.146 302.088 396.691 301.941 396.31 301.648C394.99 299.976 392.79 296.808 389.71 292.144C387.744 294.461 384.943 297.644 381.306 301.692C380.836 302.044 380.411 302.22 380.03 302.22ZM406.456 302.22C405.458 302.22 404.96 301.795 404.96 300.944C404.96 300.475 405.077 300.005 405.312 299.536C405.546 299.272 406.661 298.04 408.656 295.84C410.68 293.611 412.542 291.44 414.244 289.328C410.254 283.109 407.717 279.047 406.632 277.14C406.485 276.788 406.412 276.407 406.412 275.996C406.412 275.556 406.617 275.116 407.028 274.676C407.468 274.236 407.952 274.016 408.48 274.016C409.037 274.016 409.477 274.265 409.8 274.764C412.733 279.575 415.094 283.373 416.884 286.16C419.934 282.581 422.824 278.592 425.552 274.192C426.05 273.312 426.754 272.872 427.664 272.872C428.016 272.872 428.309 272.989 428.544 273.224C428.808 273.429 428.94 273.693 428.94 274.016C428.94 274.339 428.852 274.749 428.676 275.248C426.476 278.915 423.19 283.505 418.82 289.02C421.342 293.068 423.674 296.339 425.816 298.832C426.05 299.301 426.168 299.741 426.168 300.152C426.168 300.563 425.948 300.988 425.508 301.428C425.097 301.868 424.628 302.088 424.1 302.088C423.572 302.088 423.117 301.941 422.736 301.648C421.416 299.976 419.216 296.808 416.136 292.144C414.17 294.461 411.369 297.644 407.732 301.692C407.262 302.044 406.837 302.22 406.456 302.22ZM432.881 302.22C431.884 302.22 431.385 301.795 431.385 300.944C431.385 300.475 431.503 300.005 431.737 299.536C431.972 299.272 433.087 298.04 435.081 295.84C437.105 293.611 438.968 291.44 440.669 289.328C436.68 283.109 434.143 279.047 433.057 277.14C432.911 276.788 432.837 276.407 432.837 275.996C432.837 275.556 433.043 275.116 433.453 274.676C433.893 274.236 434.377 274.016 434.905 274.016C435.463 274.016 435.903 274.265 436.225 274.764C439.159 279.575 441.52 283.373 443.309 286.16C446.36 282.581 449.249 278.592 451.977 274.192C452.476 273.312 453.18 272.872 454.089 272.872C454.441 272.872 454.735 272.989 454.969 273.224C455.233 273.429 455.365 273.693 455.365 274.016C455.365 274.339 455.277 274.749 455.101 275.248C452.901 278.915 449.616 283.505 445.245 289.02C447.768 293.068 450.1 296.339 452.241 298.832C452.476 299.301 452.593 299.741 452.593 300.152C452.593 300.563 452.373 300.988 451.933 301.428C451.523 301.868 451.053 302.088 450.525 302.088C449.997 302.088 449.543 301.941 449.161 301.648C447.841 299.976 445.641 296.808 442.561 292.144C440.596 294.461 437.795 297.644 434.157 301.692C433.688 302.044 433.263 302.22 432.881 302.22Z" fill="black"/>
</svg>
