<svg xmlns="http://www.w3.org/2000/svg" xmlns:xlink="http://www.w3.org/1999/xlink" xmlns:lucid="lucid" width="3410.19" height="602.64"><g transform="translate(966.2344671926871 -199.237398295013)" lucid:page-tab-id="0_0"><path d="M-1806.87 0h5484.6v1322.83h-5484.6z" fill="#fff"/><path d="M-946.23 225.24c0-3.32 2.68-6 6-6h228c3.3 0 6 2.68 6 6v48c0 3.3-2.7 6-6 6h-228c-3.32 0-6-2.7-6-6z" stroke="#333" stroke-width="3" fill="#fff" fill-opacity="0"/><use xlink:href="#a" transform="matrix(1,0,0,1,-941.2344671926871,224.237398295013) translate(72.5462962962963 32.91666666666666)"/><path d="M-906.23 439.24c0 11.04-8.96 20-20 20-11.05 0-20-8.96-20-20 0-11.05 8.95-20 20-20 11.04 0 20 8.95 20 20z" stroke="#000" stroke-width="3"/><path d="M-660.23 399.24c-8.84 0-16 7.16-16 16v48c0 8.83 7.16 16 16 16h228c8.83 0 16-7.17 16-16v-48c0-8.84-7.17-16-16-16z" stroke="#000" stroke-width="3" fill="#fff"/><use xlink:href="#b" transform="matrix(1,0,0,1,-668.2344671926871,407.237398295013) translate(49.87037037037045 21.333333333333343)"/><use xlink:href="#c" transform="matrix(1,0,0,1,-668.2344671926871,407.237398295013) translate(115.17901234567901 21.333333333333343)"/><use xlink:href="#d" transform="matrix(1,0,0,1,-668.2344671926871,407.237398295013) translate(38.444444444444514 53.333333333333314)"/><use xlink:href="#e" transform="matrix(1,0,0,1,-668.2344671926871,407.237398295013) translate(100.51851851851853 53.333333333333314)"/><path d="M-903.73 439.24h207.5" stroke="#5e5e5e" stroke-width="2" fill="none"/><path d="M-903.7 440.24h-1.15l.12-.94-.04-1.06h1.07z" fill="#5e5e5e"/><path d="M-680.97 439.24l-14.27 4.63v-9.27z" stroke="#5e5e5e" stroke-width="2" fill="#5e5e5e"/><use xlink:href="#f" transform="matrix(1,0,0,1,-891.9763484321325,413.9040649616797) translate(0 14.222222222222223)"/><use xlink:href="#g" transform="matrix(1,0,0,1,-891.9763484321325,413.9040649616797) translate(85.67901234567901 14.222222222222223)"/><use xlink:href="#h" transform="matrix(1,0,0,1,-891.9763484321325,413.9040649616797) translate(107.30864197530865 14.222222222222223)"/><path d="M-30.23 399.24c-8.84 0-16 7.16-16 16v48c0 8.83 7.16 16 16 16h228c8.83 0 16-7.17 16-16v-48c0-8.84-7.17-16-16-16z" stroke="#000" stroke-width="3" fill="#fff"/><use xlink:href="#i" transform="matrix(1,0,0,1,-38.234467192687134,407.237398295013) translate(57.12345679012353 21.333333333333343)"/><use xlink:href="#j" transform="matrix(1,0,0,1,-38.234467192687134,407.237398295013) translate(136.38271604938268 21.333333333333343)"/><use xlink:href="#k" transform="matrix(1,0,0,1,-38.234467192687134,407.237398295013) translate(5.851851851851933 53.333333333333314)"/><use xlink:href="#l" transform="matrix(1,0,0,1,-38.234467192687134,407.237398295013) translate(85.7777777777778 53.333333333333314)"/><path d="M-413.73 439.24h347.5" stroke="#5e5e5e" stroke-width="2" fill="none"/><path d="M-413.7 440.24h-1.03v-2h1.03z" fill="#5e5e5e"/><path d="M-50.97 439.24l-14.27 4.63v-9.27z" stroke="#5e5e5e" stroke-width="2" fill="#5e5e5e"/><use xlink:href="#m" transform="matrix(1,0,0,1,-358.86134434984194,413.9040649616797) translate(0 14.222222222222223)"/><use xlink:href="#n" transform="matrix(1,0,0,1,-358.86134434984194,413.9040649616797) translate(42.32098765432099 14.222222222222223)"/><use xlink:href="#o" transform="matrix(1,0,0,1,-358.86134434984194,413.9040649616797) translate(93.62962962962963 14.222222222222223)"/><use xlink:href="#p" transform="matrix(1,0,0,1,-358.86134434984194,413.9040649616797) translate(103.50617283950618 14.222222222222223)"/><use xlink:href="#q" transform="matrix(1,0,0,1,-358.86134434984194,413.9040649616797) translate(144.8888888888889 14.222222222222223)"/><use xlink:href="#r" transform="matrix(1,0,0,1,-358.86134434984194,413.9040649616797) translate(210.91358024691363 14.222222222222223)"/><path d="M216.27 439.22l1.44-.03 2.33-.16 2.2-.23 2.12-.3 2.02-.4 1.94-.44 1.88-.52 1.8-.6 1.75-.64 1.7-.72 1.65-.77 1.6-.84 1.6-.9 1.53-.98 1.52-1.05 1.48-1.12 1.45-1.2 1.44-1.3 1.4-1.37 1.38-1.48 1.37-1.58 1.35-1.7 1.32-1.82 1.3-1.96 1.27-2.1 1.23-2.27 1.2-2.43 1.17-2.6 1.1-2.82 1.06-3.02.98-3.24.9-3.48.78-3.7.67-3.96.5-4.18.38-4.4.2-4.6v-4.77l-.2-4.9-.43-4.96-.63-4.97-.83-4.94-1.04-4.83-1.2-4.7-1.36-4.48-1.48-4.27-1.6-4.02-1.67-3.76-1.74-3.5-1.77-3.25-1.8-3-1.84-2.74-1.85-2.53-1.84-2.32-1.82-2.12-1.83-1.95-1.82-1.78-1.8-1.63-1.8-1.5-1.8-1.34-1.77-1.24-1.77-1.13-1.73-1-1.8-.94-1.86-.88-1.92-.8-2.02-.76-2.1-.7-2.2-.6-2.3-.56-2.42-.46-2.53-.37-2.66-.28-2.82-.18-2.98-.06-3.14.06-3.32.2-3.52.38-3.72.54-3.93.75-4.14.98-4.37 1.22-4.58 1.48-4.78 1.77-4.96 2.08-5.1 2.4-5.2 2.72-5.28 3.03-5.26 3.34-5.2 3.6-5.1 3.86-4.9 4.05-4.67 4.2-4.4 4.3-4.12 4.38-3.8 4.4-3.48 4.38-3.15 4.33-2.85 4.28-2.54 4.2-2.27 4.1-2 4-1.73 3.9-1.5 3.8-1.3 3.72-1.1 3.6-.85 3.3" stroke="#5e5e5e" stroke-width="2" fill="none"/><path d="M216.3 440.22l-1.03.02v-2l1-.02z" fill="#5e5e5e"/><path d="M84.15 394.52l-2.9-14.7 9.2 1.1z" stroke="#5e5e5e" stroke-width="2" fill="#5e5e5e"/><use xlink:href="#s" transform="matrix(1,0,0,1,274.7242265156658,349.8039140887636) translate(0 14.222222222222223)"/><use xlink:href="#t" transform="matrix(1,0,0,1,274.7242265156658,349.8039140887636) translate(57.23456790123458 14.222222222222223)"/><use xlink:href="#o" transform="matrix(1,0,0,1,274.7242265156658,349.8039140887636) translate(135.06172839506175 14.222222222222223)"/><use xlink:href="#u" transform="matrix(1,0,0,1,274.7242265156658,349.8039140887636) translate(144.93827160493828 14.222222222222223)"/><use xlink:href="#v" transform="matrix(1,0,0,1,274.7242265156658,349.8039140887636) translate(207.95061728395063 14.222222222222223)"/><path d="M216.27 439.26l1.5.03 2.37.14 2.24.23 2.13.32 2.05.38 1.94.45 1.86.52 1.8.6 1.73.63 1.67.7 1.62.77 1.57.83 1.54.88 1.5.95 1.46 1.03 1.43 1.08 1.4 1.17 1.37 1.24 1.34 1.32 1.33 1.4 1.3 1.5 1.27 1.62 1.24 1.7 1.22 1.85 1.2 1.95 1.15 2.1 1.13 2.26 1.08 2.44 1.04 2.6.97 2.8.9 2.98.83 3.2.73 3.43.62 3.65.48 3.88.35 4.1.2 4.3v4.5l-.2 4.64-.4 4.75-.62 4.8-.8 4.84-1.03 4.78-1.2 4.67-1.36 4.53-1.52 4.34-1.64 4.12-1.72 3.88-1.8 3.64-1.87 3.38-1.9 3.13-1.9 2.9-1.95 2.66-1.93 2.44-1.93 2.24-1.93 2.06-1.9 1.87-1.9 1.72-1.9 1.56-1.86 1.43-1.86 1.3-1.85 1.17-1.8 1.04-1.87.98-1.94.9-2 .86-2.1.78-2.18.7-2.28.64-2.37.56-2.5.48-2.6.4-2.74.28-2.88.18-3.03.07-3.2-.07-3.35-.2-3.54-.38-3.72-.54-3.92-.75-4.1-.96-4.32-1.2-4.48-1.45-4.65-1.73-4.8-2.02-4.9-2.3-5-2.6-5-2.9-5-3.16-4.93-3.4-4.8-3.65-4.62-3.82-4.4-3.96-4.17-4.08-3.9-4.14-3.6-4.17-3.32-4.17-3.03-4.15-2.74-4.12-2.46-4.05-2.2-4-1.95-3.9-1.72-3.84-1.5-3.77-1.28-3.7-1.1-3.6-.9-3.53-.02-.1" stroke="#5e5e5e" stroke-width="2" fill="none"/><path d="M216.3 438.26l-.03 2-1-.02v-2z" fill="#5e5e5e"/><path d="M84.14 483.95l6.28 13.63-9.2 1.08z" stroke="#5e5e5e" stroke-width="2" fill="#5e5e5e"/><use xlink:href="#w" transform="matrix(1,0,0,1,272.49695418832937,508.96458322149766) translate(0 14.222222222222223)"/><use xlink:href="#t" transform="matrix(1,0,0,1,272.49695418832937,508.96458322149766) translate(51.308641975308646 14.222222222222223)"/><use xlink:href="#o" transform="matrix(1,0,0,1,272.49695418832937,508.96458322149766) translate(129.1358024691358 14.222222222222223)"/><use xlink:href="#u" transform="matrix(1,0,0,1,272.49695418832937,508.96458322149766) translate(139.01234567901236 14.222222222222223)"/><use xlink:href="#x" transform="matrix(1,0,0,1,272.49695418832937,508.96458322149766) translate(202.0246913580247 14.222222222222223)"/><path d="M83.74 481.74l-.1 5.24-.38 6.04-.62 5.88-.85 5.75-1.08 5.62-1.3 5.5-1.5 5.44-1.75 5.37-1.98 5.3-2.22 5.26-2.46 5.23-2.73 5.2-3 5.22-3.32 5.2-3.63 5.24-4 5.25-4.37 5.28-4.8 5.33-5.26 5.38-5.8 5.43-6.36 5.48-7 5.56-7.73 5.6L3 612.2l-9.4 5.7-10.42 5.72-11.5 5.7-12.73 5.67-14.05 5.55-15.47 5.38-17 5.12-18.53 4.75-20.08 4.27-21.55 3.64-22.83 2.9-23.85 1.98-24.5 1.03h-24.72l-24.5-1.02-23.84-2-22.83-2.88-21.54-3.64-20.08-4.27-18.53-4.76-16.98-5.12-15.48-5.4-14.05-5.54-12.72-5.66-11.5-5.7-10.4-5.73-9.43-5.7-8.52-5.67-7.72-5.6-7-5.56-6.37-5.5-5.8-5.42-5.27-5.38-4.8-5.33-4.37-5.28-3.98-5.26-3.64-5.22-3.3-5.2-3-5.22-2.74-5.2-2.46-5.24-2.2-5.26-1.98-5.3-1.74-5.36-1.52-5.43-1.3-5.52-1.06-5.62-.8-5.44" stroke="#5e5e5e" stroke-width="2" fill="none"/><path d="M84.74 481.8l-2-.05.03-1h2z" fill="#5e5e5e"/><path d="M-546.03 483.97l5.53 13.94-9.25.6z" stroke="#5e5e5e" stroke-width="2" fill="#5e5e5e"/><use xlink:href="#y" transform="matrix(1,0,0,1,-439.75680169573116,673.6080037466944) translate(0 14.222222222222223)"/><use xlink:href="#z" transform="matrix(1,0,0,1,-439.75680169573116,673.6080037466944) translate(57.23456790123458 14.222222222222223)"/><use xlink:href="#A" transform="matrix(1,0,0,1,-439.75680169573116,673.6080037466944) translate(92.74074074074076 14.222222222222223)"/><use xlink:href="#o" transform="matrix(1,0,0,1,-439.75680169573116,673.6080037466944) translate(124.24691358024694 14.222222222222223)"/><use xlink:href="#B" transform="matrix(1,0,0,1,-439.75680169573116,673.6080037466944) translate(134.1234567901235 14.222222222222223)"/><use xlink:href="#C" transform="matrix(1,0,0,1,-439.75680169573116,673.6080037466944) translate(187.2592592592593 14.222222222222223)"/><use xlink:href="#D" transform="matrix(1,0,0,1,-439.75680169573116,673.6080037466944) translate(245.53086419753092 14.222222222222223)"/><use xlink:href="#E" transform="matrix(1,0,0,1,-439.75680169573116,673.6080037466944) translate(282.9135802469136 14.222222222222223)"/><use xlink:href="#F" transform="matrix(1,0,0,1,-439.75680169573116,673.6080037466944) translate(297.72839506172846 14.222222222222223)"/><use xlink:href="#G" transform="matrix(1,0,0,1,-439.75680169573116,673.6080037466944) translate(354.96296296296305 14.222222222222223)"/><use xlink:href="#H" transform="matrix(1,0,0,1,-439.75680169573116,673.6080037466944) translate(390.4691358024692 14.222222222222223)"/><path d="M-47.97 410.23l-2.82-.06-3.44-.24-3.14-.36-2.87-.46-2.63-.55-2.43-.62-2.26-.7-2.1-.74-1.93-.8-1.8-.85-1.7-.9-1.62-.92-1.5-.98-1.43-1-1.34-1.07-1.27-1.1-1.2-1.13-1.15-1.18-1.08-1.23-1.03-1.28-.97-1.34-.92-1.38-.87-1.45-.8-1.53-.76-1.58-.7-1.67-.65-1.74-.6-1.83-.5-1.92-.46-2-.37-2.13-.28-2.23-.2-2.35-.08-2.47.02-2.6.16-2.7.3-2.84.44-2.95.6-3.08.78-3.18.96-3.26 1.15-3.33 1.34-3.37 1.53-3.4 1.72-3.4 1.9-3.35 2.08-3.3 2.22-3.2 2.37-3.1 2.5-2.97 2.6-2.83 2.7-2.67 2.77-2.5 2.84-2.34 2.9-2.17 2.95-2 2.98-1.84 1.6-.9 2.04-1.06 2.08-.98 2.16-.9 2.25-.85 2.32-.74 2.4-.68 2.5-.6 2.6-.48 2.72-.4 2.82-.3 2.95-.2 3.08-.06 3.22.06 3.36.2 3.5.38 3.67.54 3.8.72 3.95.92 4.1 1.14 4.2 1.37 4.34 1.6 4.4 1.86 4.5 2.1 4.5 2.35 4.5 2.6 4.47 2.83 4.4 3.05 4.27 3.24 4.12 3.4 3.95 3.55 3.75 3.65 3.53 3.75 3.3 3.8 3.04 3.85 2.8 3.86 2.58 3.86 2.34 3.85 2.1 3.82 1.9 3.8 1.67 3.74 1.5 3.72 1.27 3.68 1.1 3.63.93 3.6.2.92" stroke="#5e5e5e" stroke-width="2" fill="none"/><path d="M-46.56 409.26l-.6 1.43-.06.55-.8-.02.05-2z" fill="#5e5e5e"/><path d="M83.4 394.52l-6.2-13.66 9.2-1.03z" stroke="#5e5e5e" stroke-width="2" fill="#5e5e5e"/><g><use xlink:href="#I" transform="matrix(1,0,0,1,-177.4137485769679,268.6817449924554) translate(0 14.222222222222223)"/><use xlink:href="#t" transform="matrix(1,0,0,1,-177.4137485769679,268.6817449924554) translate(72.88888888888891 14.222222222222223)"/><use xlink:href="#o" transform="matrix(1,0,0,1,-177.4137485769679,268.6817449924554) translate(150.71604938271608 14.222222222222223)"/><use xlink:href="#u" transform="matrix(1,0,0,1,-177.4137485769679,268.6817449924554) translate(160.5925925925926 14.222222222222223)"/><use xlink:href="#J" transform="matrix(1,0,0,1,-177.4137485769679,268.6817449924554) translate(223.60493827160496 14.222222222222223)"/></g><path d="M216.28 439.24h627.48" stroke="#5e5e5e" stroke-width="2" fill="none"/><path d="M216.3 440.24h-1.03v-2h1.03z" fill="#5e5e5e"/><path d="M859.03 439.24l-14.27 4.63v-9.27z" stroke="#5e5e5e" stroke-width="2" fill="#5e5e5e"/><g><use xlink:href="#m" transform="matrix(1,0,0,1,286.1018677886435,413.9040649616797) translate(0 14.222222222222223)"/><use xlink:href="#K" transform="matrix(1,0,0,1,286.1018677886435,413.9040649616797) translate(42.32098765432099 14.222222222222223)"/><use xlink:href="#L" transform="matrix(1,0,0,1,286.1018677886435,413.9040649616797) translate(99.55555555555557 14.222222222222223)"/><use xlink:href="#M" transform="matrix(1,0,0,1,286.1018677886435,413.9040649616797) translate(152.79012345679016 14.222222222222223)"/><use xlink:href="#o" transform="matrix(1,0,0,1,286.1018677886435,413.9040649616797) translate(209.97530864197535 14.222222222222223)"/><use xlink:href="#N" transform="matrix(1,0,0,1,286.1018677886435,413.9040649616797) translate(219.8518518518519 14.222222222222223)"/><use xlink:href="#O" transform="matrix(1,0,0,1,286.1018677886435,413.9040649616797) translate(266.1728395061729 14.222222222222223)"/><use xlink:href="#P" transform="matrix(1,0,0,1,286.1018677886435,413.9040649616797) translate(317.4814814814816 14.222222222222223)"/><use xlink:href="#Q" transform="matrix(1,0,0,1,286.1018677886435,413.9040649616797) translate(358.8641975308643 14.222222222222223)"/><use xlink:href="#h" transform="matrix(1,0,0,1,286.1018677886435,413.9040649616797) translate(380.49382716049394 14.222222222222223)"/></g><path d="M879.77 399.24c-8.84 0-16 7.16-16 16v48c0 8.83 7.16 16 16 16h308c8.83 0 16-7.17 16-16v-48c0-8.84-7.17-16-16-16z" stroke="#000" stroke-width="3" fill="#fff"/><g><use xlink:href="#R" transform="matrix(1,0,0,1,871.7655328073129,407.237398295013) translate(132.40123456790127 21.333333333333343)"/><use xlink:href="#S" transform="matrix(1,0,0,1,871.7655328073129,407.237398295013) translate(72.29629629629636 53.333333333333314)"/><use xlink:href="#T" transform="matrix(1,0,0,1,871.7655328073129,407.237398295013) translate(167.4074074074074 53.333333333333314)"/><use xlink:href="#U" transform="matrix(1,0,0,1,871.7655328073129,407.237398295013) translate(205.85185185185182 53.333333333333314)"/></g><path d="M861.26 439.26l-2.66.05-3.47.23-3.28.35-3.13.46-2.97.56-2.85.67-2.73.76-2.62.85-2.52.94-2.43 1.02-2.35 1.1-2.28 1.2-2.2 1.28-2.15 1.35-2.08 1.45-2.03 1.54-1.96 1.63-1.92 1.72-1.87 1.83-1.82 1.94-1.77 2.05-1.72 2.17-1.67 2.3-1.62 2.43-1.56 2.57-1.5 2.72-1.43 2.87-1.35 3.05-1.26 3.2-1.17 3.36-1.08 3.55-.95 3.7-.83 3.9-.68 4.03-.53 4.2-.36 4.3-.2 4.45v4.53l.2 4.6.4 4.6.58 4.62.77 4.6.96 4.5 1.14 4.43 1.3 4.3 1.44 4.17 1.6 4 1.7 3.82 1.8 3.64 1.9 3.45 1.98 3.27 2.05 3.1 2.1 2.9 2.17 2.72 2.2 2.55 2.26 2.4 2.28 2.24 2.34 2.08 2.35 1.95 2.38 1.8 2.42 1.7 2.45 1.55 2.5 1.43 2.36 1.26 2.63 1.24 2.77 1.17 2.93 1.1 3.12 1.02 3.3.92 3.54.84 3.75.72 4.02.6 4.28.47 4.58.3 4.88.1 5.22-.1 5.54-.33 5.88-.6 6.2-.9 6.54-1.23 6.82-1.6 7.06-1.95 7.26-2.34 7.37-2.7 7.4-3.1 7.35-3.45 7.22-3.75 7-4.02 6.72-4.24 6.36-4.4 6-4.53 5.6-4.6 5.16-4.63 4.76-4.63 4.36-4.62 3.96-4.57 3.6-4.5 3.25-4.46 2.92-4.38 2.62-4.3 2.32-4.22 2.07-4.14 1.82-4.08 1.6-4 1.4-3.97 1.18-3.9 1-3.84.55-2.55" stroke="#5e5e5e" stroke-width="2" fill="none"/><path d="M862.27 440.24l-1 .02-.05-2 1.05-.02z" fill="#5e5e5e"/><path d="M1033.43 483.96l3.13 14.67-9.22-.97z" stroke="#5e5e5e" stroke-width="2" fill="#5e5e5e"/><g><use xlink:href="#V" transform="matrix(1,0,0,1,625.7799724172082,591.8064420028904) translate(0 14.222222222222223)"/><use xlink:href="#W" transform="matrix(1,0,0,1,625.7799724172082,591.8064420028904) translate(41.38271604938272 14.222222222222223)"/><use xlink:href="#o" transform="matrix(1,0,0,1,625.7799724172082,591.8064420028904) translate(106.51851851851853 14.222222222222223)"/><use xlink:href="#X" transform="matrix(1,0,0,1,625.7799724172082,591.8064420028904) translate(116.39506172839508 14.222222222222223)"/><use xlink:href="#Y" transform="matrix(1,0,0,1,625.7799724172082,591.8064420028904) translate(166.66666666666669 14.222222222222223)"/></g><path d="M1909.77 399.24c-8.84 0-16 7.16-16 16v48c0 8.83 7.16 16 16 16h308c8.83 0 16-7.17 16-16v-48c0-8.84-7.17-16-16-16z" stroke="#000" stroke-width="3" fill="#fff"/><g><use xlink:href="#R" transform="matrix(1,0,0,1,1901.7655328073129,407.237398295013) translate(132.40123456790127 21.333333333333343)"/><use xlink:href="#Z" transform="matrix(1,0,0,1,1901.7655328073129,407.237398295013) translate(91.7407407407408 53.333333333333314)"/><use xlink:href="#U" transform="matrix(1,0,0,1,1901.7655328073129,407.237398295013) translate(186.4074074074074 53.333333333333314)"/></g><path d="M1206.28 439.24h667.48" stroke="#5e5e5e" stroke-width="2" fill="none"/><path d="M1206.3 440.24h-1.03v-2h1.03z" fill="#5e5e5e"/><path d="M1889.03 439.24l-14.27 4.63v-9.27z" stroke="#5e5e5e" stroke-width="2" fill="#5e5e5e"/><g><use xlink:href="#y" transform="matrix(1,0,0,1,1417.165746984183,413.9040649616797) translate(0 14.222222222222223)"/><use xlink:href="#aa" transform="matrix(1,0,0,1,1417.165746984183,413.9040649616797) translate(57.23456790123458 14.222222222222223)"/><use xlink:href="#G" transform="matrix(1,0,0,1,1417.165746984183,413.9040649616797) translate(96.59259259259261 14.222222222222223)"/><use xlink:href="#ab" transform="matrix(1,0,0,1,1417.165746984183,413.9040649616797) translate(132.0987654320988 14.222222222222223)"/><use xlink:href="#ac" transform="matrix(1,0,0,1,1417.165746984183,413.9040649616797) translate(188.3456790123457 14.222222222222223)"/><use xlink:href="#ad" transform="matrix(1,0,0,1,1417.165746984183,413.9040649616797) translate(228.79012345679016 14.222222222222223)"/></g><path d="M1033.74 481.75l-.17 8.4-.57 9.1-.94 8.88-1.27 8.66-1.63 8.46-1.95 8.32-2.3 8.2-2.6 8.07-3 8-3.32 7.93-3.72 7.88-4.1 7.86-4.54 7.85-5 7.86-5.47 7.88-6 7.93-6.6 7.97-7.24 8.04-7.95 8.1-8.73 8.2-9.6 8.28L936.5 662l-11.66 8.45-12.85 8.53-14.2 8.6-15.7 8.62-17.36 8.6-19.2 8.54-21.17 8.38-23.34 8.12-25.6 7.72-27.97 7.17-30.28 6.43-32.5 5.48-34.42 4.35-35.96 3-36.94 1.54h-37.28L503.14 764l-35.95-3.02-34.44-4.35-32.48-5.5-30.28-6.42-27.95-7.16-25.6-7.72-23.34-8.12-21.17-8.38-19.18-8.54-17.35-8.6-15.7-8.63-14.2-8.6-12.84-8.52-11.64-8.46-10.57-8.37-9.6-8.28-8.72-8.2-7.94-8.1-7.25-8.04-6.6-7.97-6-7.9-5.48-7.9-5-7.85-4.52-7.85-4.1-7.86-3.72-7.88-3.34-7.93-2.98-8-2.63-8.08-2.3-8.2-1.94-8.3-1.62-8.48-1.28-8.66-.93-8.86v-.02" stroke="#5e5e5e" stroke-width="2" fill="none"/><path d="M1034.74 481.8l-2-.05.03-1h2z" fill="#5e5e5e"/><path d="M83.9 483.97l5.22 14.06-9.26.4z" stroke="#5e5e5e" stroke-width="2" fill="#5e5e5e"/><g><use xlink:href="#y" transform="matrix(1,0,0,1,401.500529307013,769.5422758450305) translate(0 14.222222222222223)"/><use xlink:href="#z" transform="matrix(1,0,0,1,401.500529307013,769.5422758450305) translate(57.23456790123458 14.222222222222223)"/><use xlink:href="#A" transform="matrix(1,0,0,1,401.500529307013,769.5422758450305) translate(92.74074074074076 14.222222222222223)"/><use xlink:href="#o" transform="matrix(1,0,0,1,401.500529307013,769.5422758450305) translate(124.24691358024694 14.222222222222223)"/><use xlink:href="#u" transform="matrix(1,0,0,1,401.500529307013,769.5422758450305) translate(134.1234567901235 14.222222222222223)"/><use xlink:href="#O" transform="matrix(1,0,0,1,401.500529307013,769.5422758450305) translate(197.13580246913585 14.222222222222223)"/><use xlink:href="#ae" transform="matrix(1,0,0,1,401.500529307013,769.5422758450305) translate(248.4444444444445 14.222222222222223)"/></g><path d="M1891.26 439.26l-2.87.06-3.67.23-3.47.36-3.3.5-3.14.6-3 .7-2.87.8-2.75.9-2.65.98-2.55 1.07-2.46 1.16-2.38 1.25-2.3 1.33-2.22 1.4-2.16 1.5-2.1 1.6-2.03 1.68-1.97 1.78-1.9 1.87-1.87 2-1.8 2.07-1.73 2.2-1.68 2.3-1.62 2.44-1.55 2.57-1.48 2.7-1.4 2.8-1.32 2.97-1.22 3.1-1.12 3.24-1.02 3.38-.9 3.52-.78 3.65-.64 3.77-.5 3.9-.32 3.97-.17 4.06v4.12l.17 4.15.35 4.18.53 4.16.7 4.13.86 4.07 1.03 4 1.16 3.88 1.32 3.78 1.45 3.66 1.56 3.5 1.67 3.4 1.77 3.2 1.86 3.1 1.94 2.9 2.02 2.8 2.08 2.6 2.15 2.5 2.2 2.34 2.24 2.2 2.3 2.1 2.37 1.94 2.42 1.83 2.46 1.7 2.5 1.6 2.58 1.5 2.47 1.28 2.74 1.3 2.92 1.23 3.1 1.17 3.35 1.1 3.58 1 3.83.9 4.12.8 4.4.67 4.75.5 5.08.34 5.45.12 5.8-.1 6.18-.38 6.54-.67 6.87-1 7.17-1.35 7.43-1.72 7.6-2.1 7.66-2.48 7.67-2.83 7.58-3.17 7.4-3.46 7.13-3.7 6.8-3.9 6.43-4.06 6.03-4.16 5.6-4.23 5.17-4.26 4.76-4.25 4.35-4.24 3.98-4.2 3.6-4.15 3.27-4.1 2.96-4.04 2.67-3.98 2.4-3.92 2.12-3.86 1.9-3.8 1.68-3.78 1.5-3.7 1.28-3.7 1.1-3.65.95-3.6.38-1.7" stroke="#0c7cba" stroke-width="2" fill="none"/><path d="M1892.27 440.24l-1 .02-.05-2 1.05-.02z" fill="#0c7cba"/><path d="M2063.42 483.95l3.07 14.7-9.23-1z" stroke="#0c7cba" stroke-width="2" fill="#0c7cba"/><g><use xlink:href="#af" transform="matrix(1,0,0,1,1788.2746228784988,607.2311532244729) translate(0 14.222222222222223)"/><use xlink:href="#ag" transform="matrix(1,0,0,1,1788.2746228784988,607.2311532244729) translate(48.296296296296305 14.222222222222223)"/><use xlink:href="#ah" transform="matrix(1,0,0,1,1788.2746228784988,607.2311532244729) translate(90.71604938271606 14.222222222222223)"/><use xlink:href="#ai" transform="matrix(1,0,0,1,1788.2746228784988,607.2311532244729) translate(155.85185185185188 14.222222222222223)"/><use xlink:href="#aj" transform="matrix(1,0,0,1,1788.2746228784988,607.2311532244729) translate(165.7283950617284 14.222222222222223)"/><use xlink:href="#ak" transform="matrix(1,0,0,1,1788.2746228784988,607.2311532244729) translate(217.03703703703707 14.222222222222223)"/></g><path d="M2235.3 468.88l3.53 1.54 4.15 2.02 3.88 2.1 3.63 2.17 3.4 2.24 3.2 2.3 3 2.35 2.82 2.4 2.64 2.44 2.5 2.5 2.32 2.56 2.18 2.6 2.03 2.65 1.9 2.7 1.75 2.73 1.63 2.8 1.5 2.82 1.38 2.86 1.24 2.92 1.12 2.94 1 3 .85 3 .74 3.06.6 3.08.5 3.1.34 3.1.22 3.14.08 3.13-.05 3.13-.18 3.12-.3 3.1-.45 3.1-.56 3.04-.67 3-.8 2.97-.94 2.9-1.05 2.85-1.14 2.78-1.25 2.7-1.35 2.64-1.45 2.55-1.55 2.46-1.63 2.38-1.7 2.3-1.8 2.18-1.87 2.1-1.94 2-2 1.92-2.1 1.82-2.14 1.72-2.2 1.63-2.3 1.53-2.33 1.44-2.42 1.35-2.48 1.25-2.55 1.15-2.62 1.06-2.7.96-2.77.86-1.52.42-2.97.7-3.18.63-3.42.52-3.67.4-3.94.26-4.25.1-4.55-.07-4.9-.3-5.25-.52-5.6-.8-5.95-1.1-6.28-1.45-6.58-1.8-6.84-2.2-7.03-2.57-7.14-2.96-7.18-3.33-7.1-3.68-6.97-3.98-6.73-4.23-6.45-4.45-6.1-4.58-5.74-4.7-5.34-4.76-4.95-4.78-4.54-4.8-4.14-4.75-3.78-4.73-3.43-4.67-3.1-4.6-2.78-4.55-2.5-4.48-2.2-4.4-1.97-4.36-1.73-4.3-1.5-4.24-1.3-4.2-1.07-4.15-.9-4.13-.08-.44" stroke="#19967d" stroke-width="2" fill="none"/><path d="M2235.74 467.97l-.8 1.83-.93-.4.68-1.62.04-.26z" fill="#19967d"/><path d="M2064.07 483.96l5.97 13.76-9.22.88z" stroke="#19967d" stroke-width="2" fill="#19967d"/><g><use xlink:href="#al" transform="matrix(1,0,0,1,2109.4477336141226,617.3992573729242) translate(0 14.222222222222223)"/><use xlink:href="#am" transform="matrix(1,0,0,1,2109.4477336141226,617.3992573729242) translate(84.79012345679013 14.222222222222223)"/><use xlink:href="#an" transform="matrix(1,0,0,1,2109.4477336141226,617.3992573729242) translate(127.20987654320989 14.222222222222223)"/><use xlink:href="#ao" transform="matrix(1,0,0,1,2109.4477336141226,617.3992573729242) translate(192.3456790123457 14.222222222222223)"/><use xlink:href="#ap" transform="matrix(1,0,0,1,2109.4477336141226,617.3992573729242) translate(202.22222222222223 14.222222222222223)"/><use xlink:href="#aq" transform="matrix(1,0,0,1,2109.4477336141226,617.3992573729242) translate(253.5308641975309 14.222222222222223)"/></g><defs><path fill="#333" d="M212-179c-10-28-35-45-73-45-59 0-87 40-87 99 0 60 29 101 89 101 43 0 62-24 78-52l27 14C228-24 195 4 139 4 59 4 22-46 18-125c-6-104 99-153 187-111 19 9 31 26 39 46" id="ar"/><path fill="#333" d="M24 0v-261h32V0H24" id="as"/><path fill="#333" d="M24-231v-30h32v30H24zM24 0v-190h32V0H24" id="at"/><path fill="#333" d="M100-194c63 0 86 42 84 106H49c0 40 14 67 53 68 26 1 43-12 49-29l28 8c-11 28-37 45-77 45C44 4 14-33 15-96c1-61 26-98 85-98zm52 81c6-60-76-77-97-28-3 7-6 17-6 28h103" id="au"/><path fill="#333" d="M117-194c89-4 53 116 60 194h-32v-121c0-31-8-49-39-48C34-167 62-67 57 0H25l-1-190h30c1 10-1 24 2 32 11-22 29-35 61-36" id="av"/><path fill="#333" d="M59-47c-2 24 18 29 38 22v24C64 9 27 4 27-40v-127H5v-23h24l9-43h21v43h35v23H59v120" id="aw"/><g id="a"><use transform="matrix(0.09259259259259256,0,0,0.09259259259259256,0,0)" xlink:href="#ar"/><use transform="matrix(0.09259259259259256,0,0,0.09259259259259256,23.981481481481474,0)" xlink:href="#as"/><use transform="matrix(0.09259259259259256,0,0,0.09259259259259256,31.296296296296283,0)" xlink:href="#at"/><use transform="matrix(0.09259259259259256,0,0,0.09259259259259256,38.6111111111111,0)" xlink:href="#au"/><use transform="matrix(0.09259259259259256,0,0,0.09259259259259256,57.12962962962961,0)" xlink:href="#av"/><use transform="matrix(0.09259259259259256,0,0,0.09259259259259256,75.64814814814812,0)" xlink:href="#aw"/></g><path fill="#333" d="M197 0v-115H63V0H30v-248h33v105h134v-105h34V0h-34" id="ax"/><path fill="#333" d="M100-194c62-1 85 37 85 99 1 63-27 99-86 99S16-35 15-95c0-66 28-99 85-99zM99-20c44 1 53-31 53-75 0-43-8-75-51-75s-53 32-53 75 10 74 51 75" id="ay"/><path fill="#333" d="M210-169c-67 3-38 105-44 169h-31v-121c0-29-5-50-35-48C34-165 62-65 56 0H25l-1-190h30c1 10-1 24 2 32 10-44 99-50 107 0 11-21 27-35 58-36 85-2 47 119 55 194h-31v-121c0-29-5-49-35-48" id="az"/><g id="b"><use transform="matrix(0.06172839506172832,0,0,0.06172839506172832,0,0)" xlink:href="#ax"/><use transform="matrix(0.06172839506172832,0,0,0.06172839506172832,15.987654320987636,0)" xlink:href="#ay"/><use transform="matrix(0.06172839506172832,0,0,0.06172839506172832,28.3333333333333,0)" xlink:href="#az"/><use transform="matrix(0.06172839506172832,0,0,0.06172839506172832,46.79012345679007,0)" xlink:href="#au"/></g><path fill="#333" d="M135-143c-3-34-86-38-87 0 15 53 115 12 119 90S17 21 10-45l28-5c4 36 97 45 98 0-10-56-113-15-118-90-4-57 82-63 122-42 12 7 21 19 24 35" id="aA"/><path fill="#333" d="M96-169c-40 0-48 33-48 73s9 75 48 75c24 0 41-14 43-38l32 2c-6 37-31 61-74 61-59 0-76-41-82-99-10-93 101-131 147-64 4 7 5 14 7 22l-32 3c-4-21-16-35-41-35" id="aB"/><path fill="#333" d="M114-163C36-179 61-72 57 0H25l-1-190h30c1 12-1 29 2 39 6-27 23-49 58-41v29" id="aC"/><g id="c"><use transform="matrix(0.06172839506172832,0,0,0.06172839506172832,0,0)" xlink:href="#aA"/><use transform="matrix(0.06172839506172832,0,0,0.06172839506172832,11.111111111111098,0)" xlink:href="#aB"/><use transform="matrix(0.06172839506172832,0,0,0.06172839506172832,22.222222222222197,0)" xlink:href="#aC"/><use transform="matrix(0.06172839506172832,0,0,0.06172839506172832,29.567901234567866,0)" xlink:href="#au"/><use transform="matrix(0.06172839506172832,0,0,0.06172839506172832,41.91358024691353,0)" xlink:href="#au"/><use transform="matrix(0.06172839506172832,0,0,0.06172839506172832,54.259259259259196,0)" xlink:href="#au"/><use transform="matrix(0.06172839506172832,0,0,0.06172839506172832,66.60493827160487,0)" xlink:href="#av"/></g><path fill="#333" d="M233-177c-1 41-23 64-60 70L243 0h-38l-65-103H63V0H30v-248c88 3 205-21 203 71zM63-129c60-2 137 13 137-47 0-61-80-42-137-45v92" id="aD"/><g id="d"><use transform="matrix(0.07407407407407401,0,0,0.07407407407407401,0,0)" xlink:href="#aD"/><use transform="matrix(0.07407407407407401,0,0,0.07407407407407401,19.18518518518517,0)" xlink:href="#ay"/><use transform="matrix(0.07407407407407401,0,0,0.07407407407407401,33.99999999999997,0)" xlink:href="#as"/><use transform="matrix(0.07407407407407401,0,0,0.07407407407407401,39.85185185185182,0)" xlink:href="#au"/></g><g id="e"><use transform="matrix(0.07407407407407401,0,0,0.07407407407407401,0,0)" xlink:href="#aA"/><use transform="matrix(0.07407407407407401,0,0,0.07407407407407401,13.333333333333323,0)" xlink:href="#au"/><use transform="matrix(0.07407407407407401,0,0,0.07407407407407401,28.148148148148124,0)" xlink:href="#as"/><use transform="matrix(0.07407407407407401,0,0,0.07407407407407401,33.99999999999997,0)" xlink:href="#au"/><use transform="matrix(0.07407407407407401,0,0,0.07407407407407401,48.814814814814774,0)" xlink:href="#aB"/><use transform="matrix(0.07407407407407401,0,0,0.07407407407407401,62.148148148148096,0)" xlink:href="#aw"/><use transform="matrix(0.07407407407407401,0,0,0.07407407407407401,69.5555555555555,0)" xlink:href="#at"/><use transform="matrix(0.07407407407407401,0,0,0.07407407407407401,75.40740740740735,0)" xlink:href="#ay"/><use transform="matrix(0.07407407407407401,0,0,0.07407407407407401,90.22222222222214,0)" xlink:href="#av"/></g><path fill="#333" d="M67-125c0 53 21 87 73 88 37 1 54-22 65-47l45 17C233-25 199 4 140 4 58 4 20-42 15-125 8-235 124-281 211-232c18 10 29 29 36 50l-46 12c-8-25-30-41-62-41-52 0-71 34-72 86" id="aE"/><path fill="#333" d="M110-194c64 0 96 36 96 99 0 64-35 99-97 99-61 0-95-36-95-99 0-62 34-99 96-99zm-1 164c35 0 45-28 45-65 0-40-10-65-43-65-34 0-45 26-45 65 0 36 10 65 43 65" id="aF"/><path fill="#333" d="M135-194c87-1 58 113 63 194h-50c-7-57 23-157-34-157-59 0-34 97-39 157H25l-1-190h47c2 12-1 28 3 38 12-26 28-41 61-42" id="aG"/><path fill="#333" d="M185-48c-13 30-37 53-82 52C43 2 14-33 14-96s30-98 90-98c62 0 83 45 84 108H66c0 31 8 55 39 56 18 0 30-7 34-22zm-45-69c5-46-57-63-70-21-2 6-4 13-4 21h74" id="aH"/><path fill="#333" d="M190-63c-7 42-38 67-86 67-59 0-84-38-90-98-12-110 154-137 174-36l-49 2c-2-19-15-32-35-32-30 0-35 28-38 64-6 74 65 87 74 30" id="aI"/><path fill="#333" d="M115-3C79 11 28 4 28-45v-112H4v-33h27l15-45h31v45h36v33H77v99c-1 23 16 31 38 25v30" id="aJ"/><path fill="#333" d="M137-138c1-29-70-34-71-4 15 46 118 7 119 86 1 83-164 76-172 9l43-7c4 19 20 25 44 25 33 8 57-30 24-41C81-84 22-81 20-136c-2-80 154-74 161-7" id="aK"/><g id="f"><use transform="matrix(0.04938271604938272,0,0,0.04938271604938272,0,0)" xlink:href="#aE"/><use transform="matrix(0.04938271604938272,0,0,0.04938271604938272,12.790123456790125,0)" xlink:href="#aF"/><use transform="matrix(0.04938271604938272,0,0,0.04938271604938272,23.60493827160494,0)" xlink:href="#aG"/><use transform="matrix(0.04938271604938272,0,0,0.04938271604938272,34.41975308641975,0)" xlink:href="#aG"/><use transform="matrix(0.04938271604938272,0,0,0.04938271604938272,45.23456790123457,0)" xlink:href="#aH"/><use transform="matrix(0.04938271604938272,0,0,0.04938271604938272,55.111111111111114,0)" xlink:href="#aI"/><use transform="matrix(0.04938271604938272,0,0,0.04938271604938272,64.98765432098766,0)" xlink:href="#aJ"/><use transform="matrix(0.04938271604938272,0,0,0.04938271604938272,70.8641975308642,0)" xlink:href="#aK"/></g><g id="g"><use transform="matrix(0.04938271604938272,0,0,0.04938271604938272,0,0)" xlink:href="#aJ"/><use transform="matrix(0.04938271604938272,0,0,0.04938271604938272,5.8765432098765435,0)" xlink:href="#aF"/></g><path fill="#333" d="M135-150c-39-12-60 13-60 57V0H25l-1-190h47c2 13-1 29 3 40 6-28 27-53 61-41v41" id="aL"/><path fill="#333" d="M128 0H69L1-190h53L99-40l48-150h52" id="aM"/><g id="h"><use transform="matrix(0.04938271604938272,0,0,0.04938271604938272,0,0)" xlink:href="#aK"/><use transform="matrix(0.04938271604938272,0,0,0.04938271604938272,9.876543209876544,0)" xlink:href="#aH"/><use transform="matrix(0.04938271604938272,0,0,0.04938271604938272,19.75308641975309,0)" xlink:href="#aL"/><use transform="matrix(0.04938271604938272,0,0,0.04938271604938272,26.666666666666668,0)" xlink:href="#aM"/><use transform="matrix(0.04938271604938272,0,0,0.04938271604938272,36.543209876543216,0)" xlink:href="#aH"/><use transform="matrix(0.04938271604938272,0,0,0.04938271604938272,46.41975308641976,0)" xlink:href="#aL"/></g><path fill="#333" d="M266 0h-40l-56-210L115 0H75L2-248h35L96-30l15-64 43-154h32l59 218 59-218h35" id="aN"/><path fill="#333" d="M141-36C126-15 110 5 73 4 37 3 15-17 15-53c-1-64 63-63 125-63 3-35-9-54-41-54-24 1-41 7-42 31l-33-3c5-37 33-52 76-52 45 0 72 20 72 64v82c-1 20 7 32 28 27v20c-31 9-61-2-59-35zM48-53c0 20 12 33 32 33 41-3 63-29 60-74-43 2-92-5-92 41" id="aO"/><path fill="#333" d="M177-190C167-65 218 103 67 71c-23-6-38-20-44-43l32-5c15 47 100 32 89-28v-30C133-14 115 1 83 1 29 1 15-40 15-95c0-56 16-97 71-98 29-1 48 16 59 35 1-10 0-23 2-32h30zM94-22c36 0 50-32 50-73 0-42-14-75-50-75-39 0-46 34-46 75s6 73 46 73" id="aP"/><g id="i"><use transform="matrix(0.06172839506172832,0,0,0.06172839506172832,0,0)" xlink:href="#aN"/><use transform="matrix(0.06172839506172832,0,0,0.06172839506172832,20.123456790123434,0)" xlink:href="#aO"/><use transform="matrix(0.06172839506172832,0,0,0.06172839506172832,32.4691358024691,0)" xlink:href="#at"/><use transform="matrix(0.06172839506172832,0,0,0.06172839506172832,37.345679012345634,0)" xlink:href="#aw"/><use transform="matrix(0.06172839506172832,0,0,0.06172839506172832,43.51851851851847,0)" xlink:href="#at"/><use transform="matrix(0.06172839506172832,0,0,0.06172839506172832,48.39506172839501,0)" xlink:href="#av"/><use transform="matrix(0.06172839506172832,0,0,0.06172839506172832,60.74074074074067,0)" xlink:href="#aP"/></g><g id="j"><use transform="matrix(0.06172839506172832,0,0,0.06172839506172832,0,0)" xlink:href="#aC"/><use transform="matrix(0.06172839506172832,0,0,0.06172839506172832,7.345679012345671,0)" xlink:href="#ay"/><use transform="matrix(0.06172839506172832,0,0,0.06172839506172832,19.691358024691336,0)" xlink:href="#ay"/><use transform="matrix(0.06172839506172832,0,0,0.06172839506172832,32.037037037037,0)" xlink:href="#az"/></g><path fill="#333" d="M143 4C61 4 22-44 18-125c-5-107 100-154 193-111 17 8 29 25 37 43l-32 9c-13-25-37-40-76-40-61 0-88 39-88 99 0 61 29 100 91 101 35 0 62-11 79-27v-45h-74v-28h105v86C228-13 192 4 143 4" id="aQ"/><g id="k"><use transform="matrix(0.07407407407407401,0,0,0.07407407407407401,0,0)" xlink:href="#aQ"/><use transform="matrix(0.07407407407407401,0,0,0.07407407407407401,20.740740740740723,0)" xlink:href="#aO"/><use transform="matrix(0.07407407407407401,0,0,0.07407407407407401,35.55555555555553,0)" xlink:href="#az"/><use transform="matrix(0.07407407407407401,0,0,0.07407407407407401,57.70370370370366,0)" xlink:href="#au"/></g><path fill="#333" d="M101-234c-31-9-42 10-38 44h38v23H63V0H32v-167H5v-23h27c-7-52 17-82 69-68v24" id="aR"/><path fill="#333" d="M84 4C-5 8 30-112 23-190h32v120c0 31 7 50 39 49 72-2 45-101 50-169h31l1 190h-30c-1-10 1-25-2-33-11 22-28 36-60 37" id="aS"/><g id="l"><use transform="matrix(0.07407407407407401,0,0,0.07407407407407401,0,0)" xlink:href="#aB"/><use transform="matrix(0.07407407407407401,0,0,0.07407407407407401,13.333333333333323,0)" xlink:href="#ay"/><use transform="matrix(0.07407407407407401,0,0,0.07407407407407401,28.148148148148124,0)" xlink:href="#av"/><use transform="matrix(0.07407407407407401,0,0,0.07407407407407401,42.962962962962926,0)" xlink:href="#aR"/><use transform="matrix(0.07407407407407401,0,0,0.07407407407407401,50.370370370370324,0)" xlink:href="#at"/><use transform="matrix(0.07407407407407401,0,0,0.07407407407407401,56.22222222222217,0)" xlink:href="#aP"/><use transform="matrix(0.07407407407407401,0,0,0.07407407407407401,71.03703703703698,0)" xlink:href="#aS"/><use transform="matrix(0.07407407407407401,0,0,0.07407407407407401,85.85185185185178,0)" xlink:href="#aC"/><use transform="matrix(0.07407407407407401,0,0,0.07407407407407401,94.6666666666666,0)" xlink:href="#aO"/><use transform="matrix(0.07407407407407401,0,0,0.07407407407407401,109.48148148148141,0)" xlink:href="#aw"/><use transform="matrix(0.07407407407407401,0,0,0.07407407407407401,116.88888888888881,0)" xlink:href="#at"/><use transform="matrix(0.07407407407407401,0,0,0.07407407407407401,122.74074074074066,0)" xlink:href="#ay"/><use transform="matrix(0.07407407407407401,0,0,0.07407407407407401,137.55555555555546,0)" xlink:href="#av"/></g><path fill="#333" d="M114-157C55-157 80-60 75 0H25v-261h50l-1 109c12-26 28-41 61-42 86-1 58 113 63 194h-50c-7-57 23-157-34-157" id="aT"/><g id="m"><use transform="matrix(0.04938271604938272,0,0,0.04938271604938272,0,0)" xlink:href="#aT"/><use transform="matrix(0.04938271604938272,0,0,0.04938271604938272,10.814814814814815,0)" xlink:href="#aF"/><use transform="matrix(0.04938271604938272,0,0,0.04938271604938272,21.62962962962963,0)" xlink:href="#aK"/><use transform="matrix(0.04938271604938272,0,0,0.04938271604938272,31.506172839506174,0)" xlink:href="#aJ"/></g><path fill="#333" d="M195-6C206 82 75 100 31 46c-4-6-6-13-8-21l49-6c3 16 16 24 34 25 40 0 42-37 40-79-11 22-30 35-61 35-53 0-70-43-70-97 0-56 18-96 73-97 30 0 46 14 59 34l2-30h47zm-90-29c32 0 41-27 41-63 0-35-9-62-40-62-32 0-39 29-40 63 0 36 9 62 39 62" id="aU"/><path fill="#333" d="M133-34C117-15 103 5 69 4 32 3 11-16 11-54c-1-60 55-63 116-61 1-26-3-47-28-47-18 1-26 9-28 27l-52-2c7-38 36-58 82-57s74 22 75 68l1 82c-1 14 12 18 25 15v27c-30 8-71 5-69-32zm-48 3c29 0 43-24 42-57-32 0-66-3-65 30 0 17 8 27 23 27" id="aV"/><path fill="#333" d="M220-157c-53 9-28 100-34 157h-49v-107c1-27-5-49-29-50C55-147 81-57 75 0H25l-1-190h47c2 12-1 28 3 38 10-53 101-56 108 0 13-22 24-43 59-42 82 1 51 116 57 194h-49v-107c-1-25-5-48-29-50" id="aW"/><g id="n"><use transform="matrix(0.04938271604938272,0,0,0.04938271604938272,0,0)" xlink:href="#aU"/><use transform="matrix(0.04938271604938272,0,0,0.04938271604938272,10.814814814814815,0)" xlink:href="#aV"/><use transform="matrix(0.04938271604938272,0,0,0.04938271604938272,20.69135802469136,0)" xlink:href="#aW"/><use transform="matrix(0.04938271604938272,0,0,0.04938271604938272,36.49382716049383,0)" xlink:href="#aH"/></g><path fill="#333" d="M4 7l51-268h42L46 7H4" id="aX"/><use transform="matrix(0.04938271604938272,0,0,0.04938271604938272,0,0)" xlink:href="#aX" id="o"/><path fill="#333" d="M25 0v-261h50V0H25" id="aY"/><path fill="#333" d="M88-194c31-1 46 15 58 34l-1-101h50l1 261h-48c-2-10 0-23-3-31C134-8 116 4 84 4 32 4 16-41 15-95c0-56 19-97 73-99zm17 164c33 0 40-30 41-66 1-37-9-64-41-64s-38 30-39 65c0 43 13 65 39 65" id="aZ"/><g id="p"><use transform="matrix(0.04938271604938272,0,0,0.04938271604938272,0,0)" xlink:href="#aY"/><use transform="matrix(0.04938271604938272,0,0,0.04938271604938272,4.938271604938272,0)" xlink:href="#aF"/><use transform="matrix(0.04938271604938272,0,0,0.04938271604938272,15.753086419753087,0)" xlink:href="#aV"/><use transform="matrix(0.04938271604938272,0,0,0.04938271604938272,25.629629629629633,0)" xlink:href="#aZ"/></g><path fill="#333" d="M231 0h-52l-39-155L100 0H48L-1-190h46L77-45c9-52 24-97 36-145h53l37 145 32-145h46" id="ba"/><path fill="#333" d="M25-224v-37h50v37H25zM25 0v-190h50V0H25" id="bb"/><g id="q"><use transform="matrix(0.04938271604938272,0,0,0.04938271604938272,0,0)" xlink:href="#ba"/><use transform="matrix(0.04938271604938272,0,0,0.04938271604938272,13.827160493827162,0)" xlink:href="#aV"/><use transform="matrix(0.04938271604938272,0,0,0.04938271604938272,23.703703703703706,0)" xlink:href="#bb"/><use transform="matrix(0.04938271604938272,0,0,0.04938271604938272,28.641975308641978,0)" xlink:href="#aJ"/><use transform="matrix(0.04938271604938272,0,0,0.04938271604938272,34.51851851851852,0)" xlink:href="#bb"/><use transform="matrix(0.04938271604938272,0,0,0.04938271604938272,39.45679012345679,0)" xlink:href="#aG"/><use transform="matrix(0.04938271604938272,0,0,0.04938271604938272,50.27160493827161,0)" xlink:href="#aU"/></g><g id="r"><use transform="matrix(0.04938271604938272,0,0,0.04938271604938272,0,0)" xlink:href="#aL"/><use transform="matrix(0.04938271604938272,0,0,0.04938271604938272,6.913580246913581,0)" xlink:href="#aF"/><use transform="matrix(0.04938271604938272,0,0,0.04938271604938272,17.728395061728396,0)" xlink:href="#aF"/><use transform="matrix(0.04938271604938272,0,0,0.04938271604938272,28.543209876543205,0)" xlink:href="#aW"/></g><g id="s"><use transform="matrix(0.04938271604938272,0,0,0.04938271604938272,0,0)" xlink:href="#aV"/><use transform="matrix(0.04938271604938272,0,0,0.04938271604938272,9.876543209876544,0)" xlink:href="#aM"/><use transform="matrix(0.04938271604938272,0,0,0.04938271604938272,19.75308641975309,0)" xlink:href="#aV"/><use transform="matrix(0.04938271604938272,0,0,0.04938271604938272,29.629629629629633,0)" xlink:href="#aJ"/><use transform="matrix(0.04938271604938272,0,0,0.04938271604938272,35.50617283950618,0)" xlink:href="#aV"/><use transform="matrix(0.04938271604938272,0,0,0.04938271604938272,45.38271604938272,0)" xlink:href="#aL"/></g><g id="t"><use transform="matrix(0.04938271604938272,0,0,0.04938271604938272,0,0)" xlink:href="#aI"/><use transform="matrix(0.04938271604938272,0,0,0.04938271604938272,9.876543209876544,0)" xlink:href="#aT"/><use transform="matrix(0.04938271604938272,0,0,0.04938271604938272,20.69135802469136,0)" xlink:href="#aV"/><use transform="matrix(0.04938271604938272,0,0,0.04938271604938272,30.567901234567906,0)" xlink:href="#aG"/><use transform="matrix(0.04938271604938272,0,0,0.04938271604938272,41.38271604938272,0)" xlink:href="#aU"/><use transform="matrix(0.04938271604938272,0,0,0.04938271604938272,52.19753086419754,0)" xlink:href="#aH"/><use transform="matrix(0.04938271604938272,0,0,0.04938271604938272,62.074074074074076,0)" xlink:href="#aZ"/></g><path fill="#333" d="M85 4C-2 5 27-109 22-190h50c7 57-23 150 33 157 60-5 35-97 40-157h50l1 190h-47c-2-12 1-28-3-38-12 25-28 42-61 42" id="bc"/><path fill="#333" d="M135-194c53 0 70 44 70 98 0 56-19 98-73 100-31 1-45-17-59-34 3 33 2 69 2 105H25l-1-265h48c2 10 0 23 3 31 11-24 29-35 60-35zM114-30c33 0 39-31 40-66 0-38-9-64-40-64-56 0-55 130 0 130" id="bd"/><g id="u"><use transform="matrix(0.04938271604938272,0,0,0.04938271604938272,0,0)" xlink:href="#bc"/><use transform="matrix(0.04938271604938272,0,0,0.04938271604938272,10.814814814814815,0)" xlink:href="#bd"/><use transform="matrix(0.04938271604938272,0,0,0.04938271604938272,21.62962962962963,0)" xlink:href="#aZ"/><use transform="matrix(0.04938271604938272,0,0,0.04938271604938272,32.44444444444444,0)" xlink:href="#aV"/><use transform="matrix(0.04938271604938272,0,0,0.04938271604938272,42.32098765432099,0)" xlink:href="#aJ"/><use transform="matrix(0.04938271604938272,0,0,0.04938271604938272,48.19753086419753,0)" xlink:href="#aH"/></g><g id="v"><use transform="matrix(0.04938271604938272,0,0,0.04938271604938272,0,0)" xlink:href="#aV"/><use transform="matrix(0.04938271604938272,0,0,0.04938271604938272,9.876543209876544,0)" xlink:href="#aM"/><use transform="matrix(0.04938271604938272,0,0,0.04938271604938272,19.75308641975309,0)" xlink:href="#aV"/><use transform="matrix(0.04938271604938272,0,0,0.04938271604938272,29.629629629629633,0)" xlink:href="#aJ"/><use transform="matrix(0.04938271604938272,0,0,0.04938271604938272,35.50617283950618,0)" xlink:href="#aV"/><use transform="matrix(0.04938271604938272,0,0,0.04938271604938272,45.38271604938272,0)" xlink:href="#aL"/></g><g id="w"><use transform="matrix(0.04938271604938272,0,0,0.04938271604938272,0,0)" xlink:href="#aG"/><use transform="matrix(0.04938271604938272,0,0,0.04938271604938272,10.814814814814815,0)" xlink:href="#aV"/><use transform="matrix(0.04938271604938272,0,0,0.04938271604938272,20.69135802469136,0)" xlink:href="#aW"/><use transform="matrix(0.04938271604938272,0,0,0.04938271604938272,36.49382716049383,0)" xlink:href="#aH"/></g><g id="x"><use transform="matrix(0.04938271604938272,0,0,0.04938271604938272,0,0)" xlink:href="#aG"/><use transform="matrix(0.04938271604938272,0,0,0.04938271604938272,10.814814814814815,0)" xlink:href="#aV"/><use transform="matrix(0.04938271604938272,0,0,0.04938271604938272,20.69135802469136,0)" xlink:href="#aW"/><use transform="matrix(0.04938271604938272,0,0,0.04938271604938272,36.49382716049383,0)" xlink:href="#aH"/></g><path fill="#333" d="M123 10C108 53 80 86 19 72V37c35 8 53-11 59-39L3-190h52l48 148c12-52 28-100 44-148h51" id="be"/><g id="y"><use transform="matrix(0.04938271604938272,0,0,0.04938271604938272,0,0)" xlink:href="#bd"/><use transform="matrix(0.04938271604938272,0,0,0.04938271604938272,10.814814814814815,0)" xlink:href="#aY"/><use transform="matrix(0.04938271604938272,0,0,0.04938271604938272,15.753086419753087,0)" xlink:href="#aV"/><use transform="matrix(0.04938271604938272,0,0,0.04938271604938272,25.629629629629633,0)" xlink:href="#be"/><use transform="matrix(0.04938271604938272,0,0,0.04938271604938272,35.50617283950618,0)" xlink:href="#aH"/><use transform="matrix(0.04938271604938272,0,0,0.04938271604938272,45.38271604938272,0)" xlink:href="#aL"/></g><g id="z"><use transform="matrix(0.04938271604938272,0,0,0.04938271604938272,0,0)" xlink:href="#aT"/><use transform="matrix(0.04938271604938272,0,0,0.04938271604938272,10.814814814814815,0)" xlink:href="#aV"/><use transform="matrix(0.04938271604938272,0,0,0.04938271604938272,20.69135802469136,0)" xlink:href="#aK"/></g><path fill="#333" d="M121-226c-27-7-43 5-38 36h38v33H83V0H34v-157H6v-33h28c-9-59 32-81 87-68v32" id="bf"/><g id="A"><use transform="matrix(0.04938271604938272,0,0,0.04938271604938272,0,0)" xlink:href="#aY"/><use transform="matrix(0.04938271604938272,0,0,0.04938271604938272,4.938271604938272,0)" xlink:href="#aH"/><use transform="matrix(0.04938271604938272,0,0,0.04938271604938272,14.814814814814817,0)" xlink:href="#bf"/><use transform="matrix(0.04938271604938272,0,0,0.04938271604938272,20.69135802469136,0)" xlink:href="#aJ"/></g><g id="B"><use transform="matrix(0.04938271604938272,0,0,0.04938271604938272,0,0)" xlink:href="#aG"/><use transform="matrix(0.04938271604938272,0,0,0.04938271604938272,10.814814814814815,0)" xlink:href="#aF"/><use transform="matrix(0.04938271604938272,0,0,0.04938271604938272,21.62962962962963,0)" xlink:href="#aJ"/><use transform="matrix(0.04938271604938272,0,0,0.04938271604938272,27.506172839506174,0)" xlink:href="#bb"/><use transform="matrix(0.04938271604938272,0,0,0.04938271604938272,32.44444444444444,0)" xlink:href="#bf"/><use transform="matrix(0.04938271604938272,0,0,0.04938271604938272,38.32098765432099,0)" xlink:href="#be"/></g><g id="C"><use transform="matrix(0.04938271604938272,0,0,0.04938271604938272,0,0)" xlink:href="#aK"/><use transform="matrix(0.04938271604938272,0,0,0.04938271604938272,9.876543209876544,0)" xlink:href="#aH"/><use transform="matrix(0.04938271604938272,0,0,0.04938271604938272,19.75308641975309,0)" xlink:href="#aL"/><use transform="matrix(0.04938271604938272,0,0,0.04938271604938272,26.666666666666668,0)" xlink:href="#aM"/><use transform="matrix(0.04938271604938272,0,0,0.04938271604938272,36.543209876543216,0)" xlink:href="#aH"/><use transform="matrix(0.04938271604938272,0,0,0.04938271604938272,46.41975308641976,0)" xlink:href="#aL"/></g><g id="D"><use transform="matrix(0.04938271604938272,0,0,0.04938271604938272,0,0)" xlink:href="#aJ"/><use transform="matrix(0.04938271604938272,0,0,0.04938271604938272,5.8765432098765435,0)" xlink:href="#aT"/><use transform="matrix(0.04938271604938272,0,0,0.04938271604938272,16.691358024691358,0)" xlink:href="#aV"/><use transform="matrix(0.04938271604938272,0,0,0.04938271604938272,26.567901234567902,0)" xlink:href="#aJ"/></g><use transform="matrix(0.04938271604938272,0,0,0.04938271604938272,0,0)" xlink:href="#aV" id="E"/><g id="F"><use transform="matrix(0.04938271604938272,0,0,0.04938271604938272,0,0)" xlink:href="#bd"/><use transform="matrix(0.04938271604938272,0,0,0.04938271604938272,10.814814814814815,0)" xlink:href="#aY"/><use transform="matrix(0.04938271604938272,0,0,0.04938271604938272,15.753086419753087,0)" xlink:href="#aV"/><use transform="matrix(0.04938271604938272,0,0,0.04938271604938272,25.629629629629633,0)" xlink:href="#be"/><use transform="matrix(0.04938271604938272,0,0,0.04938271604938272,35.50617283950618,0)" xlink:href="#aH"/><use transform="matrix(0.04938271604938272,0,0,0.04938271604938272,45.38271604938272,0)" xlink:href="#aL"/></g><g id="G"><use transform="matrix(0.04938271604938272,0,0,0.04938271604938272,0,0)" xlink:href="#aT"/><use transform="matrix(0.04938271604938272,0,0,0.04938271604938272,10.814814814814815,0)" xlink:href="#aV"/><use transform="matrix(0.04938271604938272,0,0,0.04938271604938272,20.69135802469136,0)" xlink:href="#aK"/></g><g id="H"><use transform="matrix(0.04938271604938272,0,0,0.04938271604938272,0,0)" xlink:href="#aY"/><use transform="matrix(0.04938271604938272,0,0,0.04938271604938272,4.938271604938272,0)" xlink:href="#aH"/><use transform="matrix(0.04938271604938272,0,0,0.04938271604938272,14.814814814814817,0)" xlink:href="#bf"/><use transform="matrix(0.04938271604938272,0,0,0.04938271604938272,20.69135802469136,0)" xlink:href="#aJ"/></g><g id="I"><use transform="matrix(0.04938271604938272,0,0,0.04938271604938272,0,0)" xlink:href="#aK"/><use transform="matrix(0.04938271604938272,0,0,0.04938271604938272,9.876543209876544,0)" xlink:href="#aH"/><use transform="matrix(0.04938271604938272,0,0,0.04938271604938272,19.75308641975309,0)" xlink:href="#aJ"/><use transform="matrix(0.04938271604938272,0,0,0.04938271604938272,25.629629629629633,0)" xlink:href="#aJ"/><use transform="matrix(0.04938271604938272,0,0,0.04938271604938272,31.506172839506174,0)" xlink:href="#bb"/><use transform="matrix(0.04938271604938272,0,0,0.04938271604938272,36.44444444444445,0)" xlink:href="#aG"/><use transform="matrix(0.04938271604938272,0,0,0.04938271604938272,47.25925925925927,0)" xlink:href="#aU"/><use transform="matrix(0.04938271604938272,0,0,0.04938271604938272,58.074074074074076,0)" xlink:href="#aK"/></g><g id="J"><use transform="matrix(0.04938271604938272,0,0,0.04938271604938272,0,0)" xlink:href="#aK"/><use transform="matrix(0.04938271604938272,0,0,0.04938271604938272,9.876543209876544,0)" xlink:href="#aH"/><use transform="matrix(0.04938271604938272,0,0,0.04938271604938272,19.75308641975309,0)" xlink:href="#aJ"/><use transform="matrix(0.04938271604938272,0,0,0.04938271604938272,25.629629629629633,0)" xlink:href="#aJ"/><use transform="matrix(0.04938271604938272,0,0,0.04938271604938272,31.506172839506174,0)" xlink:href="#bb"/><use transform="matrix(0.04938271604938272,0,0,0.04938271604938272,36.44444444444445,0)" xlink:href="#aG"/><use transform="matrix(0.04938271604938272,0,0,0.04938271604938272,47.25925925925927,0)" xlink:href="#aU"/><use transform="matrix(0.04938271604938272,0,0,0.04938271604938272,58.074074074074076,0)" xlink:href="#aK"/></g><g id="K"><use transform="matrix(0.04938271604938272,0,0,0.04938271604938272,0,0)" xlink:href="#bd"/><use transform="matrix(0.04938271604938272,0,0,0.04938271604938272,10.814814814814815,0)" xlink:href="#aY"/><use transform="matrix(0.04938271604938272,0,0,0.04938271604938272,15.753086419753087,0)" xlink:href="#aV"/><use transform="matrix(0.04938271604938272,0,0,0.04938271604938272,25.629629629629633,0)" xlink:href="#be"/><use transform="matrix(0.04938271604938272,0,0,0.04938271604938272,35.50617283950618,0)" xlink:href="#aH"/><use transform="matrix(0.04938271604938272,0,0,0.04938271604938272,45.38271604938272,0)" xlink:href="#aL"/></g><g id="L"><use transform="matrix(0.04938271604938272,0,0,0.04938271604938272,0,0)" xlink:href="#aK"/><use transform="matrix(0.04938271604938272,0,0,0.04938271604938272,9.876543209876544,0)" xlink:href="#aJ"/><use transform="matrix(0.04938271604938272,0,0,0.04938271604938272,15.753086419753087,0)" xlink:href="#aV"/><use transform="matrix(0.04938271604938272,0,0,0.04938271604938272,25.629629629629633,0)" xlink:href="#aL"/><use transform="matrix(0.04938271604938272,0,0,0.04938271604938272,32.543209876543216,0)" xlink:href="#aJ"/><use transform="matrix(0.04938271604938272,0,0,0.04938271604938272,38.41975308641976,0)" xlink:href="#aK"/></g><g id="M"><use transform="matrix(0.04938271604938272,0,0,0.04938271604938272,0,0)" xlink:href="#aW"/><use transform="matrix(0.04938271604938272,0,0,0.04938271604938272,15.80246913580247,0)" xlink:href="#aV"/><use transform="matrix(0.04938271604938272,0,0,0.04938271604938272,25.679012345679016,0)" xlink:href="#aJ"/><use transform="matrix(0.04938271604938272,0,0,0.04938271604938272,31.555555555555557,0)" xlink:href="#aI"/><use transform="matrix(0.04938271604938272,0,0,0.04938271604938272,41.4320987654321,0)" xlink:href="#aT"/></g><g id="N"><use transform="matrix(0.04938271604938272,0,0,0.04938271604938272,0,0)" xlink:href="#aK"/><use transform="matrix(0.04938271604938272,0,0,0.04938271604938272,9.876543209876544,0)" xlink:href="#aH"/><use transform="matrix(0.04938271604938272,0,0,0.04938271604938272,19.75308641975309,0)" xlink:href="#aG"/><use transform="matrix(0.04938271604938272,0,0,0.04938271604938272,30.567901234567906,0)" xlink:href="#aZ"/></g><g id="O"><use transform="matrix(0.04938271604938272,0,0,0.04938271604938272,0,0)" xlink:href="#aU"/><use transform="matrix(0.04938271604938272,0,0,0.04938271604938272,10.814814814814815,0)" xlink:href="#aV"/><use transform="matrix(0.04938271604938272,0,0,0.04938271604938272,20.69135802469136,0)" xlink:href="#aW"/><use transform="matrix(0.04938271604938272,0,0,0.04938271604938272,36.49382716049383,0)" xlink:href="#aH"/></g><g id="P"><use transform="matrix(0.04938271604938272,0,0,0.04938271604938272,0,0)" xlink:href="#aZ"/><use transform="matrix(0.04938271604938272,0,0,0.04938271604938272,10.814814814814815,0)" xlink:href="#aV"/><use transform="matrix(0.04938271604938272,0,0,0.04938271604938272,20.69135802469136,0)" xlink:href="#aJ"/><use transform="matrix(0.04938271604938272,0,0,0.04938271604938272,26.567901234567902,0)" xlink:href="#aV"/></g><g id="Q"><use transform="matrix(0.04938271604938272,0,0,0.04938271604938272,0,0)" xlink:href="#aJ"/><use transform="matrix(0.04938271604938272,0,0,0.04938271604938272,5.8765432098765435,0)" xlink:href="#aF"/></g><path fill="#333" d="M205 0l-28-72H64L36 0H1l101-248h38L239 0h-34zm-38-99l-47-123c-12 45-31 82-46 123h93" id="bg"/><g id="R"><use transform="matrix(0.06172839506172832,0,0,0.06172839506172832,0,0)" xlink:href="#bg"/><use transform="matrix(0.06172839506172832,0,0,0.06172839506172832,14.814814814814797,0)" xlink:href="#aC"/><use transform="matrix(0.06172839506172832,0,0,0.06172839506172832,22.16049382716047,0)" xlink:href="#au"/><use transform="matrix(0.06172839506172832,0,0,0.06172839506172832,34.506172839506135,0)" xlink:href="#av"/><use transform="matrix(0.06172839506172832,0,0,0.06172839506172832,46.8518518518518,0)" xlink:href="#aO"/></g><g id="S"><use transform="matrix(0.07407407407407401,0,0,0.07407407407407401,0,0)" xlink:href="#aN"/><use transform="matrix(0.07407407407407401,0,0,0.07407407407407401,24.148148148148127,0)" xlink:href="#aO"/><use transform="matrix(0.07407407407407401,0,0,0.07407407407407401,38.96296296296293,0)" xlink:href="#at"/><use transform="matrix(0.07407407407407401,0,0,0.07407407407407401,44.81481481481478,0)" xlink:href="#aw"/><use transform="matrix(0.07407407407407401,0,0,0.07407407407407401,52.222222222222186,0)" xlink:href="#at"/><use transform="matrix(0.07407407407407401,0,0,0.07407407407407401,58.07407407407403,0)" xlink:href="#av"/><use transform="matrix(0.07407407407407401,0,0,0.07407407407407401,72.88888888888883,0)" xlink:href="#aP"/></g><g id="T"><use transform="matrix(0.07407407407407401,0,0,0.07407407407407401,0,0)" xlink:href="#aR"/><use transform="matrix(0.07407407407407401,0,0,0.07407407407407401,7.407407407407401,0)" xlink:href="#ay"/><use transform="matrix(0.07407407407407401,0,0,0.07407407407407401,22.222222222222204,0)" xlink:href="#aC"/></g><g id="U"><use transform="matrix(0.07407407407407401,0,0,0.07407407407407401,0,0)" xlink:href="#aw"/><use transform="matrix(0.07407407407407401,0,0,0.07407407407407401,7.407407407407401,0)" xlink:href="#aS"/><use transform="matrix(0.07407407407407401,0,0,0.07407407407407401,22.222222222222204,0)" xlink:href="#aC"/><use transform="matrix(0.07407407407407401,0,0,0.07407407407407401,31.037037037037006,0)" xlink:href="#av"/></g><g id="V"><use transform="matrix(0.04938271604938272,0,0,0.04938271604938272,0,0)" xlink:href="#aT"/><use transform="matrix(0.04938271604938272,0,0,0.04938271604938272,10.814814814814815,0)" xlink:href="#aH"/><use transform="matrix(0.04938271604938272,0,0,0.04938271604938272,20.69135802469136,0)" xlink:href="#aY"/><use transform="matrix(0.04938271604938272,0,0,0.04938271604938272,25.629629629629633,0)" xlink:href="#bd"/></g><path fill="#333" d="M147 0L96-86 75-71V0H25v-261h50v150l67-79h53l-66 74L201 0h-54" id="bh"/><g id="W"><use transform="matrix(0.04938271604938272,0,0,0.04938271604938272,0,0)" xlink:href="#aI"/><use transform="matrix(0.04938271604938272,0,0,0.04938271604938272,9.876543209876544,0)" xlink:href="#aY"/><use transform="matrix(0.04938271604938272,0,0,0.04938271604938272,14.814814814814817,0)" xlink:href="#bb"/><use transform="matrix(0.04938271604938272,0,0,0.04938271604938272,19.75308641975309,0)" xlink:href="#aI"/><use transform="matrix(0.04938271604938272,0,0,0.04938271604938272,29.629629629629633,0)" xlink:href="#bh"/><use transform="matrix(0.04938271604938272,0,0,0.04938271604938272,39.50617283950618,0)" xlink:href="#aH"/><use transform="matrix(0.04938271604938272,0,0,0.04938271604938272,49.38271604938272,0)" xlink:href="#aZ"/></g><g id="X"><use transform="matrix(0.04938271604938272,0,0,0.04938271604938272,0,0)" xlink:href="#aK"/><use transform="matrix(0.04938271604938272,0,0,0.04938271604938272,9.876543209876544,0)" xlink:href="#aT"/><use transform="matrix(0.04938271604938272,0,0,0.04938271604938272,20.69135802469136,0)" xlink:href="#aF"/><use transform="matrix(0.04938271604938272,0,0,0.04938271604938272,31.506172839506174,0)" xlink:href="#ba"/></g><g id="Y"><use transform="matrix(0.04938271604938272,0,0,0.04938271604938272,0,0)" xlink:href="#aT"/><use transform="matrix(0.04938271604938272,0,0,0.04938271604938272,10.814814814814815,0)" xlink:href="#aH"/><use transform="matrix(0.04938271604938272,0,0,0.04938271604938272,20.69135802469136,0)" xlink:href="#aY"/><use transform="matrix(0.04938271604938272,0,0,0.04938271604938272,25.629629629629633,0)" xlink:href="#bd"/></g><path fill="#333" d="M30-248c87 1 191-15 191 75 0 78-77 80-158 76V0H30v-248zm33 125c57 0 124 11 124-50 0-59-68-47-124-48v98" id="bi"/><path fill="#333" d="M179-190L93 31C79 59 56 82 12 73V49c39 6 53-20 64-50L1-190h34L92-34l54-156h33" id="bj"/><g id="Z"><use transform="matrix(0.07407407407407401,0,0,0.07407407407407401,0,0)" xlink:href="#bi"/><use transform="matrix(0.07407407407407401,0,0,0.07407407407407401,17.777777777777764,0)" xlink:href="#as"/><use transform="matrix(0.07407407407407401,0,0,0.07407407407407401,23.629629629629612,0)" xlink:href="#aO"/><use transform="matrix(0.07407407407407401,0,0,0.07407407407407401,38.444444444444414,0)" xlink:href="#bj"/><use transform="matrix(0.07407407407407401,0,0,0.07407407407407401,51.777777777777736,0)" xlink:href="#at"/><use transform="matrix(0.07407407407407401,0,0,0.07407407407407401,57.629629629629584,0)" xlink:href="#av"/><use transform="matrix(0.07407407407407401,0,0,0.07407407407407401,72.44444444444439,0)" xlink:href="#aP"/></g><g id="aa"><use transform="matrix(0.04938271604938272,0,0,0.04938271604938272,0,0)" xlink:href="#aJ"/><use transform="matrix(0.04938271604938272,0,0,0.04938271604938272,5.8765432098765435,0)" xlink:href="#bc"/><use transform="matrix(0.04938271604938272,0,0,0.04938271604938272,16.691358024691358,0)" xlink:href="#aL"/><use transform="matrix(0.04938271604938272,0,0,0.04938271604938272,23.604938271604937,0)" xlink:href="#aG"/></g><g id="ab"><use transform="matrix(0.04938271604938272,0,0,0.04938271604938272,0,0)" xlink:href="#aI"/><use transform="matrix(0.04938271604938272,0,0,0.04938271604938272,9.876543209876544,0)" xlink:href="#aF"/><use transform="matrix(0.04938271604938272,0,0,0.04938271604938272,20.69135802469136,0)" xlink:href="#aW"/><use transform="matrix(0.04938271604938272,0,0,0.04938271604938272,36.49382716049383,0)" xlink:href="#aH"/><use transform="matrix(0.04938271604938272,0,0,0.04938271604938272,46.370370370370374,0)" xlink:href="#aX"/></g><g id="ac"><use transform="matrix(0.04938271604938272,0,0,0.04938271604938272,0,0)" xlink:href="#bd"/><use transform="matrix(0.04938271604938272,0,0,0.04938271604938272,10.814814814814815,0)" xlink:href="#aY"/><use transform="matrix(0.04938271604938272,0,0,0.04938271604938272,15.753086419753087,0)" xlink:href="#aV"/><use transform="matrix(0.04938271604938272,0,0,0.04938271604938272,25.629629629629633,0)" xlink:href="#be"/></g><g id="ad"><use transform="matrix(0.04938271604938272,0,0,0.04938271604938272,0,0)" xlink:href="#aJ"/><use transform="matrix(0.04938271604938272,0,0,0.04938271604938272,5.8765432098765435,0)" xlink:href="#bc"/><use transform="matrix(0.04938271604938272,0,0,0.04938271604938272,16.691358024691358,0)" xlink:href="#aL"/><use transform="matrix(0.04938271604938272,0,0,0.04938271604938272,23.604938271604937,0)" xlink:href="#aG"/></g><g id="ae"><use transform="matrix(0.04938271604938272,0,0,0.04938271604938272,0,0)" xlink:href="#aK"/><use transform="matrix(0.04938271604938272,0,0,0.04938271604938272,9.876543209876544,0)" xlink:href="#aH"/><use transform="matrix(0.04938271604938272,0,0,0.04938271604938272,19.75308641975309,0)" xlink:href="#aK"/><use transform="matrix(0.04938271604938272,0,0,0.04938271604938272,29.629629629629633,0)" xlink:href="#aK"/><use transform="matrix(0.04938271604938272,0,0,0.04938271604938272,39.50617283950618,0)" xlink:href="#bb"/><use transform="matrix(0.04938271604938272,0,0,0.04938271604938272,44.44444444444445,0)" xlink:href="#aF"/><use transform="matrix(0.04938271604938272,0,0,0.04938271604938272,55.25925925925927,0)" xlink:href="#aG"/></g><path fill="#0c7cba" d="M190-63c-7 42-38 67-86 67-59 0-84-38-90-98-12-110 154-137 174-36l-49 2c-2-19-15-32-35-32-30 0-35 28-38 64-6 74 65 87 74 30" id="bk"/><path fill="#0c7cba" d="M110-194c64 0 96 36 96 99 0 64-35 99-97 99-61 0-95-36-95-99 0-62 34-99 96-99zm-1 164c35 0 45-28 45-65 0-40-10-65-43-65-34 0-45 26-45 65 0 36 10 65 43 65" id="bl"/><path fill="#0c7cba" d="M25 0v-261h50V0H25" id="bm"/><path fill="#0c7cba" d="M135-150c-39-12-60 13-60 57V0H25l-1-190h47c2 13-1 29 3 40 6-28 27-53 61-41v41" id="bn"/><g id="af"><use transform="matrix(0.04938271604938272,0,0,0.04938271604938272,0,0)" xlink:href="#bk"/><use transform="matrix(0.04938271604938272,0,0,0.04938271604938272,9.876543209876544,0)" xlink:href="#bl"/><use transform="matrix(0.04938271604938272,0,0,0.04938271604938272,20.69135802469136,0)" xlink:href="#bm"/><use transform="matrix(0.04938271604938272,0,0,0.04938271604938272,25.629629629629633,0)" xlink:href="#bl"/><use transform="matrix(0.04938271604938272,0,0,0.04938271604938272,36.44444444444445,0)" xlink:href="#bn"/></g><path fill="#0c7cba" d="M133-34C117-15 103 5 69 4 32 3 11-16 11-54c-1-60 55-63 116-61 1-26-3-47-28-47-18 1-26 9-28 27l-52-2c7-38 36-58 82-57s74 22 75 68l1 82c-1 14 12 18 25 15v27c-30 8-71 5-69-32zm-48 3c29 0 43-24 42-57-32 0-66-3-65 30 0 17 8 27 23 27" id="bo"/><path fill="#0c7cba" d="M88-194c31-1 46 15 58 34l-1-101h50l1 261h-48c-2-10 0-23-3-31C134-8 116 4 84 4 32 4 16-41 15-95c0-56 19-97 73-99zm17 164c33 0 40-30 41-66 1-37-9-64-41-64s-38 30-39 65c0 43 13 65 39 65" id="bp"/><g id="ag"><use transform="matrix(0.04938271604938272,0,0,0.04938271604938272,0,0)" xlink:href="#bk"/><use transform="matrix(0.04938271604938272,0,0,0.04938271604938272,9.876543209876544,0)" xlink:href="#bo"/><use transform="matrix(0.04938271604938272,0,0,0.04938271604938272,19.75308641975309,0)" xlink:href="#bn"/><use transform="matrix(0.04938271604938272,0,0,0.04938271604938272,26.666666666666668,0)" xlink:href="#bp"/></g><path fill="#0c7cba" d="M25-224v-37h50v37H25zM25 0v-190h50V0H25" id="bq"/><path fill="#0c7cba" d="M147 0L96-86 75-71V0H25v-261h50v150l67-79h53l-66 74L201 0h-54" id="br"/><path fill="#0c7cba" d="M185-48c-13 30-37 53-82 52C43 2 14-33 14-96s30-98 90-98c62 0 83 45 84 108H66c0 31 8 55 39 56 18 0 30-7 34-22zm-45-69c5-46-57-63-70-21-2 6-4 13-4 21h74" id="bs"/><g id="ah"><use transform="matrix(0.04938271604938272,0,0,0.04938271604938272,0,0)" xlink:href="#bk"/><use transform="matrix(0.04938271604938272,0,0,0.04938271604938272,9.876543209876544,0)" xlink:href="#bm"/><use transform="matrix(0.04938271604938272,0,0,0.04938271604938272,14.814814814814817,0)" xlink:href="#bq"/><use transform="matrix(0.04938271604938272,0,0,0.04938271604938272,19.75308641975309,0)" xlink:href="#bk"/><use transform="matrix(0.04938271604938272,0,0,0.04938271604938272,29.629629629629633,0)" xlink:href="#br"/><use transform="matrix(0.04938271604938272,0,0,0.04938271604938272,39.50617283950618,0)" xlink:href="#bs"/><use transform="matrix(0.04938271604938272,0,0,0.04938271604938272,49.38271604938272,0)" xlink:href="#bp"/></g><path fill="#0c7cba" d="M4 7l51-268h42L46 7H4" id="bt"/><use transform="matrix(0.04938271604938272,0,0,0.04938271604938272,0,0)" xlink:href="#bt" id="ai"/><path fill="#0c7cba" d="M220-157c-53 9-28 100-34 157h-49v-107c1-27-5-49-29-50C55-147 81-57 75 0H25l-1-190h47c2 12-1 28 3 38 10-53 101-56 108 0 13-22 24-43 59-42 82 1 51 116 57 194h-49v-107c-1-25-5-48-29-50" id="bu"/><path fill="#0c7cba" d="M128 0H69L1-190h53L99-40l48-150h52" id="bv"/><g id="aj"><use transform="matrix(0.04938271604938272,0,0,0.04938271604938272,0,0)" xlink:href="#bu"/><use transform="matrix(0.04938271604938272,0,0,0.04938271604938272,15.80246913580247,0)" xlink:href="#bl"/><use transform="matrix(0.04938271604938272,0,0,0.04938271604938272,26.617283950617285,0)" xlink:href="#bv"/><use transform="matrix(0.04938271604938272,0,0,0.04938271604938272,36.49382716049383,0)" xlink:href="#bs"/></g><path fill="#0c7cba" d="M135-194c53 0 70 44 70 98 0 56-19 98-73 100-31 1-45-17-59-34 3 33 2 69 2 105H25l-1-265h48c2 10 0 23 3 31 11-24 29-35 60-35zM114-30c33 0 39-31 40-66 0-38-9-64-40-64-56 0-55 130 0 130" id="bw"/><path fill="#0c7cba" d="M123 10C108 53 80 86 19 72V37c35 8 53-11 59-39L3-190h52l48 148c12-52 28-100 44-148h51" id="bx"/><g id="ak"><use transform="matrix(0.04938271604938272,0,0,0.04938271604938272,0,0)" xlink:href="#bw"/><use transform="matrix(0.04938271604938272,0,0,0.04938271604938272,10.814814814814815,0)" xlink:href="#bm"/><use transform="matrix(0.04938271604938272,0,0,0.04938271604938272,15.753086419753087,0)" xlink:href="#bo"/><use transform="matrix(0.04938271604938272,0,0,0.04938271604938272,25.629629629629633,0)" xlink:href="#bx"/><use transform="matrix(0.04938271604938272,0,0,0.04938271604938272,35.50617283950618,0)" xlink:href="#bs"/><use transform="matrix(0.04938271604938272,0,0,0.04938271604938272,45.38271604938272,0)" xlink:href="#bn"/></g><path fill="#19967d" d="M220-157c-53 9-28 100-34 157h-49v-107c1-27-5-49-29-50C55-147 81-57 75 0H25l-1-190h47c2 12-1 28 3 38 10-53 101-56 108 0 13-22 24-43 59-42 82 1 51 116 57 194h-49v-107c-1-25-5-48-29-50" id="by"/><path fill="#19967d" d="M185-48c-13 30-37 53-82 52C43 2 14-33 14-96s30-98 90-98c62 0 83 45 84 108H66c0 31 8 55 39 56 18 0 30-7 34-22zm-45-69c5-46-57-63-70-21-2 6-4 13-4 21h74" id="bz"/><path fill="#19967d" d="M115-3C79 11 28 4 28-45v-112H4v-33h27l15-45h31v45h36v33H77v99c-1 23 16 31 38 25v30" id="bA"/><path fill="#19967d" d="M110-194c64 0 96 36 96 99 0 64-35 99-97 99-61 0-95-36-95-99 0-62 34-99 96-99zm-1 164c35 0 45-28 45-65 0-40-10-65-43-65-34 0-45 26-45 65 0 36 10 65 43 65" id="bB"/><path fill="#19967d" d="M135-150c-39-12-60 13-60 57V0H25l-1-190h47c2 13-1 29 3 40 6-28 27-53 61-41v41" id="bC"/><path fill="#19967d" d="M25-224v-37h50v37H25zM25 0v-190h50V0H25" id="bD"/><g id="al"><use transform="matrix(0.04938271604938272,0,0,0.04938271604938272,0,0)" xlink:href="#by"/><use transform="matrix(0.04938271604938272,0,0,0.04938271604938272,15.80246913580247,0)" xlink:href="#bz"/><use transform="matrix(0.04938271604938272,0,0,0.04938271604938272,25.679012345679016,0)" xlink:href="#bA"/><use transform="matrix(0.04938271604938272,0,0,0.04938271604938272,31.555555555555557,0)" xlink:href="#bz"/><use transform="matrix(0.04938271604938272,0,0,0.04938271604938272,41.4320987654321,0)" xlink:href="#bB"/><use transform="matrix(0.04938271604938272,0,0,0.04938271604938272,52.24691358024692,0)" xlink:href="#bC"/><use transform="matrix(0.04938271604938272,0,0,0.04938271604938272,59.1604938271605,0)" xlink:href="#bD"/><use transform="matrix(0.04938271604938272,0,0,0.04938271604938272,64.09876543209877,0)" xlink:href="#bA"/><use transform="matrix(0.04938271604938272,0,0,0.04938271604938272,69.97530864197532,0)" xlink:href="#bz"/></g><path fill="#19967d" d="M190-63c-7 42-38 67-86 67-59 0-84-38-90-98-12-110 154-137 174-36l-49 2c-2-19-15-32-35-32-30 0-35 28-38 64-6 74 65 87 74 30" id="bE"/><path fill="#19967d" d="M133-34C117-15 103 5 69 4 32 3 11-16 11-54c-1-60 55-63 116-61 1-26-3-47-28-47-18 1-26 9-28 27l-52-2c7-38 36-58 82-57s74 22 75 68l1 82c-1 14 12 18 25 15v27c-30 8-71 5-69-32zm-48 3c29 0 43-24 42-57-32 0-66-3-65 30 0 17 8 27 23 27" id="bF"/><path fill="#19967d" d="M88-194c31-1 46 15 58 34l-1-101h50l1 261h-48c-2-10 0-23-3-31C134-8 116 4 84 4 32 4 16-41 15-95c0-56 19-97 73-99zm17 164c33 0 40-30 41-66 1-37-9-64-41-64s-38 30-39 65c0 43 13 65 39 65" id="bG"/><g id="am"><use transform="matrix(0.04938271604938272,0,0,0.04938271604938272,0,0)" xlink:href="#bE"/><use transform="matrix(0.04938271604938272,0,0,0.04938271604938272,9.876543209876544,0)" xlink:href="#bF"/><use transform="matrix(0.04938271604938272,0,0,0.04938271604938272,19.75308641975309,0)" xlink:href="#bC"/><use transform="matrix(0.04938271604938272,0,0,0.04938271604938272,26.666666666666668,0)" xlink:href="#bG"/></g><path fill="#19967d" d="M25 0v-261h50V0H25" id="bH"/><path fill="#19967d" d="M147 0L96-86 75-71V0H25v-261h50v150l67-79h53l-66 74L201 0h-54" id="bI"/><g id="an"><use transform="matrix(0.04938271604938272,0,0,0.04938271604938272,0,0)" xlink:href="#bE"/><use transform="matrix(0.04938271604938272,0,0,0.04938271604938272,9.876543209876544,0)" xlink:href="#bH"/><use transform="matrix(0.04938271604938272,0,0,0.04938271604938272,14.814814814814817,0)" xlink:href="#bD"/><use transform="matrix(0.04938271604938272,0,0,0.04938271604938272,19.75308641975309,0)" xlink:href="#bE"/><use transform="matrix(0.04938271604938272,0,0,0.04938271604938272,29.629629629629633,0)" xlink:href="#bI"/><use transform="matrix(0.04938271604938272,0,0,0.04938271604938272,39.50617283950618,0)" xlink:href="#bz"/><use transform="matrix(0.04938271604938272,0,0,0.04938271604938272,49.38271604938272,0)" xlink:href="#bG"/></g><path fill="#19967d" d="M4 7l51-268h42L46 7H4" id="bJ"/><use transform="matrix(0.04938271604938272,0,0,0.04938271604938272,0,0)" xlink:href="#bJ" id="ao"/><path fill="#19967d" d="M128 0H69L1-190h53L99-40l48-150h52" id="bK"/><g id="ap"><use transform="matrix(0.04938271604938272,0,0,0.04938271604938272,0,0)" xlink:href="#by"/><use transform="matrix(0.04938271604938272,0,0,0.04938271604938272,15.80246913580247,0)" xlink:href="#bB"/><use transform="matrix(0.04938271604938272,0,0,0.04938271604938272,26.617283950617285,0)" xlink:href="#bK"/><use transform="matrix(0.04938271604938272,0,0,0.04938271604938272,36.49382716049383,0)" xlink:href="#bz"/></g><g id="aq"><use transform="matrix(0.04938271604938272,0,0,0.04938271604938272,0,0)" xlink:href="#by"/><use transform="matrix(0.04938271604938272,0,0,0.04938271604938272,15.80246913580247,0)" xlink:href="#bz"/><use transform="matrix(0.04938271604938272,0,0,0.04938271604938272,25.679012345679016,0)" xlink:href="#bA"/><use transform="matrix(0.04938271604938272,0,0,0.04938271604938272,31.555555555555557,0)" xlink:href="#bB"/><use transform="matrix(0.04938271604938272,0,0,0.04938271604938272,42.370370370370374,0)" xlink:href="#bC"/><use transform="matrix(0.04938271604938272,0,0,0.04938271604938272,49.283950617283956,0)" xlink:href="#bD"/><use transform="matrix(0.04938271604938272,0,0,0.04938271604938272,54.22222222222223,0)" xlink:href="#bA"/><use transform="matrix(0.04938271604938272,0,0,0.04938271604938272,60.09876543209877,0)" xlink:href="#bz"/></g></defs></g></svg>