<?xml version="1.0" encoding="iso-8859-1"?>
<!-- Generator: Adobe Illustrator 19.0.0, SVG Export Plug-In . SVG Version: 6.00 Build 0)  -->
<svg version="1.1" id="Capa_1" xmlns="http://www.w3.org/2000/svg" xmlns:xlink="http://www.w3.org/1999/xlink" x="0px" y="0px"
	 viewBox="0 0 512.009 512.009" style="enable-background:new 0 0 512.009 512.009;" xml:space="preserve">
<g transform="translate(-1)">
	<g transform="translate(2 1)">
		<path style="fill:#37474F;" d="M212.342,387.268c0.007,27.16-10.779,53.211-29.984,72.416
			c-19.205,19.205-45.256,29.991-72.416,29.984c-4.281,0.019-8.559-0.266-12.8-0.853c-36.3-4.576-67.401-28.17-81.588-61.894
			S6.25,354.464,28.363,325.316v-0.085l47.957-138.496v-0.085l20.651-59.648l0.085-0.085c3.294-3.327,6.927-6.301,10.837-8.875
			l11.349-37.888l1.877-6.229h0.085l4.437-14.848l1.365-4.608h0.256c0.171-1.195,0.341-2.389,0.597-3.499
			c0.256-1.195,0.512-2.304,0.853-3.499c0.308-1.112,0.708-2.196,1.195-3.243c0.845-2.148,1.903-4.206,3.157-6.144
			c0.585-0.985,1.24-1.927,1.963-2.816c0.17-0.178,0.314-0.379,0.427-0.597c0.597-0.683,1.195-1.365,1.707-1.963
			c1.345-1.447,2.8-2.788,4.352-4.011c0.534-0.446,1.105-0.846,1.707-1.195c2.104-1.633,4.432-2.955,6.912-3.925
			c0.853-0.427,1.707-0.683,2.56-1.024c15.323,5.421,25.553,19.927,25.515,36.181v53.333c1.365,0.683,2.816,1.365,4.181,2.133
			c8.158,4.314,15.426,10.134,21.419,17.152c0.22,0.177,0.42,0.377,0.597,0.597v0.171l0.512,16.213h-18.176l-8.533,93.867v26.283
			c9.091,4.255,17.537,9.771,25.088,16.384h5.888l0.171,5.717l2.816,91.392L212.342,387.268z"/>
		<path style="fill:#607D8B;" d="M186.742,387.268c0.02,51.603-38.396,95.142-89.6,101.547c-36.3-4.576-67.401-28.17-81.588-61.894
			S6.25,354.464,28.363,325.316v-0.085l47.957-138.496v-0.085l20.651-59.648l0.085-0.085c3.294-3.327,6.927-6.301,10.837-8.875
			l11.349-37.888l1.877-6.229h0.085l4.437-14.848l1.365-4.608h0.256c0.171-1.195,0.341-2.389,0.597-3.499
			c0.256-1.195,0.512-2.304,0.853-3.499c0.308-1.112,0.708-2.196,1.195-3.243c0.845-2.148,1.903-4.206,3.157-6.144
			c0.585-0.985,1.24-1.927,1.963-2.816c0.17-0.178,0.314-0.379,0.427-0.597c0.597-0.683,1.195-1.365,1.707-1.963
			c1.345-1.447,2.8-2.788,4.352-4.011c0.534-0.446,1.105-0.846,1.707-1.195c2.104-1.633,4.432-2.955,6.912-3.925
			c0.853-0.427,1.707-0.683,2.56-1.024c15.323,5.421,25.553,19.927,25.515,36.181v72.619c0.22,0.177,0.42,0.377,0.597,0.597v0.171
			l0.512,16.213h-18.176l-8.533,93.867v26.283c9.091,4.255,17.537,9.771,25.088,16.384h5.888l0.171,5.717l2.816,91.392
			L186.742,387.268z"/>
		<path style="fill:#37474F;" d="M502.475,387.268c0.008,27.16-10.779,53.211-29.984,72.416
			c-19.205,19.205-45.256,29.991-72.416,29.984c-4.281,0.019-8.559-0.266-12.8-0.853c-51.204-6.405-89.62-49.944-89.6-101.547
			l0.171-5.291l2.816-91.392l0.171-5.717h5.888c7.551-6.613,15.997-12.129,25.088-16.384v-26.283l-8.533-93.867h-18.176
			l0.512-16.213v-0.171c0.177-0.22,0.377-0.42,0.597-0.597c5.993-7.018,13.26-12.838,21.419-17.152
			c6.639-3.58,13.815-6.058,21.248-7.339c4.222-0.786,8.506-1.186,12.8-1.195c11.881-0.021,23.581,2.911,34.048,8.533
			c2.21,1.147,4.348,2.429,6.4,3.84c3.911,2.574,7.543,5.548,10.837,8.875l0.085,0.085l20.651,59.648v0.085l47.957,138.496v0.085
			C495.19,343.13,502.505,364.894,502.475,387.268z"/>
		<g>
			<path style="fill:#607D8B;" d="M476.875,387.268c0.02,51.603-38.396,95.142-89.6,101.547
				c-51.204-6.405-89.62-49.944-89.6-101.547l0.171-5.291l2.816-91.392l0.171-5.717h5.888c7.551-6.613,15.997-12.129,25.088-16.384
				v-26.283l-8.533-93.867h-18.176l0.512-16.213v-0.171c0.177-0.22,0.377-0.42,0.597-0.597c5.993-7.018,13.26-12.838,21.419-17.152
				c6.639-3.58,13.815-6.058,21.248-7.339c7.433,1.281,14.609,3.759,21.248,7.339c2.21,1.147,4.348,2.429,6.4,3.84
				c3.911,2.574,7.543,5.548,10.837,8.875l0.085,0.085l20.651,59.648v0.085l47.957,138.496v0.085
				C469.59,343.13,476.905,364.894,476.875,387.268z"/>
			<path style="fill:#607D8B;" d="M212.342,387.268c0.007,27.16-10.779,53.211-29.984,72.416
				c-19.205,19.205-45.256,29.991-72.416,29.984c-4.281,0.019-8.559-0.266-12.8-0.853c-36.3-4.576-67.401-28.17-81.588-61.894
				S6.25,354.464,28.363,325.316v-0.085c6.539-8.476,14.338-15.901,23.125-22.016c-0.001-0.023,0.008-0.045,0.024-0.061
				c0.016-0.016,0.038-0.025,0.061-0.024c13.569-9.442,29.243-15.418,45.653-17.408c4.212-0.587,8.462-0.872,12.715-0.853
				c54.495-0.008,99.44,42.686,102.229,97.109L212.342,387.268z"/>
			<path style="fill:#607D8B;" d="M502.475,387.268c0.008,27.16-10.779,53.211-29.984,72.416
				c-19.205,19.205-45.256,29.991-72.416,29.984c-4.281,0.019-8.559-0.266-12.8-0.853c-51.204-6.405-89.62-49.944-89.6-101.547
				l0.171-5.291c2.566-49.618,40.378-90.236,89.685-96.341c4.161-0.516,8.351-0.773,12.544-0.768
				c32-0.006,62.17,14.921,81.579,40.363v0.085C495.19,343.13,502.505,364.894,502.475,387.268z"/>
		</g>
		<g>
			<path style="fill:#CFD8DC;" d="M186.742,387.268c0.02,51.603-38.396,95.142-89.6,101.547c-36.3-4.576-67.401-28.17-81.588-61.894
				S6.25,354.464,28.363,325.316v-0.085c6.539-8.476,14.338-15.901,23.125-22.016c-0.001-0.023,0.008-0.045,0.024-0.061
				c0.016-0.016,0.038-0.025,0.061-0.024c13.569-9.442,29.243-15.418,45.653-17.408c49.165,6.209,86.809,46.765,89.344,96.256
				L186.742,387.268z"/>
			<path style="fill:#CFD8DC;" d="M476.875,387.268c0.02,51.603-38.396,95.142-89.6,101.547
				c-51.204-6.405-89.62-49.944-89.6-101.547l0.171-5.291c2.566-49.618,40.378-90.236,89.685-96.341
				c27.206,3.534,51.874,17.788,68.523,39.595v0.085C469.59,343.13,476.905,364.894,476.875,387.268z"/>
		</g>
		<g>
			<circle style="fill:#2296F3;" cx="109.942" cy="387.268" r="68.267"/>
			<circle style="fill:#2296F3;" cx="400.075" cy="387.268" r="68.267"/>
		</g>
		<path style="fill:#607D8B;" d="M203.809,58.734l0,72.619c-5.993-7.018-13.26-12.838-21.419-17.152
			c-1.365-0.768-2.816-1.451-4.181-2.133V58.734c0.038-16.254-10.191-30.76-25.515-36.181c1.024-0.341,2.048-0.683,3.072-0.939
			c1.024-0.256,2.048-0.512,3.157-0.683c2.137-0.414,4.309-0.614,6.485-0.597c10.188-0.014,19.964,4.028,27.168,11.232
			C199.781,38.771,203.822,48.546,203.809,58.734z"/>
		<path style="fill:#CFD8DC;" d="M178.209,58.734v53.333c-9.392-4.217-19.571-6.398-29.867-6.4
			c-11.881-0.021-23.581,2.911-34.048,8.533c-2.21,1.147-4.348,2.429-6.4,3.84l11.349-37.888l1.877-6.229h0.085l4.437-14.848
			l1.365-4.608h0.256c0.171-1.195,0.341-2.389,0.597-3.499c0.256-1.195,0.512-2.304,0.853-3.499
			c0.308-1.112,0.708-2.196,1.195-3.243c0.845-2.148,1.903-4.206,3.157-6.144c0.585-0.985,1.24-1.927,1.963-2.816
			c0.17-0.178,0.314-0.379,0.427-0.597c0.597-0.683,1.195-1.365,1.707-1.963c1.345-1.447,2.8-2.788,4.352-4.011
			c0.534-0.446,1.105-0.846,1.707-1.195c2.104-1.633,4.432-2.955,6.912-3.925c0.853-0.427,1.707-0.683,2.56-1.024
			C168.017,27.974,178.247,42.48,178.209,58.734z"/>
		<path style="fill:#607D8B;" d="M402.123,118.041c-2.052-1.411-4.19-2.693-6.4-3.84c-7.048-3.805-14.697-6.374-22.613-7.595
			l-8.363-27.904l-1.451-4.779h-0.085l-4.608-15.36l-1.195-4.096h-0.256c-1.612-14.652-11.507-27.071-25.429-31.915
			c4.134-1.482,8.494-2.232,12.885-2.219c19.555-0.005,35.985,14.698,38.144,34.133h0.256l1.195,4.096l4.608,15.36h0.085
			l1.451,4.779L402.123,118.041z"/>
		<path style="fill:#CFD8DC;" d="M373.11,106.606c-8.031-1.332-16.234-1.246-24.235,0.256c-7.433,1.281-14.609,3.759-21.248,7.339
			c-8.158,4.314-15.426,10.134-21.419,17.152l0-72.619c-0.038-16.254,10.191-30.76,25.515-36.181
			c13.922,4.844,23.817,17.262,25.429,31.915h0.256l1.195,4.096l4.608,15.36h0.085l1.451,4.779L373.11,106.606z"/>
		<polygon style="fill:#2296F3;" points="331.809,242.201 178.209,242.201 186.742,148.334 323.275,148.334 		"/>
		<path style="fill:#3F5C6C;" d="M331.809,242.201v26.283c-9.091,4.256-17.536,9.771-25.088,16.384H203.296
			c-7.551-6.613-15.997-12.128-25.087-16.384v-26.283H331.809z"/>
		<path style="fill:#3F51B5;" d="M331.809,242.201v26.283c-9.091,4.255-17.537,9.771-25.088,16.384H203.297
			c-7.551-6.613-15.997-12.129-25.088-16.384v-26.283H331.809z"/>
		<path style="fill:#CFD8DC;" d="M229.409,173.934h51.2c4.713,0,8.533,3.821,8.533,8.533v17.067c0,4.713-3.82,8.533-8.533,8.533
			h-51.2c-4.713,0-8.533-3.821-8.533-8.533v-17.067C220.875,177.755,224.696,173.934,229.409,173.934z"/>
	</g>
	<g>
		<path d="M111.942,311.468c-42.415,0-76.8,34.385-76.8,76.8s34.385,76.8,76.8,76.8s76.8-34.385,76.8-76.8
			C188.694,345.872,154.338,311.515,111.942,311.468z M111.942,448.001c-32.99,0-59.733-26.744-59.733-59.733
			s26.744-59.733,59.733-59.733s59.733,26.744,59.733,59.733C171.637,421.241,144.916,447.962,111.942,448.001z"/>
		<path d="M402.075,311.468c-31.063,0-59.067,18.712-70.954,47.41c-11.887,28.698-5.316,61.731,16.648,83.696
			c21.965,21.965,54.998,28.535,83.696,16.648c28.698-11.887,47.41-39.891,47.41-70.954
			C478.827,345.872,444.471,311.515,402.075,311.468z M402.075,448.001c-32.99,0-59.733-26.744-59.733-59.733
			s26.744-59.733,59.733-59.733s59.733,26.744,59.733,59.733C461.77,421.241,435.049,447.962,402.075,448.001z"/>
		<path d="M443.95,185.513c-0.058-0.221-0.117-0.438-0.192-0.654l-20.65-59.65c-0.453-1.247-1.173-2.38-2.108-3.321
			c-2.95-2.928-6.133-5.61-9.518-8.022l-12.416-41.395c-0.11-0.364-0.244-0.72-0.4-1.067l-5.483-18.375
			c-0.07-0.245-0.154-0.485-0.25-0.721c-3.868-24.167-25.661-41.302-50.058-39.359s-43.204,22.31-43.2,46.784v70.416
			c-0.335,0.866-0.537,1.778-0.6,2.705l-0.249,7.945h-83.637l-0.247-7.85c-0.018-1.016-0.222-2.02-0.6-2.963V59.734
			c0.004-24.472-18.799-44.838-43.193-46.784c-24.394-1.947-46.188,15.18-50.065,39.343c-0.092,0.242-0.175,0.488-0.25,0.738
			l-5.475,18.358c-0.159,0.352-0.295,0.714-0.408,1.084l-12.419,41.405c-3.409,2.435-6.616,5.14-9.59,8.091
			c-0.915,0.912-1.61,2.021-2.033,3.242l-20.65,59.65c-0.067,0.2-0.125,0.408-0.183,0.621L22.637,322.441
			c-28.571,38.762-28.874,91.53-0.748,130.617s78.255,55.567,124.086,40.792c45.832-14.775,76.898-57.429,76.9-105.583
			c0-0.092,0-0.179-0.009-0.267l-0.161-5.271l0.003-0.016l-2.722-88.313h74.044l-2.722,88.313l0.007,0.041l-0.173,5.514
			c0.01,48.149,31.08,90.794,76.908,105.563s95.951-1.713,124.072-40.797c28.121-39.084,27.819-91.846-0.747-130.605L443.95,185.513
			z M427.434,189.872c0.058,0.221,0.117,0.442,0.192,0.654l36.697,105.957c-24.384-16.571-54.369-22.735-83.312-17.125
			c-28.943,5.609-54.455,22.529-70.882,47.009l0.999-32.402c1.184-0.319,2.284-0.892,3.223-1.68
			c6.94-6.084,14.706-11.157,23.067-15.067c3.005-1.402,4.925-4.418,4.925-7.734v-26.283c0-0.138-0.072-0.253-0.079-0.389
			c-0.006-0.13,0.057-0.251,0.045-0.382l-8.533-93.867c-0.399-4.397-4.085-7.763-8.5-7.763h-9.378l0.137-4.425
			c19.74-21.721,51.671-27.342,77.642-13.667c2.002,1.038,3.937,2.201,5.792,3.483c2.918,1.913,5.655,4.091,8.175,6.504
			L427.434,189.872z M208.434,277.334c-6.095-5.044-12.694-9.446-19.692-13.137v-12.463h136.533v12.463
			c-6.998,3.691-13.596,8.094-19.692,13.137H208.434z M130.313,80.649c21.403-13.179,49.035-10.061,66.963,7.556v25.015
			c-21.327-15.382-48.865-19.266-73.615-10.383L130.313,80.649z M317.484,157.868l6.983,76.8H189.55l6.983-76.8H317.484z
			 M316.742,88.206c17.926-17.616,45.556-20.735,66.959-7.558l6.655,22.19c-24.75-8.884-52.288-4.999-73.614,10.385V88.206z
			 M346.609,29.868c15.21-0.016,27.992,11.423,29.658,26.542c0.139,0.879,0.423,1.73,0.84,2.517
			c-20.266-6.54-42.393-3.714-60.365,7.709v-6.9C316.762,43.248,330.122,29.887,346.609,29.868z M167.409,29.868
			c16.487,0.02,29.847,13.38,29.867,29.867v6.9c-17.97-11.433-40.103-14.253-60.366-7.693c0.413-0.794,0.697-1.649,0.841-2.533
			C139.416,41.291,152.199,29.852,167.409,29.868z M86.392,190.526c0.067-0.2,0.125-0.408,0.183-0.621l19.808-57.208
			c2.603-2.486,5.429-4.727,8.442-6.696c1.766-1.207,3.606-2.304,5.508-3.283c25.966-13.684,57.9-8.069,77.641,13.65l0.14,4.433
			h-9.373c-4.415,0-8.101,3.366-8.5,7.763l-8.533,93.867c-0.012,0.131,0.051,0.252,0.045,0.382
			c-0.006,0.136-0.079,0.251-0.079,0.389v26.283c0,3.316,1.92,6.331,4.925,7.733c8.361,3.91,16.126,8.983,23.067,15.067
			c0.939,0.788,2.04,1.361,3.223,1.68l0.997,32.355c-16.441-24.467-41.956-41.371-70.896-46.969s-58.919,0.57-83.299,17.139
			L86.392,190.526z M111.942,482.134c-35.654-0.02-68.222-20.226-84.074-52.163s-12.253-70.095,9.291-98.504
			c0.158-0.208,0.308-0.425,0.45-0.65c5.896-7.521,12.881-14.121,20.725-19.579c0.175-0.117,0.333-0.242,0.5-0.367
			c27.965-19.193,64.11-21.803,94.542-6.825s50.413,45.211,52.263,79.078l0.004,0.115l0.009,0.041l0.158,5.117
			C205.678,440.163,163.708,482.075,111.942,482.134z M402.075,482.134c-51.726-0.029-93.694-41.874-93.875-93.6l0.167-5.129
			c2.054-39.189,28.257-72.969,65.703-84.705c37.446-11.736,78.242,1.046,102.297,32.051c0.151,0.247,0.316,0.487,0.492,0.717
			c21.543,28.409,25.142,66.568,9.291,98.504S437.729,482.115,402.075,482.134z"/>
		<path d="M231.409,217.601h51.2c9.421-0.011,17.056-7.645,17.067-17.067v-17.067c-0.011-9.421-7.645-17.056-17.067-17.067h-51.2
			c-9.421,0.011-17.056,7.645-17.067,17.067v17.067C214.353,209.955,221.987,217.59,231.409,217.601z M231.409,183.468h51.2
			l0.009,17.067h-51.209V183.468z"/>
		<path d="M92.809,260.013c2.195,0.548,4.517,0.202,6.457-0.962s3.337-3.051,3.885-5.246l8.533-34.133
			c0.74-2.956-0.154-6.083-2.344-8.202c-2.19-2.119-5.345-2.908-8.275-2.071s-5.191,3.175-5.931,6.131L86.6,249.663
			c-0.552,2.196-0.207,4.521,0.957,6.463C88.722,258.068,90.611,259.466,92.809,260.013z"/>
		<path d="M126.942,251.48c2.195,0.548,4.517,0.202,6.457-0.962c1.939-1.164,3.337-3.051,3.885-5.246l8.533-34.133
			c0.74-2.956-0.154-6.083-2.344-8.202c-2.19-2.119-5.345-2.908-8.275-2.071c-2.93,0.837-5.191,3.175-5.931,6.131l-8.533,34.133
			c-0.552,2.196-0.207,4.521,0.957,6.463C122.856,249.534,124.745,250.933,126.942,251.48z"/>
		<path d="M402.334,219.672l8.533,34.133c0.74,2.956,3.001,5.294,5.931,6.131c2.93,0.837,6.085,0.048,8.275-2.071
			c2.19-2.119,3.084-5.245,2.344-8.202l-8.533-34.133c-0.74-2.956-3.001-5.293-5.931-6.131c-2.93-0.837-6.085-0.048-8.275,2.071
			C402.487,213.589,401.594,216.715,402.334,219.672z"/>
		<path d="M384.75,206.997c-0.74-2.956-3.001-5.293-5.931-6.131c-2.93-0.837-6.085-0.048-8.275,2.071
			c-2.19,2.119-3.084,5.245-2.344,8.202l8.533,34.133c0.74,2.956,3.001,5.293,5.931,6.131c2.93,0.837,6.085,0.048,8.275-2.071
			c2.19-2.119,3.084-5.245,2.344-8.202L384.75,206.997z"/>
	</g>
</g>
<g>
</g>
<g>
</g>
<g>
</g>
<g>
</g>
<g>
</g>
<g>
</g>
<g>
</g>
<g>
</g>
<g>
</g>
<g>
</g>
<g>
</g>
<g>
</g>
<g>
</g>
<g>
</g>
<g>
</g>
</svg>
