<svg id="Capa_1" enable-background="new 0 0 512 512" height="512" viewBox="0 0 512 512" width="512" xmlns="http://www.w3.org/2000/svg"><path d="m393.543 335.033c-14.751 31.53-39.145 57.329-71.927 72.334-19.919 9.121-42.941 14.251-68.778 14.251-67.457 0-115.737-34.979-139.78-84.654-25.488 9.308-67.119 33.775-68.209 59.205-.829 19.353 47.092-9.41 55.165 6.064s-37.268 46.816-24.485 60.271 62.485-29.356 73.435-22.659c9.708 5.938-.171 54.549 16.545 57.24 16.715 2.691 38.498-42.627 51.281-40.608 12.783 2.018 21.489 48.009 39.21 48.009s26.428-45.99 39.21-48.009c12.783-2.018 34.565 43.299 51.281 40.608 16.715-2.691 6.836-51.302 16.544-57.24 10.95-6.697 60.652 36.114 73.435 22.659 12.783-13.456-32.559-44.797-24.485-60.271 8.073-15.474 55.994 13.289 55.165-6.064-1.175-27.459-52.615-53.796-73.607-61.136z" fill="#ffaa5c"/><path d="m409.933 258.865c0 19.989-3.054 39.398-8.971 57.431-13.113 39.977-40.277 73.189-79.346 91.072-19.919 9.121-42.941 14.251-68.778 14.251-99.325 0-157.095-75.823-157.095-162.753 0-18.771 1.926-37.203 5.409-55.036 5.648-29 15.408-56.393 27.623-81.003 33.96-68.408 86.98-115.311 124.063-115.311 36.265 0 87.779 44.857 121.788 110.831 12.554 24.32 22.713 51.504 28.85 80.364 4.142 19.408 6.457 39.586 6.457 60.154z" fill="#ffeca1"/><path d="m165.509 165.757c0 23.98-19.45 43.43-43.43 43.43-7.584 0-14.72-1.946-20.927-5.359 5.648-29 15.408-56.393 27.623-81.003 20.797 3.225 36.734 21.217 36.734 42.932z" fill="#e8834d"/><path d="m330.373 428.098c38.914-17.177 67.342-47.366 83.633-84.139-7.898-3.997-15.155-7.069-20.463-8.925-14.751 31.53-39.145 57.329-71.927 72.334-19.919 9.121-42.941 14.251-68.778 14.251-67.457 0-115.738-34.979-139.781-84.654-6.134 2.24-13.204 5.36-20.418 9.159 26.12 56.872 81.623 97.467 160.199 97.467 29.126-.001 55.08-5.577 77.535-15.493z" fill="#ff9838"/><path d="m403.477 198.709c-6.137-28.86-16.296-56.044-28.851-80.364-34.009-65.973-85.523-110.83-121.788-110.83-3.351 0-6.833.388-10.418 1.135 35.216 7.348 80.493 49.826 111.356 109.695 12.554 24.32 22.713 51.504 28.85 80.364 4.141 19.41 6.457 39.588 6.457 60.156 0 19.989-3.054 39.398-8.971 57.431-13.113 39.977-40.277 73.189-79.346 91.072-17.193 7.873-36.704 12.763-58.336 13.956 3.419.188 6.884.294 10.409.294 25.837 0 48.859-5.129 68.778-14.251 39.069-17.883 66.233-51.094 79.346-91.072 5.918-18.033 8.972-37.443 8.972-57.431-.002-20.567-2.317-40.745-6.458-60.155z" fill="#ffdf85"/><path d="m400.962 316.296c-13.113 39.977-40.277 73.189-79.346 91.072-12.424-11.057-20.248-27.174-20.248-45.117 0-33.361 27.044-60.405 60.405-60.405 14.959 0 28.651 5.439 39.189 14.45z" fill="#e8834d"/><path d="m383.2 305.762c-.924 3.558-1.952 7.072-3.088 10.534-11.494 35.043-33.787 64.885-65.429 83.763 2.109 2.622 4.421 5.073 6.933 7.308 39.069-17.883 66.233-51.094 79.346-91.072-5.222-4.464-11.221-8.049-17.762-10.533z" fill="#d66e41"/><path d="m403.477 198.709c-2.235.349-4.531.539-6.876.539-23.99 0-43.43-19.45-43.43-43.43 0-15.967 8.612-29.928 21.456-37.473 12.553 24.32 22.712 51.504 28.85 80.364z" fill="#e8834d"/><path d="m374.626 118.345c-5.726 3.364-10.602 8.008-14.258 13.532 9.259 20.159 16.805 41.999 21.833 64.916 4.507 1.584 9.35 2.455 14.4 2.455 2.345 0 4.64-.19 6.876-.539-6.138-28.86-16.297-56.044-28.851-80.364z" fill="#d66e41"/><g fill="#e8834d"><circle cx="182.143" cy="314.994" r="29.953"/><circle cx="256" cy="103.777" r="29.953"/><circle cx="282.787" cy="233.618" r="43.433"/></g><path d="m182.143 277.526c-20.66 0-37.468 16.808-37.468 37.468 0 20.659 16.808 37.468 37.468 37.468 20.659 0 37.468-16.808 37.468-37.468 0-20.659-16.809-37.468-37.468-37.468zm0 59.906c-12.373 0-22.438-10.065-22.438-22.438s10.066-22.438 22.438-22.438 22.438 10.066 22.438 22.438-10.065 22.438-22.438 22.438z"/><path d="m256 141.245c20.659 0 37.468-16.808 37.468-37.468 0-20.659-16.808-37.468-37.468-37.468s-37.468 16.808-37.468 37.468c0 20.659 16.808 37.468 37.468 37.468zm0-59.906c12.373 0 22.438 10.065 22.438 22.438s-10.066 22.438-22.438 22.438-22.438-10.065-22.438-22.438 10.065-22.438 22.438-22.438z"/><path d="m282.788 284.566c28.092 0 50.947-22.855 50.947-50.947 0-28.093-22.855-50.948-50.947-50.948-28.093 0-50.948 22.855-50.948 50.948-.001 28.091 22.855 50.947 50.948 50.947zm0-86.866c19.805 0 35.918 16.113 35.918 35.919s-16.113 35.918-35.918 35.918-35.919-16.112-35.919-35.918 16.113-35.919 35.919-35.919z"/><path d="m474.659 395.847c-1.281-29.911-47.086-54.997-71.072-64.986 1.641-3.983 3.149-8.057 4.515-12.221 4.277-13.033 7.123-26.788 8.459-40.88.391-4.132-2.641-7.799-6.772-8.191-4.134-.385-7.799 2.64-8.191 6.772-.895 9.451-2.534 18.724-4.871 27.691-10.487-6.301-22.567-9.701-34.954-9.701-37.451 0-67.92 30.469-67.92 67.92 0 15.473 5.312 30.38 14.825 42.319-17.106 6.323-35.834 9.533-55.839 9.533-44.826 0-82.936-16.008-110.211-46.293-25.387-28.189-39.37-66.881-39.37-108.946 0-14.664 1.242-29.586 3.659-44.482 4.891 1.52 10.008 2.319 15.162 2.319 14.919 0 29.04-6.513 38.744-17.868 2.696-3.154 2.324-7.898-.832-10.595-3.157-2.696-7.9-2.324-10.595.832-6.843 8.009-16.8 12.602-27.317 12.602-4.227 0-8.415-.763-12.357-2.202 4.988-23.155 12.774-45.965 23.199-67.963 14.611 4.665 25.074 18.534 25.074 34.249 0 4.151 3.364 7.515 7.515 7.515s7.515-3.364 7.515-7.515c0-21.843-13.509-40.6-33.262-47.818 15.212-28.504 34.502-54.149 54.95-72.881 21.14-19.365 41.783-30.029 58.127-30.029 33.148 0 80.57 42.997 112.033 100.949-11.992 9.587-19.216 24.277-19.216 39.84 0 28.091 22.854 50.945 50.945 50.945.274 0 .55-.012.825-.016 2.571 13.539 4.168 27.154 4.743 40.563.178 4.147 3.658 7.352 7.83 7.186 4.147-.178 7.364-3.684 7.186-7.83-.703-16.383-2.842-33.046-6.358-49.52-6.012-28.271-15.944-55.943-29.522-82.245-16.636-32.271-38.55-61.5-61.706-82.302-23.4-21.021-47.111-32.598-66.761-32.598-41.418 0-96.425 50.25-130.795 119.484-13.236 26.666-22.746 54.56-28.268 82.904-3.681 18.853-5.548 37.854-5.548 56.476 0 26.351 5.095 51.53 14.727 74.063-23.045 9.974-64.366 33.784-65.614 62.919-.256 5.986 2.341 9.469 4.567 11.336 6.761 5.675 17.449 3.317 29.823.586 5.402-1.193 10.989-2.426 15.493-2.731 4.898-.332 6.096.624 6.127.671.285.544.207 2.521-1.883 6.477-2.4 4.541-6.501 9.913-10.467 15.108-4.681 6.131-9.522 12.471-12.409 18.465-5.377 11.162-2.159 18.081 1.488 21.921 3.437 3.618 7.789 4.983 12.5 4.983 6.906 0 14.585-2.934 21.291-6.002 3.774-1.727 5.432-6.187 3.706-9.961-1.728-3.773-6.185-5.43-9.961-3.706-13.845 6.337-16.616 4.358-16.64 4.334-.624-.657.232-3.128 1.156-5.045 2.223-4.615 6.591-10.336 10.815-15.868 9.747-12.767 19.826-25.97 13.728-37.658-6.591-12.639-23.377-8.934-38.184-5.664-4.863 1.072-12.579 2.776-16.078 2.551 1.699-18.512 32.866-38.999 57.042-49.18 6.107 11.379 13.465 21.925 22.004 31.406 30.204 33.536 72.176 51.263 121.379 51.263 26.074 0 50.267-5.024 71.906-14.932 31.26-14.309 56.324-38.584 72.498-69.701 10.54 4.343 24.389 11.433 36.228 19.715 15.981 11.179 25.206 22.297 26.112 31.43-3.499.227-11.214-1.478-16.074-2.551-14.806-3.269-31.592-6.973-38.184 5.663-6.099 11.689 3.981 24.891 13.729 37.659 4.224 5.533 8.591 11.253 10.814 15.868.924 1.917 1.781 4.388 1.157 5.045-.013.015-2.016 1.243-9.787-1.511-7.155-2.535-15.761-7.176-24.085-11.664-17.141-9.244-29.527-15.922-38.036-10.719-7.543 4.613-8.147 15.93-8.912 30.257-.384 7.203-.783 14.652-2.128 20.154-.996 4.075-2.233 5.734-2.779 5.822-4.757.731-15.984-12.526-22.028-19.662-10.246-12.1-19.083-22.549-29.23-20.95-9.547 1.508-15.076 12.493-21.479 25.214-4.273 8.491-11.426 22.703-16.56 22.703s-12.287-14.211-16.56-22.703c-6.403-12.721-11.932-23.706-21.479-25.214-10.127-1.599-18.984 8.849-29.23 20.95-6.044 7.138-17.281 20.408-22.028 19.662-.546-.088-1.783-1.746-2.779-5.822-1.345-5.502-1.744-12.95-2.128-20.154-.765-14.327-1.37-25.644-8.911-30.256-6.704-4.104-15.66-.963-28.862 5.842-3.689 1.901-5.138 6.434-3.236 10.122 1.901 3.689 6.433 5.139 10.122 3.236 8.24-4.247 12.134-5.538 13.941-5.884 1.177 3.51 1.645 12.26 1.937 17.743.939 17.582 2.003 37.512 17.525 40.011 13.105 2.117 24.689-11.563 35.887-24.789 4.58-5.409 12.109-14.299 15.506-15.665 2.74 1.937 7.443 11.284 10.307 16.975 7.311 14.518 15.593 30.974 29.988 30.974s22.677-16.456 29.985-30.975c2.864-5.691 7.568-15.037 10.307-16.975 3.397 1.366 10.926 10.256 15.506 15.665 11.198 13.225 22.779 26.905 35.888 24.789 15.521-2.499 16.586-22.429 17.525-40.011.294-5.492.761-14.264 1.944-17.761 4.661.836 15.895 6.893 22.863 10.65 20.054 10.813 40.789 21.995 51.901 10.297 3.647-3.838 6.865-10.757 1.487-21.92-2.887-5.993-7.728-12.334-12.408-18.464-3.967-5.196-8.068-10.567-10.468-15.109-2.09-3.955-2.167-5.932-1.862-6.516.01-.01 1.208-.966 6.107-.633 4.504.305 10.091 1.538 15.493 2.731 12.375 2.731 23.061 5.09 29.823-.586 2.226-1.866 4.824-5.348 4.568-11.335zm-80.51-204.206c-18.664-1.266-33.464-16.843-33.464-35.823 0-9.926 4.176-19.342 11.23-26.055 9.633 19.992 17.087 40.735 22.234 61.878zm-71.047 206.664c-9.082-9.743-14.219-22.625-14.219-36.053 0-29.163 23.727-52.89 52.89-52.89 10.893 0 21.482 3.371 30.318 9.564-12.91 35.437-37.158 63.335-68.989 79.379z"/></svg>