<?xml version="1.0"?>
<svg xmlns="http://www.w3.org/2000/svg" viewBox="0 0 64 64" width="512" height="512"><g id="Filled_outline" data-name="Filled outline"><path d="M12,44h1V40H12a29.557,29.557,0,0,0-9,2H3A29.557,29.557,0,0,0,12,44Z" style="fill:#4da19a"/><path d="M47,32V18H41a4,4,0,0,1-4-4h0a4,4,0,0,1,4-4H51a4,4,0,0,1,4,4V48H13V40h0V38a6,6,0,0,1,6-6Z" style="fill:#4da19a"/><path d="M47,40V18h2a2,2,0,0,1,2,2V48H13V40Z" style="fill:#ffd782"/><rect x="36" y="35" width="2" height="2" style="fill:#426d78"/><rect x="32" y="32" width="2" height="3" style="fill:#426d78"/><rect x="28" y="35" width="2" height="2" style="fill:#426d78"/><rect x="24" y="32" width="2" height="3" style="fill:#426d78"/><rect x="40" y="32" width="2" height="3" style="fill:#426d78"/><rect x="20" y="35" width="2" height="2" style="fill:#426d78"/><circle cx="44.5" cy="12.5" r="1.5" style="fill:#25313e"/><path d="M51,44h2a8,8,0,0,1,8,8v0a0,0,0,0,1,0,0H59a8,8,0,0,1-8-8v0A0,0,0,0,1,51,44Z" transform="translate(112 96) rotate(-180)" style="fill:#426d78"/><path d="M37,44h6a0,0,0,0,1,0,0v0A10,10,0,0,1,33,54H27a0,0,0,0,1,0,0v0A10,10,0,0,1,37,44Z" transform="translate(70 98) rotate(-180)" style="fill:#426d78"/><path d="M16,44h4a0,0,0,0,1,0,0v0A10,10,0,0,1,10,54H6a0,0,0,0,1,0,0v0A10,10,0,0,1,16,44Z" transform="translate(26 98) rotate(-180)" style="fill:#426d78"/><path d="M56,43.525V14a5.006,5.006,0,0,0-5-5H41a5,5,0,0,0,0,10h5V31H19a7.008,7.008,0,0,0-7,7v1a30.261,30.261,0,0,0-9.372,2.071,1,1,0,0,0,0,1.858A34.22,34.22,0,0,0,9.9,44.852,11,11,0,0,0,5,54v1h5a11,11,0,0,0,9.786-6h7.428A10.928,10.928,0,0,0,26,54v1h7a11,11,0,0,0,9.786-6h8.736A9,9,0,0,0,59,53h3V52A9.008,9.008,0,0,0,56,43.525ZM41,17a3,3,0,1,1,0-6H51a3,3,0,0,1,3,3V43.059A8.935,8.935,0,0,0,53,43H52V20a3,3,0,0,0-3-3ZM19,33h5v2h2V33h6v2h2V33h6v2h2V33h4v6H14V38A5.006,5.006,0,0,1,19,33Zm-7,8v2a22.449,22.449,0,0,1-5.854-1A22.449,22.449,0,0,1,12,41ZM10,53H7.055A9.013,9.013,0,0,1,16,45h2.945A9.013,9.013,0,0,1,10,53Zm23,0H28.055A9.013,9.013,0,0,1,37,45h4.945A9.013,9.013,0,0,1,33,53Zm10.574-6A10.966,10.966,0,0,0,44,44V43H37a10.986,10.986,0,0,0-8.479,4H20.574A10.966,10.966,0,0,0,21,44V43H16a10.989,10.989,0,0,0-2,.191V41H48V19h1a1,1,0,0,1,1,1V47ZM59,51a7.011,7.011,0,0,1-6.929-6H53a7.011,7.011,0,0,1,6.929,6Z"/><rect x="36" y="35" width="2" height="2"/><rect x="28" y="35" width="2" height="2"/><rect x="20" y="35" width="2" height="2"/><circle cx="44.5" cy="12.5" r="1.5"/></g></svg>
