<?xml version="1.0" encoding="utf-8"?>
<!-- Generator: Adobe Illustrator 22.0.1, SVG Export Plug-In . SVG Version: 6.00 Build 0)  -->
<svg version="1.1" id="Volcano" xmlns="http://www.w3.org/2000/svg" xmlns:xlink="http://www.w3.org/1999/xlink" x="0px" y="0px"
	 viewBox="0 0 512 512" style="enable-background:new 0 0 512 512;" xml:space="preserve">
<style type="text/css">
	.st0{fill:#915E36;}
	.st1{fill:#C6C7C8;}
	.st2{fill:#87888A;}
	.st3{fill:#58585A;}
	.st4{fill:#673B15;}
	.st5{fill:#9C9E9F;}
</style>
<title>Icon_Volcano</title>
<g>
	<path class="st0" d="M393.4,448.8H118.6l5.7-15.9c4-11.2,11.1-21,20.6-28.2c36.9-28.1,63.7-67.4,76.3-112l0,0
		c21.4,13.2,48.3,13.2,69.7,0l0,0c12.6,44.6,39.4,83.9,76.3,112c9.4,7.2,16.6,17,20.6,28.2L393.4,448.8z"/>
	<path class="st1" d="M445.9,145.6c0-0.4,0-0.8,0-1.3c0-19.3-15.6-34.9-34.8-34.9c-7.6,0-15,2.5-21,7
		c-15.2-24.1-46.9-31.6-71.3-16.9c-19.9-34.7-64.1-46.7-98.8-26.8c-11.2,6.4-20.4,15.6-26.8,26.8c-24.6-14.9-56.5-7.1-71.6,17.4
		c-15.1-11.9-37-9.4-49,5.7c-4.9,6.1-7.5,13.8-7.5,21.6c0,0.5,0,1,0,1.5c-15.3,4.6-25.8,18.7-25.8,34.7l0,0
		c0,20,16.2,36.2,36.2,36.2c0,0,0,0,0,0h361c20,0,36.2-16.2,36.2-36.1c0,0,0,0,0,0l0,0C472.6,164.1,461.7,149.8,445.9,145.6z"/>
	<path class="st2" d="M326.8,139.6c-2.9-10.6-13.8-16.8-24.4-13.9c-4.5,1.2-8.4,4-11.1,7.9c-3.4-20.2-22.5-33.8-42.6-30.4
		c-15.6,2.6-27.8,14.9-30.4,30.5c-6.2-9-18.5-11.4-27.6-5.2c-3.9,2.6-6.7,6.6-7.9,11.1c-11.4,1.5-19.4,11.9-17.9,23.3
		c1.3,10.4,10.2,18.1,20.6,18.1h9.1c19.9,0,36.1,16.2,36.1,36.1v34.8c0,13.3,10.8,24.1,24.1,24.1h0l0,0c13.3,0,24.1-10.8,24.1-24.1
		v-34.8c0-19.9,16.1-36.1,36.1-36.1c0,0,0,0,0,0h9.1c11.5,0,20.8-9.4,20.7-20.8C344.9,149.7,337.1,140.9,326.8,139.6L326.8,139.6z"
		/>
	<path class="st3" d="M254.9,280.1c-15.5,0-28.1-12.6-28.1-28.1v-34.8c0-17.7-14.4-32.1-32.1-32.1h-9.1c-13.7,0-24.8-11.1-24.8-24.7
		c0-11.5,7.9-21.5,19.1-24.2c4.9-12.2,18.7-18.2,30.9-13.3c2,0.8,3.8,1.8,5.5,3.1c7.7-21.3,31.2-32.3,52.5-24.6
		c11.4,4.1,20.4,13.1,24.6,24.5c10.5-7.9,25.5-5.8,33.4,4.8c1.3,1.7,2.3,3.6,3.1,5.5c13.3,3.1,21.6,16.4,18.5,29.7
		c-2.6,11.2-12.6,19.2-24.2,19.2h-9.1c-17.7,0-32.1,14.4-32.1,32.1v34.8C283,267.5,270.4,280.1,254.9,280.1z M202,129.1
		c-7.1,0-13.3,4.8-15.3,11.6c-0.4,1.6-1.8,2.7-3.4,2.9c-9.2,1.3-15.6,9.7-14.3,18.9c1.1,8.2,8.1,14.4,16.4,14.5h9.1
		c22.1,0,40.1,18,40.1,40.1v34.8c0.2,11.1,9.5,19.9,20.6,19.7c10.8-0.2,19.4-8.9,19.7-19.7v-34.8c0-22.1,18-40.1,40.1-40.1h9.1
		c9.3,0,16.8-7.6,16.7-16.8c0-8.4-6.3-15.5-14.6-16.6c-1.6-0.2-2.9-1.3-3.4-2.9c-2.3-8.4-11-13.4-19.5-11.1c-3.6,1-6.8,3.2-8.9,6.3
		c-1.3,1.8-3.8,2.3-5.6,1c-0.9-0.6-1.5-1.6-1.7-2.6c-3-18-20.1-30.1-38-27c-13.9,2.3-24.7,13.2-27,27.1c-0.4,2.2-2.4,3.6-4.6,3.3
		c-1.1-0.2-2-0.8-2.6-1.7C212.1,131.7,207.2,129.1,202,129.1z"/>
	<path class="st3" d="M256,235c-2.2,0-4-1.8-4-4v-38.5c0-2.2,1.8-4,4-4s4,1.8,4,4V231C260,233.2,258.2,235,256,235z"/>
	<rect x="252" y="162.2" class="st3" width="8" height="15"/>
	<path class="st4" d="M393.4,452.8H118.6c-2.2,0-4-1.8-4-4c0-0.5,0.1-0.9,0.2-1.4l5.7-15.9c4.2-11.9,11.9-22.3,21.9-30
		c36.1-27.6,62.4-66.2,74.9-109.9c0.6-2.1,2.8-3.4,4.9-2.8c0.4,0.1,0.7,0.3,1,0.4c20.1,12.5,45.4,12.5,65.5,0
		c1.9-1.2,4.3-0.6,5.5,1.3c0.2,0.3,0.3,0.7,0.4,1c5,17.8,12.4,34.8,21.9,50.6c1.2,1.9,0.6,4.3-1.2,5.5c-1.9,1.2-4.3,0.6-5.5-1.2
		c0-0.1-0.1-0.1-0.1-0.2c-9-15-16.1-31-21.3-47.7c-20.3,10.6-44.6,10.6-64.9,0c-13.5,43.4-40.2,81.6-76.3,109.2
		c-8.8,6.7-15.5,15.9-19.2,26.4l-3.8,10.5h263.4l-3.7-10.5c-3.7-10.5-10.4-19.6-19.2-26.4c-12.6-9.6-24.1-20.5-34.3-32.5
		c-1.4-1.7-1.2-4.2,0.5-5.6c1.7-1.4,4.2-1.2,5.6,0.5c9.8,11.6,20.9,22.1,33,31.3c10.1,7.7,17.7,18.1,21.9,30l5.6,15.9
		c0.7,2.1-0.3,4.4-2.4,5.1C394.3,452.7,393.9,452.7,393.4,452.8L393.4,452.8z"/>
	<path class="st4" d="M324,367.5c-3.1-4-6.1-8.2-8.9-12.4l6.7-4.4c2.7,4.1,5.6,8.1,8.6,12L324,367.5z"/>
	<path class="st5" d="M436.5,220.6H406c-2.2,0-4-1.8-4-4s1.8-4,4-4h30.6c17.8,0,32.2-14.4,32.1-32.2c0-14.5-9.7-27.2-23.8-31
		c-1.8-0.5-3-2.1-3-4v-0.1c0-0.3,0-0.6,0-1c0-17-13.8-30.9-30.9-30.9c-6.7,0-13.2,2.2-18.6,6.2c-1.8,1.3-4.3,1-5.6-0.7
		c-0.1-0.1-0.1-0.2-0.2-0.3c-14-22.3-43.3-29.3-65.9-15.6c-1.9,1.1-4.3,0.5-5.5-1.3c0,0,0-0.1-0.1-0.1
		c-18.8-32.8-60.6-44.1-93.4-25.3c-10.5,6-19.3,14.8-25.3,25.3c-0.5,0.9-1.4,1.6-2.5,1.9c-1,0.3-2.2,0.1-3.1-0.4
		c-22.7-13.7-52.2-6.6-66.1,16c-1.2,1.9-3.6,2.4-5.5,1.3c-0.1-0.1-0.3-0.2-0.4-0.3c-5.4-4.3-12.2-6.6-19.1-6.6
		c-17.1,0-30.9,13.8-30.9,30.9c0,0.4,0,0.9,0,1.3c0.1,1.8-1.1,3.5-2.8,4c-17,5.1-26.7,23-21.6,40c4.1,13.6,16.6,23,30.9,23H201
		c2.2,0,4,1.8,4,4s-1.8,4-4,4H75.5c-22.2,0-40.1-18-40.1-40.2c0-16.6,10.2-31.5,25.7-37.4c0.7-21,17.9-37.6,38.9-37.6
		c7.3,0,14.4,2,20.6,5.9c16.3-22.5,46.5-29.7,71.3-17.1c22.8-35.5,70.1-45.7,105.6-22.9c9.2,5.9,17,13.7,22.9,22.9
		c24.5-12.6,54.6-5.5,71,16.7c6-3.6,12.9-5.5,19.9-5.5c20.8,0,37.9,16.4,38.8,37.2c20.9,7.5,31.8,30.4,24.3,51.3
		C468.6,209.9,453.5,220.6,436.5,220.6L436.5,220.6z"/>
	<rect x="381" y="212.6" class="st5" width="15" height="8"/>
	<path class="st5" d="M371,220.6h-60c-2.2,0-4-1.8-4-4s1.8-4,4-4h60c2.2,0,4,1.8,4,4S373.2,220.6,371,220.6z"/>
</g>
</svg>
