<svg width="512" height="512" viewBox="0 0 512 512" fill="none" xmlns="http://www.w3.org/2000/svg">
<g clip-path="url(#clip0)">
<path d="M148.172 355.129C158.114 356.531 163.72 344.074 156.078 337.562L52.7135 249.48L86.593 251.345C92.6633 251.679 95.8314 244.359 91.5202 240.07C91.4702 240.021 91.4202 239.97 91.3702 239.92C76.8285 225.379 69.0742 206.622 68.1042 187.583H68.1092C67.7121 167.701 59.9278 147.938 44.7551 132.767C37.3198 125.331 28.7834 119.671 19.67 115.784C37.7728 103.77 63.2649 98.555 87.144 112.628C59.3918 84.8764 51.6974 44.6616 64.06 10C68.8502 21.2305 75.8255 31.75 84.9869 40.9124C103.684 59.6092 128.036 69.2017 152.537 69.6917V69.6857C175.998 70.8807 199.113 80.4372 217.032 98.356C222.875 104.199 227.584 110.813 231.401 117.814C234.582 123.651 243.44 121.189 243.084 114.551L240.26 61.9323L328.342 165.296C334.854 172.938 347.311 167.332 345.909 157.39L341.798 128.241L445.454 231.897C507.016 293.459 508.406 393.713 447.056 455.488C385.571 517.401 285.536 517.533 223.886 455.883L119.021 351.018L148.172 355.129Z" fill="#FFA96B"/>
<path d="M208.449 335.495L208.442 335.503C208.436 335.477 208.429 335.452 208.423 335.426C207.094 331.712 206.023 327.929 205.186 324.103C189.558 278.655 149.636 262.869 149.636 262.869C149.636 262.869 175.649 241.931 214.466 259.81C195.544 249.137 176.918 197.517 194.684 156.91C218.739 195.509 267.944 202.053 312.185 213.793C318.117 214.904 323.962 216.594 329.625 218.876C329.636 218.88 329.648 218.883 329.659 218.887L329.657 218.888C340.802 223.385 351.248 230.146 360.282 239.182C396.258 275.157 396.258 333.486 360.282 369.462C324.307 405.437 265.978 405.437 230.002 369.462C220.072 359.53 212.898 347.892 208.449 335.495Z" fill="#FFCD69"/>
<path d="M247.459 316.274L257.15 293.673C265.808 273.483 283.499 258.574 304.864 253.46L330.835 247.245C351.844 242.217 373.997 247.241 390.781 260.84L417.041 282.116C440.002 300.718 448.692 331.804 438.71 359.618L428.533 387.97C420.31 410.881 400.703 427.822 376.841 432.634L345.367 438.981C319.029 444.292 291.988 433.949 275.915 412.419L255.643 385.261C240.798 365.373 237.679 339.082 247.459 316.274Z" fill="#FF7D97"/>
<path d="M143.364 255.078C140.797 257.145 139.42 260.35 139.672 263.638C139.924 266.926 141.788 269.881 144.641 271.534C145.035 271.761 184.007 294.704 198.153 335.838C215.075 385.857 250.143 402.202 258.165 405.356L267.901 418.401C283.034 438.672 306.991 450.335 331.787 450.334C336.96 450.334 342.171 449.826 347.345 448.783L378.818 442.437C405.942 436.967 428.599 417.392 437.947 391.348L448.123 362.996C459.527 331.224 449.566 295.597 423.337 274.346L397.078 253.07C392.562 249.411 387.674 246.299 382.532 243.747C366.113 223.115 342.829 209.668 313.834 203.926C285.023 198.222 224.778 186.293 203.174 151.624C201.211 148.475 197.667 146.666 193.963 146.939C190.262 147.208 187.012 149.504 185.524 152.904C172.334 183.052 176.921 218.506 188.454 242.722C161.432 240.899 144.308 254.319 143.364 255.078ZM410.744 289.885C430.376 305.792 437.832 332.457 429.296 356.24L419.12 384.592C412.124 404.084 395.166 418.737 374.863 422.83L343.389 429.176C320.957 433.699 297.616 424.773 283.928 406.436L263.656 379.279C250.988 362.309 248.304 339.677 256.65 320.216L266.341 297.614C273.717 280.413 288.988 267.543 307.19 263.186L325.015 258.921V261.691C325.015 267.213 329.493 271.691 335.015 271.691C340.537 271.691 345.016 267.213 345.016 261.691V255.411C345.637 255.392 346.258 255.357 346.878 255.357C360.422 255.357 373.825 259.972 384.485 268.608L410.744 289.885ZM210.281 268.894C215.152 271.134 220.928 269.139 223.37 264.363C225.811 259.588 224.05 253.735 219.379 251.1C208.133 244.758 192.703 210.929 198.769 177.676C229.487 207.612 282.636 218.137 309.948 223.544C322.115 225.954 333.267 229.989 342.767 235.476C337.988 235.721 333.214 236.393 328.508 237.519L302.536 243.734C278.217 249.554 257.816 266.75 247.961 289.731L238.27 312.333C231.547 328.008 230.19 345.22 233.874 361.389C227.634 353.282 221.631 342.822 217.084 329.381C206.313 298.06 184.137 276.259 169.302 264.472C178.827 261.813 192.964 260.915 210.281 268.894Z" fill="black"/>
<path d="M373.855 303.108C369.951 299.201 363.617 299.202 359.712 303.109C355.807 307.014 355.807 313.346 359.713 317.251L367.576 325.114C369.529 327.067 372.088 328.043 374.647 328.043C377.206 328.043 379.766 327.066 381.718 325.113C385.623 321.207 385.623 314.875 381.717 310.97L373.855 303.108Z" fill="black"/>
<path d="M328.348 377.35H315.347C309.825 377.35 305.347 381.828 305.347 387.35C305.347 392.873 309.825 397.351 315.347 397.351H328.348C333.87 397.351 338.348 392.873 338.348 387.35C338.348 381.828 333.87 377.35 328.348 377.35Z" fill="black"/>
<path d="M313.347 343.027V335.165C313.347 329.643 308.869 325.165 303.347 325.165C297.824 325.165 293.346 329.643 293.346 335.165V343.027C293.346 348.55 297.824 353.028 303.347 353.028C308.869 353.028 313.347 348.55 313.347 343.027Z" fill="black"/>
<path d="M373.687 372.571C369.782 376.475 369.781 382.807 373.686 386.713C375.638 388.666 378.198 389.643 380.757 389.643C383.316 389.643 385.875 388.666 387.827 386.714L393.389 381.154C397.294 377.25 397.295 370.918 393.39 367.011C389.487 363.107 383.154 363.106 379.247 367.01L373.687 372.571Z" fill="black"/>
<path d="M452.528 224.826L348.873 121.17C345.832 118.129 341.186 117.372 337.338 119.293C333.489 121.213 331.298 125.379 331.899 129.639L336.009 158.786C336.01 158.794 336.011 158.801 336.012 158.808C335.998 158.814 335.985 158.821 335.971 158.827C335.966 158.821 335.961 158.815 335.956 158.809L247.873 55.4455C245.092 52.1813 240.538 51.0523 236.555 52.6433C232.572 54.2334 230.045 58.1856 230.276 62.4678L232.333 100.786C229.77 97.3754 227.022 94.2002 224.105 91.2831C205.101 72.2802 179.55 61.0557 152.731 59.6907C152.52 59.6787 152.942 59.6847 152.731 59.6907C129.935 59.1536 108.196 49.9772 92.0607 33.8395C84.0093 25.7891 77.685 16.4477 73.2598 6.07425C71.6448 2.28808 67.8586 -0.126032 63.7584 0.00297426C59.6432 0.12698 56.0251 2.7611 54.642 6.63927C44.2495 35.7756 47.0797 67.747 61.2813 94.3332C45.3126 93.2342 28.9308 97.6354 14.1412 107.45C11.078 109.483 9.37596 113.033 9.71198 116.694C10.047 120.356 12.3651 123.539 15.7473 124.981C23.9416 128.476 31.3229 133.474 37.6852 139.835C50.4268 152.577 57.6711 169.49 58.1052 187.487C58.1042 187.687 58.1082 187.887 58.1182 188.089C59.1092 207.54 66.3525 225.988 78.7471 240.895L53.2659 239.492C48.9597 239.26 45.0236 241.78 43.4305 245.764C41.8374 249.748 42.9635 254.305 46.2296 257.089L149.592 345.17L149.61 345.185C149.604 345.199 149.598 345.213 149.591 345.226C149.584 345.225 149.577 345.224 149.57 345.223L120.422 341.113C116.167 340.521 111.998 342.703 110.076 346.552C108.156 350.401 108.912 355.045 111.954 358.087L184.998 431.131C188.904 435.036 195.234 435.036 199.141 431.131C203.047 427.226 203.047 420.894 199.141 416.988L147.242 365.088C155.98 366.12 164.215 361.475 167.842 353.414C171.533 345.212 169.413 335.781 162.568 329.947L81.7632 261.095L86.0434 261.331C92.9827 261.682 99.251 257.875 102.064 251.559C104.896 245.199 103.526 237.906 98.593 232.997L98.443 232.848C86.2684 220.674 79.0541 204.532 78.1091 187.366C77.638 164.074 68.3056 142.174 51.8289 125.695C48.5097 122.375 44.9726 119.343 41.2344 116.612C52.1149 113.31 66.8155 112.255 82.0672 121.243C86.4054 123.802 91.9677 122.732 95.0508 118.751C98.1339 114.771 97.7769 109.117 94.2158 105.557C76.075 87.4169 66.9946 62.3258 68.5626 37.3397C71.4287 41.0648 74.5509 44.617 77.917 47.9851C97.8019 67.87 124.232 79.1295 152.339 79.6906H152.355C174.096 80.8776 194.544 90.009 209.962 105.428C214.775 110.241 219.033 116.018 222.622 122.601C226.285 129.322 233.976 132.559 241.328 130.475C248.652 128.398 253.481 121.628 253.072 114.015L251.833 90.9301L320.732 171.784C326.567 178.629 336 180.748 344.2 177.057C352.26 173.43 356.906 165.193 355.874 156.457L438.385 238.97C496.375 296.958 497.082 390.928 439.963 448.442C393.985 494.741 321.912 505.288 264.693 474.088C259.845 471.446 253.77 473.232 251.127 478.08C248.482 482.93 250.271 489.004 255.119 491.647C279.64 505.018 307.533 512.001 335.531 512C343.153 512 350.788 511.482 358.359 510.435C394.936 505.374 428.062 488.811 454.155 462.537C519.018 397.224 518.288 290.587 452.528 224.826Z" fill="black"/>
<path d="M39.2357 334.193C35.3296 330.289 28.9993 330.289 25.0921 334.193C21.1869 338.098 21.1869 344.43 25.0921 348.337L67.845 391.09C69.7981 393.042 72.3572 394.019 74.9163 394.019C77.4754 394.019 80.0346 393.042 81.9876 391.09C85.8928 387.184 85.8928 380.852 81.9876 376.946L39.2357 334.193Z" fill="black"/>
<path d="M382.654 98.1344C384.607 100.086 387.166 101.064 389.726 101.064C392.285 101.064 394.844 100.086 396.797 98.1344C400.702 94.2292 400.702 87.8969 396.797 83.9907L354.044 41.2378C350.138 37.3336 343.807 37.3336 339.9 41.2378C335.995 45.143 335.995 51.4753 339.9 55.3815L382.654 98.1344Z" fill="black"/>
<path d="M223.89 445.89C221.25 445.89 218.68 446.95 216.82 448.81C214.961 450.669 213.89 453.249 213.89 455.89C213.89 458.52 214.96 461.1 216.82 462.95C218.68 464.81 221.251 465.88 223.89 465.88C226.52 465.88 229.1 464.811 230.96 462.95C232.819 461.09 233.89 458.52 233.89 455.89C233.89 453.249 232.82 450.68 230.96 448.81C229.1 446.95 226.52 445.89 223.89 445.89Z" fill="black"/>
</g>
<defs>
<clipPath id="clip0">
<rect width="512" height="512" fill="white"/>
</clipPath>
</defs>
</svg>
