<svg width="319" height="332" viewBox="0 0 319 332" fill="none" xmlns="http://www.w3.org/2000/svg">
<path d="M286.602 299.578C282.01 299.578 277.711 300.869 274.016 303.125C272.589 286.596 257.997 273.641 241.742 273.641C228.777 273.641 216.409 281.889 211.724 293.619C199.518 286.707 190.478 274.315 187.874 259.271C185.843 247.558 183.993 229.719 184.422 217.875C185.051 200.693 189.449 175.998 193.469 160.962V160.955L159.5 152.201L125.531 160.955V160.962C129.589 176.138 133.948 200.678 134.578 217.875C135.007 229.713 133.159 247.548 131.126 259.271C128.522 274.315 119.482 286.707 107.276 293.619C102.591 281.889 90.2234 273.641 77.2578 273.641C61.0025 273.641 46.4108 286.596 44.984 303.125C41.2893 300.869 36.9903 299.578 32.3984 299.578C18.6353 299.578 6.23047 311.192 6.23047 325.516H312.77C312.77 311.192 300.365 299.578 286.602 299.578Z" fill="#FF9256"/>
<path d="M69.1644 170.649L68.9713 171.097C63.5134 173.658 57.4636 175.078 51.0898 175.078C27.0029 175.078 6.23047 154.756 6.23047 129.688C6.23047 104.619 27.0029 84.2969 51.0898 84.2969C54.0618 84.2969 56.9589 84.6081 59.7627 85.1917C58.1863 80.8861 57.3203 76.2109 57.3203 71.3281C57.3203 49.8389 75.3014 32.4219 95.9492 32.4219C100.136 32.4219 104.342 33.1416 108.329 34.4645L108.41 34.2051C119.675 17.443 138.36 6.48438 159.5 6.48438C180.64 6.48438 199.325 17.443 210.59 34.2051L210.671 34.4645C214.658 33.1416 218.864 32.4219 223.051 32.4219C243.699 32.4219 261.68 49.8389 261.68 71.3281C261.68 76.2109 260.814 80.8861 259.237 85.1917C262.041 84.6081 264.938 84.2969 267.91 84.2969C291.997 84.2969 312.77 104.619 312.77 129.688C312.77 154.756 291.997 175.078 267.91 175.078C261.536 175.078 255.487 173.658 250.029 171.097L249.306 170.993C245.225 173.58 240.459 175.078 235.512 175.078C222.696 175.078 210.889 165.008 209.5 152.059C202.534 158.623 193.597 162.109 184.422 162.109C174.846 162.109 166.117 158.361 159.5 152.201C152.883 158.361 144.154 162.109 134.578 162.109C125.403 162.109 116.466 158.623 109.5 152.059C108.111 165.008 96.3044 175.078 83.4883 175.078C78.3295 175.078 73.3575 173.444 69.1644 170.649Z" fill="#FFF2A0"/>
<path d="M285.355 45.3906C292.237 45.3906 297.816 39.5843 297.816 32.4219C297.816 25.2594 292.237 19.4531 285.355 19.4531C278.473 19.4531 272.895 25.2594 272.895 32.4219C272.895 39.5843 278.473 45.3906 285.355 45.3906Z" fill="#EEFAFF"/>
<path d="M32.3984 64.8438C35.8394 64.8438 38.6289 61.9406 38.6289 58.3594C38.6289 54.7782 35.8394 51.875 32.3984 51.875C28.9574 51.875 26.168 54.7782 26.168 58.3594C26.168 61.9406 28.9574 64.8438 32.3984 64.8438Z" fill="black"/>
<path d="M206.049 162.623C211.23 173.776 222.699 181.562 235.512 181.562C240.463 181.562 245.371 180.354 249.868 178.056C255.606 180.384 261.663 181.562 267.91 181.562C295.474 181.562 319 158.364 319 129.688C319 100.721 295.071 77.5713 267.468 77.8144C267.762 75.6778 267.91 73.5121 267.91 71.3281C267.91 46.065 246.953 25.9375 223.051 25.9375C219.779 25.9375 216.493 26.3181 213.236 27.0541C200.275 10.0391 180.482 0 159.5 0C138.518 0 118.725 10.0391 105.765 27.0541C102.507 26.3181 99.2215 25.9375 95.9492 25.9375C72.0884 25.9375 51.0898 46.0242 51.0898 71.3281C51.0898 73.5121 51.2375 75.6778 51.5316 77.8144C24.0839 77.5674 0 100.569 0 129.688C0 158.367 23.5281 181.562 51.0898 181.562C57.3365 181.562 63.3925 180.384 69.1302 178.057C73.6273 180.357 78.5251 181.562 83.4883 181.562C96.3 181.562 107.77 173.775 112.951 162.624C115.327 164.037 117.827 165.209 120.408 166.131C122.63 175.14 125.141 187.854 126.76 200.306C113.717 201.938 90.9648 205.481 90.9648 217.875C90.9648 230.444 114.118 233.935 127.778 235.567C127.172 243.19 126.183 251.266 124.994 258.122C123.158 268.735 117.615 278.045 109.486 284.442C102.46 273.997 90.1069 267.156 77.2578 267.156C60.334 267.156 45.4606 278.754 40.4663 294.197C37.8482 293.469 35.1361 293.094 32.3984 293.094C14.8366 293.094 0 307.941 0 325.516C0 329.096 2.79 332 6.23047 332H131.463C134.903 332 137.693 329.096 137.693 325.516C137.693 321.935 134.903 319.031 131.463 319.031H13.6939C16.5637 311.636 24.0814 306.062 32.3984 306.062C35.7249 306.062 38.9859 306.981 41.8314 308.718C43.6725 309.842 45.9379 309.907 47.8357 308.891C49.7335 307.875 50.9989 305.918 51.1902 303.705C52.3123 290.703 64.0056 280.125 77.2578 280.125C87.6191 280.125 97.824 286.847 101.522 296.108C102.2 297.805 103.537 299.122 105.202 299.734C106.867 300.345 108.702 300.193 110.254 299.315C124.536 291.226 134.379 277.049 137.257 260.422C138.508 253.21 139.549 244.723 140.189 236.706C144.433 236.988 148.805 237.174 153.269 237.264V247.703C153.269 251.284 156.059 254.188 159.499 254.188C162.94 254.188 165.73 251.284 165.73 247.703V237.264C170.195 237.174 174.566 236.988 178.809 236.706C179.45 244.72 180.49 253.208 181.741 260.42C184.619 277.049 194.462 291.225 208.745 299.314C210.296 300.192 212.132 300.345 213.797 299.733C215.461 299.122 216.799 297.804 217.476 296.107C221.176 286.847 231.381 280.125 241.742 280.125C254.994 280.125 266.688 290.703 267.81 303.705C268.002 305.918 269.267 307.874 271.165 308.891C273.061 309.906 275.329 309.842 277.169 308.718C280.014 306.981 283.276 306.062 286.602 306.062C294.919 306.062 302.436 311.636 305.307 319.031H187.537C184.097 319.031 181.307 321.935 181.307 325.516C181.307 329.096 184.097 332 187.537 332H312.77C316.21 332 319 329.096 319 325.516C319 307.941 304.163 293.094 286.602 293.094C283.864 293.094 281.152 293.469 278.534 294.197C273.539 278.751 258.664 267.156 241.742 267.156C228.893 267.156 216.54 273.997 209.514 284.442C201.384 278.045 195.842 268.735 194.004 258.12C192.816 251.265 191.827 243.187 191.222 235.567C204.474 233.983 228.035 230.459 228.035 217.875C228.035 205.494 205.686 201.988 192.24 200.306C193.859 187.852 196.37 175.138 198.592 166.13C201.175 165.206 203.675 164.034 206.049 162.623ZM128.403 222.589C117.291 221.216 110.447 219.355 106.637 217.877C110.407 216.417 117.156 214.576 128.083 213.202C128.204 214.924 128.295 216.57 128.352 218.12C128.402 219.487 128.417 220.984 128.403 222.589ZM178.15 223.756C174.124 224.026 169.973 224.206 165.73 224.295V188.047C165.73 184.466 162.94 181.562 159.5 181.562C156.06 181.562 153.27 184.466 153.27 188.047V224.294C149.027 224.205 144.877 224.026 140.85 223.756C141.116 207.282 137.359 184.519 133.806 168.581C134.063 168.585 134.32 168.593 134.578 168.593C143.545 168.593 152.22 165.733 159.5 160.453C166.78 165.734 175.455 168.594 184.422 168.594C184.68 168.594 184.937 168.586 185.194 168.581C181.649 184.482 177.883 207.267 178.15 223.756ZM212.363 217.877C208.554 219.354 201.709 221.216 190.597 222.589C190.583 220.985 190.599 219.488 190.649 218.122C190.705 216.57 190.796 214.925 190.918 213.202C201.844 214.576 208.593 216.417 212.363 217.877ZM184.422 155.625C176.748 155.625 169.373 152.693 163.654 147.368C161.288 145.166 157.712 145.166 155.346 147.368C149.627 152.693 142.252 155.625 134.578 155.625C126.806 155.625 119.381 152.623 113.682 147.252C111.95 145.618 109.485 145.132 107.295 145.994C105.107 146.856 103.568 148.92 103.309 151.339C102.287 160.853 93.396 168.594 83.4883 168.594C79.6584 168.594 75.8672 167.416 72.5239 165.188C66.9053 161.444 63.5508 155.445 63.5508 149.141C63.5508 145.559 60.7608 142.656 57.3203 142.656C53.8798 142.656 51.0898 145.559 51.0898 149.141C51.0898 155.999 53.3384 162.581 57.354 168.046C55.3016 168.406 53.2119 168.594 51.0898 168.594C30.1511 168.594 12.4609 150.777 12.4609 129.688C12.4609 108.598 30.1511 90.7812 51.0898 90.7812C53.5827 90.7812 56.0892 91.04 58.5409 91.5503C60.767 92.0152 63.0555 91.182 64.5202 89.3793C65.985 87.5773 66.3925 85.0886 65.585 82.8826C64.2355 79.1969 63.5508 75.3095 63.5508 71.3281C63.5508 53.7535 78.3874 38.9062 95.9492 38.9062C105.54 38.9062 114.943 43.3526 120.416 49.7157C122.712 52.3847 126.65 52.6103 129.214 50.2221C131.778 47.8333 131.996 43.7345 129.7 41.0655C126.585 37.4447 122.654 34.2939 118.236 31.8234C128.788 19.9038 143.732 12.9688 159.5 12.9688C175.268 12.9688 190.212 19.9044 200.764 31.8234C196.346 34.2939 192.414 37.444 189.3 41.0655C187.004 43.7339 187.222 47.8333 189.786 50.2221C192.351 52.6103 196.288 52.3834 198.584 49.7157C204.065 43.3435 213.476 38.9062 223.051 38.9062C240.613 38.9062 255.449 53.7535 255.449 71.3281C255.449 75.3095 254.764 79.1969 253.415 82.8826C252.607 85.0886 253.015 87.5767 254.48 89.3793C255.945 91.182 258.231 92.0146 260.459 91.5503C262.911 91.04 265.417 90.7812 267.91 90.7812C288.849 90.7812 306.539 108.598 306.539 129.688C306.539 150.777 288.849 168.594 267.91 168.594C265.797 168.594 263.716 168.408 261.672 168.051C265.679 162.602 267.91 156.032 267.91 149.141C267.91 145.559 265.12 142.656 261.68 142.656C258.239 142.656 255.449 145.559 255.449 149.141C255.449 155.637 251.942 161.735 246.064 165.455C242.826 167.508 239.177 168.594 235.512 168.594C225.604 168.594 216.713 160.853 215.691 151.339C215.432 148.92 213.892 146.856 211.705 145.994C209.517 145.131 207.05 145.618 205.318 147.252C199.641 152.601 192.218 155.625 184.422 155.625Z" fill="black"/>
<path d="M159.5 293.094C162.94 293.094 165.73 290.191 165.73 286.609V273.641C165.73 270.059 162.94 267.156 159.5 267.156C156.06 267.156 153.27 270.059 153.27 273.641V286.609C153.27 290.191 156.06 293.094 159.5 293.094Z" fill="black"/>
<path d="M285.355 51.875C295.662 51.875 304.047 43.1483 304.047 32.4219C304.047 21.6954 295.662 12.9688 285.355 12.9688C275.049 12.9688 266.664 21.6954 266.664 32.4219C266.664 43.1483 275.049 51.875 285.355 51.875ZM285.355 25.9375C288.791 25.9375 291.586 28.8464 291.586 32.4219C291.586 35.9974 288.791 38.9062 285.355 38.9062C281.92 38.9062 279.125 35.9974 279.125 32.4219C279.125 28.8464 281.92 25.9375 285.355 25.9375Z" fill="black"/>
<path d="M159.5 332C162.941 332 165.73 329.097 165.73 325.516C165.73 321.934 162.941 319.031 159.5 319.031C156.059 319.031 153.27 321.934 153.27 325.516C153.27 329.097 156.059 332 159.5 332Z" fill="black"/>
</svg>
