<svg width="512" height="512" viewBox="0 0 512 512" fill="none" xmlns="http://www.w3.org/2000/svg">
<path d="M292.342 288.862L230.769 242.681L199.98 181.108L246.161 88.7466L266.24 85.3333H191.147L146.104 150.32L169.194 265.771L223.072 311.951L292.342 288.862Z" fill="#FC8C29"/>
<path d="M223.073 318.78C221.467 318.78 219.887 318.213 218.633 317.136L164.753 270.952C163.593 269.959 162.799 268.605 162.5 267.109L139.412 151.659C139.046 149.84 139.44 147.953 140.493 146.43L185.533 81.4438C186.813 79.604 188.906 78.5066 191.147 78.5066H266.24C269.786 78.5066 272.746 81.2236 273.039 84.7598C273.34 88.2926 270.879 91.4704 267.387 92.0626L250.72 94.8957L207.613 181.106L236.153 238.186L296.433 283.402C298.465 284.926 299.486 287.449 299.08 289.956C298.673 292.463 296.907 294.536 294.499 295.339L225.232 318.428C224.526 318.667 223.8 318.78 223.073 318.78ZM175.427 262.12L224.58 304.254L277.82 286.508L226.673 248.142C225.819 247.509 225.133 246.683 224.659 245.736L193.872 184.163C192.913 182.239 192.913 179.98 193.872 178.056L236.82 92.1599H194.72L153.368 151.827L175.427 262.12Z" fill="#4C241D"/>
<path d="M195.971 218.23C196.942 214.834 192.691 212.436 190.303 215.04C175.498 231.192 147.208 260.272 130.71 265.772L115.316 273.47L61.4399 350.435L115.318 311.951C115.318 311.951 146.104 319.649 161.498 296.557L169.195 281.163L199.982 311.95C199.982 311.95 207.679 365.828 269.252 327.344L320.853 337.92C320.853 337.92 346.219 365.829 377.006 335.043L327.68 317.44L354.987 296.96L346.219 258.075C346.219 258.075 404.379 155.341 450.56 139.947H375.467L315.433 188.804C315.433 188.804 346.219 273.468 238.466 281.165C228.61 276.236 217.199 275.425 206.746 278.91L199.982 281.165L184.588 258.075L195.971 218.23Z" fill="#FFCE56"/>
<path d="M61.44 357.263C59.6941 357.263 57.9533 356.593 56.634 355.287C54.2737 352.947 53.9409 349.247 55.8473 346.523L109.727 269.553C110.38 268.619 111.254 267.87 112.266 267.36L127.66 259.663C127.947 259.519 128.247 259.396 128.553 259.292C139.467 255.655 160.14 237.846 185.272 210.425C188.472 206.932 193.592 206.123 197.719 208.418C201.853 210.731 203.839 215.532 202.539 220.099V220.106L192.019 256.911L202.766 273.038L204.585 272.432C216.231 268.553 228.639 269.196 239.751 274.219C271.712 271.638 293.465 261.769 304.43 244.862C319.71 221.302 309.123 191.435 309.018 191.137C308.024 188.402 308.864 185.342 311.124 183.509L371.157 134.653C372.372 133.659 373.9 133.12 375.467 133.12H450.56C453.907 133.12 456.76 135.547 457.3 138.853C457.832 142.157 455.893 145.362 452.719 146.424C413.179 159.604 362.231 244.2 353.466 259.18L361.646 295.46C362.24 298.083 361.233 300.807 359.079 302.42L341.939 315.279L379.3 328.612C381.507 329.399 383.154 331.259 383.667 333.543C384.181 335.826 383.488 338.215 381.834 339.869C370.615 351.092 358.461 356.579 346.201 356.33C331.894 355.99 321.468 347.832 317.52 344.206L270.52 334.575C248.24 347.969 229.7 351.398 215.38 344.735C200.107 337.635 195.079 321.451 193.686 315.312L171.066 292.688L167.607 299.609C167.48 299.865 167.34 300.109 167.18 300.346C152.306 322.663 126.087 320.707 116.9 319.213L65.4063 355.994C64.2133 356.844 62.8258 357.263 61.44 357.263ZM269.254 320.521C269.715 320.521 270.167 320.567 270.628 320.661L322.227 331.233C323.64 331.524 324.934 332.257 325.907 333.331C325.967 333.394 334.527 342.462 346.66 342.683C352.353 342.774 357.827 341.026 363.394 337.434L325.386 323.871C323.019 323.024 321.306 320.947 320.934 318.464C320.553 315.978 321.574 313.487 323.587 311.98L347.354 294.151L339.562 259.574C339.188 257.92 339.449 256.188 340.282 254.71C342.322 251.104 383.415 179.074 425.062 146.773H377.895L323.289 191.213C326.149 201.989 330.976 229.026 315.889 252.293C302.269 273.297 276.383 285.3 238.956 287.973C237.728 288.063 236.515 287.812 235.416 287.27C227.116 283.119 217.696 282.453 208.91 285.386L202.143 287.638C199.216 288.597 196.009 287.509 194.302 284.949L178.908 261.859C177.795 260.192 177.475 258.123 178.021 256.196L185.453 230.187C168.047 248.286 147.54 267.083 133.361 272.08L119.921 278.801L89.8475 321.758L111.355 306.398C112.981 305.237 115.034 304.852 116.975 305.331C118.028 305.58 143.036 311.428 155.595 293.112L163.089 278.115C164.069 276.152 165.936 274.779 168.103 274.425C170.31 274.089 172.483 274.789 174.024 276.338L204.81 307.128C205.856 308.171 206.531 309.528 206.744 310.989C206.764 311.122 209.283 326.909 221.216 332.396C231.417 337.096 246.789 333.343 265.636 321.558C266.726 320.874 267.979 320.521 269.254 320.521ZM195.973 218.23H196.04H195.973ZM189.406 216.359V216.37V216.359Z" fill="#4C241D"/>
<path d="M341.047 328.97C340.26 328.97 339.459 328.83 338.673 328.54L270.693 303.36C267.846 302.307 266.039 299.496 266.259 296.467C266.479 293.438 268.672 290.917 271.638 290.284C274.359 289.69 338.439 274.78 332.151 197.26C331.977 195.06 332.872 192.906 334.565 191.483L369.324 162.277C372.21 159.85 376.511 160.217 378.945 163.113C381.372 165.999 380.998 170.303 378.112 172.73L346.006 199.704C349.42 259.188 314.766 285.915 292.48 296.871L343.421 315.742C346.953 317.049 348.761 320.978 347.447 324.513C346.426 327.264 343.82 328.97 341.047 328.97Z" fill="#4C241D"/>
<path d="M184.313 228.693C181.253 228.693 178.473 226.623 177.7 223.524L164.046 168.911C163.127 165.25 165.354 161.545 169.013 160.63C172.66 159.703 176.372 161.944 177.287 165.596L190.94 220.21C191.86 223.87 189.633 227.576 185.974 228.49C185.419 228.63 184.859 228.693 184.313 228.693Z" fill="#4C241D"/>
<path d="M133.12 290.372C135.137 290.372 136.772 288.737 136.772 286.72C136.772 284.703 135.137 283.068 133.12 283.068C131.103 283.068 129.468 284.703 129.468 286.72C129.468 288.737 131.103 290.372 133.12 290.372Z" fill="#4C241D"/>
</svg>
