<svg width="143" height="197" viewBox="0 0 143 197" fill="none" xmlns="http://www.w3.org/2000/svg">
<rect width="143" height="197" fill="#C4C4C4"/>
<path d="M49.8482 77.14C51.1482 77.14 52.2482 77.36 53.1482 77.8C54.0682 78.24 54.5282 78.8 54.5282 79.48C54.5282 79.78 54.4482 80.04 54.2882 80.26C54.1482 80.48 53.9282 80.59 53.6282 80.59C53.3482 80.59 52.7282 80.37 51.7682 79.93C50.8082 79.47 49.9282 79.24 49.1282 79.24C48.3482 79.24 47.5382 79.49 46.6982 79.99C45.8582 80.49 45.4382 81.1 45.4382 81.82C45.4382 82.8 45.9482 83.52 46.9682 83.98C47.7282 84.32 48.8182 84.63 50.2382 84.91C51.6582 85.17 52.8182 85.72 53.7182 86.56C54.6182 87.38 55.0682 88.63 55.0682 90.31C55.0682 92.87 54.2982 94.76 52.7582 95.98C51.8982 96.66 50.6782 97 49.0982 97C47.5382 97 45.9782 96.57 44.4182 95.71C43.3982 95.17 42.8882 94.63 42.8882 94.09C42.8882 93.89 42.9682 93.67 43.1282 93.43C43.3082 93.19 43.5482 92.99 43.8482 92.83C44.1482 92.67 44.4182 92.65 44.6582 92.77C44.9182 92.87 45.3282 93.06 45.8882 93.34C46.4482 93.62 46.8582 93.81 47.1182 93.91C47.9582 94.23 48.7482 94.39 49.4882 94.39C50.2282 94.39 50.9382 94.03 51.6182 93.31C52.3182 92.57 52.6682 91.67 52.6682 90.61C52.6682 89.21 51.9682 88.23 50.5682 87.67C49.8882 87.39 49.1182 87.18 48.2582 87.04C46.4782 86.72 45.1382 86.19 44.2382 85.45C43.3382 84.69 42.8882 83.55 42.8882 82.03C42.8882 80.51 43.5382 79.32 44.8382 78.46C46.1382 77.58 47.8082 77.14 49.8482 77.14ZM57.5277 82.99L59.0277 83.02C59.3677 83.02 59.5577 83.01 59.5977 82.99V76.84C59.6177 76.5 59.7877 76.21 60.1077 75.97C60.4277 75.73 60.7277 75.61 61.0077 75.61C61.2877 75.61 61.5077 75.7 61.6677 75.88C61.8477 76.06 61.9277 76.34 61.9077 76.72C61.8877 77.1 61.8777 79.18 61.8777 82.96L65.3877 82.84C65.9877 82.84 66.2877 83.19 66.2877 83.89C66.2877 84.41 66.1277 84.8 65.8077 85.06C65.5077 85.32 65.1777 85.46 64.8177 85.48C64.4777 85.5 64.1377 85.51 63.7977 85.51L61.9677 85.48C61.9677 86.3 62.0477 87.92 62.2077 90.34C62.3877 92.76 62.5277 94.33 62.6277 95.05C62.7277 95.75 62.7477 96.21 62.6877 96.43C62.6277 96.63 62.5177 96.77 62.3577 96.85C62.0977 96.97 61.7477 97.03 61.3077 97.03C60.8677 97.03 60.6077 96.79 60.5277 96.31C60.1277 93.69 59.8577 90.09 59.7177 85.51C59.5377 85.53 58.8477 85.54 57.6477 85.54C56.4477 85.54 55.8477 85.19 55.8477 84.49C55.8477 83.49 56.4077 82.99 57.5277 82.99ZM72.4002 83.02C73.8402 83.02 75.0202 83.71 75.9402 85.09C76.8802 86.47 77.3502 88.13 77.3502 90.07C77.3502 91.99 76.8702 93.63 75.9102 94.99C74.9702 96.35 73.7102 97.03 72.1302 97.03C70.5702 97.03 69.3102 96.34 68.3502 94.96C67.3902 93.56 66.9102 92.01 66.9102 90.31C66.9102 88.13 67.3502 86.39 68.2302 85.09C69.1702 83.71 70.5602 83.02 72.4002 83.02ZM72.0402 85.48C71.2002 85.48 70.5102 85.92 69.9702 86.8C69.4302 87.68 69.1602 88.61 69.1602 89.59C69.1602 91.11 69.4602 92.27 70.0602 93.07C70.6602 93.87 71.3402 94.27 72.1002 94.27C73.4602 94.27 74.3302 93.68 74.7102 92.5C74.8702 91.94 74.9502 91.24 74.9502 90.4C74.9502 87.12 73.9802 85.48 72.0402 85.48ZM78.7698 89.98C78.7698 88.64 79.1198 87.42 79.8198 86.32C80.5398 85.22 81.4498 84.4 82.5498 83.86C83.6498 83.3 84.7198 83.02 85.7598 83.02C86.7998 83.02 87.6298 83.15 88.2498 83.41C88.8898 83.65 89.2098 83.98 89.2098 84.4C89.2098 84.8 89.0898 85.21 88.8498 85.63C88.6298 86.03 88.3298 86.23 87.9498 86.23C87.8098 86.23 87.4198 86.12 86.7798 85.9C86.1598 85.66 85.7598 85.54 85.5798 85.54C84.4198 85.54 83.4298 85.97 82.6098 86.83C81.7898 87.67 81.3798 88.79 81.3798 90.19C81.3798 91.59 81.5998 92.64 82.0398 93.34C82.4998 94.02 83.2798 94.36 84.3798 94.36C84.8198 94.36 85.5698 94.11 86.6298 93.61C87.7098 93.09 88.3798 92.83 88.6398 92.83C88.8998 92.83 89.1098 92.91 89.2698 93.07C89.4298 93.23 89.5098 93.43 89.5098 93.67C89.5098 94.15 89.1998 94.66 88.5798 95.2C87.9798 95.72 87.2298 96.16 86.3298 96.52C85.4298 96.86 84.6198 97.03 83.8998 97.03C82.2998 97.03 81.0398 96.4 80.1198 95.14C79.2198 93.88 78.7698 92.16 78.7698 89.98ZM101.531 95.65C101.531 96.59 101.101 97.06 100.241 97.06C99.8807 97.06 99.3907 96.18 98.7707 94.42C98.1507 92.64 97.3207 91.27 96.2807 90.31C96.1807 90.45 95.7507 90.85 94.9907 91.51C94.2507 92.15 93.8107 92.54 93.6707 92.68V95.68C93.6307 95.98 93.5807 96.21 93.5207 96.37C93.4607 96.53 93.3207 96.68 93.1007 96.82C92.9007 96.96 92.6207 97.03 92.2607 97.03C91.7207 97.03 91.4507 96.7 91.4507 96.04C91.4507 94.18 91.3707 91.3 91.2107 87.4C91.0507 83.48 90.9707 79.97 90.9707 76.87C90.9707 76.49 91.1207 76.19 91.4207 75.97C91.7407 75.75 92.0707 75.64 92.4107 75.64C92.8707 75.64 93.1507 75.93 93.2507 76.51V81.82C93.2507 82.46 93.2607 82.94 93.2807 83.26C93.3007 83.58 93.3207 84.06 93.3407 84.7C93.3807 86.02 93.4507 87.51 93.5507 89.17C94.1307 88.73 94.8707 88.04 95.7707 87.1C96.6907 86.14 97.3807 85.32 97.8407 84.64C98.5607 83.5 99.2207 82.93 99.8207 82.93C99.9807 82.93 100.141 82.97 100.301 83.05C100.721 83.29 100.931 83.57 100.931 83.89C100.931 84.21 100.791 84.63 100.511 85.15C99.7907 86.39 98.9607 87.52 98.0207 88.54C98.9207 89.54 99.8207 90.97 100.721 92.83C101.261 94.03 101.531 94.97 101.531 95.65ZM50.0239 116.14C51.3239 116.14 52.4239 116.36 53.3239 116.8C54.2439 117.24 54.7039 117.8 54.7039 118.48C54.7039 118.78 54.6239 119.04 54.4639 119.26C54.3239 119.48 54.1039 119.59 53.8039 119.59C53.5239 119.59 52.9039 119.37 51.9439 118.93C50.9839 118.47 50.1039 118.24 49.3039 118.24C48.5239 118.24 47.7139 118.49 46.8739 118.99C46.0339 119.49 45.6139 120.1 45.6139 120.82C45.6139 121.8 46.1239 122.52 47.1439 122.98C47.9039 123.32 48.9939 123.63 50.4139 123.91C51.8339 124.17 52.9939 124.72 53.8939 125.56C54.7939 126.38 55.2439 127.63 55.2439 129.31C55.2439 131.87 54.4739 133.76 52.9339 134.98C52.0739 135.66 50.8539 136 49.2739 136C47.7139 136 46.1539 135.57 44.5939 134.71C43.5739 134.17 43.0639 133.63 43.0639 133.09C43.0639 132.89 43.1439 132.67 43.3039 132.43C43.4839 132.19 43.7239 131.99 44.0239 131.83C44.3239 131.67 44.5939 131.65 44.8339 131.77C45.0939 131.87 45.5039 132.06 46.0639 132.34C46.6239 132.62 47.0339 132.81 47.2939 132.91C48.1339 133.23 48.9239 133.39 49.6639 133.39C50.4039 133.39 51.1139 133.03 51.7939 132.31C52.4939 131.57 52.8439 130.67 52.8439 129.61C52.8439 128.21 52.1439 127.23 50.7439 126.67C50.0639 126.39 49.2939 126.18 48.4339 126.04C46.6539 125.72 45.3139 125.19 44.4139 124.45C43.5139 123.69 43.0639 122.55 43.0639 121.03C43.0639 119.51 43.7139 118.32 45.0139 117.46C46.3139 116.58 47.9839 116.14 50.0239 116.14ZM57.7035 121.99L59.2035 122.02C59.5435 122.02 59.7335 122.01 59.7735 121.99V115.84C59.7935 115.5 59.9635 115.21 60.2835 114.97C60.6035 114.73 60.9035 114.61 61.1835 114.61C61.4635 114.61 61.6835 114.7 61.8435 114.88C62.0235 115.06 62.1035 115.34 62.0835 115.72C62.0635 116.1 62.0535 118.18 62.0535 121.96L65.5635 121.84C66.1635 121.84 66.4635 122.19 66.4635 122.89C66.4635 123.41 66.3035 123.8 65.9835 124.06C65.6835 124.32 65.3535 124.46 64.9935 124.48C64.6535 124.5 64.3135 124.51 63.9735 124.51L62.1435 124.48C62.1435 125.3 62.2235 126.92 62.3835 129.34C62.5635 131.76 62.7035 133.33 62.8035 134.05C62.9035 134.75 62.9235 135.21 62.8635 135.43C62.8035 135.63 62.6935 135.77 62.5335 135.85C62.2735 135.97 61.9235 136.03 61.4835 136.03C61.0435 136.03 60.7835 135.79 60.7035 135.31C60.3035 132.69 60.0335 129.09 59.8935 124.51C59.7135 124.53 59.0235 124.54 57.8235 124.54C56.6235 124.54 56.0235 124.19 56.0235 123.49C56.0235 122.49 56.5835 121.99 57.7035 121.99ZM75.636 121.99C76.516 121.99 76.956 122.74 76.956 124.24C76.956 124.4 76.956 124.57 76.956 124.75L76.896 126.85C76.876 127.51 76.866 128.16 76.866 128.8L77.316 135.58C77.316 136.08 76.806 136.33 75.786 136.33C75.726 136.33 75.576 136.33 75.336 136.33C75.116 136.33 74.956 136.24 74.856 136.06C74.776 135.88 74.766 135.66 74.826 135.4C74.906 135.14 74.886 134.85 74.766 134.53C73.846 135.51 72.626 136 71.106 136C68.286 136 66.876 133.82 66.876 129.46C66.876 127.04 67.326 125.21 68.226 123.97C69.146 122.73 70.456 122.11 72.156 122.11C72.956 122.11 73.756 122.25 74.556 122.53C74.816 122.17 75.176 121.99 75.636 121.99ZM72.516 124.72C71.376 124.72 70.526 125.05 69.966 125.71C69.406 126.37 69.126 127.58 69.126 129.34C69.126 132.3 69.926 133.78 71.526 133.78C71.946 133.78 72.406 133.59 72.906 133.21C73.426 132.83 73.786 132.4 73.986 131.92C74.366 130.84 74.556 129.66 74.556 128.38C74.556 127.1 74.396 126.17 74.076 125.59C73.776 125.01 73.256 124.72 72.516 124.72ZM78.594 128.98C78.594 127.64 78.944 126.42 79.644 125.32C80.364 124.22 81.274 123.4 82.374 122.86C83.474 122.3 84.544 122.02 85.584 122.02C86.624 122.02 87.454 122.15 88.074 122.41C88.714 122.65 89.034 122.98 89.034 123.4C89.034 123.8 88.914 124.21 88.674 124.63C88.454 125.03 88.154 125.23 87.774 125.23C87.634 125.23 87.244 125.12 86.604 124.9C85.984 124.66 85.584 124.54 85.404 124.54C84.244 124.54 83.254 124.97 82.434 125.83C81.614 126.67 81.204 127.79 81.204 129.19C81.204 130.59 81.424 131.64 81.864 132.34C82.324 133.02 83.104 133.36 84.204 133.36C84.644 133.36 85.394 133.11 86.454 132.61C87.534 132.09 88.204 131.83 88.464 131.83C88.724 131.83 88.934 131.91 89.094 132.07C89.254 132.23 89.334 132.43 89.334 132.67C89.334 133.15 89.024 133.66 88.404 134.2C87.804 134.72 87.054 135.16 86.154 135.52C85.254 135.86 84.444 136.03 83.724 136.03C82.124 136.03 80.864 135.4 79.944 134.14C79.044 132.88 78.594 131.16 78.594 128.98ZM101.355 134.65C101.355 135.59 100.925 136.06 100.065 136.06C99.7049 136.06 99.2149 135.18 98.5949 133.42C97.9749 131.64 97.1449 130.27 96.1049 129.31C96.0049 129.45 95.5749 129.85 94.8149 130.51C94.0749 131.15 93.6349 131.54 93.4949 131.68V134.68C93.4549 134.98 93.4049 135.21 93.3449 135.37C93.2849 135.53 93.1449 135.68 92.9249 135.82C92.7249 135.96 92.4449 136.03 92.0849 136.03C91.5449 136.03 91.2749 135.7 91.2749 135.04C91.2749 133.18 91.1949 130.3 91.0349 126.4C90.8749 122.48 90.7949 118.97 90.7949 115.87C90.7949 115.49 90.9449 115.19 91.2449 114.97C91.5649 114.75 91.8949 114.64 92.2349 114.64C92.6949 114.64 92.9749 114.93 93.0749 115.51V120.82C93.0749 121.46 93.0849 121.94 93.1049 122.26C93.1249 122.58 93.1449 123.06 93.1649 123.7C93.2049 125.02 93.2749 126.51 93.3749 128.17C93.9549 127.73 94.6949 127.04 95.5949 126.1C96.5149 125.14 97.2049 124.32 97.6649 123.64C98.3849 122.5 99.0449 121.93 99.6449 121.93C99.8049 121.93 99.9649 121.97 100.125 122.05C100.545 122.29 100.755 122.57 100.755 122.89C100.755 123.21 100.615 123.63 100.335 124.15C99.6149 125.39 98.7849 126.52 97.8449 127.54C98.7449 128.54 99.6449 129.97 100.545 131.83C101.085 133.03 101.355 133.97 101.355 134.65Z" fill="black"/>
</svg>
