<svg width="512" height="512" viewBox="0 0 512 512" fill="none" xmlns="http://www.w3.org/2000/svg">
<path d="M142.116 238.121C151.075 229.966 161.744 218.149 174.075 205.85C169.615 198.056 165.069 191.504 160.9 187.96C150.537 179.15 134.539 176.348 124.197 175.478C118.531 175.001 113.685 179.518 113.763 185.204C113.905 195.582 115.577 211.738 123.638 222.693C127.104 227.402 133.967 232.783 142.116 238.121Z" fill="#FFE55A"/>
<path d="M191.56 189.396C202.379 179.923 214.207 171.043 227.016 164.28C223.852 154.286 220.252 145.526 216.382 140.665C207.91 130.024 192.751 124.194 182.77 121.348C177.302 119.789 171.677 123.288 170.658 128.882C168.799 139.093 167.328 155.268 173.128 167.571C176.002 173.667 183.131 181.507 191.56 189.396Z" fill="#FFE55A"/>
<path d="M274.151 151.7C282.287 151.7 290.026 152.63 297.383 154.329C300.244 143.497 302.043 133.429 301.283 126.903C299.71 113.393 289.917 100.435 282.945 92.7469C279.126 88.5349 272.501 88.5349 268.681 92.7469C261.709 100.435 251.917 113.393 250.343 126.903C249.591 133.361 251.345 143.287 254.153 153.99C260.619 152.517 267.283 151.7 274.151 151.7Z" fill="#FFE55A"/>
<path d="M356.742 189.396C365.171 181.507 372.299 173.667 375.174 167.571C380.974 155.268 379.503 139.093 377.644 128.882C376.626 123.288 371 119.789 365.533 121.348C355.552 124.194 340.392 130.024 331.921 140.665C328.191 145.35 324.711 153.656 321.632 163.199C334.832 169.909 346.5 179.077 356.742 189.396Z" fill="#FFE55A"/>
<path d="M398.736 248.597C409.784 243.164 419.634 237.322 424.373 232.002C433.42 221.846 436.59 205.916 437.699 195.596C438.307 189.943 433.903 184.994 428.217 184.94C417.838 184.843 401.648 186.142 390.51 193.947C385.909 197.171 380.617 203.516 375.31 211.124C384.808 223.887 392.567 237.006 398.736 248.597Z" fill="#FFE55A"/>
<path d="M437.686 313.541C447.558 309.087 456.272 304.279 460.661 299.736C469.47 290.619 473.024 275.904 474.446 266.335C475.225 261.093 471.311 256.318 466.018 256.053C456.356 255.57 441.23 256.169 430.562 263.018C425.787 266.083 420.118 272.529 414.445 280.19C420.728 292.392 427.965 304.233 437.686 313.541Z" fill="#FFE55A"/>
<path d="M400.651 255.709C383.335 219.332 341.925 140 266.636 140C191.347 140 140.15 237.325 116.057 237.325C91.964 237.325 82.929 204.749 53.953 205.502C24.976 206.255 0 229.33 0 260.952C0 280.379 25.656 288.005 62.328 286.004C95.384 284.2 135.735 310.613 135.735 339.444V381.519C135.735 394.283 146.082 404.63 158.846 404.63C171.61 404.63 181.957 394.283 181.957 381.519V350.602H293.944C298.135 355.525 304.044 359.705 312.31 362.367V380.999C312.31 393.956 322.913 404.871 335.867 404.626C348.424 404.388 358.531 394.134 358.531 381.52V364.376L378.066 337.259C447.749 373.855 480.714 353.037 494.964 335.039C499.899 328.806 495.045 319.708 487.12 320.338C435.094 324.469 416.33 288.643 400.651 255.709Z" fill="#98DB7C"/>
<path d="M171.443 380.346V415.761C181.721 413.453 189.41 404.303 189.467 393.342V362.322C179.513 362.322 171.443 370.392 171.443 380.346Z" fill="#82D361"/>
<path d="M348.021 394.024V415.766C358.336 413.449 366.044 404.236 366.045 393.221V376C356.09 376 348.021 384.07 348.021 394.024Z" fill="#82D361"/>
<path d="M256.116 166.047C331.406 166.047 372.815 245.379 390.132 281.756C407.298 317.816 439.796 356.648 504.169 343.385C505.673 337.702 501.216 331.514 494.633 332.037C442.609 336.169 423.845 300.344 408.167 267.409C390.85 231.032 349.44 151.7 274.151 151.7C242.146 151.7 214.497 169.289 191.431 189.51C210.469 175.988 232.061 166.047 256.116 166.047Z" fill="#82D361"/>
<path d="M43.4329 231.549C72.4099 230.796 81.4439 263.372 105.537 263.372C111.697 263.372 119.633 257.002 129.287 247.53C127.24 248.492 125.331 249.025 123.572 249.025C99.4789 249.025 90.4449 216.449 61.4679 217.202C45.0789 217.628 29.9739 225.198 19.9399 237.413C27.1099 233.834 35.1039 231.765 43.4329 231.549Z" fill="#82D361"/>
<path d="M437.686 313.541C444.054 310.668 449.933 307.647 454.487 304.645C445.508 292.44 438.573 278.405 432.094 264.796C431.768 264.111 431.434 263.413 431.093 262.702C430.917 262.81 430.734 262.906 430.561 263.017C425.786 266.082 420.117 272.528 414.444 280.189C420.728 292.392 427.965 304.233 437.686 313.541Z" fill="#FFD91D"/>
<path d="M418.139 237.41C410.616 223.777 401.289 208.723 389.995 194.328C385.516 197.653 380.421 203.799 375.31 211.126C384.808 223.887 392.567 237.006 398.736 248.597C406.136 244.958 412.99 241.137 418.139 237.41Z" fill="#FFD91D"/>
<path d="M371.526 173.465C359.447 161.476 345.676 150.901 330.09 143.286C327.05 148.141 324.201 155.235 321.631 163.198C334.832 169.908 346.5 179.077 356.742 189.396C362.651 183.866 367.913 178.363 371.526 173.465Z" fill="#FFD91D"/>
<path d="M277.007 130.894C267.818 130.894 258.942 132.159 250.377 134.401C250.88 140.053 252.28 146.845 254.155 153.99C260.619 152.518 267.284 151.701 274.151 151.701C282.287 151.701 290.026 152.631 297.383 154.329C299.418 146.625 300.91 139.314 301.331 133.382C293.586 131.773 285.484 130.894 277.007 130.894Z" fill="#FFD91D"/>
<path d="M191.56 189.396C202.379 179.923 214.207 171.043 227.016 164.279C224.901 157.598 222.59 151.476 220.135 146.694C205.312 154.84 191.646 165.387 179.167 176.514C182.549 180.597 186.85 184.989 191.56 189.396Z" fill="#FFD91D"/>
<path d="M127.951 227.405C131.638 230.848 136.578 234.494 142.116 238.121C151.075 229.966 161.744 218.149 174.075 205.85C170.653 199.871 167.182 194.629 163.869 190.909C150.169 204.399 138.18 217.598 127.951 227.405Z" fill="#FFD91D"/>
<path d="M27.958 247.649C27.958 257.292 33.675 264.563 41.256 264.563C48.838 264.563 54.555 257.292 54.555 247.649C54.555 238.007 48.838 230.735 41.256 230.735C33.675 230.735 27.958 238.006 27.958 247.649Z" fill="black"/>
<path d="M510.006 320.122C506.849 314.206 500.736 310.865 494.038 311.392C475.905 312.834 462.355 309.206 451.5 301.982C458.116 298.416 462.926 295.053 466.065 291.804C476.067 281.453 480.185 265.688 481.878 254.287C483.292 244.793 475.972 235.873 466.392 235.395C454.879 234.82 438.611 235.765 426.501 243.541C423.314 245.587 419.827 248.759 415.962 253.135C415.625 252.433 415.287 251.734 414.95 251.024C413.142 247.226 411.12 243.076 408.884 238.685C418.989 233.28 425.93 228.397 429.984 223.846C440.157 212.425 443.857 195.463 445.169 183.245C446.235 173.324 438.258 164.366 428.286 164.273C415.994 164.156 398.722 165.863 386.196 174.64C382.834 176.996 379.193 180.612 375.175 185.59C373.015 182.934 370.797 180.305 368.484 177.733C368.095 177.301 367.703 176.883 367.313 176.456C373.338 170.39 377.634 165.178 380.35 160.637C382.48 157.075 381.32 152.461 377.758 150.331C374.199 148.203 369.583 149.36 367.452 152.922C365.958 155.42 362.908 159.542 356.724 165.787C348.386 158.071 339.737 151.629 330.798 146.473C333.808 138.247 336.211 134.181 337.798 132.188C345.215 122.873 359.648 117.682 367.592 115.417C368.78 115.08 370.028 115.857 370.249 117.07C370.893 120.608 371.34 124.095 371.577 127.434C371.871 131.574 375.44 134.696 379.606 134.397C383.745 134.103 386.862 130.509 386.569 126.369C386.293 122.487 385.777 118.454 385.036 114.379C383.25 104.573 373.07 98.2262 363.471 100.965C351.653 104.334 335.567 110.862 326.041 122.828C323.03 126.61 320.137 132.182 317.268 139.74C313.697 138.239 310.084 136.93 306.431 135.817C308.635 125.985 309.393 118.438 308.745 112.877C306.976 97.6852 296.765 83.6453 288.511 74.5433C281.812 67.1533 269.814 67.1512 263.115 74.5433C254.86 83.6453 244.649 97.6863 242.88 112.877C242.24 118.367 242.971 125.789 245.108 135.429C240.403 136.855 235.816 138.59 231.348 140.586C228.376 132.599 225.379 126.747 222.259 122.828C212.732 110.863 196.645 104.335 184.829 100.966C175.229 98.2293 165.05 104.572 163.263 114.38C161.062 126.47 159.807 143.785 166.329 157.62C168.733 162.717 173.414 168.774 180.549 176.013C178.852 177.582 177.181 179.157 175.536 180.734C172.069 175.542 168.841 171.694 165.765 169.079C154.112 159.173 137.07 155.865 124.825 154.834C114.884 154 106.11 162.176 106.247 172.15C106.414 184.437 108.518 201.67 117.583 213.99C120.162 217.495 124.166 221.284 129.717 225.465C127.184 227.27 125.057 228.353 123.569 228.353C115.067 228.353 108.463 222.349 100.815 215.397C90.845 206.333 79.525 196.064 61.27 196.533C26.914 197.43 0 225.086 0 259.499C0 266.97 2.891 273.657 8.361 278.835C22.058 291.805 49.581 293.18 70.253 292.054C79.097 291.573 88.883 293.365 98.544 297.243C102.394 298.789 106.772 296.921 108.317 293.069C109.863 289.217 107.994 284.842 104.143 283.296C92.46 278.607 80.462 276.444 69.434 277.048C44.744 278.396 26.243 275.07 18.695 267.923C16.194 265.555 15.03 262.879 15.03 259.499C15.03 233.297 35.514 212.24 61.663 211.561C73.941 211.249 81.693 218.323 90.71 226.521C99.405 234.426 109.261 243.386 123.573 243.386C135.472 243.386 147.446 230.961 165.571 212.152C192.449 184.26 229.259 146.061 274.152 146.061C304.432 146.061 332.411 160.099 357.313 187.785C378.048 210.84 392.395 238.606 401.383 257.485C409.952 275.487 418.787 292.736 432.583 305.905C449.142 321.713 469.642 328.408 495.229 326.374C496.589 326.27 497.443 327.838 496.587 328.92C489.339 338.074 479.839 344.1 468.352 346.83C464.418 347.765 461.892 351.788 462.747 355.737C463.626 359.795 467.788 362.409 471.826 361.452C486.469 357.972 499.106 349.949 508.369 338.249C512.537 332.985 513.164 326.039 510.006 320.122ZM179.925 151.213C174.847 140.442 176.571 125.201 178.05 117.075C178.271 115.862 179.52 115.083 180.708 115.421C188.652 117.686 203.085 122.876 210.502 132.192C212.169 134.285 214.704 138.627 217.884 147.539C208.66 152.934 199.987 159.294 191.854 166.07C184.283 158.472 181.169 153.851 179.925 151.213ZM141.334 215.343C134.385 210.404 131.168 207.094 129.691 205.086C122.632 195.495 121.39 180.207 121.276 171.948C121.26 170.718 122.337 169.707 123.567 169.813C131.798 170.506 146.96 172.819 156.033 180.532C157.787 182.023 160.602 185.122 164.63 191.54C156.846 199.455 149.301 207.611 141.334 215.343ZM259.767 132.11C257.648 122.537 257.489 117.358 257.808 114.619C259.186 102.791 268.7 90.7603 274.25 84.6412C275.078 83.7273 276.55 83.7282 277.379 84.6412C282.928 90.7603 292.442 102.791 293.82 114.619C294.143 117.394 293.973 122.662 291.788 132.435C281.21 130.741 270.37 130.523 259.767 132.11ZM394.823 186.95C404.574 180.116 419.856 179.234 428.147 179.303C429.379 179.315 430.36 180.415 430.228 181.642C429.345 189.855 426.683 204.96 418.763 213.852C416.712 216.155 412.092 219.927 401.818 225.423C396.881 216.583 391.149 207.227 384.584 197.977C389.541 191.384 392.838 188.341 394.823 186.95ZM423.359 267.744C428.958 260.635 432.531 257.531 434.621 256.189C443.842 250.27 458.016 250.027 465.643 250.406C466.492 250.448 467.139 251.237 467.013 252.078C465.891 259.631 462.871 273.481 455.257 281.362C453.658 283.017 449.54 286.362 439.331 291.324C433.334 284.662 428.195 276.659 423.359 267.744Z" fill="black"/>
<path d="M441.141 360.76C425.746 358.574 408.228 352.365 389.073 342.306C385.762 340.567 381.67 341.529 379.482 344.567L359.947 371.684C359.025 372.963 358.529 374.499 358.529 376.076V393.22C358.529 401.658 351.669 408.653 343.237 408.813C334.503 408.956 327.336 401.301 327.336 392.699V374.067C327.336 370.804 325.23 367.914 322.125 366.914C315.841 364.891 310.812 361.7 307.178 357.431C307.161 357.411 307.141 357.394 307.123 357.374C306.979 357.209 306.831 357.046 306.67 356.891C296.914 347.491 295.666 326.259 296.008 318.871C296.207 314.73 293.013 311.211 288.871 311.007C284.702 310.815 281.201 313.999 280.997 318.144C280.946 319.195 280.121 338.598 287.434 354.787H189.469C185.318 354.787 181.955 358.151 181.955 362.301V393.218C181.955 401.817 174.958 408.814 166.359 408.814C157.76 408.814 150.763 401.818 150.763 393.218V351.143C150.763 338.201 144.072 324.916 131.921 313.738C128.866 310.929 124.112 311.126 121.303 314.181C118.493 317.235 118.692 321.988 121.745 324.798C130.766 333.097 135.734 342.453 135.734 351.143V393.218C135.734 410.104 149.472 423.843 166.359 423.843C183.246 423.843 196.984 410.105 196.984 393.218V369.815H298.186C302.124 373.716 306.851 376.875 312.308 379.255V392.698C312.308 405.675 320.751 417.834 333.024 422.155C336.385 423.338 339.961 423.91 343.523 423.838C360.084 423.524 373.558 409.788 373.558 393.219V378.5L387.908 358.581C406.369 367.708 423.542 373.442 439.026 375.64C443.137 376.22 446.94 373.366 447.523 369.257C448.107 365.147 445.249 361.343 441.141 360.76Z" fill="black"/>
</svg>
