<svg width="143" height="197" viewBox="0 0 143 197" fill="none" xmlns="http://www.w3.org/2000/svg">
<rect width="143" height="197" fill="#C4C4C4"/>
<path d="M22.3979 96.04C22.0979 95.82 21.9479 95.58 21.9479 95.32C21.9479 95.04 22.0579 94.81 22.2779 94.63C21.8979 91.77 21.7079 88.49 21.7079 84.79C21.7079 83.67 21.7579 81.49 21.8579 78.25C21.9579 77.95 22.1579 77.69 22.4579 77.47C22.7779 77.25 23.0779 77.14 23.3579 77.14C23.6379 77.14 23.8079 77.15 23.8679 77.17C26.7279 77.97 29.2179 79.52 31.3379 81.82C33.4579 84.1 34.5679 86.84 34.6679 90.04C34.6679 93.56 33.2079 95.77 30.2879 96.67C29.4479 96.93 28.5579 97.06 27.6179 97.06C26.6979 97.06 25.8879 96.99 25.1879 96.85C25.2679 97.01 25.3079 97.22 25.3079 97.48C25.3079 97.76 25.1379 98.02 24.7979 98.26C24.4779 98.52 24.0879 98.65 23.6279 98.65C23.1879 98.65 22.9079 98.38 22.7879 97.84L22.3979 96.04ZM24.1979 84.55C24.1979 88.05 24.3979 91.37 24.7979 94.51C25.2779 94.65 26.0879 94.72 27.2279 94.72C28.3679 94.72 29.4579 94.53 30.4979 94.15C31.5579 93.77 32.1179 93.21 32.1779 92.47C32.2379 91.91 32.2679 91.48 32.2679 91.18C32.2679 88.58 31.5679 86.28 30.1679 84.28C28.7879 82.28 26.8479 80.76 24.3479 79.72C24.2479 82.08 24.1979 83.69 24.1979 84.55ZM37.9862 78.04C38.3462 78.04 38.6862 78.21 39.0062 78.55C39.3262 78.89 39.4862 79.25 39.4862 79.63C39.4862 79.99 39.3062 80.36 38.9462 80.74C38.6062 81.12 38.2462 81.31 37.8662 81.31C37.4862 81.31 37.1362 81.15 36.8162 80.83C36.5162 80.51 36.3662 80.1 36.3662 79.6C36.3662 78.64 36.8862 78.12 37.9262 78.04C37.9462 78.04 37.9662 78.04 37.9862 78.04ZM39.2462 93.76L39.2762 95.86C39.2762 96.24 39.1262 96.56 38.8262 96.82C38.5262 97.06 38.2062 97.18 37.8662 97.18C37.3662 97.18 37.1062 96.93 37.0862 96.43C36.8262 90.05 36.6962 86.52 36.6962 85.84C36.6962 85.16 36.7262 84.33 36.7862 83.35C36.8262 82.99 37.0562 82.81 37.4762 82.81C38.5362 82.81 39.1362 83.24 39.2762 84.1C39.3362 84.54 39.3662 84.89 39.3662 85.15L39.2462 87.04V93.76ZM43.2252 86.8C43.2252 85.62 43.6452 84.68 44.4852 83.98C45.3252 83.28 46.2952 82.93 47.3952 82.93C48.5152 82.93 49.5852 83.13 50.6052 83.53C51.6252 83.93 52.1352 84.46 52.1352 85.12C52.1352 85.46 52.0052 85.73 51.7452 85.93C51.4852 86.13 51.2552 86.23 51.0552 86.23C50.8752 86.23 50.7252 86.23 50.6052 86.23C50.5052 86.21 50.1052 86.02 49.4052 85.66C48.7252 85.3 48.0952 85.12 47.5152 85.12C46.9352 85.12 46.4352 85.27 46.0152 85.57C45.6152 85.85 45.4152 86.27 45.4152 86.83C45.4152 87.39 45.6452 87.83 46.1052 88.15C46.5852 88.47 47.4152 88.75 48.5952 88.99C49.7752 89.21 50.6752 89.53 51.2952 89.95C51.9352 90.37 52.2552 91.15 52.2552 92.29C52.2552 93.95 51.8152 95.13 50.9352 95.83C50.0752 96.51 49.0252 96.85 47.7852 96.85C46.5452 96.85 45.4852 96.68 44.6052 96.34C43.7452 96 43.3152 95.49 43.3152 94.81C43.3152 94.03 43.7052 93.64 44.4852 93.64C44.6852 93.64 45.1252 93.78 45.8052 94.06C46.4852 94.34 47.1552 94.48 47.8152 94.48C48.4952 94.48 49.0052 94.27 49.3452 93.85C49.7052 93.41 49.8852 92.91 49.8852 92.35C49.8852 91.79 49.6552 91.39 49.1952 91.15C48.7352 90.89 48.0352 90.68 47.0952 90.52C46.1552 90.36 45.4652 90.19 45.0252 90.01C43.8252 89.53 43.2252 88.46 43.2252 86.8ZM53.8382 89.98C53.8382 88.64 54.1882 87.42 54.8882 86.32C55.6082 85.22 56.5182 84.4 57.6182 83.86C58.7182 83.3 59.7882 83.02 60.8282 83.02C61.8682 83.02 62.6982 83.15 63.3182 83.41C63.9582 83.65 64.2782 83.98 64.2782 84.4C64.2782 84.8 64.1582 85.21 63.9182 85.63C63.6982 86.03 63.3982 86.23 63.0182 86.23C62.8782 86.23 62.4882 86.12 61.8482 85.9C61.2282 85.66 60.8282 85.54 60.6482 85.54C59.4882 85.54 58.4982 85.97 57.6782 86.83C56.8582 87.67 56.4482 88.79 56.4482 90.19C56.4482 91.59 56.6682 92.64 57.1082 93.34C57.5682 94.02 58.3482 94.36 59.4482 94.36C59.8882 94.36 60.6382 94.11 61.6982 93.61C62.7782 93.09 63.4482 92.83 63.7082 92.83C63.9682 92.83 64.1782 92.91 64.3382 93.07C64.4982 93.23 64.5782 93.43 64.5782 93.67C64.5782 94.15 64.2682 94.66 63.6482 95.2C63.0482 95.72 62.2982 96.16 61.3982 96.52C60.4982 96.86 59.6882 97.03 58.9682 97.03C57.3682 97.03 56.1082 96.4 55.1882 95.14C54.2882 93.88 53.8382 92.16 53.8382 89.98ZM74.259 82.99C75.139 82.99 75.579 83.74 75.579 85.24C75.579 85.4 75.579 85.57 75.579 85.75L75.519 87.85C75.499 88.51 75.489 89.16 75.489 89.8L75.939 96.58C75.939 97.08 75.429 97.33 74.409 97.33C74.349 97.33 74.199 97.33 73.959 97.33C73.739 97.33 73.579 97.24 73.479 97.06C73.399 96.88 73.389 96.66 73.449 96.4C73.529 96.14 73.509 95.85 73.389 95.53C72.469 96.51 71.249 97 69.729 97C66.909 97 65.499 94.82 65.499 90.46C65.499 88.04 65.949 86.21 66.849 84.97C67.769 83.73 69.079 83.11 70.779 83.11C71.579 83.11 72.379 83.25 73.179 83.53C73.439 83.17 73.799 82.99 74.259 82.99ZM71.139 85.72C69.999 85.72 69.149 86.05 68.589 86.71C68.029 87.37 67.749 88.58 67.749 90.34C67.749 93.3 68.549 94.78 70.149 94.78C70.569 94.78 71.029 94.59 71.529 94.21C72.049 93.83 72.409 93.4 72.609 92.92C72.989 91.84 73.179 90.66 73.179 89.38C73.179 88.1 73.019 87.17 72.699 86.59C72.399 86.01 71.879 85.72 71.139 85.72ZM81.5071 92.62L81.5371 95.71C81.5371 96.07 81.3671 96.4 81.0271 96.7C80.7071 97 80.3871 97.15 80.0671 97.15C79.6071 97.15 79.3171 96.79 79.1971 96.07C79.1771 95.91 79.0971 94.45 78.9571 91.69C78.8171 88.91 78.5471 86.73 78.1471 85.15C77.9671 84.39 77.8771 83.94 77.8771 83.8C77.8771 83.14 78.2771 82.81 79.0771 82.81C79.4171 82.81 79.6871 82.94 79.8871 83.2C80.0871 83.46 80.2071 83.73 80.2471 84.01C80.3071 84.27 80.3571 84.63 80.3971 85.09C80.4371 85.55 80.4671 85.84 80.4871 85.96C80.9071 84.96 81.5371 84.21 82.3771 83.71C83.2171 83.21 84.1371 82.96 85.1371 82.96C86.7771 82.96 87.5971 83.38 87.5971 84.22C87.5971 84.64 87.4471 84.98 87.1471 85.24C86.8671 85.48 86.5371 85.6 86.1571 85.6C84.4571 85.6 83.2571 86.14 82.5571 87.22C81.8571 88.3 81.5071 90.1 81.5071 92.62ZM96.35 82.96L96.32 77.17C96.32 76.09 96.66 75.55 97.34 75.55C98.04 75.55 98.43 75.85 98.51 76.45C98.55 76.71 98.6 78.28 98.66 81.16C98.72 84.04 98.81 86.74 98.93 89.26C99.07 91.78 99.14 94.13 99.14 96.31C99.14 96.91 98.69 97.21 97.79 97.21C97.19 97.21 96.89 96.79 96.89 95.95C96.03 96.63 95.01 96.97 93.83 96.97C92.33 96.97 91.11 96.41 90.17 95.29C89.25 94.17 88.79 92.79 88.79 91.15C88.79 89.51 89.12 87.98 89.78 86.56C90.46 85.12 91.51 84.09 92.93 83.47C93.81 83.09 94.66 82.9 95.48 82.9C95.78 82.9 96.07 82.92 96.35 82.96ZM96.5 87.07C96.36 86.63 96.19 86.3 95.99 86.08C95.79 85.84 95.57 85.7 95.33 85.66C95.11 85.6 94.84 85.57 94.52 85.57C94.2 85.57 93.81 85.69 93.35 85.93C92.89 86.17 92.5 86.56 92.18 87.1C91.54 88.18 91.22 89.32 91.22 90.52C91.22 91.7 91.45 92.67 91.91 93.43C92.39 94.17 93.06 94.54 93.92 94.54C94.8 94.54 95.49 94.11 95.99 93.25C96.49 92.39 96.74 91.29 96.74 89.95C96.74 88.45 96.66 87.49 96.5 87.07ZM105.189 83.11C106.249 83.11 107.259 83.42 108.219 84.04C109.179 84.66 109.659 85.43 109.659 86.35C109.659 87.25 109.269 88.13 108.489 88.99C107.709 89.83 106.669 90.34 105.369 90.52C104.809 90.6 103.969 90.64 102.849 90.64C103.069 92.34 103.499 93.46 104.139 94C104.339 94.22 104.609 94.33 104.949 94.33C106.189 94.33 107.229 93.94 108.069 93.16C108.909 92.36 109.509 91.96 109.869 91.96C110.029 91.96 110.269 92.11 110.589 92.41C110.909 92.71 111.069 92.99 111.069 93.25C111.069 93.77 110.439 94.52 109.179 95.5C108.619 95.96 107.939 96.35 107.139 96.67C106.359 96.97 105.629 97.12 104.949 97.12C103.209 97.12 101.929 96 101.109 93.76C100.589 92.38 100.329 90.86 100.329 89.2C100.329 87.54 100.719 86.11 101.499 84.91C102.279 83.71 103.509 83.11 105.189 83.11ZM105.339 85.18C104.579 85.18 103.929 85.61 103.389 86.47C103.189 86.77 102.999 87.45 102.819 88.51C105.619 88.51 107.019 87.82 107.019 86.44C107.019 85.6 106.459 85.18 105.339 85.18ZM119.993 82.96L119.963 77.17C119.963 76.09 120.303 75.55 120.983 75.55C121.683 75.55 122.073 75.85 122.153 76.45C122.193 76.71 122.243 78.28 122.303 81.16C122.363 84.04 122.453 86.74 122.573 89.26C122.713 91.78 122.783 94.13 122.783 96.31C122.783 96.91 122.333 97.21 121.433 97.21C120.833 97.21 120.533 96.79 120.533 95.95C119.673 96.63 118.653 96.97 117.473 96.97C115.973 96.97 114.753 96.41 113.813 95.29C112.893 94.17 112.433 92.79 112.433 91.15C112.433 89.51 112.763 87.98 113.423 86.56C114.103 85.12 115.153 84.09 116.573 83.47C117.453 83.09 118.303 82.9 119.123 82.9C119.423 82.9 119.713 82.92 119.993 82.96ZM120.143 87.07C120.003 86.63 119.833 86.3 119.633 86.08C119.433 85.84 119.213 85.7 118.973 85.66C118.753 85.6 118.483 85.57 118.163 85.57C117.843 85.57 117.453 85.69 116.993 85.93C116.533 86.17 116.143 86.56 115.823 87.1C115.183 88.18 114.863 89.32 114.863 90.52C114.863 91.7 115.093 92.67 115.553 93.43C116.033 94.17 116.703 94.54 117.563 94.54C118.443 94.54 119.133 94.11 119.633 93.25C120.133 92.39 120.383 91.29 120.383 89.95C120.383 88.45 120.303 87.49 120.143 87.07ZM44.8072 125.8C44.8072 124.62 45.2272 123.68 46.0672 122.98C46.9072 122.28 47.8772 121.93 48.9772 121.93C50.0972 121.93 51.1672 122.13 52.1872 122.53C53.2072 122.93 53.7172 123.46 53.7172 124.12C53.7172 124.46 53.5872 124.73 53.3272 124.93C53.0672 125.13 52.8372 125.23 52.6372 125.23C52.4572 125.23 52.3072 125.23 52.1872 125.23C52.0872 125.21 51.6872 125.02 50.9872 124.66C50.3072 124.3 49.6772 124.12 49.0972 124.12C48.5172 124.12 48.0172 124.27 47.5972 124.57C47.1972 124.85 46.9972 125.27 46.9972 125.83C46.9972 126.39 47.2272 126.83 47.6872 127.15C48.1672 127.47 48.9972 127.75 50.1772 127.99C51.3572 128.21 52.2572 128.53 52.8772 128.95C53.5172 129.37 53.8372 130.15 53.8372 131.29C53.8372 132.95 53.3972 134.13 52.5172 134.83C51.6572 135.51 50.6072 135.85 49.3672 135.85C48.1272 135.85 47.0672 135.68 46.1872 135.34C45.3272 135 44.8972 134.49 44.8972 133.81C44.8972 133.03 45.2872 132.64 46.0672 132.64C46.2672 132.64 46.7072 132.78 47.3872 133.06C48.0672 133.34 48.7372 133.48 49.3972 133.48C50.0772 133.48 50.5872 133.27 50.9272 132.85C51.2872 132.41 51.4672 131.91 51.4672 131.35C51.4672 130.79 51.2372 130.39 50.7772 130.15C50.3172 129.89 49.6172 129.68 48.6772 129.52C47.7372 129.36 47.0472 129.19 46.6072 129.01C45.4072 128.53 44.8072 127.46 44.8072 125.8ZM56.5902 121.99L58.0902 122.02C58.4302 122.02 58.6202 122.01 58.6602 121.99V115.84C58.6802 115.5 58.8502 115.21 59.1702 114.97C59.4902 114.73 59.7902 114.61 60.0702 114.61C60.3502 114.61 60.5702 114.7 60.7302 114.88C60.9102 115.06 60.9902 115.34 60.9702 115.72C60.9502 116.1 60.9402 118.18 60.9402 121.96L64.4502 121.84C65.0502 121.84 65.3502 122.19 65.3502 122.89C65.3502 123.41 65.1902 123.8 64.8702 124.06C64.5702 124.32 64.2402 124.46 63.8802 124.48C63.5402 124.5 63.2002 124.51 62.8602 124.51L61.0302 124.48C61.0302 125.3 61.1102 126.92 61.2702 129.34C61.4502 131.76 61.5902 133.33 61.6902 134.05C61.7902 134.75 61.8102 135.21 61.7502 135.43C61.6902 135.63 61.5802 135.77 61.4202 135.85C61.1602 135.97 60.8102 136.03 60.3702 136.03C59.9302 136.03 59.6702 135.79 59.5902 135.31C59.1902 132.69 58.9202 129.09 58.7802 124.51C58.6002 124.53 57.9102 124.54 56.7102 124.54C55.5102 124.54 54.9102 124.19 54.9102 123.49C54.9102 122.49 55.4702 121.99 56.5902 121.99ZM74.5227 121.99C75.4027 121.99 75.8427 122.74 75.8427 124.24C75.8427 124.4 75.8427 124.57 75.8427 124.75L75.7827 126.85C75.7627 127.51 75.7527 128.16 75.7527 128.8L76.2027 135.58C76.2027 136.08 75.6927 136.33 74.6727 136.33C74.6127 136.33 74.4627 136.33 74.2227 136.33C74.0027 136.33 73.8427 136.24 73.7427 136.06C73.6627 135.88 73.6527 135.66 73.7127 135.4C73.7927 135.14 73.7727 134.85 73.6527 134.53C72.7327 135.51 71.5127 136 69.9927 136C67.1727 136 65.7627 133.82 65.7627 129.46C65.7627 127.04 66.2127 125.21 67.1127 123.97C68.0327 122.73 69.3427 122.11 71.0427 122.11C71.8427 122.11 72.6427 122.25 73.4427 122.53C73.7027 122.17 74.0627 121.99 74.5227 121.99ZM71.4027 124.72C70.2627 124.72 69.4127 125.05 68.8527 125.71C68.2927 126.37 68.0127 127.58 68.0127 129.34C68.0127 132.3 68.8127 133.78 70.4127 133.78C70.8327 133.78 71.2927 133.59 71.7927 133.21C72.3127 132.83 72.6727 132.4 72.8727 131.92C73.2527 130.84 73.4427 129.66 73.4427 128.38C73.4427 127.1 73.2827 126.17 72.9627 125.59C72.6627 125.01 72.1427 124.72 71.4027 124.72ZM77.4807 128.98C77.4807 127.64 77.8307 126.42 78.5307 125.32C79.2507 124.22 80.1607 123.4 81.2607 122.86C82.3607 122.3 83.4307 122.02 84.4707 122.02C85.5107 122.02 86.3407 122.15 86.9607 122.41C87.6007 122.65 87.9207 122.98 87.9207 123.4C87.9207 123.8 87.8007 124.21 87.5607 124.63C87.3407 125.03 87.0407 125.23 86.6607 125.23C86.5207 125.23 86.1307 125.12 85.4907 124.9C84.8707 124.66 84.4707 124.54 84.2907 124.54C83.1307 124.54 82.1407 124.97 81.3207 125.83C80.5007 126.67 80.0907 127.79 80.0907 129.19C80.0907 130.59 80.3107 131.64 80.7507 132.34C81.2107 133.02 81.9907 133.36 83.0907 133.36C83.5307 133.36 84.2807 133.11 85.3407 132.61C86.4207 132.09 87.0907 131.83 87.3507 131.83C87.6107 131.83 87.8207 131.91 87.9807 132.07C88.1407 132.23 88.2207 132.43 88.2207 132.67C88.2207 133.15 87.9107 133.66 87.2907 134.2C86.6907 134.72 85.9407 135.16 85.0407 135.52C84.1407 135.86 83.3307 136.03 82.6107 136.03C81.0107 136.03 79.7507 135.4 78.8307 134.14C77.9307 132.88 77.4807 131.16 77.4807 128.98ZM100.242 134.65C100.242 135.59 99.8116 136.06 98.9516 136.06C98.5916 136.06 98.1016 135.18 97.4816 133.42C96.8616 131.64 96.0316 130.27 94.9916 129.31C94.8916 129.45 94.4616 129.85 93.7016 130.51C92.9616 131.15 92.5216 131.54 92.3816 131.68V134.68C92.3416 134.98 92.2916 135.21 92.2316 135.37C92.1716 135.53 92.0316 135.68 91.8116 135.82C91.6116 135.96 91.3316 136.03 90.9716 136.03C90.4316 136.03 90.1616 135.7 90.1616 135.04C90.1616 133.18 90.0816 130.3 89.9216 126.4C89.7616 122.48 89.6816 118.97 89.6816 115.87C89.6816 115.49 89.8316 115.19 90.1316 114.97C90.4516 114.75 90.7816 114.64 91.1216 114.64C91.5816 114.64 91.8616 114.93 91.9616 115.51V120.82C91.9616 121.46 91.9716 121.94 91.9916 122.26C92.0116 122.58 92.0316 123.06 92.0516 123.7C92.0916 125.02 92.1616 126.51 92.2616 128.17C92.8416 127.73 93.5816 127.04 94.4816 126.1C95.4016 125.14 96.0916 124.32 96.5516 123.64C97.2716 122.5 97.9316 121.93 98.5316 121.93C98.6916 121.93 98.8516 121.97 99.0116 122.05C99.4316 122.29 99.6416 122.57 99.6416 122.89C99.6416 123.21 99.5016 123.63 99.2216 124.15C98.5016 125.39 97.6716 126.52 96.7316 127.54C97.6316 128.54 98.5316 129.97 99.4316 131.83C99.9716 133.03 100.242 133.97 100.242 134.65Z" fill="black"/>
</svg>
