<svg width="512" height="512" viewBox="0 0 512 512" fill="none" xmlns="http://www.w3.org/2000/svg">
<path d="M176 408V424H160C151.2 424 144 416.8 144 408C144 399.2 151.2 392 160 392C168.8 392 176 399.2 176 408Z" fill="#E6E9ED"/>
<path d="M208 408V424H176V408C176 399.2 183.2 392 192 392C200.8 392 208 399.2 208 408Z" fill="#E6E9ED"/>
<path d="M344 408V424H328C323.6 424 319.6 422.24 316.72 419.28C313.76 416.4 312 412.4 312 408C312 399.2 319.2 392 328 392C336.8 392 344 399.2 344 408Z" fill="#E6E9ED"/>
<path d="M376 408V424H344V408C344 399.2 351.2 392 360 392C368.8 392 376 399.2 376 408Z" fill="#E6E9ED"/>
<path d="M208 408C208 399.2 200.8 392 192 392C183.2 392 176 399.2 176 408C176 399.2 168.8 392 160 392C151.2 392 144 399.2 144 408V384C144 360.16 151.12 336.96 164.32 317.2L171.44 316.08C175.68 315.44 179.84 314.64 184 313.6C198.24 310.08 211.76 304.16 224 296L206.88 284.56C202.56 281.76 200 276.88 200 271.76C200 266.88 202.32 262.32 206.16 259.36L211.76 255.2C212.4 254.72 213.04 254.16 213.68 253.68C225.92 243.92 235.04 230.8 240 216C232.48 216 225.2 214.16 218.64 210.8C216.16 209.6 213.84 208.08 211.68 206.4L203.76 198.56C229.12 188.96 255.92 184 283.12 184H297.76C332.48 184 365.76 197.76 390.32 222.32C407.12 239.12 419.04 260.16 424.8 283.2L427.84 295.36C430.48 305.92 437.6 314.8 447.36 319.68C452.64 322.24 458.32 323.6 464 323.6C469.68 323.6 475.36 322.24 480.64 319.68L496 312L492.72 328.32C489.76 343.28 480 356 466.4 362.8C459.6 366.24 452 368 444.32 368H390.96C391.68 373.28 392 378.64 392 384V408C392 416.8 384.8 424 376 424V408C376 399.2 368.8 392 360 392C351.2 392 344 399.2 344 408C344 399.2 336.8 392 328 392C319.2 392 312 399.2 312 408C312 397.44 310 386.96 306.08 377.12L302.4 368H233.6L229.92 377.12C226 386.96 224 397.44 224 408C224 412.4 222.24 416.4 219.28 419.28C216.4 422.24 212.4 424 208 424V408Z" fill="#CF9E76"/>
<path d="M211.68 206.4L203.76 218.4C201.28 222.08 200 226.32 200 230.72C200 236.64 202.32 242.32 206.56 246.56L213.68 253.68C213.04 254.16 212.4 254.72 211.76 255.2L206.16 259.36C202.32 262.32 200 266.88 200 271.76C194.96 276.88 190.96 282.88 188.24 289.44C185.44 296.16 184 303.36 184 310.8V313.6C179.84 314.64 175.68 315.44 171.44 316.08L164.32 317.2L97.8399 327.68C96.6399 327.92 95.3599 328 94.1599 328C87.9999 328 82.4799 325.52 78.4799 321.52C74.4799 317.52 71.9999 312 71.9999 305.84V297.6L55.9999 304L51.3599 294.64C49.1199 290.24 47.9999 285.44 47.9999 280.56C47.9999 280.4 47.9999 280.16 47.9999 280C48.1599 273.04 50.5599 266.4 54.6399 261.2C58.8799 255.84 64.7999 251.84 71.8399 250.08C73.6799 249.6 75.4399 248.88 77.0399 248C80.0799 246.32 82.7199 243.92 84.6399 240.96L96.1599 223.76C97.1999 223.92 98.2399 224 99.3599 224C105.04 224 110.24 221.68 113.92 217.92C117.68 214.24 120 209.04 120 203.36C120 196.56 116.72 190.24 111.12 186.4L113.36 180.4C121.92 157.6 134.96 136.96 151.68 119.68L152 120C156.88 129.84 166.96 136 177.92 136H183.36H183.44C182.88 157.44 189.36 178.72 202.08 196.48C202.56 197.2 203.12 197.92 203.76 198.56L211.68 206.4Z" fill="#ECC19C"/>
<path d="M120 203.36C120 209.04 117.68 214.24 113.92 217.92C110.24 221.68 105.04 224 99.3599 224C98.2399 224 97.1999 223.92 96.1599 223.76C90.3199 222.88 85.1199 219.52 81.9199 214.4L31.9999 136L110.4 185.92C110.64 186.08 110.88 186.24 111.12 186.4C116.72 190.24 120 196.56 120 203.36Z" fill="#CCD1D9"/>
<path d="M70.6399 248H77.0399C75.4399 248.88 73.6799 249.6 71.8399 250.08C64.7999 251.84 58.8799 255.84 54.6399 261.2C50.5599 266.4 48.1599 273.04 47.9999 280L45.2799 276C36.6399 262.96 31.9999 247.68 31.9999 232C42.2399 242.24 56.1599 248 70.6399 248Z" fill="#B27946"/>
<path d="M192 88L185.76 116.24C184.32 122.8 183.52 129.44 183.44 136H183.36H177.92C166.96 136 156.88 129.84 152 120L151.68 119.68C163.36 107.28 176.96 96.64 192 88Z" fill="#B27946"/>
<path d="M203.76 218.4L211.68 206.4C213.84 208.08 216.16 209.6 218.64 210.8C225.2 214.16 232.48 216 240 216C235.04 230.8 225.92 243.92 213.68 253.68L206.56 246.56C202.32 242.32 200 236.64 200 230.72C200 226.32 201.28 222.08 203.76 218.4Z" fill="#B27946"/>
<path d="M206.88 284.56L224 296C211.76 304.16 198.24 310.08 184 313.6V310.8C184 303.36 185.44 296.16 188.24 289.44C190.96 282.88 194.96 276.88 200 271.76C200 276.88 202.56 281.76 206.88 284.56Z" fill="#B27946"/>
<path d="M112 264C116.418 264 120 260.418 120 256C120 251.582 116.418 248 112 248C107.582 248 104 251.582 104 256C104 260.418 107.582 264 112 264Z" fill="black"/>
<path d="M156.304 232.782L172.296 224.786L179.448 239.09L163.456 247.086L156.304 232.782Z" fill="black"/>
<path d="M179.576 191.16L172.416 176.848C160.704 182.704 150.672 191.56 143.416 202.448L137.336 211.568L150.648 220.44L156.728 211.32C162.456 202.744 170.352 195.768 179.576 191.16Z" fill="black"/>
<path d="M477.088 312.512C468.904 316.616 459.104 316.616 450.92 312.512C443.264 308.688 437.688 301.728 435.608 293.432L432.56 281.248C426.456 256.824 413.816 234.504 396.016 216.696C369.768 190.456 334.872 176 297.76 176H283.08C256.984 176 231.352 180.408 206.752 188.992C192.976 168.128 188.088 142.48 193.528 117.984L203.728 72.08L188.024 81.056C151.304 102.04 122.792 135.12 107.216 174.384L5.91992 109.92L75.1599 218.728C77.4719 222.368 80.5359 225.312 84.0399 227.528L78.0079 236.568C77.1039 237.92 75.9519 239.056 74.6639 240H70.6239C58.1679 240 46.4559 235.152 37.6559 226.344L23.9999 212.68V232C23.9999 249.288 29.0719 266.024 38.6559 280.408L40.1199 282.6C40.3999 288 41.7439 293.36 44.1679 298.224L52.1439 314.16L64.3519 309.28C66.0799 324.272 78.7119 336 94.1679 336C95.8239 336 97.4719 335.864 99.0639 335.6L149.088 327.704C140.52 345.168 136 364.328 136 384V408C136 421.232 146.768 432 160 432H208C221.232 432 232 421.232 232 408C232 398.4 233.808 389.016 237.376 380.112L239.016 376H296.976L298.624 380.12C302.192 389.016 304 398.4 304 408C304 421.232 314.768 432 328 432H376C389.232 432 400 421.232 400 408V384C400 381.328 399.84 378.664 399.672 376H444.352C453.208 376 462.072 373.904 469.992 369.952C485.936 361.976 497.088 347.384 500.576 329.912L507.048 297.536L477.088 312.512ZM198.104 287.504C199.376 288.904 200.824 290.168 202.44 291.24L208.992 295.608C203.776 298.352 198.312 300.624 192.736 302.576C193.664 297.264 195.48 292.184 198.104 287.504ZM214.024 242.704L212.2 240.872C209.496 238.176 208 234.584 208 230.76C208 227.928 208.832 225.176 210.408 222.816L214.144 217.216C218.696 219.68 223.488 221.696 228.584 222.784C224.904 230.224 219.976 236.928 214.024 242.704ZM177.904 114.512C176.928 118.888 176.32 123.304 175.904 127.72C170.424 127.192 165.48 124.68 161.984 120.536C167.616 115.08 173.6 109.976 179.952 105.328L177.904 114.512ZM58.0799 162.08L106.136 192.664C109.808 195 112 198.992 112 203.336C112 210.32 106.32 216 99.3439 216C94.9919 216 90.9999 213.808 88.6639 210.136L58.0799 162.08ZM51.4399 252.912C49.2879 255.096 47.3999 257.512 45.8079 260.136C44.2719 256.576 43.0159 252.912 42.0879 249.16C45.0799 250.696 48.2319 251.888 51.4399 252.912ZM96.5119 319.808C87.8879 321.192 79.9999 314.424 79.9999 305.832V303.016L98.9679 295.432L93.0319 280.576L59.8559 293.84L58.4799 291.072C56.8559 287.824 55.9999 284.184 55.9999 280.568C55.9999 269.776 63.3119 260.416 73.7759 257.8C80.9759 256 87.2159 251.608 91.3199 245.44L100.368 231.896C115.688 231.344 128 218.792 128 203.336C128 196.064 125.28 189.248 120.528 184.048L120.848 183.2C127.864 164.504 138.144 147.344 150.96 132.336C157.328 139.152 166.088 143.264 175.64 143.84C176.744 164.248 183.448 184.184 195.544 201.12C197.248 203.512 199.216 205.648 201.256 207.704L197.104 213.936C193.768 218.936 192 224.752 192 230.76C192 238.864 195.16 246.472 200.88 252.192L201.536 252.848L201.376 252.968C196.448 256.656 193.336 262.216 192.408 268.232C189.232 271.76 186.472 275.576 184.192 279.632L162.528 272.408L157.464 287.584L178.168 294.488C177.088 298.568 176.424 302.768 176.176 307.048C174.184 307.44 172.2 307.88 170.192 308.168L96.5119 319.808ZM152 408C152 403.592 155.584 400 160 400C164.416 400 168 403.592 168 408V416H160C155.584 416 152 412.408 152 408ZM200 416H184V408C184 403.592 187.584 400 192 400C196.416 400 200 403.592 200 408V416ZM320 408C320 403.592 323.584 400 328 400C332.416 400 336 403.592 336 408V416H328C323.584 416 320 412.408 320 408ZM368 416H352V408C352 403.592 355.584 400 360 400C364.416 400 368 403.592 368 408V416ZM484.888 326.776C482.376 339.368 474.336 349.896 462.832 355.64C457.128 358.496 450.736 360 444.352 360H397.608C393.944 340.96 386.064 322.76 374.4 307.2L361.6 316.8C376.048 336.064 384 359.928 384 384V408C384 394.768 373.232 384 360 384C353.832 384 348.256 386.408 344 390.24C339.744 386.4 334.168 384 328 384C324.16 384 320.576 384.992 317.352 386.6C316.328 382.392 315.112 378.232 313.488 374.176L306.904 357.688C304.976 352.888 304 347.832 304 342.664C304 334.648 306.352 326.888 310.8 320.224L318.656 308.432L305.344 299.56L297.488 311.352C291.28 320.656 288 331.48 288 342.664C288 348.584 288.968 354.392 290.784 360H245.056C246.736 354.808 247.864 349.456 247.992 343.96L231.992 343.592C231.88 348.448 230.912 353.2 229.112 357.696L222.528 374.176C218.192 384.976 216 396.352 216 408C216 394.768 205.232 384 192 384C185.832 384 180.256 386.408 176 390.24C171.744 386.4 166.168 384 160 384C157.184 384 154.512 384.576 152 385.472V384C152 362.856 157.976 342.384 169.176 324.536L172.576 324C192.424 321.168 211.744 313.792 228.432 302.664L238.424 296L211.32 277.936C209.24 276.544 208 274.224 208 271.728C208 269.392 209.12 267.168 210.976 265.76L216.552 261.584C231.104 250.672 241.832 235.784 247.584 218.536L251.104 208H240C232.544 208 225.352 205.792 219.216 201.872C239.912 195.44 261.304 192 283.08 192H297.76C330.6 192 361.48 204.792 384.696 228.008C400.448 243.768 411.632 263.512 417.04 285.128L420.088 297.312C423.296 310.144 431.92 320.904 443.76 326.824C456.432 333.16 471.576 333.16 484.248 326.824L484.96 326.472L484.888 326.776Z" fill="black"/>
</svg>
