<svg width="149" height="209" viewBox="0 0 149 209" fill="none" xmlns="http://www.w3.org/2000/svg">
<path d="M2 2H147V207H2V2Z" fill="url(#paint0_linear)"/>
<path d="M2 2V0H0V2H2ZM147 2H149V0H147V2ZM147 207V209H149V207H147ZM2 207H0V209H2V207ZM2 4H147V0H2V4ZM145 2V207H149V2H145ZM147 205H2V209H147V205ZM4 207V2H0V207H4Z" fill="black"/>
<path d="M47.2339 130.557C49.7632 130.918 51.1894 127.707 49.2452 126.028L22.95 103.319L31.5687 103.8C33.1129 103.886 33.9189 101.999 32.8221 100.893C32.8094 100.881 32.7967 100.868 32.784 100.855C29.0847 97.1057 27.112 92.27 26.8653 87.3615H26.8665C26.7655 82.2358 24.7853 77.1407 20.9254 73.2292C19.0339 71.3123 16.8623 69.853 14.5439 68.8509C19.1492 65.7536 25.6342 64.4091 31.7089 68.0372C24.6489 60.8826 22.6915 50.5148 25.8364 41.5786C27.055 44.474 28.8295 47.186 31.1601 49.5482C35.9165 54.3684 42.1115 56.8415 48.3444 56.9678V56.9663C54.3127 57.2744 60.193 59.7381 64.7514 64.3578C66.2379 65.8643 67.4359 67.5692 68.4067 69.3743C69.216 70.8792 71.4695 70.2444 71.3789 68.533L70.6605 54.9674L93.0679 81.6157C94.7246 83.586 97.8934 82.1406 97.5368 79.5773L96.4912 72.0626L122.86 98.7862C138.521 114.658 138.875 140.504 123.268 156.431C107.627 172.392 82.1784 172.426 66.4951 156.532L39.8183 129.497L47.2339 130.557Z" fill="#FFA96B"/>
<path d="M62.5682 125.495L62.5664 125.497C62.5649 125.49 62.5631 125.484 62.5616 125.477C62.2235 124.52 61.951 123.544 61.7381 122.558C57.7623 110.841 47.6064 106.771 47.6064 106.771C47.6064 106.771 54.224 101.373 64.0987 105.982C59.2851 103.231 54.5469 89.9226 59.0663 79.4537C65.1858 89.4049 77.7033 91.0921 88.9578 94.1187C90.467 94.4052 91.9537 94.8409 93.3944 95.4292C93.3972 95.4303 93.4003 95.431 93.4031 95.4321L93.4025 95.4323C96.2379 96.5917 98.8951 98.3349 101.193 100.664C110.345 109.939 110.345 124.977 101.193 134.252C92.0415 143.527 77.2031 143.527 68.0511 134.252C65.5249 131.692 63.6998 128.691 62.5682 125.495V125.495Z" fill="#FFCD69"/>
<path d="M72.4918 120.54L74.9573 114.713C77.1597 109.508 81.6601 105.664 87.0952 104.346L93.702 102.743C99.0466 101.447 104.682 102.742 108.952 106.248L115.632 111.733C121.473 116.529 123.684 124.543 121.145 131.714L118.556 139.024C116.464 144.931 111.476 149.298 105.406 150.539L97.399 152.175C90.6988 153.544 83.8197 150.878 79.7309 145.327L74.5739 138.325C70.7973 133.198 70.0038 126.42 72.4918 120.54V120.54Z" fill="#FF7D97"/>
<path d="M46.011 104.763C45.3579 105.296 45.0076 106.122 45.0717 106.969C45.1358 107.817 45.61 108.579 46.3358 109.005C46.4358 109.064 56.3502 114.979 59.9488 125.583C64.2535 138.479 73.1747 142.693 75.2153 143.506L77.6922 146.869C81.5418 152.095 87.6364 155.102 93.9443 155.102C95.2604 155.102 96.5861 154.971 97.9021 154.702L105.909 153.066C112.809 151.655 118.573 146.609 120.951 139.895L123.539 132.585C126.44 124.394 123.907 115.209 117.234 109.73L110.554 104.245C109.405 103.302 108.162 102.499 106.854 101.841C102.677 96.5221 96.7535 93.0554 89.3773 91.575C82.0479 90.1043 66.722 87.029 61.2261 78.0908C60.7267 77.2789 59.8251 76.8128 58.8828 76.8829C57.9413 76.9523 57.1147 77.5442 56.7361 78.4208C53.3806 86.1934 54.5475 95.3338 57.4815 101.577C50.6073 101.107 46.2511 104.567 46.011 104.763V104.763ZM114.031 113.736C119.025 117.837 120.921 124.712 118.75 130.843L116.161 138.153C114.381 143.178 110.067 146.956 104.903 148.011L96.8959 149.647C91.1894 150.813 85.2516 148.512 81.7693 143.784L76.6123 136.783C73.3897 132.408 72.7069 126.573 74.8299 121.556L77.2953 115.729C79.1718 111.294 83.0566 107.976 87.687 106.853L92.2215 105.753V106.467C92.2215 107.891 93.3607 109.046 94.7655 109.046C96.1704 109.046 97.3096 107.891 97.3096 106.467V104.848C97.4676 104.844 97.6255 104.835 97.7833 104.835C101.229 104.835 104.638 106.024 107.35 108.251L114.031 113.736ZM63.0342 108.324C64.2731 108.902 65.7426 108.388 66.3638 107.156C66.9848 105.925 66.5368 104.416 65.3485 103.737C62.4877 102.102 58.5623 93.3805 60.1055 84.8074C67.92 92.5253 81.4406 95.2386 88.3886 96.6327C91.484 97.254 94.3208 98.2943 96.7377 99.709C95.5219 99.7722 94.3074 99.9452 93.1101 100.235L86.503 101.838C80.3166 103.338 75.1265 107.772 72.6196 113.696L70.1542 119.523C68.4441 123.565 68.0989 128.002 69.0358 132.171C67.4486 130.081 65.9214 127.384 64.7646 123.919C62.0247 115.844 56.3833 110.223 52.6092 107.184C55.0324 106.499 58.6287 106.267 63.0342 108.324V108.324Z" fill="black"/>
<path d="M104.646 117.145C103.653 116.138 102.042 116.138 101.048 117.145C100.055 118.152 100.055 119.785 101.049 120.791L103.049 122.818C103.546 123.322 104.197 123.574 104.848 123.574C105.499 123.574 106.15 123.322 106.646 122.818C107.64 121.811 107.64 120.179 106.646 119.172L104.646 117.145Z" fill="black"/>
<path d="M93.0693 136.286H89.7621C88.3572 136.286 87.218 137.44 87.218 138.864C87.218 140.288 88.3572 141.442 89.7621 141.442H93.0693C94.4741 141.442 95.6134 140.288 95.6134 138.864C95.6134 137.44 94.4741 136.286 93.0693 136.286Z" fill="black"/>
<path d="M89.2534 127.437V125.41C89.2534 123.986 88.1141 122.832 86.7093 122.832C85.3045 122.832 84.1653 123.986 84.1653 125.41V127.437C84.1653 128.86 85.3045 130.015 86.7093 130.015C88.1141 130.015 89.2534 128.86 89.2534 127.437Z" fill="black"/>
<path d="M104.603 135.054C103.61 136.06 103.61 137.693 104.603 138.7C105.1 139.203 105.751 139.455 106.402 139.455C107.053 139.455 107.704 139.203 108.201 138.7L109.615 137.266C110.609 136.26 110.609 134.627 109.616 133.62C108.623 132.614 107.012 132.613 106.018 133.62L104.603 135.054Z" fill="black"/>
<path d="M124.66 96.9632L98.2909 70.2396C97.5173 69.4556 96.3353 69.2604 95.3564 69.7557C94.3772 70.2507 93.82 71.3245 93.9729 72.4229L95.0182 79.9374C95.0185 79.9394 95.0188 79.9412 95.019 79.943C95.0155 79.9446 95.0121 79.9464 95.0086 79.9479C95.0073 79.9464 95.006 79.9448 95.0048 79.9433L72.5971 53.295C71.8896 52.4534 70.7313 52.1624 69.718 52.5726C68.7047 52.9825 68.0618 54.0014 68.1206 55.1054L68.6439 64.9842C67.9919 64.105 67.2928 63.2864 66.5507 62.5343C61.7162 57.6352 55.2162 54.7414 48.3938 54.3894C48.3401 54.3863 48.4475 54.3879 48.3938 54.3894C42.5947 54.251 37.0644 51.8852 32.9596 47.7247C30.9114 45.6492 29.3025 43.2409 28.1768 40.5665C27.7659 39.5904 26.8028 38.968 25.7597 39.0013C24.7128 39.0332 23.7924 39.7123 23.4405 40.7122C20.7968 48.2239 21.5167 56.4665 25.1295 63.3207C21.0672 63.0373 16.8998 64.172 13.1374 66.7023C12.3582 67.2264 11.9252 68.1417 12.0107 69.0856C12.0959 70.0298 12.6856 70.8501 13.546 71.2219C15.6306 72.123 17.5083 73.4116 19.1269 75.0516C22.3682 78.3365 24.2111 82.6969 24.3216 87.3369C24.3213 87.3885 24.3223 87.44 24.3249 87.4921C24.577 92.5068 26.4196 97.2628 29.5727 101.106L23.0905 100.744C21.995 100.684 20.9937 101.334 20.5884 102.361C20.1832 103.388 20.4696 104.563 21.3005 105.281L47.5952 127.989L47.5998 127.993C47.5983 127.997 47.5968 128 47.595 128.004C47.5932 128.004 47.5914 128.003 47.5896 128.003L40.1745 126.943C39.092 126.791 38.0314 127.353 37.5427 128.345C37.0542 129.338 37.2466 130.535 38.0202 131.319L56.6022 150.151C57.5959 151.158 59.2063 151.158 60.2002 150.151C61.1937 149.144 61.1937 147.512 60.2002 146.505L46.9974 133.124C49.2201 133.391 51.3151 132.193 52.2379 130.115C53.1769 128 52.6375 125.569 50.8961 124.065L30.34 106.314L31.4288 106.375C33.1942 106.465 34.7888 105.484 35.5044 103.855C36.2249 102.216 35.8763 100.335 34.6214 99.0699L34.5832 99.0315C31.4861 95.8927 29.6508 91.7312 29.4104 87.3057C29.2906 81.3007 26.9165 75.6547 22.7249 71.406C21.8805 70.5503 20.9807 69.7686 20.0298 69.0645C22.7977 68.2131 26.5374 67.9411 30.4173 70.2584C31.5209 70.918 32.9359 70.6423 33.7203 69.6159C34.5046 68.5898 34.4138 67.1321 33.5078 66.2142C28.8929 61.5376 26.583 55.0688 26.9819 48.6271C27.711 49.5875 28.5052 50.5033 29.3616 51.3716C34.4201 56.4982 41.1438 59.401 48.2941 59.5456H48.2982C53.8289 59.8517 59.0307 62.2059 62.9529 66.181C64.1773 67.4219 65.2606 68.9113 66.1734 70.6086C67.1053 72.3411 69.0619 73.1757 70.9323 72.6384C72.7953 72.1029 74.0238 70.3577 73.9197 68.3949L73.6045 62.4433L91.132 83.2883C92.6164 85.0531 95.016 85.5994 97.1021 84.6478C99.1526 83.7127 100.334 81.5892 100.072 79.3369L121.062 100.61C135.814 115.56 135.994 139.786 121.464 154.614C109.767 166.55 91.4322 169.269 76.8762 161.226C75.6428 160.545 74.0973 161.005 73.4249 162.255C72.752 163.505 73.2071 165.071 74.4405 165.753C80.6785 169.2 87.7743 171 94.8966 171C96.8357 171 98.7781 170.866 100.704 170.596C110.009 169.292 118.436 165.022 125.074 158.248C141.575 141.409 141.389 113.917 124.66 96.9632V96.9632Z" fill="black"/>
<path d="M19.5214 125.159C18.5276 124.153 16.9173 124.153 15.9233 125.159C14.9299 126.166 14.9299 127.799 15.9233 128.806L26.7994 139.828C27.2962 140.331 27.9472 140.583 28.5982 140.583C29.2493 140.583 29.9003 140.331 30.3971 139.828C31.3906 138.821 31.3906 137.188 30.3971 136.181L19.5214 125.159Z" fill="black"/>
<path d="M106.885 64.3007C107.381 64.804 108.032 65.0558 108.683 65.0558C109.334 65.0558 109.985 64.804 110.482 64.3007C111.476 63.2939 111.476 61.6614 110.482 60.6543L99.6063 49.6321C98.6126 48.6256 97.0022 48.6256 96.0083 49.6321C95.0148 50.6389 95.0148 52.2714 96.0083 53.2785L106.885 64.3007Z" fill="black"/>
<path d="M66.4958 153.956C65.8242 153.956 65.1704 154.229 64.6973 154.709C64.2244 155.188 63.9519 155.853 63.9519 156.534C63.9519 157.212 64.2241 157.877 64.6973 158.354C65.1704 158.834 65.8245 159.11 66.4958 159.11C67.1649 159.11 67.8212 158.834 68.2944 158.354C68.7673 157.875 69.0398 157.212 69.0398 156.534C69.0398 155.853 68.7676 155.191 68.2944 154.709C67.8212 154.229 67.1649 153.956 66.4958 153.956Z" fill="black"/>
<defs>
<linearGradient id="paint0_linear" x1="74.5" y1="2" x2="74.5" y2="207" gradientUnits="userSpaceOnUse">
<stop stop-color="white"/>
<stop offset="1" stop-color="white" stop-opacity="0"/>
</linearGradient>
</defs>
</svg>
